<svg xmlns="http://www.w3.org/2000/svg" xmlns:xlink="http://www.w3.org/1999/xlink" viewBox="0 0 102.74 124.63"><defs><style>.cls-1,.cls-16,.cls-17{fill:#eb7013;}.cls-2{fill:none;}.cls-3{fill:#f8d700;}.cls-4{fill:#ffc817;}.cls-5{fill:#ff7917;}.cls-6{fill:#907f2c;}.cls-7{fill:#e15204;}.cls-8,.cls-88{fill:#fec502;}.cls-9{isolation:isolate;}.cls-10{fill:#676a23;}.cls-11{clip-path:url(#clip-path);}.cls-12,.cls-17,.cls-75{opacity:0.14;}.cls-12,.cls-18,.cls-19,.cls-76,.cls-86,.cls-87{mix-blend-mode:screen;}.cls-13{fill:#fab93b;}.cls-14{opacity:0.2;}.cls-14,.cls-16,.cls-17,.cls-24,.cls-52,.cls-75,.cls-88{mix-blend-mode:multiply;}.cls-15{clip-path:url(#clip-path-2);}.cls-16{opacity:0.25;}.cls-18,.cls-20,.cls-76{fill:#fff;}.cls-18,.cls-19{opacity:0.11;}.cls-21{clip-path:url(#clip-path-3);}.cls-22{fill:#ff6300;}.cls-23{fill:#ff991a;}.cls-24{fill:#ff6a0b;}.cls-24,.cls-52{opacity:0.36;}.cls-25{fill:#ff8f27;}.cls-26{fill:#fc9d1a;}.cls-27{fill:#fff5f2;}.cls-28{clip-path:url(#clip-path-4);}.cls-29{clip-path:url(#clip-path-5);}.cls-30{clip-path:url(#clip-path-6);}.cls-31{clip-path:url(#clip-path-7);}.cls-32{clip-path:url(#clip-path-8);}.cls-33{clip-path:url(#clip-path-9);}.cls-34{clip-path:url(#clip-path-10);}.cls-35{clip-path:url(#clip-path-11);}.cls-36{opacity:0.41;}.cls-36,.cls-82,.cls-83{mix-blend-mode:soft-light;}.cls-37{opacity:0.32;}.cls-38{opacity:0.34;}.cls-39,.cls-86{opacity:0.43;}.cls-40{clip-path:url(#clip-path-12);}.cls-41{fill:#fff93f;}.cls-42{fill:#f8b200;}.cls-43,.cls-45,.cls-48{fill:#fcb300;}.cls-43{opacity:0.29;}.cls-44{clip-path:url(#clip-path-13);}.cls-45,.cls-88{opacity:0.48;}.cls-46{opacity:0.64;}.cls-47{fill:#f7bc00;}.cls-48,.cls-83{opacity:0.42;}.cls-49{clip-path:url(#clip-path-15);}.cls-50{fill:#ffbc00;}.cls-51{fill:#ffde1a;}.cls-52{fill:#ffbf0b;}.cls-53{fill:#ffd527;}.cls-54{fill:#fce01a;}.cls-55{fill:#fffaf2;}.cls-56{clip-path:url(#clip-path-16);}.cls-57{clip-path:url(#clip-path-17);}.cls-58{clip-path:url(#clip-path-18);}.cls-59{clip-path:url(#clip-path-19);}.cls-60{clip-path:url(#clip-path-20);}.cls-61{clip-path:url(#clip-path-21);}.cls-62{clip-path:url(#clip-path-22);}.cls-63{clip-path:url(#clip-path-23);}.cls-64{clip-path:url(#clip-path-24);}.cls-65{fill:#84711e;}.cls-66{fill:#a18c37;}.cls-67{opacity:0.78;}.cls-68{fill:#73621a;}.cls-69{fill:#a18927;}.cls-70{fill:#b39b38;}.cls-71{clip-path:url(#clip-path-25);}.cls-72{fill:#e16b04;}.cls-73,.cls-75{fill:#d94404;}.cls-74{clip-path:url(#clip-path-26);}.cls-76{opacity:0.1;}.cls-77{clip-path:url(#clip-path-27);}.cls-78{opacity:0.66;}.cls-79{fill:#fee25d;}.cls-80{fill:#f2b701;}.cls-81{fill:#e5a900;}.cls-82{opacity:0.6;}.cls-84{clip-path:url(#clip-path-28);}.cls-85,.cls-86{fill:#743b2a;}.cls-87{opacity:0.53;}</style><clipPath id="clip-path"><path class="cls-1" d="M40.88,53.63c5.35,6.81,14.17,8.89,22.13,7.74a18.91,18.91,0,0,0,8.82-3.31,29,29,0,0,0,4.55-4.64,29.7,29.7,0,0,0,5.25-7.74,23.88,23.88,0,0,0,1.57-8.47c.22-7.83-1.89-15.82-6.27-21.88s-11.08-10-18-10c-8.47,0-16.42,5.76-21.23,13.67A30.27,30.27,0,0,0,33,36.65a27.68,27.68,0,0,0,4.49,12.92A45.13,45.13,0,0,0,40.88,53.63Z"/></clipPath><clipPath id="clip-path-2"><path class="cls-2" d="M40.88,53.63c5.35,6.81,14.17,8.89,22.13,7.74a18.91,18.91,0,0,0,8.82-3.31,29,29,0,0,0,4.55-4.64,29.7,29.7,0,0,0,5.25-7.74,23.88,23.88,0,0,0,1.57-8.47c.22-7.83-1.89-15.82-6.27-21.88s-11.08-10-18-10c-8.47,0-16.42,5.76-21.23,13.67A30.27,30.27,0,0,0,33,36.65a27.68,27.68,0,0,0,4.49,12.92A45.13,45.13,0,0,0,40.88,53.63Z"/></clipPath><clipPath id="clip-path-3"><path class="cls-5" d="M60.46,32.62s-4.62,8-4.53,15.74c.07,5.78,3.86,16.19,9,19.83s11.32,7.49,19,5.37S103.77,58,101.84,54,60.46,32.62,60.46,32.62Z"/></clipPath><clipPath id="clip-path-4"><path class="cls-2" d="M83.06,41c1-2.18,2.06-4.35,3.08-6.53a.42.42,0,0,0,0-.41,1,1,0,0,0-.35-.31,17.33,17.33,0,0,0-11.54-2.6c-.5.08-1,.25-1.11.67a1.53,1.53,0,0,0,.28.86c1.48,2.62,3.59,5.13,4.77,7.79.38.88,1.44,3.76,3.14,3.63C82.29,44,82.79,41.57,83.06,41Z"/></clipPath><clipPath id="clip-path-5"><path class="cls-2" d="M77.07,40.29l-5.22-8a1,1,0,0,0-.39-.39.85.85,0,0,0-.44-.05c-3.52.37-6.18,2.41-6.93,5.35a1.39,1.39,0,0,0,.23,1.35,2.69,2.69,0,0,0,1,.6c3.13,1.39,6.39,2.26,9.44,3.88,1,.54,4.24,2.46,4.75,1.19C79.74,43.55,77.54,41,77.07,40.29Z"/></clipPath><clipPath id="clip-path-6"><path class="cls-2" d="M73.21,43.53,64,39.46a.78.78,0,0,0-.51-.11c-.12,0-.17.15-.21.26-1,2.83-.18,6.67,2.17,10A2.69,2.69,0,0,0,66.8,50.8a1.43,1.43,0,0,0,.9-.09c2.44-.84,4.46-2.29,7.09-2.86.86-.18,3.82-.59,2.88-2.17C77.16,44.82,74,43.9,73.21,43.53Z"/></clipPath><clipPath id="clip-path-7"><path class="cls-2" d="M88.41,50.06l8.8,4.24a.7.7,0,0,0,.48.11c.11,0,.15-.16.18-.28a14.21,14.21,0,0,0-2.28-10.88c-.34-.5-.74-1.17-1.24-1.32a3.76,3.76,0,0,0-1.5.36c-2.23.93-3.74,2.53-6.17,3.16-.79.21-3.53.69-2.56,2.37C84.64,48.72,87.62,49.67,88.41,50.06Z"/></clipPath><clipPath id="clip-path-8"><path class="cls-2" d="M84.89,53.18l5.07,8a1,1,0,0,0,.38.4.86.86,0,0,0,.44.06c3.56-.31,6.27-2.3,7.1-5.2a1.38,1.38,0,0,0-.21-1.35,2.73,2.73,0,0,0-.94-.61c-3.12-1.44-6.38-2.35-9.41-4-1-.55-4.21-2.51-4.75-1.26C82.28,49.89,84.43,52.46,84.89,53.18Z"/></clipPath><clipPath id="clip-path-9"><path class="cls-2" d="M78.74,52.64c-1.2,2.13-2.4,4.25-3.59,6.38a.42.42,0,0,0-.07.4.84.84,0,0,0,.34.3,17.88,17.88,0,0,0,11.71,2.37c.52-.09,1.09-.25,1.19-.66a1.31,1.31,0,0,0-.23-.84c-1.35-2.53-3.36-4.94-4.4-7.51-.35-.84-1.25-3.63-3-3.48C79.73,49.69,79.06,52.06,78.74,52.64Z"/></clipPath><clipPath id="clip-path-10"><path class="cls-2" d="M93.44,40.57c0-.94-5.51-6-6-5.68s-5.09,8.75-5,9.29c.1.83.11,1.88,2,1.39S93.43,41.63,93.44,40.57Z"/></clipPath><clipPath id="clip-path-11"><path class="cls-2" d="M74,58.9c.58.06,5.73-9.28,5.41-9.74S78.58,47,77.17,48s-3,.92-5,1.76-4.83,1.91-4.61,2.75S72.87,58.77,74,58.9Z"/></clipPath><clipPath id="clip-path-12"><path class="cls-3" d="M25.44,49.67a27.6,27.6,0,0,1-3.86-9c-.32-2.71-.14-5.5-.84-8.12a11.29,11.29,0,0,1-.51-2,3,3,0,0,1,1.25-2.72c1-.63,2.23-.43,3.33-.75,1.46-.42,2.56-1.71,3.76-2.73A12.89,12.89,0,0,1,32,22.25a14,14,0,0,1,2.88-.84A17.81,17.81,0,0,1,47.39,23.8,22.25,22.25,0,0,1,56.1,34.28a15.44,15.44,0,0,1,1.15,4.35c.29,3.33.28,8-3.58,12.36-2.09,2.37-5.7,5.71-8.58,6.46C37.52,59.43,31.05,56.56,25.44,49.67Z"/></clipPath><clipPath id="clip-path-13"><path class="cls-2" d="M25.44,49.67a27.6,27.6,0,0,1-3.86-9c-.32-2.71-.14-5.5-.84-8.12a11.29,11.29,0,0,1-.51-2,3,3,0,0,1,1.25-2.72c1-.63,2.23-.43,3.33-.75,1.46-.42,2.56-1.71,3.76-2.73A12.89,12.89,0,0,1,32,22.25a14,14,0,0,1,2.88-.84A17.81,17.81,0,0,1,47.39,23.8,22.25,22.25,0,0,1,56.1,34.28a15.44,15.44,0,0,1,1.15,4.35c.29,3.33.28,8-3.58,12.36-2.09,2.37-5.7,5.71-8.58,6.46C37.52,59.43,31.05,56.56,25.44,49.67Z"/></clipPath><clipPath id="clip-path-15"><path class="cls-4" d="M32.16,67.65s4.16,4.51,8.77,5.39c3.44.65,10.07-1,12.85-4.45s5.82-7.74,5.51-13.87-6.8-17.07-9.38-16.08S32.16,67.65,32.16,67.65Z"/></clipPath><clipPath id="clip-path-16"><path class="cls-2" d="M39.88,51.4l-3.49-3.15c-.07-.06-.15-.13-.24-.08s-.16.13-.23.23a16.17,16.17,0,0,0-3,8.5c0,.39,0,.82.26.93a.75.75,0,0,0,.54-.11c1.74-.81,3.48-2.12,5.2-2.69.57-.19,2.41-.64,2.54-2C41.57,52.36,40.19,51.68,39.88,51.4Z"/></clipPath><clipPath id="clip-path-17"><path class="cls-2" d="M38.73,55.9l-5.37,3a.66.66,0,0,0-.28.25.76.76,0,0,0-.08.32c-.21,2.75.68,5,2.33,6a.67.67,0,0,0,.82,0,2.2,2.2,0,0,0,.48-.66c1.2-2.22,2.11-4.6,3.45-6.74.44-.7,2-2.93,1.28-3.48C41,54.25,39.22,55.62,38.73,55.9Z"/></clipPath><clipPath id="clip-path-18"><path class="cls-2" d="M40.18,59.24l-3.53,6.52a.72.72,0,0,0-.13.37.25.25,0,0,0,.13.19c1.55,1.12,3.93,1,6.22-.43A1.92,1.92,0,0,0,43.7,65a1.44,1.44,0,0,0,.07-.7c-.21-2-.82-3.69-.83-5.77,0-.68.11-3-.94-2.46C41.43,56.38,40.5,58.66,40.18,59.24Z"/></clipPath><clipPath id="clip-path-19"><path class="cls-2" d="M45.91,48.42l3.59-6.21a.69.69,0,0,0,.13-.35c0-.09-.08-.13-.15-.17a6.92,6.92,0,0,0-6.72.41c-.34.2-.79.42-.94.79a3.58,3.58,0,0,0,0,1.18c.28,1.83,1,3.18,1.12,5.11,0,.63,0,2.78,1.09,2.25C44.66,51.14,45.59,49,45.91,48.42Z"/></clipPath><clipPath id="clip-path-20"><path class="cls-2" d="M47.33,51.49,52.7,48.6a.69.69,0,0,0,.29-.25.76.76,0,0,0,.08-.32c.26-2.76-.59-5.08-2.21-6.06A.66.66,0,0,0,50,42a2,2,0,0,0-.48.64c-1.23,2.21-2.17,4.59-3.53,6.71-.45.69-2,2.9-1.33,3.47C45.06,53.09,46.85,51.76,47.33,51.49Z"/></clipPath><clipPath id="clip-path-21"><path class="cls-2" d="M46.26,56.13l3.34,3.52c.06.07.14.14.23.1s.15-.13.22-.22a16.92,16.92,0,0,0,2.84-8.66c0-.41,0-.86-.25-1a.65.65,0,0,0-.53.07c-1.66.73-3.33,2-5,2.45-.55.16-2.31.51-2.43,1.87C44.63,55,46,55.81,46.26,56.13Z"/></clipPath><clipPath id="clip-path-22"><path class="cls-2" d="M40.9,43.41c-.55-.12-4.2,3.49-4.09,3.86a41.16,41.16,0,0,0,4.89,5c.51,0,1.13.14,1.07-1.39S41.53,43.55,40.9,43.41Z"/></clipPath><clipPath id="clip-path-23"><path class="cls-2" d="M49.39,60.51c.1-.43-4.8-5.51-5.11-5.33s-1.36.39-1,1.57.17,2.42.43,4,.54,3.93,1.07,3.86S49.17,61.37,49.39,60.51Z"/></clipPath><clipPath id="clip-path-24"><path class="cls-6" d="M77.15,52.52a5.94,5.94,0,0,0-5.23-1C70.44,52,69,52.64,67.49,53c-.66.15-1.31.28-2,.38a8.78,8.78,0,0,1-.88.1A11.71,11.71,0,0,1,66.43,52,28.66,28.66,0,0,0,70,49.09c.37-.34,1-1,.59-1.21-1.77-1-4.23-.28-5.94.61a13.41,13.41,0,0,0-1.84,1.19c-.11-.49-.23-1-.32-1.36a10.33,10.33,0,0,0-2.73-5.53,6.13,6.13,0,0,0-4.37-1.71c-1,.06-2.79.34-3,1.79a.25.25,0,0,0,.47.15c.54-1,2.85,0,3.54.34,1.14.63,2.72,1.78,3.17,3.12a22.64,22.64,0,0,1,.77,4.18,12.6,12.6,0,0,0-4.55-1.73c-2.22-.33-5.3,0-7.09,1.66-.86.81-.48,1,.39.83,1.72-.3,4.34.58,6.05,1.08l.18,0c-1.64.42-3.21,1.18-4.87,1.44-1.82.29-3.38-.22-5.15-.51-.54-.09-1,.08-.56.73,2.12,3.44,6,3.73,9.25,3.16a13.78,13.78,0,0,1,4.28-.44c.81.11,1.78.63,2.69.74a3,3,0,0,0,.61.73c1.43,1.23,4.05.42,5.65,0a23.73,23.73,0,0,0,4.65-1.68,13.27,13.27,0,0,1,2-.93,7.26,7.26,0,0,1,3-.29c.58.27,1.68,1.4,2,1.22S78.17,53.32,77.15,52.52Z"/></clipPath><clipPath id="clip-path-25"><path class="cls-7" d="M42.06,62.87c-1.91,3-4,7.93-4.16,11.66a26.64,26.64,0,0,0,.66,5.76c1.14,6,2.61,12.52,7,16,3.08,2.43,7.09,2.9,10.23,5.23a10.11,10.11,0,0,1,2.71,3c.21.37.47.81.86.77s.44-.23.62-.43c4.13-4.56,11-4.44,15.36-8.67,2.6-2.49,4-6.19,5.3-9.78s2.62-7.63,2.26-11.62a26.57,26.57,0,0,0-3-10C75,56.09,69.28,55.17,60.27,54.5,53.17,54,45.92,56.7,42.06,62.87Z"/></clipPath><clipPath id="clip-path-26"><path class="cls-2" d="M42.06,62.87c-1.91,3-4,7.93-4.16,11.66a26.64,26.64,0,0,0,.66,5.76c1.14,6,2.61,12.52,7,16,3.08,2.43,7.09,2.9,10.23,5.23a10.11,10.11,0,0,1,2.71,3c.21.37.47.81.86.77s.44-.23.62-.43c4.13-4.56,11-4.44,15.36-8.67,2.6-2.49,4-6.19,5.3-9.78s2.62-7.63,2.26-11.62a26.57,26.57,0,0,0-3-10C75,56.09,69.28,55.17,60.27,54.5,53.17,54,45.92,56.7,42.06,62.87Z"/></clipPath><clipPath id="clip-path-27"><path class="cls-8" d="M53.39,99.05a4.1,4.1,0,0,0,.82-4.87,6.78,6.78,0,0,0-3.1-2.47A78,78,0,0,1,31,76.7a44.71,44.71,0,0,1-5.89-7.26C19,59.71,18.22,47,17.66,35.09c-.1-2.12-.08-4.58,1.37-5.94.46-.43,1-.7,1.46-1.16a6,6,0,0,0,1.12-2.66c.39-1.61.77-3.22,1.16-4.83a2.47,2.47,0,0,0,.08-1.26,1.86,1.86,0,0,0-.46-.75,6.3,6.3,0,0,0-4.34-2.13c-1.55,2-3.26,4.09-3.3,6.73,0,.67.09,1.34.09,2,0,2.65-1.52,5-3.26,6.77s-3.75,3.21-5.26,5.23a18.63,18.63,0,0,0-2.78,6C.79,52.83,2.91,63.53,6.81,72.69,12.48,86,21.62,96.34,33.9,101.16c2.79,1.09,6.57,2,9.49,1.53C47,102.12,50.47,101.46,53.39,99.05Z"/></clipPath><clipPath id="clip-path-28"><path class="cls-2" d="M53.39,99.05a4.1,4.1,0,0,0,.82-4.87,6.78,6.78,0,0,0-3.1-2.47A78,78,0,0,1,31,76.7a44.71,44.71,0,0,1-5.89-7.26C19,59.71,18.22,47,17.66,35.09c-.1-2.12-.08-4.58,1.37-5.94.46-.43,1-.7,1.46-1.16a6,6,0,0,0,1.12-2.66c.39-1.61.77-3.22,1.16-4.83a2.47,2.47,0,0,0,.08-1.26,1.86,1.86,0,0,0-.46-.75,6.3,6.3,0,0,0-4.34-2.13c-1.55,2-3.26,4.09-3.3,6.73,0,.67.09,1.34.09,2,0,2.65-1.52,5-3.26,6.77s-3.75,3.21-5.26,5.23a18.63,18.63,0,0,0-2.78,6C.79,52.83,2.91,63.53,6.81,72.69,12.48,86,21.62,96.34,33.9,101.16c2.79,1.09,6.57,2,9.49,1.53C47,102.12,50.47,101.46,53.39,99.05Z"/></clipPath></defs><title>fruits</title><g class="cls-9"><g id="Capa_2" data-name="Capa 2"><g id="Ediccion"><path class="cls-10" d="M46,18.9a13.74,13.74,0,0,0-2.77-3.69c-1-.83-2.3-2.21-3.59-1.82a.48.48,0,0,0-.24.66c.47,1.17,1.87,1.65,2.77,2.32A38.89,38.89,0,0,1,45.7,19.2a.23.23,0,0,0,.34-.3Z"/><path class="cls-1" d="M40.88,53.63c5.35,6.81,14.17,8.89,22.13,7.74a18.91,18.91,0,0,0,8.82-3.31,29,29,0,0,0,4.55-4.64,29.7,29.7,0,0,0,5.25-7.74,23.88,23.88,0,0,0,1.57-8.47c.22-7.83-1.89-15.82-6.27-21.88s-11.08-10-18-10c-8.47,0-16.42,5.76-21.23,13.67A30.27,30.27,0,0,0,33,36.65a27.68,27.68,0,0,0,4.49,12.92A45.13,45.13,0,0,0,40.88,53.63Z"/><g class="cls-11"><g class="cls-12"><path class="cls-13" d="M49.42,6.66a7.59,7.59,0,0,0,2.81.9c1.23.32,2.44.33,3.66.75a34.92,34.92,0,0,1,6.41,3.26,34.35,34.35,0,0,1,3.19,2.22c.2.15.76.72,0,0l.51.48a19,19,0,0,1,1.39,1.57c.7.86,1.34,1.78,2,2.66s-.13-.09-.13-.22a5.64,5.64,0,0,0,.52.8c.34.54.66,1.1,1,1.67.58,1.08,1.06,2.2,1.55,3.33.39.91-.44-1.35-.15-.4.07.24.15.47.23.7.22.71.44,1.41.64,2.13.15.56.28,1.12.4,1.69a11.76,11.76,0,0,0,.37,2.11s-.14-1.61-.09-.73c0,.36.07.72.09,1.08,0,.82.07,1.64.06,2.45,0,.64,0,1.28-.07,1.91l-.06.82c-.13,1.6,0-.54.06-.53s-.72,3.9-.81,4.26c-.14.62-.29,1.23-.47,1.84-.1.34-.2.69-.31,1s-.5,1.41-.08.29.06-.18,0,0c-.33.81-.6,1.62-.9,2.44.07-.2.7-1.68.13-.43-.14.33-.28.66-.43,1a70.17,70.17,0,0,1-4.39,8.22c-.35.55,0-.06.1-.15-.42.62-.86,1.22-1.24,1.87s-.76,1.33-1.15,2c-.77,1.31-1.42,2.66-2.1,4-1.22,2.43.78,5,3,4.49a24.78,24.78,0,0,0,8.68-3.53,28.59,28.59,0,0,0,7.37-6.5A35,35,0,0,0,86.66,45,36.13,36.13,0,0,0,88,34.18,38,38,0,0,0,82.16,14.3,31.68,31.68,0,0,0,67.33,1.91,24.67,24.67,0,0,0,56.63,0c-1.7.1-3.83.27-5.31,1.36a5.64,5.64,0,0,0-2.58,3.91,1.63,1.63,0,0,0,.68,1.35Z"/></g><g class="cls-14"><path class="cls-1" d="M49.08,4.33c-1.9-2.47-5.5-.11-7.41,1.19A26,26,0,0,0,36.05,11a38.21,38.21,0,0,0-7.36,16.56c-2.36,13.65,4,28.1,13.44,36.38a24.64,24.64,0,0,0,9.11,5.2,15.16,15.16,0,0,0,5.21.71A6.28,6.28,0,0,0,59.56,69a6.39,6.39,0,0,0,1.09-.93l.2-.23c.67-1,.72-1.06.17-.32a2.84,2.84,0,0,0,.46-4.08l.13.28c.26.59.18.37-.22-.66-.08-.17-.13-.33-.22-.49a7.31,7.31,0,0,0-2-2.27c-.94-.72-1.91-1.37-2.87-2s-1.8-1.35-2.67-2.06.66.7,0,0c-.17-.19-.37-.36-.56-.54-.49-.5-1-1-1.46-1.5A51,51,0,0,1,47,48.34c-.42-.57-1-1.16-.19-.22a13.16,13.16,0,0,1-1-1.6c-.66-1.09-1.28-2.21-1.86-3.35s-1.13-2.37-1.68-3.56c-.24-.51-.44-1-.67-1.56-.44-.93.35,1.17,0,.16-.11-.36-.24-.72-.35-1.09a30,30,0,0,1-.91-3.91,3.13,3.13,0,0,1-.13-.85s.1,1.26.05.41c0-.59-.11-1.19-.18-1.78C40,30,40,29.78,40,30.41c.05.43.06.45,0,.05,0-1.26-.15-2.49-.11-3.75,0-.67.08-1.33.12-2s0,0,0,.13c.08-.48.15-1,.24-1.43a22.82,22.82,0,0,1,.9-3.29c-.28.82.26-.63.35-.84.26-.61.54-1.21.84-1.79a26.76,26.76,0,0,1,3.9-5.6c1.62-1.93,5-4.66,2.8-7.57Z"/></g></g><g class="cls-15"><path class="cls-16" d="M87.64,33a10.75,10.75,0,0,0-.59-1.55c-.2-.46-.14-.82-.16-.25A5.9,5.9,0,0,0,86.2,29,3.89,3.89,0,0,0,84.92,26a3.07,3.07,0,0,0-4.34.29,81.43,81.43,0,0,1-6.81,5.69c-2,1.5-4.12,3.18-6.46,3.93-4.39,1.42-9.53.66-13.75-1.16a18.62,18.62,0,0,1-9.63-9.5,22.76,22.76,0,0,1-1.11-3.07,38.63,38.63,0,0,0-.66-4.29c-.06-.27-.13-.53-.19-.79A14.26,14.26,0,0,1,42,14.69a17.53,17.53,0,0,1,.59-3.26c1.65-.53,1.4-3.66-.42-3.5a3.51,3.51,0,0,0-2.66,1.91c-1.78-.5-3.29.76-3.91,2.6-.07.23-.13.47-.19.7a43.87,43.87,0,0,0-1,4.87,3.52,3.52,0,0,0-3.51,2.85,42.55,42.55,0,0,0,.66,21.78,40.82,40.82,0,0,0,4.56,10.28A3.92,3.92,0,0,0,36.93,55c3.18,4,6.47,9.08,11.38,10.35,4.55,1.18,9.78.36,14.28-.76A31.85,31.85,0,0,0,84,47.45a33,33,0,0,0,2.69-8.6,10.25,10.25,0,0,0,1-2.38A7,7,0,0,0,87.64,33Z"/><path class="cls-17" d="M90.92,45a9.81,9.81,0,0,0-.71-1.63c-.24-.49-.17-.86-.19-.26a5.8,5.8,0,0,0-.84-2.35,3.85,3.85,0,0,0-1.55-3.24,4.1,4.1,0,0,0-5.24.31,96.79,96.79,0,0,1-8.24,6c-2.43,1.59-5,3.35-7.81,4.15-5.31,1.49-11.52.69-16.62-1.23a21.43,21.43,0,0,1-11.65-10,23.2,23.2,0,0,1-1.34-3.24,36.23,36.23,0,0,0-.8-4.52c-.08-.28-.16-.56-.23-.84a13.66,13.66,0,0,1,.08-2.48c0-.43.46-3.37.7-3.44,2-.55,1.7-3.85-.5-3.69a4.31,4.31,0,0,0-3.22,2A4,4,0,0,0,28,23.24a6.83,6.83,0,0,0-.23.73,41,41,0,0,0-1.26,5.14,4.18,4.18,0,0,0-4.25,3,39.3,39.3,0,0,0,.8,23,40.62,40.62,0,0,0,5.51,10.84,3.91,3.91,0,0,0,1,2.21C33.45,72.38,37.43,77.7,43.37,79c5.49,1.24,11.82.38,17.26-.8,10.65-2.31,20.64-8.4,25.87-18.1a31.67,31.67,0,0,0,3.25-9.06A10.37,10.37,0,0,0,91,48.56,6.52,6.52,0,0,0,90.92,45Z"/><path class="cls-17" d="M94,48a10.55,10.55,0,0,0-.87-1.53c-.29-.45-.26-.83-.22-.23A5.41,5.41,0,0,0,91.8,44a3.73,3.73,0,0,0-1.86-3,4.12,4.12,0,0,0-5.18,1,102.59,102.59,0,0,1-7.58,7c-2.26,1.89-4.61,4-7.35,5.14-5.12,2.17-11.38,2.18-16.63.94s-11.63-4.85-14.5-9.21C38.08,44.91,29.78,29,29.44,31c-1.31,7.65-5.06,28.91-1.84,35.82a39,39,0,0,0,6.56,10.05,3.71,3.71,0,0,0,1.21,2.07c4.25,3.74,8.73,8.51,14.77,9.07,5.58.52,11.79-1.16,17.07-3C77.55,81.3,86.87,74,91.09,63.64a32.17,32.17,0,0,0,2.31-9.43,10.07,10.07,0,0,0,.94-2.66A6.44,6.44,0,0,0,94,48Z"/></g><path class="cls-18" d="M80.17,34.85c-.39-10-4.55-20.19-12.73-24.76a17.32,17.32,0,0,0-4.73-1.84,5.79,5.79,0,0,0-3-.33,4.83,4.83,0,0,0-2.08.81A5.8,5.8,0,0,0,55,12.41a8.84,8.84,0,0,0,1.61,7.52,19.92,19.92,0,0,0,2.24,2.43c1.21,2.16,2.34,4.39,3.36,6.67a12.56,12.56,0,0,1,1,6.26c-.13,2.65-.34,5.41.44,8,1.7,5.58,7,7.92,11.61,5.18C79.75,45.82,80.36,39.94,80.17,34.85Z"/><g class="cls-19"><path class="cls-20" d="M68.37,21.12l.12-.11a1.91,1.91,0,0,0,.44-.77,2.09,2.09,0,0,0,.18-.93,2.49,2.49,0,0,0-.62-1.7l-.12-.12-.45-.4-.54-.26a1.57,1.57,0,0,0-.91,0,1.08,1.08,0,0,0-.57.17,1.07,1.07,0,0,0-.49.33,1.3,1.3,0,0,0-.41.46,1.29,1.29,0,0,0-.29.57,2.22,2.22,0,0,0-.2,1l.09.68c.07.21.15.41.22.62l.36.51.45.41.54.25a1.49,1.49,0,0,0,.91,0,1.08,1.08,0,0,0,.57-.17,1.72,1.72,0,0,0,.72-.54Z"/></g><g class="cls-19"><path class="cls-20" d="M71.18,25.67a2.15,2.15,0,0,0,1.57-.74,1.92,1.92,0,0,0,.46-.81,2.11,2.11,0,0,0,.19-1,2.67,2.67,0,0,0-.65-1.78,2,2,0,0,0-3.13,0,1.92,1.92,0,0,0-.46.81,2,2,0,0,0-.19,1,2.67,2.67,0,0,0,.65,1.78,2.16,2.16,0,0,0,1.56.74Z"/></g><g class="cls-19"><path class="cls-20" d="M69.71,20.64l.34.07a1.22,1.22,0,0,0,.68,0h.07l-.45.06h.11A1.46,1.46,0,0,0,71.71,20,1.91,1.91,0,0,0,72,18.43a2.84,2.84,0,0,0-.52-1,1.72,1.72,0,0,0-.79-.5,1.5,1.5,0,0,0-1,0,1.8,1.8,0,0,0-.88.69,2.06,2.06,0,0,0-.36,1.15,2.65,2.65,0,0,0,.23,1,1.35,1.35,0,0,0,.44.53,1.2,1.2,0,0,0,.57.34Z"/></g><g class="cls-19"><path class="cls-20" d="M65.87,23.59a2.37,2.37,0,0,0-.25,1,1.84,1.84,0,0,0,.45,1.24,1.51,1.51,0,0,0,.89.48,1.33,1.33,0,0,0,1-.21,1.87,1.87,0,0,0,.71-1.05v0l-.16.42,0-.07-.24.36,0,0a2.06,2.06,0,0,0,.46-1.25,1.78,1.78,0,0,0-.62-1.39A1.37,1.37,0,0,0,67,22.74a1.49,1.49,0,0,0-1.13.85Z"/></g><g class="cls-19"><path class="cls-20" d="M69,27.52A3,3,0,0,0,69,29a3.58,3.58,0,0,0,.26.64,1.68,1.68,0,0,0,.93.82,2.63,2.63,0,0,0,.48.06l-.4-.06h0A1.34,1.34,0,0,0,71.71,30a1.88,1.88,0,0,0,.38-1.61v-.05l0,.45v0c0,.15,0,.3,0,.45a2.12,2.12,0,0,0-.22-1.54l.16.43a1.31,1.31,0,0,1-.06-.27l.05.47V28.1c0,.16,0,.32-.05.48a.36.36,0,0,1,0-.11,2.11,2.11,0,0,0-.16-1.38,1.67,1.67,0,0,0-.94-.82,1.45,1.45,0,0,0-1.21.18A1.8,1.8,0,0,0,69,27.52Z"/></g><g class="cls-19"><path class="cls-20" d="M74.37,30.67l0,0a1.32,1.32,0,0,0,1.52,0l0,0a1.73,1.73,0,0,0,.63-.84,1.93,1.93,0,0,0,.08-1.14,1.77,1.77,0,0,0-.55-.91,1.35,1.35,0,0,0-.94-.37,1.59,1.59,0,0,0-1.41,1.07,2,2,0,0,0-.08,1.15l.16.41a1.62,1.62,0,0,0,.55.63Z"/></g><g class="cls-19"><path class="cls-20" d="M73.83,25.46c2.23,0,2.24-3.95,0-3.95s-2.24,3.95,0,3.95Z"/></g><g class="cls-19"><path class="cls-20" d="M69.88,22.34a2.9,2.9,0,0,0-.54.7,2,2,0,0,0-.17,1,1.64,1.64,0,0,0,.4.93,1.66,1.66,0,0,0,.63.42,1.34,1.34,0,0,0,1.1-.16,2.57,2.57,0,0,0,.61-.62,1.88,1.88,0,0,0,.42-1.15,1.78,1.78,0,0,0-.42-1.15,1.34,1.34,0,0,0-1-.48,1.42,1.42,0,0,0-1,.48Z"/></g><g class="cls-19"><path class="cls-20" d="M66.7,22.92l.15,0a1.45,1.45,0,0,0,.94-1.07,1.75,1.75,0,0,0-.35-1.49l-.1-.13a1.33,1.33,0,0,0-1.4-.42,1.55,1.55,0,0,0-1,1.14,1.81,1.81,0,0,0,.37,1.58,1.46,1.46,0,0,0,.63.42,1.23,1.23,0,0,0,.76,0Z"/></g><g class="cls-19"><path class="cls-20" d="M66.92,20.58c2,0,2-3.54,0-3.54s-2,3.54,0,3.54Z"/></g><g class="cls-19"><path class="cls-20" d="M67.66,17.46c1.31,0,1.31-2.31,0-2.31s-1.32,2.31,0,2.31Z"/></g><g class="cls-19"><path class="cls-20" d="M69.56,16.36l.16.06A1.06,1.06,0,0,0,71,15.71a1.37,1.37,0,0,0,.05-.8,1.4,1.4,0,0,0-.49-.73l-.14-.11a1,1,0,0,0-.85-.13,1.12,1.12,0,0,0-.71.73,1.29,1.29,0,0,0,.71,1.69Z"/></g><g class="cls-19"><path class="cls-20" d="M73.39,20.71a1,1,0,0,0,.94-1.07,1,1,0,0,0-.94-1.06,1.07,1.07,0,0,0,0,2.13Z"/></g><g class="cls-19"><path class="cls-20" d="M70,22.48a1.28,1.28,0,0,0,.93-.44A1.61,1.61,0,0,0,71.33,21a1.59,1.59,0,0,0-.39-1.06,1.21,1.21,0,0,0-1.87,0,1.67,1.67,0,0,0,0,2.12,1.3,1.3,0,0,0,.94.44Z"/></g><g class="cls-19"><path class="cls-20" d="M68.06,26.11l.36-.5a1,1,0,0,0,.21-.58.87.87,0,0,0-.21-.57.68.68,0,0,0-1,0l-.44.41a1,1,0,0,0,0,1.24.73.73,0,0,0,1.1,0Z"/></g><g class="cls-19"><path class="cls-20" d="M64,26.66a1.18,1.18,0,0,0,0-2.35,1.19,1.19,0,0,0,0,2.35Z"/></g><g class="cls-19"><path class="cls-20" d="M61.92,17.23h-.09a1.38,1.38,0,0,0-1,.46,1.71,1.71,0,0,0,0,2.22l.28.24a1.19,1.19,0,0,0,.7.22h.09a1.34,1.34,0,0,0,1-.46,1.79,1.79,0,0,0,.41-1.12,1.77,1.77,0,0,0-.41-1.12,1.27,1.27,0,0,0-1-.46Z"/></g><g class="cls-19"><path class="cls-20" d="M59.79,15.72l-.18-.1c-.33-.18-.65.18-.49.56l.08.2a.4.4,0,0,0,.67.1.52.52,0,0,0-.08-.76Z"/></g><g class="cls-19"><path class="cls-20" d="M69,30.25a1.34,1.34,0,0,0,1-.46,1.75,1.75,0,0,0,.42-1.13A1.54,1.54,0,0,0,69,27.06a1.35,1.35,0,0,0-1,.47,1.75,1.75,0,0,0-.42,1.13A1.54,1.54,0,0,0,69,30.25Z"/></g><g class="cls-19"><path class="cls-20" d="M72.09,29.13c0-.1.1-.2.14-.3.22-.47-.21-1-.62-.71l-.27.15a.68.68,0,0,0-.11,1,.52.52,0,0,0,.86-.13Z"/></g><g class="cls-19"><path class="cls-20" d="M72.33,27.69l.19.15-.25-.22.19.19a1.92,1.92,0,0,0,.67.43l-.28-.13.08,0a1.3,1.3,0,0,0,.57.17,1,1,0,0,0,.7-.28,1.4,1.4,0,0,0,.41-1.36,1.8,1.8,0,0,0-.47-.93,3.48,3.48,0,0,0-.57-.46,1.18,1.18,0,0,0-.95-.14,1.3,1.3,0,0,0-.73.64,1.52,1.52,0,0,0,.44,1.9Z"/></g><g class="cls-19"><path class="cls-20" d="M73.39,34.51a2.42,2.42,0,0,0,0,.93,1.31,1.31,0,0,0,.56.9,1,1,0,0,0,1.51-.7,1.89,1.89,0,0,0,0-.82l0,.32a1.34,1.34,0,0,1,0-.2l0,.32s0-.07,0-.1a1.45,1.45,0,0,0-.11-.94,1.16,1.16,0,0,0-.64-.56,1,1,0,0,0-.83.12,1.15,1.15,0,0,0-.49.73Z"/></g><g class="cls-19"><path class="cls-20" d="M69.84,40.32l-.14.07a1.37,1.37,0,0,0-.46.52,1.63,1.63,0,0,0-.17.73,1.61,1.61,0,0,0,.37,1,1.24,1.24,0,0,0,.9.42,1.08,1.08,0,0,0,.64-.2,1.42,1.42,0,0,0,.46-.51l.06-.16.12-.33a1.14,1.14,0,0,0,0-.55,1.37,1.37,0,0,0-.33-.79,1.6,1.6,0,0,0-.54-.36,1.18,1.18,0,0,0-.93.14Z"/></g><g class="cls-19"><path class="cls-20" d="M73.76,45.08a2.37,2.37,0,0,0,.09.36,1.58,1.58,0,0,0,.54.7,1.07,1.07,0,0,0,1.23,0,1.58,1.58,0,0,0,.54-.7,2.42,2.42,0,0,0,.1-.36,1.64,1.64,0,0,0-.34-1.44,1.27,1.27,0,0,0-.91-.43,1.29,1.29,0,0,0-.92.43,1.67,1.67,0,0,0-.33,1.44Z"/></g><path class="cls-5" d="M60.46,32.62s-4.62,8-4.53,15.74c.07,5.78,3.86,16.19,9,19.83s11.32,7.49,19,5.37S103.77,58,101.84,54,60.46,32.62,60.46,32.62Z"/><g class="cls-21"><path class="cls-22" d="M71.06,49.24c-.6.83-4.72,7.93-5.68,12.06s1.68,13.13,1.68,13.13S44,60.69,43.62,60.05s2.16-18,2.9-19.82,9.84-13.75,9.84-13.75l6.64.67Z"/><path class="cls-23" d="M90.24,60.6s-7.3,8.8-10.75,12.47a14.6,14.6,0,0,1-6.9,4.38s11,8.16,13.59,5S99.82,64,99.82,64l2.92-7.3Z"/></g><path class="cls-24" d="M96.88,60.39c-.66.66-1.19,5.32-8.72,7.08S68,61.83,65,58.9,55,45.5,58.1,39.49,96.88,60.39,96.88,60.39Z"/><path class="cls-25" d="M102.14,55.57c-1.06,6.29-6,9.9-12.42,11.26A14.92,14.92,0,0,1,83,66.65a38.48,38.48,0,0,1-9.82-4,44,44,0,0,1-9.73-7.58A18.8,18.8,0,0,1,58.84,35.8C60,32.2,62.43,27.19,72.31,27a28.5,28.5,0,0,1,16.18,4.52c5.36,3.23,9.89,7.92,11.92,12.76C101.83,47.6,102.65,52.56,102.14,55.57Z"/><path class="cls-26" d="M101,54.64c-.25,4.26-1.49,6.89-6.54,9.39a16.17,16.17,0,0,1-6,1.61A24.6,24.6,0,0,1,83,65.28c-5.83-1-11.56-4.6-16.33-8.8a22.33,22.33,0,0,1-5.22-7,21.69,21.69,0,0,1-2-7.47,21.17,21.17,0,0,1-.11-4.69c.66-5.87,7.39-9,14.19-9.26,5.78-.22,11.23,2.1,16.56,5.88,1.75,1.24,7.49,6.31,9.21,11.29A26,26,0,0,1,101,54.64Z"/><path class="cls-27" d="M100.22,54.4c-.22,4-1.38,6.51-6.2,8.83a15.42,15.42,0,0,1-5.73,1.47A24.3,24.3,0,0,1,83,64.32c-5.6-1-11.11-4.45-15.71-8.47a21.62,21.62,0,0,1-5-6.68,20.27,20.27,0,0,1-2-7.08,20.08,20.08,0,0,1-.14-4.43c.59-5.54,7-8.46,13.53-8.64,5.54-.16,10.77,2.08,15.9,5.7,1.68,1.19,7.21,6,8.89,10.76A24.36,24.36,0,0,1,100.22,54.4Z"/><path class="cls-26" d="M83.06,41c1-2.18,2.06-4.35,3.08-6.53a.42.42,0,0,0,0-.41,1,1,0,0,0-.35-.31,17.33,17.33,0,0,0-11.54-2.6c-.5.08-1,.25-1.11.67a1.53,1.53,0,0,0,.28.86c1.48,2.62,3.59,5.13,4.77,7.79.38.88,1.44,3.76,3.14,3.63C82.29,44,82.79,41.57,83.06,41Z"/><path class="cls-26" d="M77.07,40.29l-5.22-8a1,1,0,0,0-.39-.39.85.85,0,0,0-.44-.05c-3.52.37-6.18,2.41-6.93,5.35a1.39,1.39,0,0,0,.23,1.35,2.69,2.69,0,0,0,1,.6c3.13,1.39,6.39,2.26,9.44,3.88,1,.54,4.24,2.46,4.75,1.19C79.74,43.55,77.54,41,77.07,40.29Z"/><path class="cls-26" d="M73.21,43.53,64,39.46a.78.78,0,0,0-.51-.11c-.12,0-.17.15-.21.26-1,2.83-.18,6.67,2.17,10A2.69,2.69,0,0,0,66.8,50.8a1.43,1.43,0,0,0,.9-.09c2.44-.84,4.46-2.29,7.09-2.86.86-.18,3.82-.59,2.88-2.17C77.16,44.82,74,43.9,73.21,43.53Z"/><path class="cls-26" d="M88.41,50.06l8.8,4.24a.7.7,0,0,0,.48.11c.11,0,.15-.16.18-.28a14.21,14.21,0,0,0-2.28-10.88c-.34-.5-.74-1.17-1.24-1.32a3.76,3.76,0,0,0-1.5.36c-2.23.93-3.74,2.53-6.17,3.16-.79.21-3.53.69-2.56,2.37C84.64,48.72,87.62,49.67,88.41,50.06Z"/><path class="cls-26" d="M84.89,53.18l5.07,8a1,1,0,0,0,.38.4.86.86,0,0,0,.44.06c3.56-.31,6.27-2.3,7.1-5.2a1.38,1.38,0,0,0-.21-1.35,2.73,2.73,0,0,0-.94-.61c-3.12-1.44-6.38-2.35-9.41-4-1-.55-4.21-2.51-4.75-1.26C82.28,49.89,84.43,52.46,84.89,53.18Z"/><path class="cls-26" d="M78.74,52.64c-1.2,2.13-2.4,4.25-3.59,6.38a.42.42,0,0,0-.07.4.84.84,0,0,0,.34.3,17.88,17.88,0,0,0,11.71,2.37c.52-.09,1.09-.25,1.19-.66a1.31,1.31,0,0,0-.23-.84c-1.35-2.53-3.36-4.94-4.4-7.51-.35-.84-1.25-3.63-3-3.48C79.73,49.69,79.06,52.06,78.74,52.64Z"/><path class="cls-20" d="M83.13,47.83c.42-.47-.93-2.78-2.53-3.15s-2.15.63-1.68,1.92S81.73,49.41,83.13,47.83Z"/><path class="cls-26" d="M93.44,40.57c0-.94-5.51-6-6-5.68s-5.4,8.94-5,9.29.11,1.88,2,1.39S93.43,41.63,93.44,40.57Z"/><path class="cls-26" d="M74,58.9c.58.06,5.73-9.28,5.41-9.74S78.58,47,77.17,48s-3,.92-5,1.76-4.83,1.91-4.61,2.75S72.87,58.77,74,58.9Z"/><g class="cls-28"><path class="cls-25" d="M79.8,43.45c1.37-.37,1.58-2,2-3.32s.82-2.42,1.25-3.61a11,11,0,0,0,.77-2.15c.44-.39.4-.59-.14-.61-.33-.13-.66-.25-1-.35a22.11,22.11,0,0,0-3.2-.73,18.59,18.59,0,0,0-3.57-.25c-.4,0-1.43-.18-1.45.56a5.85,5.85,0,0,0,1,1.3c1.27,1.52,4.1,6.88,4.22,9,0,.42-2.42-3.82-2.64-4.15a35.54,35.54,0,0,0-3.76-4.51,2.73,2.73,0,0,1-.59-3.32c.92-1.57,2.83-1.39,4.27-1.33a23.32,23.32,0,0,1,5.85,1c1.11.33,3,.6,3.38,2,.47,1.62-1.08,4.21-1.62,5.63-.46,1.21-2.74,8.54-4.91,5.47a.44.44,0,0,1,.18-.62Z"/></g><g class="cls-29"><path class="cls-25" d="M78.85,44.06a31,31,0,0,1-4.76-5.12c-.78-1-1.4-2.19-2.09-3.3a7.75,7.75,0,0,0-1.32-1.88c-.61-.31-1.11.14-1.64.53A7.68,7.68,0,0,0,66.49,37c-.34.95.1.9.89,1.26a23.75,23.75,0,0,0,2.19,1c2.15.72,8.18,3.39,9.83,5.2.53.57-.46.35-1.14.31-2-.12-7.11-2.7-9-3.36-1.36-.47-3.4-.6-4.5-1.72-2.19-2.26.87-5.47,2.45-6.78.91-.76,2.29-1.75,3.48-1.59s2.26,2,2.93,3.15A33.15,33.15,0,0,0,77,39.51c1.07,1.22,2.22,2.4,2.55,4.13a.45.45,0,0,1-.72.42Z"/></g><g class="cls-30"><path class="cls-25" d="M76.17,44.83l.06-.21a.45.45,0,0,1,.5-.29c1.63.2,1.2,2.24.26,3.12a18.06,18.06,0,0,1-3.47,2.15,36.49,36.49,0,0,1-4.07,2.3c-2.16.9-4.2-.68-5.48-2.6s-2.61-5.54-2-7.82c.22-.82,1-3.31,1.47-2.56.89,1.34.93,5.41,1.47,7a7.72,7.72,0,0,0,1.4,2.55,2.29,2.29,0,0,0,3,.8c1.58-.69,3.09-1.65,4.63-2.42.7-.35,2.2-.76,2.24-1.73,0-.1-.1-.12-.06-.25Z"/></g><g class="cls-31"><path class="cls-25" d="M94.6,41.92c2.26.59,3.31,4.08,3.7,6.36.28,1.7.85,6.5-1.54,6.52-1.47,0-3.13-1.15-4.4-1.84a28.68,28.68,0,0,0-5.51-2.07c-1.24-.38-2.64-.82-3.3-2.2a2.36,2.36,0,0,1,.57-3,.86.86,0,0,1,1.34.72c.12,2.45,3.63,2.9,5.24,3.53a19.65,19.65,0,0,1,2.84,1.48c.44.26,2.33,1.35,2.85,1.16,1.13-.41.22-4.56-.06-5.52-.5-1.7-1.63-3.11-2-4.86a.21.21,0,0,1,.23-.23Z"/></g><g class="cls-32"><path class="cls-25" d="M96.58,54.19c.82.41,1.83.21,2.22,1.34s-.49,2.34-1,3.15c-1.29,2-4.15,5-6.57,4a9.38,9.38,0,0,1-3.36-3.16c-1.2-1.56-2.35-3.17-3.52-4.76-.87-1.19-2-2.45-2-4.11,0-1.23.52-2.06,1.56-2.26.41-.07.43.24.3.7-.58,2.19,1.6,3.92,2.74,5.43A38.53,38.53,0,0,0,91,59.66c1.7,1.58,3.76-.36,5-1.83A4.94,4.94,0,0,0,97,56.59c.28-.67.27-.68.06-1.16s-1.2-.93-1.34-1.49c-.06-.23.69.15.89.25Z"/></g><g class="cls-33"><path class="cls-25" d="M81.63,50.59c-1-.59-2.74,4.53-3.06,5.24a18.7,18.7,0,0,0-.92,2,1,1,0,0,0,0,1.5,6.43,6.43,0,0,0,1.31.16,16.66,16.66,0,0,1,3.7.57,10.87,10.87,0,0,0,2.24.52,7.55,7.55,0,0,0,2.46-.38l.09,0a1,1,0,0,1,1.3.7l0,.16a1.27,1.27,0,0,1-.65,1.56,9.32,9.32,0,0,1-3.63.4c-1.39-.13-2.67-.76-4-1-1.67-.25-5,.21-5.62-2.37-.27-1.18.68-2.54,1.16-3.52.86-1.79,1.71-3.61,2.68-5.33.79-1.4,2.3-2.78,3.49-1.05.29.43-.19,1-.61.8Z"/></g><g class="cls-34"><path class="cls-25" d="M91.83,38a6.42,6.42,0,0,1-2.31-1c-.5-.27-1.5-.93-2.06-.52-.28.2-.43,1.1-.56,1.44-.47,1.14-1.17,2-1.74,3.12-.75,1.45-2.08,2.38-1.26,4.18.34.74.31,1.85-.4,1.57-1.26-.51-1.69-2.12-1.33-3.51A20.56,20.56,0,0,1,84,39.6c.6-1.2,1.08-2.47,1.66-3.68s1.28-2,2.52-1.61c1.39.42,3.43,1.84,3.77,3.52,0,.08,0,.14-.1.14Z"/></g><g class="cls-35"><path class="cls-25" d="M78.32,47.78c1.27-1.23,1.82.92,1.63,2a18.24,18.24,0,0,1-3.26,7.58c-1.12,1.51-2.5,2.31-4.12,1.25s-4.78-4.06-4.71-6.3c0-.45.32-.94.77-.81,1.1.32,1.52,1.16,2.26,2.09.58.73,2.42,3.4,3.5,3s5-7.94,4-8.4c-.19-.08-.16-.35,0-.47Z"/></g><g class="cls-36"><path class="cls-20" d="M76.23,36.53c3.48-4.74,10.59-1.35,13.67,2.21C93.6,43,96.23,51,92.29,56.19c-1,1.26-2.48,2.45-4,2.14a3.47,3.47,0,0,1-2.61-3.23c-.1-1.28.54-2.49.81-3.7a7.81,7.81,0,0,0,0-3.3,11.52,11.52,0,0,0-3.51-6c-1.85-1.72-4.32-2-6.33-3.4a1.53,1.53,0,0,1-.41-2.18Z"/></g><g class="cls-37"><path class="cls-20" d="M86.65,60.93a10.35,10.35,0,0,1-2.53-4.3.15.15,0,0,1,.26-.15,31,31,0,0,1,2.42,4.33.1.1,0,0,1-.15.12Z"/></g><g class="cls-38"><path class="cls-20" d="M84.82,61.24a8.7,8.7,0,0,1-.85-2,7.38,7.38,0,0,1-.46-2.18c0-.13.18-.24.25-.1a10.78,10.78,0,0,1,.65,2.09,15.53,15.53,0,0,1,.47,2.15,0,0,0,0,1-.06,0Z"/></g><g class="cls-39"><path class="cls-20" d="M81,54.33a12.77,12.77,0,0,1-1.08,4.17.16.16,0,0,1-.3-.11c.29-1.41.91-2.7,1.27-4.08a.06.06,0,1,1,.11,0Z"/></g><path class="cls-20" d="M75.08,51.77a8.75,8.75,0,0,1-2.93,2.7c-.12.05-.25-.13-.15-.24.9-1,2-1.64,3-2.56,0-.05.12,0,.07.1Z"/><g class="cls-37"><path class="cls-20" d="M74.15,51a7.81,7.81,0,0,1-2.72,1.61c-.07,0-.14-.09-.06-.14.87-.58,1.84-1,2.73-1.55a0,0,0,0,1,.05.08Z"/></g><g class="cls-38"><path class="cls-20" d="M71.5,46.21a14.47,14.47,0,0,1-3.8,1.15c-.15,0-.17-.2,0-.27A15,15,0,0,1,71.46,46c.12,0,.16.19,0,.23Z"/></g><g class="cls-37"><path class="cls-20" d="M70.41,44.74a6,6,0,0,1-3.47-.19c-.12,0-.08-.27,0-.26a30.87,30.87,0,0,1,3.44.36s0,.08,0,.09Z"/></g><path class="cls-20" d="M69,43.53a16.77,16.77,0,0,1-1.84-.4c-.07,0,0-.13,0-.12a14.58,14.58,0,0,1,1.86.25c.15,0,.11.29,0,.27Z"/><path class="cls-20" d="M73.23,38.26a7.86,7.86,0,0,0-1.74-2.38,14.71,14.71,0,0,1-1.4-1.75c0-.08,0-.22.11-.16a9.84,9.84,0,0,1,1.88,2,4.25,4.25,0,0,1,1.16,2.25Z"/><g class="cls-37"><path class="cls-20" d="M71.76,38.15A10.91,10.91,0,0,1,70,36.54a.11.11,0,0,1,.13-.17A4.86,4.86,0,0,1,71.87,38c.06.08-.05.17-.11.11Z"/></g><path class="cls-20" d="M80.29,39.37a12.65,12.65,0,0,0-.13-1.75,9.33,9.33,0,0,1-.23-1.73c0-.15.16-.23.24-.1.64,1,.51,2.47.4,3.59a.14.14,0,0,1-.28,0Z"/><g class="cls-37"><path class="cls-20" d="M90.78,39.28a2.89,2.89,0,0,1-1.08,1.21c-.51.37-1,.82-1.53,1.14-.22.12-.35-.23-.25-.41a3.57,3.57,0,0,1,1.29-1.16,8.56,8.56,0,0,0,1.51-.84s.08,0,.06.06Z"/></g><path class="cls-20" d="M93.89,45.18a10.78,10.78,0,0,1-3.78,1.17c-.12,0-.14-.16,0-.22a10.56,10.56,0,0,1,3.79-1.08c.07,0,.09.1,0,.13Z"/><g class="cls-38"><path class="cls-20" d="M92.22,46.78a6.88,6.88,0,0,1-4,.81.11.11,0,0,1,0-.21c1.28-.41,2.69-.36,4-.64a0,0,0,0,1,0,0Z"/></g><g class="cls-38"><path class="cls-20" d="M93.86,57.65A9.49,9.49,0,0,1,90,54.56c-.1-.13.06-.33.19-.25A16.73,16.73,0,0,1,92,55.78c.66.57,1.37,1.08,2,1.69.09.08,0,.23-.11.18Z"/></g><path class="cls-20" d="M92.94,58.78a6.77,6.77,0,0,1-2.29-2c-.06-.1,0-.26.14-.19a6.87,6.87,0,0,1,1.06,1c.39.36.79.71,1.21,1,.09.08,0,.27-.12.2Z"/><path class="cls-3" d="M25.44,49.67a27.6,27.6,0,0,1-3.86-9c-.32-2.71-.14-5.5-.84-8.12a11.29,11.29,0,0,1-.51-2,3,3,0,0,1,1.25-2.72c1-.63,2.23-.43,3.33-.75,1.46-.42,2.56-1.71,3.76-2.73A12.89,12.89,0,0,1,32,22.25a14,14,0,0,1,2.88-.84A17.81,17.81,0,0,1,47.39,23.8,22.25,22.25,0,0,1,56.1,34.28a15.44,15.44,0,0,1,1.15,4.35c.29,3.33.28,8-3.58,12.36-2.09,2.37-5.7,5.71-8.58,6.46C37.52,59.43,31.05,56.56,25.44,49.67Z"/><g class="cls-40"><path class="cls-41" d="M21.46,25.4a.72.72,0,0,0-1,.55c-.32,1,.7,1.57,1.41,1.67,2,.25,4.12-.7,5.9-1.51a19.28,19.28,0,0,1,5.52-1.79,15.86,15.86,0,0,1,5.57.36c4.14.93,7.79,3.68,10.78,7A14.24,14.24,0,0,1,53.15,37a26.61,26.61,0,0,1,.9,6.72,12.64,12.64,0,0,1-2.28,6.76c-.79,1.25-1.65,2.44-2.54,3.6A9.83,9.83,0,0,0,47,58.46c-.18,1.21.86,2.5,2,2.25,2.54-.57,4.28-3.45,5.79-5.64a23.33,23.33,0,0,0,3.44-6.74,19.49,19.49,0,0,0,.43-7.87,22.76,22.76,0,0,0-1.9-7.67,27.24,27.24,0,0,0-4.63-6A28.94,28.94,0,0,0,46,21.88a19,19,0,0,0-12.31-2.7,16.61,16.61,0,0,0-6.42,2.43c-1.07.66-2.16,1.32-3.2,2.06a13.42,13.42,0,0,1-1.3.81l-.71.4-.43.22c-.34.09-.35.25,0,.46l.07.59,0-.13c0-.24,0-.53-.23-.62Z"/><path class="cls-42" d="M18.48,33.73c1.31,2.61.71,6.12,1.32,9A24.55,24.55,0,0,0,23.88,52a20.92,20.92,0,0,0,15.4,8.68c3.09.19,7.73.21,9.47-3.29A1.77,1.77,0,0,0,48,55.19c-2.32-1.17-5.29.17-7.73.07A16.65,16.65,0,0,1,33,53.32c-4.7-2.51-8-7.49-9.44-13-.82-3.05-1.38-6.82-4.52-7.71-.61-.17-.84.68-.6,1.16Z"/><path class="cls-43" d="M51.11,21.63c-.2-.17-4.55-3.51-4.79-3.66s-6.36,2-6.1,4.27c.39,3.41.32,7-1.15,10.11-1.07,2.26-3.3,4.32-5.78,4.35a9.48,9.48,0,0,1-4.19-1.45,30.85,30.85,0,0,1-3.87-2.37,15.6,15.6,0,0,1-5.64-7.5c-.53-1.64-2.74-.95-2.57.75a15.63,15.63,0,0,0,1.13,4.46c-1.47.55-2.64,2.76-1.37,4.29.44.53.89,1,1.36,1.54a2.29,2.29,0,0,0-.58.36,3,3,0,0,0-.49,3.81c.43.54.88,1.06,1.35,1.55a38.8,38.8,0,0,0,4,3.91,2.89,2.89,0,0,0,.63,3.39c3.41,2.6,5,6.89,9.05,7.86.07.76,2.7-.3,3.19.21,2.92,3,7.4,2.43,10.76.81A16.26,16.26,0,0,0,50.63,55a10.91,10.91,0,0,0,1.91-2.45c.52-1,4.63-5.87,4.64-6.11,2.28-4.77,0-8-.75-13.34-.2-1.33.25-3.24-1-3.23-.2,0,1.13-2.67.95-2.63.06-1.53-3.13.57-4.12-.64S52.06,20.36,51.11,21.63Z"/></g><g class="cls-44"><path class="cls-45" d="M24.26,28.75a3.47,3.47,0,0,0-2-1.3,3.42,3.42,0,0,0-2.35-.19,1.05,1.05,0,0,0-.54,1c.22,2.11,3.61,2.07,4.77,1.1a.51.51,0,0,0,.09-.64Z"/><path class="cls-3" d="M22.33,31.22c-.32-.92-.63-2.16-1.51-2.58-.5-.24-1,.25-1,.85.1,1.07,1.06,1.76,1.75,2.36.38.34.91-.13.74-.63Z"/><g class="cls-46"><path class="cls-47" d="M25.85,24.77a2.28,2.28,0,0,0-1.5.09,14.27,14.27,0,0,1-1.83.22c-1.44.16-2,1.15-3,2.18a1.8,1.8,0,0,0-.29,2.22,1.29,1.29,0,0,0,2,.33c.44-.46.78-1.12,1.25-1.52S23.5,28,24,27.81a2.8,2.8,0,0,0,2.21-2.49.68.68,0,0,0-.38-.55Z"/></g><path class="cls-43" d="M56.39,23a2.13,2.13,0,0,0-2.59.72,7.69,7.69,0,0,0-.52-.92,2.17,2.17,0,0,0-1.66-1,5.67,5.67,0,0,0-.78-.86c-1.58-1.4-3.47.21-3.44,2.22a22.68,22.68,0,0,1-8.57,18.17,20,20,0,0,1-9.43,3.92,10.71,10.71,0,0,1-9.48-3.48.68.68,0,0,0-1.14.73A14.08,14.08,0,0,0,19.66,44a2.34,2.34,0,0,0-.41,3.27,12.15,12.15,0,0,0,4.9,3.79,2.81,2.81,0,0,0,.66,3.06h0a2.28,2.28,0,0,0,.8,1.54,21.81,21.81,0,0,0,3.5,2.2c.16.17.32.32.48.47a9,9,0,0,0,4.59,2.13,10.79,10.79,0,0,0,5-.52,17.36,17.36,0,0,0,2.66-.44c.34-.08.68-.18,1-.28C46,59.1,49,57.12,51.56,55a17.27,17.27,0,0,0,4.61-5.69c.85-1.71,1.09-3.79,1.86-5.54a12.62,12.62,0,0,0,.79-1.51,2.54,2.54,0,0,0-.1-2.23c0-.75,0-1.5,0-2.26a23.06,23.06,0,0,0,.86-7.13,2.47,2.47,0,0,0-2-2.25,1.87,1.87,0,0,0-.67,0c.06-.24.13-.47.2-.7.15-.46.31-.92.45-1.39A2.79,2.79,0,0,0,56.39,23Z"/></g><g class="cls-44"><path class="cls-48" d="M51.22,26.06a57.35,57.35,0,0,1-2.48,11.42,43.57,43.57,0,0,1-4.62,8.79,22.82,22.82,0,0,1-6.86,7,14.06,14.06,0,0,1-7.21,1.91c-.51,0-1,.83-.45,1.22a8.14,8.14,0,0,0,5.07,1.41,2.26,2.26,0,0,0,.16.26,4,4,0,0,0,3.61,1.8,2.48,2.48,0,0,0,.67.58c2,1.19,4.59-.29,6.48-1.17a17.48,17.48,0,0,0,6-4,16.73,16.73,0,0,0,1.67-2.22c2.78-2.78,4.39-7.1,5.54-11a3.15,3.15,0,0,0-.66-3.11A15.62,15.62,0,0,0,57.82,32a2.16,2.16,0,0,0-1.46-1.57,9.08,9.08,0,0,0-2.55-4.74C52.52,24.47,51.43,24.26,51.22,26.06Z"/></g><path class="cls-4" d="M32.16,67.65s4.16,4.51,8.77,5.39c3.44.65,10.07-1,12.85-4.45s5.82-7.74,5.51-13.87-6.8-17.07-9.38-16.08S32.16,67.65,32.16,67.65Z"/><g class="cls-49"><path class="cls-50" d="M43.3,61.58c.42.57,4.12,4.58,6.46,5.82s8,.32,8,.32-11,16-11.38,16.16S35.93,80,35,79.24,28,70,28,70l1.21-5Z"/><path class="cls-51" d="M52.38,48.31s4.33,6.65,6.08,9.74a13,13,0,0,1,1.75,5.81s6.18-7.42,4.65-9.77S55.58,41.4,55.58,41.4l-4-3.12Z"/></g><path class="cls-52" d="M53.07,43.21c.31.58,3,1.56,3.13,7.53s-5.81,14.74-7.91,16.67-9.17,6-12.35,2.89S53.07,43.21,53.07,43.21Z"/><path class="cls-53" d="M50.86,38.6C54.45,40.18,56,44.36,56,49.47a14.57,14.57,0,0,1-.93,5.09,33.31,33.31,0,0,1-3.57,7,32.92,32.92,0,0,1-5.68,6.52C41,72.27,36.5,71,33.85,69.28c-2-1.3-4.66-3.8-3.59-11.38a26.16,26.16,0,0,1,4.65-11.82c2.57-3.69,5.91-6.58,9-7.55A11.41,11.41,0,0,1,50.86,38.6Z"/><path class="cls-54" d="M50.16,39.35c2.5.71,3.91,2,4.77,6.15a15.55,15.55,0,0,1,.22,4.77,23.3,23.3,0,0,1-.88,4.15,28.44,28.44,0,0,1-7.22,11.41A13.49,13.49,0,0,1,42.26,69a10.47,10.47,0,0,1-4.67.61,9.56,9.56,0,0,1-2.8-.49c-3.39-1.21-4.43-6.75-3.75-12a24,24,0,0,1,5.51-11.94c1-1.19,4.66-5,7.82-5.66A12.29,12.29,0,0,1,50.16,39.35Z"/><path class="cls-55" d="M49.93,39.93c2.36.65,3.69,1.85,4.47,5.81a14.89,14.89,0,0,1,.17,4.56,22.28,22.28,0,0,1-.87,4,27.92,27.92,0,0,1-6.93,11,13.12,13.12,0,0,1-4.58,3,9.91,9.91,0,0,1-4.43.64,9.55,9.55,0,0,1-2.65-.44c-3.21-1.13-4.15-6.4-3.47-11.39A23.52,23.52,0,0,1,37,45.63c.91-1.14,4.45-4.78,7.46-5.48A11.5,11.5,0,0,1,49.93,39.93Z"/><path class="cls-54" d="M39.88,51.4l-3.49-3.15c-.07-.06-.15-.13-.24-.08s-.16.13-.23.23a16.17,16.17,0,0,0-3,8.5c0,.39,0,.82.26.93a.75.75,0,0,0,.54-.11c1.74-.81,3.48-2.12,5.2-2.69.57-.19,2.41-.64,2.54-2C41.57,52.36,40.19,51.68,39.88,51.4Z"/><path class="cls-54" d="M38.73,55.9l-5.37,3a.66.66,0,0,0-.28.25.76.76,0,0,0-.08.32c-.21,2.75.68,5,2.33,6a.67.67,0,0,0,.82,0,2.2,2.2,0,0,0,.48-.66c1.2-2.22,2.11-4.6,3.45-6.74.44-.7,2-2.93,1.28-3.48C41,54.25,39.22,55.62,38.73,55.9Z"/><path class="cls-54" d="M40.18,59.24l-3.53,6.52a.72.72,0,0,0-.13.37.25.25,0,0,0,.13.19c1.55,1.12,3.93,1,6.22-.43A1.92,1.92,0,0,0,43.7,65a1.44,1.44,0,0,0,.07-.7c-.21-2-.82-3.69-.83-5.77,0-.68.11-3-.94-2.46C41.43,56.38,40.5,58.66,40.18,59.24Z"/><path class="cls-54" d="M45.91,48.42l3.59-6.21a.69.69,0,0,0,.13-.35c0-.09-.08-.13-.15-.17a6.92,6.92,0,0,0-6.72.41c-.34.2-.79.42-.94.79a3.58,3.58,0,0,0,0,1.18c.28,1.83,1,3.18,1.12,5.11,0,.63,0,2.78,1.09,2.25C44.66,51.14,45.59,49,45.91,48.42Z"/><path class="cls-54" d="M47.33,51.49,52.7,48.6a.69.69,0,0,0,.29-.25.76.76,0,0,0,.08-.32c.26-2.76-.59-5.08-2.21-6.06A.66.66,0,0,0,50,42a2,2,0,0,0-.48.64c-1.23,2.21-2.17,4.59-3.53,6.71-.45.69-2,2.9-1.33,3.47C45.06,53.09,46.85,51.76,47.33,51.49Z"/><path class="cls-54" d="M46.26,56.13l3.34,3.52c.06.07.14.14.23.1s.15-.13.22-.22a16.92,16.92,0,0,0,2.84-8.66c0-.41,0-.86-.25-1a.65.65,0,0,0-.53.07c-1.66.73-3.33,2-5,2.45-.55.16-2.31.51-2.43,1.87C44.63,55,46,55.81,46.26,56.13Z"/><path class="cls-20" d="M43.94,52.18c-.22-.37-1.76.37-2.17,1.55s.11,1.73.93,1.52A2.28,2.28,0,0,0,43.94,52.18Z"/><path class="cls-54" d="M40.9,43.41c-.55-.12-4.2,3.49-4.09,3.86s4.64,5.22,4.89,5,1.13.14,1.07-1.39S41.53,43.55,40.9,43.41Z"/><path class="cls-54" d="M49.39,60.51c.1-.43-4.8-5.51-5.11-5.33s-1.36.39-1,1.57.17,2.42.43,4,.54,3.93,1.07,3.86S49.17,61.37,49.39,60.51Z"/><g class="cls-56"><path class="cls-53" d="M40.94,54.19c0-1.09-1-1.45-1.72-1.94s-1.33-.92-2-1.39A5.64,5.64,0,0,0,36.05,50c-.17-.38-.3-.37-.38,0-.11.24-.22.48-.32.73a21.11,21.11,0,0,0-.83,2.35,19.08,19.08,0,0,0-.58,2.7c0,.31-.28,1.07.15,1.18.13,0,.78-.48.89-.56,1.06-.79,4.58-2.3,5.84-2.13A24.18,24.18,0,0,1,38,55.81a21.84,21.84,0,0,0-3.13,2.32c-.65.52-1.41.73-2,0-.82-.89-.48-2.33-.27-3.42a22.83,22.83,0,0,1,1.29-4.36c.34-.81.72-2.18,1.62-2.33S37.87,49.4,38.64,50s4.73,3.14,2.65,4.42a.24.24,0,0,1-.35-.21Z"/></g><g class="cls-57"><path class="cls-53" d="M41.19,55a19.55,19.55,0,0,1-3.62,3c-.71.46-1.47.8-2.21,1.19a4.57,4.57,0,0,0-1.28.78c-.25.43,0,.86.12,1.32a5.69,5.69,0,0,0,1.27,2.27c.52.38.54,0,.86-.52s.65-1.11.85-1.55c.69-1.56,3-5.84,4.28-6.89.41-.33.15.4,0,.91-.32,1.54-2.47,5.11-3.1,6.5-.45,1-.77,2.53-1.57,3.23-1.6,1.4-3.13-1.33-3.72-2.69a4.9,4.9,0,0,1-.51-2.86c.27-1,1.47-1.48,2.22-1.85a19.55,19.55,0,0,0,3.44-2A5,5,0,0,1,41,54.39c.3,0,.33.42.17.6Z"/></g><g class="cls-58"><path class="cls-53" d="M41.32,57.14l-.12-.08a.36.36,0,0,1-.11-.41c.32-1.23,1.47-.65,1.88.18a16.54,16.54,0,0,1,.85,2.91,33,33,0,0,1,.86,3.39A3.9,3.9,0,0,1,42.47,67c-1.22.69-3.6,1.32-4.87.57-.46-.27-1.85-1.15-1.34-1.44.9-.52,3.32,0,4.3-.28a4.11,4.11,0,0,0,1.68-.75,2,2,0,0,0,.85-2.23c-.22-1.29-.6-2.56-.87-3.84-.12-.57-.18-1.77-.75-1.92-.06,0-.08.06-.15,0Z"/></g><g class="cls-59"><path class="cls-53" d="M41.84,42.7c.63-1.66,2.83-2,4.23-2.05,1,0,4,.14,3.67,2a9.31,9.31,0,0,1-1.63,3.14,25.78,25.78,0,0,0-1.9,4c-.37.9-.81,1.92-1.71,2.24a1.25,1.25,0,0,1-1.73-.8c-.16-.45.13-1,.59-.93,1.46.2,2.16-2.43,2.73-3.58a16.53,16.53,0,0,1,1.22-2c.21-.31,1.09-1.62,1-2-.11-.91-2.68-.72-3.28-.63-1.07.18-2,.87-3.12.91-.08,0-.14-.12-.11-.2Z"/></g><g class="cls-60"><path class="cls-53" d="M49.36,42.68c.34-.58.35-1.37,1.06-1.53s1.33.66,1.75,1.15c1,1.24,2.43,3.78,1.54,5.51A6.37,6.37,0,0,1,51.42,50c-1.07.73-2.16,1.41-3.25,2.11-.8.52-1.7,1.25-2.68,1a1.34,1.34,0,0,1-1.14-1.47c0-.31.19-.29.45-.14,1.22.71,2.51-.74,3.55-1.43a23.55,23.55,0,0,0,3.57-2.49c1.14-1.11.24-2.92-.47-4.08a3.85,3.85,0,0,0-.62-.86c-.37-.29-.37-.29-.68-.18s-.7.8-1,.84c-.14,0,.18-.51.26-.65Z"/></g><g class="cls-61"><path class="cls-53" d="M45.4,53.66c-.48.69,2.35,2.66,2.73,3a8.92,8.92,0,0,0,1.09,1,.52.52,0,0,0,.9.14,5.31,5.31,0,0,0,.25-1,15.43,15.43,0,0,1,.8-2.77,11.35,11.35,0,0,0,.57-1.64,7.36,7.36,0,0,0,.08-1.93v-.07a.81.81,0,0,1,.58-.91l.1,0a.76.76,0,0,1,.85.69,9.87,9.87,0,0,1-.21,2.82c-.25,1-.78,2-1.07,3-.36,1.25-.49,3.88-2.09,4-.74.06-1.42-.83-1.95-1.32-1-.88-1.93-1.75-2.83-2.7-.73-.77-1.36-2.1-.19-2.79.28-.17.59.27.4.55Z"/></g><g class="cls-62"><path class="cls-53" d="M39.16,44.33a5.19,5.19,0,0,1-.9,1.63c-.22.35-.73,1-.56,1.52.09.23.6.46.79.6.62.5,1.06,1.15,1.63,1.71.77.75,1.15,1.88,2.32,1.48.49-.17,1.14,0,.88.5a1.54,1.54,0,0,1-2.24.58,12.11,12.11,0,0,1-1.91-1.82c-.64-.61-1.33-1.13-2-1.72a1.77,1.77,0,0,1-.65-2.12c.43-1,1.52-2.4,2.56-2.45,0,0,.08,0,.06.09Z"/></g><g class="cls-63"><path class="cls-53" d="M43.33,55.86c-.58-1.13.76-1.28,1.4-1a10.54,10.54,0,0,1,4.08,3.42,2.61,2.61,0,0,1,.24,3.31c-.81,1.08-3,3.15-4.31,2.83a.52.52,0,0,1-.38-.69c.32-.8.87-1,1.52-1.47.5-.36,2.3-1.43,2.22-2.3S44,55.14,43.61,55.89a.15.15,0,0,1-.28,0Z"/></g><g class="cls-36"><path class="cls-20" d="M36.4,56.07c-2.38-3.23.5-8.25,3-10.17,3-2.31,8-3.34,10.63.3a4,4,0,0,1,.77,3.35,2.16,2.16,0,0,1-2.23,1.59,6.55,6.55,0,0,1-2.09-1.06,3.75,3.75,0,0,0-2-.43,6.57,6.57,0,0,0-4,2c-1.24,1.2-1.73,3-2.78,4.42a.8.8,0,0,1-1.35,0Z"/></g><g class="cls-37"><path class="cls-20" d="M52.13,51.09a5.69,5.69,0,0,1-2.85,1.41c-.12,0-.16-.16-.06-.21A16.52,16.52,0,0,1,52.09,51c.06,0,.09.08,0,.12Z"/></g><g class="cls-38"><path class="cls-20" d="M52.1,52.53a4.25,4.25,0,0,1-1.28.41,3.62,3.62,0,0,1-1.35.08c-.08,0-.12-.16,0-.2a4.88,4.88,0,0,1,1.31-.24,6.61,6.61,0,0,1,1.33-.09,0,0,0,0,1,0,0Z"/></g><g class="cls-39"><path class="cls-20" d="M47.53,54.64A6.67,6.67,0,0,1,49.87,56c.08.09,0,.28-.1.22-.8-.39-1.49-1-2.26-1.47,0,0,0-.1,0-.08Z"/></g><path class="cls-20" d="M45.3,58.82a7,7,0,0,1,1.24,2.57c0,.1-.11.17-.16.08-.48-.8-.73-1.77-1.15-2.61,0,0,0-.09.07,0Z"/><g class="cls-37"><path class="cls-20" d="M44.73,59.44a6.77,6.77,0,0,1,.62,2.27c0,.06-.07.1-.09,0-.24-.74-.36-1.53-.58-2.28,0,0,0-.06,0,0Z"/></g><g class="cls-38"><path class="cls-20" d="M41.56,60.87a14.2,14.2,0,0,1,.22,3.05c0,.11-.14.11-.17,0a15.54,15.54,0,0,1-.19-3,.07.07,0,0,1,.14,0Z"/></g><g class="cls-37"><path class="cls-20" d="M40.56,61.53A5.88,5.88,0,0,1,40,64.16a.08.08,0,0,1-.15-.06c.15-.87.41-1.74.64-2.59,0,0,.05,0,.05,0Z"/></g><path class="cls-20" d="M39.67,62.46c-.15.46-.28.91-.46,1.36,0,0-.08,0-.07,0a12.91,12.91,0,0,1,.37-1.39c0-.12.19,0,.16.06Z"/><path class="cls-20" d="M37.06,58.58a4.72,4.72,0,0,0-1.62,1,9.17,9.17,0,0,1-1.21.86s-.12,0-.08-.11a6.47,6.47,0,0,1,1.43-1.19,2.34,2.34,0,0,1,1.48-.61Z"/><g class="cls-37"><path class="cls-20" d="M36.82,59.69a8.16,8.16,0,0,1-1.17,1.18c-.07,0-.12-.06-.09-.13a3.41,3.41,0,0,1,1.21-1.15s.09.06,0,.1Z"/></g><path class="cls-20" d="M38.58,53.32a4.62,4.62,0,0,0-1-.11,5.25,5.25,0,0,1-1.05,0,.11.11,0,0,1,0-.2,2.74,2.74,0,0,1,2.17.14c.11,0,.07.23,0,.21Z"/><g class="cls-37"><path class="cls-20" d="M39.82,45.29a2.21,2.21,0,0,1,.58,1,12.23,12.23,0,0,1,.48,1.32.15.15,0,0,1-.26.13,2.76,2.76,0,0,1-.54-1.13,6.53,6.53,0,0,0-.31-1.25,0,0,0,0,1,0,0Z"/></g><path class="cls-20" d="M43.69,43.64a10.27,10.27,0,0,1,.23,3c0,.09-.11.08-.13,0a10.23,10.23,0,0,1-.18-3c0-.06.07,0,.08,0Z"/><g class="cls-38"><path class="cls-20" d="M44.44,45.11a6.84,6.84,0,0,1,0,3.15c0,.07-.12.07-.13,0-.09-1,.11-2.1.11-3.14,0,0,0,0,0,0Z"/></g><g class="cls-38"><path class="cls-20" d="M51.08,45.18a7.09,7.09,0,0,1-2.31,2.62c-.09.05-.19-.09-.13-.18a11.45,11.45,0,0,1,1.09-1.21c.42-.44.81-.92,1.25-1.33.06-.06.13,0,.1.1Z"/></g><path class="cls-20" d="M51.63,46a4.62,4.62,0,0,1-1.47,1.51.09.09,0,0,1-.09-.14,6.42,6.42,0,0,1,.69-.69c.27-.25.52-.51.77-.79.06-.06.16,0,.1.11Z"/><path class="cls-6" d="M77.15,52.52a5.94,5.94,0,0,0-5.23-1C70.44,52,69,52.64,67.49,53c-.66.15-1.31.28-2,.38a8.78,8.78,0,0,1-.88.1A11.71,11.71,0,0,1,66.43,52,28.66,28.66,0,0,0,70,49.09c.37-.34,1-1,.59-1.21-1.77-1-4.23-.28-5.94.61a13.41,13.41,0,0,0-1.84,1.19c-.11-.49-.23-1-.32-1.36a10.33,10.33,0,0,0-2.73-5.53,6.13,6.13,0,0,0-4.37-1.71c-1,.06-2.79.34-3,1.79a.25.25,0,0,0,.47.15c.54-1,2.85,0,3.54.34,1.14.63,2.72,1.78,3.17,3.12a22.64,22.64,0,0,1,.77,4.18,12.6,12.6,0,0,0-4.55-1.73c-2.22-.33-5.3,0-7.09,1.66-.86.81-.48,1,.39.83,1.72-.3,4.34.58,6.05,1.08l.18,0c-1.64.42-3.21,1.18-4.87,1.44-1.82.29-3.38-.22-5.15-.51-.54-.09-1,.08-.56.73,2.12,3.44,6,3.73,9.25,3.16a13.78,13.78,0,0,1,4.28-.44c.81.11,1.78.63,2.69.74a3,3,0,0,0,.61.73c1.43,1.23,4.05.42,5.65,0a23.73,23.73,0,0,0,4.65-1.68,13.27,13.27,0,0,1,2-.93,7.26,7.26,0,0,1,3-.29c.58.27,1.68,1.4,2,1.22S78.17,53.32,77.15,52.52Z"/><g class="cls-64"><path class="cls-65" d="M63.34,54.41c1.38.47,2.94-.7,4-1.61a9.64,9.64,0,0,0,3-3.8,1.22,1.22,0,0,0-.24-1C69.21,46.66,67.6,49.42,67,50a11.6,11.6,0,0,1-2,1.74,7.74,7.74,0,0,0-2,1.42.78.78,0,0,0,.29,1.23Z"/><path class="cls-65" d="M60.58,51.07c.07-3.09-3.44-3.5-5.64-3.44s-5.65.21-7.07,2.33a.9.9,0,0,0,.91,1.34,23.58,23.58,0,0,1,2.46-.95,15.24,15.24,0,0,1,2.94-.19A8.79,8.79,0,0,1,60.42,53c.22.27.3-.66.31-1Z"/><path class="cls-65" d="M43.8,52.91c-.24,2.44,3.63,2.42,4.93,2.43a14,14,0,0,0,3.64-.43c1.08-.29,3.82-.87,4.11-2.27.09-.43-1.37-.67-1.74-.8-.89-.31-1.63.27-2.46.57a10.84,10.84,0,0,1-3,.58,17.9,17.9,0,0,1-5.37-.16s-.08,0-.08.08Z"/><path class="cls-65" d="M66.9,56c-.26,2.35,3.42,2.49,4.72,2.25,1.15-.2,2.13-1.07,3.3-1.12a3,3,0,0,1,1.67.44c.54.32.9.7,1.55.64A1.2,1.2,0,0,0,79.22,57a2.82,2.82,0,0,0-2-2.53,5.25,5.25,0,0,0-3.54-.14c-1.15.32-2.11,1.13-3.32,1.23-.61,0-1.22,0-1.83,0a9.22,9.22,0,0,1-1.21.22c-.17-.2-.41,0-.44.21Z"/><path class="cls-66" d="M62.46,50.79a3.4,3.4,0,0,0,.83-2.07,9.6,9.6,0,0,0-.28-3,10.5,10.5,0,0,0-3.22-4.64c-1.41-1.33-3.3-1.46-5.07-1.35-1.29.09-4,.6-3.94,2.6a.85.85,0,0,0,.76.87c.62.07,1-.35,1.49-.7a3.45,3.45,0,0,1,1.88-.66A4.9,4.9,0,0,1,59,43a10.93,10.93,0,0,1,2.21,3.34A17.78,17.78,0,0,1,62,50.65a.27.27,0,0,0,.47.14Z"/><g class="cls-67"><path class="cls-68" d="M60.7,53.67c.8-1.47.49-3.34.17-5a10,10,0,0,0-1.69-4.31,7.11,7.11,0,0,0-3.65-2.45,3.77,3.77,0,0,0-4.11,1.81c-.26.58.17.6.84.72a4.23,4.23,0,0,0,1.42-.1,5.16,5.16,0,0,1,1.56.17,4.38,4.38,0,0,1,2.85,1.84c.67,1,2.1,2.49,2.28,3.7a12.68,12.68,0,0,1-.17,3.59c0,.25.38.22.5,0Z"/></g><g class="cls-67"><path class="cls-68" d="M62,53a8.91,8.91,0,0,1,3.78-3.14,7.56,7.56,0,0,1,2.9-.41,3.15,3.15,0,0,0,2.63-.73.78.78,0,0,0,.1-.85c-1.06-2.7-4.61-.76-6.37.26a6.42,6.42,0,0,0-3.44,4.75c0,.19.29.28.4.12Z"/></g><g class="cls-67"><path class="cls-68" d="M58.24,52.64c-2-.78-4-1.71-6-2.42a8.07,8.07,0,0,0-2.85-.32c-.89,0-1.78-.15-2.36.73a.7.7,0,0,0,0,.66c.51.87,1.33.78,2.18.83a11.46,11.46,0,0,1,3,.34c.92.31,2.27-.06,3.22.12a10.56,10.56,0,0,0,2.66.35c.33,0,.42-.17.12-.29Z"/></g><g class="cls-67"><path class="cls-68" d="M52,57.82c-1.15-.75-2.26-1.6-3.4-2.4a10.49,10.49,0,0,1-1.57-1.09A7.87,7.87,0,0,0,45.78,53c-.57-.35-1.2.09-1.24.81-.11,1.95,1.39,2.92,2.74,3.58a6.69,6.69,0,0,0,4.71.85c.19,0,.21-.35,0-.46Z"/></g><g class="cls-67"><path class="cls-68" d="M78.92,57.18A3.24,3.24,0,0,0,79.59,55a4.8,4.8,0,0,0-.9-2.46A5.83,5.83,0,0,0,74.46,50c-1.85-.21-3.53.74-5.22,1.43a38.61,38.61,0,0,1-5.59,1.78,1.27,1.27,0,0,0,0,2.32c1.49.36,3.05-.19,4.49-.62s2.92-1,4.37-1.6a3.6,3.6,0,0,1,3.88.47,5.34,5.34,0,0,1,1.08,1.62c.31.62.81,1.19,1.07,1.82a.21.21,0,0,0,.38,0Z"/></g></g><path class="cls-69" d="M70.87,52.94c-.34,1,1.91.3,2.19.22a2.81,2.81,0,0,1,2.18.17c.38.17.73.11.78-.4a.52.52,0,0,0-.23-.45,2.83,2.83,0,0,0-2.44-.36A13.37,13.37,0,0,0,71,53c0-.1-.12-.12-.15,0Z"/><path class="cls-69" d="M61.12,54.3A8.3,8.3,0,0,1,63,52.13a4.34,4.34,0,0,1,2.23-1.39c1.2-.26,3.29-.36,3.44-2.15a.49.49,0,0,0-.32-.47c-.81-.23-1.54.43-2.27.76A17.1,17.1,0,0,0,63.37,50a6,6,0,0,0-1.73,1.83A4.49,4.49,0,0,0,61,54.26c0,.07.1.11.13,0Z"/><path class="cls-69" d="M51.43,50.54c.1.58.56.71,1,.81,1,.21,2,.2,2.92.41a4.08,4.08,0,0,1,2.49,1.08c.6.67,1,1.45,1.94,1.35a.81.81,0,0,0,.71-.81c.1-1.12-.79-1.89-1.52-2.5a5.24,5.24,0,0,0-3-1c-.44-.05-4.77-.25-4.6.7Z"/><path class="cls-69" d="M46.78,55c.54.4,1.53,1.17,2.18.78a.38.38,0,0,0,.12-.55,1.32,1.32,0,0,0-.95-.5L47,54.45c-.25-.05-.39.38-.18.53Z"/><path class="cls-70" d="M55.1,42c1.17.78,2.42.93,3.47,2a5.73,5.73,0,0,1,1.16,1.86,2.83,2.83,0,0,0,.91,1.45.37.37,0,0,0,.55-.26c.32-1.42-1-3.26-2-4s-2.79-1.75-4.09-1.29a.13.13,0,0,0,0,.22Z"/><path class="cls-7" d="M42.06,62.87c-1.91,3-4,7.93-4.16,11.66a26.64,26.64,0,0,0,.66,5.76c1.14,6,2.61,12.52,7,16,3.08,2.43,7.09,2.9,10.23,5.23a10.11,10.11,0,0,1,2.71,3c.21.37.47.81.86.77s.44-.23.62-.43c4.13-4.56,11-4.44,15.36-8.67,2.6-2.49,4-6.19,5.3-9.78s2.62-7.63,2.26-11.62a26.57,26.57,0,0,0-3-10C75,56.09,69.28,55.17,60.27,54.5,53.17,54,45.92,56.7,42.06,62.87Z"/><g class="cls-71"><path class="cls-72" d="M78.84,60.64c-1.44-3.83-3.9-7-7.8-8a2.2,2.2,0,0,0-2.23.65,15.77,15.77,0,0,0-5.49-1.77c-1.17-.14-2.34-.27-3.52-.34a15.48,15.48,0,0,0-3.64.38c-1,.17-.84,1.86,0,2.16a22.83,22.83,0,0,0,2.74,1c1,.23,2,.42,3,.73a21.77,21.77,0,0,1,5.29,2.25c3.37,2.19,5.1,6,5.89,10.22a28.59,28.59,0,0,1-.71,12.94c-1.3,4.51-3.91,7.79-6.7,11.21s-5.44,7.28-6.06,11.81a6.22,6.22,0,0,0,.23,4.53,2,2,0,0,0,3.82-1.18,10.36,10.36,0,0,1,.11-2.74c.24-.42.51-.8.65-1,.35-.54.7-1.08,1.06-1.61a2,2,0,0,0,1.47-.76c.27-.35.55-.7.84-1a2.25,2.25,0,0,0,2.47-.7C76.77,97.63,81.32,91,82.87,83.67,84.55,75.72,83.45,67.07,78.84,60.64Z"/><path class="cls-73" d="M60.52,108.05a27,27,0,0,0-1.68-7.1,17,17,0,0,0-4.05-5.41,28.25,28.25,0,0,1-6.34-9.21c-3-7-3.89-15.24-.82-22.19,2.61-5.92,5.4-6.14,7.61-8a3,3,0,0,0,1-3.45,2.36,2.36,0,0,0-2.88-1.61,28.27,28.27,0,0,0-6.16,3.42,7,7,0,0,0-1.26,1,27.46,27.46,0,0,0-8,10.9c-2.43,6-3.08,14.2.07,20.07a20.24,20.24,0,0,0,1.38,3.07,17.77,17.77,0,0,0,4,5c1.71,1.47,3.7,2.45,5.44,3.88a22.09,22.09,0,0,1,7,11.17,2.45,2.45,0,0,0,3,1.92C60.22,111,60.7,109.53,60.52,108.05Z"/></g><g class="cls-74"><path class="cls-75" d="M86,81a2.33,2.33,0,0,0-2.76-1.27,29.43,29.43,0,0,1-19.81,1.75,31.5,31.5,0,0,1-9.24-4.09,29.39,29.39,0,0,1-4-3.08A12.72,12.72,0,0,1,46.73,70c0-.28,0-.56,0-.84-.26-4.7.14-9.46,2.5-13.46,1.39-2.37-1.32-5.14-3.35-3.8-3.64,2.4-5.8,6.7-6.78,11.3a2.36,2.36,0,0,0-1.75,1.32,18.31,18.31,0,0,0-.56,14,20.34,20.34,0,0,0,3.1,11.17A23.66,23.66,0,0,0,42,92.59c1.51,7,7.31,12.31,14,12.13a2.26,2.26,0,0,0,.51-.08,5.67,5.67,0,0,0,1.3.27c.68.35,1.38.67,2.07,1a3.46,3.46,0,0,0,2.39.07A2.28,2.28,0,0,0,65.51,107a33.29,33.29,0,0,0,10.74-9.5c.3-.26.59-.52.87-.79a2.39,2.39,0,0,0,.72-1.51l.27-.43a2.15,2.15,0,0,0,.22-.46,8.17,8.17,0,0,0,4.75-5.47,2.79,2.79,0,0,0-.1-1.79,12.42,12.42,0,0,0,2.65-2.71A3.21,3.21,0,0,0,86,81Z"/><path class="cls-75" d="M84.22,88.27a2.52,2.52,0,0,0-3-1.38A31.82,31.82,0,0,1,59.8,88.78a34.13,34.13,0,0,1-10-4.42A29.27,29.27,0,0,1,45.47,81c-11.7-11.11-2.53-25.7-4.73-24.25-4,2.6-6.28,7.25-7.34,12.23a2.56,2.56,0,0,0-1.9,1.43c-2.36,4.67-2.26,10.24-.61,15.15a22.06,22.06,0,0,0,3.36,12.09,25.79,25.79,0,0,0,2.35,3.15c1.63,7.56,7.92,13.33,15.1,13.13a2.53,2.53,0,0,0,.55-.09,5.52,5.52,0,0,0,1.41.29c.74.38,1.49.73,2.24,1a3.71,3.71,0,0,0,2.58.08A2.48,2.48,0,0,0,62,116.44a36.16,36.16,0,0,0,11.62-10.29c.32-.28.64-.56,1-.85a2.55,2.55,0,0,0,.77-1.63l.3-.47a2.5,2.5,0,0,0,.23-.5,8.81,8.81,0,0,0,5.14-5.92,3,3,0,0,0-.1-1.93,13.34,13.34,0,0,0,2.86-2.94A3.45,3.45,0,0,0,84.22,88.27Z"/><path class="cls-75" d="M85.66,89.37a2.41,2.41,0,0,0-3.2-.44A33.22,33.22,0,0,1,62.23,97.2,32.42,32.42,0,0,1,51.55,96,27.81,27.81,0,0,1,46.6,94c-13.87-7.2-8.43-24-10.21-22-3.2,3.7-4.36,8.88-4.23,14a2.83,2.83,0,0,0-1.5,2,19.54,19.54,0,0,0,2.95,14.79,20.52,20.52,0,0,0,6,10.66,24.1,24.1,0,0,0,3,2.32c3.34,6.81,10.74,10.48,17.63,8.13a3,3,0,0,0,.51-.25,6.28,6.28,0,0,0,1.42-.14c.8.14,1.61.25,2.4.31a3.79,3.79,0,0,0,2.51-.7,2.4,2.4,0,0,0,3.7.06,40,40,0,0,0,8.82-13.41c.24-.37.48-.73.71-1.11a2.71,2.71,0,0,0,.36-1.8l.18-.54a2.82,2.82,0,0,0,.11-.55,9.63,9.63,0,0,0,3.57-7.26A2.92,2.92,0,0,0,84,96.7,14.75,14.75,0,0,0,86.11,93,3.43,3.43,0,0,0,85.66,89.37Z"/></g><path class="cls-76" d="M73.73,61.1c-3.59-3.07-8.57-5-13-3.88l-.55.17a6.54,6.54,0,0,0-3,1.2l-.29.23a10.24,10.24,0,0,0-3.72,11.49c.08.26.17.51.26.75a9.7,9.7,0,0,0,.76,2,10.39,10.39,0,0,0,3.54,3.8,20.33,20.33,0,0,0,5.92,3.1,13.13,13.13,0,0,0,7.83.42,11,11,0,0,0,2.93-.24c2.45-.59,4.27-2.9,4.84-5.62C80.4,69.15,77.51,64,73.73,61.1Z"/><path class="cls-76" d="M73.17,62.56c-1.92-1.64-4.59-2.69-7-2.07a1.4,1.4,0,0,0-.29.09,3.48,3.48,0,0,0-1.61.64l-.16.12a5.5,5.5,0,0,0-2,6.16c0,.13.09.27.14.4a4.77,4.77,0,0,0,.41,1,5.45,5.45,0,0,0,1.89,2,11,11,0,0,0,3.17,1.67,7,7,0,0,0,4.2.22,5.78,5.78,0,0,0,1.56-.13,3.76,3.76,0,0,0,2.6-3A7.43,7.43,0,0,0,73.17,62.56Z"/><path class="cls-8" d="M53.39,99.05a4.1,4.1,0,0,0,.82-4.87,6.78,6.78,0,0,0-3.1-2.47A78,78,0,0,1,31,76.7a44.71,44.71,0,0,1-5.89-7.26C19,59.71,18.22,47,17.66,35.09c-.1-2.12-.08-4.58,1.37-5.94.46-.43,1-.7,1.46-1.16a6,6,0,0,0,1.12-2.66c.39-1.61.77-3.22,1.16-4.83a2.47,2.47,0,0,0,.08-1.26,1.86,1.86,0,0,0-.46-.75,6.3,6.3,0,0,0-4.34-2.13c-1.55,2-3.26,4.09-3.3,6.73,0,.67.09,1.34.09,2,0,2.65-1.52,5-3.26,6.77s-3.75,3.21-5.26,5.23a18.63,18.63,0,0,0-2.78,6C.79,52.83,2.91,63.53,6.81,72.69,12.48,86,21.62,96.34,33.9,101.16c2.79,1.09,6.57,2,9.49,1.53C47,102.12,50.47,101.46,53.39,99.05Z"/><g class="cls-77"><g class="cls-78"><path class="cls-79" d="M57.12,95.31c-1.8,2.52-5.71,1.33-8,.31a44.17,44.17,0,0,1-7.86-4.83A68.9,68.9,0,0,1,25.47,75a50.68,50.68,0,0,1-8.69-20A91.4,91.4,0,0,1,15.61,43.6a29.69,29.69,0,0,1,.93-10.8,31.08,31.08,0,0,1,2.21-5.15,7.63,7.63,0,0,0,1.29-3,22.33,22.33,0,0,1,4.2-11.37c2.49-3.06,4.62,1.25,3.16,5a9.68,9.68,0,0,0-.61,2.38c-.1,1.26,0,2.53-.09,3.79a17.15,17.15,0,0,1-.78,4.73,24.39,24.39,0,0,1-2.21,4.28,13.3,13.3,0,0,0-1.54,7.19c.06,3.3.28,6.63.65,9.9C24.4,64.2,32.89,74.43,42.06,82.5,44.61,84.75,47.2,87,49.88,89a29.07,29.07,0,0,0,3.59,2.39c1.24.69,2.55.91,3.54,2a1.54,1.54,0,0,1,.11,1.93Z"/></g><path class="cls-80" d="M57.54,100.82a10,10,0,0,1-5.08,2.71,25.75,25.75,0,0,1-5.88,1,39.59,39.59,0,0,1-12.16-1.15c-8.19-2.24-14.58-10.65-19.31-18.1A80.8,80.8,0,0,1,4.45,59.13C2.7,51,1.33,40.83,5.48,33.27a18.21,18.21,0,0,1,1.95-3,16,16,0,0,0,2-2.33,8.83,8.83,0,0,0,.38-2.73,18.13,18.13,0,0,1,.85-3.74,26,26,0,0,1,3.21-6.33c1.6-2.39,3.11-4.22,5.82-4.71,1.67-.3,2.55,1.7,2.44,3.23-.16,2.39-1.44,3.91-2.7,5.69A19.07,19.07,0,0,0,17,24a22.47,22.47,0,0,0-.78,4.66,10.52,10.52,0,0,1-3,5.79,14.12,14.12,0,0,0-3.67,8.85,40.77,40.77,0,0,0,.59,10.26,74.29,74.29,0,0,0,8.3,24,52.75,52.75,0,0,0,6.13,9.24A41.87,41.87,0,0,0,33.7,95a29,29,0,0,0,11.16,3.7,53.63,53.63,0,0,0,5.94.48c2.06,0,4.27-.44,6.27.1a1,1,0,0,1,.47,1.59Z"/><path class="cls-81" d="M50.18,110.81a10,10,0,0,1-3.86.69,19.17,19.17,0,0,1-5.32-.57,38.5,38.5,0,0,1-9.4-3.19C25,104.53,20,98.58,15.43,92.44,6.83,80.81.27,66.41,0,51A55.4,55.4,0,0,1,1,39.37a30.31,30.31,0,0,1,1.51-5.53,11,11,0,0,1,1.58-2.73C4.65,30.39,5.38,30,6,29.31c1.27-1.32,6.41-3.45,6.19-1.44C12,29.29,9.35,31.5,9.12,33S7.3,36.35,6.66,40.62a74.18,74.18,0,0,0-.93,9.17c-.12,6.39,1.49,12,3.48,17.91a67.41,67.41,0,0,0,9.38,17.92c3.8,5.46,8.85,11,14.14,14.64a48.39,48.39,0,0,0,9.09,4.64A51.73,51.73,0,0,1,46.68,107a11.73,11.73,0,0,1,3.73,2.58.8.8,0,0,1-.23,1.26Z"/></g><g class="cls-82"><path class="cls-20" d="M48.08,95.7a8.68,8.68,0,0,1-2.34.16,19.92,19.92,0,0,1-2.53-.52,29.52,29.52,0,0,1-5-1.91A41.79,41.79,0,0,1,29.12,87a38.36,38.36,0,0,1-7.72-9.56,30.48,30.48,0,0,1-2.54-6.08,17.25,17.25,0,0,1-.73-3.35,18.12,18.12,0,0,1,.23-3.21A1,1,0,0,1,20,64.21a15.32,15.32,0,0,1,3.56,4.28c1,1.72,1.87,3.51,2.84,5.23a37.23,37.23,0,0,0,6.79,8.42,66.55,66.55,0,0,0,7.44,6.25c1.35,1,2.65,2,4,3,.68.45,1.32,1,2,1.44a17.6,17.6,0,0,1,1.79,1.77.68.68,0,0,1-.35,1.14Z"/></g><g class="cls-83"><path class="cls-20" d="M16.32,60.49c-2.41-1-3.06-4.77-3.52-7.29-.51-2.83-1.32-6.75,0-9.43a2,2,0,0,1,3.53-.25c1.22,2.26,1,5.26,1.19,7.81.1,1.25.19,2.51.25,3.76a19.66,19.66,0,0,0,.17,3.85,1.21,1.21,0,0,1-1.59,1.55Z"/></g><g class="cls-84"><path class="cls-85" d="M14.63,16.73c.15,2.57,1.74,5.64,4,6.34a4.45,4.45,0,0,0,5-1.93,6.88,6.88,0,0,0,.83-1.59,8.66,8.66,0,0,0,.62-1.26c1-2.55.92-5.54-1.16-7.38a5.31,5.31,0,0,0-6.48-.16A6.72,6.72,0,0,0,14.63,16.73Z"/><path class="cls-86" d="M18.48,15.87c.15,2.58,1.74,5.64,4,6.35a4.45,4.45,0,0,0,5-1.94,6.88,6.88,0,0,0,.83-1.59,8.55,8.55,0,0,0,.62-1.25c1-2.55.92-5.55-1.16-7.39a5.28,5.28,0,0,0-6.47-.15A6.68,6.68,0,0,0,18.48,15.87Z"/><path class="cls-85" d="M53,99.35c-.12.64-.15.66-.08.06l0-.56C53,98.4,53,98,53,97.54c0-1.06.16-2.14.23-3.2.1-1.44.36-3,1.55-3.75s2.85,0,3.37,1.53A9.55,9.55,0,0,1,57,99.49c-.91,1.31-2.86,3-4.06,1.12A1.19,1.19,0,0,1,53,99.35Z"/><g class="cls-87"><path class="cls-85" d="M53.28,94.46q-.2.95-.09.06l0-.56c.05-.45.05-.86.06-1.31,0-1.06.17-2.14.24-3.2.09-1.44.35-3,1.54-3.75s2.85,0,3.37,1.52a9.55,9.55,0,0,1-1.17,7.37c-.91,1.32-2.86,3-4.06,1.13a1.17,1.17,0,0,1,.08-1.26Z"/></g><path class="cls-88" d="M16.18,18.86a2.88,2.88,0,0,1,2.9,2.45,11.19,11.19,0,0,1,1.3.31,3.83,3.83,0,0,1,2.53,2.69c.18.09.35.19.51.29,2.92,1.82,2.08,6.82-1.28,7.16-.08,1.6-1,3.14-2.68,3.11C18.3,36,16.25,36.14,14.84,36c-2.47-.3-4.67-2.24-6-4.52a3.23,3.23,0,0,1,2.75-5,4.34,4.34,0,0,1,.68-3.08A4.51,4.51,0,0,1,16.18,18.86Z"/></g></g></g></g></svg>