<svg xmlns="http://www.w3.org/2000/svg" viewBox="0 0 120 100"><defs><style>.cls-1{fill:#4b973a;}.cls-2{fill:#9ace83;}.cls-3{fill:#63a84a;}.cls-4{fill:#3f8931;}.cls-5{fill:#1b904d;}.cls-6{fill:#9eaa8c;}.cls-7{fill:#06753d;}.cls-8{fill:#aa9586;}.cls-9{fill:#7b8d56;}.cls-10{fill:#4d6b13;}.cls-11{opacity:0.25;}.cls-12,.cls-17{fill:#9bad2c;}.cls-13{fill:#5b7f16;}.cls-14{fill:#abc317;}.cls-15{fill:#946939;}.cls-16,.cls-17{opacity:0.42;}.cls-18{fill:#774c52;}.cls-19{fill:#633d3e;}.cls-20{opacity:0.43;}.cls-21{fill:#915f69;}.cls-22{opacity:0.47;}.cls-23{opacity:0.48;}.cls-24{fill:#9d808b;}.cls-25{opacity:0.71;}</style></defs><title>fruits1</title><g id="Capa_2" data-name="Capa 2"><g id="Ediicion"><path class="cls-1" d="M79.64,77a13.17,13.17,0,0,0,4.77-4.2,23.12,23.12,0,0,1,1.8-3.16c1.62-1.74,1.17.85,2.37.34.73-.3,1.4-2.79,1.68-3.5a16.45,16.45,0,0,1,1.91-3.93c1.57-2.16,4.09-3.51,4.47.1.14,1.28-.25,2.92,1.39,2.08,1.11-.58,1.77-2.49,2.75-3.32s2.46-1.61,3.6-.7c.43.34.6,1,1.1,1.27s1.44.15,2,.15c1.49,0,6.87.27,4.54,3.32-1.71,2.23-5.76-.42-7.09,2.18-.59,1.15.49,2.45.12,3.25-.48,1-2.54.54-3.28.43-1.07-.15-2.22-.48-3.2.21-1.36,1-.71,1.59-.43,2.94.89,4.25-5.47,1.32-7.23,1.14a7.65,7.65,0,0,0-3.12.22c-1,.37-1.24,1.14-2.11,1.73-1.57,1.06-4,.71-5.72,1.18a23.48,23.48,0,0,0-5.24,1.79c-.54.28-1-1.24-.39-1.48C76,78.33,78.08,77.91,79.64,77Z"/><path class="cls-2" d="M79.66,78.08c1.51-.89,3-1.7,4.53-2.44l4.58-2.09.4,0a17.52,17.52,0,0,1,2.29.59,5.37,5.37,0,0,0,1.19.19c.39,0,.79,0,1.18.05a11.49,11.49,0,0,1,1.18.1,2.84,2.84,0,0,1,1.11.39,2,2,0,0,0-.52-.31,3.93,3.93,0,0,0-.58-.19,9.31,9.31,0,0,0-1.18-.17c-.39,0-.79,0-1.18-.09A5.64,5.64,0,0,1,91.51,74a13.26,13.26,0,0,0-2.32-.55h-.11l4.41-2c1.63-.74,3.26-1.52,4.85-2.4l-.15.1a3.69,3.69,0,0,1,1.37-.31,5.43,5.43,0,0,1,1.39.1,6.7,6.7,0,0,1,1.34.42,4.59,4.59,0,0,1,1.21.77,3.46,3.46,0,0,0-1.15-.94,5.07,5.07,0,0,0-1.37-.48,4.57,4.57,0,0,0-1.43,0,3.07,3.07,0,0,0-1.18.37,28.66,28.66,0,0,0,4.08-2.72c-.62.42-1.25.82-1.9,1.19a3.48,3.48,0,0,0,.34-.56,11.52,11.52,0,0,0,.51-1.5,7.86,7.86,0,0,1,.54-1.45,2.92,2.92,0,0,1,.42-.6,2.47,2.47,0,0,1,.58-.44,1.92,1.92,0,0,0-.64.35,2.39,2.39,0,0,0-.49.6,6.06,6.06,0,0,0-.6,1.47c-.15.51-.28,1-.46,1.49a3.54,3.54,0,0,1-.35.67l-.08.11a72.19,72.19,0,0,1-7,3.37c-1,.45-2.06.88-3.09,1.31a5.75,5.75,0,0,0,.86-.85A7.32,7.32,0,0,0,92.46,69c.27-.91.59-1.8.93-2.67s.71-1.74,1.08-2.61c-.44.82-.85,1.66-1.22,2.53a25.07,25.07,0,0,0-1,2.67,6.89,6.89,0,0,1-.53,1.28A9,9,0,0,1,91,71.3a6.51,6.51,0,0,1-.92,1l-.18.15c-2,.82-4,1.66-5.92,2.67-.62.31-1.24.65-1.85,1A.46.46,0,0,0,82.2,76a4.27,4.27,0,0,1,.83-.58,19.93,19.93,0,0,0,1.79-1,2.16,2.16,0,0,0,.71-.84,4.3,4.3,0,0,0,.31-1.1c.07-.37.11-.74.21-1.09a3.13,3.13,0,0,1,.19-.51,1.9,1.9,0,0,1,.3-.44,2.18,2.18,0,0,0-.59.91,8.61,8.61,0,0,0-.26,1.09,4.14,4.14,0,0,1-.33,1,2,2,0,0,1-.65.76c-.54.39-1.17.65-1.75,1a3.66,3.66,0,0,0-.82.66,2.88,2.88,0,0,0-.22.27c-.82.47-1.64,1-2.43,1.44-1.52.68-3.13,1.27-4.7,1.91-.3.12-.39.23-.68.34,0,.15.1.25.13.39.29-.12.38-.19.67-.31C76.49,79.34,78.07,78.78,79.66,78.08Z"/><path class="cls-3" d="M77.22,63.51c.53-1.2,1.89-8.07,3.55-6.54,1,.86-.23,2.79,1.58,2.07.86-.34,1.41-5,1.61-6,.6-3,1.07-4,3-4.42,1.23-.24,1.17,4.8,2.35,3.74,2-1.82,1.57-5.52,2.78-7.85,2-3.7,5.18-4.63,8.55-5.87,1.17-.44,3.15-1,4,.31s-.32,2.53-1.15,3.57c-.52.66-2.64,2.57-1.57,3.48.85.74,2.46-.88,1.3,1.39-1.26,2.45-4.51,2.37-5.16,5.3-.17.75.33.85-.19,1.61s-1,.52-1.63.69a17.16,17.16,0,0,0-3.89,1.6c-1.19.69-2,1.17-1.32,2.71.47,1.11,1.55,1.77-.14,2.35-1.06.36-2.29,0-3.39.39-1.7.6-1.11.93-1.45,2.46-.59,2.61-4.81,1.09-6.58,2-5.49,2.72-7.8,8.88-8.86,10.07-.46.52-1.68-.4-1.58-.75C70.44,70.88,75.17,68.16,77.22,63.51Z"/><path class="cls-2" d="M71.28,73.87c2.33-3.35,4.65-6.72,7.7-9.21h0a6.11,6.11,0,0,1,1.88-.38,7.66,7.66,0,0,1,1.91.14,5.82,5.82,0,0,1,.93.26,4.51,4.51,0,0,1,.89.42,4.53,4.53,0,0,0-1.78-.86,6.77,6.77,0,0,0-2-.19,6.14,6.14,0,0,0-1.46.26l.31-.23q1.68-1.45,3.31-3a1.69,1.69,0,0,0,.64.29,2.22,2.22,0,0,0,1,0,11.34,11.34,0,0,0,1.81-.71c.29-.13.59-.24.89-.34a4.16,4.16,0,0,1,.91-.22,3.65,3.65,0,0,1,1.82.34,4.1,4.1,0,0,0-.88-.4,2.54,2.54,0,0,0-1-.12,3.91,3.91,0,0,0-1,.19,7.62,7.62,0,0,0-.91.33,15,15,0,0,1-1.77.76,2.37,2.37,0,0,1-.91.11,1.41,1.41,0,0,1-.45-.11l-.19-.1c2.05-1.9,4.06-3.85,6.09-5.79l.41-.4a1.47,1.47,0,0,0,.59,0,3.75,3.75,0,0,0,.81-.23c.26-.1.52-.22.77-.33l.39-.15.19,0,.2,0a7.23,7.23,0,0,1,1.6-.2,5.87,5.87,0,0,1,1.6.25,4.43,4.43,0,0,0-1.59-.43,5.74,5.74,0,0,0-1.65.15l-.2.06a.83.83,0,0,0-.21.06l-.39.16-.76.36a6,6,0,0,1-.77.29,1.42,1.42,0,0,1-.54.05c3-2.84,5.86-5.73,8.67-8.76L94.09,50a2.14,2.14,0,0,0,.09-.34c.06-.25.11-.52.15-.78a11.23,11.23,0,0,1,.32-1.53,10.38,10.38,0,0,1,1.21-2.81,7,7,0,0,1,.91-1.17,7.57,7.57,0,0,1,1.11-.94c.39-.27.8-.52,1.21-.78a13.63,13.63,0,0,0,1.18-.86c-.8.56-1.65,1-2.47,1.49a6.33,6.33,0,0,0-1.15.93,6.61,6.61,0,0,0-1,1.2A8.3,8.3,0,0,0,95,45.82a13.09,13.09,0,0,0-.48,1.5,9.38,9.38,0,0,0-.27,1.57,9.18,9.18,0,0,1-.18,1.17l-5.16,4.85-3,2.81a.5.5,0,0,0,0-.12,7.5,7.5,0,0,0,.1-.94c0-.63,0-1.26,0-1.89,0-.31,0-.62,0-.93a9.19,9.19,0,0,1,.08-.93,4.52,4.52,0,0,1,.2-.9,2.1,2.1,0,0,1,.46-.76,1.92,1.92,0,0,0-.55.72,4,4,0,0,0-.27.91,12,12,0,0,0-.14,1.89c0,.63,0,1.26,0,1.88,0,.32,0,.63,0,.94l0,.22-6.31,5.8c-.43.33-.85.68-1.25,1a5.65,5.65,0,0,0,.38-.78A7.34,7.34,0,0,0,79,62.27c.09-.55.15-1.09.22-1.64s.15-1.09.26-1.63A9.65,9.65,0,0,0,79,60.6c-.1.55-.16,1.1-.25,1.63a10.5,10.5,0,0,1-.37,1.59,6.7,6.7,0,0,1-.45,1,49,49,0,0,0-7,8.78c-.6.92-1.15,1.66-1.7,2.61.08.06.32.25.39.32C70.27,75.62,70.67,74.77,71.28,73.87Z"/><path class="cls-4" d="M81.23,81.78c2.85.31,4.53-1.69,7-2.82,3.42-1.58,2.39,2,4.59,3.38,2.83,1.77,3.07-4.54,5.46-3.61,1.43.55.59,2.07,2.28,2.22a2.7,2.7,0,0,0,3-1.6c.64-1.3.68-3,1.71-4.17,1.53-1.66,1.64.24,2.1,1.47,1.07,2.94,6.08-1,8.11-1.6,2.77-.88,6,.52,3.78,4.07-.89,1.45-3.38,2.09-3.91,3.58-.71,2,3,2,1.85,3.35-1,1.16-3.58-.06-4.58-.5-1.16-.5-2.93-1.34-4.13-.51,0,1.36,1.4,2.18.91,3.6s-2,.73-3,.24c-2.81-1.29-6.83-3-9.19-2.3-1.72.53-.82,2-1.05,3.46-.27,1.72-1.55,1.74-2.71,1.35-3.4-1.13-5.83-4.91-9.16-6.45-2.86-1.33-.75,1.58-1.72,2.76s-3-1.85-3.69-2.39a29.65,29.65,0,0,0-4.33-3c-1.28-.64-3.07-.3-4.36-1.07-.1-.06.82-.73,1.2-.91S79.26,81.56,81.23,81.78Z"/><path class="cls-2" d="M106.42,87.12a6.1,6.1,0,0,1-1-.64c-.31-.24-.62-.5-.92-.76l-.47-.37-.49-.35a9.16,9.16,0,0,0-2.06-1.18,3.92,3.92,0,0,0-1.12-.23c.87-.28,1.73-.55,2.6-.8,2-.62,4.13-.87,6.21-1.36a1.45,1.45,0,0,1,.41.1,4.67,4.67,0,0,1,.83.43c.53.34,1,.75,1.54,1.15a7.53,7.53,0,0,0,1.65,1,7.69,7.69,0,0,0,1.8.57,14.85,14.85,0,0,1-1.74-.73,10.23,10.23,0,0,1-1.59-1,14.55,14.55,0,0,0-1.58-1.12,4,4,0,0,0-.88-.38l-.24,0a12.12,12.12,0,0,0,5.12-2.44,12.24,12.24,0,0,1-5.65,2.24c-1.38.27-2.79.47-4.19.76a1.42,1.42,0,0,0,.43-.45,2.14,2.14,0,0,0,.26-.69,4.55,4.55,0,0,0,.09-.73c0-.48,0-1,.07-1.42a3.73,3.73,0,0,1,.14-.68,2,2,0,0,1,.34-.6,1.57,1.57,0,0,0-.43.55,2.81,2.81,0,0,0-.2.7,14.21,14.21,0,0,0-.12,1.44,3.83,3.83,0,0,1-.08.69,2.18,2.18,0,0,1-.2.64,1.58,1.58,0,0,1-.42.5l-.14.11c-.51.1-1,.23-1.51.37-2.46.65-4.93,1.52-7.4,2a5,5,0,0,0,.93-1.06A9.88,9.88,0,0,0,97,82c.1-.22.19-.44.31-.65a1.6,1.6,0,0,1,.44-.53,1.3,1.3,0,0,0-.52.47,4.34,4.34,0,0,0-.37.63c-.11.22-.2.44-.3.66a5.3,5.3,0,0,1-.32.63,6.07,6.07,0,0,1-.87,1.07l-.19.19a16.43,16.43,0,0,1-4.08.28c-3.85-.84-7.87-1.68-11.8-2.41-2.95-.58-5.55-1-8.48-1.67-.1.13-.38.21-.49.31,2.48.58,4.83,1,7.27,1.52l.27.36c.28.38.54.79.82,1.19a5.48,5.48,0,0,0,1,1,6.26,6.26,0,0,0,1.16.76c-.36-.29-.72-.58-1.07-.9-.17-.16-.33-.32-.49-.5a4.6,4.6,0,0,1-.45-.54l-.42-.59c-.14-.19-.28-.39-.44-.57s-.11-.13-.16-.19l1.38.29c2.4.47,4.75,1,7.12,1.5a6.36,6.36,0,0,1,.85.62,13.55,13.55,0,0,1,2,2c.15.19.29.38.45.56s.32.36.49.53a11.68,11.68,0,0,0,1.08.92,12,12,0,0,0,2.41,1.36,16.77,16.77,0,0,1-2.32-1.51,10.73,10.73,0,0,1-2-2,12.46,12.46,0,0,0-2-2c-.18-.14-.36-.26-.55-.38l4.32,1a17,17,0,0,0,3.35-.21l0,0,.06,0a40.23,40.23,0,0,0,5.68-1.49,5.07,5.07,0,0,1,1.33.32,7.13,7.13,0,0,1,1,.54c.33.21.66.43,1,.66l.48.34.47.37c.31.25.63.5.95.73a6.28,6.28,0,0,0,1,.6,2.25,2.25,0,0,0,1.14.18A2.23,2.23,0,0,1,106.42,87.12Z"/><path class="cls-1" d="M38.74,72.82a11.09,11.09,0,0,0-6,.59c-1,.43-2,1.33-3,1.55-2.17.46-.59-1.44-1.83-1.76-.76-.19-2.48,1.49-3,1.92a13.25,13.25,0,0,1-3.43,2.13c-2.33.85-5.08.43-3.74-2.85.48-1.17,1.57-2.31-.2-2.62-1.21-.21-2.65,1-3.86,1.09s-2.82-.16-3.37-1.64c-.2-.55-.06-1.18-.34-1.75s-1.14-1-1.66-1.4c-1.26-.91-5.68-4.49-2.3-5.62,2.48-.83,4.67,3.93,7,2.56,1-.61.71-2.38,1.4-2.82.88-.57,2.39,1.12,3,1.67.83.79,1.65,1.78,2.8,1.8,1.59,0,1.33-.9,1.72-2.21,1.21-4.14,5.23,2.28,6.63,3.52a8.53,8.53,0,0,0,2.73,1.75c1.06.34,1.58-.19,2.59-.15,1.81.08,3.7,1.87,5.37,2.55a24.07,24.07,0,0,0,5.26,1.75c.59.09.24,1.64-.35,1.49C42.43,73.93,40.49,73,38.74,72.82Z"/><path class="cls-2" d="M39.23,71.89c-1.69-.19-3.31-.42-4.95-.76l-4.83-1.07-.32-.29a22,22,0,0,1-1.66-1.92,7.09,7.09,0,0,0-.92-.9c-.32-.27-.65-.52-1-.78a12.29,12.29,0,0,1-.95-.81,3.36,3.36,0,0,1-.76-1,2.19,2.19,0,0,0,.3.59,4.91,4.91,0,0,0,.39.51,10.68,10.68,0,0,0,.92.87c.32.28.65.54,1,.81a7.31,7.31,0,0,1,.88.88A16.31,16.31,0,0,0,29,69.91l.08.07-4.65-1c-1.72-.38-3.45-.74-5.2-1l.17,0a4.14,4.14,0,0,1-1.3-.59,6.78,6.78,0,0,1-1.13-1,8.19,8.19,0,0,1-.93-1.18,5.72,5.72,0,0,1-.67-1.41,4.2,4.2,0,0,0,.54,1.51,5.73,5.73,0,0,0,.93,1.25,5.49,5.49,0,0,0,1.18.93,3.23,3.23,0,0,0,1.17.42,24.65,24.65,0,0,0-4.7-.23c.72,0,1.44.08,2.15.17a2,2,0,0,0-.54.27,8.41,8.41,0,0,0-1.13.94,6.26,6.26,0,0,1-1.12.89,2.5,2.5,0,0,1-.64.25,2.28,2.28,0,0,1-.69,0,1.66,1.66,0,0,0,.7.1,1.94,1.94,0,0,0,.7-.2,5,5,0,0,0,1.18-.87,13.9,13.9,0,0,1,1.08-1,2.47,2.47,0,0,1,.61-.35l.11,0a68.11,68.11,0,0,1,7.45,1.47c1.08.26,2.15.54,3.22.82a4.76,4.76,0,0,0-1.12.18,5.92,5.92,0,0,0-2.29,1.25,24.5,24.5,0,0,1-2,1.68c-.7.53-1.41,1-2.12,1.53.75-.42,1.49-.87,2.21-1.37a20.11,20.11,0,0,0,2.05-1.66,5.64,5.64,0,0,1,1-.74,6.33,6.33,0,0,1,1.16-.52,6.45,6.45,0,0,1,1.22-.25H28c2.07.54,4.13,1.06,6.24,1.42.67.12,1.35.22,2,.31h-.1a3.16,3.16,0,0,1-1,0,18,18,0,0,0-2-.28,1.7,1.7,0,0,0-1,.28,3.34,3.34,0,0,0-.77.73,8.57,8.57,0,0,1-.68.79,1.9,1.9,0,0,1-.39.31,1.66,1.66,0,0,1-.46.19,1.61,1.61,0,0,0,.91-.41,7.37,7.37,0,0,0,.73-.75,3.58,3.58,0,0,1,.75-.67,1.63,1.63,0,0,1,.9-.24c.65,0,1.29.18,2,.23a3.3,3.3,0,0,0,1,0,1.58,1.58,0,0,0,.31-.09c.91.11,1.83.21,2.72.29,1.6.37,3.23.87,4.85,1.3.31.09.44,0,.74.14a2.7,2.7,0,0,1,.07-.41c-.31-.08-.41-.08-.72-.16C42.49,72.78,40.9,72.28,39.23,71.89Z"/><path class="cls-3" d="M34.56,85.7c-1,.69-5.33,5.64-6,3.32-.4-1.31,1.49-2.21-.37-2.73-.89-.24-3.5,3.34-4.12,4-1.9,2.18-2.77,2.74-4.59,1.87-1.15-.56,1.23-4.78-.26-4.61-2.54.28-3.87,3.69-6,4.89-3.35,1.92-6.51.7-9.93-.34C2.09,91.78.16,91,0,89.37s1.44-1.93,2.63-2.3c.74-.23,3.41-.53,2.93-2-.38-1.15-2.48-.78-.45-2,2.19-1.3,4.9.79,6.81-1.28.49-.53.1-.92.9-1.24.65-.27,1.1.2,1.7.43a16.33,16.33,0,0,0,4,1.06c1.33.16,2.22.24,2.37-1.47.11-1.23-.49-2.45,1.2-1.89,1.06.34,1.93,1.41,3.05,1.77,1.71.54,1.36-.1,2.36-1.17,1.7-1.85,4.56,2.06,6.46,2.41,5.9,1.11,10.69-2.66,12.14-3,.63-.15,1.23,1.38,1,1.62C43.69,83.69,38.43,83.05,34.56,85.7Z"/><path class="cls-2" d="M44.36,80.64c-3.52,1.39-7,2.79-10.76,3h0a6.55,6.55,0,0,1-1.77-.85,10,10,0,0,1-1.55-1.3,7.39,7.39,0,0,1-.66-.8,5.5,5.5,0,0,1-.55-.91,5.6,5.6,0,0,0,1.1,1.84A8.07,8.07,0,0,0,31.7,83a6.57,6.57,0,0,0,1.35.68h-.36c-1.39.12-2.78.28-4.17.46a2,2,0,0,0-.41-.66,2.55,2.55,0,0,0-.84-.55,10.43,10.43,0,0,0-1.85-.52c-.3-.07-.61-.16-.91-.26a4.78,4.78,0,0,1-.87-.38,4.37,4.37,0,0,1-1.38-1.42,5.75,5.75,0,0,0,.55.89,3.28,3.28,0,0,0,.76.68,4.52,4.52,0,0,0,.88.44c.31.11.62.2.93.28a12.69,12.69,0,0,1,1.84.46,2.5,2.5,0,0,1,.82.47,1.65,1.65,0,0,1,.33.37,1.28,1.28,0,0,1,.11.2c-2.61.33-5.21.73-7.81,1.12l-.54.08a1.54,1.54,0,0,0-.49-.39,3.29,3.29,0,0,0-.79-.3c-.26-.08-.53-.14-.8-.21l-.39-.11-.19-.07-.19-.08a8.09,8.09,0,0,1-1.45-.83,7.34,7.34,0,0,1-1.23-1.2,5.49,5.49,0,0,0,1.14,1.35,6,6,0,0,0,1.47.89l.19.08.21.08.4.11.81.16a5.48,5.48,0,0,1,.79.23,1.75,1.75,0,0,1,.47.29c-3.8.58-7.6,1.21-11.36,2l5.35-.72-.23.22c-.17.18-.33.38-.49.57a9,9,0,0,1-3.3,2.72,5.56,5.56,0,0,1-1.31.42,5.72,5.72,0,0,1-1.37.11c-.46,0-.92-.06-1.38-.09a12.91,12.91,0,0,0-1.39,0c.93,0,1.83.22,2.77.28a6,6,0,0,0,1.4-.07,5.52,5.52,0,0,0,1.36-.43,6.5,6.5,0,0,0,1.24-.73,10.14,10.14,0,0,0,1.11-1,8.27,8.27,0,0,0,.95-1.16,7.32,7.32,0,0,1,.69-.87l6.6-.9,3.88-.48-.08.09c-.18.23-.36.48-.52.73-.32.51-.61,1-.9,1.57q-.23.41-.45.78c-.15.26-.32.5-.49.74a3.93,3.93,0,0,1-.59.63,1.65,1.65,0,0,1-.74.36,1.47,1.47,0,0,0,.79-.27,2.85,2.85,0,0,0,.65-.6,10.13,10.13,0,0,0,1-1.51l.86-1.6c.15-.26.3-.52.47-.76l.12-.17,8-1c.51,0,1,0,1.54-.1a4,4,0,0,0-.69.41,6.73,6.73,0,0,0-1.1,1.1c-.33.41-.63.84-.94,1.25s-.63.83-1,1.22A8.1,8.1,0,0,0,31.67,87c.34-.39.65-.82,1-1.21a7.91,7.91,0,0,1,1-1.11,5,5,0,0,1,.85-.59A39.94,39.94,0,0,0,44.48,81c.93-.41,1.73-.69,2.64-1.15,0-.1-.16-.41-.19-.51C46,79.78,45.29,80.26,44.36,80.64Z"/><path class="cls-4" d="M39.61,67.79c-2.26-2-4.6-1.39-7.2-2-3.62-.79-1.1-3.17-2.31-5.7-1.57-3.26-4.69,1.93-6.28-.34-1-1.35.45-2.11-.91-3.29-1.08-1-2.09-1.25-3.28-.52s-2,2.15-3.38,2.46c-2.05.45-1.27-1.22-1.08-2.55.44-3.14-5.59-3-7.6-3.68-2.75-1-4.8-4.14-1.31-5.78,1.42-.67,3.82.34,5-.6,1.53-1.25-1.67-3.55,0-4,1.39-.35,3,2.28,3.64,3.26.75,1.15,1.85,3,3.25,3,.64-1.15-.17-2.71.9-3.6s2,.61,2.68,1.68C23.44,49,26,53,28.36,53.84c1.7.62,1.63-1.2,2.49-2.28,1-1.28,2.11-.51,2.91.54,2.35,3.07,2.65,7.77,4.75,11.14,1.81,2.89,1.37-.87,2.74-1.27s1.65,3.41,2,4.31a37.23,37.23,0,0,0,2.26,5.25c.78,1.33,2.45,2.15,3.18,3.6.06.12-1,.11-1.43,0S41.17,69.19,39.61,67.79Z"/><path class="cls-2" d="M20.81,47.65a7.52,7.52,0,0,1,.53,1.15c.15.4.29.8.43,1.21.07.2.15.41.23.61s.16.4.24.6a11.63,11.63,0,0,0,1.2,2.26,5.15,5.15,0,0,0,.84.9c-.86-.31-1.72-.61-2.56-.94-2-.71-3.9-1.84-5.88-2.7a2,2,0,0,1-.3-.35,6.77,6.77,0,0,1-.5-.87c-.29-.62-.52-1.28-.77-1.93a10.1,10.1,0,0,0-.93-1.86,10.37,10.37,0,0,0-1.26-1.59,17.75,17.75,0,0,1,1.13,1.69,12,12,0,0,1,.87,1.85,16.29,16.29,0,0,0,.82,1.92,4.66,4.66,0,0,0,.57.87l.18.19a11.35,11.35,0,0,0-5.45-1.12A12.06,12.06,0,0,1,16,51.15c1.3.63,2.58,1.33,3.89,2a1.27,1.27,0,0,0-.57.12,2,2,0,0,0-.54.42,4.46,4.46,0,0,0-.41.56c-.25.39-.46.79-.72,1.16a2.9,2.9,0,0,1-.43.49,1.43,1.43,0,0,1-.56.29,1.16,1.16,0,0,0,.61-.2,2.42,2.42,0,0,0,.5-.46,12,12,0,0,0,.76-1.15,4.26,4.26,0,0,1,.39-.53,2.06,2.06,0,0,1,.47-.42,1.29,1.29,0,0,1,.58-.16h.17c.48.22,1,.44,1.45.63,2.38,1,4.86,1.76,7.17,2.88a4.41,4.41,0,0,0-1.27.33,7.4,7.4,0,0,0-1.12.77,5.72,5.72,0,0,1-.56.35,1.35,1.35,0,0,1-.62.18,1.24,1.24,0,0,0,.66-.07,3.41,3.41,0,0,0,.6-.31l.56-.37a3.64,3.64,0,0,1,.56-.34,5.26,5.26,0,0,1,1.23-.36l.24,0a18.16,18.16,0,0,1,3.58,2.3c2.86,3.09,5.87,6.3,8.86,9.35,2.21,2.32,4.2,4.31,6.38,6.67.15,0,.42.06.56,0-1.83-2-3.61-3.87-5.44-5.8L42.92,69c-.06-.5-.09-1-.14-1.52A7.38,7.38,0,0,0,42.41,66a9.5,9.5,0,0,0-.64-1.37c.18.48.35,1,.49,1.43.07.24.13.48.19.73s.1.49.13.73.05.5.08.76.06.51.1.76c0,.09,0,.17.05.26l-1-1.1c-1.81-1.89-3.56-3.77-5.32-5.69a9.63,9.63,0,0,1-.43-1,16,16,0,0,1-.71-2.94c0-.25-.07-.5-.12-.75s-.11-.51-.18-.75a11.73,11.73,0,0,0-.48-1.45,15.1,15.1,0,0,0-1.4-2.64,21.49,21.49,0,0,1,1.25,2.71,13.15,13.15,0,0,1,.73,2.92,15.06,15.06,0,0,0,.76,3c.09.22.18.44.28.66C35.1,61,34,59.83,33,58.64A18.54,18.54,0,0,0,30,56.74h0a41.87,41.87,0,0,0-5.48-2.26,5.72,5.72,0,0,1-1-1.1A8.24,8.24,0,0,1,23,52.28c-.19-.38-.36-.77-.52-1.16-.09-.2-.18-.4-.25-.59l-.23-.6c-.15-.4-.29-.81-.46-1.21a7.3,7.3,0,0,0-.6-1.14,2.55,2.55,0,0,0-.87-.86A2.65,2.65,0,0,1,20.81,47.65Z"/><path class="cls-5" d="M10.13,12.75c3.58,2.89,4.26,3.31,4,3.74s-.63-.34-4.21-3.23-7.24-4-7.1-4.47C3.06,7.84,6.55,9.86,10.13,12.75Z"/><path class="cls-6" d="M12.13,10.7c2.43,4.9,3,5.73,2.4,5.87s-.52-.73-2.95-5.63S5.63,2.52,6,2.24C6.88,1.66,9.69,5.79,12.13,10.7Z"/><path class="cls-5" d="M18.35,25.22c5,3.44,6,3.93,5.54,4.5s-.9-.4-5.93-3.84S7.64,21.27,7.88,20.67C8.35,19.44,13.32,21.78,18.35,25.22Z"/><path class="cls-6" d="M22.13,22.49c2.28,5.86,2.82,6.84,2.07,7.07s-.53-.87-2.81-6.73-6.14-9.92-5.57-10.3C17,11.75,19.86,16.63,22.13,22.49Z"/><path class="cls-5" d="M30.63,40.05c4,3.64,4.83,4.18,4.28,4.66s-.76-.45-4.79-4.09-8.74-5.2-8.39-5.73C22.42,33.8,26.61,36.41,30.63,40.05Z"/><path class="cls-7" d="M33,38.91c1.65,4.27,2.09,5,1.33,5.23s-.43-.61-2.09-4.88-5-6.94-4.44-7.31C29,31.21,31.38,34.65,33,38.91Z"/><path class="cls-8" d="M5.06,6.33a36.5,36.5,0,0,1,7.12,6.77c2.15,2.5,4.19,5.1,6.2,7.73,4,5.27,7.89,10.65,11.79,16S38,47.54,42,52.71c2,2.57,4.12,5.11,6.32,7.49,1.1,1.18,2.23,2.33,3.41,3.37a14.14,14.14,0,0,0,3.72,2.52L55,67.67a15.66,15.66,0,0,1-4.15-2.84c-1.23-1.11-2.38-2.31-3.49-3.53-2.22-2.45-4.3-5-6.32-7.66-4-5.24-7.91-10.65-11.75-16S21.66,26.76,17.7,21.46c-2-2.64-4-5.25-6.09-7.76A36,36,0,0,0,4.73,7Z"/><path class="cls-7" d="M20.32,23.86c3.19,3.86,3.86,4.44,3.24,4.94s-.65-.48-3.83-4.34-7.41-5.54-7-6.1C13.62,17.22,17.14,20,20.32,23.86Z"/><path class="cls-9" d="M19.12,29.41c4.27.78,5,1.06,5,.3s-.66-.3-4.92-1.08-7.62-3.49-7.77-2.86C11.13,27,14.86,28.63,19.12,29.41Z"/><path class="cls-9" d="M24.15,24.35c.55,4.78.78,5.61.09,5.61s-.25-.75-.79-5.53-2.86-8.61-2.29-8.76C22.32,15.37,23.61,19.57,24.15,24.35Z"/><path class="cls-7" d="M22.9,26.39c1.54,3.11,1.93,3.6,1.35,3.87s-.38-.41-1.93-3.52-3.59-6-3.14-6.35C20.09,19.7,21.36,23.29,22.9,26.39Z"/><path class="cls-7" d="M46.56,57.5c3.58,4.35,4.34,5,3.65,5.57s-.73-.55-4.31-4.89S37.55,51.94,38,51.31C39,50,43,53.16,46.56,57.5Z"/><path class="cls-5" d="M44.34,59c5.67,3.87,6.75,4.42,6.23,5.07s-1-.45-6.68-4.33S32.28,54.58,32.54,53.9C33.08,52.52,38.67,55.16,44.34,59Z"/><path class="cls-9" d="M45.21,63.75c4.8.88,5.63,1.2,5.65.34s-.74-.34-5.55-1.22-8.57-3.93-8.75-3.22C36.21,61.08,40.4,62.87,45.21,63.75Z"/><path class="cls-6" d="M48.69,55.8c2.93,6.42,3.6,7.48,2.78,7.79s-.66-.93-3.59-7.34S40.34,45.57,41,45.09C42.21,44.12,45.76,49.39,48.69,55.8Z"/><path class="cls-9" d="M50.87,58.05c.62,5.38.87,6.32.1,6.31s-.28-.84-.89-6.22-3.22-9.7-2.58-9.87C48.8,47.93,50.26,52.67,50.87,58.05Z"/><path class="cls-7" d="M49.09,59.66c2.09,3.26,2.57,3.75,2,4.15s-.47-.42-2.56-3.67-4.72-6.23-4.26-6.67C45.16,52.56,47,56.41,49.09,59.66Z"/><path class="cls-7" d="M10.79,11.42c2.84,3.42,3.43,3.95,3,4.3s-.56-.45-3.4-3.87S4,6.67,4.3,6.26C4.91,5.41,8,8,10.79,11.42Z"/><path class="cls-9" d="M10.36,15.87c3.49,1,4.1,1.33,4.06.71s-.55-.31-4-1.33-6.38-3.54-6.46-3C3.77,13.21,6.88,14.84,10.36,15.87Z"/><path class="cls-9" d="M14,12.19c.8,3.92,1,4.61.49,4.55s-.26-.63-1.05-4.55S10.51,5,11,4.88C11.86,4.74,13.21,8.27,14,12.19Z"/><path class="cls-7" d="M13,13.6c1.71,2.51,2.09,2.91,1.67,3.14s-.36-.34-2.07-2.85S8.77,9,9.07,8.75C9.68,8.17,11.25,11.09,13,13.6Z"/><path class="cls-9" d="M30.5,44.12c3.9,1.34,4.54,1.7,4.74,1s-.56-.38-4.47-1.72S24.3,39.11,24,39.66C23.4,40.78,26.6,42.78,30.5,44.12Z"/><path class="cls-6" d="M34.54,36.81c1.18,7,1.54,8.25.76,8.34s-.37-1.08-1.55-8.12S29.5,24.61,30.13,24.31C31.41,23.69,33.36,29.77,34.54,36.81Z"/><path class="cls-9" d="M36.8,39.05c-.88,5.09-.91,6-1.56,5.85s0-.82.87-5.91-.2-9.56.39-9.59C37.68,29.32,37.68,34,36.8,39.05Z"/><path class="cls-8" d="M49.71,64c-.31-.11-.87-.27-1.62-.5C42.52,61.83,25.58,56.84,18,44.41l.57-.42C26,56.17,42.75,61.11,48.25,62.73c.77.22,1.34.39,1.66.51Z"/><path class="cls-5" d="M17,41.21c1.05,2.76,1.18,3.26,1.46,3.12s-.1-.46-1.15-3.22-1.13-5.34-1.4-5.31C15.38,35.87,16,38.45,17,41.21Z"/><path class="cls-6" d="M15.63,42.29c2.3,2.24,2.67,2.7,2.83,2.34s-.32-.44-2.63-2.68-3.69-5-3.91-4.79C11.49,37.64,13.32,40,15.63,42.29Z"/><path class="cls-7" d="M16.21,41.49c1.44,2.33,1.64,2.78,1.9,2.52s-.16-.43-1.61-2.76-1.89-4.91-2.15-4.75C13.8,36.8,14.76,39.15,16.21,41.49Z"/><path class="cls-9" d="M18.68,41.76c.05,2.46.12,2.91-.2,2.8s-.09-.41-.15-2.87-1-4.71-.72-4.7C18.18,37,18.62,39.3,18.68,41.76Z"/><path class="cls-9" d="M16.16,43.74c2,1,2.35,1.27,2.39.89s-.3-.25-2.31-1.27-3.49-2.88-3.59-2.58C12.45,41.36,14.16,42.71,16.16,43.74Z"/><path class="cls-7" d="M17.08,43.2c1.11,1.46,1.27,1.76,1.45,1.51s-.13-.28-1.24-1.74S15.2,39.84,15,40C14.61,40.33,16,41.75,17.08,43.2Z"/><path class="cls-5" d="M32,54.81c2.18,3.23,2.5,3.88,2.82,3.45s-.27-.6-2.45-3.83-3.05-7-3.39-6.7C28.28,48.24,29.82,51.58,32,54.81Z"/><path class="cls-7" d="M31.23,56.66c2.64,1.4,3.06,1.76,3.25,1.18s-.37-.36-3-1.76S27.23,52,27,52.42C26.49,53.35,28.59,55.26,31.23,56.66Z"/><path class="cls-9" d="M34.56,54.81c.75,3.08,1,3.59.52,3.72s-.22-.44-1-3.53-2.55-5.16-2.2-5.38C32.64,49.19,33.82,51.73,34.56,54.81Z"/><path class="cls-6" d="M29.87,57.78c4.4,1.1,5.15,1.41,5.22.8s-.67-.31-5.06-1.41-7.7-3.63-7.9-3.15C21.71,55,25.48,56.68,29.87,57.78Z"/><path class="cls-9" d="M31.22,59.6c3.22-.55,3.8-.55,3.72-1.07s-.52,0-3.74.53-6-.39-6,.06C25.08,60.05,28,60.16,31.22,59.6Z"/><path class="cls-5" d="M22.41,48.34c1.46,2.72,1.66,3.26,1.94,3s-.16-.49-1.62-3.22-1.84-5.7-2.14-5.54C20,42.88,21,45.62,22.41,48.34Z"/><path class="cls-7" d="M21.66,49.71c1.95,1.34,2.26,1.66,2.45,1.23s-.26-.32-2.22-1.66-3-3.61-3.22-3.28C18.21,46.68,19.7,48.37,21.66,49.71Z"/><path class="cls-9" d="M24.41,48.59c.35,2.46.47,2.88.12,2.95s-.14-.37-.49-2.84-1.59-4.26-1.29-4.4C23.35,44,24.07,46.12,24.41,48.59Z"/><path class="cls-6" d="M20.51,50.45c3.35,1.28,3.91,1.59,4,1.12S24,51.26,20.68,50s-5.74-3.57-5.94-3.22C14.34,47.5,17.16,49.17,20.51,50.45Z"/><path class="cls-9" d="M21.42,52c2.57-.12,3-.06,3-.47s-.41-.08-3,0-4.67-.88-4.73-.53C16.59,51.75,18.86,52.12,21.42,52Z"/><path class="cls-8" d="M34.57,43.79c0-.32-.07-.88-.12-1.64-.35-5.61-1.42-22.67-9.6-31.76l-.41.49c8,8.91,9.07,25.78,9.42,31.32,0,.78.08,1.35.12,1.68Z"/><path class="cls-5" d="M22.59,9c1.91,1.41,2.28,1.61,2.13,1.85s-.34-.16-2.25-1.56-3.86-1.85-3.79-2.11C18.82,6.65,20.68,7.58,22.59,9Z"/><path class="cls-6" d="M23.63,7.8c1.33,2.54,1.61,3,1.31,3.07s-.28-.38-1.6-2.92-3.21-4.28-3-4.45C20.78,3.15,22.3,5.26,23.63,7.8Z"/><path class="cls-7" d="M22.93,8.25c1.53,1.72,1.84,2,1.6,2.19s-.3-.22-1.83-1.94S19.3,6,19.46,5.74C19.77,5.26,21.4,6.52,22.93,8.25Z"/><path class="cls-9" d="M22.74,10.67c1.85.4,2.18.54,2.15.21s-.3-.15-2.15-.55S19.35,8.7,19.31,9C19.24,9.52,20.89,10.26,22.74,10.67Z"/><path class="cls-9" d="M24.63,8.52c.46,2.08.59,2.45.3,2.44s-.14-.33-.59-2.41S22.72,4.77,23,4.71C23.44,4.6,24.18,6.44,24.63,8.52Z"/><path class="cls-7" d="M24.09,9.33c.92,1.28,1.12,1.48.9,1.62s-.19-.16-1.11-1.45S21.84,7,22,6.88C22.31,6.54,23.17,8.05,24.09,9.33Z"/><path class="cls-5" d="M30.47,25.39c2.09,2.57,2.53,3,2.16,3.22s-.41-.34-2.51-2.91-4.77-3.93-4.52-4.23C26.11,20.87,28.38,22.82,30.47,25.39Z"/><path class="cls-7" d="M32,24.91c.63,2.74.83,3.2.36,3.3s-.21-.41-.85-3.16-2.42-4.67-2-4.84C30.25,19.86,31.36,22.16,32,24.91Z"/><path class="cls-9" d="M30.06,27.86c2.21,1.16,2.56,1.44,2.73,1s-.3-.28-2.51-1.43-3.49-3.19-3.71-2.88C26.12,25.21,27.85,26.71,30.06,27.86Z"/><path class="cls-6" d="M33.06,23.75c.12,4.4.24,5.17-.23,5.16s-.13-.7-.26-5.09-1.51-8-1.12-8.08C32.26,15.48,32.93,19.36,33.06,23.75Z"/><path class="cls-9" d="M34.22,25.32c-.94,3-1,3.58-1.4,3.43s0-.5,1-3.53.66-5.85,1-5.82C35.53,19.45,35.15,22.29,34.22,25.32Z"/><path class="cls-5" d="M27.12,15.21C28.94,17,29.31,17.27,29,17.5s-.35-.22-2.17-2-4-2.59-3.84-2.85C23.37,12.12,25.29,13.42,27.12,15.21Z"/><path class="cls-7" d="M28.27,14.68c.7,2.08.89,2.41.53,2.54s-.19-.3-.89-2.38-2.25-3.4-2-3.57C26.53,10.92,27.57,12.6,28.27,14.68Z"/><path class="cls-9" d="M27,17.18c1.81.68,2.11.86,2.21.53s-.26-.19-2.06-.87S24.16,14.7,24,15C23.71,15.5,25.18,16.5,27,17.18Z"/><path class="cls-6" d="M29,13.67c.43,3.42.58,4,.21,4s-.16-.52-.58-3.94-1.78-6-1.48-6.19C27.77,7.3,28.58,10.26,29,13.67Z"/><path class="cls-9" d="M30,14.77c-.5,2.46-.53,2.91-.83,2.83s0-.41.51-2.86.08-4.63.35-4.64C30.62,10.07,30.53,12.32,30,14.77Z"/><path class="cls-7" d="M33.53,42.16c1.86,2.4,2.28,2.74,1.78,3.18s-.41-.27-2.27-2.67-4.18-4.46-3.81-4.92C30,36.81,31.66,39.76,33.53,42.16Z"/><path class="cls-10" d="M89.6,24.79c1.07-.27,1.87-.24,2.67-1.16a7.18,7.18,0,0,0,1.65-3.78,3.76,3.76,0,0,0-3.84-4.34c-2,.08-4.12,1.27-4.34,3.39-.16,1.58.38,3.16-.09,4.76-.19.65-1.84,2.39-1,2.93.39.25,1.66-.73,2.19-.95A18.41,18.41,0,0,1,89.6,24.79Z"/><path class="cls-10" d="M81.11,34.87c.26-1.1.23-1.92,1.12-2.75a6.86,6.86,0,0,1,3.67-1.71,3.73,3.73,0,0,1,4.21,4c-.08,2-1.23,4.25-3.28,4.48-1.53.17-3.07-.39-4.61.1-.64.2-2.32,1.89-2.85,1-.25-.4.71-1.71.92-2.25A19.38,19.38,0,0,0,81.11,34.87Z"/><g class="cls-11"><path class="cls-12" d="M79.91,39.48a2.87,2.87,0,0,0,.67-.25,4.56,4.56,0,0,0,.61-.4,10.54,10.54,0,0,0,1.12-1c.35-.35.69-.73,1-1.09l.1-.11a2,2,0,0,0,.35.51,2.84,2.84,0,0,0,.54.39,3.22,3.22,0,0,0,1.2.37,3.46,3.46,0,0,0,1.24-.09,3.32,3.32,0,0,0,.59-.24,1.87,1.87,0,0,0,.49-.44,1.74,1.74,0,0,1-.52.38,2.84,2.84,0,0,1-.58.2,3.79,3.79,0,0,1-1.21,0,3.59,3.59,0,0,1-1.18-.33,2.28,2.28,0,0,1-.53-.34,2,2,0,0,1-.39-.47c.31-.32.62-.63,1-.92l.39-.35a2,2,0,0,0,.39.33,2.23,2.23,0,0,0,.48.26,2.38,2.38,0,0,0,1,.15,2.66,2.66,0,0,0,1-.3,3.24,3.24,0,0,0,.47-.28,2.93,2.93,0,0,0,.42-.37,4.62,4.62,0,0,1-.92.56,3,3,0,0,1-1,.25,2.6,2.6,0,0,1-1.91-.6c.24-.2.48-.4.73-.58s.79-.56,1.2-.81l0,0a1.58,1.58,0,0,0,.54.32,1.81,1.81,0,0,0,.69.07,2,2,0,0,0,.68-.19,2.6,2.6,0,0,0,.59-.41,4.09,4.09,0,0,1-.61.34,2.65,2.65,0,0,1-.66.16,1.88,1.88,0,0,1-.67,0,1.86,1.86,0,0,1-.54-.24,11.62,11.62,0,0,1,1.2-.65,8.12,8.12,0,0,1,1.32-.5,8.34,8.34,0,0,0-2.66,1,14,14,0,0,0-1.91,1.3A6.55,6.55,0,0,1,85,33.81a4.67,4.67,0,0,1,.55-1.12,3.33,3.33,0,0,1,.82-.85,2.94,2.94,0,0,1,1-.46,2.43,2.43,0,0,0-1.08.37,2.93,2.93,0,0,0-.87.85,4,4,0,0,0-.54,1.18c-.06.21-.1.43-.14.64s0,.43,0,.65c-.16.13-.33.27-.48.41a10.7,10.7,0,0,0-.9.88,3.5,3.5,0,0,1,0-.65,4.81,4.81,0,0,1,.12-.76A5.74,5.74,0,0,1,84,33.53a6.46,6.46,0,0,1,.79-1.23,4,4,0,0,1,.5-.51,2.43,2.43,0,0,1,.59-.37,2.73,2.73,0,0,0-1.15.8,6,6,0,0,0-1.34,2.7,4.15,4.15,0,0,0-.08.79,2.9,2.9,0,0,0,.07.66l-.16.18-1,1.13c-.26.27-.52.55-.79.8a5.32,5.32,0,0,1-.11-1.64,8.11,8.11,0,0,1,.32-1.63,8.6,8.6,0,0,1,.62-1.5,5.11,5.11,0,0,1,.41-.68,2,2,0,0,1,.54-.55,1,1,0,0,0-.31.22,2.4,2.4,0,0,0-.27.28,6,6,0,0,0-.44.67,7.33,7.33,0,0,0-.65,1.52,7.06,7.06,0,0,0-.31,1.66,6,6,0,0,0,0,.85,3.45,3.45,0,0,0,.17.8,2.91,2.91,0,0,1-.27.24A3.73,3.73,0,0,1,79.91,39.48Z"/><path class="cls-12" d="M87.33,32.31a2.21,2.21,0,0,0-.44.64,2.62,2.62,0,0,0-.19.78A3.07,3.07,0,0,1,87,33a2.22,2.22,0,0,1,.44-.6A2.26,2.26,0,0,1,88,32a2.76,2.76,0,0,1,.65-.26,1.77,1.77,0,0,0-.67.19A2,2,0,0,0,87.33,32.31Z"/></g><g class="cls-11"><path class="cls-12" d="M85.09,25.49a2.41,2.41,0,0,1,.29-.68,4.28,4.28,0,0,1,.4-.61,9.92,9.92,0,0,1,1-1.06c.35-.34.71-.65,1.06-1l.11-.09a1.85,1.85,0,0,1-.41-.47,3,3,0,0,1-.28-.63,4.33,4.33,0,0,1-.2-1.37,4.26,4.26,0,0,1,.2-1.34,3,3,0,0,1,.27-.6,1.62,1.62,0,0,1,.43-.47,1.7,1.7,0,0,0-.38.5,2.48,2.48,0,0,0-.23.61,4.76,4.76,0,0,0-.17,1.31A4.66,4.66,0,0,0,87.32,21a2.85,2.85,0,0,0,.25.63,2,2,0,0,0,.36.5c.32-.29.62-.58.91-.9l.33-.38a3,3,0,0,1-.24-.47,2.81,2.81,0,0,1-.18-.56,3.42,3.42,0,0,1,.34-2.25,5.16,5.16,0,0,1,.29-.46,4.73,4.73,0,0,1,.37-.4,4.13,4.13,0,0,0-.58.91,3.83,3.83,0,0,0-.32,1.06,3.5,3.5,0,0,0,0,1.12,3.68,3.68,0,0,0,.34,1.05c.2-.23.39-.47.57-.71s.57-.78.83-1.18l0,0a2.11,2.11,0,0,1-.22-.64,2.49,2.49,0,0,1,0-.77,2.76,2.76,0,0,1,.24-.7,2.21,2.21,0,0,1,.42-.58,3.46,3.46,0,0,0-.36.62,3.24,3.24,0,0,0-.21.69,2.55,2.55,0,0,0,0,.73,2.23,2.23,0,0,0,.15.63,13,13,0,0,0,.69-1.21,10.84,10.84,0,0,0,.57-1.36A10,10,0,0,1,90.74,19a13.26,13.26,0,0,1-1.33,1.88,4.17,4.17,0,0,0,1.12-.09,3.25,3.25,0,0,0,1-.42,3,3,0,0,0,.82-.77,3.51,3.51,0,0,0,.5-1.05,2.26,2.26,0,0,1-.16.58,2.73,2.73,0,0,1-.27.54,2.57,2.57,0,0,1-.83.81,2.8,2.8,0,0,1-1.07.41A3.77,3.77,0,0,1,90,21a3.64,3.64,0,0,1-.57,0c-.13.15-.26.31-.4.46a11.36,11.36,0,0,1-.86.84,2.17,2.17,0,0,0,.56.13,3.08,3.08,0,0,0,.68,0A4.82,4.82,0,0,0,90.68,22a5,5,0,0,0,1.15-.68,4.34,4.34,0,0,0,.49-.47,2.05,2.05,0,0,0,.37-.58,2.69,2.69,0,0,1-.8,1.13,4.64,4.64,0,0,1-1.16.71,4.06,4.06,0,0,1-1.33.33,3.19,3.19,0,0,1-.69,0,2.36,2.36,0,0,1-.57-.18l-.17.15-1.08.92c-.27.24-.53.48-.78.74a4.2,4.2,0,0,0,1.42.37A5.35,5.35,0,0,0,89,24.3a6.63,6.63,0,0,0,1.37-.44,3.88,3.88,0,0,0,.63-.35A1.65,1.65,0,0,0,91.5,23a1.25,1.25,0,0,1-.21.3l-.28.25a5,5,0,0,1-.63.38,5.49,5.49,0,0,1-1.38.47,4.88,4.88,0,0,1-1.48.07,4.73,4.73,0,0,1-.73-.15,3.22,3.22,0,0,1-.68-.31l-.24.25A4.05,4.05,0,0,0,85.09,25.49Z"/><path class="cls-12" d="M92.07,18.52a1.58,1.58,0,0,1-.6.38,1.5,1.5,0,0,1-.7.08,1.87,1.87,0,0,0,.67-.15,1.84,1.84,0,0,0,.57-.38,2.55,2.55,0,0,0,.43-.55,3.08,3.08,0,0,0,.29-.67,2.46,2.46,0,0,1-.23.71A1.91,1.91,0,0,1,92.07,18.52Z"/></g><path class="cls-13" d="M78.83,41.47c1.74.38,2.89-.76,4,.82.61.88.9,2,1.5,2.88a7.37,7.37,0,0,0,3.31,2.5,9.87,9.87,0,0,0,8.54-1.16c3.46-2.48.44-6.23-1.66-7.37-2.58-1.41-6-2.92-9-.94-1.45,1-1.65,1.68-3.23,2a14.42,14.42,0,0,1-3.49.55A7.32,7.32,0,0,1,78.83,41.47Z"/><path class="cls-13" d="M79.09,41c-.26-5.26.49-4.74.86-5.76a7.94,7.94,0,0,0-1.31-8.06,19.07,19.07,0,0,0-6.5-4.65c-1.22-.56-4.76-1.44-5.77.52-.52,1,.25,2.54.61,3.35a29,29,0,0,0,2.21,4.3,11.13,11.13,0,0,0,5.31,4.37,8,8,0,0,1,2.2.7c1.64,1.15,1.76,5.8,1.79,5.78S79,41.08,79.09,41Z"/><path class="cls-13" d="M64.74,55.67a4.72,4.72,0,0,1-.39-3.4c.12-.72.47-1.4.59-2.11a5.5,5.5,0,0,0-.4-2.82A6.65,6.65,0,0,0,60,43.86c-2.68-.49-3.06,1.8-2.36,4.25.55,1.93,1.46,4.33,3.7,4.83a3.3,3.3,0,0,1,1.88.88c.72.53.47,1.45,1.08,2.12A.89.89,0,0,1,64.74,55.67Z"/><path class="cls-13" d="M64.63,55.6c2.66.77,2.38.26,3,.12a3.31,3.31,0,0,1,3.9,1.79,13.11,13.11,0,0,1,1.16,4.89c0,.89-.17,3.36-1.37,3.82-.63.23-1.26-.45-1.61-.79a12.89,12.89,0,0,1-1.79-2,7.1,7.1,0,0,1-1.24-4.06,6.9,6.9,0,0,0,.06-1.56C66.43,56.61,64,56,64.07,56Z"/><path class="cls-13" d="M99.16,16.13a4.74,4.74,0,0,1,0-3.26A12,12,0,0,0,101.06,8a6.28,6.28,0,0,0-1.94-5.44c-1.25-1.25-3-3.2-4.72-2.33C93,.93,92.94,3.59,92.82,5.08c-.16,2,1.05,3.32,2.05,4.71.83,1.15,1.92,2.18,2.74,3.35s.87,2.34,1.45,3.4Z"/><path class="cls-13" d="M97.7,17.73c1.13-.18,2.08-.95,3.13-1.17a11.36,11.36,0,0,1,5.13-.34,6.61,6.61,0,0,1,4.49,3.92c.81,1.57,1.51,5,.19,6.37-1.09,1.16-3-.69-4.43-1A7.35,7.35,0,0,1,102,22.4c-.84-1.14-1.09-2.78-1.95-3.91s-.65-.35-2.22-.56Z"/><path class="cls-14" d="M102.62,14a31.2,31.2,0,0,0,3.23-1.18,8.62,8.62,0,0,0,3-2.74c.63-.82,1.75-3,1.53-3.66-.28-.87-1.19-.84-2.14-1a14.93,14.93,0,0,0-3.69.73c-2.61.94-3.49,3.3-4,5.61a7.06,7.06,0,0,1-.65,2,4.73,4.73,0,0,0-.54.88c-.17.62.2.33.59.1A15.71,15.71,0,0,1,102.62,14Z"/><path class="cls-13" d="M84.74,26.57c1.69-.17,2.27.14,3.45-.08A14.28,14.28,0,0,0,91,25.3a7.36,7.36,0,0,1,7.86,1.07,19.62,19.62,0,0,1,4.75,6.52c.58,1.25,1.56,4.85-.31,6-1,.58-2.47-.17-3.27-.52a25.53,25.53,0,0,1-4.25-2.12,11.27,11.27,0,0,1-4.43-5.31,15.13,15.13,0,0,0-.76-2.24A1.67,1.67,0,0,0,89,27.59,35.23,35.23,0,0,0,84.57,27,.9.9,0,0,1,84.74,26.57Z"/><path class="cls-15" d="M59.65,57.67a25,25,0,0,1,3.1-1.57,24.85,24.85,0,0,0,2.92-1.46,26.32,26.32,0,0,0,6.55-5.11c3.3-3.91,6.16-7.47,7.72-11.6.49-1.29.88-2.64,1.25-3.94a35.72,35.72,0,0,1,2.1-5.94,24.25,24.25,0,0,1,4-5.85l.93-1.1a13.46,13.46,0,0,1,4.2-3.78c.86-.42,1.74-.83,2.61-1.24,1.7-.79,3.46-1.62,5.15-2.52l.35.74c-1.71.92-3.48,1.75-5.19,2.55-.87.41-1.74.81-2.6,1.23a12.85,12.85,0,0,0-3.91,3.56c-.32.38-.63.75-1,1.11A23.35,23.35,0,0,0,84,28.4a35.72,35.72,0,0,0-2,5.79c-.37,1.32-.77,2.69-1.27,4-1.61,4.26-4.52,7.89-7.87,11.86a27.07,27.07,0,0,1-6.77,5.3,26.44,26.44,0,0,1-3,1.51,24.55,24.55,0,0,0-3,1.51Z"/><path class="cls-13" d="M84.57,26.09c-.3-1.34-.75-3.25-.1-4.48,1.11-2.11,2.2-4,2.37-6.32a8.22,8.22,0,0,0-2.36-7.06c-1.54-1.61-3.72-4.14-5.88-3-1.78.93-1.87,4.38-2,6.3-.22,2.54,1.27,4.31,2.51,6.11,1,1.48,2.38,2.81,3.39,4.32.89,1.33.78,3.41,1.5,4.79Z"/><path class="cls-13" d="M72,50.61c1.42-.14,1.9.12,2.9-.07a12.81,12.81,0,0,0,2.33-1,6.17,6.17,0,0,1,6.61.89,16.38,16.38,0,0,1,4,5.49c.49,1,1.32,4.08-.26,5-.82.49-2.07-.14-2.75-.43a21.66,21.66,0,0,1-3.57-1.79,9.44,9.44,0,0,1-3.73-4.46,12.72,12.72,0,0,0-.64-1.89,1.4,1.4,0,0,0-1.27-.9,30.16,30.16,0,0,0-3.76-.53A.73.73,0,0,1,72,50.61Z"/><path class="cls-13" d="M71.86,50.21c-.25-1.13-.63-2.73-.08-3.77.93-1.78,1.85-3.35,2-5.32a6.91,6.91,0,0,0-2-5.94c-1.29-1.35-3.13-3.48-5-2.52-1.49.78-1.56,3.69-1.7,5.3-.19,2.13,1.07,3.63,2.11,5.13.87,1.25,2,2.37,2.85,3.64s.66,2.87,1.26,4Z"/><g class="cls-16"><path class="cls-12" d="M87.37,46.37A8.72,8.72,0,0,1,85.94,45a8,8,0,0,1-1.12-1.71,5.56,5.56,0,0,1-.55-2c.46.15.92.31,1.38.49s1.21.5,1.81.75l.23.09a4,4,0,0,0,.21.89,5.71,5.71,0,0,0,.47.88,6.64,6.64,0,0,0,1.3,1.39,6.19,6.19,0,0,0,1.58.93,3.46,3.46,0,0,0,1.73.26,3.53,3.53,0,0,1-.86-.08,4.87,4.87,0,0,1-.84-.28,6.84,6.84,0,0,1-1.54-.94,6.67,6.67,0,0,1-1.3-1.35,5,5,0,0,1-.49-.84,3.55,3.55,0,0,1-.25-.86,16.09,16.09,0,0,0,1.61.55,18.38,18.38,0,0,0,3.81.63,12.59,12.59,0,0,0,3.82-.3,12.18,12.18,0,0,1-1.9.16,17,17,0,0,1-1.89-.06,2.91,2.91,0,0,1,1.49-1,3.64,3.64,0,0,1,.92-.17,4.25,4.25,0,0,1,.94.06,3.34,3.34,0,0,0-.94-.14,3,3,0,0,0-.94.15,3.14,3.14,0,0,0-.87.45,2.9,2.9,0,0,0-.61.69h0A19.93,19.93,0,0,1,90,43a4.27,4.27,0,0,1,1-1.11,4.08,4.08,0,0,1,1.28-.69,4.74,4.74,0,0,1,1.4-.25,5.72,5.72,0,0,1,1.42.15,6.06,6.06,0,0,0-.7-.19,4.37,4.37,0,0,0-.72-.06,4.42,4.42,0,0,0-1.44.22,4,4,0,0,0-1.29.73,4.85,4.85,0,0,0-.55.56A3.82,3.82,0,0,0,90,43l-.62-.16a14.66,14.66,0,0,1-1.66-.55,2.9,2.9,0,0,1,.34-.83,3.87,3.87,0,0,1,.57-.7,5.78,5.78,0,0,1,1.41-1,5.67,5.67,0,0,1,1.58-.58,3.81,3.81,0,0,1,.82-.09,2.3,2.3,0,0,1,.82.16,2,2,0,0,0-.82-.22,3.94,3.94,0,0,0-.84,0,5.69,5.69,0,0,0-3,1.62,3.65,3.65,0,0,0-.55.74,2.43,2.43,0,0,0-.3.87c-.66-.26-1.32-.53-2-.77-.46-.16-.92-.31-1.39-.43a4.4,4.4,0,0,1,.85-1.32,4.77,4.77,0,0,1,1.29-1,6.47,6.47,0,0,1,1.46-.56,6.71,6.71,0,0,1,.76-.13,2.48,2.48,0,0,1,.77,0,1.23,1.23,0,0,0-.38-.08h-.39a6.93,6.93,0,0,0-.78.1,6.31,6.31,0,0,0-1.49.53,4.84,4.84,0,0,0-1.3,1,3.87,3.87,0,0,0-.5.7,4.23,4.23,0,0,0-.3.69L83.84,41a6.3,6.3,0,0,0-1-.12,3.46,3.46,0,0,0-1,.07,5.09,5.09,0,0,1,1.9.18l.45.12a4.82,4.82,0,0,0,.13,1.07,5.55,5.55,0,0,0,.34,1,8,8,0,0,0,1.12,1.76,8.51,8.51,0,0,0,1.47,1.35,5.38,5.38,0,0,0,.83.5,3.38,3.38,0,0,0,.44.18,1.19,1.19,0,0,0,.46.06,2.05,2.05,0,0,1-.88-.3A5.93,5.93,0,0,1,87.37,46.37Z"/><path class="cls-12" d="M90.94,44.73A6.29,6.29,0,0,1,90,43.34a6.82,6.82,0,0,0,.37.77,6.45,6.45,0,0,0,.47.69,4.34,4.34,0,0,0,1.23,1,3.61,3.61,0,0,0,1.45.45,3.14,3.14,0,0,0,.75,0,3.76,3.76,0,0,0,.74-.16,4.34,4.34,0,0,1-1.48.06,4.1,4.1,0,0,1-1.42-.47A4.7,4.7,0,0,1,90.94,44.73Z"/><path class="cls-12" d="M93.75,44.63a2.44,2.44,0,0,0,.84.48,3,3,0,0,0,.93.15,3.23,3.23,0,0,0,.92-.16,4,4,0,0,1-.92.08,3.47,3.47,0,0,1-.9-.16,2.73,2.73,0,0,1-1.49-1.21A2.54,2.54,0,0,0,93.75,44.63Z"/></g><g class="cls-16"><path class="cls-12" d="M79,16.22a9.65,9.65,0,0,0,1.18,1.43,6.83,6.83,0,0,0,1.44,1.09,3.84,3.84,0,0,0,1.67.49c-.14-.48-.31-.95-.48-1.41-.23-.62-.47-1.23-.7-1.85L82,15.74a2.37,2.37,0,0,1-.73-.18,3.68,3.68,0,0,1-.73-.45,6.13,6.13,0,0,1-1.2-1.29,7.4,7.4,0,0,1-.84-1.6,4.56,4.56,0,0,1-.32-1.78,4.43,4.43,0,0,0,.12.89,6.64,6.64,0,0,0,.28.86,7.28,7.28,0,0,0,.85,1.55A6.28,6.28,0,0,0,80.62,15a3.52,3.52,0,0,0,.7.46,2.27,2.27,0,0,0,.71.23c-.2-.54-.39-1.09-.54-1.65a23.67,23.67,0,0,1-.75-3.91,17,17,0,0,1,0-4,16.35,16.35,0,0,0,0,2c0,.65.09,1.3.17,1.94a2.91,2.91,0,0,0,.46-.68,3.94,3.94,0,0,0,.29-.9,4.39,4.39,0,0,0,.07-1,5.21,5.21,0,0,0-.1-1,4.39,4.39,0,0,1,.17,1,5.32,5.32,0,0,1-.06,1,3.51,3.51,0,0,1-.32.91,2.25,2.25,0,0,1-.51.67h0a27.62,27.62,0,0,0,.62,3.24,4,4,0,0,0,.83-1.08A4.92,4.92,0,0,0,82.83,11,6.5,6.5,0,0,0,83,9.5,7.44,7.44,0,0,0,82.74,8,6,6,0,0,1,83,9.5,5.75,5.75,0,0,1,82.94,11a4.44,4.44,0,0,1-.51,1.37,3.54,3.54,0,0,1-.41.58,3,3,0,0,1-.49.45c0,.21.11.42.17.63.15.57.34,1.14.54,1.7a1.75,1.75,0,0,0,.64-.39,3.16,3.16,0,0,0,.53-.62,6.07,6.07,0,0,0,.73-1.49,7.82,7.82,0,0,0,.37-1.66,6.17,6.17,0,0,0,0-.86,2.69,2.69,0,0,0-.18-.84,2.45,2.45,0,0,1,.23.83,4.33,4.33,0,0,1,0,.88,6.86,6.86,0,0,1-.35,1.69,5.79,5.79,0,0,1-.76,1.51,3.62,3.62,0,0,1-.56.61,1.62,1.62,0,0,1-.68.34c.25.68.51,1.35.74,2,.16.47.31.94.43,1.42a3.72,3.72,0,0,0,1-.93,5.4,5.4,0,0,0,.69-1.38,7.9,7.9,0,0,0,.35-1.53,5.29,5.29,0,0,0,.06-.8,3.12,3.12,0,0,0-.06-.8,1.89,1.89,0,0,1,.08.4c0,.13,0,.27,0,.4s0,.54,0,.81a7.58,7.58,0,0,1-.34,1.57,5,5,0,0,1-.73,1.39,3.87,3.87,0,0,1-.53.54,2.79,2.79,0,0,1-.53.34c0,.16.08.32.11.48a8.5,8.5,0,0,1,.16,1,4.68,4.68,0,0,1,0,1,6.79,6.79,0,0,0-.26-1.95c0-.15-.08-.31-.13-.46a3.11,3.11,0,0,1-.86-.09,3.73,3.73,0,0,1-.84-.32,6.21,6.21,0,0,1-1.48-1.09A7.57,7.57,0,0,1,79,16.27a6.07,6.07,0,0,1-.46-.83,3.57,3.57,0,0,1-.16-.46,1.5,1.5,0,0,1-.08-.47,2.79,2.79,0,0,0,.29.9A8.13,8.13,0,0,0,79,16.22Z"/><path class="cls-12" d="M80.11,12.47a5.52,5.52,0,0,0,1.17.88,5.71,5.71,0,0,1-.64-.35,4.26,4.26,0,0,1-.58-.47,4.63,4.63,0,0,1-.91-1.22,4.77,4.77,0,0,1-.45-1.49,5,5,0,0,1,0-.77,6.48,6.48,0,0,1,.08-.77,5.6,5.6,0,0,0,0,1.53,4.83,4.83,0,0,0,.47,1.45A4.75,4.75,0,0,0,80.11,12.47Z"/><path class="cls-12" d="M80,9.55a2.7,2.7,0,0,1-.44-.86,3.39,3.39,0,0,1-.17-.95,3.85,3.85,0,0,1,.06-1,6.15,6.15,0,0,0,0,1,3.75,3.75,0,0,0,.19.93,3.24,3.24,0,0,0,.4.84,2.63,2.63,0,0,0,.65.64A2.08,2.08,0,0,1,80,9.55Z"/></g><g class="cls-16"><path class="cls-12" d="M72.65,40.46a9.19,9.19,0,0,1-.24,1.68,6.11,6.11,0,0,1-.56,1.52,3.18,3.18,0,0,1-1,1.13c-.1-.45-.18-.91-.25-1.37l-.27-1.82,0-.23a1.9,1.9,0,0,0,.43-.46,3.17,3.17,0,0,0,.34-.69,6.23,6.23,0,0,0,.3-1.58A7.19,7.19,0,0,0,71.32,37a4.75,4.75,0,0,0-.52-1.61,4,4,0,0,1,.29.79,5.93,5.93,0,0,1,.16.82,7.61,7.61,0,0,1,0,1.65A6.15,6.15,0,0,1,71,40.18a3.59,3.59,0,0,1-.3.69,2,2,0,0,1-.4.49c-.09-.53-.19-1.06-.31-1.58a24.34,24.34,0,0,0-1.11-3.55A17.15,17.15,0,0,0,67.24,33a15.5,15.5,0,0,1,.84,1.62c.25.54.48,1.1.69,1.67a2.23,2.23,0,0,1-.61-.36,3.13,3.13,0,0,1-.58-.62,4.66,4.66,0,0,1-.45-.75,6.1,6.1,0,0,1-.33-.84,4.41,4.41,0,0,0,.28.87,5.45,5.45,0,0,0,.45.78,3.47,3.47,0,0,0,.6.61,1.92,1.92,0,0,0,.64.32h0a30.07,30.07,0,0,1,.91,2.93,3.28,3.28,0,0,1-1-.52,4.85,4.85,0,0,1-.9-.91,6.57,6.57,0,0,1-.68-1.15,8.28,8.28,0,0,1-.47-1.29,5.06,5.06,0,0,0,.17.67c.07.22.15.44.24.65a5.57,5.57,0,0,0,.68,1.19,4.7,4.7,0,0,0,.93.91,3.64,3.64,0,0,0,.54.3,2.49,2.49,0,0,0,.53.16l.15.58c.13.54.23,1.09.32,1.63a1.19,1.19,0,0,1-.62,0,2.9,2.9,0,0,1-.63-.28,5.43,5.43,0,0,1-1.13-.92,7,7,0,0,1-1-1.2,5.77,5.77,0,0,1-.36-.7,2.86,2.86,0,0,1-.23-.77,2.76,2.76,0,0,0,.19.79,4.79,4.79,0,0,0,.35.72,6.9,6.9,0,0,0,1,1.24,5.28,5.28,0,0,0,1.17.91,2.39,2.39,0,0,0,.65.26,1.3,1.3,0,0,0,.62,0c.1.66.2,1.32.32,2,.08.45.17.9.29,1.35a2.75,2.75,0,0,1-1.1-.33,4.62,4.62,0,0,1-1.06-.83,7.46,7.46,0,0,1-.89-1.11,6.5,6.5,0,0,1-.37-.63,2.73,2.73,0,0,1-.29-.68,2.42,2.42,0,0,0,.1.36l.15.35c.11.22.23.44.36.65a6.7,6.7,0,0,0,.89,1.14,4.06,4.06,0,0,0,1.09.82,2.43,2.43,0,0,0,.6.22,1.87,1.87,0,0,0,.52,0c0,.15.07.37.11.52a14,14,0,0,1,.26,2,14.33,14.33,0,0,0-.19-2c0-.15,0-.32-.08-.47a2.45,2.45,0,0,0,.58-.45,3.7,3.7,0,0,0,.46-.62,6.39,6.39,0,0,0,.59-1.53,9.64,9.64,0,0,0,.22-1.71,8.82,8.82,0,0,0,0-.89c0-.15,0-.29-.07-.44a1.66,1.66,0,0,0-.14-.43,2.9,2.9,0,0,1,.16.87A8.42,8.42,0,0,1,72.65,40.46Z"/><path class="cls-12" d="M70.31,37.85a5,5,0,0,1-.46,1.23,4.18,4.18,0,0,0,.52-1.19,4.33,4.33,0,0,0,.13-1.4,5.27,5.27,0,0,0-.29-1.42,6.62,6.62,0,0,0-.3-.66,6,6,0,0,0-.37-.6,6.5,6.5,0,0,1,.6,1.28,5.11,5.11,0,0,1,.27,1.39A4.77,4.77,0,0,1,70.31,37.85Z"/><path class="cls-12" d="M69.16,35.41a3,3,0,0,0,0-.89,4.51,4.51,0,0,0-.27-.86,5.24,5.24,0,0,0-.45-.76,5.85,5.85,0,0,1,.4.79,4.81,4.81,0,0,1,.26.84,3.19,3.19,0,0,1,.06.87,2.4,2.4,0,0,1-.19.81A2.08,2.08,0,0,0,69.16,35.41Z"/></g><path class="cls-17" d="M85.14,58.44a3.45,3.45,0,0,1-.23-1,4.2,4.2,0,0,1,.06-1l.39.42q.69.75,1.35,1.53c.22.26.43.53.64.8l.31.42a2.47,2.47,0,0,1,.27.44,5.85,5.85,0,0,0-.53-.91l-.61-.84c-.42-.55-.85-1.08-1.3-1.59l-.36-.4a.76.76,0,0,1,.61-.16,1.86,1.86,0,0,1,.71.34,3.71,3.71,0,0,1,.62.57,2.16,2.16,0,0,1,.27.33,2.25,2.25,0,0,1,.24.36A3,3,0,0,0,87.1,57a3.47,3.47,0,0,0-.62-.59,1.83,1.83,0,0,0-.74-.33.86.86,0,0,0-.39,0,.69.69,0,0,0-.22.16c-.64-.71-1.3-1.38-2-2a2.12,2.12,0,0,1,1.11-.5,2,2,0,0,1,1.22.28,4.68,4.68,0,0,1,1.06.83A10.6,10.6,0,0,1,87.44,56a7.47,7.47,0,0,0-.86-1.13A4.4,4.4,0,0,0,85.51,54a2,2,0,0,0-1.27-.27,1.9,1.9,0,0,0-.62.21,2.46,2.46,0,0,0-.48.37l-.51-.47c-.5-.43-1-.85-1.54-1.24a2,2,0,0,1,.69-.87,1.84,1.84,0,0,1,1.12-.28,3.06,3.06,0,0,1,1.14.3,3.6,3.6,0,0,1,.54.31,2.67,2.67,0,0,1,.47.42,2.73,2.73,0,0,0-1-.82,2.93,2.93,0,0,0-1.18-.35,1.75,1.75,0,0,0-1.17.34,1.84,1.84,0,0,0-.44.48,2.77,2.77,0,0,0-.22.46,14.3,14.3,0,0,0-1.66-1A8.52,8.52,0,0,0,78.15,51a3.39,3.39,0,0,1,.8-.88A2.53,2.53,0,0,1,80,49.69a3.6,3.6,0,0,1,1.18,0,8.35,8.35,0,0,1,1.16.32c-.19-.1-.38-.17-.57-.25a5.58,5.58,0,0,0-.58-.18,3.23,3.23,0,0,0-1.2-.06,2.33,2.33,0,0,0-1.13.49,2.85,2.85,0,0,0-.45.47,3.21,3.21,0,0,0-.31.5,4.27,4.27,0,0,0-.54-.13,3,3,0,0,0-1.85.19A3.12,3.12,0,0,1,77.59,51a4,4,0,0,1,.56.17A4.74,4.74,0,0,0,78,52.83a7.9,7.9,0,0,0,.31,1.68A7.49,7.49,0,0,0,79,56.05c.14.24.29.47.44.69a5.17,5.17,0,0,0,.52.62,7.24,7.24,0,0,1-.47-.66,6.1,6.1,0,0,1-.41-.7,7.79,7.79,0,0,1-.62-1.53,8.34,8.34,0,0,1-.34-1.65,8,8,0,0,1,0-.85,5,5,0,0,1,.08-.78,7.92,7.92,0,0,1,1.19.54A14,14,0,0,1,81,52.78l0,0a5.46,5.46,0,0,0-.26.67,5.6,5.6,0,0,0-.13,2.42,5.41,5.41,0,0,0,.53,1.51,3.45,3.45,0,0,0,1,1.15,3.76,3.76,0,0,1-.5-.55,3.91,3.91,0,0,1-.4-.65,5.32,5.32,0,0,1-.49-1.49,5.56,5.56,0,0,1-.07-1.58A6,6,0,0,1,81,52.81c.52.38,1,.79,1.51,1.22l.47.43a3.52,3.52,0,0,0-.19,1.21A6,6,0,0,0,82.94,57a5.36,5.36,0,0,0,.43,1.24,2.31,2.31,0,0,0,.8.94,2,2,0,0,1-.42-.44,3,3,0,0,1-.32-.54A5.73,5.73,0,0,1,83,57a7,7,0,0,1-.17-1.3,4.85,4.85,0,0,1,0-.66,2.47,2.47,0,0,1,.11-.54c.68.62,1.34,1.28,2,2a3.69,3.69,0,0,0-.09,1,3.33,3.33,0,0,0,.22,1A3.35,3.35,0,0,0,86.3,60a4.44,4.44,0,0,1-.67-.7A3.61,3.61,0,0,1,85.14,58.44Z"/><path class="cls-17" d="M108.13,24.29a3,3,0,0,1-.16-.9,3.3,3.3,0,0,1,.1-.88l.36.39c.41.46.82.92,1.21,1.4.2.24.39.48.58.73l.27.38a2.36,2.36,0,0,1,.24.4,4.76,4.76,0,0,0-.46-.82l-.54-.76c-.38-.5-.77-1-1.17-1.46l-.32-.36a.77.77,0,0,1,.59-.12,1.75,1.75,0,0,1,.67.33,3.92,3.92,0,0,1,.56.52l.25.3a3.87,3.87,0,0,1,.21.34,2.74,2.74,0,0,0-.43-.67,3.19,3.19,0,0,0-.56-.54,1.68,1.68,0,0,0-.69-.32.81.81,0,0,0-.38,0,.86.86,0,0,0-.23.13c-.57-.65-1.17-1.27-1.79-1.86a2.2,2.2,0,0,1,1.08-.4,2.14,2.14,0,0,1,1.16.3,4.69,4.69,0,0,1,1.13.74,7.67,7.67,0,0,1,.81,1,6,6,0,0,0-.76-1,4.63,4.63,0,0,0-1.14-.76,2,2,0,0,0-1.2-.29,1.84,1.84,0,0,0-.61.16,2.41,2.41,0,0,0-.48.3l-.46-.43c-.46-.4-.93-.79-1.42-1.15a1.76,1.76,0,0,1,1.8-.95,3.25,3.25,0,0,1,1.09.32,3.5,3.5,0,0,1,.49.29,3.23,3.23,0,0,1,.44.39,2.78,2.78,0,0,0-.9-.77,3.07,3.07,0,0,0-1.11-.35,1.84,1.84,0,0,0-1.14.25,1.76,1.76,0,0,0-.45.41,2,2,0,0,0-.23.4A12.08,12.08,0,0,0,103,18a7.59,7.59,0,0,0-1.18-.5,2.84,2.84,0,0,1,.81-.74,2.46,2.46,0,0,1,1.07-.35,3.91,3.91,0,0,1,1.13.07,8.53,8.53,0,0,1,1.09.33l-.53-.24a5.05,5.05,0,0,0-.55-.18,3.41,3.41,0,0,0-1.15-.1,2.29,2.29,0,0,0-1.11.39,2.38,2.38,0,0,0-.45.39,2.59,2.59,0,0,0-.32.42,4.77,4.77,0,0,0-.51-.13,3.12,3.12,0,0,0-1.79.09,3.29,3.29,0,0,1,1.76,0l.54.17a3.94,3.94,0,0,0-.22,1.44,6.87,6.87,0,0,0,.21,1.5,6.12,6.12,0,0,0,.55,1.38,6.65,6.65,0,0,0,.39.63,5.93,5.93,0,0,0,.46.56,8,8,0,0,1-.78-1.23,7.36,7.36,0,0,1-.51-1.38,6.45,6.45,0,0,1-.23-1.46,4.7,4.7,0,0,1,0-.75,4.16,4.16,0,0,1,.12-.69,9.4,9.4,0,0,1,1.11.53,12.22,12.22,0,0,1,1.5,1h0a4.48,4.48,0,0,0-.29.58,6,6,0,0,0-.2.69,4.35,4.35,0,0,0,0,1.44,4.17,4.17,0,0,0,.42,1.35,3,3,0,0,0,.88,1.05,2.74,2.74,0,0,1-.45-.51,3.16,3.16,0,0,1-.35-.59,4,4,0,0,1-.39-1.32,4.39,4.39,0,0,1,0-1.4,4.88,4.88,0,0,1,.4-1.28q.7.54,1.38,1.14l.43.4a2.69,2.69,0,0,0-.24,1.05,5.17,5.17,0,0,0,.08,1.18,4.34,4.34,0,0,0,.35,1.11,2.08,2.08,0,0,0,.71.86,2.07,2.07,0,0,1-.38-.4,2.42,2.42,0,0,1-.27-.5,4,4,0,0,1-.33-1.09,5.62,5.62,0,0,1-.1-1.16,3.68,3.68,0,0,1,.06-.57,1.89,1.89,0,0,1,.13-.48c.62.58,1.22,1.19,1.8,1.81a2.89,2.89,0,0,0-.14.88,2.61,2.61,0,0,0,.15.92,3.27,3.27,0,0,0,.44.8,3.47,3.47,0,0,0,.65.62,3.41,3.41,0,0,1-.61-.65A2.88,2.88,0,0,1,108.13,24.29Z"/><path class="cls-17" d="M94.92,3.5a1.93,1.93,0,0,0,.65.34,2,2,0,0,0,.68.08L96,3.49q-.4-.77-.84-1.5c-.14-.25-.29-.49-.44-.73L94.5.91a2,2,0,0,0-.26-.32,3.61,3.61,0,0,1,.53.63c.17.23.33.46.48.7.31.48.61,1,.89,1.47.08.13.15.26.22.39a.92.92,0,0,0,.19-.56,2.26,2.26,0,0,0-.13-.74,3.66,3.66,0,0,0-.29-.67L96,1.5c-.07-.09-.14-.19-.22-.28a2.44,2.44,0,0,1,.43.57,4.57,4.57,0,0,1,.31.67,2.12,2.12,0,0,1,.11.76.91.91,0,0,1-.08.37,1,1,0,0,1-.14.2c.39.7.75,1.43,1.08,2.17a2.37,2.37,0,0,0,.49-1,2.84,2.84,0,0,0,0-1.23,5.51,5.51,0,0,0-.35-1.28,9.19,9.19,0,0,0-.59-1,6.61,6.61,0,0,1,.64,1A5.35,5.35,0,0,1,98,3.72,2.68,2.68,0,0,1,98,5a2.27,2.27,0,0,1-.23.58,2.1,2.1,0,0,1-.31.41l.24.55c.22.54.43,1.09.62,1.65A1.56,1.56,0,0,0,99,7.62a2.3,2.3,0,0,0,.35-1,4.36,4.36,0,0,0,0-1.14,3.5,3.5,0,0,0-.13-.56,2.91,2.91,0,0,0-.22-.51,2.86,2.86,0,0,1,.42,1,3.87,3.87,0,0,1,.07,1.18A2.17,2.17,0,0,1,99,7.68a1.33,1.33,0,0,1-.39.36,1.14,1.14,0,0,1-.34.15,14.34,14.34,0,0,1,.46,1.74,10.93,10.93,0,0,1,.17,1.28,2.7,2.7,0,0,0,.7-.65,3.15,3.15,0,0,0,.46-1,5.39,5.39,0,0,0,.14-1.14,11.27,11.27,0,0,0-.06-1.16,5.62,5.62,0,0,1,.09.57c0,.2,0,.39,0,.59a4.2,4.2,0,0,1-.13,1.17,2.55,2.55,0,0,1-.49,1,2,2,0,0,1-.38.38,2.06,2.06,0,0,1-.37.23,4.87,4.87,0,0,1,0,.54,3.88,3.88,0,0,1-.39,1.76,4.06,4.06,0,0,0,.3-1.76,5.44,5.44,0,0,0,0-.57,2.25,2.25,0,0,1-1.12-.09,3.9,3.9,0,0,1-1.09-.52,4.59,4.59,0,0,1-.94-.83,3.42,3.42,0,0,1-.4-.52,4.08,4.08,0,0,1-.34-.57,5.14,5.14,0,0,0,.37.54c.13.17.27.33.41.49a6,6,0,0,0,1,.8,4.78,4.78,0,0,0,1.06.53,3.53,3.53,0,0,0,.56.14,2.45,2.45,0,0,0,.54,0,10,10,0,0,0-.2-1.22,15.8,15.8,0,0,0-.48-1.7v0a2.81,2.81,0,0,1-.49.16,2.51,2.51,0,0,1-.55.06A2.79,2.79,0,0,1,96,8.21a3.2,3.2,0,0,1-.94-.71,3.12,3.12,0,0,1-.63-1.09,2.94,2.94,0,0,0,.3.55,2.89,2.89,0,0,0,.38.47A3.19,3.19,0,0,0,96,8.1a2.77,2.77,0,0,0,1,.27,2.84,2.84,0,0,0,1-.14c-.19-.54-.39-1.08-.62-1.61l-.22-.52a1.6,1.6,0,0,1-.84,0,3,3,0,0,1-.86-.32,3.29,3.29,0,0,1-.78-.58,2.14,2.14,0,0,1-.52-.89,1.83,1.83,0,0,0,.24.46,2.3,2.3,0,0,0,.32.38,3.34,3.34,0,0,0,.76.55,4.08,4.08,0,0,0,.85.34,2.32,2.32,0,0,0,.45.06,1.22,1.22,0,0,0,.38,0c-.33-.74-.67-1.46-1-2.17a1.79,1.79,0,0,1-.69,0,2,2,0,0,1-.66-.35,2.32,2.32,0,0,1-.52-.6A3.15,3.15,0,0,1,94,2.17a3.94,3.94,0,0,0,.37.74A3,3,0,0,0,94.92,3.5Z"/><path class="cls-17" d="M100.27,35.71A3.55,3.55,0,0,1,100,34.5a4.84,4.84,0,0,1,.06-1.2l.48.51q.83.88,1.62,1.83.41.47.78,1c.13.16.25.32.37.49a3.24,3.24,0,0,1,.33.54,6.93,6.93,0,0,0-.64-1.09c-.24-.34-.49-.68-.74-1-.5-.66-1-1.29-1.57-1.91l-.43-.47A.89.89,0,0,1,101,33a2.15,2.15,0,0,1,.87.4,4.3,4.3,0,0,1,.74.68,3.09,3.09,0,0,1,.33.39,2.57,2.57,0,0,1,.29.44,3.54,3.54,0,0,0-.58-.88,4.45,4.45,0,0,0-.74-.7,2.12,2.12,0,0,0-.9-.39.89.89,0,0,0-.48.06.8.8,0,0,0-.27.18c-.76-.84-1.56-1.65-2.39-2.41a2.53,2.53,0,0,1,1.33-.61,2.47,2.47,0,0,1,1.49.34,5.28,5.28,0,0,1,1.28,1,11.42,11.42,0,0,1,1.09,1.29,9.4,9.4,0,0,0-1-1.36,4.92,4.92,0,0,0-1.29-1A2.44,2.44,0,0,0,99.19,30a2.28,2.28,0,0,0-.76.26,2.94,2.94,0,0,0-.57.43l-.61-.55c-.61-.52-1.23-1-1.87-1.48a2.37,2.37,0,0,1,.83-1.05,2.2,2.2,0,0,1,1.36-.34,3.67,3.67,0,0,1,1.39.36,3.78,3.78,0,0,1,.64.37,3.35,3.35,0,0,1,.57.5,3.46,3.46,0,0,0-1.17-1,3.62,3.62,0,0,0-1.42-.41,2.2,2.2,0,0,0-1.42.4,2.35,2.35,0,0,0-.54.59,2.77,2.77,0,0,0-.26.55,15.46,15.46,0,0,0-2-1.23,8.62,8.62,0,0,0-1.52-.61,4,4,0,0,1,1-1.06,3,3,0,0,1,1.32-.54,4.51,4.51,0,0,1,1.42,0,10,10,0,0,1,1.4.38c-.22-.11-.45-.2-.68-.29a5.64,5.64,0,0,0-.7-.21,4,4,0,0,0-1.46-.08,2.87,2.87,0,0,0-1.36.6,3.24,3.24,0,0,0-.55.56,4.6,4.6,0,0,0-.37.6,4.74,4.74,0,0,0-.65-.16,3.6,3.6,0,0,0-2.24.24,3.74,3.74,0,0,1,2.22-.08,5.82,5.82,0,0,1,.68.2,5.66,5.66,0,0,0-.16,2A9.22,9.22,0,0,0,92,31a9.12,9.12,0,0,0,.79,1.84,7.81,7.81,0,0,0,.53.83,6.28,6.28,0,0,0,.62.73q-.3-.37-.57-.78a8.77,8.77,0,0,1-.49-.84A9.86,9.86,0,0,1,92.17,31a10,10,0,0,1-.4-2,8.7,8.7,0,0,1,0-1,5.88,5.88,0,0,1,.1-.94,9.61,9.61,0,0,1,1.43.64,17.34,17.34,0,0,1,2,1.27l0,0a6,6,0,0,0-.31.8,7.66,7.66,0,0,0-.21.95,6.78,6.78,0,0,0,.05,2,5.91,5.91,0,0,0,.64,1.81,3.92,3.92,0,0,0,1.17,1.37,4.21,4.21,0,0,1-.6-.66,5.09,5.09,0,0,1-.48-.78,6,6,0,0,1-.59-1.78,6.72,6.72,0,0,1-.08-1.9A7.4,7.4,0,0,1,95.26,29c.62.45,1.23.94,1.82,1.46l.58.52a3.88,3.88,0,0,0-.24,1.45A7.13,7.13,0,0,0,97.61,34a6.34,6.34,0,0,0,.52,1.48,2.74,2.74,0,0,0,1,1.13,2.52,2.52,0,0,1-.51-.52,3.81,3.81,0,0,1-.38-.65A6.86,6.86,0,0,1,97.71,34a8.24,8.24,0,0,1-.21-1.57,5.27,5.27,0,0,1,0-.79,3.3,3.3,0,0,1,.13-.64c.83.74,1.62,1.53,2.4,2.34a4.41,4.41,0,0,0-.12,1.2,4.1,4.1,0,0,0,.26,1.25,3.93,3.93,0,0,0,.62,1,3.78,3.78,0,0,0,.85.8,4.67,4.67,0,0,1-.82-.84A4.1,4.1,0,0,1,100.27,35.71Z"/><path class="cls-17" d="M70.27,64a2.09,2.09,0,0,1,.13-.65,2.19,2.19,0,0,1,.28-.55c0,.13.09.26.13.38.15.45.29.9.41,1.35.07.22.13.45.19.68s0,.23.07.34a1.48,1.48,0,0,1,0,.35,3.34,3.34,0,0,0-.08-.7l-.15-.69c-.11-.46-.24-.92-.38-1.37,0-.12-.07-.23-.11-.35a.57.57,0,0,1,.41.12,1.53,1.53,0,0,1,.34.45,3.21,3.21,0,0,1,.22.54c0,.09.06.19.08.28s0,.2,0,.3a2.91,2.91,0,0,0-.1-.59,3.32,3.32,0,0,0-.22-.55,1.46,1.46,0,0,0-.36-.45.58.58,0,0,0-.25-.12h-.17c-.2-.62-.42-1.24-.67-1.84a1.34,1.34,0,0,1,.79.1,1.71,1.71,0,0,1,.66.6,4,4,0,0,1,.42.85,7.09,7.09,0,0,1,.26.93,6.23,6.23,0,0,0-.22-.95,3.33,3.33,0,0,0-.42-.87,1.68,1.68,0,0,0-.69-.61,1.27,1.27,0,0,0-.42-.09,1.2,1.2,0,0,0-.38,0c-.06-.15-.12-.29-.19-.44-.18-.42-.38-.85-.6-1.25a1.08,1.08,0,0,1,.63-.25,1.19,1.19,0,0,1,.74.24,2.74,2.74,0,0,1,.61.57,2.92,2.92,0,0,1,.24.37,1.86,1.86,0,0,1,.17.41,2.26,2.26,0,0,0-.37-.82,2.36,2.36,0,0,0-.61-.61,1.26,1.26,0,0,0-.79-.23,1.05,1.05,0,0,0-.38.12,1.5,1.5,0,0,0-.25.19A10.11,10.11,0,0,0,68.61,58a5.43,5.43,0,0,0-.62-.73,1.79,1.79,0,0,1,.7-.22,1.72,1.72,0,0,1,.77.13,3.21,3.21,0,0,1,.69.44,8.42,8.42,0,0,1,.61.59l-.27-.34c-.1-.1-.2-.21-.31-.3a2.33,2.33,0,0,0-.7-.47,1.47,1.47,0,0,0-.8-.12,1.9,1.9,0,0,0-.39.11,1.78,1.78,0,0,0-.3.17L67.66,57a3.15,3.15,0,0,0-1.46-.47,3.23,3.23,0,0,1,1.42.54c.1.09.23.2.33.31a2.55,2.55,0,0,0-.5.88,4.75,4.75,0,0,0-.24,1.07,5.06,5.06,0,0,0,0,1.1c0,.19.05.37.08.55s.09.36.15.53c0-.18-.08-.36-.11-.54a5,5,0,0,1-.06-.54,5.67,5.67,0,0,1,0-1.09,5.31,5.31,0,0,1,.23-1,2.62,2.62,0,0,1,.19-.49,2.22,2.22,0,0,1,.25-.42,8.2,8.2,0,0,1,.57.72c.25.38.49.78.7,1.18v0l-.32.29a2.88,2.88,0,0,0-.3.39,3.17,3.17,0,0,0-.46,2,2.46,2.46,0,0,0,.29,1,2.81,2.81,0,0,1-.16-.49,3,3,0,0,1-.07-.51,3.18,3.18,0,0,1,.08-1,3,3,0,0,1,.37-.92,2.83,2.83,0,0,1,.57-.71c.21.4.41.81.59,1.23.06.13.12.27.17.41a1.84,1.84,0,0,0-.42.62,3.83,3.83,0,0,0-.3,1.66,1.78,1.78,0,0,0,.24.82,1.47,1.47,0,0,1-.14-.4,2,2,0,0,1-.05-.42,3.91,3.91,0,0,1,.06-.84,4.11,4.11,0,0,1,.23-.8,2.53,2.53,0,0,1,.18-.37,1.33,1.33,0,0,1,.21-.26c.24.59.47,1.2.68,1.81a2.05,2.05,0,0,0-.31.54,1.8,1.8,0,0,0-.13.66,2.58,2.58,0,0,0,.07.68,2.7,2.7,0,0,0,.26.63,2.87,2.87,0,0,1-.23-.64A2.5,2.5,0,0,1,70.27,64Z"/><path class="cls-17" d="M58.9,46.63a1.55,1.55,0,0,0,.61,0,1.81,1.81,0,0,0,.59-.17l-.25-.26c-.31-.29-.62-.58-.93-.85l-.49-.4a2.27,2.27,0,0,0-.25-.18,1.07,1.07,0,0,0-.27-.16,2.46,2.46,0,0,1,.55.3l.51.37a12.11,12.11,0,0,1,1,.81c.09.07.16.15.24.22a.71.71,0,0,0,.09-.49,1.27,1.27,0,0,0-.21-.52,2.74,2.74,0,0,0-.34-.41l-.2-.17-.23-.14a1.62,1.62,0,0,1,.45.28,2.3,2.3,0,0,1,.35.41,1.22,1.22,0,0,1,.21.54.81.81,0,0,1,0,.31.72.72,0,0,1-.09.2,15.06,15.06,0,0,1,1.23,1.29,2.49,2.49,0,0,0,.28-.93,1.89,1.89,0,0,0-.18-.93,2.88,2.88,0,0,0-.52-.72,4.93,4.93,0,0,0-.65-.56A3.47,3.47,0,0,1,61,45a2.59,2.59,0,0,1,.53.72,1.9,1.9,0,0,1,.18,1,2.31,2.31,0,0,1-.12.52,2.74,2.74,0,0,1-.21.42l.28.33c.27.34.52.69.76,1.05a1.82,1.82,0,0,0,.51-.65,1.94,1.94,0,0,0,.15-.92,2.64,2.64,0,0,0-.19-.85,2.28,2.28,0,0,0-.2-.38,1.31,1.31,0,0,0-.25-.32,1.66,1.66,0,0,1,.5.66,2.28,2.28,0,0,1,.22.87,2,2,0,0,1-.18,1,1.65,1.65,0,0,1-.28.41,2.61,2.61,0,0,1-.27.22,9.36,9.36,0,0,1,.63,1.17,5.55,5.55,0,0,1,.32.92,2.91,2.91,0,0,0,.52-.74,2.69,2.69,0,0,0,.25-.91,3.51,3.51,0,0,0,0-.92,6.45,6.45,0,0,0-.2-.87l.15.41c0,.14.08.29.11.44a2.86,2.86,0,0,1,.06.93,2.53,2.53,0,0,1-.28,1,3.62,3.62,0,0,1-.27.41,2.76,2.76,0,0,1-.29.3c0,.14.11.34.13.48a8.16,8.16,0,0,1,.24,2,10.25,10.25,0,0,0-.33-2c0-.14-.1-.34-.14-.48a2.41,2.41,0,0,1-1,.32,3.79,3.79,0,0,1-1,0,3.33,3.33,0,0,1-.92-.31,4.28,4.28,0,0,1-.42-.26,2.83,2.83,0,0,1-.37-.32,3.6,3.6,0,0,0,.4.28,2.82,2.82,0,0,0,.42.23,4.11,4.11,0,0,0,.92.29,3.62,3.62,0,0,0,1,0,3.05,3.05,0,0,0,.5-.08,3,3,0,0,0,.47-.17,8.09,8.09,0,0,0-.34-.86,9.73,9.73,0,0,0-.65-1.13l0,0a2.82,2.82,0,0,1-.39.29,2.92,2.92,0,0,1-.47.23,2.38,2.38,0,0,1-1,.18,2.24,2.24,0,0,1-.9-.21,1.67,1.67,0,0,1-.7-.62,2,2,0,0,0,.33.32,2.3,2.3,0,0,0,.4.23,2.18,2.18,0,0,0,.89.19,2.8,2.8,0,0,0,.94-.15,4,4,0,0,0,.87-.46,10.7,10.7,0,0,0-.75-1c-.08-.11-.17-.21-.26-.32a1.84,1.84,0,0,1-.72.31,2.63,2.63,0,0,1-.79,0,2.06,2.06,0,0,1-.74-.18,1.11,1.11,0,0,1-.57-.5,1.16,1.16,0,0,0,.26.28,1.29,1.29,0,0,0,.33.17,2.28,2.28,0,0,0,.74.16,2.86,2.86,0,0,0,.77,0A2.5,2.5,0,0,0,61,48a1.61,1.61,0,0,0,.33-.15c-.38-.45-.78-.88-1.2-1.3a1.9,1.9,0,0,1-.59.21,1.42,1.42,0,0,1-.62,0,1.55,1.55,0,0,1-.54-.28,2,2,0,0,1-.4-.47,2.2,2.2,0,0,0,.42.44A1.77,1.77,0,0,0,58.9,46.63Z"/><path class="cls-17" d="M69.5,26.17a2.78,2.78,0,0,0,1,.1,3.34,3.34,0,0,0,1-.23L71,25.62c-.58-.49-1.16-1-1.75-1.41-.3-.23-.6-.46-.91-.67l-.46-.31A3.36,3.36,0,0,0,67.4,23a5.46,5.46,0,0,1,1,.51c.32.2.63.41.94.62.61.42,1.22.88,1.81,1.35l.45.37a1.1,1.1,0,0,0,0-.78,2.49,2.49,0,0,0-.47-.84,4.71,4.71,0,0,0-.67-.67l-.37-.28a3.38,3.38,0,0,0-.41-.24,3,3,0,0,1,.81.48,4,4,0,0,1,.69.67,2.49,2.49,0,0,1,.47.86,1.41,1.41,0,0,1,0,.5,1.15,1.15,0,0,1-.11.31c.81.66,1.59,1.37,2.35,2.12a3.07,3.07,0,0,0,.28-1.46A3.12,3.12,0,0,0,73.72,25a5.78,5.78,0,0,0-1-1.18,12.49,12.49,0,0,0-1.23-.94,7.87,7.87,0,0,1,1.28.88,5.65,5.65,0,0,1,1,1.18,3.17,3.17,0,0,1,.51,1.53,3.1,3.1,0,0,1-.09.81,3.81,3.81,0,0,1-.27.66l.55.55c.52.55,1,1.12,1.51,1.71a2.26,2.26,0,0,0,.72-1,2.74,2.74,0,0,0,.06-1.45,4.46,4.46,0,0,0-.52-1.37,3.56,3.56,0,0,0-.4-.61,3.6,3.6,0,0,0-.5-.53,3.32,3.32,0,0,1,1,1.08,4.08,4.08,0,0,1,.56,1.4,2.63,2.63,0,0,1-.1,1.52,1.86,1.86,0,0,1-.39.63,2,2,0,0,1-.41.35,17.83,17.83,0,0,1,1.33,1.89,9.74,9.74,0,0,1,.74,1.48,3.76,3.76,0,0,0,.71-1.14A3.72,3.72,0,0,0,79,31a6,6,0,0,0-.26-1.46,14.77,14.77,0,0,0-.54-1.39c.13.22.24.44.35.66s.2.46.29.7A5.25,5.25,0,0,1,79.16,31a3.29,3.29,0,0,1-.27,1.49,2.89,2.89,0,0,1-.37.64,3.8,3.8,0,0,1-.42.47c.08.21.16.43.23.65A12,12,0,0,1,78.62,38a12.39,12.39,0,0,0-.42-3.69c-.08-.23-.17-.45-.27-.67a3.94,3.94,0,0,1-1.58.45,6.46,6.46,0,0,1-1.7-.1A7.36,7.36,0,0,1,73,33.42a6.93,6.93,0,0,1-.75-.43c-.24-.17-.48-.34-.7-.53.24.16.48.32.73.47s.5.27.76.39a8,8,0,0,0,1.62.51,7.2,7.2,0,0,0,1.67.13,6,6,0,0,0,.84-.11,3.28,3.28,0,0,0,.75-.24,14,14,0,0,0-.75-1.37,19,19,0,0,0-1.35-1.85l0,0a4.19,4.19,0,0,1-.6.44,5,5,0,0,1-.74.34,4.15,4.15,0,0,1-1.6.23,4.19,4.19,0,0,1-1.58-.4A3.55,3.55,0,0,1,70,30a3.49,3.49,0,0,0,.63.52,3.53,3.53,0,0,0,.71.39,4.67,4.67,0,0,0,1.55.36,4.38,4.38,0,0,0,1.56-.2,5,5,0,0,0,1.37-.67c-.47-.58-1-1.13-1.48-1.66-.17-.18-.35-.35-.52-.52a2.61,2.61,0,0,1-1.14.44,4.94,4.94,0,0,1-1.33,0A4.46,4.46,0,0,1,70,28.33,2.42,2.42,0,0,1,69,27.5a2,2,0,0,0,.5.45,3.36,3.36,0,0,0,.6.3,4.7,4.7,0,0,0,1.27.3,5.22,5.22,0,0,0,1.31,0,3.67,3.67,0,0,0,.64-.14,2.5,2.5,0,0,0,.5-.23c-.74-.74-1.5-1.45-2.29-2.13a3,3,0,0,1-1,.29,2.73,2.73,0,0,1-1.06-.09,3.6,3.6,0,0,1-1-.48,4.06,4.06,0,0,1-.78-.77,4.26,4.26,0,0,0,.81.72A3.48,3.48,0,0,0,69.5,26.17Z"/><path class="cls-14" d="M100.72,16.06a2.6,2.6,0,0,0,.22-1.52,2.39,2.39,0,0,0-.69-1.49,1.11,1.11,0,0,0-.7-.38,2.19,2.19,0,0,0-1,.13,3.11,3.11,0,0,0-.89.45c-.33.27-.6.6-.9.89-.5.47-1,.9-1.48,1.4A6.51,6.51,0,0,0,94.25,17a1.38,1.38,0,0,0-.21,1c.22.48,1.13.44,1.59.41a5.69,5.69,0,0,0,4.08-1.13A3.09,3.09,0,0,0,100.72,16.06Z"/><path class="cls-18" d="M62.74,68.72c-.15.3-.25.43-.39.74a9.05,9.05,0,0,1,3.81,1.76c-.7.15-.74.66-.74.66s3.45,1.68,3.71,2.79c-1,.71-1,.45-.57,1a9.25,9.25,0,0,1,2,3.44c-.19.1-.53.09-.69.18a24.42,24.42,0,0,1,.93,3.3c-.25,0-.51.23-.72.26a19.29,19.29,0,0,1,.08,4.62l-.49-.06a22.29,22.29,0,0,1-.16,4.27c-.15-.05-.33,0-.48-.09,0,1.2-.09,2.52-.18,3.72-.2-.17-.56-.16-.77-.29-.07,1,0,2.06-.07,3-.16,0-.36,0-.51-.06,0,.67.14,1.35.07,2-.93-1.11-1.2-2.84-2.21-3.9,0,.47-.25,1-.26,1.43a21.64,21.64,0,0,0-1.14-2.64c-.64.15-.51,1-.51,1a5.47,5.47,0,0,1-1.72-3c-.18.5-.52.59-.74.88-.36-.72-.5-1.64-.8-2.43-.43.18-.7.54-1.15.46a28.39,28.39,0,0,0-1-3,3.85,3.85,0,0,0-.72,1,26.31,26.31,0,0,1-1.19-3c-.38.19-.36.86-1,1.31-.54-1-.52-3-.87-4.17-.2.26-.87.81-1.06,1.07-.32-1.27.06-2.62,0-3.71-.23.11-.74,0-1,.08-.14-1.48.54-2.39,1-3.75-.3.3-.56.22-.87.38-.22-1.95,1.53-9.61,2.33-10.53C56.1,65.79,61.71,68.55,62.74,68.72Z"/><path class="cls-19" d="M61.16,53.8c.25.22.36.36.62.58a15.15,15.15,0,0,1,1.86-4.92c.08.95.54,1,.54,1S66,46.06,66.94,45.8c.55,1.4.33,1.32.85.84A7.91,7.91,0,0,1,71,44.3c.08.26,0,.72.11.93a15.11,15.11,0,0,1,3-1c0,.32.17.68.17,1a11.17,11.17,0,0,1,4.11.24c0,.2-.06.44-.09.64a13.92,13.92,0,0,1,3.78.53c-.06.21-.08.44-.13.63a31.08,31.08,0,0,1,3.28.53c-.16.25-.18.73-.33,1,.89.18,1.84.16,2.69.34,0,.21,0,.46-.09.67.59.12,1.21-.09,1.79.05-1.06,1.16-2.62,1.39-3.63,2.64.4.08.85.4,1.24.46-.77.55-1.74.59-2.43,1.3a.71.71,0,0,0,.82.73A4.87,4.87,0,0,1,82.47,57c.43.28.47.74.72,1A15.27,15.27,0,0,1,81,59c.12.58.43,1,.31,1.57-.85.07-1.92.88-2.76,1.11.27.31.42.77.84,1A18.44,18.44,0,0,1,76.59,64c.15.53.75.55,1.1,1.35-.9.65-2.71.47-3.77.84.21.28.64,1.21.86,1.49-1.16.33-2.31-.28-3.3-.23.09.31,0,1,0,1.27-1.32.06-2.07-.89-3.23-1.61a4.62,4.62,0,0,1,.26,1.19c-1.75.13-8.4-2.76-9.15-3.9C58,62.36,60.92,55.15,61.16,53.8Z"/><path class="cls-19" d="M51.88,56.26c-.1.44-.11.65-.23,1.09a12.64,12.64,0,0,0-4.72-2.89c.5.95.13,1.44.13,1.44S42.72,53.37,41.64,54c.32,1.77.49,1.51-.3,1.52a8.22,8.22,0,0,0-4.41.69c.09.3.39.7.46,1A20.2,20.2,0,0,0,34,58.93c.22.28.26.78.42,1.06a17.82,17.82,0,0,0-3.68,3.86c.14.16.32.36.48.51A21.66,21.66,0,0,0,28,68.2c.17.15.33.35.5.47-.94,1-1.9,2.26-2.76,3.4.3.09.61.51.91.63-.72.94-1.62,1.77-2.32,2.69.17.16.34.38.5.54-.48.62-1.19,1-1.65,1.63,1.69.13,3.29-1,5-.79-.33.44-.55,1.13-.89,1.53,1.05-.18,2-1,3.07-1a1.09,1.09,0,0,1-.32,1.4,4.85,4.85,0,0,0,3.85-.58c-.23.63,0,1.1,0,1.61a21.53,21.53,0,0,0,2.61-1.17c.24.65.19,1.27.65,1.72.84-.68,2.33-.89,3.26-1.43a5.37,5.37,0,0,1-.16,1.7,21.63,21.63,0,0,0,3.4-1.21c.19.61-.36,1.16-.2,2.22,1.22-.21,2.81-2,4-2.58,0,.45.13,1.7.1,2.14,1.28-.72,2-2.31,2.94-3.13.11.36.65.84.78,1.17,1.27-1.12,1.4-2.67,2.05-4.36,0,.6.32.84.47,1.33,1.72-1.43,6.2-10,6.2-11.71C60,61.38,52.93,57.3,51.88,56.26Z"/><g class="cls-20"><path class="cls-21" d="M56.1,64.66A19.3,19.3,0,0,0,54,64.55a27.89,27.89,0,0,0-4.19.38l-.49.08a7.22,7.22,0,0,0-.52-1.38,9.26,9.26,0,0,0-.86-1.37A13.12,13.12,0,0,0,45.63,60,18.39,18.39,0,0,0,43,58.29a16,16,0,0,0-2.8-1.21c.47.18.94.38,1.4.61s.91.45,1.36.71a20,20,0,0,1,2.58,1.73,12.77,12.77,0,0,1,2.26,2.21A8.42,8.42,0,0,1,49.27,65c-1.21.2-2.4.48-3.58.79L45,66a7.88,7.88,0,0,0-.91-1.43,10.29,10.29,0,0,0-1.23-1.24A10.85,10.85,0,0,0,40,61.61a12.43,12.43,0,0,0-3.19-.75,14.17,14.17,0,0,0-1.59-.06,11.88,11.88,0,0,0-1.58.13,16,16,0,0,1,3.17,0,12.66,12.66,0,0,1,3.15.79,10.9,10.9,0,0,1,2.9,1.65,8.77,8.77,0,0,1,1.25,1.19A8.24,8.24,0,0,1,45,66c-1.11.31-2.22.66-3.31,1-.7.25-1.39.51-2.08.78a2.56,2.56,0,0,0-.33-.46,5.44,5.44,0,0,0-.48-.48,8.1,8.1,0,0,0-1.06-.79A9,9,0,0,0,35.41,65a8.76,8.76,0,0,0-2.47-.34,9.87,9.87,0,0,0-1.22.09,7.62,7.62,0,0,0-1.17.26A10.68,10.68,0,0,1,33,64.8a9.67,9.67,0,0,1,2.43.37,9.79,9.79,0,0,1,2.33,1,8.59,8.59,0,0,1,1.07.75,5.23,5.23,0,0,1,.49.45,2.19,2.19,0,0,1,.35.44c-.59.23-1.18.47-1.77.73-.89.39-1.77.8-2.65,1.23a4.84,4.84,0,0,0-.64-.64,4.51,4.51,0,0,0-.8-.51A5,5,0,0,0,32,68.12a6.82,6.82,0,0,0-1.75,0,6.3,6.3,0,0,0-1.65.5,7.84,7.84,0,0,1,.83-.23,8.22,8.22,0,0,1,.84-.15,7.7,7.7,0,0,1,1.73,0,5.56,5.56,0,0,1,1.72.46,5.26,5.26,0,0,1,1.47,1l-1.08.56c-1,.53-2,1.09-2.9,1.69l-.4-.31a4.76,4.76,0,0,0-.49-.28,3.2,3.2,0,0,0-1.07-.31,2.7,2.7,0,0,0-1.06.09,3.24,3.24,0,0,0-.95.42,4.82,4.82,0,0,1,1-.3,3.55,3.55,0,0,1,1,0,3.71,3.71,0,0,1,1,.26,4.59,4.59,0,0,1,.5.24c.14.07.28.16.42.24a27,27,0,0,0-3.93,3,29.39,29.39,0,0,1,3.36-2.41c1.17-.73,2.37-1.4,3.6-2,.36-.19.73-.37,1.1-.55a3.53,3.53,0,0,1,.19,1.06,5.89,5.89,0,0,1,0,1.11,9.81,9.81,0,0,1-.54,2.1A9.62,9.62,0,0,1,34,76.2a6.51,6.51,0,0,1-.62.84,3.1,3.1,0,0,1-.77.67,4.16,4.16,0,0,0,1.49-1.43,10,10,0,0,0,1-1.91,8.75,8.75,0,0,0,.51-2.15,6.2,6.2,0,0,0,0-1.14A3.6,3.6,0,0,0,35.34,70q2.17-1,4.41-1.92a3.28,3.28,0,0,1,.51,1.2,8.67,8.67,0,0,1,.2,1.42,12.32,12.32,0,0,1-.17,2.79,13.66,13.66,0,0,1-.74,2.63,13.3,13.3,0,0,1-1.23,2.37,11.74,11.74,0,0,0,.74-1.1,12.38,12.38,0,0,0,.6-1.21,12.18,12.18,0,0,0,.77-2.64,11.67,11.67,0,0,0,.14-2.84,7.77,7.77,0,0,0-.24-1.43,5.13,5.13,0,0,0-.25-.69,2.14,2.14,0,0,0-.32-.5c.69-.27,1.38-.52,2.07-.76,1.09-.39,2.19-.74,3.3-1.06,0,.2.09.4.12.59s0,.56.06.83a15.11,15.11,0,0,1,0,1.65,19.63,19.63,0,0,1-.49,3.19,16.85,16.85,0,0,1-1,3,13.88,13.88,0,0,1-1.55,2.67A10.42,10.42,0,0,0,43.17,77a13.88,13.88,0,0,0,.74-1.37,16.22,16.22,0,0,0,1-3,18.21,18.21,0,0,0,.45-3.23,13.14,13.14,0,0,0,0-1.66c0-.28-.06-.56-.11-.84a3,3,0,0,0-.14-.59,46.3,46.3,0,0,1,4.69-1.1A28.65,28.65,0,0,1,54,64.71h.4a13.73,13.73,0,0,1,.4,1.86,5.41,5.41,0,0,1,0,1.84,2.91,2.91,0,0,0,.22-.89,5.14,5.14,0,0,0,0-1,6.45,6.45,0,0,0-.55-1.85,13.59,13.59,0,0,1,3.84.42A11.32,11.32,0,0,0,56.1,64.66Z"/><path class="cls-21" d="M49.7,59.22a4.5,4.5,0,0,1,.73.43,6.92,6.92,0,0,1,.69.52,11.92,11.92,0,0,1,1.22,1.24,9,9,0,0,1,1,1.45,5.27,5.27,0,0,1,.36.8,4.11,4.11,0,0,1,.23.85,4.43,4.43,0,0,0-.16-.87,5,5,0,0,0-.33-.83,7.45,7.45,0,0,0-1-1.5,7.7,7.7,0,0,0-1.26-1.23A5.15,5.15,0,0,0,49.7,59.22Z"/><path class="cls-21" d="M31.15,74.83a3.66,3.66,0,0,0,.37-1.27,3.18,3.18,0,0,0,0-.69,3.28,3.28,0,0,0-.19-.68,3.23,3.23,0,0,1,.09,1.34A4.51,4.51,0,0,1,31,74.74a7.37,7.37,0,0,1-.65,1.08,5.84,5.84,0,0,1-.39.48c-.13.17-.27.32-.41.47a5.63,5.63,0,0,0,.89-.87A5.16,5.16,0,0,0,31.15,74.83Z"/><path class="cls-21" d="M49.59,69.13a14.69,14.69,0,0,0-.25-3.79,13.43,13.43,0,0,1,.18,1.89c0,.63,0,1.26,0,1.88a20,20,0,0,1-.56,3.64,14.39,14.39,0,0,1-1.24,3.36,8.88,8.88,0,0,1-2.12,2.73,7,7,0,0,0,1.24-1.2,9.85,9.85,0,0,0,1-1.46,14.3,14.3,0,0,0,1.28-3.38A20.28,20.28,0,0,0,49.59,69.13Z"/><path class="cls-21" d="M52.16,65.63a3.52,3.52,0,0,0-.37-.69,5.08,5.08,0,0,1,.54,1.45,11.69,11.69,0,0,1,.24,1.52,18.16,18.16,0,0,1,0,3,26.75,26.75,0,0,1-.36,3c-.17,1-.39,1.94-.63,2.9.15-.47.28-.94.41-1.41s.23-1,.33-1.45a22.71,22.71,0,0,0,.4-3,16.6,16.6,0,0,0,0-3.07,11.72,11.72,0,0,0-.28-1.53Q52.3,66,52.16,65.63Z"/></g><g class="cls-20"><path class="cls-21" d="M62,60.46a17.44,17.44,0,0,1,1.33-1.26,27.19,27.19,0,0,1,2.89-2.1c.11-.08.23-.15.35-.22a6.33,6.33,0,0,1-.25-1.18,8.79,8.79,0,0,1,0-1.36,13.09,13.09,0,0,1,.51-2.71,18.91,18.91,0,0,1,1-2.57,17.1,17.1,0,0,1,1.3-2.34c-.23.38-.45.77-.65,1.17s-.4.81-.58,1.22a21.06,21.06,0,0,0-.94,2.55,12.85,12.85,0,0,0-.53,2.68,7.36,7.36,0,0,0,.18,2.53c.88-.54,1.77-1,2.67-1.49l.5-.25a6.72,6.72,0,0,1,0-1.42A9.54,9.54,0,0,1,70,52.22a10.9,10.9,0,0,1,1.18-2.73,12.3,12.3,0,0,1,1.74-2.27,12.64,12.64,0,0,1,1-.93c.35-.28.71-.55,1.08-.79a15,15,0,0,0-2,1.8,13.82,13.82,0,0,0-1.71,2.26,11.81,11.81,0,0,0-1.18,2.69,9.23,9.23,0,0,0-.3,1.46,7.49,7.49,0,0,0,0,1.42c.86-.43,1.72-.82,2.59-1.19L74,53.28a2.57,2.57,0,0,1,0-.48,5.72,5.72,0,0,1,.11-.57,8.42,8.42,0,0,1,.35-1.11,9.55,9.55,0,0,1,1.08-2A9.27,9.27,0,0,1,77,47.53c.27-.22.55-.43.83-.62a9.54,9.54,0,0,1,.87-.49,10.34,10.34,0,0,0-1.65,1.2,9.5,9.5,0,0,0-1.42,1.6,10.2,10.2,0,0,0-1.09,1.94,9.81,9.81,0,0,0-.37,1.08c0,.19-.1.38-.13.56a2.59,2.59,0,0,0,0,.48l1.46-.52c.74-.25,1.49-.48,2.24-.69a4.16,4.16,0,0,1,.14-.77,5.57,5.57,0,0,1,.3-.77,5.4,5.4,0,0,1,.92-1.31,6,6,0,0,1,1.16-.94,5.13,5.13,0,0,1,1.28-.6,5.25,5.25,0,0,0-.63.31,4.78,4.78,0,0,0-.61.38,6.39,6.39,0,0,0-1.13,1,5.54,5.54,0,0,0-.92,1.25,5.36,5.36,0,0,0-.51,1.49c.31-.08.62-.17.94-.24.86-.21,1.73-.4,2.59-.54,0-.14.08-.28.13-.42a4.58,4.58,0,0,1,.2-.46,3.42,3.42,0,0,1,.56-.79,2.66,2.66,0,0,1,.73-.54,2.71,2.71,0,0,1,.79-.26,4.4,4.4,0,0,0-.76.36,3.22,3.22,0,0,0-.69.54,3.86,3.86,0,0,0-.56.75,2.89,2.89,0,0,0-.22.43c-.06.12-.11.25-.17.39a19.58,19.58,0,0,1,3.81-.3,21.86,21.86,0,0,0-3.21.34c-1.06.18-2.13.42-3.19.71l-.94.26a2.91,2.91,0,0,0,.32.79,3.85,3.85,0,0,0,.5.68,5.91,5.91,0,0,0,1.24,1.06,6.83,6.83,0,0,0,1.4.71,5,5,0,0,0,.76.19,2.27,2.27,0,0,0,.78,0,2.76,2.76,0,0,1-1.56-.09A6,6,0,0,1,79.75,55a5.55,5.55,0,0,1-1.24-1.09,4.23,4.23,0,0,1-.49-.73,2.79,2.79,0,0,1-.27-.83c-1.24.36-2.46.77-3.68,1.24a2.84,2.84,0,0,0,.19,1.05,5.25,5.25,0,0,0,.47,1A8.1,8.1,0,0,0,76,57.31a8,8,0,0,0,1.59,1.27,7.72,7.72,0,0,0,1.8.83,6.37,6.37,0,0,1-.94-.29,7.49,7.49,0,0,1-.9-.44,7.82,7.82,0,0,1-1.63-1.26,8.52,8.52,0,0,1-1.29-1.75,7.06,7.06,0,0,1-.45-1.05,5.43,5.43,0,0,1-.13-.58,2.09,2.09,0,0,1,0-.5c-.56.21-1.12.43-1.67.67-.87.36-1.73.74-2.58,1.16a3.47,3.47,0,0,0,.17.45c.1.2.2.38.31.57.22.36.46.71.71,1a13.47,13.47,0,0,0,1.67,1.78,11,11,0,0,0,1.92,1.37,8.39,8.39,0,0,0,2.14.85,6.36,6.36,0,0,1-1.12-.29,8.28,8.28,0,0,1-1.06-.46,10.21,10.21,0,0,1-2-1.36A12,12,0,0,1,71,57.51a10,10,0,0,1-.7-1.08,6.36,6.36,0,0,1-.28-.59,3.57,3.57,0,0,1-.16-.46,40,40,0,0,0-3.51,1.91,26.37,26.37,0,0,0-2.89,2,2.75,2.75,0,0,0-.26.22,9.11,9.11,0,0,0,.53,1.41,3.74,3.74,0,0,0,.8,1.16,1.83,1.83,0,0,1-.52-.45,3.3,3.3,0,0,1-.38-.63,4.93,4.93,0,0,1-.43-1.49,12.61,12.61,0,0,0-2.31,2.41A10.09,10.09,0,0,1,62,60.46Z"/><path class="cls-21" d="M63.86,53.39a5.28,5.28,0,0,0-.29.69,5.48,5.48,0,0,0-.22.72,9.23,9.23,0,0,0-.3,3,5.42,5.42,0,0,0,.11.72,3.73,3.73,0,0,0,.21.67,3.39,3.39,0,0,1-.26-.65,4.17,4.17,0,0,1-.14-.72,6.84,6.84,0,0,1,0-1.5,7.67,7.67,0,0,1,.3-1.5A5.32,5.32,0,0,1,63.86,53.39Z"/><path class="cls-21" d="M82.5,53.05a2.4,2.4,0,0,1-.78-.61,2.6,2.6,0,0,1-.28-.45,2,2,0,0,1-.16-.54,2.13,2.13,0,0,0,.5.9,2.8,2.8,0,0,0,.77.57,4.63,4.63,0,0,0,.88.32,3.63,3.63,0,0,0,.45.1,3.78,3.78,0,0,0,.47.06,3,3,0,0,1-.95,0A3.66,3.66,0,0,1,82.5,53.05Z"/><path class="cls-21" d="M68.13,59.69a10.21,10.21,0,0,1-1.44-2.57,9,9,0,0,0,.68,1.31,13,13,0,0,0,.82,1.18,13.62,13.62,0,0,0,1.9,2,9.12,9.12,0,0,0,2.23,1.46,5.85,5.85,0,0,0,2.53.57,5.22,5.22,0,0,1-1.31-.07,7.06,7.06,0,0,1-1.26-.39A9,9,0,0,1,70,61.76,12.94,12.94,0,0,1,68.13,59.69Z"/><path class="cls-21" d="M65,58.88a2.81,2.81,0,0,1-.06-.65,4.21,4.21,0,0,0,.26,1.24,8.54,8.54,0,0,0,.5,1.11,13.07,13.07,0,0,0,1.27,2,16.27,16.27,0,0,0,1.5,1.7c.52.54,1.07,1,1.63,1.51-.29-.21-.58-.44-.86-.68s-.56-.48-.83-.74a16.54,16.54,0,0,1-1.53-1.69,12.93,12.93,0,0,1-1.26-2,8.26,8.26,0,0,1-.47-1.14A6.23,6.23,0,0,1,65,58.88Z"/></g><path class="cls-18" d="M62.6,52.31c-.31,0-.47,0-.78,0a17.94,17.94,0,0,0,1.1-5.57c-.54.76-.94.5-.94.5s.93-5.09.31-6c-1.14.79-.94.89-1.08.09A11.45,11.45,0,0,0,60,37c-.18.16-.39.58-.55.71a21.39,21.39,0,0,0-1.79-3c-.15.3-.48.46-.63.7a12.92,12.92,0,0,0-3.26-2.81c-.08.2-.19.42-.26.62a15.24,15.24,0,0,0-3.15-2.33c-.07.22-.18.44-.24.64a33.15,33.15,0,0,0-2.77-2c0,.33-.24.76-.26,1.09-.76-.5-1.48-1.22-2.23-1.7-.07.22-.19.44-.27.65-.5-.34-.87-1-1.39-1.27.22,1.76,1.29,3.1,1.42,4.91-.35-.23-.85-.27-1.18-.52.3,1,1,1.79,1.19,2.9a.59.59,0,0,1-1,0,6.93,6.93,0,0,0,1.08,3.8c-.47-.07-.74.29-1.09.37a23.27,23.27,0,0,0,1.25,2.37c-.39.41-.83.51-1,1.11a28.53,28.53,0,0,1,1.54,3c-.37.07-.71.35-1.17.27a27.61,27.61,0,0,0,1.42,3.18c-.37.34-.84-.08-1.53.35.36,1.2,1.83,2.38,2.45,3.48-.3.08-1.11.56-1.41.64.71,1.13,1.9,1.47,2.63,2.22-.22.2-.46.88-.65,1.09,1,1,2,.76,3.29,1-.39.19-.5.54-.8.81,1.26,1.41,7.82,3.82,9,3.4C60.61,61.92,62.08,53.65,62.6,52.31Z"/><g class="cls-22"><path class="cls-19" d="M58.36,55.78q-.11-1-.3-1.89a30,30,0,0,0-1-3.66c0-.14-.1-.28-.14-.42a4.29,4.29,0,0,0,.91-.59,5.46,5.46,0,0,0,.84-.89,9.15,9.15,0,0,0,1.25-2.2,14.67,14.67,0,0,0,.78-2.46,15,15,0,0,0,.39-2.58c0,.43-.11.86-.19,1.29s-.18.84-.28,1.26a16.62,16.62,0,0,1-.81,2.44,10.09,10.09,0,0,1-1.2,2.19,5.38,5.38,0,0,1-1.7,1.53c-.36-1-.77-2.07-1.21-3.08l-.25-.57a4.87,4.87,0,0,0,.88-.93A7.07,7.07,0,0,0,57,44a9.39,9.39,0,0,0,.72-2.74,12.52,12.52,0,0,0,0-2.87q-.09-.7-.24-1.41c-.1-.46-.23-.92-.37-1.37a17.5,17.5,0,0,1,.52,2.8,13.48,13.48,0,0,1,0,2.84,9.92,9.92,0,0,1-.7,2.71,6.61,6.61,0,0,1-.65,1.2,5.18,5.18,0,0,1-.83,1c-.42-.95-.87-1.89-1.34-2.82-.31-.59-.62-1.18-.94-1.76a1.48,1.48,0,0,0,.28-.33c.09-.15.18-.31.26-.47a6.09,6.09,0,0,0,.39-1,8.43,8.43,0,0,0,.36-2.18,9.53,9.53,0,0,0-.19-2.2c-.08-.36-.17-.71-.28-1.06a10.11,10.11,0,0,0-.4-1,11.36,11.36,0,0,1,.59,2.09,10,10,0,0,1,.16,2.18A9,9,0,0,1,54,39.73a6.71,6.71,0,0,1-.36,1,3.45,3.45,0,0,1-.24.47,1.48,1.48,0,0,1-.25.35l-.85-1.49c-.44-.75-.9-1.49-1.37-2.21a3.25,3.25,0,0,0,.35-.63,3.86,3.86,0,0,0,.24-.75,5.3,5.3,0,0,0,.06-1.59,7.46,7.46,0,0,0-.35-1.54,6.87,6.87,0,0,0-.65-1.4c.11.23.22.47.31.71s.18.48.26.73a7.73,7.73,0,0,1,.31,1.52,5.36,5.36,0,0,1,0,1.55,4.21,4.21,0,0,1-.5,1.39c-.2-.3-.39-.6-.6-.9-.56-.81-1.13-1.62-1.74-2.4a2.39,2.39,0,0,0,.15-.37,3.45,3.45,0,0,0,.12-.46,3.16,3.16,0,0,0,0-1,3.28,3.28,0,0,0-.25-.93,3.77,3.77,0,0,0-.48-.8,5.33,5.33,0,0,1,.39.84,3.56,3.56,0,0,1,.22.91,3.62,3.62,0,0,1,0,.93c0,.15-.05.31-.08.46s-.07.26-.11.38a27.86,27.86,0,0,0-2.85-3.18,31.07,31.07,0,0,1,2.35,2.74c.74,1,1.44,1.95,2.11,3,.2.3.4.61.59.92a2.48,2.48,0,0,1-.73.27,3.78,3.78,0,0,1-.82.06,6.48,6.48,0,0,1-1.63-.28,7.68,7.68,0,0,1-1.55-.64,4.61,4.61,0,0,1-.72-.46,2.84,2.84,0,0,1-.63-.62A3.88,3.88,0,0,0,46,37.51a7.13,7.13,0,0,0,1.56.67,6.3,6.3,0,0,0,1.66.25,3.31,3.31,0,0,0,.83-.1,2.23,2.23,0,0,0,.72-.33c.77,1.21,1.49,2.44,2.18,3.71a2.1,2.1,0,0,1-.78.55,5.25,5.25,0,0,1-1,.31,7.56,7.56,0,0,1-2.07.1,8.47,8.47,0,0,1-2-.4,9.61,9.61,0,0,1-1.94-.87,7.32,7.32,0,0,0,.93.55,9.32,9.32,0,0,0,1,.42,8.22,8.22,0,0,0,2.07.44,7.34,7.34,0,0,0,2.09-.14,4.57,4.57,0,0,0,1-.35,3.14,3.14,0,0,0,.46-.28,2,2,0,0,0,.31-.33l.92,1.75c.47.93.92,1.86,1.35,2.81a2.9,2.9,0,0,1-.41.16,4.29,4.29,0,0,1-.6.13,8,8,0,0,1-1.2.13,11.47,11.47,0,0,1-2.41-.13,12.29,12.29,0,0,1-2.37-.6A10.52,10.52,0,0,1,46,44.84a8.12,8.12,0,0,0,1.07.69,10.62,10.62,0,0,0,1.13.53,11.07,11.07,0,0,0,2.37.63A11.74,11.74,0,0,0,53,46.8a10.06,10.06,0,0,0,1.21-.17c.19-.05.39-.1.59-.17a2,2,0,0,0,.4-.18c.6,1.32,1.15,2.66,1.64,4A32,32,0,0,1,58,53.92c0,.11,0,.23.08.35a9.4,9.4,0,0,1-1.29.52,3.41,3.41,0,0,1-1.35.14,1.81,1.81,0,0,0,.69.1,2.62,2.62,0,0,0,.69-.11A3.88,3.88,0,0,0,58,54.27a14.49,14.49,0,0,1,.37,3.41A11,11,0,0,0,58.36,55.78Z"/><path class="cls-19" d="M61.19,49.64a4.12,4.12,0,0,1-.18.69c-.08.22-.16.44-.26.65a8.67,8.67,0,0,1-.69,1.18,6.08,6.08,0,0,1-.88,1,3.36,3.36,0,0,1-.52.39,2.83,2.83,0,0,1-.58.28,3.42,3.42,0,0,0,.61-.22,4.81,4.81,0,0,0,.55-.37,5.11,5.11,0,0,0,.91-1A6.13,6.13,0,0,0,60.83,51,4.61,4.61,0,0,0,61.19,49.64Z"/><path class="cls-19" d="M46.54,34.75a2.45,2.45,0,0,0,1,.21,1.68,1.68,0,0,0,.5-.07,1.65,1.65,0,0,0,.46-.23,1.79,1.79,0,0,1-1,.2,3.22,3.22,0,0,1-1-.23,6.42,6.42,0,0,1-.9-.47q-.21-.13-.42-.3l-.41-.32a4.45,4.45,0,0,0,.79.71A4.4,4.4,0,0,0,46.54,34.75Z"/><path class="cls-19" d="M54,50.46a9,9,0,0,0,2.71-.57,7.82,7.82,0,0,1-1.35.33,12.46,12.46,0,0,1-1.37.14,13.32,13.32,0,0,1-2.75-.15,11,11,0,0,1-2.67-.78,8,8,0,0,1-2.36-1.62,6.71,6.71,0,0,0,1.09,1,7.07,7.07,0,0,0,1.24.73,10.37,10.37,0,0,0,2.68.82A12.32,12.32,0,0,0,54,50.46Z"/><path class="cls-19" d="M57,52.4A2.38,2.38,0,0,0,57.4,52a3.11,3.11,0,0,1-1,.61,6.69,6.69,0,0,1-1.07.35,10.87,10.87,0,0,1-2.2.29,16.61,16.61,0,0,1-2.23,0c-.75-.06-1.49-.16-2.23-.28.37.09.74.16,1.11.23s.74.12,1.11.16a15.25,15.25,0,0,0,2.24.08,10.54,10.54,0,0,0,2.23-.33,6.74,6.74,0,0,0,1.06-.39A4.91,4.91,0,0,0,57,52.4Z"/></g><g class="cls-22"><path class="cls-19" d="M57.5,69.37a15.46,15.46,0,0,1,1.14,1.4,31.94,31.94,0,0,1,1.92,3.13c.07.13.13.27.2.4a4.12,4.12,0,0,1,1-.5,5,5,0,0,1,1.12-.25,7.21,7.21,0,0,1,2.27.16,12,12,0,0,1,2.18.75,11.15,11.15,0,0,1,2,1.19c-.33-.21-.67-.41-1-.59s-.69-.35-1-.5a13.14,13.14,0,0,0-2.17-.72,7.67,7.67,0,0,0-2.24-.19,4.82,4.82,0,0,0-2.08.65c.51,1,1,2,1.41,3l.24.57a4,4,0,0,1,1.17-.26,5.23,5.23,0,0,1,1.25.09,6.85,6.85,0,0,1,2.33,1,9.85,9.85,0,0,1,2,1.74A12.52,12.52,0,0,1,70,81.43c.26.38.51.77.73,1.17a15.81,15.81,0,0,0-1.62-2.16,10.2,10.2,0,0,0-2-1.69,7.12,7.12,0,0,0-2.29-1,5,5,0,0,0-1.22-.12,4.34,4.34,0,0,0-1.18.19c.41,1,.79,1.94,1.15,2.93.23.64.45,1.28.66,1.93a1.39,1.39,0,0,1,.4-.06,3.87,3.87,0,0,1,.48,0,5.3,5.3,0,0,1,.93.24,6,6,0,0,1,1.71,1,7.45,7.45,0,0,1,1.42,1.49,10.4,10.4,0,0,1,.56.9c.17.31.33.64.47,1a11.24,11.24,0,0,0-1.1-1.8A8.08,8.08,0,0,0,67.68,84,6.51,6.51,0,0,0,66,83a5,5,0,0,0-.91-.27,3.78,3.78,0,0,0-.47-.06,1.08,1.08,0,0,0-.4,0c.18.55.36,1.11.53,1.67.25.86.49,1.72.71,2.6a2.37,2.37,0,0,1,.65,0,2.69,2.69,0,0,1,.65.24,3.75,3.75,0,0,1,1.14.89,6.15,6.15,0,0,1,.86,1.25,7,7,0,0,1,.58,1.44c-.09-.24-.19-.48-.3-.71s-.23-.46-.35-.68a7.51,7.51,0,0,0-.87-1.2,4.22,4.22,0,0,0-1.09-.9A3,3,0,0,0,65.46,87c.1.36.19.73.27,1.09.23,1,.44,2,.62,3.05a2.25,2.25,0,0,1,.35.09,3.2,3.2,0,0,1,.39.16,2.39,2.39,0,0,1,.69.55,2.91,2.91,0,0,1,.49.79,3.61,3.61,0,0,1,.27.92,7.49,7.49,0,0,0-.34-.87,3.56,3.56,0,0,0-.5-.74,2.83,2.83,0,0,0-.65-.55,2.64,2.64,0,0,0-.37-.2l-.33-.14a33.11,33.11,0,0,1,.49,4.56,37.25,37.25,0,0,0-.48-3.82c-.23-1.26-.49-2.51-.8-3.74-.09-.37-.19-.73-.29-1.1a2.35,2.35,0,0,0-.62.52,4.77,4.77,0,0,0-.53.72,8.82,8.82,0,0,0-.79,1.67,11.37,11.37,0,0,0-.49,1.82c-.05.31-.09.63-.11.95a4.38,4.38,0,0,0,.06,1,4.77,4.77,0,0,1,0-1.92,9.84,9.84,0,0,1,.47-1.85,8.18,8.18,0,0,1,.82-1.68,4.38,4.38,0,0,1,.56-.71,2.11,2.11,0,0,1,.66-.47c-.37-1.43-.79-2.85-1.26-4.24a2,2,0,0,0-.85.4,5.11,5.11,0,0,0-.81.74A9.72,9.72,0,0,0,61,85.77a12.11,12.11,0,0,0-.95,2.14,13.77,13.77,0,0,0-.56,2.32q.06-.6.18-1.2a11.74,11.74,0,0,1,1.23-3.33,9.36,9.36,0,0,1,1.35-1.85,5.17,5.17,0,0,1,.84-.72,2.37,2.37,0,0,1,.47-.25,1.23,1.23,0,0,1,.41-.1c-.21-.64-.43-1.27-.66-1.9-.35-1-.73-2-1.13-2.93a2.41,2.41,0,0,0-.36.29c-.16.14-.3.3-.45.46-.29.33-.55.68-.81,1a17,17,0,0,0-1.35,2.31,16.07,16.07,0,0,0-1,2.55,14.69,14.69,0,0,0-.56,2.73,10.91,10.91,0,0,1,.16-1.4c.08-.46.19-.91.31-1.36a15.79,15.79,0,0,1,2.38-4.9,10.35,10.35,0,0,1,.84-1c.14-.15.3-.3.46-.44a2.33,2.33,0,0,1,.37-.27c-.55-1.34-1.15-2.65-1.81-3.92a28.11,28.11,0,0,0-1.85-3.16l-.2-.29a10.69,10.69,0,0,0-1.13.88,4.2,4.2,0,0,0-.9,1.17,2.27,2.27,0,0,1,.34-.7,3,3,0,0,1,.49-.57,4,4,0,0,1,1.2-.78,11.37,11.37,0,0,0-2.14-2.38A8,8,0,0,1,57.5,69.37Z"/><path class="cls-19" d="M63.45,70.42a3.23,3.23,0,0,0-.58-.24,3.39,3.39,0,0,0-.61-.15A5.66,5.66,0,0,0,61,70a4.53,4.53,0,0,0-1.22.22,3.32,3.32,0,0,0-.59.24,3.23,3.23,0,0,0-.54.37,2.64,2.64,0,0,1,.52-.43,3.1,3.1,0,0,1,.58-.28A3.8,3.8,0,0,1,61,69.82a4.84,4.84,0,0,1,1.26.1A3.27,3.27,0,0,1,63.45,70.42Z"/><path class="cls-19" d="M65,92.9a3.45,3.45,0,0,1,.45-1,2.06,2.06,0,0,1,.35-.42,1.44,1.44,0,0,1,.43-.28,2.16,2.16,0,0,0-.71.76,4.35,4.35,0,0,0-.41,1,8.35,8.35,0,0,0-.21,1.11c0,.19,0,.38,0,.57a5.62,5.62,0,0,0,0,.58,5.61,5.61,0,0,1,0-1.16A6.31,6.31,0,0,1,65,92.9Z"/><path class="cls-19" d="M58.55,76.62a11,11,0,0,1,2-2.17,10.43,10.43,0,0,0-1,1.06c-.32.37-.63.77-.92,1.18a19.17,19.17,0,0,0-1.54,2.64A15.35,15.35,0,0,0,56,82.27a10.74,10.74,0,0,0-.29,3.15,9.46,9.46,0,0,1,0-1.6,10.58,10.58,0,0,1,.24-1.58,14.61,14.61,0,0,1,1-3A17.07,17.07,0,0,1,58.55,76.62Z"/><path class="cls-19" d="M59,72.69a2.07,2.07,0,0,1,.53-.18,2.8,2.8,0,0,0-1,.53,7.22,7.22,0,0,0-.88.78,13.85,13.85,0,0,0-1.53,1.87,22.18,22.18,0,0,0-1.3,2.09c-.41.72-.78,1.47-1.14,2.23.16-.39.33-.78.5-1.16s.37-.76.56-1.13A21.78,21.78,0,0,1,56,75.6a13.36,13.36,0,0,1,1.56-1.86,8.14,8.14,0,0,1,.91-.76C58.67,72.88,58.83,72.78,59,72.69Z"/></g><path class="cls-21" d="M59.58,55.45a6.48,6.48,0,0,1-.57.33,13.08,13.08,0,0,0-.79-4.25c-.19.73-.57.71-.57.71s-.78-3.85-1.53-4.27c-.63,1-.45,1-.79.48A7.29,7.29,0,0,0,53.12,46c-.1.18-.13.55-.21.69a14.23,14.23,0,0,0-2.24-1.38,7.69,7.69,0,0,1-.28.72,9.29,9.29,0,0,0-3.28-.68c0,.17,0,.36,0,.53A11,11,0,0,0,44,45.44c0,.17,0,.36,0,.53a23.69,23.69,0,0,0-2.67-.29c.09.23,0,.6.12.84-.72-.05-1.48-.27-2.18-.31,0,.18,0,.38,0,.55-.48,0-.94-.33-1.42-.33.68,1.11,1.88,1.63,2.5,2.82-.32,0-.73.13-1,.1.54.59,1.3.83,1.75,1.53a.53.53,0,0,1-.75.4,4.42,4.42,0,0,0,1.93,2.19c-.38.13-.48.49-.72.68a14.59,14.59,0,0,0,1.64,1.15c-.18.43-.48.66-.47,1.16.66.23,1.4,1.09,2,1.45-.26.19-.45.51-.81.63a18.16,18.16,0,0,0,2,1.64c-.18.37-.66.27-1.05.82.62.69,2.08.94,2.87,1.45-.21.18-.69.81-.89,1,.87.51,1.87.28,2.64.52-.11.22-.09.77-.18,1,1,.34,1.77-.26,2.79-.57-.24.28-.22.56-.37.87,1.37.48,7-.37,7.78-1.11C60.86,62.82,59.57,56.57,59.58,55.45Z"/><g class="cls-23"><path class="cls-19" d="M40.22,47.45a25.7,25.7,0,0,1,5.7,2.67c.91.55,1.8,1.15,2.68,1.77s1.73,1.28,2.57,2,1.66,1.41,2.45,2.17,1.57,1.53,2.3,2.37A25.8,25.8,0,0,1,58,61.05a15.35,15.35,0,0,1,.87,1.47,9.89,9.89,0,0,1,.66,1.61,12.17,12.17,0,0,0-1.63-3,26.28,26.28,0,0,0-2.09-2.59A45.4,45.4,0,0,0,51,54.09a52,52,0,0,0-5.2-3.77c-.9-.57-1.81-1.1-2.74-1.59A23.69,23.69,0,0,0,40.22,47.45Z"/><path class="cls-19" d="M58,61a3.14,3.14,0,0,0,.38-.5,3.37,3.37,0,0,0,.3-.56,6.74,6.74,0,0,0,.4-1.25,9.6,9.6,0,0,0,.18-1.31c0-.22,0-.45,0-.67a3.7,3.7,0,0,0-.07-.66,4.54,4.54,0,0,1,.17,1.33,6.82,6.82,0,0,1-.16,1.35A5.35,5.35,0,0,1,58.75,60a4,4,0,0,1-.34.56A2.63,2.63,0,0,1,58,61Z"/><path class="cls-19" d="M56.24,48.84a15.54,15.54,0,0,1,.54,2.36,16.71,16.71,0,0,1,.16,2.45,10.44,10.44,0,0,1-.31,2.43,6.35,6.35,0,0,1-.41,1.13,5,5,0,0,1-.63,1A6.14,6.14,0,0,0,56.54,56a10.69,10.69,0,0,0,.28-2.39,18,18,0,0,0-.14-2.43c0-.4-.11-.8-.19-1.2S56.34,49.23,56.24,48.84Z"/><path class="cls-19" d="M51.11,46c.27.32.53.65.77,1a11,11,0,0,1,.67,1.09,11.42,11.42,0,0,1,1,2.43,9.14,9.14,0,0,1,.3,2.66,6.55,6.55,0,0,1-.18,1.32,5.17,5.17,0,0,1-.45,1.23,5.2,5.2,0,0,0,.39-1.25,6.41,6.41,0,0,0,.14-1.31,9.57,9.57,0,0,0-.32-2.61,11.9,11.9,0,0,0-.93-2.41A14.46,14.46,0,0,0,51.11,46Z"/><path class="cls-19" d="M47.41,45.6a8.5,8.5,0,0,1,.66.68,7.47,7.47,0,0,1,.59.77,8.12,8.12,0,0,1,.9,1.79,8,8,0,0,1,.42,2,7.22,7.22,0,0,1,0,1c0,.17,0,.34-.07.51a2.08,2.08,0,0,1-.16.48,1.6,1.6,0,0,0,.12-.49,2.92,2.92,0,0,0,0-.51,6.78,6.78,0,0,0,0-1,8.68,8.68,0,0,0-.45-2,9,9,0,0,0-.85-1.77A10.45,10.45,0,0,0,47.41,45.6Z"/><path class="cls-19" d="M44.46,45.78a5,5,0,0,1,1,.89,5.6,5.6,0,0,1,.81,1.16,4.6,4.6,0,0,1,.47,1.38,4.52,4.52,0,0,1,.06.74,4.57,4.57,0,0,1-.1.73,4.4,4.4,0,0,0-.05-1.45,5,5,0,0,0-.49-1.33,7.38,7.38,0,0,0-.76-1.15c-.15-.18-.3-.35-.46-.51S44.63,45.93,44.46,45.78Z"/><path class="cls-19" d="M42.14,46.07a2.76,2.76,0,0,1,.67.46,2.62,2.62,0,0,1,.52.67,2.76,2.76,0,0,1,.29.85,3.33,3.33,0,0,1,.05.89,4.34,4.34,0,0,0-.44-1.66A4,4,0,0,0,42.14,46.07Z"/><path class="cls-19" d="M40.21,49.69l.45.09.45.06a4.5,4.5,0,0,0,.9,0,2.85,2.85,0,0,0,.87-.22,2.08,2.08,0,0,0,.74-.59,2,2,0,0,1-.3.4,2.27,2.27,0,0,1-.4.29A2.41,2.41,0,0,1,42,50a3.7,3.7,0,0,1-1.82-.29Z"/><path class="cls-19" d="M41,52.13a2.41,2.41,0,0,0,.73.24,3.81,3.81,0,0,0,.75.07,6.89,6.89,0,0,0,1.5-.16,5.77,5.77,0,0,0,1.45-.49,3.8,3.8,0,0,0,.66-.41,2.43,2.43,0,0,0,.55-.6,2.2,2.2,0,0,1-.51.65,4.12,4.12,0,0,1-.66.46,5.59,5.59,0,0,1-1.46.54,6.08,6.08,0,0,1-1.53.12A2.88,2.88,0,0,1,41,52.13Z"/><path class="cls-19" d="M43.05,56.25A8.17,8.17,0,0,0,45,56.1a7.47,7.47,0,0,0,1.83-.57,7.64,7.64,0,0,0,1.69-1,4.89,4.89,0,0,0,.73-.71,2,2,0,0,0,.5-.92,1.52,1.52,0,0,1-.17.52,2.66,2.66,0,0,1-.29.45,5.11,5.11,0,0,1-.72.75,7.27,7.27,0,0,1-1.69,1.06,7.72,7.72,0,0,1-1.87.55c-.31,0-.64.07-1,.08A7.72,7.72,0,0,1,43.05,56.25Z"/><path class="cls-19" d="M45,58.76a9.16,9.16,0,0,0,2.22,0,10.34,10.34,0,0,0,2.17-.56,11.57,11.57,0,0,0,2-1,7.71,7.71,0,0,0,1-.65,3.48,3.48,0,0,0,.84-.83,2.19,2.19,0,0,1-.37.48,4.17,4.17,0,0,1-.43.41,9.2,9.2,0,0,1-1,.69,11.18,11.18,0,0,1-2.06,1,9.94,9.94,0,0,1-2.2.53,8.32,8.32,0,0,1-1.12,0A7,7,0,0,1,45,58.76Z"/><path class="cls-19" d="M46.05,61.22a6,6,0,0,0,1.24.28,5.9,5.9,0,0,0,1.26,0A9.23,9.23,0,0,0,51,61a12.46,12.46,0,0,0,2.34-1.1,10,10,0,0,0,1.1-.73,7.66,7.66,0,0,0,1-.88A9.29,9.29,0,0,1,53.42,60a12.12,12.12,0,0,1-2.35,1.14,9.11,9.11,0,0,1-2.51.51,7.85,7.85,0,0,1-1.28-.07A5.38,5.38,0,0,1,46.05,61.22Z"/><path class="cls-19" d="M49.86,64.43c.66-.23,1.31-.48,1.94-.76a15.85,15.85,0,0,0,1.88-1,12.26,12.26,0,0,0,1.74-1.24,7,7,0,0,0,.77-.77,3.31,3.31,0,0,0,.61-.94,3.43,3.43,0,0,1-.56,1,7.34,7.34,0,0,1-.76.81,10.74,10.74,0,0,1-1.75,1.28,13.79,13.79,0,0,1-1.89.93l-1,.37Z"/><path class="cls-19" d="M56.1,63.13a3.51,3.51,0,0,0,1.07-.73,9.8,9.8,0,0,0,.9-1,4,4,0,0,1-.82,1.13,3.43,3.43,0,0,1-.54.4A1.7,1.7,0,0,1,56.1,63.13Z"/></g><path class="cls-21" d="M64.3,62.07c0,.25,0,.37,0,.62a6.43,6.43,0,0,1,2.77-1c-.34.46-.18.76-.18.76s2.54-.83,3.07-.35c-.32.91-.38.75,0,.84a4.86,4.86,0,0,1,2.32.91c-.07.16-.27.33-.32.46a12.9,12.9,0,0,1,1.69,1.36c-.14.12-.2.39-.32.51a10.75,10.75,0,0,1,1.69,2.53,3.3,3.3,0,0,1-.3.22,14.24,14.24,0,0,1,1.44,2.46c-.11.06-.21.14-.31.2.43.67.84,1.44,1.22,2.16-.17,0-.38.2-.54.22.32.6.74,1.15,1,1.74-.1.07-.21.16-.31.22.21.4.56.69.76,1.09-.92-.14-1.69-1-2.63-1,.15.28.21.68.36.94-.56-.22-1-.78-1.58-.9a.63.63,0,0,0,.07.8,2.8,2.8,0,0,1-2-.78c.07.36-.1.59-.11.87a12.77,12.77,0,0,1-1.31-1c-.18.32-.2.66-.49.85a14.75,14.75,0,0,0-1.64-1.17,3.12,3.12,0,0,0,0,.93A11.93,11.93,0,0,1,67,75.53c-.15.31.1.67-.07,1.22-.63-.26-1.36-1.4-2-1.88,0,.24-.21.9-.22,1.14-.64-.55-.9-1.48-1.35-2-.08.18-.41.37-.51.54a5.94,5.94,0,0,1-.76-2.61c-.07.33-.24.42-.36.66-.81-1-2.55-6.13-2.42-7.06C59.52,63.85,63.65,62.51,64.3,62.07Z"/><g class="cls-23"><path class="cls-19" d="M75.77,74.91a20.3,20.3,0,0,0-3.21-3.4c-.59-.51-1.2-1-1.82-1.44s-1.25-.9-1.9-1.32-1.31-.8-2-1.16a20.72,20.72,0,0,0-2.07-1,17,17,0,0,0-2.18-.74,8.62,8.62,0,0,0-1.13-.2,4.92,4.92,0,0,0-1.15,0,7.12,7.12,0,0,1,2.25.32,16.26,16.26,0,0,1,2.15.79,29,29,0,0,1,4,2.19,36.42,36.42,0,0,1,3.72,2.71c.6.49,1.18,1,1.73,1.55A18.4,18.4,0,0,1,75.77,74.91Z"/><path class="cls-19" d="M62.63,65.84a2.26,2.26,0,0,1,.19-.42,2.65,2.65,0,0,1,.26-.39,3.94,3.94,0,0,1,.64-.65,4.7,4.7,0,0,1,.74-.52l.4-.2a2.59,2.59,0,0,1,.42-.14,2.63,2.63,0,0,0-.85.27,4.28,4.28,0,0,0-.77.51A3.44,3.44,0,0,0,63,65a3.38,3.38,0,0,0-.24.41A2.64,2.64,0,0,0,62.63,65.84Z"/><path class="cls-19" d="M70.44,63.57a7.64,7.64,0,0,0-1.57.3,7.84,7.84,0,0,0-1.52.59,6.31,6.31,0,0,0-1.38.93,4.84,4.84,0,0,0-.56.64,3.44,3.44,0,0,0-.42.75,4.21,4.21,0,0,1,1-1.33,6.42,6.42,0,0,1,1.36-.9,10.72,10.72,0,0,1,1.5-.61l.78-.21A7.2,7.2,0,0,1,70.44,63.57Z"/><path class="cls-19" d="M73.6,66.5a7.92,7.92,0,0,0-.82-.28,8.33,8.33,0,0,0-.84-.17,6.34,6.34,0,0,0-1.74,0,5.35,5.35,0,0,0-1.68.55,4.36,4.36,0,0,0-.75.52,3.73,3.73,0,0,0-.62.69,4,4,0,0,1,.65-.65,4.21,4.21,0,0,1,.75-.49,5.44,5.44,0,0,1,1.66-.52,6.13,6.13,0,0,1,1.71,0A8.14,8.14,0,0,1,73.6,66.5Z"/><path class="cls-19" d="M74.87,69.1c-.2-.11-.4-.2-.6-.29a5.1,5.1,0,0,0-.63-.2,4.56,4.56,0,0,0-1.33-.14,4.27,4.27,0,0,0-1.32.28,3.6,3.6,0,0,0-.63.29l-.28.2a1,1,0,0,0-.25.26.94.94,0,0,1,.26-.23,1.75,1.75,0,0,1,.29-.18,3.52,3.52,0,0,1,.63-.27,4.83,4.83,0,0,1,1.3-.25,5.24,5.24,0,0,1,1.31.11A6.34,6.34,0,0,1,74.87,69.1Z"/><path class="cls-19" d="M75.58,71.32a3.39,3.39,0,0,0-.82-.48,3.23,3.23,0,0,0-.92-.26,2.39,2.39,0,0,0-1,.06,2.29,2.29,0,0,0-.46.17,2.42,2.42,0,0,0-.42.29,2.6,2.6,0,0,1,.89-.39,3,3,0,0,1,.94,0,4,4,0,0,1,.9.23,3.38,3.38,0,0,1,.44.18Z"/><path class="cls-19" d="M76.06,73.1a1.8,1.8,0,0,0-.47-.35,1.5,1.5,0,0,0-.55-.19,2,2,0,0,0-.59,0,1.92,1.92,0,0,0-.55.24A2.33,2.33,0,0,1,75,72.66,2.54,2.54,0,0,1,76.06,73.1Z"/><path class="cls-19" d="M74.42,75.58a1.92,1.92,0,0,1-.18-.31,3,3,0,0,1-.16-.31,4.06,4.06,0,0,1-.25-.66,2.45,2.45,0,0,1-.11-.71,1.78,1.78,0,0,1,.15-.71,1.5,1.5,0,0,0-.16.34,2.38,2.38,0,0,0-.06.37,2,2,0,0,0,.09.74,3.09,3.09,0,0,0,.68,1.25Z"/><path class="cls-19" d="M72.72,75.7a1.94,1.94,0,0,1-.34-.47,2.9,2.9,0,0,1-.26-.53,6.31,6.31,0,0,1-.32-1.15,5.36,5.36,0,0,1-.11-1.2,3.15,3.15,0,0,1,.06-.61,2.34,2.34,0,0,1,.2-.58,1.92,1.92,0,0,0-.24.57,3.21,3.21,0,0,0-.1.62,5.62,5.62,0,0,0,.09,1.23,5.78,5.78,0,0,0,.36,1.16A2.5,2.5,0,0,0,72.72,75.7Z"/><path class="cls-19" d="M69.67,75.41A8.24,8.24,0,0,1,69.23,74a7.08,7.08,0,0,1-.17-1.52,6.61,6.61,0,0,1,.14-1.53,3.92,3.92,0,0,1,.22-.74,1.44,1.44,0,0,1,.41-.64,1,1,0,0,0-.27.28,3.72,3.72,0,0,0-.19.34,4.69,4.69,0,0,0-.24.75A6.24,6.24,0,0,0,69,72.46a7.13,7.13,0,0,0,.2,1.53c.06.25.13.49.21.73S69.56,75.18,69.67,75.41Z"/><path class="cls-19" d="M67.63,74.75A8.52,8.52,0,0,1,67,73.1a10.14,10.14,0,0,1-.28-1.75,11.89,11.89,0,0,1,0-1.79,6.79,6.79,0,0,1,.12-.89,3.28,3.28,0,0,1,.26-.86,2.13,2.13,0,0,0-.18.41c0,.15-.09.29-.13.44-.06.3-.11.6-.14.9a10,10,0,0,0,0,1.81,9.53,9.53,0,0,0,.3,1.76,8.09,8.09,0,0,0,.28.83A7.18,7.18,0,0,0,67.63,74.75Z"/><path class="cls-19" d="M65.84,74.66a5.5,5.5,0,0,1-.52-.83,5.67,5.67,0,0,1-.36-.92,9.28,9.28,0,0,1-.38-2,11.58,11.58,0,0,1,0-2c0-.34.07-.68.13-1a8.56,8.56,0,0,1,.24-1,8.61,8.61,0,0,0-.45,2,11.82,11.82,0,0,0,0,2.06,8.37,8.37,0,0,0,.4,2,6.87,6.87,0,0,0,.39.92A5,5,0,0,0,65.84,74.66Z"/><path class="cls-19" d="M62.84,72.8c0-.55-.08-1.1-.09-1.65a13,13,0,0,1,.06-1.65,10.16,10.16,0,0,1,.25-1.64,7.24,7.24,0,0,1,.25-.79,2.42,2.42,0,0,1,.4-.72,2.13,2.13,0,0,0-.44.7,5.71,5.71,0,0,0-.28.79,10.34,10.34,0,0,0-.28,1.65,15.56,15.56,0,0,0,0,1.67c0,.27,0,.55.06.82S62.8,72.53,62.84,72.8Z"/><path class="cls-19" d="M61.87,67.85a3.31,3.31,0,0,1,.14-1,8.56,8.56,0,0,1,.36-1,3.2,3.2,0,0,0-.45.93,2.28,2.28,0,0,0-.09.51A1.8,1.8,0,0,0,61.87,67.85Z"/></g><path class="cls-24" d="M57,62.32c0,.14,0,.21,0,.36a3.81,3.81,0,0,0-1.66-.53c.22.26.13.44.13.44s-1.52-.44-1.82-.15c.2.53.24.44,0,.51a2.8,2.8,0,0,0-1.35.57c0,.09.16.19.2.27a6.36,6.36,0,0,0-1,.83c.08.07.13.23.19.3a6.69,6.69,0,0,0-.94,1.52l.18.13a7.55,7.55,0,0,0-.8,1.48l.19.1c-.24.41-.47.87-.68,1.3.1,0,.22.11.32.13-.17.36-.41.69-.58,1a2.14,2.14,0,0,1,.19.13c-.12.23-.32.41-.42.65.53-.1,1-.6,1.53-.66-.08.16-.11.4-.19.56.32-.14.57-.48.91-.55a.38.38,0,0,1,0,.47,1.71,1.71,0,0,0,1.19-.5c0,.21.06.34.08.51a6.94,6.94,0,0,0,.75-.59c.11.19.13.4.31.5.22-.29.69-.48.94-.72a1.61,1.61,0,0,1,0,.55,9.26,9.26,0,0,0,1-.66c.09.18-.05.4,0,.72.38-.16.78-.85,1.13-1.14,0,.14.14.52.15.66.37-.34.5-.89.75-1.23.06.11.25.21.31.31a3.28,3.28,0,0,0,.41-1.55c0,.19.14.24.22.38a12.58,12.58,0,0,0,1.29-4.21C59.88,63.28,57.42,62.56,57,62.32Z"/><g class="cls-25"><path class="cls-19" d="M50.31,70.27a13.29,13.29,0,0,1,2-2.25c.37-.34.76-.66,1.15-1s.79-.6,1.2-.88.82-.53,1.24-.77a13.22,13.22,0,0,1,1.3-.66,9.41,9.41,0,0,1,1.34-.5,5.78,5.78,0,0,1,.7-.14,2.81,2.81,0,0,1,.71,0,4.13,4.13,0,0,0-1.39.22,10.19,10.19,0,0,0-1.33.52,18.73,18.73,0,0,0-2.52,1.46,23.49,23.49,0,0,0-2.34,1.8c-.38.32-.74.66-1.1,1A12.3,12.3,0,0,0,50.31,70.27Z"/><path class="cls-19" d="M58.57,64.25a2.33,2.33,0,0,0-.11-.28,1.35,1.35,0,0,0-.15-.26,3,3,0,0,0-.37-.42A3.46,3.46,0,0,0,57.5,63l-.24-.13a1.34,1.34,0,0,0-.26-.09,1.47,1.47,0,0,1,.52.18,2.31,2.31,0,0,1,.45.32,2.74,2.74,0,0,1,.38.45,1.66,1.66,0,0,1,.13.27A1.71,1.71,0,0,1,58.57,64.25Z"/><path class="cls-19" d="M53.84,62.79a4.63,4.63,0,0,1,1,.18,5.2,5.2,0,0,1,.91.39,3.24,3.24,0,0,1,.82.61,2.2,2.2,0,0,1,.33.41,2.23,2.23,0,0,1,.24.49,2.55,2.55,0,0,0-.6-.87,3.53,3.53,0,0,0-.81-.58,5.15,5.15,0,0,0-.9-.4l-.47-.13A4.1,4.1,0,0,0,53.84,62.79Z"/><path class="cls-19" d="M51.84,64.72a4.78,4.78,0,0,1,1-.3,3.43,3.43,0,0,1,1.06,0,3,3,0,0,1,1,.35,3.46,3.46,0,0,1,.44.34,2,2,0,0,1,.36.45,2.6,2.6,0,0,0-.38-.43,3.19,3.19,0,0,0-.44-.31,2.88,2.88,0,0,0-1-.34,4.1,4.1,0,0,0-1.05,0A6.18,6.18,0,0,0,51.84,64.72Z"/><path class="cls-19" d="M51,66.44l.37-.19a3,3,0,0,1,.39-.14,2.83,2.83,0,0,1,.82-.09,2.49,2.49,0,0,1,.8.17,2.69,2.69,0,0,1,.38.19l.17.13a.58.58,0,0,1,.14.17.71.71,0,0,0-.15-.15l-.18-.12a2.48,2.48,0,0,0-.37-.17,2.78,2.78,0,0,0-.79-.16,3.18,3.18,0,0,0-.81.08A3.75,3.75,0,0,0,51,66.44Z"/><path class="cls-19" d="M50.51,67.9a2.29,2.29,0,0,1,.51-.32,2.33,2.33,0,0,1,.57-.17,1.46,1.46,0,0,1,.59,0,1.39,1.39,0,0,1,.28.12,1.08,1.08,0,0,1,.24.18,1.36,1.36,0,0,0-.53-.25,1.82,1.82,0,0,0-.57,0,2.75,2.75,0,0,0-.56.16,1.59,1.59,0,0,0-.27.12Z"/><path class="cls-19" d="M50.18,69.08a1,1,0,0,1,.29-.24,1,1,0,0,1,.34-.13,1.09,1.09,0,0,1,.36,0,1.24,1.24,0,0,1,.33.15,1.23,1.23,0,0,0-.68-.1A1.35,1.35,0,0,0,50.18,69.08Z"/><path class="cls-19" d="M51.12,70.69l.12-.2.1-.2a2.35,2.35,0,0,0,.17-.44,1.48,1.48,0,0,0,.08-.46,1.25,1.25,0,0,0-.07-.47.85.85,0,0,1,.09.22,1.9,1.9,0,0,1,0,.25,1.56,1.56,0,0,1-.08.48,2.21,2.21,0,0,1-.44.82Z"/><path class="cls-19" d="M52.15,70.77a1.78,1.78,0,0,0,.23-.31,3.73,3.73,0,0,0,.16-.35,3.93,3.93,0,0,0,.23-.76,4.17,4.17,0,0,0,.1-.79,2.69,2.69,0,0,0,0-.4,1.27,1.27,0,0,0-.11-.38,1.18,1.18,0,0,1,.14.37,1.9,1.9,0,0,1,0,.41,3.71,3.71,0,0,1-.08.81,4,4,0,0,1-.25.76A1.81,1.81,0,0,1,52.15,70.77Z"/><path class="cls-19" d="M54,70.56a5,5,0,0,0,.31-1,4.73,4.73,0,0,0,.14-1,4.85,4.85,0,0,0,0-1,3.74,3.74,0,0,0-.12-.48.88.88,0,0,0-.24-.42.46.46,0,0,1,.16.18,2.26,2.26,0,0,1,.11.22,2.72,2.72,0,0,1,.13.49,4.37,4.37,0,0,1,.06,1,5.73,5.73,0,0,1-.15,1l-.15.48A3.68,3.68,0,0,1,54,70.56Z"/><path class="cls-19" d="M55.29,70.12a5.83,5.83,0,0,0,.4-1.08,7.41,7.41,0,0,0,.21-1.16,6.51,6.51,0,0,0,0-1.17,3.92,3.92,0,0,0,0-.59,2.09,2.09,0,0,0-.14-.56.88.88,0,0,1,.1.27,2.46,2.46,0,0,1,.07.29c0,.19,0,.39.07.59a7.75,7.75,0,0,1,0,1.18,5.54,5.54,0,0,1-.23,1.16,3.58,3.58,0,0,1-.19.55A3.11,3.11,0,0,1,55.29,70.12Z"/><path class="cls-19" d="M56.39,70.05a3,3,0,0,0,.33-.54A4.6,4.6,0,0,0,57,68.9a6.27,6.27,0,0,0,.28-1.3,8.54,8.54,0,0,0,0-1.34,5,5,0,0,0,0-.67,4.67,4.67,0,0,0-.13-.65,5.29,5.29,0,0,1,.23,1.32,8.7,8.7,0,0,1,0,1.35,6.39,6.39,0,0,1-.3,1.31,4,4,0,0,1-.26.6A4.1,4.1,0,0,1,56.39,70.05Z"/><path class="cls-19" d="M58.27,68.82q.06-.54.09-1.08a9.93,9.93,0,0,0,0-1.09,6.61,6.61,0,0,0-.12-1.08,3.3,3.3,0,0,0-.13-.52,1.47,1.47,0,0,0-.23-.47,1.61,1.61,0,0,1,.26.46,5.08,5.08,0,0,1,.15.52,7.91,7.91,0,0,1,.13,1.09,9.91,9.91,0,0,1,0,1.09l-.06.54C58.33,68.46,58.3,68.64,58.27,68.82Z"/><path class="cls-19" d="M59,65.56a2.11,2.11,0,0,0-.06-.66,6.36,6.36,0,0,0-.19-.62,2.37,2.37,0,0,1,.25.61,1.86,1.86,0,0,1,0,.33A1.27,1.27,0,0,1,59,65.56Z"/></g><path class="cls-24" d="M59.54,59.77c.12,0,.17.09.29.15a6,6,0,0,1,.31-2.09c.11.35.3.34.3.34s.31-1.89.68-2.11c.32.47.23.47.4.22a3.52,3.52,0,0,1,1-1.26,3.54,3.54,0,0,1,.12.34,6.55,6.55,0,0,1,1.09-.71c0,.12.12.24.14.35a4.68,4.68,0,0,1,1.62-.39,2.28,2.28,0,0,1,0,.26,5.79,5.79,0,0,1,1.51-.24c0,.09,0,.18,0,.25.42-.08.89-.14,1.32-.18,0,.12,0,.3,0,.42.36,0,.73-.16,1.08-.19a2.26,2.26,0,0,0,0,.26c.24,0,.46-.17.7-.19-.31.56-.9.83-1.19,1.43.17,0,.37,0,.52,0-.25.3-.62.44-.83.78a.25.25,0,0,0,.37.18,2.19,2.19,0,0,1-.91,1.11c.19,0,.25.22.37.31a5.6,5.6,0,0,1-.79.59c.09.21.24.32.25.56-.32.13-.67.56-1,.74.14.08.23.24.42.3a10.34,10.34,0,0,1-1,.83c.09.18.34.11.54.38-.3.35-1,.5-1.4.76.11.07.35.38.46.46-.42.26-.92.16-1.3.3.06.1.06.37.11.48-.51.18-.88-.1-1.4-.24.13.14.13.28.2.42A8,8,0,0,1,59.73,64C59,63.38,59.56,60.31,59.54,59.77Z"/><g class="cls-25"><path class="cls-19" d="M68.59,55.76A12.09,12.09,0,0,0,66,57.08c-.41.26-.81.55-1.21.85s-.78.61-1.15.94-.75.67-1.1,1-.7.73-1,1.13a12.76,12.76,0,0,0-.91,1.24,7.87,7.87,0,0,0-.38.69,4,4,0,0,0-.29.75,6.14,6.14,0,0,1,.71-1.4,12.58,12.58,0,0,1,.94-1.21A20.29,20.29,0,0,1,63.72,59a23.59,23.59,0,0,1,2.33-1.82c.41-.27.82-.53,1.24-.77A11.93,11.93,0,0,1,68.59,55.76Z"/><path class="cls-19" d="M60.61,62.25a1,1,0,0,1-.18-.22,2.07,2.07,0,0,1-.15-.25,2.73,2.73,0,0,1-.19-.57,3.76,3.76,0,0,1-.1-.6c0-.1,0-.2,0-.3A3,3,0,0,1,60,60a2.56,2.56,0,0,0-.06.62,3.21,3.21,0,0,0,.09.61,2.18,2.18,0,0,0,.22.57,1.07,1.07,0,0,0,.16.25A1,1,0,0,0,60.61,62.25Z"/><path class="cls-19" d="M61.27,56.65a5.69,5.69,0,0,0-.22,1.09,7.07,7.07,0,0,0,0,1.13,4.51,4.51,0,0,0,.17,1.1,3,3,0,0,0,.2.52,2.83,2.83,0,0,0,.3.44,3,3,0,0,1-.46-1,5.11,5.11,0,0,1-.15-1.1,6.86,6.86,0,0,1,0-1.11c0-.19,0-.37.07-.56A5.17,5.17,0,0,1,61.27,56.65Z"/><path class="cls-19" d="M63.58,55.26a5.66,5.66,0,0,0-.34.47,4.21,4.21,0,0,0-.29.51,5.26,5.26,0,0,0-.42,1.13,4.55,4.55,0,0,0-.11,1.22,4.09,4.09,0,0,0,.1.61,2.63,2.63,0,0,0,.22.55,2.84,2.84,0,0,1-.19-.56,3.09,3.09,0,0,1-.08-.6,4,4,0,0,1,.12-1.2A5.39,5.39,0,0,1,63,56.26,7.16,7.16,0,0,1,63.58,55.26Z"/><path class="cls-19" d="M65.28,55a2.35,2.35,0,0,0-.3.33,3.32,3.32,0,0,0-.26.36,4.19,4.19,0,0,0-.39.83,3.64,3.64,0,0,0-.17.93,2.44,2.44,0,0,0,0,.47,2,2,0,0,0,0,.24.52.52,0,0,0,.07.21.71.71,0,0,1-.06-.22,1.64,1.64,0,0,1,0-.23,3.69,3.69,0,0,1,0-.47,4.49,4.49,0,0,1,.18-.9,3.89,3.89,0,0,1,.37-.83A4.18,4.18,0,0,1,65.28,55Z"/><path class="cls-19" d="M66.63,55.06a2,2,0,0,0-.45.43,2.54,2.54,0,0,0-.36.54,2,2,0,0,0-.2.64,1.94,1.94,0,0,0,0,.34,1.91,1.91,0,0,0,.06.33,1.83,1.83,0,0,1,0-.66,2.16,2.16,0,0,1,.21-.62,3.06,3.06,0,0,1,.34-.54l.2-.24Z"/><path class="cls-19" d="M67.7,55.16a1.26,1.26,0,0,0-.31.22,1.24,1.24,0,0,0-.23.32,1.27,1.27,0,0,0-.12.39,1.86,1.86,0,0,0,0,.41,2.17,2.17,0,0,1,.18-.77A1.79,1.79,0,0,1,67.7,55.16Z"/><path class="cls-19" d="M68.62,56.79l-.2.05-.21,0a2.81,2.81,0,0,1-.41,0,1.37,1.37,0,0,1-.4-.09.78.78,0,0,1-.34-.26.49.49,0,0,0,.14.18,1.18,1.18,0,0,0,.18.13,1,1,0,0,0,.42.11,1.49,1.49,0,0,0,.42,0A1.7,1.7,0,0,0,68.62,56.79Z"/><path class="cls-19" d="M68.28,57.92A.93.93,0,0,1,68,58a2,2,0,0,1-.34,0,2.65,2.65,0,0,1-.69,0,2.25,2.25,0,0,1-.67-.2,1.92,1.92,0,0,1-.31-.18,1.07,1.07,0,0,1-.26-.26,1.13,1.13,0,0,0,.24.29,2,2,0,0,0,.31.2,2.46,2.46,0,0,0,.68.22,2.35,2.35,0,0,0,.7,0A1.35,1.35,0,0,0,68.28,57.92Z"/><path class="cls-19" d="M67.4,59.84a4,4,0,0,1-1.73-.27,3.55,3.55,0,0,1-.78-.44,2,2,0,0,1-.34-.31,1,1,0,0,1-.24-.41.63.63,0,0,0,.08.23,1.43,1.43,0,0,0,.14.2,1.52,1.52,0,0,0,.34.33,3,3,0,0,0,.78.46,3.27,3.27,0,0,0,.87.22,3.15,3.15,0,0,0,.44,0Z"/><path class="cls-19" d="M66.56,61a3.87,3.87,0,0,1-1,0,5,5,0,0,1-1-.22,4.7,4.7,0,0,1-1-.41,2.6,2.6,0,0,1-.45-.28,1.4,1.4,0,0,1-.4-.37,1.24,1.24,0,0,0,.18.22l.2.18a3.52,3.52,0,0,0,.45.3,4.77,4.77,0,0,0,.95.43,4.41,4.41,0,0,0,1,.2,3,3,0,0,0,.52,0A3,3,0,0,0,66.56,61Z"/><path class="cls-19" d="M66.08,62.17a2.19,2.19,0,0,1-.56.14,3.86,3.86,0,0,1-.58,0,4.57,4.57,0,0,1-1.15-.21,5.7,5.7,0,0,1-1.08-.47,3.36,3.36,0,0,1-.51-.32,3.48,3.48,0,0,1-.48-.38,4.13,4.13,0,0,0,1,.75,5.56,5.56,0,0,0,1.09.48,4.22,4.22,0,0,0,1.16.2,3.79,3.79,0,0,0,.58,0A2.81,2.81,0,0,0,66.08,62.17Z"/><path class="cls-19" d="M64.37,63.7c-.3-.1-.6-.2-.9-.32A7.63,7.63,0,0,1,62.6,63a5.19,5.19,0,0,1-.81-.54,2.9,2.9,0,0,1-.36-.34,1.37,1.37,0,0,1-.29-.42,1.25,1.25,0,0,0,.27.44,4,4,0,0,0,.35.36,5,5,0,0,0,.82.56,5.8,5.8,0,0,0,.88.4l.45.15Z"/><path class="cls-19" d="M61.5,63.2a1.47,1.47,0,0,1-.5-.32,6,6,0,0,1-.43-.44,1.92,1.92,0,0,0,.39.5,1,1,0,0,0,.25.17A.75.75,0,0,0,61.5,63.2Z"/></g></g></g></svg>