<svg width="112" height="110" viewBox="0 0 112 110" fill="none" xmlns="http://www.w3.org/2000/svg">
<path d="M87.8348 9.70871C87.8348 9.70871 107.477 26.3106 106.298 51.7233C105.12 77.136 90.3134 98.7138 66.8182 104.298C48.9629 108.535 24.1208 105.588 12.7379 94.2523L87.8348 9.70871Z" fill="#774115"/>
<path d="M62.6092 102.371C62.6233 104.459 62.8299 106.541 63.2265 108.591C63.451 109.769 65.2561 109.264 65.0223 108.086C64.6737 106.2 64.4921 104.288 64.4798 102.371C64.4798 102.123 64.3813 101.885 64.2059 101.71C64.0305 101.534 63.7926 101.436 63.5445 101.436C63.2965 101.436 63.0585 101.534 62.8831 101.71C62.7077 101.885 62.6092 102.123 62.6092 102.371Z" fill="#EAA33D"/>
<path d="M77.9017 97.6382C79.1117 99.2 80.1614 100.88 81.035 102.652C81.6149 103.699 83.233 102.764 82.6438 101.716C81.69 99.8131 80.5462 98.0112 79.2299 96.3381C78.4442 95.4028 77.1254 96.7403 77.9017 97.6569V97.6382Z" fill="#EAA33D"/>
<path d="M83.682 82.8134C84.7293 83.5434 85.6979 84.3803 86.5721 85.3107C87.3391 86.246 88.6579 84.9085 87.8909 83.9919C87.0169 83.0586 86.0483 82.2185 85.0008 81.4852C84.8256 81.311 84.5885 81.2133 84.3414 81.2133C84.0943 81.2133 83.8572 81.311 83.682 81.4852C83.5943 81.5722 83.5247 81.6756 83.4773 81.7896C83.4298 81.9036 83.4053 82.0258 83.4053 82.1493C83.4053 82.2728 83.4298 82.395 83.4773 82.509C83.5247 82.623 83.5943 82.7264 83.682 82.8134V82.8134Z" fill="#EAA33D"/>
<path d="M93.531 66.015C94.7843 66.7352 95.9909 67.5209 97.1974 68.3253C98.1982 68.9893 99.1335 67.3899 98.1327 66.7072C96.9262 65.9121 95.7196 65.1171 94.4663 64.3969C94.2525 64.2851 94.0038 64.2602 93.7721 64.3274C93.5405 64.3946 93.3437 64.5488 93.223 64.7576C93.1022 64.9665 93.0669 65.2139 93.1243 65.4482C93.1817 65.6825 93.3274 65.8856 93.531 66.015Z" fill="#EAA33D"/>
<path d="M99.1428 51.1247C100.158 51.1465 101.17 51.2623 102.164 51.4708C103.342 51.7046 103.848 49.8994 102.66 49.6656C101.502 49.421 100.325 49.2832 99.1428 49.2541C98.8948 49.2541 98.6569 49.3526 98.4815 49.528C98.3061 49.7034 98.2075 49.9413 98.2075 50.1894C98.2075 50.4375 98.3061 50.6754 98.4815 50.8508C98.6569 51.0262 98.8948 51.1247 99.1428 51.1247Z" fill="#EAA33D"/>
<path d="M100.377 33.1759C101.805 33.0144 103.221 32.7582 104.614 32.409C104.854 32.3432 105.057 32.1851 105.18 31.9693C105.303 31.7536 105.335 31.4979 105.269 31.2585C105.203 31.0191 105.045 30.8157 104.83 30.6929C104.614 30.5701 104.358 30.5381 104.119 30.6038C102.724 30.9516 101.309 31.2109 99.8818 31.3801C98.6939 31.5485 99.199 33.3443 100.377 33.1759Z" fill="#EAA33D"/>
<path d="M97.3284 22.1111C98.4882 21.5031 99.4422 20.5959 100.602 19.9879C101.762 19.3799 100.724 17.818 99.6667 18.3791C98.6098 18.9403 97.5528 19.8944 96.3931 20.493C95.2333 21.0916 96.2715 22.6723 97.3284 22.1111V22.1111Z" fill="#EAA33D"/>
<path d="M106.485 46.5042C108.028 46.4776 109.57 46.5401 111.106 46.6913C112.303 46.8316 112.293 44.9609 111.106 44.8206C109.57 44.6694 108.028 44.607 106.485 44.6336C106.237 44.6336 105.999 44.7321 105.824 44.9075C105.648 45.0829 105.55 45.3208 105.55 45.5689C105.55 45.817 105.648 46.0549 105.824 46.2303C105.999 46.4057 106.237 46.5042 106.485 46.5042Z" fill="#EAA33D"/>
<path d="M103.127 64.4717C104.407 65.0703 105.786 65.4286 107.196 65.5286C107.314 65.5613 107.438 65.5702 107.56 65.555C107.682 65.5397 107.8 65.5006 107.907 65.4398C108.014 65.379 108.108 65.2977 108.183 65.2006C108.258 65.1035 108.314 64.9925 108.346 64.8739C108.413 64.6358 108.382 64.3811 108.261 64.1656C108.14 63.95 107.939 63.791 107.701 63.7235C106.448 63.6586 105.218 63.3638 104.072 62.8536C103.015 62.2737 102.07 63.8825 103.137 64.4717H103.127Z" fill="#EAA33D"/>
<path d="M96.0001 83.0004C96.7543 83.6244 97.5997 84.1291 98.5068 84.4969C98.7206 84.6088 98.9693 84.6337 99.2009 84.5665C99.4326 84.4992 99.6294 84.3451 99.7501 84.1363C99.8708 83.9274 99.9062 83.68 99.8488 83.4456C99.7914 83.2113 99.6457 83.0083 99.4421 82.8788C98.6768 82.5918 97.9606 82.188 97.3189 81.6816C96.4491 80.8492 95.1209 82.168 95.9908 83.0004H96.0001Z" fill="#EAA33D"/>
<path d="M44.3517 104.045C43.967 104.916 43.6542 105.817 43.4164 106.739C43.1639 107.917 44.9691 108.413 45.2216 107.235C45.4551 106.311 45.7681 105.41 46.1569 104.541C46.1896 104.422 46.1985 104.299 46.1833 104.177C46.168 104.055 46.1289 103.937 46.0681 103.83C46.0073 103.723 45.926 103.629 45.8289 103.554C45.7318 103.478 45.6208 103.423 45.5022 103.39C45.3837 103.358 45.2599 103.349 45.1379 103.364C45.0159 103.379 44.8981 103.418 44.7912 103.479C44.6844 103.54 44.5906 103.621 44.5152 103.718C44.4398 103.816 44.3842 103.927 44.3517 104.045Z" fill="#EAA33D"/>
<path d="M80.4927 4.16227C60.3272 -6.02337 27.5349 2.2355 9.63285 31.6981C-8.26919 61.1607 0.447997 91.9702 22.1474 99.6678C39.8531 105.953 74.1326 96.5907 88.1904 67.3245C101.65 39.2836 98.0113 13.0198 80.4927 4.16227Z" fill="#ABBD1D"/>
<path d="M16.7598 30.5477C16.7598 30.5477 23.6906 37.8619 22.1473 43.0248C20.604 48.1878 9.81976 48.2626 9.81976 48.2626C9.81976 48.2626 20.0335 52.1162 19.6406 56.5402C19.2478 60.9643 8.85638 66.4079 8.85638 66.4079C8.85638 66.4079 19.837 65.0142 21.5674 69.2138C23.2977 73.4134 12.9063 83.1127 12.9063 83.1127C12.9063 83.1127 24.2611 74.8257 28.3111 76.4719C32.361 78.1181 28.3111 91.3903 28.3111 91.3903C28.3111 91.3903 34.082 80.2225 39.8623 79.2311C45.6425 78.2397 46.2131 91.3903 46.2131 91.3903C46.2131 91.3903 46.9894 79.0721 53.5367 76.4719C60.0839 73.8717 66.8182 84.2725 66.8182 84.2725C66.8182 84.2725 60.0839 71.178 66.8182 67.5115C73.5525 63.8451 82.2229 65.5941 82.2229 65.5941C82.2229 65.5941 70.6717 61.1607 73.7489 53.0702C76.8261 44.9797 86.2635 46.3639 86.2635 46.3639C86.2635 46.3639 74.5252 43.0997 74.5252 36.7301C74.5252 30.3606 86.2635 26.6941 86.2635 26.6941C86.2635 26.6941 74.703 29.9771 71.2423 25.1602C67.7816 20.3433 72.7855 11.3923 72.7855 11.3923C72.7855 11.3923 65.8548 19.9505 60.0839 19.8102C54.313 19.6699 53.5367 6.91211 53.5367 6.91211C53.5367 6.91211 51.03 20.9513 44.2863 22.3823C37.5427 23.8134 32.1272 14.1796 32.1272 14.1796C32.1272 14.1796 35.4288 26.4977 30.6213 29.9304C25.8137 33.363 16.7598 30.5477 16.7598 30.5477Z" fill="#C4C937"/>
<path d="M63.3762 27.2273C53.3589 22.1672 37.0843 26.292 28.1988 40.8923C19.3132 55.4927 23.6438 70.8226 34.4093 74.6293C43.2013 77.7533 60.2148 73.1047 67.1923 58.5699C73.8892 44.671 72.0653 31.6233 63.3762 27.2273Z" fill="#FDF7AD"/>
<path d="M26.9642 36.1315H27.1232C27.4116 36.1056 27.6799 35.9726 27.8752 35.7589C28.0706 35.5451 28.1789 35.266 28.1789 34.9764C28.1789 34.6868 28.0706 34.4077 27.8752 34.194C27.6799 33.9802 27.4116 33.8473 27.1232 33.8213H26.9361C26.6478 33.8505 26.381 33.9867 26.188 34.2028C25.9951 34.419 25.89 34.6995 25.8935 34.9892C25.897 35.279 26.0089 35.5569 26.207 35.7683C26.4052 35.9797 26.6753 36.1093 26.9642 36.1315V36.1315Z" fill="#2D161F"/>
<path d="M24.654 40.3685H24.841C25.1294 40.3426 25.3977 40.2096 25.5931 39.9959C25.7884 39.7821 25.8968 39.503 25.8968 39.2134C25.8968 38.9238 25.7884 38.6447 25.5931 38.431C25.3977 38.2172 25.1294 38.0843 24.841 38.0583H24.654C24.3655 38.0843 24.0973 38.2172 23.9019 38.431C23.7065 38.6447 23.5982 38.9238 23.5982 39.2134C23.5982 39.503 23.7065 39.7821 23.9019 39.9959C24.0973 40.2096 24.3655 40.3426 24.654 40.3685V40.3685Z" fill="#2D161F"/>
<path d="M32.5481 34.7847H32.7351C33.0235 34.7587 33.2918 34.6258 33.4872 34.412C33.6825 34.1982 33.7909 33.9191 33.7909 33.6295C33.7909 33.34 33.6825 33.0609 33.4872 32.8471C33.2918 32.6333 33.0235 32.5004 32.7351 32.4744H32.5481C32.2596 32.5004 31.9914 32.6333 31.796 32.8471C31.6006 33.0609 31.4923 33.34 31.4923 33.6295C31.4923 33.9191 31.6006 34.1982 31.796 34.412C31.9914 34.6258 32.2596 34.7587 32.5481 34.7847Z" fill="#2D161F"/>
<path d="M29.078 37.8619C29.3664 37.8359 29.6346 37.703 29.83 37.4892C30.0254 37.2755 30.1337 36.9963 30.1337 36.7068C30.1337 36.4172 30.0254 36.1381 29.83 35.9243C29.6346 35.7106 29.3664 35.5776 29.078 35.5516C28.7895 35.5776 28.5213 35.7106 28.3259 35.9243C28.1305 36.1381 28.0222 36.4172 28.0222 36.7068C28.0222 36.9963 28.1305 37.2755 28.3259 37.4892C28.5213 37.703 28.7895 37.8359 29.078 37.8619V37.8619Z" fill="#2D161F"/>
<path d="M33.5114 36.1315C33.223 36.1575 32.9547 36.2904 32.7593 36.5042C32.564 36.718 32.4556 36.9971 32.4556 37.2867C32.4556 37.5762 32.564 37.8553 32.7593 38.0691C32.9547 38.2829 33.223 38.4158 33.5114 38.4418C33.7998 38.4158 34.0681 38.2829 34.2634 38.0691C34.4588 37.8553 34.5671 37.5762 34.5671 37.2867C34.5671 36.9971 34.4588 36.718 34.2634 36.5042C34.0681 36.2904 33.7998 36.1575 33.5114 36.1315V36.1315Z" fill="#2D161F"/>
<path d="M34.2783 29.5843H34.4748C34.7632 29.5583 35.0314 29.4254 35.2268 29.2116C35.4222 28.9978 35.5305 28.7187 35.5305 28.4292C35.5305 28.1396 35.4222 27.8605 35.2268 27.6467C35.0314 27.4329 34.7632 27.3 34.4748 27.274H34.2783C33.9899 27.3 33.7217 27.4329 33.5263 27.6467C33.3309 27.8605 33.2226 28.1396 33.2226 28.4292C33.2226 28.7187 33.3309 28.9978 33.5263 29.2116C33.7217 29.4254 33.9899 29.5583 34.2783 29.5843V29.5843Z" fill="#2D161F"/>
<path d="M37.552 29.2008H37.3556C37.0671 29.2268 36.7989 29.3597 36.6035 29.5735C36.4081 29.7872 36.2998 30.0663 36.2998 30.3559C36.2998 30.6455 36.4081 30.9246 36.6035 31.1384C36.7989 31.3521 37.0671 31.4851 37.3556 31.511H37.552C37.8404 31.4851 38.1087 31.3521 38.304 31.1384C38.4994 30.9246 38.6077 30.6455 38.6077 30.3559C38.6077 30.0663 38.4994 29.7872 38.304 29.5735C38.1087 29.3597 37.8404 29.2268 37.552 29.2008V29.2008Z" fill="#2D161F"/>
<path d="M35.8217 35.5423C36.1101 35.5163 36.3784 35.3834 36.5737 35.1696C36.7691 34.9558 36.8774 34.6767 36.8774 34.3871C36.8774 34.0976 36.7691 33.8185 36.5737 33.6047C36.3784 33.3909 36.1101 33.258 35.8217 33.232C35.5333 33.258 35.265 33.3909 35.0696 33.6047C34.8743 33.8185 34.7659 34.0976 34.7659 34.3871C34.7659 34.6767 34.8743 34.9558 35.0696 35.1696C35.265 35.3834 35.5333 35.5163 35.8217 35.5423Z" fill="#2D161F"/>
<path d="M44.0992 30.7347C44.3876 30.7087 44.6559 30.5758 44.8513 30.362C45.0466 30.1483 45.155 29.8692 45.155 29.5796C45.155 29.29 45.0466 29.0109 44.8513 28.7971C44.6559 28.5834 44.3876 28.4504 44.0992 28.4245C43.8108 28.4504 43.5425 28.5834 43.3472 28.7971C43.1518 29.0109 43.0435 29.29 43.0435 29.5796C43.0435 29.8692 43.1518 30.1483 43.3472 30.362C43.5425 30.5758 43.8108 30.7087 44.0992 30.7347V30.7347Z" fill="#2D161F"/>
<path d="M38.6276 25.2537C38.4818 25.0677 38.2818 24.9316 38.0552 24.8642C37.8286 24.7967 37.5867 24.8013 37.3629 24.8773C37.139 24.9533 36.9443 25.0969 36.8056 25.2883C36.6669 25.4797 36.5911 25.7095 36.5886 25.9459C36.5821 26.1245 36.6125 26.3026 36.6778 26.469C36.7432 26.6353 36.8422 26.7864 36.9686 26.9128C37.095 27.0392 37.2461 27.1382 37.4124 27.2036C37.5788 27.2689 37.7569 27.2993 37.9355 27.2927C38.1719 27.2903 38.4016 27.2144 38.5931 27.0758C38.7845 26.9371 38.9281 26.7423 39.0041 26.5185C39.0801 26.2947 39.0847 26.0528 39.0172 25.8262C38.9498 25.5996 38.8137 25.3996 38.6276 25.2537V25.2537ZM38.0758 25.0012C38.0229 24.9959 37.9697 24.9959 37.9168 25.0012H38.0758ZM38.8989 25.9365C38.9042 25.8837 38.9042 25.8304 38.8989 25.7775V25.9365Z" fill="#2D161F"/>
<path d="M44.0992 25.7308H44.3424C44.6308 25.7048 44.8991 25.5718 45.0944 25.3581C45.2898 25.1443 45.3981 24.8652 45.3981 24.5756C45.3981 24.2861 45.2898 24.0069 45.0944 23.7932C44.8991 23.5794 44.6308 23.4465 44.3424 23.4205H44.0992C43.8108 23.4465 43.5425 23.5794 43.3472 23.7932C43.1518 24.0069 43.0435 24.2861 43.0435 24.5756C43.0435 24.8652 43.1518 25.1443 43.3472 25.3581C43.5425 25.5718 43.8108 25.7048 44.0992 25.7308V25.7308Z" fill="#2D161F"/>
<path d="M40.2176 30.7347C40.506 30.7087 40.7743 30.5758 40.9697 30.362C41.165 30.1483 41.2734 29.8692 41.2734 29.5796C41.2734 29.29 41.165 29.0109 40.9697 28.7971C40.7743 28.5834 40.506 28.4504 40.2176 28.4245C39.9292 28.4504 39.6609 28.5834 39.4656 28.7971C39.2702 29.0109 39.1619 29.29 39.1619 29.5796C39.1619 29.8692 39.2702 30.1483 39.4656 30.362C39.6609 30.5758 39.9292 30.7087 40.2176 30.7347V30.7347Z" fill="#2D161F"/>
<path d="M49.8795 24.5803C50.1679 24.5543 50.4362 24.4214 50.6315 24.2076C50.8269 23.9939 50.9352 23.7148 50.9352 23.4252C50.9352 23.1356 50.8269 22.8565 50.6315 22.6427C50.4362 22.429 50.1679 22.296 49.8795 22.2701C49.5911 22.296 49.3228 22.429 49.1274 22.6427C48.9321 22.8565 48.8237 23.1356 48.8237 23.4252C48.8237 23.7148 48.9321 23.9939 49.1274 24.2076C49.3228 24.4214 49.5911 24.5543 49.8795 24.5803V24.5803Z" fill="#2D161F"/>
<path d="M47.7564 23.6169C47.468 23.6429 47.1997 23.7758 47.0043 23.9896C46.809 24.2034 46.7006 24.4825 46.7006 24.772C46.7006 25.0616 46.809 25.3407 47.0043 25.5545C47.1997 25.7683 47.468 25.9012 47.7564 25.9272C48.0448 25.9012 48.3131 25.7683 48.5084 25.5545C48.7038 25.3407 48.8121 25.0616 48.8121 24.772C48.8121 24.4825 48.7038 24.2034 48.5084 23.9896C48.3131 23.7758 48.0448 23.6429 47.7564 23.6169V23.6169Z" fill="#2D161F"/>
<path d="M49.2996 29.2008C49.588 29.1748 49.8563 29.0419 50.0517 28.8281C50.247 28.6144 50.3554 28.3353 50.3554 28.0457C50.3554 27.7561 50.247 27.477 50.0517 27.2632C49.8563 27.0495 49.588 26.9165 49.2996 26.8905H49.0845C48.7961 26.9165 48.5278 27.0495 48.3324 27.2632C48.1371 27.477 48.0287 27.7561 48.0287 28.0457C48.0287 28.3353 48.1371 28.6144 48.3324 28.8281C48.5278 29.0419 48.7961 29.1748 49.0845 29.2008H49.2996Z" fill="#2D161F"/>
<path d="M55.9965 23.9162C56.0444 23.6615 56.0056 23.3981 55.8864 23.168C55.7671 22.938 55.5742 22.7544 55.3384 22.6468C55.1027 22.5391 54.8377 22.5136 54.5857 22.5741C54.3337 22.6347 54.1092 22.7779 53.9481 22.9809C53.8176 23.0806 53.7124 23.2096 53.6409 23.3574C53.5694 23.5053 53.5337 23.6679 53.5366 23.8321C53.5366 24.1381 53.6575 24.4316 53.873 24.6489C54.0885 24.8661 54.3811 24.9894 54.687 24.9919C54.9936 24.983 55.2886 24.8725 55.5256 24.6778C55.7626 24.4832 55.9282 24.2153 55.9965 23.9162V23.9162ZM54.369 22.7284L54.4813 22.6723H54.687C54.5795 22.6811 54.4731 22.6999 54.369 22.7284V22.7284Z" fill="#2D161F"/>
<path d="M54.3036 20.1469V19.9505C54.2776 19.6621 54.1447 19.3938 53.9309 19.1984C53.7172 19.0031 53.4381 18.8947 53.1485 18.8947C52.8589 18.8947 52.5798 19.0031 52.366 19.1984C52.1523 19.3938 52.0193 19.6621 51.9933 19.9505V20.1469C52.0193 20.4353 52.1523 20.7036 52.366 20.8989C52.5798 21.0943 52.8589 21.2026 53.1485 21.2026C53.4381 21.2026 53.7172 21.0943 53.9309 20.8989C54.1447 20.7036 54.2776 20.4353 54.3036 20.1469V20.1469Z" fill="#2D161F"/>
<path d="M58.3441 24.9638C58.6326 24.9378 58.9008 24.8049 59.0962 24.5911C59.2916 24.3774 59.3999 24.0983 59.3999 23.8087C59.3999 23.5191 59.2916 23.24 59.0962 23.0262C58.9008 22.8125 58.6326 22.6795 58.3441 22.6535C58.0557 22.6795 57.7875 22.8125 57.5921 23.0262C57.3967 23.24 57.2884 23.5191 57.2884 23.8087C57.2884 24.0983 57.3967 24.3774 57.5921 24.5911C57.7875 24.8049 58.0557 24.9378 58.3441 24.9638V24.9638Z" fill="#2D161F"/>
<path d="M53.1438 25.3473H52.9006C52.6122 25.3733 52.3439 25.5062 52.1485 25.7199C51.9532 25.9337 51.8448 26.2128 51.8448 26.5024C51.8448 26.792 51.9532 27.0711 52.1485 27.2848C52.3439 27.4986 52.6122 27.6315 52.9006 27.6575H53.1438C53.4322 27.6315 53.7005 27.4986 53.8958 27.2848C54.0912 27.0711 54.1995 26.792 54.1995 26.5024C54.1995 26.2128 54.0912 25.9337 53.8958 25.7199C53.7005 25.5062 53.4322 25.3733 53.1438 25.3473V25.3473Z" fill="#2D161F"/>
<path d="M60.271 25.3473H60.0839C59.7955 25.3733 59.5272 25.5062 59.3318 25.7199C59.1365 25.9337 59.0281 26.2128 59.0281 26.5024C59.0281 26.792 59.1365 27.0711 59.3318 27.2848C59.5272 27.4986 59.7955 27.6315 60.0839 27.6575H60.271C60.5594 27.6315 60.8276 27.4986 61.023 27.2848C61.2184 27.0711 61.3267 26.792 61.3267 26.5024C61.3267 26.2128 61.2184 25.9337 61.023 25.7199C60.8276 25.5062 60.5594 25.3733 60.271 25.3473Z" fill="#2D161F"/>
<path d="M65.2749 24.9638H65.4713C65.7597 24.9378 66.028 24.8049 66.2233 24.5911C66.4187 24.3774 66.527 24.0983 66.527 23.8087C66.527 23.5191 66.4187 23.24 66.2233 23.0262C66.028 22.8125 65.7597 22.6795 65.4713 22.6535H65.2749C64.9865 22.6795 64.7182 22.8125 64.5228 23.0262C64.3275 23.24 64.2191 23.5191 64.2191 23.8087C64.2191 24.0983 64.3275 24.3774 64.5228 24.5911C64.7182 24.8049 64.9865 24.9378 65.2749 24.9638V24.9638Z" fill="#2D161F"/>
<path d="M61.2343 24.5803C61.3686 24.5854 61.5025 24.5632 61.6279 24.5149C61.7533 24.4667 61.8676 24.3935 61.9639 24.2997C62.1993 24.2356 62.4069 24.0953 62.5542 23.9007C62.7014 23.706 62.78 23.4681 62.7776 23.2241C62.7751 22.9181 62.6519 22.6255 62.4346 22.41C62.2174 22.1946 61.9238 22.0736 61.6178 22.0737C61.1315 22.0826 60.6629 22.2575 60.2897 22.5694C60.1813 22.6764 60.0954 22.8038 60.0367 22.9443C59.978 23.0848 59.9478 23.2355 59.9478 23.3878C59.9478 23.54 59.978 23.6908 60.0367 23.8313C60.0954 23.9717 60.1813 24.0992 60.2897 24.2062C60.5529 24.4346 60.8861 24.5665 61.2343 24.5803V24.5803Z" fill="#2D161F"/>
<path d="M64.7044 28.995H64.8914C65.1798 28.969 65.4481 28.8361 65.6435 28.6224C65.8388 28.4086 65.9472 28.1295 65.9472 27.8399C65.9472 27.5503 65.8388 27.2712 65.6435 27.0575C65.4481 26.8437 65.1798 26.7108 64.8914 26.6848H64.7044C64.4159 26.7108 64.1477 26.8437 63.9523 27.0575C63.757 27.2712 63.6486 27.5503 63.6486 27.8399C63.6486 28.1295 63.757 28.4086 63.9523 28.6224C64.1477 28.8361 64.4159 28.969 64.7044 28.995V28.995Z" fill="#2D161F"/>
<path d="M70.0918 28.4245C70.3802 28.3985 70.6484 28.2656 70.8438 28.0518C71.0392 27.8381 71.1475 27.5589 71.1475 27.2694C71.1475 26.9798 71.0392 26.7007 70.8438 26.4869C70.6484 26.2732 70.3802 26.1402 70.0918 26.1142C69.8033 26.1402 69.5351 26.2732 69.3397 26.4869C69.1443 26.7007 69.036 26.9798 69.036 27.2694C69.036 27.5589 69.1443 27.8381 69.3397 28.0518C69.5351 28.2656 69.8033 28.3985 70.0918 28.4245V28.4245Z" fill="#2D161F"/>
<path d="M66.8181 30.7347C67.1066 30.7087 67.3748 30.5758 67.5702 30.362C67.7656 30.1483 67.8739 29.8692 67.8739 29.5796C67.8739 29.29 67.7656 29.0109 67.5702 28.7971C67.3748 28.5834 67.1066 28.4504 66.8181 28.4245C66.5297 28.4504 66.2615 28.5834 66.0661 28.7971C65.8707 29.0109 65.7624 29.29 65.7624 29.5796C65.7624 29.8692 65.8707 30.1483 66.0661 30.362C66.2615 30.5758 66.5297 30.7087 66.8181 30.7347V30.7347Z" fill="#2D161F"/>
<path d="M70.0918 32.278C70.3802 32.252 70.6484 32.1191 70.8438 31.9053C71.0392 31.6916 71.1475 31.4125 71.1475 31.1229C71.1475 30.8333 71.0392 30.5542 70.8438 30.3404C70.6484 30.1267 70.3802 29.9937 70.0918 29.9678C69.8033 29.9937 69.5351 30.1267 69.3397 30.3404C69.1443 30.5542 69.036 30.8333 69.036 31.1229C69.036 31.4125 69.1443 31.6916 69.3397 31.9053C69.5351 32.1191 69.8033 32.252 70.0918 32.278Z" fill="#2D161F"/>
<path d="M70.8587 36.7114C71.1471 36.6854 71.4154 36.5525 71.6108 36.3388C71.8061 36.125 71.9145 35.8459 71.9145 35.5563C71.9145 35.2667 71.8061 34.9876 71.6108 34.7739C71.4154 34.5601 71.1471 34.4272 70.8587 34.4012C70.5703 34.4272 70.3021 34.5601 70.1067 34.7739C69.9113 34.9876 69.803 35.2667 69.803 35.5563C69.803 35.8459 69.9113 36.125 70.1067 36.3388C70.3021 36.5525 70.5703 36.6854 70.8587 36.7114V36.7114Z" fill="#2D161F"/>
<path d="M67.5944 35.3552C67.8829 35.3292 68.1511 35.1963 68.3465 34.9825C68.5419 34.7688 68.6502 34.4897 68.6502 34.2001C68.6502 33.9105 68.5419 33.6314 68.3465 33.4176C68.1511 33.2039 67.8829 33.0709 67.5944 33.045C67.306 33.0709 67.0378 33.2039 66.8424 33.4176C66.647 33.6314 66.5387 33.9105 66.5387 34.2001C66.5387 34.4897 66.647 34.7688 66.8424 34.9825C67.0378 35.1963 67.306 35.3292 67.5944 35.3552Z" fill="#2D161F"/>
<path d="M68.8572 40.4808C69.0432 40.3349 69.1793 40.1349 69.2468 39.9083C69.3142 39.6818 69.3096 39.4398 69.2336 39.216C69.1577 38.9922 69.014 38.7974 68.8226 38.6588C68.6312 38.5201 68.4014 38.4442 68.1651 38.4418C67.9864 38.4352 67.8084 38.4656 67.642 38.5309C67.4756 38.5963 67.3245 38.6953 67.1981 38.8217C67.0717 38.9481 66.9727 39.0992 66.9074 39.2656C66.842 39.4319 66.8116 39.61 66.8182 39.7886C66.8207 40.025 66.8965 40.2548 67.0352 40.4462C67.1739 40.6376 67.3686 40.7812 67.5924 40.8572C67.8163 40.9332 68.0582 40.9378 68.2847 40.8703C68.5113 40.8029 68.7113 40.6668 68.8572 40.4808V40.4808ZM69.1097 39.9289C69.1142 39.876 69.1142 39.8228 69.1097 39.7699V39.9289ZM68.3241 40.7146H68.1838C68.2304 40.7187 68.2774 40.7187 68.3241 40.7146V40.7146Z" fill="#2D161F"/>
<path d="M72.7855 41.1542C73.0739 41.1282 73.3422 40.9953 73.5375 40.7815C73.7329 40.5678 73.8412 40.2887 73.8412 39.9991C73.8412 39.7095 73.7329 39.4304 73.5375 39.2166C73.3422 39.0029 73.0739 38.8699 72.7855 38.8439C72.4971 38.8699 72.2288 39.0029 72.0334 39.2166C71.8381 39.4304 71.7297 39.7095 71.7297 39.9991C71.7297 40.2887 71.8381 40.5678 72.0334 40.7815C72.2288 40.9953 72.4971 41.1282 72.7855 41.1542V41.1542Z" fill="#2D161F"/>
<path d="M73.3654 46.3359V46.7661C73.3914 47.0545 73.5243 47.3228 73.7381 47.5182C73.9518 47.7135 74.231 47.8219 74.5205 47.8219C74.8101 47.8219 75.0892 47.7135 75.303 47.5182C75.5167 47.3228 75.6497 47.0545 75.6757 46.7661V46.3826C75.6562 46.0933 75.5289 45.8217 75.3191 45.6215C75.1092 45.4212 74.8319 45.3069 74.542 45.3011C74.252 45.2952 73.9703 45.3982 73.7525 45.5897C73.5347 45.7813 73.3966 46.0475 73.3654 46.3359V46.3359Z" fill="#2D161F"/>
<path d="M72.0185 48.0662C71.9926 47.7778 71.8596 47.5095 71.6459 47.3142C71.4321 47.1188 71.153 47.0105 70.8634 47.0105C70.5738 47.0105 70.2947 47.1188 70.081 47.3142C69.8672 47.5095 69.7343 47.7778 69.7083 48.0662V48.2626C69.7022 48.4333 69.7383 48.6028 69.8133 48.7561C69.8884 48.9095 70.0001 49.042 70.1386 49.1418C70.0079 49.3224 69.933 49.5373 69.9231 49.7599C69.9132 49.9825 69.9687 50.2032 70.0828 50.3946C70.1968 50.5861 70.3644 50.74 70.5649 50.8372C70.7654 50.9345 70.99 50.971 71.211 50.9421C71.4319 50.9132 71.6396 50.8203 71.8084 50.6747C71.9771 50.5292 72.0996 50.3374 72.1606 50.1231C72.2216 49.9088 72.2185 49.6812 72.1517 49.4686C72.0849 49.256 71.9573 49.0676 71.7847 48.9267C71.935 48.7379 72.0173 48.504 72.0185 48.2626V48.0662Z" fill="#2D161F"/>
<path d="M69.9047 45.4286V45.1761C69.8787 44.8877 69.7458 44.6194 69.5321 44.424C69.3183 44.2287 69.0392 44.1203 68.7496 44.1203C68.46 44.1203 68.1809 44.2287 67.9672 44.424C67.7534 44.6194 67.6205 44.8877 67.5945 45.1761V45.4286C67.6205 45.717 67.7534 45.9853 67.9672 46.1807C68.1809 46.376 68.46 46.4844 68.7496 46.4844C69.0392 46.4844 69.3183 46.376 69.5321 46.1807C69.7458 45.9853 69.8787 45.717 69.9047 45.4286V45.4286Z" fill="#2D161F"/>
<path d="M73.9453 42.4823V42.2953C73.9193 42.0069 73.7863 41.7386 73.5726 41.5432C73.3588 41.3479 73.0797 41.2395 72.7901 41.2395C72.5005 41.2395 72.2214 41.3479 72.0077 41.5432C71.7939 41.7386 71.661 42.0069 71.635 42.2953V42.4823C71.661 42.7708 71.7939 43.039 72.0077 43.2344C72.2214 43.4298 72.5005 43.5381 72.7901 43.5381C73.0797 43.5381 73.3588 43.4298 73.5726 43.2344C73.7863 43.039 73.9193 42.7708 73.9453 42.4823Z" fill="#2D161F"/>
<path d="M74.1324 48.4497H73.9453C73.6569 48.4757 73.3887 48.6086 73.1933 48.8224C72.9979 49.0361 72.8896 49.3152 72.8896 49.6048C72.8896 49.8944 72.9979 50.1735 73.1933 50.3873C73.3887 50.601 73.6569 50.734 73.9453 50.7599H74.1324C74.4208 50.734 74.6891 50.601 74.8845 50.3873C75.0798 50.1735 75.1881 49.8944 75.1881 49.6048C75.1881 49.3152 75.0798 49.0361 74.8845 48.8224C74.6891 48.6086 74.4208 48.4757 74.1324 48.4497V48.4497Z" fill="#2D161F"/>
<path d="M69.5119 54.6135C69.6665 54.6143 69.8195 54.5825 69.9608 54.5199C70.0588 54.6768 70.1976 54.8041 70.3624 54.8881C70.5271 54.9721 70.7116 55.0097 70.8962 54.9969C71.1846 54.971 71.4528 54.838 71.6482 54.6243C71.8436 54.4105 71.9519 54.1314 71.9519 53.8418C71.9519 53.5522 71.8436 53.2731 71.6482 53.0594C71.4528 52.8456 71.1846 52.7127 70.8962 52.6867C70.7447 52.6869 70.595 52.7187 70.4566 52.7802C70.3557 52.6261 70.2164 52.501 70.0523 52.4174C69.8882 52.3337 69.7052 52.2943 69.5212 52.3032C69.2327 52.328 68.9639 52.4598 68.7676 52.6728C68.5714 52.8858 68.4619 53.1645 68.4607 53.4541C68.4595 53.7437 68.5667 54.0232 68.7613 54.2378C68.9558 54.4523 69.2235 54.5863 69.5119 54.6135V54.6135Z" fill="#2D161F"/>
<path d="M66.9772 54.8099H67.2484C67.5369 54.7839 67.8051 54.651 68.0005 54.4372C68.1959 54.2234 68.3042 53.9443 68.3042 53.6548C68.3042 53.3652 68.1959 53.0861 68.0005 52.8723C67.8051 52.6585 67.5369 52.5256 67.2484 52.4996H66.9772C66.6888 52.5256 66.4205 52.6585 66.2252 52.8723C66.0298 53.0861 65.9214 53.3652 65.9214 53.6548C65.9214 53.9443 66.0298 54.2234 66.2252 54.4372C66.4205 54.651 66.6888 54.7839 66.9772 54.8099V54.8099Z" fill="#2D161F"/>
<path d="M66.8181 56.9237C66.5297 56.9497 66.2615 57.0826 66.0661 57.2964C65.8707 57.5101 65.7624 57.7892 65.7624 58.0788C65.7624 58.3684 65.8707 58.6475 66.0661 58.8613C66.2615 59.075 66.5297 59.208 66.8181 59.2339C67.1066 59.208 67.3748 59.075 67.5702 58.8613C67.7656 58.6475 67.8739 58.3684 67.8739 58.0788C67.8739 57.7892 67.7656 57.5101 67.5702 57.2964C67.3748 57.0826 67.1066 56.9497 66.8181 56.9237V56.9237Z" fill="#2D161F"/>
<path d="M63.928 62.1241H63.7409C63.4525 62.1501 63.1843 62.283 62.9889 62.4968C62.7935 62.7105 62.6852 62.9896 62.6852 63.2792C62.6852 63.5688 62.7935 63.8479 62.9889 64.0617C63.1843 64.2754 63.4525 64.4083 63.7409 64.4343H63.928C64.2164 64.4083 64.4847 64.2754 64.68 64.0617C64.8754 63.8479 64.9837 63.5688 64.9837 63.2792C64.9837 62.9896 64.8754 62.7105 64.68 62.4968C64.4847 62.283 64.2164 62.1501 63.928 62.1241Z" fill="#2D161F"/>
<path d="M66.9023 61.2355C66.718 61.383 66.5835 61.5837 66.5171 61.8103C66.4507 62.0368 66.4557 62.2783 66.5312 62.502C66.6068 62.7257 66.7494 62.9207 66.9396 63.0606C67.1298 63.2004 67.3584 63.2784 67.5944 63.2839C67.7732 63.2878 67.9508 63.2553 68.1166 63.1883C68.2824 63.1214 68.4328 63.0215 68.5588 62.8947C68.6848 62.7678 68.7836 62.6167 68.8494 62.4505C68.9152 62.2842 68.9464 62.1064 68.9413 61.9277C68.9388 61.6913 68.863 61.4615 68.7243 61.2701C68.5856 61.0787 68.3909 60.9351 68.1671 60.8591C67.9432 60.7831 67.7013 60.7785 67.4748 60.8459C67.2482 60.9134 67.0482 61.0495 66.9023 61.2355V61.2355ZM66.6404 61.7967C66.6404 61.7967 66.6404 61.8903 66.6404 61.9464V61.7967ZM67.4354 61.0017H67.5757C67.5291 60.9976 67.4821 60.9976 67.4354 61.0017Z" fill="#2D161F"/>
<path d="M69.9047 57.7C69.6163 57.726 69.3481 57.8589 69.1527 58.0727C68.9573 58.2864 68.849 58.5655 68.849 58.8551C68.849 59.1447 68.9573 59.4238 69.1527 59.6376C69.3481 59.8513 69.6163 59.9843 69.9047 60.0103C70.1932 59.9843 70.4614 59.8513 70.6568 59.6376C70.8522 59.4238 70.9605 59.1447 70.9605 58.8551C70.9605 58.5655 70.8522 58.2864 70.6568 58.0727C70.4614 57.8589 70.1932 57.726 69.9047 57.7V57.7Z" fill="#2D161F"/>
<path d="M70.0918 61.1607V61.3571C70.1178 61.6455 70.2507 61.9138 70.4645 62.1092C70.6782 62.3045 70.9573 62.4129 71.2469 62.4129C71.5365 62.4129 71.8156 62.3045 72.0294 62.1092C72.2431 61.9138 72.3761 61.6455 72.402 61.3571V61.1607C72.3761 60.8723 72.2431 60.604 72.0294 60.4087C71.8156 60.2133 71.5365 60.105 71.2469 60.105C70.9573 60.105 70.6782 60.2133 70.4645 60.4087C70.2507 60.604 70.1178 60.8723 70.0918 61.1607V61.1607Z" fill="#2D161F"/>
<path d="M63.3575 61.9277H63.5446C63.833 61.9017 64.1013 61.7688 64.2966 61.555C64.492 61.3412 64.6003 61.0621 64.6003 60.7725C64.6003 60.483 64.492 60.2039 64.2966 59.9901C64.1013 59.7763 63.833 59.6434 63.5446 59.6174H63.3575C63.0691 59.6434 62.8008 59.7763 62.6055 59.9901C62.4101 60.2039 62.3018 60.483 62.3018 60.7725C62.3018 61.0621 62.4101 61.3412 62.6055 61.555C62.8008 61.7688 63.0691 61.9017 63.3575 61.9277Z" fill="#2D161F"/>
<path d="M63.928 66.7446C64.2164 66.7186 64.4847 66.5857 64.68 66.3719C64.8754 66.1581 64.9838 65.879 64.9838 65.5894C64.9838 65.2999 64.8754 65.0208 64.68 64.807C64.4847 64.5932 64.2164 64.4603 63.928 64.4343C63.6396 64.4603 63.3713 64.5932 63.176 64.807C62.9806 65.0208 62.8723 65.2999 62.8723 65.5894C62.8723 65.879 62.9806 66.1581 63.176 66.3719C63.3713 66.5857 63.6396 66.7186 63.928 66.7446V66.7446Z" fill="#2D161F"/>
<path d="M61.6178 68.2785H61.4307C61.2802 68.2729 61.1304 68.3002 60.9915 68.3583C60.8526 68.4164 60.728 68.5041 60.6263 68.6152C60.4618 68.5185 60.2747 68.4668 60.0838 68.4655H59.8594C59.6741 68.4547 59.4893 68.4942 59.3247 68.5798C59.16 68.6655 59.0216 68.794 58.9241 68.9519C58.8511 68.7605 58.7236 68.5947 58.5573 68.475C58.3911 68.3553 58.1934 68.287 57.9887 68.2785H57.6052C57.3168 68.3045 57.0486 68.4374 56.8532 68.6512C56.6578 68.8649 56.5495 69.144 56.5495 69.4336C56.5495 69.7232 56.6578 70.0023 56.8532 70.216C57.0486 70.4298 57.3168 70.5627 57.6052 70.5887H57.9887C58.1742 70.6006 58.3593 70.5615 58.5241 70.4758C58.689 70.3901 58.8273 70.261 58.9241 70.1024C59.0033 70.3063 59.144 70.4807 59.3266 70.6013C59.5092 70.7219 59.7248 70.7829 59.9435 70.7758H60.14C60.2881 70.7806 60.4356 70.7539 60.5726 70.6974C60.7097 70.641 60.8332 70.5561 60.935 70.4484C61.1043 70.5407 61.294 70.5889 61.4868 70.5887H61.6739C61.9624 70.5566 62.2283 70.4175 62.4192 70.1989C62.6102 69.9803 62.7122 69.698 62.7051 69.4079C62.6981 69.1177 62.5825 68.8407 62.3812 68.6316C62.1799 68.4225 61.9075 68.2965 61.6178 68.2785Z" fill="#2D161F"/>
<path d="M58.5406 72.7119H58.1571C57.8687 72.7379 57.6004 72.8708 57.4051 73.0846C57.2097 73.2983 57.1014 73.5775 57.1014 73.867C57.1014 74.1566 57.2097 74.4357 57.4051 74.6495C57.6004 74.8632 57.8687 74.9962 58.1571 75.0222H58.5406C58.829 74.9962 59.0973 74.8632 59.2927 74.6495C59.488 74.4357 59.5964 74.1566 59.5964 73.867C59.5964 73.5775 59.488 73.2983 59.2927 73.0846C59.0973 72.8708 58.829 72.7379 58.5406 72.7119V72.7119Z" fill="#2D161F"/>
<path d="M56.4174 70.7852C56.129 70.8112 55.8607 70.9441 55.6653 71.1578C55.47 71.3716 55.3616 71.6507 55.3616 71.9403C55.3616 72.2299 55.47 72.509 55.6653 72.7227C55.8607 72.9365 56.129 73.0694 56.4174 73.0954C56.7058 73.0694 56.9741 72.9365 57.1694 72.7227C57.3648 72.509 57.4731 72.2299 57.4731 71.9403C57.4731 71.6507 57.3648 71.3716 57.1694 71.1578C56.9741 70.9441 56.7058 70.8112 56.4174 70.7852Z" fill="#2D161F"/>
<path d="M51.7969 70.2146C51.5085 70.2406 51.2402 70.3735 51.0448 70.5873C50.8495 70.801 50.7411 71.0801 50.7411 71.3697C50.7411 71.6593 50.8495 71.9384 51.0448 72.1522C51.2402 72.3659 51.5085 72.4989 51.7969 72.5248C52.0853 72.4989 52.3536 72.3659 52.5489 72.1522C52.7443 71.9384 52.8527 71.6593 52.8527 71.3697C52.8527 71.0801 52.7443 70.801 52.5489 70.5873C52.3536 70.3735 52.0853 70.2406 51.7969 70.2146Z" fill="#2D161F"/>
<path d="M48.3362 73.6192V73.8904C48.3319 74.0327 48.357 74.1743 48.4101 74.3063C48.4633 74.4383 48.5432 74.5578 48.6449 74.6574C48.5434 74.759 48.4637 74.8803 48.4106 75.0138C48.3575 75.1472 48.3322 75.2901 48.3362 75.4337V75.6208C48.3622 75.9092 48.4952 76.1774 48.7089 76.3728C48.9227 76.5682 49.2018 76.6765 49.4914 76.6765C49.781 76.6765 50.0601 76.5682 50.2738 76.3728C50.4876 76.1774 50.6205 75.9092 50.6465 75.6208V75.4337C50.6503 75.1443 50.5393 74.8652 50.3378 74.6574C50.4377 74.5565 50.5165 74.4367 50.5695 74.305C50.6225 74.1733 50.6487 74.0324 50.6465 73.8904V73.6379C50.6229 73.3492 50.4922 73.0797 50.28 72.8826C50.0679 72.6854 49.7896 72.5747 49.4999 72.5724C49.2103 72.57 48.9302 72.6762 48.7149 72.8699C48.4995 73.0636 48.3645 73.3309 48.3362 73.6192V73.6192Z" fill="#2D161F"/>
<path d="M44.6791 76.5654V76.6964C44.7051 76.9848 44.8381 77.253 45.0518 77.4484C45.2656 77.6438 45.5447 77.7521 45.8343 77.7521C46.1238 77.7521 46.403 77.6438 46.6167 77.4484C46.8305 77.253 46.9634 76.9848 46.9894 76.6964V76.5561C46.9623 76.2677 46.8282 76 46.6137 75.8055C46.3991 75.6109 46.1196 75.5037 45.83 75.5049C45.5404 75.5061 45.2617 75.6155 45.0487 75.8118C44.8358 76.008 44.7039 76.2769 44.6791 76.5654V76.5654Z" fill="#2D161F"/>
<path d="M40.2176 74.2552C39.9292 74.2812 39.6609 74.4141 39.4656 74.6279C39.2702 74.8416 39.1619 75.1207 39.1619 75.4103C39.1619 75.6999 39.2702 75.979 39.4656 76.1928C39.6609 76.4065 39.9292 76.5395 40.2176 76.5654C40.506 76.5395 40.7743 76.4065 40.9697 76.1928C41.165 75.979 41.2734 75.6999 41.2734 75.4103C41.2734 75.1207 41.165 74.8416 40.9697 74.6279C40.7743 74.4141 40.506 74.2812 40.2176 74.2552V74.2552Z" fill="#2D161F"/>
<path d="M44.8942 73.0954V73.3479C44.9202 73.6363 45.0531 73.9046 45.2669 74.1C45.4807 74.2953 45.7598 74.4037 46.0493 74.4037C46.3389 74.4037 46.618 74.2953 46.8318 74.1C47.0456 73.9046 47.1785 73.6363 47.2045 73.3479V73.0954C47.1785 72.807 47.0456 72.5387 46.8318 72.3433C46.618 72.148 46.3389 72.0396 46.0493 72.0396C45.7598 72.0396 45.4807 72.148 45.2669 72.3433C45.0531 72.5387 44.9202 72.807 44.8942 73.0954Z" fill="#2D161F"/>
<path d="M43.3322 72.3284V72.0853C43.3062 71.7968 43.1733 71.5286 42.9595 71.3332C42.7458 71.1378 42.4667 71.0295 42.1771 71.0295C41.8875 71.0295 41.6084 71.1378 41.3946 71.3332C41.1809 71.5286 41.048 71.7968 41.022 72.0853V72.3284C41.048 72.6169 41.1809 72.8851 41.3946 73.0805C41.6084 73.2759 41.8875 73.3842 42.1771 73.3842C42.4667 73.3842 42.7458 73.2759 42.9595 73.0805C43.1733 72.8851 43.3062 72.6169 43.3322 72.3284V72.3284Z" fill="#2D161F"/>
<path d="M43.3697 75.6021H43.0984C42.81 75.628 42.5417 75.761 42.3464 75.9747C42.151 76.1885 42.0427 76.4676 42.0427 76.7572C42.0427 77.0468 42.151 77.3259 42.3464 77.5396C42.5417 77.7534 42.81 77.8863 43.0984 77.9123H43.3697C43.6581 77.8863 43.9263 77.7534 44.1217 77.5396C44.3171 77.3259 44.4254 77.0468 44.4254 76.7572C44.4254 76.4676 44.3171 76.1885 44.1217 75.9747C43.9263 75.761 43.6581 75.628 43.3697 75.6021V75.6021Z" fill="#2D161F"/>
<path d="M37.4117 72.9551C37.0125 72.9798 36.6393 73.1614 36.3735 73.4602C36.2277 73.5872 36.1219 73.7537 36.0688 73.9396C36.0157 74.1255 36.0175 74.3229 36.0742 74.5077C36.078 74.7304 36.1475 74.9469 36.2739 75.1303C36.4002 75.3136 36.5779 75.4556 36.7845 75.5385C36.9912 75.6214 37.2178 75.6415 37.4358 75.5962C37.6538 75.5509 37.8537 75.4423 38.0103 75.284C38.3275 74.9713 38.5259 74.5579 38.5715 74.1149C38.569 73.808 38.4461 73.5145 38.2291 73.2975C38.0121 73.0805 37.7185 72.9575 37.4117 72.9551V72.9551Z" fill="#2D161F"/>
<path d="M35.541 77.6317C35.5673 77.5467 35.583 77.4587 35.5878 77.3698V77.1828C35.5618 76.8943 35.4289 76.6261 35.2151 76.4307C35.0014 76.2353 34.7223 76.127 34.4327 76.127C34.1431 76.127 33.864 76.2353 33.6502 76.4307C33.4365 76.6261 33.3035 76.8943 33.2776 77.1828V77.3698C33.2699 77.648 33.3712 77.9181 33.5599 78.1226C33.7487 78.327 34.0098 78.4496 34.2877 78.4642C34.2659 78.5502 34.2503 78.6377 34.2409 78.726V78.9131C34.2669 79.2015 34.3999 79.4698 34.6136 79.6652C34.8274 79.8605 35.1065 79.9689 35.3961 79.9689C35.6857 79.9689 35.9648 79.8605 36.1785 79.6652C36.3923 79.4698 36.5252 79.2015 36.5512 78.9131V78.726C36.5613 78.4472 36.4608 78.1757 36.2716 77.9707C36.0824 77.7657 35.8198 77.6439 35.541 77.6317V77.6317Z" fill="#2D161F"/>
<path d="M30.0414 77.9123V78.1087C30.0674 78.3971 30.2003 78.6654 30.4141 78.8608C30.6278 79.0561 30.9069 79.1645 31.1965 79.1645C31.4861 79.1645 31.7652 79.0561 31.979 78.8608C32.1927 78.6654 32.3256 78.3971 32.3516 78.1087V77.9123C32.3256 77.6239 32.1927 77.3556 31.979 77.1602C31.7652 76.9649 31.4861 76.8565 31.1965 76.8565C30.9069 76.8565 30.6278 76.9649 30.4141 77.1602C30.2003 77.3556 30.0674 77.6239 30.0414 77.9123V77.9123Z" fill="#2D161F"/>
<path d="M31.5846 73.6753C31.2962 73.7013 31.0279 73.8342 30.8326 74.048C30.6372 74.2617 30.5289 74.5408 30.5289 74.8304C30.5289 75.12 30.6372 75.3991 30.8326 75.6129C31.0279 75.8266 31.2962 75.9596 31.5846 75.9855C31.873 75.9596 32.1413 75.8266 32.3367 75.6129C32.532 75.3991 32.6404 75.12 32.6404 74.8304C32.6404 74.5408 32.532 74.2617 32.3367 74.048C32.1413 73.8342 31.873 73.7013 31.5846 73.6753Z" fill="#2D161F"/>
<path d="M24.6539 72.9551V73.1422C24.6798 73.4306 24.8128 73.6988 25.0265 73.8942C25.2403 74.0896 25.5194 74.1979 25.809 74.1979C26.0986 74.1979 26.3777 74.0896 26.5914 73.8942C26.8052 73.6988 26.9381 73.4306 26.9641 73.1422V72.9551C26.9381 72.6667 26.8052 72.3984 26.5914 72.2031C26.3777 72.0077 26.0986 71.8994 25.809 71.8994C25.5194 71.8994 25.2403 72.0077 25.0265 72.2031C24.8128 72.3984 24.6798 72.6667 24.6539 72.9551V72.9551Z" fill="#2D161F"/>
<path d="M21.9509 72.3285V72.5249C21.9768 72.8133 22.1098 73.0816 22.3235 73.2769C22.5373 73.4723 22.8164 73.5806 23.106 73.5806C23.3956 73.5806 23.6747 73.4723 23.8884 73.2769C24.1022 73.0816 24.2351 72.8133 24.2611 72.5249V72.3285C24.2351 72.04 24.1022 71.7718 23.8884 71.5764C23.6747 71.381 23.3956 71.2727 23.106 71.2727C22.8164 71.2727 22.5373 71.381 22.3235 71.5764C22.1098 71.7718 21.9768 72.04 21.9509 72.3285Z" fill="#2D161F"/>
<path d="M29.2744 70.9816C28.986 71.0075 28.7178 71.1405 28.5224 71.3542C28.327 71.568 28.2187 71.8471 28.2187 72.1367C28.2187 72.4263 28.327 72.7054 28.5224 72.9191C28.7178 73.1329 28.986 73.2658 29.2744 73.2918C29.5629 73.2658 29.8311 73.1329 30.0265 72.9191C30.2219 72.7054 30.3302 72.4263 30.3302 72.1367C30.3302 71.8471 30.2219 71.568 30.0265 71.3542C29.8311 71.1405 29.5629 71.0075 29.2744 70.9816V70.9816Z" fill="#2D161F"/>
<path d="M29.1902 70.3643C29.3959 70.3643 29.6111 70.2053 29.7701 70.1679C31.2292 69.8686 30.6119 67.6425 29.1528 67.9418C28.9563 67.9418 28.7412 68.1008 28.5822 68.1382C27.1231 68.4375 27.7404 70.6636 29.1902 70.3643Z" fill="#2D161F"/>
<path d="M26.5527 68.7275H26.4965C26.3027 68.6715 26.097 68.6717 25.9033 68.728C25.7096 68.7843 25.5359 68.8944 25.4022 69.0455L25.3087 69.1296C25.2206 69.1011 25.1296 69.0823 25.0374 69.0735H24.654C24.3655 69.0995 24.0973 69.2324 23.9019 69.4462C23.7065 69.6599 23.5982 69.9391 23.5982 70.2286C23.5982 70.5182 23.7065 70.7973 23.9019 71.0111C24.0973 71.2248 24.3655 71.3578 24.654 71.3838H25.0374C25.298 71.3839 25.5501 71.291 25.7483 71.1219C26.0261 71.2042 26.325 71.1739 26.5807 71.0377C26.8589 70.912 27.091 70.7028 27.2448 70.4391C27.3342 70.285 27.3872 70.1126 27.3998 69.9349C27.4124 69.7573 27.3843 69.5791 27.3175 69.4139C27.2507 69.2488 27.1471 69.1011 27.0145 68.9821C26.882 68.8632 26.724 68.7761 26.5527 68.7275V68.7275Z" fill="#2D161F"/>
<path d="M23.6905 66.2395V66.1647C23.6645 65.8762 23.5316 65.608 23.3178 65.4126C23.1041 65.2172 22.825 65.1089 22.5354 65.1089C22.2458 65.1089 21.9667 65.2172 21.7529 65.4126C21.5392 65.608 21.4062 65.8762 21.3802 66.1647V66.2395C21.4062 66.5279 21.5392 66.7962 21.7529 66.9915C21.9667 67.1869 22.2458 67.2952 22.5354 67.2952C22.825 67.2952 23.1041 67.1869 23.3178 66.9915C23.5316 66.7962 23.6645 66.5279 23.6905 66.2395Z" fill="#2D161F"/>
<path d="M19.07 61.9277C18.8905 61.9225 18.7118 61.954 18.545 62.0204C18.3781 62.0867 18.2265 62.1864 18.0995 62.3134C17.9725 62.4404 17.8728 62.5919 17.8065 62.7588C17.7402 62.9257 17.7086 63.1044 17.7138 63.2839C17.7437 63.5068 17.8353 63.717 17.9784 63.8906C18.1214 64.0643 18.3101 64.1945 18.5232 64.2665C18.7363 64.3386 18.9653 64.3496 19.1843 64.2984C19.4034 64.2472 19.6038 64.1358 19.7628 63.9767C19.9219 63.8176 20.0333 63.6172 20.0845 63.3982C20.1358 63.1792 20.1247 62.9502 20.0527 62.737C19.9806 62.5239 19.8504 62.3352 19.6768 62.1922C19.5031 62.0492 19.293 61.9576 19.07 61.9277V61.9277ZM19.201 64.2285H19.07C19.1198 64.2338 19.1699 64.2338 19.2197 64.2285H19.201ZM20.0147 63.4148C20.0147 63.4148 20.0147 63.3213 20.0147 63.2652V63.4148Z" fill="#2D161F"/>
<path d="M21.9509 63.2839V63.4709C21.9768 63.7594 22.1098 64.0276 22.3235 64.223C22.5373 64.4184 22.8164 64.5267 23.106 64.5267C23.3956 64.5267 23.6747 64.4184 23.8884 64.223C24.1022 64.0276 24.2351 63.7594 24.2611 63.4709V63.2839C24.2351 62.9955 24.1022 62.7272 23.8884 62.5318C23.6747 62.3365 23.3956 62.2281 23.106 62.2281C22.8164 62.2281 22.5373 62.3365 22.3235 62.5318C22.1098 62.7272 21.9768 62.9955 21.9509 63.2839Z" fill="#2D161F"/>
<path d="M26.3842 63.0875H26.1878C25.8994 63.1134 25.6311 63.2464 25.4358 63.4601C25.2404 63.6739 25.1321 63.953 25.1321 64.2426C25.1321 64.5322 25.2404 64.8113 25.4358 65.025C25.6311 65.2388 25.8994 65.3717 26.1878 65.3977H26.3842C26.6727 65.3717 26.9409 65.2388 27.1363 65.025C27.3317 64.8113 27.44 64.5322 27.44 64.2426C27.44 63.953 27.3317 63.6739 27.1363 63.4601C26.9409 63.2464 26.6727 63.1134 26.3842 63.0875V63.0875Z" fill="#2D161F"/>
<path d="M22.5307 61.1607C22.6906 61.1658 22.8497 61.1358 22.9968 61.0728C23.1438 61.0098 23.2753 60.9153 23.3819 60.7959C23.4521 60.9984 23.575 61.1785 23.7379 61.3177C23.9008 61.4569 24.0978 61.5502 24.3087 61.5881C24.5197 61.6259 24.7369 61.6069 24.938 61.533C25.1391 61.4591 25.3169 61.3329 25.4532 61.1675C25.5894 61.0021 25.6791 60.8034 25.7131 60.5918C25.7471 60.3802 25.7241 60.1634 25.6465 59.9637C25.5689 59.7639 25.4395 59.5884 25.2717 59.4552C25.1038 59.3221 24.9035 59.236 24.6913 59.2059C24.4901 59.2065 24.2915 59.2521 24.1102 59.3395C23.9289 59.4269 23.7695 59.5539 23.6438 59.711C23.603 59.4575 23.4713 59.2275 23.2734 59.064C23.0754 58.9005 22.8248 58.8146 22.5681 58.8224H22.1847C21.8962 58.8484 21.628 58.9813 21.4326 59.1951C21.2372 59.4088 21.1289 59.6879 21.1289 59.9775C21.1289 60.2671 21.2372 60.5462 21.4326 60.76C21.628 60.9737 21.8962 61.1067 22.1847 61.1326L22.5307 61.1607ZM25.5986 60.7211C25.5986 60.665 25.5986 60.6276 25.5986 60.5621V60.7211ZM24.8036 61.5068H24.6726C24.7162 61.5109 24.76 61.5109 24.8036 61.5068Z" fill="#2D161F"/>
<path d="M23.0639 55.3337C22.9419 55.4601 22.8322 55.5979 22.7365 55.7452C22.5852 56.0103 22.5436 56.324 22.6205 56.6193C22.6974 56.9147 22.8867 57.1683 23.1481 57.3259C23.373 57.4439 23.6236 57.5049 23.8776 57.5036C24.0284 57.5121 24.1793 57.4882 24.3201 57.4335C24.4609 57.3788 24.5883 57.2945 24.6938 57.1864C24.7993 57.0782 24.8804 56.9487 24.9316 56.8066C24.9828 56.6645 25.0029 56.5131 24.9906 56.3625C25.0317 56.1242 24.9967 55.879 24.8904 55.6617C24.7842 55.4444 24.6122 55.2662 24.3988 55.1523C24.1855 55.0383 23.9417 54.9946 23.702 55.0271C23.4624 55.0597 23.2391 55.1669 23.0639 55.3337V55.3337Z" fill="#2D161F"/>
<path d="M22.1473 54.8099H22.4466C22.735 54.7839 23.0033 54.651 23.1986 54.4372C23.394 54.2234 23.5023 53.9443 23.5023 53.6548C23.5023 53.3652 23.394 53.0861 23.1986 52.8723C23.0033 52.6585 22.735 52.5256 22.4466 52.4996H22.1192C21.8309 52.5289 21.5641 52.665 21.3711 52.8811C21.1782 53.0973 21.0731 53.3779 21.0766 53.6676C21.0801 53.9573 21.192 54.2352 21.3901 54.4466C21.5883 54.658 21.8584 54.7876 22.1473 54.8099V54.8099Z" fill="#2D161F"/>
<path d="M19.6406 50.5729C19.3522 50.5989 19.0839 50.7318 18.8885 50.9455C18.6932 51.1593 18.5848 51.4384 18.5848 51.728C18.5848 52.0176 18.6932 52.2967 18.8885 52.5104C19.0839 52.7242 19.3522 52.8571 19.6406 52.8831C19.929 52.8571 20.1973 52.7242 20.3926 52.5104C20.588 52.2967 20.6963 52.0176 20.6963 51.728C20.6963 51.4384 20.588 51.1593 20.3926 50.9455C20.1973 50.7318 19.929 50.5989 19.6406 50.5729V50.5729Z" fill="#2D161F"/>
<path d="M22.9142 49.4131C22.6258 49.439 22.3575 49.572 22.1622 49.7857C21.9668 49.9995 21.8585 50.2786 21.8585 50.5682C21.8585 50.8578 21.9668 51.1369 22.1622 51.3506C22.3575 51.5644 22.6258 51.6973 22.9142 51.7233C23.2026 51.6973 23.4709 51.5644 23.6663 51.3506C23.8616 51.1369 23.97 50.8578 23.97 50.5682C23.97 50.2786 23.8616 49.9995 23.6663 49.7857C23.4709 49.572 23.2026 49.439 22.9142 49.4131V49.4131Z" fill="#2D161F"/>
<path d="M25.4209 49.993C25.7093 49.967 25.9775 49.8341 26.1729 49.6203C26.3683 49.4066 26.4766 49.1274 26.4766 48.8379C26.4766 48.5483 26.3683 48.2692 26.1729 48.0554C25.9775 47.8417 25.7093 47.7087 25.4209 47.6827H25.0374C24.749 47.7087 24.4807 47.8417 24.2853 48.0554C24.09 48.2692 23.9816 48.5483 23.9816 48.8379C23.9816 49.1274 24.09 49.4066 24.2853 49.6203C24.4807 49.8341 24.749 49.967 25.0374 49.993H25.4209Z" fill="#2D161F"/>
<path d="M26.9641 43.6421C26.7377 43.6413 26.5136 43.6874 26.3059 43.7775C26.0982 43.8677 25.9115 43.9999 25.7576 44.1659C25.6013 44.3207 25.4968 44.52 25.4583 44.7365C25.238 44.5293 24.9469 44.414 24.6445 44.414C24.3421 44.414 24.0511 44.5293 23.8308 44.7365C23.8308 44.7365 23.8308 44.7365 23.8308 44.7365C23.6217 44.8712 23.461 45.0691 23.372 45.3014C23.2831 45.5337 23.2706 45.7883 23.3363 46.0282C23.402 46.2682 23.5425 46.4809 23.7374 46.6354C23.9323 46.79 24.1715 46.8784 24.4201 46.8877H24.4949C24.6787 46.9036 24.8634 46.8683 25.0285 46.7858C25.1935 46.7032 25.3326 46.5767 25.4302 46.4201L25.5237 46.3546C25.7015 46.1957 25.812 45.9749 25.8324 45.7373C26.0221 45.9438 26.2834 46.0704 26.5631 46.0912C26.8428 46.1121 27.12 46.0256 27.3383 45.8495C27.5852 45.7557 27.792 45.579 27.9233 45.3497C28.0545 45.1204 28.1022 44.8526 28.058 44.5921C28.0139 44.3316 27.8807 44.0945 27.6812 43.9213C27.4817 43.748 27.2282 43.6494 26.9641 43.6421Z" fill="#2D161F"/>
<path d="M22.7272 49.4131C23.0156 49.3871 23.2839 49.2542 23.4792 49.0404C23.6746 48.8266 23.7829 48.5475 23.7829 48.258C23.7829 47.9684 23.6746 47.6893 23.4792 47.4755C23.2839 47.2617 23.0156 47.1288 22.7272 47.1028C22.4388 47.1288 22.1705 47.2617 21.9751 47.4755C21.7798 47.6893 21.6714 47.9684 21.6714 48.258C21.6714 48.5475 21.7798 48.8266 21.9751 49.0404C22.1705 49.2542 22.4388 49.3871 22.7272 49.4131Z" fill="#2D161F"/>
<path d="M24.7007 43.6889L24.8878 43.4925C25.1048 43.2767 25.2273 42.9835 25.2281 42.6774C25.229 42.3713 25.1083 42.0774 24.8924 41.8604C24.6766 41.6433 24.3834 41.5209 24.0774 41.52C23.7713 41.5191 23.4774 41.6399 23.2603 41.8557L23.0639 42.0521C22.8693 42.2734 22.7663 42.5605 22.7758 42.8551C22.7853 43.1496 22.9065 43.4295 23.1149 43.6379C23.3233 43.8463 23.6032 43.9675 23.8977 43.977C24.1923 43.9865 24.4794 43.8835 24.7007 43.6889V43.6889Z" fill="#2D161F"/>
<path d="M28.2642 40.8923C28.2322 40.9377 28.1979 40.9814 28.1613 41.0232C28.0682 40.7931 27.8956 40.604 27.675 40.4901C27.9335 40.4065 28.1542 40.234 28.2978 40.0033C28.4413 39.7725 28.4986 39.4984 28.4594 39.2295C28.4202 38.9605 28.287 38.7142 28.0835 38.534C27.88 38.3539 27.6193 38.2516 27.3476 38.2453H27.1231C26.8637 38.2563 26.6152 38.3534 26.417 38.5212C26.2188 38.689 26.0821 38.918 26.0285 39.1721C25.9749 39.4262 26.0074 39.6909 26.121 39.9245C26.2345 40.1581 26.4225 40.3472 26.6555 40.4621C26.4225 40.5769 26.2345 40.766 26.121 40.9996C26.0074 41.2332 25.9749 41.4979 26.0285 41.752C26.0821 42.0061 26.2188 42.2351 26.417 42.4029C26.6152 42.5707 26.8637 42.6678 27.1231 42.6788C27.2651 42.681 27.406 42.6548 27.5377 42.6018C27.6694 42.5488 27.7892 42.47 27.8901 42.3701C27.9772 42.5793 28.1277 42.7559 28.3203 42.8752C28.5426 43.0011 28.7944 43.0657 29.0499 43.0622C29.2007 43.0708 29.3516 43.0469 29.4924 42.9921C29.6332 42.9374 29.7606 42.8531 29.8661 42.745C29.9716 42.6369 30.0526 42.5074 30.1038 42.3653C30.155 42.2232 30.1752 42.0717 30.1629 41.9212C30.1967 41.6882 30.1583 41.4504 30.0527 41.2399C29.9471 41.0295 29.7795 40.8565 29.5725 40.7443C29.3655 40.6321 29.129 40.5862 28.8951 40.6126C28.6611 40.6391 28.4409 40.7367 28.2642 40.8923V40.8923Z" fill="#2D161F"/>
<path style="mix-blend-mode:overlay" d="M87.8348 9.70872C85.7381 7.43646 83.2514 5.558 80.4925 4.16227C60.327 -6.02337 27.5347 2.2355 9.63266 31.6981C-5.39794 56.4186 -1.66601 82.0745 12.7379 94.2523C24.1208 105.588 48.9629 108.497 66.8182 104.298C90.3134 98.6858 105.166 77.1734 106.298 51.7233C107.43 26.2732 87.8348 9.70872 87.8348 9.70872Z" fill="url(#paint0_linear)"/>
<path style="mix-blend-mode:multiply" opacity="0.3" d="M36.0835 51.9384C35.4638 52.9689 34.5525 53.7924 33.4647 54.3049C32.3769 54.8174 31.1616 54.9958 29.9725 54.8176C28.7833 54.6394 27.6737 54.1125 26.784 53.3037C25.8942 52.4948 25.2643 51.4403 24.9739 50.2735C24.6835 49.1066 24.7456 47.8799 25.1525 46.7483C25.5593 45.6168 26.2925 44.6313 27.2594 43.9165C28.2263 43.2017 29.3835 42.7896 30.5846 42.7325C31.7856 42.6753 32.9767 42.9756 34.0071 43.5954C35.3869 44.4281 36.3802 45.7739 36.7694 47.3378C37.1586 48.9017 36.912 50.5561 36.0835 51.9384V51.9384Z" fill="url(#paint1_radial)"/>
<path style="mix-blend-mode:multiply" opacity="0.3" d="M62.5343 62.3953C61.9137 63.4254 61.0016 64.2483 59.9133 64.7599C58.8249 65.2715 57.6093 65.4489 56.4202 65.2695C55.2311 65.0902 54.1218 64.5622 53.2328 63.7524C52.3438 62.9426 51.7149 61.8873 51.4257 60.72C51.1365 59.5527 51.1999 58.3259 51.6081 57.1947C52.0162 56.0635 52.7506 55.0787 53.7185 54.3649C54.6864 53.6512 55.8442 53.2405 57.0455 53.1849C58.2468 53.1292 59.4376 53.4311 60.4673 54.0523C61.8474 54.8848 62.8404 56.2314 63.228 57.7959C63.6156 59.3604 63.3661 61.0147 62.5343 62.3953V62.3953Z" fill="url(#paint2_radial)"/>
<path d="M37.5239 47.5424C37.2519 47.998 36.8509 48.3627 36.3718 48.5905C35.8926 48.8183 35.3566 48.899 34.8316 48.8223C34.3066 48.7457 33.8161 48.5153 33.422 48.16C33.0279 47.8048 32.7479 47.3407 32.6173 46.8265C32.4868 46.3122 32.5116 45.7708 32.6886 45.2706C32.8656 44.7704 33.1869 44.3339 33.6118 44.0162C34.0367 43.6985 34.5463 43.5138 35.0761 43.4856C35.6059 43.4573 36.1322 43.5866 36.5886 43.8573C37.2002 44.2229 37.642 44.816 37.8173 45.5067C37.9926 46.1974 37.8871 46.9294 37.5239 47.5424V47.5424Z" fill="#532B29"/>
<path d="M33.8388 48.459C34.4518 48.8223 35.1838 48.9278 35.8745 48.7525C36.5652 48.5772 37.1583 48.1354 37.5239 47.5237C37.8157 47.0374 37.9436 46.4701 37.8887 45.9056L32.5574 45.9804C32.5232 46.4714 32.6247 46.9622 32.8507 47.3993C33.0767 47.8364 33.4185 48.203 33.8388 48.459V48.459Z" fill="#2D161F"/>
<path d="M57.9888 56.1848C57.7178 56.6416 57.3174 57.0078 56.8383 57.237C56.3592 57.4662 55.8229 57.5481 55.2972 57.4723C54.7715 57.3966 54.2801 57.1666 53.8851 56.8115C53.4902 56.4563 53.2095 55.9921 53.0785 55.4773C52.9475 54.9626 52.9722 54.4206 53.1494 53.9199C53.3265 53.4192 53.6483 52.9823 54.0738 52.6645C54.4994 52.3468 55.0096 52.1624 55.54 52.1347C56.0704 52.107 56.5971 52.2372 57.0534 52.509C57.3569 52.6883 57.622 52.9258 57.8333 53.2078C58.0447 53.4899 58.1983 53.8109 58.2852 54.1525C58.3721 54.4941 58.3907 54.8494 58.3398 55.1982C58.2889 55.547 58.1696 55.8823 57.9888 56.1848V56.1848Z" fill="#532B29"/>
<path d="M54.2943 57.1014C54.7185 57.3545 55.2043 57.4856 55.6982 57.4804C56.1921 57.4751 56.6751 57.3337 57.0938 57.0716C57.5125 56.8096 57.8508 56.437 58.0714 55.9951C58.292 55.5531 58.3864 55.0588 58.3442 54.5667L53.0129 54.6415C52.9802 55.1296 53.0824 55.6174 53.3084 56.0512C53.5344 56.4851 53.8755 56.8484 54.2943 57.1014V57.1014Z" fill="#2D161F"/>
<path d="M38.6931 50.4419C38.6931 50.4419 42.266 57.4942 50.1788 55.8107" stroke="#2D161F" stroke-width="3" stroke-linecap="round" stroke-linejoin="round"/>
<defs>
<linearGradient id="paint0_linear" x1="27.385" y1="11.5139" x2="78.4348" y2="99.9297" gradientUnits="userSpaceOnUse">
<stop stop-color="#761D8F" stop-opacity="0"/>
<stop offset="1" stop-color="#761D8F"/>
</linearGradient>
<radialGradient id="paint1_radial" cx="0" cy="0" r="1" gradientUnits="userSpaceOnUse" gradientTransform="translate(30.8818 48.7961) rotate(31.06) scale(6.07958)">
<stop stop-color="#B71D8F"/>
<stop offset="1" stop-color="#761D8F" stop-opacity="0"/>
</radialGradient>
<radialGradient id="paint2_radial" cx="0" cy="0" r="1" gradientUnits="userSpaceOnUse" gradientTransform="translate(561.325 719.501) scale(79.0347)">
<stop stop-color="#B71D8F"/>
<stop offset="1" stop-color="#761D8F" stop-opacity="0"/>
</radialGradient>
</defs>
</svg>
