<svg xmlns="http://www.w3.org/2000/svg" xmlns:xlink="http://www.w3.org/1999/xlink" viewBox="0 0 86.63 71.17"><defs><style>.cls-1{fill:#9f0012;}.cls-2{fill:none;}.cls-3{fill:#fff6e4;}.cls-4{isolation:isolate;}.cls-5{clip-path:url(#clip-path);}.cls-6{fill:#cc112e;opacity:0.41;}.cls-10,.cls-7{fill:#8e0015;}.cls-8{fill:#af3c21;}.cls-9{clip-path:url(#clip-path-2);}.cls-10{opacity:0.2;}.cls-10,.cls-13{mix-blend-mode:multiply;}.cls-11,.cls-12{fill:#d62343;}.cls-11{opacity:0.76;mix-blend-mode:soft-light;}.cls-12{opacity:0.48;}.cls-13,.cls-21{fill:#91081a;}.cls-13{opacity:0.4;}.cls-14{fill:#ce1e29;}.cls-15{fill:#faf6ea;}.cls-16{fill:#d1274e;}.cls-17{fill:#f06f85;}.cls-18{fill:#f1dabb;}.cls-19{clip-path:url(#clip-path-3);}.cls-20{fill:#8c1322;}.cls-22{fill:#d82e3f;}.cls-23{clip-path:url(#clip-path-4);}.cls-24{fill:#fcecca;}.cls-25{clip-path:url(#clip-path-5);}.cls-26{fill:#ecb362;}.cls-27{fill:#efe0bb;}.cls-28{fill:#a81223;}.cls-29{fill:#bc0011;}.cls-30{fill:#d87982;}.cls-31{fill:#c21528;}.cls-32{fill:#d60013;}.cls-33{fill:#f28791;}.cls-34{fill:#de1840;}.cls-35{fill:#ec002a;}.cls-36{fill:#ff8ea3;}.cls-37{fill:#de263a;}.cls-38{fill:#ec0f22;}.cls-39{fill:#ff9ea7;}.cls-40{fill:#a41222;}.cls-41{fill:#b80010;}.cls-42{fill:#d4767f;}.cls-43{fill:#8a0f1d;}.cls-44{fill:#9e000e;}.cls-45{fill:#ba6870;}.cls-46{fill:#de182e;}.cls-47{fill:#ec0015;}.cls-48{fill:#ff8e99;}.cls-49{fill:#fff;}.cls-50{fill:#c21537;}.cls-51{fill:#d60026;}.cls-52{fill:#f2879b;}.cls-53{opacity:0.46;}.cls-54{fill:#e27b50;}.cls-55{opacity:0.49;}.cls-56{opacity:0.53;}.cls-57{fill:#c7461f;}.cls-58{opacity:0.57;}</style><clipPath id="clip-path"><path class="cls-1" d="M57.05,9.73a8.7,8.7,0,0,1,1.6,2c1.06,2.11,1.86,3.67.55,5.63-.76,1.12-3,1.51-4.39,1.53-12.51.22-18.92,5-21.05,12.61A27,27,0,0,0,35.11,49.4a18.52,18.52,0,0,0,3.2,4.6c4.68,5.13,12.13,6.56,19,6.92a20.31,20.31,0,0,0,14.55-4.19,19.15,19.15,0,0,0,7.24-10.08c1.66-6.11,3-13.27-3.18-21.38-5.07-6.69-8.31-3.1-7.68-6.8C68.83,15.34,72,14,75,12.88a7.25,7.25,0,0,0-1.32-.42,4.67,4.67,0,0,0-1.53-.2c-.85.06-.42-.06-1.17.35a20.06,20.06,0,0,0-.64-4.56c-1.65,1.14-4.33,3.59-4.39,3.36A10.15,10.15,0,0,0,63.05,6.5c-.27,1.18-.53,2.51-.8,3.7-.13.6-.55,1.49-.64,1.36a5.65,5.65,0,0,0-2.18-2C58.52,9.15,56.74,9.65,57.05,9.73Z"/></clipPath><clipPath id="clip-path-2"><path class="cls-2" d="M57.05,9.73a8.7,8.7,0,0,1,1.6,2c1.06,2.11,1.86,3.67.55,5.63-.76,1.12-3,1.51-4.39,1.53-12.51.22-18.92,5-21.05,12.61A27,27,0,0,0,35.11,49.4a18.52,18.52,0,0,0,3.2,4.6c4.68,5.13,12.13,6.56,19,6.92a20.31,20.31,0,0,0,14.55-4.19,19.15,19.15,0,0,0,7.24-10.08c1.66-6.11,3-13.27-3.18-21.38-5.07-6.69-8.31-3.1-7.68-6.8C68.83,15.34,72,14,75,12.88a7.25,7.25,0,0,0-1.32-.42,4.67,4.67,0,0,0-1.53-.2c-.85.06-.42-.06-1.17.35a20.06,20.06,0,0,0-.64-4.56c-1.65,1.14-4.33,3.59-4.39,3.36A10.15,10.15,0,0,0,63.05,6.5c-.27,1.18-.53,2.51-.8,3.7-.13.6-.55,1.49-.64,1.36a5.65,5.65,0,0,0-2.18-2C58.52,9.15,56.74,9.65,57.05,9.73Z"/></clipPath><clipPath id="clip-path-3"><path class="cls-2" d="M26.26,6.65a9.81,9.81,0,0,0-1.79,2.27c-1.2,2.35-2.09,4.1-.62,6.29.85,1.26,3.39,1.69,4.91,1.71,14,.25,21.15,5.55,23.53,14.1a30.25,30.25,0,0,1-1.5,20,20.57,20.57,0,0,1-3.59,5.14C42,61.89,33.65,63.49,25.9,63.9c-5.74.3-10.26-.4-16.27-4.69A21.39,21.39,0,0,1,1.54,47.94C-.32,41.11-1.77,33.1,5.1,24c5.66-7.48,9.29-3.46,8.58-7.6-.6-3.5-4.16-5-7.48-6.25a8.23,8.23,0,0,1,1.48-.47,5.19,5.19,0,0,1,1.71-.22c.95.06.47-.07,1.31.39a22,22,0,0,1,.72-5.1c1.83,1.28,4.84,4,4.9,3.75A11.35,11.35,0,0,1,19.54,3c.3,1.32.59,2.81.89,4.14.16.67.62,1.66.72,1.52a6.29,6.29,0,0,1,2.44-2.23C24.61,6,26.59,6.57,26.26,6.65Z"/></clipPath><clipPath id="clip-path-4"><path class="cls-2" d="M49.12,58.37A30.56,30.56,0,0,1,62,48.08c5.83-2.46,10.9-5,17-6.75,2-.59,5.34-1.9,6.29,0,.52,1-.43,3.3-.78,4.37A29.55,29.55,0,0,1,62.53,65a57.83,57.83,0,0,1-12.82.57c-2.08-.06-4.77-.66-5-2.72A28.41,28.41,0,0,0,49.12,58.37Z"/></clipPath><clipPath id="clip-path-5"><path class="cls-3" d="M32.52,55.17c-2.59,2.36-7.05,3-10.52,2.52a16.8,16.8,0,0,1-9.16-4.77c-5.93-5.8-6.7-16.17-3.52-23.84,1.21-2.9,3.34-5.72,6.35-6.89,2.11-.83,5.11-2,7.06-.47,1,.81,1.05,2.15.86,3.46a9.73,9.73,0,0,1-1.26,3.71c-1.79,2.95-.73,4.1-.68,5.16.12,2.21,1,3.77,1.61,5.88.24,0-.2-3.3.39-4.35,1.17-2.1,1.57-1.94,1.87-3.11.38-1.53.15-1.81.62-3.31.4-1.32,1.85-2.08,2.33-3.37.25-.68.25-3.91.71-4.47a2.84,2.84,0,0,1,2.09-.75c3.74-.26,8.08,1.32,11.28,3.26,2.94,1.79,4.88,5.09,5.83,8.4s2,5.18.39,12.13c-1.86,7.94-3,8.71-7.46,11.2C38.65,57.05,33.53,57.2,32.52,55.17Z"/></clipPath></defs><title>mangostinos</title><g class="cls-4"><g id="Capa_2" data-name="Capa 2"><g id="Ediccion"><path class="cls-1" d="M57.05,9.73a8.7,8.7,0,0,1,1.6,2c1.06,2.11,1.86,3.67.55,5.63-.76,1.12-3,1.51-4.39,1.53-12.51.22-18.92,5-21.05,12.61A27,27,0,0,0,35.11,49.4a18.52,18.52,0,0,0,3.2,4.6c4.68,5.13,12.13,6.56,19,6.92a20.31,20.31,0,0,0,14.55-4.19,19.15,19.15,0,0,0,7.24-10.08c1.66-6.11,3-13.27-3.18-21.38-5.07-6.69-8.31-3.1-7.68-6.8C68.83,15.34,72,14,75,12.88a7.25,7.25,0,0,0-1.32-.42,4.67,4.67,0,0,0-1.53-.2c-.85.06-.42-.06-1.17.35a20.06,20.06,0,0,0-.64-4.56c-1.65,1.14-4.33,3.59-4.39,3.36A10.15,10.15,0,0,0,63.05,6.5c-.27,1.18-.53,2.51-.8,3.7-.13.6-.55,1.49-.64,1.36a5.65,5.65,0,0,0-2.18-2C58.52,9.15,56.74,9.65,57.05,9.73Z"/><g class="cls-5"><path class="cls-6" d="M75.52,24.84a21.78,21.78,0,0,0-4.4-3.9c-.56-.38-1.14-.71-1.73-1a4.61,4.61,0,0,1,.13-.65,8,8,0,0,1,2.57-3.13c.76-.58,1.5-1.12,2.23-1.72s1.25-1,1.91-1.47a1.1,1.1,0,0,0-.55-2,14,14,0,0,0-4.23.36,11.42,11.42,0,0,0-4,2.56c-2.1,1.86-4.62,5.71-3.24,8.62a12.93,12.93,0,0,0,3,6.6c.36.48.71,1,1,1.45a17.2,17.2,0,0,1,1,1.82,17.16,17.16,0,0,1,.69,6.14,35.7,35.7,0,0,1-1.22,5.68Q68,47.07,67.2,50c-.78,3,3.34,4.25,4.69,1.77a3,3,0,0,0,1.27-.48A2.51,2.51,0,0,0,76,49.42c.63,2.36,4.76,2.31,5.17-.22C82.57,40.61,81.3,31.64,75.52,24.84Zm-6.76-5.25-.26-.15A1.35,1.35,0,0,1,68.76,19.59Z"/><path class="cls-7" d="M62.28,13.16c-.51-2.89-2.72-6.35-5.71-7.06a1.07,1.07,0,0,0-1.2,1.55c.24.43.51.84.78,1.25a2,2,0,0,0-1.64.32,2.48,2.48,0,0,0-1.27.33A2.54,2.54,0,0,0,52.35,13c0,.06,0,.13.08.19.59,1.54-1.19,3.1-2.56,3.82a18.87,18.87,0,0,1-2.72,1.1,2.77,2.77,0,0,0-1.71-.27,6.69,6.69,0,0,0-4.36,2.9A2.31,2.31,0,0,0,41,23a2.54,2.54,0,0,0,2.37,3.12c-1.53,2.62-3.24,6-1.34,8.72a2.68,2.68,0,0,0,4.83-.64,22.65,22.65,0,0,1,4.61-7.46c2.11-2.09,5-2.7,7.34-4.33C61.92,20.28,62.93,16.77,62.28,13.16Z"/><path class="cls-8" d="M76.29,9.29a17.1,17.1,0,0,0-4.2-1.95,21.64,21.64,0,0,0-4.75-.56,20.48,20.48,0,0,1-5-.48L61,5.93a2.63,2.63,0,0,0-1-.32l-.45,0a8.78,8.78,0,0,0-1-.13,1.89,1.89,0,0,0-.75,0l-.29,0-.54.06a2,2,0,0,0-1.18,2.91,2.67,2.67,0,0,0,2.54,1.34,17.9,17.9,0,0,1,2.45,1.29c1.28.89,2.22,2.23,3.77,2.7,1.72.53,3.36-.07,5.07-.3a24.39,24.39,0,0,1,5.6,0C77.42,13.63,78.11,10.32,76.29,9.29Z"/></g><g class="cls-9"><path class="cls-10" d="M54.43,13.3q.82.69,1.71,1.32a2.66,2.66,0,0,0,.59,2.27c.21.25.43.5.66.74.5,1.59,2.37,2.39,4,2.9a9.13,9.13,0,0,0,4.76.31,3.8,3.8,0,0,0,3.36-2,3.06,3.06,0,0,0,.27-1.09,8.51,8.51,0,0,0,3.4-.52,2.68,2.68,0,0,0,1.9-2.19c0-.07,0-.13,0-.19a2.74,2.74,0,0,0,1.6-1.49,2.2,2.2,0,0,0,.18-.69,2.26,2.26,0,0,0,.17-.43,2.59,2.59,0,0,0-1.77-3.11,18.44,18.44,0,0,1-2.7-1.36,2.67,2.67,0,0,0-3.17.41c-1.1-.27-2.2-.5-3.31-.71a23,23,0,0,0-7.47-1,2.35,2.35,0,0,0-2.3,2.3,2.46,2.46,0,0,0,0,.28C54.3,8.8,52.78,11.89,54.43,13.3Z"/><path class="cls-11" d="M76.1,19.48a2.91,2.91,0,0,0-1-.38,1.2,1.2,0,0,0-1.5,1.14,4.74,4.74,0,0,1-.83,3.27,7.06,7.06,0,0,0-1.82,1.12,22.78,22.78,0,0,1-3.54.74,29.55,29.55,0,0,1-3.1.41,20.08,20.08,0,0,0-3.88.21,5.23,5.23,0,0,0-3.69,5.34c.26,5,5.37,7.05,9.7,6.65a15.85,15.85,0,0,0,10.23-5.12c2.77-3.09,5.81-9.16,2.26-12.75A2.81,2.81,0,0,0,76.1,19.48Z"/><path class="cls-12" d="M73,38.93a7.15,7.15,0,0,0-5,.68,25.85,25.85,0,0,0-4,2,4.85,4.85,0,0,0-2.18,4.08,3.39,3.39,0,0,0,1.85,3,.74.74,0,0,0,.89-.47,2.84,2.84,0,0,0,2,1,21.74,21.74,0,0,0,5.38-.8c1.52-.41,3.44-.75,4.58-1.92a4.2,4.2,0,0,0,.54-4.9A6,6,0,0,0,73,38.93Z"/><path class="cls-13" d="M54.13,41.32a27.43,27.43,0,0,1-2.55-4,27.72,27.72,0,0,1-3.08-9.63,30.39,30.39,0,0,1-.19-5.56c.1-1.72.12-3.46,1.06-5,1.13-1.8-1.53-3.93-3-2.3a9.87,9.87,0,0,0-.93,1.25,2.92,2.92,0,0,0-1-.88,2.72,2.72,0,0,0-2.61-1.92c-5.7.61-8.75,5.68-11.08,10.37-2.61,5.26-4.17,10.88-3,16.75a40.24,40.24,0,0,0,2.84,8.25,37.65,37.65,0,0,0,3.89,6.92,22.27,22.27,0,0,0,5.58,5.79,7.17,7.17,0,0,0,5.19,1,6.23,6.23,0,0,0,5,.73C53.77,62.26,56.6,59,58.2,56c1.94-3.69,2.16-7.77-.72-11C56.38,43.71,55.16,42.62,54.13,41.32Z"/></g><path class="cls-14" d="M26.26,6.65a9.81,9.81,0,0,0-1.79,2.27c-1.2,2.35-2.09,4.1-.62,6.29.85,1.26,3.39,1.69,4.91,1.71,14,.25,21.15,5.55,23.53,14.1a30.25,30.25,0,0,1-1.5,20,20.57,20.57,0,0,1-3.59,5.14C42,61.89,33.65,63.49,25.9,63.9c-5.74.3-10.26-.4-16.27-4.69A21.39,21.39,0,0,1,1.54,47.94C-.32,41.11-1.77,33.1,5.1,24c5.66-7.48,9.29-3.46,8.58-7.6-.6-3.5-4.16-5-7.48-6.25a8.23,8.23,0,0,1,1.48-.47,5.19,5.19,0,0,1,1.71-.22c.95.06.47-.07,1.31.39a22,22,0,0,1,.72-5.1c1.83,1.28,4.84,4,4.9,3.75A11.35,11.35,0,0,1,19.54,3c.3,1.32.59,2.81.89,4.14.16.67.62,1.66.72,1.52a6.29,6.29,0,0,1,2.44-2.23C24.61,6,26.59,6.57,26.26,6.65Z"/><path class="cls-15" d="M32.52,55.17c-2.59,2.36-7.05,3-10.52,2.52a16.8,16.8,0,0,1-9.16-4.77c-5.93-5.8-6.7-16.17-3.52-23.84,1.21-2.9,3.34-5.72,6.35-6.89,2.11-.83,5.11-2,7.06-.47,1,.81,1.05,2.15.86,3.46a9.73,9.73,0,0,1-1.26,3.71c-1.79,2.95-.73,4.1-.68,5.16.12,2.21,1,3.77,1.61,5.88.24,0-.2-3.3.39-4.35,1.17-2.1,1.57-1.94,1.87-3.11.38-1.53.15-1.81.62-3.31.4-1.32,1.85-2.08,2.33-3.37.25-.68.25-3.91.71-4.47a2.84,2.84,0,0,1,2.09-.75c3.74-.26,8.08,1.32,11.28,3.26,2.94,1.79,4.88,5.09,5.83,8.4s2,5.18.39,12.13c-1.86,7.94-3,8.71-7.46,11.2C38.65,57.05,33.53,57.2,32.52,55.17Z"/><path class="cls-16" d="M67.74,60.51a36,36,0,0,0,17.76-19c1.55,2.3.58,5.43-.7,7.89a33.81,33.81,0,0,1-18.36,16.2A30.07,30.07,0,0,1,55,67.22c-1.76-.09-10.42-1.52-10.36-4,0-.89,9.24.79,10.89.65A35.81,35.81,0,0,0,67.74,60.51Z"/><path class="cls-3" d="M49.12,58.37A30.56,30.56,0,0,1,62,48.08c5.83-2.46,10.9-5,17-6.75,2-.59,5.34-1.9,6.29,0,.52,1-.43,3.3-.78,4.37A29.55,29.55,0,0,1,62.53,65a57.83,57.83,0,0,1-12.82.57c-2.08-.06-4.77-.66-5-2.72A28.41,28.41,0,0,0,49.12,58.37Z"/><path class="cls-17" d="M32.89,56.65C30.05,59.23,25.18,60,21.4,59.41a18.37,18.37,0,0,1-10-5.22c-6.49-6.34-7.33-17.67-3.85-26,1.32-3.18,3.65-6.25,6.93-7.54,2.31-.9,5.6-2.18,7.72-.51,1.14.89,6.54.18,7-.44a3.15,3.15,0,0,1,2.29-.82c4.08-.28,8.82,1.45,12.32,3.57,3.21,1.95,5.33,5.56,6.37,9.18s2.21,5.65.42,13.25c-2,8.67-3.31,9.52-8.15,12.24C39.59,58.71,34,58.86,32.89,56.65Z"/><path class="cls-18" d="M32.74,56.08c-2.73,2.49-7.45,3.19-11.11,2.66a17.8,17.8,0,0,1-9.68-5C5.68,47.57,4.87,36.61,8.23,28.51c1.28-3.07,3.53-6,6.71-7.28,2.23-.87,5.41-2.11,7.46-.5,1.1.86,6.33.17,6.81-.42a3,3,0,0,1,2.22-.8c4-.27,8.53,1.4,11.91,3.45,3.11,1.89,5.16,5.38,6.17,8.88s2.14,5.46.41,12.82c-2,8.38-3.21,9.2-7.89,11.83C39.22,58.06,33.81,58.22,32.74,56.08Z"/><g class="cls-19"><path class="cls-20" d="M24.1,3.82c-1.08.26-2.21-.36-3.25-.59a11.1,11.1,0,0,0-3.94-.11,48.36,48.36,0,0,0-7.45,2A1.94,1.94,0,0,0,8.3,7.58,12.17,12.17,0,0,0,7.13,8a.56.56,0,0,0,0,1.07c1,.29,2,.61,3,.89a19.27,19.27,0,0,1,2.67.85c1.66.7,3.2,2.26,5.12,2,1.64-.2,2.63-1.52,3.5-2.79a8.8,8.8,0,0,1,4-3.27C27.09,6.05,25.81,3.41,24.1,3.82Z"/><path class="cls-21" d="M4.06,11.77c1.27.64,2.55,1.26,3.76,2,.89.54,2.43,1.64,2.4,2.84,0,.93-1.08,1.69-1.72,2.22a26.31,26.31,0,0,0-3.26,2.89C.83,26.82.11,33.81.42,40.29c.3,6.32,1.86,12.61,6.13,17.46a27.69,27.69,0,0,0,14.83,8.33,40.37,40.37,0,0,0,11.5.74c2.06-.15,4.12-.42,6.16-.77,1.79-.3,3.87-1.09,4.83-2.71a1,1,0,0,0-.34-1.3,7.13,7.13,0,0,0-4.88-.64c-1.71.27-3.4.57-5.13.72a37.93,37.93,0,0,1-10-.28,23.8,23.8,0,0,1-14-7.49c-4-4.63-4.9-11-5-16.92A23.67,23.67,0,0,1,6,28a15.82,15.82,0,0,1,5-6.11c2.52-2.07,4.15-5.15,1.95-8.14-1.91-2.6-5.64-4.39-8.79-3.16-.49.19-.72.94-.16,1.22Z"/><path class="cls-22" d="M24.15,13.27c-.52,1.56,1.34,2.81,2.55,3.34a33.82,33.82,0,0,0,7,1.67c4.31.86,8.94,1.17,12.36,4.24,7,6.22,6.53,16.32,4.93,24.7a23.83,23.83,0,0,1-2.26,7.05,16.07,16.07,0,0,1-2.19,3.1,13.35,13.35,0,0,0-2.55,3c-.52,1.09.34,2.61,1.67,2.18,2.25-.71,4.31-3.08,5.72-4.91a19,19,0,0,0,3-6.43,45.7,45.7,0,0,0,1.58-15.48,24.61,24.61,0,0,0-4.56-13,18.1,18.1,0,0,0-11.18-7c-3-.61-6.1-1-9.15-1.36-1.26-.16-2.53-.26-3.78-.41a25,25,0,0,1-2.85-.78.22.22,0,0,0-.25.14Z"/></g><g class="cls-23"><path class="cls-24" d="M86,41.17a5.89,5.89,0,0,0-2.68-2.91,3.07,3.07,0,0,0-3.37.33,6,6,0,0,0-1-1.28,2.55,2.55,0,0,0-4.22,1.11c-1.21,3.73-1.16,7.66-2.93,11.23a22.63,22.63,0,0,1-6.47,7.9A27.25,27.25,0,0,1,55,62.24c-3.62.85-7.72,1.6-11.37.55-.7-.2-1,.62-.64,1.11,1.45,1.87,4,2.51,6.39,2.78a.84.84,0,0,0-.06.14,2.54,2.54,0,0,0,1,3.15c2.84,1.86,6.44,1.18,9.54.42a35,35,0,0,0,7.65-3A41.25,41.25,0,0,0,80,57.23a44,44,0,0,0,4.7-6.85C86.3,47.53,87.39,44.32,86,41.17ZM81.2,42.75Z"/></g><path class="cls-3" d="M32.52,55.17c-2.59,2.36-7.05,3-10.52,2.52a16.8,16.8,0,0,1-9.16-4.77c-5.93-5.8-6.7-16.17-3.52-23.84,1.21-2.9,3.34-5.72,6.35-6.89,2.11-.83,5.11-2,7.06-.47,1,.81,1.05,2.15.86,3.46a9.73,9.73,0,0,1-1.26,3.71c-1.79,2.95-.73,4.1-.68,5.16.12,2.21,1,3.77,1.61,5.88.24,0-.2-3.3.39-4.35,1.17-2.1,1.57-1.94,1.87-3.11.38-1.53.15-1.81.62-3.31.4-1.32,1.85-2.08,2.33-3.37.25-.68.25-3.91.71-4.47a2.84,2.84,0,0,1,2.09-.75c3.74-.26,8.08,1.32,11.28,3.26,2.94,1.79,4.88,5.09,5.83,8.4s2,5.18.39,12.13c-1.86,7.94-3,8.71-7.46,11.2C38.65,57.05,33.53,57.2,32.52,55.17Z"/><g class="cls-25"><path class="cls-26" d="M25.45,22.3a9.06,9.06,0,0,0,2.65.22,15.56,15.56,0,0,1,3.25.55,54.36,54.36,0,0,1,5.28,1.6,16.93,16.93,0,0,1,8.11,5.69c2.23,3.19,2.75,7.1,2.49,10.9s-1.16,7.9-3.37,11.05a8.84,8.84,0,0,1-4.23,3.28A7.65,7.65,0,0,1,37,56a11.09,11.09,0,0,1-1.29-.16c-.57-.09-1.12,0-1.69-.06A1.53,1.53,0,0,0,32.9,58.4,5.2,5.2,0,0,0,35.8,60a10.52,10.52,0,0,0,3.54-.09,12.65,12.65,0,0,0,6-3c3.54-3.12,5.14-8,5.83-12.52.75-4.91.62-10.06-1.76-14.53a18.92,18.92,0,0,0-9.87-8.28,27.25,27.25,0,0,0-7.06-1.75c-2.11-.25-6.16-.64-7.35,1.63a.62.62,0,0,0,.36.89Z"/><path class="cls-27" d="M30.43,56.27a33.84,33.84,0,0,1-4.87-2.33,19.35,19.35,0,0,1-2.1-2,17.59,17.59,0,0,1-3-5.89A69.47,69.47,0,0,1,18,36.9a22.28,22.28,0,0,1,3.36-12,2.44,2.44,0,0,0,.95-.79l1-1.29a1.72,1.72,0,0,0,.43-.55l.4-.52c1-1.29-.68-3.41-2.18-2.82a6.9,6.9,0,0,0-1.18.61.71.71,0,0,0-.77-.37c-.8.12-1.57.31-2.36.5A7.61,7.61,0,0,0,15.22,21a17.28,17.28,0,0,0-3.9,3.54A19.63,19.63,0,0,0,7.25,34.79c-.7,7.08,1,15.82,6.73,20.56a19.71,19.71,0,0,0,12.46,4.09l.08.06a1.53,1.53,0,0,0,1,.27c.59.18,1.19.33,1.79.46A2.05,2.05,0,0,0,30.43,56.27Z"/></g><path class="cls-28" d="M16.87,53.87c.3-1.49,3.05-1.84,3.49-.25s.19,2.73-1.27,3.24S16.55,55.46,16.87,53.87Z"/><path class="cls-29" d="M17.54,53.89c.15-.73,1.49-.9,1.71-.12s.09,1.34-.62,1.58S17.38,54.67,17.54,53.89Z"/><path class="cls-30" d="M17.72,53.82c.08-.43.87-.53,1-.07s.05.78-.37.92S17.63,54.27,17.72,53.82Z"/><path class="cls-31" d="M15.81,50.76c.3-1.49,3-1.84,3.49-.25s.19,2.73-1.27,3.24S15.49,52.35,15.81,50.76Z"/><path class="cls-32" d="M16.48,50.78c.14-.73,1.49-.9,1.71-.12s.09,1.34-.63,1.58S16.32,51.56,16.48,50.78Z"/><path class="cls-33" d="M16.66,50.71c.08-.43.87-.53,1-.07s.05.78-.37.92S16.57,51.16,16.66,50.71Z"/><path class="cls-31" d="M14.4,50.4c1.36-.69,3.33,1.25,2.36,2.58s-2,1.85-3.32,1S13,51.14,14.4,50.4Z"/><path class="cls-32" d="M14.8,50.94c.66-.34,1.63.61,1.16,1.26s-1,.91-1.63.5S14.09,51.3,14.8,50.94Z"/><path class="cls-33" d="M15,51c.39-.2.95.35.67.73s-.57.53-1,.29S14.56,51.25,15,51Z"/><path class="cls-31" d="M12.16,50.6c-.88-1.26.78-3.47,2.23-2.69s2.1,1.75,1.45,3.16S13.08,51.93,12.16,50.6Z"/><path class="cls-32" d="M12.64,50.13c-.43-.61.38-1.7,1.09-1.32s1,.86.71,1.55S13.09,50.78,12.64,50.13Z"/><path class="cls-33" d="M12.71,50c-.25-.36.22-1,.64-.77s.6.5.41.9S13,50.33,12.71,50Z"/><path class="cls-31" d="M14.37,47.3c.18-1.52,2.89-2.07,3.46-.53s.4,2.71-1,3.33S14.18,48.9,14.37,47.3Z"/><path class="cls-32" d="M15,47.26c.09-.74,1.42-1,1.69-.25s.2,1.32-.49,1.63S14.94,48.05,15,47.26Z"/><path class="cls-33" d="M15.21,47.18c0-.44.83-.6,1-.15s.12.77-.29.95S15.16,47.64,15.21,47.18Z"/><path class="cls-31" d="M9,45.63c.18-1.52,2.89-2.07,3.45-.53s.41,2.71-1,3.33S8.79,47.23,9,45.63Z"/><path class="cls-32" d="M9.65,45.6c.09-.75,1.42-1,1.7-.26s.19,1.32-.5,1.63S9.56,46.38,9.65,45.6Z"/><path class="cls-33" d="M9.83,45.51c.05-.44.82-.59,1-.15s.11.77-.29,1S9.77,46,9.83,45.51Z"/><path class="cls-31" d="M11.57,45.42c.19-1.52,2.9-2.07,3.46-.52s.4,2.7-1,3.32S11.38,47,11.57,45.42Z"/><path class="cls-32" d="M12.24,45.39c.09-.75,1.42-1,1.7-.26s.19,1.33-.5,1.63S12.15,46.17,12.24,45.39Z"/><path class="cls-33" d="M12.42,45.3c.05-.43.82-.59,1-.15s.11.77-.3,1S12.36,45.76,12.42,45.3Z"/><path class="cls-31" d="M6.72,41.25c.18-1.52,2.89-2.07,3.46-.53s.4,2.71-1,3.33S6.53,42.85,6.72,41.25Z"/><path class="cls-32" d="M7.39,41.22c.09-.75,1.41-1,1.69-.26s.2,1.32-.5,1.63S7.29,42,7.39,41.22Z"/><path class="cls-33" d="M7.56,41.13c.05-.44.83-.59,1-.15s.12.77-.29,1S7.51,41.59,7.56,41.13Z"/><path class="cls-31" d="M10.28,43.48c-1.09-1.07.12-3.56,1.69-3.06s2.39,1.33,2,2.83S11.43,44.61,10.28,43.48Z"/><path class="cls-32" d="M10.66,42.93c-.53-.52.06-1.74.83-1.5s1.17.66,1,1.39S11.23,43.49,10.66,42.93Z"/><path class="cls-33" d="M10.7,42.74c-.32-.31,0-1,.48-.87s.68.38.58.81S11,43.06,10.7,42.74Z"/><path class="cls-31" d="M8.76,39.84c-1.09-1.07.12-3.56,1.7-3.06s2.38,1.33,2,2.83S9.91,41,8.76,39.84Z"/><path class="cls-32" d="M9.14,39.29c-.53-.52.06-1.74.83-1.5s1.17.65,1,1.39S9.71,39.85,9.14,39.29Z"/><path class="cls-33" d="M9.18,39.1c-.31-.31,0-1,.48-.88s.69.39.58.81S9.51,39.42,9.18,39.1Z"/><path class="cls-28" d="M7.77,36.43c-1.09-1.07.13-3.56,1.7-3.06s2.39,1.33,2,2.83S8.93,37.56,7.77,36.43Z"/><path class="cls-29" d="M8.16,35.88c-.54-.53.06-1.74.83-1.5s1.17.65,1,1.39S8.72,36.43,8.16,35.88Z"/><path class="cls-30" d="M8.19,35.69c-.31-.31,0-1,.49-.88s.68.38.57.81S8.52,36,8.19,35.69Z"/><path class="cls-31" d="M11.57,37.87c-1.09-1.07.12-3.56,1.69-3.06s2.39,1.33,2,2.83S12.72,39,11.57,37.87Z"/><path class="cls-32" d="M12,37.32c-.53-.53.06-1.74.83-1.5s1.17.65,1,1.39S12.51,37.87,12,37.32Z"/><path class="cls-33" d="M12,37.13c-.32-.31,0-1,.48-.88s.68.38.58.81S12.32,37.45,12,37.13Z"/><path class="cls-31" d="M9.06,32.79c-1.09-1.07.13-3.56,1.7-3.06s2.39,1.33,2,2.83S10.22,33.92,9.06,32.79Z"/><path class="cls-32" d="M9.45,32.24c-.54-.53.06-1.74.83-1.5s1.17.65,1,1.38S10,32.79,9.45,32.24Z"/><path class="cls-33" d="M9.48,32.05c-.31-.31,0-1,.49-.88s.68.38.57.81S9.81,32.37,9.48,32.05Z"/><path class="cls-31" d="M10.65,32.54c.68-1.37,3.42-1,3.43.68S13.54,35.9,12,36,9.92,34,10.65,32.54Z"/><path class="cls-32" d="M11.29,32.74c.33-.67,1.67-.48,1.68.33s-.27,1.31-1,1.36S10.93,33.44,11.29,32.74Z"/><path class="cls-33" d="M11.48,32.71c.2-.39,1-.28,1,.2s-.15.76-.59.79S11.27,33.12,11.48,32.71Z"/><path class="cls-34" d="M10.42,27.46c.68-1.37,3.42-1,3.43.68s-.54,2.68-2.08,2.78S9.69,28.9,10.42,27.46Z"/><path class="cls-35" d="M11.06,27.65c.33-.66,1.68-.47,1.68.34s-.26,1.31-1,1.36S10.7,28.36,11.06,27.65Z"/><path class="cls-36" d="M11.25,27.63c.2-.39,1-.28,1,.19s-.15.77-.59.8S11,28,11.25,27.63Z"/><path class="cls-37" d="M12,29.66c.69-1.37,3.43-1,3.43.68S14.9,33,13.36,33.12,11.29,31.1,12,29.66Z"/><path class="cls-38" d="M12.65,29.85c.34-.67,1.68-.47,1.68.34s-.26,1.31-1,1.36S12.3,30.56,12.65,29.85Z"/><path class="cls-39" d="M12.84,29.83c.2-.39,1-.28,1,.19s-.16.77-.6.8S12.64,30.24,12.84,29.83Z"/><path class="cls-31" d="M12.92,25.26c.69-1.37,3.43-1,3.43.68s-.53,2.68-2.08,2.78S12.2,26.7,12.92,25.26Z"/><path class="cls-32" d="M13.56,25.45c.34-.66,1.68-.47,1.68.34s-.26,1.31-1,1.36S13.21,26.16,13.56,25.45Z"/><path class="cls-33" d="M13.75,25.43c.2-.39,1-.28,1,.19s-.16.77-.6.8S13.55,25.84,13.75,25.43Z"/><path class="cls-31" d="M20.7,23c.69-1.36,3.42-1,3.43.68s-.54,2.69-2.08,2.79S20,24.4,20.7,23Z"/><path class="cls-32" d="M21.34,23.15c.34-.67,1.68-.47,1.68.33s-.26,1.32-1,1.37S21,23.86,21.34,23.15Z"/><path class="cls-33" d="M21.53,23.13c.2-.39,1-.28,1,.19s-.15.77-.59.8S21.32,23.54,21.53,23.13Z"/><path class="cls-31" d="M17,23c.68-1.36,3.42-1,3.43.68s-.54,2.68-2.08,2.78S16.29,24.43,17,23Z"/><path class="cls-32" d="M17.66,23.18c.33-.67,1.67-.48,1.68.33s-.27,1.31-1,1.36S17.3,23.89,17.66,23.18Z"/><path class="cls-33" d="M17.85,23.15c.2-.39,1-.27,1,.2s-.15.77-.59.79S17.64,23.57,17.85,23.15Z"/><path class="cls-31" d="M19.25,27c-.67-1.38,1.3-3.31,2.62-2.32s1.8,2.06.95,3.34S20,28.44,19.25,27Z"/><path class="cls-32" d="M19.79,26.6c-.33-.67.64-1.62,1.28-1.14s.89,1,.47,1.64S20.14,27.31,19.79,26.6Z"/><path class="cls-33" d="M19.89,26.43c-.19-.39.37-.95.75-.66s.51.59.27.95S20.09,26.85,19.89,26.43Z"/><path class="cls-28" d="M15.19,27.82c-.67-1.37,1.31-3.31,2.62-2.31s1.8,2,1,3.34S15.9,29.28,15.19,27.82Z"/><path class="cls-29" d="M15.73,27.43c-.32-.67.64-1.62,1.29-1.13s.88,1,.46,1.63S16.08,28.14,15.73,27.43Z"/><path class="cls-30" d="M15.83,27.27c-.19-.4.37-.95.75-.67s.52.59.27,1S16,27.68,15.83,27.27Z"/><path class="cls-40" d="M14.67,27.51c1-1.13,3.56,0,3.12,1.59S16.54,31.53,15,31.21,13.58,28.7,14.67,27.51Z"/><path class="cls-41" d="M15.23,27.87c.51-.55,1.75,0,1.53.78s-.61,1.19-1.35,1S14.7,28.46,15.23,27.87Z"/><path class="cls-42" d="M15.43,27.9c.29-.32,1,0,.89.46s-.36.69-.79.6S15.11,28.24,15.43,27.9Z"/><path class="cls-31" d="M18.9,27.7c1-1.13,3.56,0,3.12,1.59s-1.26,2.43-2.77,2.11S17.81,28.89,18.9,27.7Z"/><path class="cls-32" d="M19.46,28.06c.51-.55,1.74,0,1.53.78s-.62,1.19-1.35,1S18.93,28.65,19.46,28.06Z"/><path class="cls-33" d="M19.66,28.09c.29-.32,1,0,.89.46s-.36.69-.79.6S19.34,28.43,19.66,28.09Z"/><path class="cls-31" d="M14.71,32.1c1-1.13,3.56,0,3.12,1.59s-1.26,2.43-2.77,2.11S13.62,33.29,14.71,32.1Z"/><path class="cls-32" d="M15.27,32.46c.51-.55,1.74,0,1.53.78s-.62,1.19-1.36,1S14.74,33.05,15.27,32.46Z"/><path class="cls-33" d="M15.46,32.49c.3-.32,1,0,.9.46s-.36.69-.8.6S15.15,32.83,15.46,32.49Z"/><path class="cls-31" d="M18.35,30.6c1-1.13,3.56,0,3.11,1.59s-1.25,2.43-2.76,2.11S17.25,31.79,18.35,30.6Z"/><path class="cls-32" d="M18.91,31c.51-.55,1.74,0,1.52.78s-.61,1.19-1.35,1S18.37,31.54,18.91,31Z"/><path class="cls-33" d="M19.1,31c.3-.32,1,0,.89.46s-.36.69-.79.6S18.79,31.33,19.1,31Z"/><path class="cls-31" d="M16.43,34.94c1-1.13,3.56,0,3.12,1.59S18.3,39,16.78,38.64,15.34,36.13,16.43,34.94Z"/><path class="cls-32" d="M17,35.3c.51-.55,1.75,0,1.53.78s-.61,1.19-1.35,1S16.46,35.89,17,35.3Z"/><path class="cls-33" d="M17.19,35.33c.29-.32,1,0,.89.46s-.36.69-.79.6S16.87,35.67,17.19,35.33Z"/><path class="cls-31" d="M12.19,37.82c1-1.12,3.55,0,3.11,1.59s-1.25,2.44-2.76,2.11S11.09,39,12.19,37.82Z"/><path class="cls-32" d="M12.75,38.19c.5-.55,1.74,0,1.52.78s-.61,1.19-1.35,1S12.21,38.77,12.75,38.19Z"/><path class="cls-33" d="M12.94,38.22c.29-.33,1,0,.89.45s-.36.7-.79.6S12.63,38.56,12.94,38.22Z"/><path class="cls-31" d="M17.12,37.44c1-1.12,3.55,0,3.11,1.6s-1.25,2.43-2.76,2.1S16,38.63,17.12,37.44Z"/><path class="cls-32" d="M17.68,37.81c.5-.55,1.74,0,1.52.78s-.61,1.19-1.35,1S17.14,38.39,17.68,37.81Z"/><path class="cls-33" d="M17.87,37.84c.29-.33,1,0,.89.45s-.36.7-.79.6S17.56,38.18,17.87,37.84Z"/><path class="cls-31" d="M19.36,32.52c1.53-.13,2.62,2.41,1.23,3.28s-2.57,1-3.46-.31S17.75,32.66,19.36,32.52Z"/><path class="cls-32" d="M19.53,33.17c.75-.06,1.29,1.18.6,1.61s-1.25.46-1.69-.16S18.74,33.24,19.53,33.17Z"/><path class="cls-33" d="M19.65,33.32c.44,0,.75.69.35.94s-.73.27-1-.09S19.19,33.36,19.65,33.32Z"/><path class="cls-31" d="M17.6,28.94c1.52-.13,2.62,2.41,1.22,3.28s-2.56.94-3.46-.31S16,29.08,17.6,28.94Z"/><path class="cls-32" d="M17.77,29.59c.74-.07,1.28,1.17.6,1.6s-1.26.47-1.7-.15S17,29.66,17.77,29.59Z"/><path class="cls-33" d="M17.89,29.74c.44,0,.75.69.35.94s-.73.27-1-.09S17.43,29.78,17.89,29.74Z"/><path class="cls-40" d="M15.55,34.29c1.52-.14,2.62,2.4,1.23,3.27s-2.57.95-3.47-.31S13.94,34.43,15.55,34.29Z"/><path class="cls-41" d="M15.72,34.93c.75-.06,1.28,1.18.6,1.61s-1.26.46-1.7-.15S14.93,35,15.72,34.93Z"/><path class="cls-42" d="M15.84,35.09c.44,0,.75.68.35.93s-.73.27-1-.09S15.38,35.13,15.84,35.09Z"/><path class="cls-31" d="M14.13,31.61c1.52-.13,2.62,2.41,1.22,3.28s-2.56,1-3.46-.31S12.52,31.75,14.13,31.61Z"/><path class="cls-32" d="M14.3,32.26c.74-.06,1.28,1.18.6,1.61s-1.26.46-1.7-.16S13.51,32.33,14.3,32.26Z"/><path class="cls-33" d="M14.42,32.41c.44,0,.75.69.35.94s-.73.27-1-.09S14,32.45,14.42,32.41Z"/><path class="cls-31" d="M15.44,39.83c1.52-.14,2.62,2.4,1.22,3.27s-2.56.95-3.46-.31S13.83,40,15.44,39.83Z"/><path class="cls-32" d="M15.61,40.47c.74-.06,1.28,1.18.59,1.61s-1.25.46-1.69-.15S14.82,40.54,15.61,40.47Z"/><path class="cls-33" d="M15.73,40.62c.43,0,.75.69.35.94s-.74.27-1-.09S15.27,40.67,15.73,40.62Z"/><path class="cls-31" d="M10.2,41.82c1.53-.14,2.62,2.4,1.23,3.27S8.86,46,8,44.78,8.59,42,10.2,41.82Z"/><path class="cls-32" d="M10.37,42.46c.75-.06,1.28,1.18.6,1.61s-1.26.46-1.69-.15S9.58,42.53,10.37,42.46Z"/><path class="cls-33" d="M10.49,42.62c.44,0,.75.68.35.93s-.73.27-1-.08S10,42.66,10.49,42.62Z"/><path class="cls-40" d="M11.06,38.57c1.52-.13,2.62,2.41,1.22,3.28s-2.56.95-3.46-.31S9.45,38.71,11.06,38.57Z"/><path class="cls-41" d="M11.23,39.22c.74-.06,1.28,1.18.59,1.61s-1.25.46-1.69-.15S10.44,39.29,11.23,39.22Z"/><path class="cls-42" d="M11.35,39.37c.43,0,.75.69.35.94s-.74.27-1-.09S10.89,39.41,11.35,39.37Z"/><path class="cls-31" d="M19.48,39.83c1.52-.14,2.62,2.4,1.22,3.27s-2.57.95-3.46-.31S17.87,40,19.48,39.83Z"/><path class="cls-32" d="M19.64,40.47c.75-.06,1.29,1.18.6,1.61s-1.25.46-1.69-.15S18.86,40.54,19.64,40.47Z"/><path class="cls-33" d="M19.77,40.62c.43,0,.75.69.35.94s-.74.27-1-.09S19.31,40.67,19.77,40.62Z"/><path class="cls-31" d="M17.43,40.58c1.52-.13,2.62,2.41,1.22,3.28s-2.56,1-3.46-.31S15.82,40.72,17.43,40.58Z"/><path class="cls-32" d="M17.6,41.23c.74-.06,1.28,1.18.6,1.61s-1.26.46-1.7-.15S16.81,41.3,17.6,41.23Z"/><path class="cls-33" d="M17.72,41.38c.43,0,.75.69.35.94s-.74.27-1-.09S17.26,41.42,17.72,41.38Z"/><path class="cls-43" d="M15.84,41.7c1.52-.13,2.62,2.41,1.22,3.28s-2.57,1-3.46-.31S14.22,41.84,15.84,41.7Z"/><path class="cls-44" d="M16,42.35c.75-.06,1.29,1.18.6,1.61s-1.25.46-1.69-.16S15.22,42.42,16,42.35Z"/><path class="cls-45" d="M16.13,42.5c.43,0,.75.69.35.94s-.74.27-1-.09S15.66,42.54,16.13,42.5Z"/><path class="cls-31" d="M16.25,44c1.53-.14,2.62,2.4,1.23,3.27s-2.57,1-3.47-.31S14.64,44.16,16.25,44Z"/><path class="cls-32" d="M16.42,44.66c.75-.06,1.28,1.18.6,1.61s-1.26.46-1.69-.15S15.63,44.73,16.42,44.66Z"/><path class="cls-33" d="M16.54,44.82c.44,0,.75.68.35.93s-.73.27-1-.09S16.08,44.86,16.54,44.82Z"/><path class="cls-31" d="M33.7,42.88c1.52-.13,2.62,2.41,1.22,3.28s-2.56.94-3.46-.31S32.09,43,33.7,42.88Z"/><path class="cls-32" d="M33.87,43.53c.74-.07,1.28,1.17.6,1.6s-1.26.47-1.7-.15S33.08,43.6,33.87,43.53Z"/><path class="cls-33" d="M34,43.68c.43,0,.75.69.35.94s-.74.27-1-.09S33.53,43.72,34,43.68Z"/><path class="cls-31" d="M28.56,46.41c1.52-.13,2.62,2.41,1.22,3.28s-2.57,1-3.46-.31S26.94,46.55,28.56,46.41Z"/><path class="cls-32" d="M28.72,47.06c.75-.06,1.29,1.18.6,1.6s-1.25.47-1.69-.15S27.94,47.13,28.72,47.06Z"/><path class="cls-33" d="M28.85,47.21c.43,0,.75.69.35.94s-.74.27-1-.09S28.38,47.25,28.85,47.21Z"/><path class="cls-31" d="M28.78,48.69c1.53-.14,2.62,2.4,1.23,3.28s-2.57.94-3.47-.31S27.17,48.83,28.78,48.69Z"/><path class="cls-32" d="M29,49.34c.75-.07,1.28,1.17.6,1.6s-1.26.46-1.69-.15S28.16,49.4,29,49.34Z"/><path class="cls-33" d="M29.07,49.49c.44,0,.75.69.35.93s-.73.28-1-.08S28.61,49.53,29.07,49.49Z"/><path class="cls-31" d="M33.56,49.14c1.52-.13,2.62,2.41,1.23,3.28s-2.57.95-3.47-.31S32,49.28,33.56,49.14Z"/><path class="cls-32" d="M33.73,49.79c.75-.06,1.28,1.18.6,1.61s-1.26.46-1.7-.16S32.94,49.86,33.73,49.79Z"/><path class="cls-33" d="M33.85,49.94c.44,0,.75.69.35.94s-.73.27-1-.09S33.39,50,33.85,49.94Z"/><path class="cls-31" d="M31.21,48.84c1.52-.13,2.62,2.41,1.22,3.28s-2.56,1-3.46-.31S29.6,49,31.21,48.84Z"/><path class="cls-32" d="M31.38,49.49c.74-.07,1.28,1.18.6,1.6s-1.26.47-1.7-.15S30.59,49.56,31.38,49.49Z"/><path class="cls-33" d="M31.5,49.64c.44,0,.75.69.35.94s-.73.27-1-.09S31,49.68,31.5,49.64Z"/><path class="cls-46" d="M30.83,51.57c1.52-.13,2.62,2.41,1.22,3.28s-2.56.95-3.46-.31S29.22,51.71,30.83,51.57Z"/><path class="cls-47" d="M31,52.22c.74-.07,1.28,1.18.6,1.6s-1.26.47-1.7-.15S30.21,52.29,31,52.22Z"/><path class="cls-48" d="M31.12,52.37c.44,0,.75.69.35.94s-.73.27-1-.09S30.66,52.41,31.12,52.37Z"/><path class="cls-31" d="M35.84,51.27c1.52-.14,2.62,2.4,1.22,3.27s-2.56,1-3.46-.31S34.23,51.41,35.84,51.27Z"/><path class="cls-32" d="M36,51.91c.74-.06,1.28,1.18.59,1.61s-1.25.46-1.69-.15S35.22,52,36,51.91Z"/><path class="cls-33" d="M36.13,52.07c.43,0,.75.68.35.93s-.74.27-1-.09S35.67,52.11,36.13,52.07Z"/><path class="cls-31" d="M40.09,50.2c1.52-.13,2.62,2.41,1.22,3.28s-2.57,1-3.46-.31S38.47,50.35,40.09,50.2Z"/><path class="cls-32" d="M40.25,50.85c.75-.06,1.29,1.18.6,1.61s-1.25.46-1.69-.15S39.46,50.92,40.25,50.85Z"/><path class="cls-33" d="M40.38,51c.43,0,.74.69.34.94s-.73.27-1-.09S39.91,51,40.38,51Z"/><path class="cls-31" d="M36.9,47.55c1.52-.13,2.62,2.41,1.22,3.28s-2.56,1-3.46-.31S35.29,47.69,36.9,47.55Z"/><path class="cls-32" d="M37.07,48.2c.74-.07,1.28,1.18.6,1.6s-1.26.47-1.7-.15S36.28,48.27,37.07,48.2Z"/><path class="cls-33" d="M37.19,48.35c.43,0,.75.69.35.94s-.73.27-1-.09S36.73,48.39,37.19,48.35Z"/><path class="cls-31" d="M36.67,44.29c1.52-.13,2.62,2.4,1.22,3.28s-2.56.94-3.46-.31S35.06,44.43,36.67,44.29Z"/><path class="cls-32" d="M36.84,44.94c.75-.07,1.28,1.17.6,1.6s-1.26.46-1.7-.15S36.05,45,36.84,44.94Z"/><path class="cls-33" d="M37,45.09c.44,0,.75.69.35.94s-.73.27-1-.09S36.5,45.13,37,45.09Z"/><path class="cls-31" d="M37.89,40.12c1.52-.14,2.62,2.4,1.22,3.27s-2.57,1-3.46-.31S36.27,40.26,37.89,40.12Z"/><path class="cls-32" d="M38.05,40.76c.75-.06,1.29,1.18.6,1.61s-1.25.46-1.69-.15S37.26,40.83,38.05,40.76Z"/><path class="cls-33" d="M38.18,40.92c.43,0,.74.68.35.93s-.74.27-1-.09S37.71,41,38.18,40.92Z"/><path class="cls-31" d="M35.84,37.61c1.52-.13,2.62,2.41,1.22,3.28s-2.56,1-3.46-.31S34.23,37.75,35.84,37.61Z"/><path class="cls-32" d="M36,38.26c.74-.06,1.28,1.18.59,1.61s-1.25.46-1.69-.16S35.22,38.33,36,38.26Z"/><path class="cls-33" d="M36.13,38.41c.43,0,.75.69.35.94s-.74.27-1-.09S35.67,38.45,36.13,38.41Z"/><path class="cls-31" d="M36.44,31.85c1.53-.13,2.63,2.4,1.23,3.28s-2.57.94-3.46-.31S34.83,32,36.44,31.85Z"/><path class="cls-32" d="M36.61,32.5c.75-.07,1.29,1.17.6,1.6S36,34.57,35.52,34,35.82,32.57,36.61,32.5Z"/><path class="cls-33" d="M36.73,32.65c.44,0,.75.69.35.94s-.73.27-1-.09S36.27,32.69,36.73,32.65Z"/><path class="cls-31" d="M36.67,28.89c1.52-.13,2.62,2.41,1.22,3.28s-2.56.95-3.46-.31S35.06,29,36.67,28.89Z"/><path class="cls-32" d="M36.84,29.54c.75-.07,1.28,1.18.6,1.6s-1.26.47-1.7-.15S36.05,29.61,36.84,29.54Z"/><path class="cls-33" d="M37,29.69c.44,0,.75.69.35.94s-.73.27-1-.09S36.5,29.73,37,29.69Z"/><path class="cls-31" d="M28.43,25.48c.6-1.41,3.35-1.2,3.47.45s-.35,2.71-1.89,2.91S27.81,27,28.43,25.48Z"/><path class="cls-32" d="M29.08,25.63c.29-.69,1.65-.58,1.7.22s-.17,1.33-.92,1.43S28.78,26.36,29.08,25.63Z"/><path class="cls-33" d="M29.28,25.6c.16-.41.95-.35,1,.12s-.1.78-.54.84S29.1,26,29.28,25.6Z"/><path class="cls-31" d="M31.05,25.85c.59-1.41,3.35-1.2,3.47.44s-.36,2.71-1.89,2.92S30.42,27.34,31.05,25.85Z"/><path class="cls-32" d="M31.7,26c.29-.69,1.64-.59,1.7.22s-.18,1.33-.93,1.43S31.39,26.73,31.7,26Z"/><path class="cls-33" d="M31.89,26c.17-.4,1-.34,1,.13s-.1.78-.54.84S31.71,26.39,31.89,26Z"/><path class="cls-31" d="M31.4,26.9c-1.27-.85-.53-3.52,1.11-3.32S35.1,24.45,35,26,32.74,27.8,31.4,26.9Z"/><path class="cls-32" d="M31.68,26.29c-.62-.42-.26-1.72.54-1.62s1.27.42,1.22,1.18S32.34,26.73,31.68,26.29Z"/><path class="cls-33" d="M31.68,26.1c-.36-.25-.15-1,.31-1s.75.25.72.69S32.06,26.36,31.68,26.1Z"/><path class="cls-31" d="M34.05,26.39c.59-1.41,3.35-1.2,3.47.45s-.36,2.71-1.89,2.91S33.42,27.88,34.05,26.39Z"/><path class="cls-32" d="M34.7,26.54c.29-.69,1.64-.58,1.7.22s-.18,1.33-.93,1.43S34.39,27.27,34.7,26.54Z"/><path class="cls-33" d="M34.89,26.51c.17-.41,1-.35,1,.12s-.1.78-.54.84S34.71,26.93,34.89,26.51Z"/><path class="cls-37" d="M33.9,23.35c.59-1.41,3.35-1.19,3.47.45s-.36,2.71-1.89,2.92S33.27,24.84,33.9,23.35Z"/><path class="cls-38" d="M34.55,23.51c.29-.69,1.64-.59,1.7.21s-.18,1.33-.92,1.43S34.24,24.24,34.55,23.51Z"/><path class="cls-39" d="M34.74,23.47c.17-.4,1-.34,1,.13s-.1.77-.54.83S34.56,23.9,34.74,23.47Z"/><path class="cls-31" d="M36.63,28.89c.59-1.41,3.35-1.19,3.47.45s-.36,2.71-1.89,2.92S36,30.38,36.63,28.89Z"/><path class="cls-32" d="M37.28,29.05c.29-.69,1.64-.59,1.7.22s-.18,1.32-.93,1.42S37,29.78,37.28,29.05Z"/><path class="cls-33" d="M37.47,29c.17-.4,1-.34,1,.13s-.1.77-.54.83S37.29,29.44,37.47,29Z"/><path class="cls-31" d="M28.89,33.67c.59-1.41,3.35-1.19,3.47.45S32,36.83,30.47,37,28.26,35.16,28.89,33.67Z"/><path class="cls-32" d="M29.54,33.83c.29-.69,1.64-.59,1.7.21s-.18,1.33-.93,1.43S29.23,34.56,29.54,33.83Z"/><path class="cls-33" d="M29.73,33.79c.17-.4,1-.34,1,.13s-.1.77-.54.83S29.55,34.21,29.73,33.79Z"/><path class="cls-31" d="M34,45.81c1.52-.14,2.62,2.4,1.22,3.27s-2.56,1-3.46-.31S32.41,46,34,45.81Z"/><path class="cls-32" d="M34.19,46.45c.74-.06,1.28,1.18.59,1.61s-1.25.46-1.69-.15S33.4,46.52,34.19,46.45Z"/><path class="cls-33" d="M34.31,46.6c.43,0,.75.69.35.94s-.74.27-1-.09S33.85,46.64,34.31,46.6Z"/><path class="cls-31" d="M18.91,42.56c1.52-.14,2.62,2.4,1.22,3.27s-2.56,1-3.46-.31S17.3,42.7,18.91,42.56Z"/><path class="cls-32" d="M19.08,43.2c.74-.06,1.28,1.18.59,1.61s-1.25.46-1.69-.15S18.29,43.27,19.08,43.2Z"/><path class="cls-33" d="M19.2,43.36c.43,0,.75.68.35.93s-.74.27-1-.09S18.74,43.4,19.2,43.36Z"/><path class="cls-28" d="M36.43,42.18c1.52-.13,2.62,2.41,1.22,3.28s-2.57.95-3.46-.31S34.81,42.32,36.43,42.18Z"/><path class="cls-29" d="M36.59,42.83c.75-.06,1.29,1.18.6,1.61s-1.25.46-1.69-.16S35.8,42.9,36.59,42.83Z"/><path class="cls-49" d="M36.72,43c.43,0,.74.69.34.94s-.73.27-1-.09S36.25,43,36.72,43Z"/><path class="cls-31" d="M30.43,40.29c1.53-.14,2.62,2.4,1.23,3.27s-2.57.95-3.47-.31S28.82,40.43,30.43,40.29Z"/><path class="cls-32" d="M30.6,40.94c.75-.07,1.28,1.17.6,1.6s-1.26.46-1.69-.15S29.81,41,30.6,40.94Z"/><path class="cls-33" d="M30.72,41.09c.44,0,.75.68.35.93s-.73.28-1-.08S30.26,41.13,30.72,41.09Z"/><path class="cls-37" d="M18.49,46c1.52-.13,2.62,2.41,1.22,3.28s-2.57.95-3.46-.31S16.88,46.14,18.49,46Z"/><path class="cls-38" d="M18.65,46.64c.75-.06,1.29,1.18.6,1.61s-1.25.46-1.69-.15S17.87,46.71,18.65,46.64Z"/><path class="cls-49" d="M18.78,46.79c.43,0,.75.69.35.94s-.74.27-1-.09S18.32,46.83,18.78,46.79Z"/><path class="cls-31" d="M22.53,48c1.52-.14,2.62,2.4,1.22,3.27s-2.57,1-3.46-.31S20.91,48.13,22.53,48Z"/><path class="cls-32" d="M22.69,48.63c.75-.06,1.29,1.18.6,1.61s-1.25.46-1.69-.15S21.9,48.7,22.69,48.63Z"/><path class="cls-33" d="M22.82,48.79c.43,0,.74.68.35.93s-.74.27-1-.09S22.35,48.83,22.82,48.79Z"/><path class="cls-40" d="M20.65,49c1.52-.13,2.62,2.41,1.22,3.28s-2.56,1-3.46-.31S19,49.09,20.65,49Z"/><path class="cls-41" d="M20.82,49.6c.74-.06,1.28,1.18.59,1.61s-1.25.46-1.69-.16S20,49.67,20.82,49.6Z"/><path class="cls-42" d="M20.94,49.75c.43,0,.75.69.35.94s-.74.27-1-.09S20.48,49.79,20.94,49.75Z"/><path class="cls-31" d="M22.92,51.51c.76-1.32,3.47-.76,3.38.89s-.7,2.64-2.25,2.65S22.1,52.91,22.92,51.51Z"/><path class="cls-32" d="M23.54,51.75c.38-.65,1.7-.37,1.66.43s-.35,1.29-1.1,1.3S23.14,52.43,23.54,51.75Z"/><path class="cls-33" d="M23.74,51.73c.22-.37,1-.21,1,.26s-.2.75-.64.76S23.5,52.13,23.74,51.73Z"/><path class="cls-31" d="M22.82,44.82c.77-1.32,3.48-.76,3.38.88s-.7,2.65-2.24,2.66S22,46.21,22.82,44.82Z"/><path class="cls-32" d="M23.45,45.05c.37-.64,1.7-.37,1.65.44s-.34,1.29-1.1,1.29S23.05,45.74,23.45,45.05Z"/><path class="cls-33" d="M23.64,45c.22-.38,1-.22,1,.25s-.2.76-.64.76S23.41,45.44,23.64,45Z"/><path class="cls-40" d="M20.73,43.94c.77-1.32,3.48-.75,3.39.89s-.7,2.65-2.25,2.65S19.92,45.34,20.73,43.94Z"/><path class="cls-41" d="M21.36,44.18c.38-.65,1.7-.37,1.66.43s-.35,1.3-1.1,1.3S21,44.86,21.36,44.18Z"/><path class="cls-42" d="M21.55,44.17c.22-.38,1-.22,1,.25s-.2.76-.64.76S21.32,44.57,21.55,44.17Z"/><path class="cls-31" d="M24.34,47.62c.77-1.32,3.47-.75,3.38.89s-.7,2.64-2.25,2.65S23.52,49,24.34,47.62Z"/><path class="cls-32" d="M25,47.86c.38-.65,1.71-.37,1.66.43s-.34,1.3-1.1,1.3S24.57,48.54,25,47.86Z"/><path class="cls-33" d="M25.16,47.85c.22-.38,1-.22,1,.25s-.21.76-.65.76S24.93,48.25,25.16,47.85Z"/><path class="cls-31" d="M25.1,41.86c.76-1.32,3.47-.76,3.38.89s-.7,2.64-2.25,2.65S24.28,43.26,25.1,41.86Z"/><path class="cls-32" d="M25.72,42.09c.38-.64,1.7-.37,1.66.44s-.34,1.29-1.1,1.3S25.32,42.78,25.72,42.09Z"/><path class="cls-33" d="M25.92,42.08c.22-.38,1-.21,1,.26s-.2.75-.64.75S25.68,42.48,25.92,42.08Z"/><path class="cls-46" d="M23.2,42.16c.77-1.32,3.48-.75,3.38.89s-.7,2.64-2.24,2.65S22.39,43.56,23.2,42.16Z"/><path class="cls-47" d="M23.83,42.4c.37-.65,1.7-.37,1.65.43s-.34,1.3-1.1,1.3S23.43,43.08,23.83,42.4Z"/><path class="cls-48" d="M24,42.38c.22-.37,1-.21,1,.26s-.2.76-.64.76S23.79,42.78,24,42.38Z"/><path class="cls-31" d="M20.32,41.18c.77-1.33,3.47-.76,3.38.88s-.7,2.65-2.25,2.66S19.5,42.57,20.32,41.18Z"/><path class="cls-32" d="M20.94,41.41c.38-.65,1.71-.37,1.66.44s-.34,1.29-1.1,1.29S20.55,42.1,20.94,41.41Z"/><path class="cls-33" d="M21.14,41.4c.22-.38,1-.22,1,.25s-.21.76-.65.76S20.9,41.8,21.14,41.4Z"/><path class="cls-31" d="M19.41,38.82c.77-1.32,3.47-.75,3.38.89s-.7,2.65-2.25,2.65S18.59,40.22,19.41,38.82Z"/><path class="cls-32" d="M20,39.06c.38-.65,1.71-.37,1.66.43s-.34,1.3-1.1,1.3S19.64,39.74,20,39.06Z"/><path class="cls-33" d="M20.23,39.05c.22-.38,1-.22,1,.25s-.21.76-.65.76S20,39.45,20.23,39.05Z"/><path class="cls-37" d="M18.11,37.89c.77-1.32,3.48-.76,3.39.88s-.71,2.65-2.25,2.66S17.3,39.28,18.11,37.89Z"/><path class="cls-38" d="M18.74,38.12c.38-.64,1.7-.37,1.66.44s-.35,1.29-1.1,1.29S18.34,38.81,18.74,38.12Z"/><path class="cls-39" d="M18.93,38.11c.22-.38,1-.22,1,.25s-.2.76-.64.76S18.7,38.51,18.93,38.11Z"/><path class="cls-31" d="M18.19,35.84c.77-1.32,3.48-.76,3.38.89s-.7,2.64-2.24,2.65S17.38,37.24,18.19,35.84Z"/><path class="cls-32" d="M18.82,36.07c.37-.64,1.7-.37,1.65.44s-.34,1.29-1.1,1.3S18.42,36.76,18.82,36.07Z"/><path class="cls-49" d="M19,36.06c.22-.38,1-.21,1,.26s-.2.75-.65.75S18.78,36.46,19,36.06Z"/><path class="cls-31" d="M24.41,38.6c.77-1.32,3.48-.76,3.39.88s-.71,2.65-2.25,2.66S23.6,40,24.41,38.6Z"/><path class="cls-32" d="M25,38.83c.38-.64,1.7-.37,1.66.44s-.35,1.29-1.1,1.3S24.64,39.52,25,38.83Z"/><path class="cls-33" d="M25.23,38.82c.22-.38,1-.22,1,.25s-.2.76-.64.76S25,39.22,25.23,38.82Z"/><path class="cls-31" d="M26.23,38.22c.77-1.32,3.48-.76,3.39.89s-.7,2.64-2.25,2.65S25.42,39.62,26.23,38.22Z"/><path class="cls-32" d="M26.86,38.45c.38-.64,1.7-.37,1.66.44s-.35,1.29-1.1,1.3S26.46,39.14,26.86,38.45Z"/><path class="cls-33" d="M27.05,38.44c.22-.38,1-.22,1,.25s-.2.76-.64.76S26.82,38.84,27.05,38.44Z"/><path class="cls-31" d="M24.19,37.16c.76-1.33,3.47-.76,3.38.88s-.7,2.65-2.25,2.65S23.37,38.55,24.19,37.16Z"/><path class="cls-32" d="M24.81,37.39c.38-.65,1.7-.37,1.66.44s-.34,1.29-1.1,1.29S24.41,38.08,24.81,37.39Z"/><path class="cls-33" d="M25,37.38c.22-.38,1-.22,1,.25s-.2.76-.64.76S24.77,37.78,25,37.38Z"/><path class="cls-31" d="M28.65,36.28c.76-1.32,3.47-.75,3.38.89s-.7,2.64-2.25,2.65S27.83,37.68,28.65,36.28Z"/><path class="cls-32" d="M29.27,36.52c.38-.65,1.7-.37,1.66.43s-.34,1.3-1.1,1.3S28.87,37.2,29.27,36.52Z"/><path class="cls-33" d="M29.47,36.51c.22-.38,1-.22,1,.25s-.2.76-.64.76S29.23,36.91,29.47,36.51Z"/><path class="cls-31" d="M27,35c.77-1.33,3.48-.76,3.39.88s-.71,2.65-2.25,2.66S26.18,36.35,27,35Z"/><path class="cls-32" d="M27.62,35.19c.37-.64,1.7-.37,1.66.44s-.35,1.29-1.1,1.29S27.22,35.88,27.62,35.19Z"/><path class="cls-33" d="M27.81,35.18c.22-.38,1-.22,1,.25s-.2.76-.64.76S27.58,35.58,27.81,35.18Z"/><path class="cls-28" d="M28.13,38.9c.77-1.32,3.48-.76,3.38.89s-.7,2.64-2.24,2.65S27.32,40.3,28.13,38.9Z"/><path class="cls-29" d="M28.76,39.14c.37-.65,1.7-.37,1.65.43s-.34,1.29-1.1,1.3S28.36,39.82,28.76,39.14Z"/><path class="cls-30" d="M29,39.12c.22-.37,1-.21,1,.26s-.2.75-.64.76S28.72,39.52,29,39.12Z"/><path class="cls-31" d="M36.72,33.27c.77-1.32,3.48-.76,3.38.89s-.7,2.64-2.24,2.65S35.91,34.67,36.72,33.27Z"/><path class="cls-32" d="M37.35,33.51c.37-.65,1.7-.37,1.65.43s-.34,1.29-1.1,1.3S37,34.19,37.35,33.51Z"/><path class="cls-33" d="M37.54,33.49c.22-.37,1-.21,1,.26s-.2.75-.64.76S37.31,33.89,37.54,33.49Z"/><path class="cls-31" d="M36.42,36.46c.77-1.33,3.47-.76,3.38.88S39.1,40,37.55,40,35.6,37.85,36.42,36.46Z"/><path class="cls-32" d="M37,36.69c.38-.65,1.71-.37,1.66.44s-.34,1.29-1.1,1.29S36.65,37.38,37,36.69Z"/><path class="cls-33" d="M37.24,36.68c.22-.38,1-.22,1,.25s-.21.76-.65.76S37,37.08,37.24,36.68Z"/><path class="cls-31" d="M37.4,45c.77-1.32,3.48-.76,3.39.89s-.7,2.64-2.25,2.65S36.59,46.35,37.4,45Z"/><path class="cls-32" d="M38,45.19c.38-.65,1.7-.37,1.66.43s-.35,1.3-1.1,1.3S37.63,45.87,38,45.19Z"/><path class="cls-33" d="M38.22,45.17c.22-.37,1-.21,1,.26s-.2.75-.64.76S38,45.57,38.22,45.17Z"/><path class="cls-31" d="M38.77,48.06c.77-1.32,3.48-.76,3.38.89s-.7,2.64-2.24,2.65S38,49.46,38.77,48.06Z"/><path class="cls-32" d="M39.4,48.3c.37-.65,1.7-.37,1.65.43S40.71,50,40,50,39,49,39.4,48.3Z"/><path class="cls-33" d="M39.59,48.28c.22-.37,1-.21,1,.26s-.2.75-.65.76S39.36,48.68,39.59,48.28Z"/><path class="cls-28" d="M41,48.36c.77-1.32,3.48-.75,3.38.89s-.7,2.65-2.24,2.65S40.16,49.76,41,48.36Z"/><path class="cls-29" d="M41.6,48.6c.37-.65,1.7-.37,1.65.43s-.34,1.3-1.1,1.3S41.2,49.28,41.6,48.6Z"/><path class="cls-30" d="M41.79,48.59c.22-.38,1-.22,1,.25s-.2.76-.65.76S41.56,49,41.79,48.59Z"/><path class="cls-31" d="M38.09,42c.76-1.32,3.47-.75,3.38.89s-.7,2.64-2.25,2.65S37.27,43.39,38.09,42Z"/><path class="cls-32" d="M38.71,42.23c.38-.65,1.7-.37,1.66.43S40,44,39.27,44,38.31,42.91,38.71,42.23Z"/><path class="cls-33" d="M38.91,42.22c.22-.38,1-.22,1,.25s-.2.76-.64.76S38.67,42.62,38.91,42.22Z"/><path class="cls-31" d="M41.65,39.64c.77-1.32,3.48-.76,3.39.89s-.71,2.64-2.25,2.65S40.84,41,41.65,39.64Z"/><path class="cls-32" d="M42.28,39.88c.37-.65,1.7-.37,1.65.43s-.34,1.3-1.1,1.3S41.88,40.56,42.28,39.88Z"/><path class="cls-33" d="M42.47,39.86c.22-.37,1-.21,1,.26s-.2.75-.64.76S42.24,40.26,42.47,39.86Z"/><path class="cls-31" d="M39.32,41.3c.76-1.32,3.47-.76,3.38.89s-.7,2.64-2.25,2.65S38.5,42.7,39.32,41.3Z"/><path class="cls-32" d="M39.94,41.54c.38-.65,1.7-.37,1.66.43s-.34,1.29-1.1,1.3S39.54,42.22,39.94,41.54Z"/><path class="cls-33" d="M40.14,41.52c.22-.37,1-.21,1,.26s-.2.75-.64.76S39.9,41.92,40.14,41.52Z"/><path class="cls-37" d="M38.77,38c.77-1.32,3.48-.75,3.38.89s-.7,2.64-2.24,2.65S38,39.37,38.77,38Z"/><path class="cls-38" d="M39.4,38.21c.37-.65,1.7-.37,1.65.43s-.34,1.3-1.1,1.3S39,38.89,39.4,38.21Z"/><path class="cls-39" d="M39.59,38.2c.22-.38,1-.22,1,.25s-.2.76-.65.76S39.36,38.6,39.59,38.2Z"/><path class="cls-31" d="M44.66,42.29c.77-1.33,3.48-.76,3.39.88s-.71,2.65-2.25,2.66S43.85,43.68,44.66,42.29Z"/><path class="cls-32" d="M45.29,42.52c.37-.64,1.7-.37,1.65.44s-.34,1.29-1.1,1.29S44.89,43.21,45.29,42.52Z"/><path class="cls-33" d="M45.48,42.51c.22-.38,1-.22,1,.25s-.2.76-.64.76S45.25,42.91,45.48,42.51Z"/><path class="cls-31" d="M45,36.44c.77-1.32,3.48-.75,3.39.89S47.72,40,46.18,40,44.23,37.84,45,36.44Z"/><path class="cls-32" d="M45.67,36.68c.38-.65,1.7-.37,1.66.44s-.35,1.29-1.1,1.29S45.27,37.37,45.67,36.68Z"/><path class="cls-33" d="M45.86,36.67c.22-.38,1-.22,1,.25s-.2.76-.64.76S45.63,37.07,45.86,36.67Z"/><path class="cls-31" d="M42,42.67c.77-1.32,3.48-.75,3.39.89s-.7,2.65-2.25,2.65S41.14,44.07,42,42.67Z"/><path class="cls-32" d="M42.58,42.91c.38-.65,1.7-.37,1.66.44s-.35,1.29-1.1,1.29S42.18,43.6,42.58,42.91Z"/><path class="cls-33" d="M42.77,42.9c.22-.38,1-.22,1,.25s-.2.76-.64.76S42.54,43.3,42.77,42.9Z"/><path class="cls-31" d="M41.8,45.1c.77-1.32,3.48-.75,3.39.89s-.71,2.64-2.25,2.65S41,46.5,41.8,45.1Z"/><path class="cls-32" d="M42.43,45.34c.38-.65,1.7-.37,1.66.43s-.35,1.3-1.1,1.3S42,46,42.43,45.34Z"/><path class="cls-33" d="M42.62,45.33c.22-.38,1-.22,1,.25s-.2.76-.64.76S42.39,45.73,42.62,45.33Z"/><path class="cls-40" d="M44.67,45.33c.77-1.32,3.48-.76,3.38.89s-.7,2.64-2.24,2.65S43.86,46.73,44.67,45.33Z"/><path class="cls-41" d="M45.3,45.57c.37-.65,1.7-.37,1.65.43s-.34,1.29-1.1,1.3S44.9,46.25,45.3,45.57Z"/><path class="cls-42" d="M45.49,45.55c.22-.37,1-.21,1,.26s-.2.75-.64.76S45.26,46,45.49,45.55Z"/><path class="cls-37" d="M39.83,44.8c.77-1.32,3.48-.76,3.38.89s-.7,2.64-2.24,2.65S39,46.2,39.83,44.8Z"/><path class="cls-38" d="M40.46,45c.37-.64,1.7-.37,1.65.44s-.34,1.29-1.1,1.3S40.06,45.72,40.46,45Z"/><path class="cls-39" d="M40.65,45c.22-.38,1-.21,1,.26s-.2.75-.64.76S40.42,45.42,40.65,45Z"/><path class="cls-31" d="M43,48.66c.77-1.32,3.48-.76,3.39.89s-.7,2.64-2.25,2.65S42.14,50.06,43,48.66Z"/><path class="cls-32" d="M43.58,48.89c.38-.64,1.7-.37,1.66.44s-.35,1.29-1.1,1.3S43.18,49.58,43.58,48.89Z"/><path class="cls-33" d="M43.78,48.88c.21-.38,1-.22,1,.26s-.2.75-.64.75S43.54,49.28,43.78,48.88Z"/><path class="cls-31" d="M40.74,50.72c.77-1.33,3.48-.76,3.39.88s-.71,2.65-2.25,2.66S39.93,52.11,40.74,50.72Z"/><path class="cls-32" d="M41.37,51c.37-.65,1.7-.37,1.65.44s-.34,1.29-1.1,1.29S41,51.64,41.37,51Z"/><path class="cls-33" d="M41.56,50.94c.22-.38,1-.22,1,.25s-.2.76-.64.76S41.33,51.34,41.56,50.94Z"/><path class="cls-31" d="M38.87,36.47C38.13,35.13,40,33.1,41.37,34s1.9,2,1.12,3.29S39.65,37.88,38.87,36.47Z"/><path class="cls-32" d="M39.39,36.05c-.36-.65.56-1.65,1.22-1.2s.94,1,.55,1.61S39.77,36.74,39.39,36.05Z"/><path class="cls-33" d="M39.48,35.88c-.21-.38.32-1,.71-.7s.55.56.32.94S39.7,36.28,39.48,35.88Z"/><path class="cls-31" d="M38.49,32.45c-.74-1.34,1.13-3.37,2.5-2.45s1.9,2,1.12,3.29S39.27,33.86,38.49,32.45Z"/><path class="cls-32" d="M39,32c-.36-.65.56-1.65,1.22-1.2s.94,1,.55,1.61S39.39,32.72,39,32Z"/><path class="cls-33" d="M39.1,31.86c-.21-.38.32-1,.71-.7s.55.56.33.94S39.32,32.26,39.1,31.86Z"/><path class="cls-31" d="M36.51,28.58c-.73-1.34,1.14-3.37,2.5-2.45s1.91,2,1.13,3.29S37.3,30,36.51,28.58Z"/><path class="cls-32" d="M37,28.16c-.36-.65.55-1.65,1.22-1.2s.94,1,.55,1.61S37.42,28.86,37,28.16Z"/><path class="cls-33" d="M37.13,28c-.21-.38.32-1,.71-.7s.55.56.32.94S37.35,28.39,37.13,28Z"/><path class="cls-31" d="M36.74,27.1c-.74-1.34,1.14-3.37,2.5-2.45s1.91,2,1.12,3.29S37.52,28.52,36.74,27.1Z"/><path class="cls-32" d="M37.27,26.68c-.37-.65.55-1.65,1.22-1.19s.93,1,.55,1.61S37.65,27.38,37.27,26.68Z"/><path class="cls-33" d="M37.35,26.51c-.21-.38.33-1,.72-.7s.55.56.32.94S37.58,26.92,37.35,26.51Z"/><path class="cls-31" d="M39.55,30.4c-.74-1.34,1.13-3.37,2.5-2.45s1.91,2,1.12,3.29S40.33,31.81,39.55,30.4Z"/><path class="cls-32" d="M40.07,30c-.36-.65.56-1.65,1.23-1.2s.93,1,.55,1.61S40.46,30.68,40.07,30Z"/><path class="cls-33" d="M40.16,29.81c-.21-.38.33-1,.72-.7s.54.56.32.94S40.39,30.22,40.16,29.81Z"/><path class="cls-31" d="M41.31,30.23c-1.45-.49-1.44-3.26.19-3.5s2.73.16,3,1.67S42.84,30.74,41.31,30.23Z"/><path class="cls-32" d="M41.41,29.57c-.7-.24-.7-1.6.1-1.71s1.33.07,1.49.81S42.17,29.82,41.41,29.57Z"/><path class="cls-33" d="M41.36,29.38c-.41-.14-.41-.93.06-1s.78,0,.87.48S41.8,29.53,41.36,29.38Z"/><path class="cls-31" d="M41.46,32.12c.63-1.39,3.38-1.1,3.45.54s-.43,2.7-2,2.87S40.79,33.59,41.46,32.12Z"/><path class="cls-32" d="M42.1,32.29c.31-.68,1.66-.54,1.7.27s-.22,1.32-1,1.4S41.78,33,42.1,32.29Z"/><path class="cls-33" d="M42.29,32.26c.19-.4,1-.32,1,.15s-.12.78-.56.82S42.1,32.68,42.29,32.26Z"/><path class="cls-31" d="M41.53,36.14c.63-1.39,3.39-1.1,3.46.54s-.44,2.7-2,2.87S40.86,37.61,41.53,36.14Z"/><path class="cls-32" d="M42.18,36.31c.31-.68,1.66-.54,1.69.27s-.21,1.32-1,1.4S41.85,37,42.18,36.31Z"/><path class="cls-33" d="M42.37,36.28c.18-.4,1-.32,1,.15s-.13.78-.56.82S42.18,36.7,42.37,36.28Z"/><path class="cls-31" d="M42.51,38.53c-1.23-.91-.37-3.54,1.26-3.27s2.55,1,2.38,2.53S43.81,39.49,42.51,38.53Z"/><path class="cls-32" d="M42.81,37.93c-.6-.45-.18-1.73.62-1.6s1.25.49,1.17,1.24S43.45,38.4,42.81,37.93Z"/><path class="cls-33" d="M42.82,37.74c-.35-.27-.1-1,.36-.94s.73.28.69.72S43.2,38,42.82,37.74Z"/><path class="cls-34" d="M43.88,36.71c-1.23-.91-.37-3.54,1.25-3.27s2.55,1,2.39,2.53S45.18,37.67,43.88,36.71Z"/><path class="cls-35" d="M44.18,36.11c-.6-.45-.18-1.73.62-1.6S46,35,46,35.75,44.82,36.58,44.18,36.11Z"/><path class="cls-36" d="M44.19,35.91c-.35-.26-.11-1,.36-.93s.73.28.68.72S44.56,36.19,44.19,35.91Z"/><path class="cls-31" d="M42.13,32.42c-1.23-.91-.37-3.54,1.25-3.27s2.55,1,2.39,2.53S43.43,33.38,42.13,32.42Z"/><path class="cls-32" d="M42.43,31.82c-.6-.44-.18-1.73.62-1.6s1.24.49,1.16,1.24S43.07,32.29,42.43,31.82Z"/><path class="cls-33" d="M42.44,31.63c-.35-.26-.11-1,.36-.93s.73.28.68.72S42.81,31.9,42.44,31.63Z"/><path class="cls-28" d="M43.53,33.63c-1.22-.91-.36-3.54,1.26-3.26s2.55,1,2.39,2.52S44.83,34.6,43.53,33.63Z"/><path class="cls-29" d="M43.84,33c-.6-.45-.18-1.74.61-1.6s1.25.48,1.17,1.23S44.47,33.51,43.84,33Z"/><path class="cls-30" d="M43.85,32.84c-.35-.26-.11-1,.36-.93s.73.28.68.72S44.22,33.12,43.85,32.84Z"/><path class="cls-31" d="M42.89,41.56c-1.23-.91-.37-3.54,1.26-3.27s2.55,1,2.38,2.53S44.19,42.52,42.89,41.56Z"/><path class="cls-32" d="M43.19,41c-.6-.44-.18-1.73.62-1.6s1.25.49,1.17,1.24S43.83,41.43,43.19,41Z"/><path class="cls-33" d="M43.2,40.77c-.35-.26-.1-1,.36-.93s.73.28.69.72S43.57,41,43.2,40.77Z"/><path class="cls-31" d="M44.45,41.78c-1.23-.91-.37-3.54,1.25-3.27s2.55,1,2.39,2.53S45.75,42.74,44.45,41.78Z"/><path class="cls-32" d="M44.75,41.18c-.6-.44-.18-1.73.62-1.6s1.24.49,1.16,1.24S45.39,41.65,44.75,41.18Z"/><path class="cls-33" d="M44.76,41c-.35-.26-.11-1,.36-.93s.73.28.68.72S45.13,41.26,44.76,41Z"/><path class="cls-31" d="M47.9,63.71c-1.23-.91-.37-3.54,1.25-3.27s2.55,1,2.39,2.53S49.2,64.67,47.9,63.71Z"/><path class="cls-32" d="M48.2,63.11c-.6-.44-.18-1.73.62-1.6S50.06,62,50,62.75,48.84,63.58,48.2,63.11Z"/><path class="cls-33" d="M48.21,62.92c-.35-.26-.11-1,.36-.94s.73.29.68.73S48.58,63.19,48.21,62.92Z"/><path class="cls-31" d="M53.28,56.81c1.58-.62,3.57,1.74,2.35,3.12s-2.44,1.84-3.8.78S51.6,57.48,53.28,56.81Z"/><path class="cls-32" d="M53.66,57.45c.78-.3,1.75.86,1.16,1.53s-1.2.9-1.86.38S52.84,57.78,53.66,57.45Z"/><path class="cls-33" d="M53.84,57.58c.46-.18,1,.5.68.89s-.7.52-1.09.22S53.36,57.77,53.84,57.58Z"/><path class="cls-31" d="M51.57,54.31c1.59-.63,3.57,1.74,2.36,3.12s-2.45,1.83-3.81.77S49.89,55,51.57,54.31Z"/><path class="cls-32" d="M52,55c.77-.31,1.75.85,1.15,1.53s-1.2.9-1.86.38S51.14,55.28,52,55Z"/><path class="cls-33" d="M52.14,55.07c.45-.18,1,.5.67.9s-.7.52-1.09.22S51.66,55.26,52.14,55.07Z"/><path class="cls-40" d="M52.48,59.43c1.59-.63,3.57,1.74,2.36,3.12s-2.45,1.83-3.81.77S50.8,60.1,52.48,59.43Z"/><path class="cls-41" d="M52.87,60.07c.77-.31,1.75.85,1.15,1.53s-1.2.9-1.86.38S52.05,60.4,52.87,60.07Z"/><path class="cls-42" d="M53.05,60.19c.45-.18,1,.5.67.9s-.7.52-1.09.22S52.57,60.38,53.05,60.19Z"/><path class="cls-46" d="M63.18,57.38c1.58-.62,3.57,1.74,2.35,3.12s-2.44,1.83-3.8.77S61.5,58.05,63.18,57.38Z"/><path class="cls-47" d="M63.56,58c.78-.3,1.75.85,1.16,1.53s-1.2.9-1.87.38S62.74,58.35,63.56,58Z"/><path class="cls-48" d="M63.74,58.15c.46-.18,1,.49.67.89s-.69.52-1.08.22S63.26,58.34,63.74,58.15Z"/><path class="cls-31" d="M57.26,51.09c1.59-.63,3.57,1.74,2.36,3.12S57.17,56,55.81,55,55.58,51.75,57.26,51.09Z"/><path class="cls-32" d="M57.65,51.73c.77-.31,1.75.85,1.15,1.53s-1.19.89-1.86.37S56.83,52.06,57.65,51.73Z"/><path class="cls-33" d="M57.83,51.85c.45-.18,1,.5.67.89s-.7.53-1.09.23S57.35,52,57.83,51.85Z"/><path class="cls-31" d="M58.17,54.62c1.59-.63,3.57,1.74,2.36,3.11s-2.45,1.84-3.81.78S56.49,55.28,58.17,54.62Z"/><path class="cls-32" d="M58.56,55.26c.78-.31,1.75.85,1.15,1.52s-1.19.9-1.86.38S57.74,55.58,58.56,55.26Z"/><path class="cls-33" d="M58.74,55.38c.45-.18,1,.5.67.89s-.7.53-1.09.22S58.26,55.57,58.74,55.38Z"/><path class="cls-46" d="M56.69,57.46c1.59-.63,3.58,1.74,2.36,3.12s-2.45,1.83-3.81.77S55,58.13,56.69,57.46Z"/><path class="cls-47" d="M57.08,58.1c.78-.31,1.75.85,1.15,1.53s-1.19.89-1.86.38S56.26,58.43,57.08,58.1Z"/><path class="cls-48" d="M57.26,58.22c.45-.18,1,.5.67.9s-.7.52-1.09.22S56.78,58.41,57.26,58.22Z"/><path class="cls-31" d="M56.69,60.19c1.59-.63,3.58,1.74,2.36,3.12s-2.45,1.83-3.81.77S55,60.86,56.69,60.19Z"/><path class="cls-32" d="M57.08,60.83c.78-.31,1.75.85,1.15,1.53s-1.19.9-1.86.38S56.26,61.16,57.08,60.83Z"/><path class="cls-33" d="M57.26,61c.45-.17,1,.5.67.9s-.7.52-1.09.22S56.78,61.14,57.26,61Z"/><path class="cls-31" d="M49.87,56.78c1.58-.63,3.57,1.74,2.35,3.12s-2.44,1.83-3.8.77S48.19,57.44,49.87,56.78Z"/><path class="cls-32" d="M50.25,57.42c.78-.31,1.75.85,1.16,1.52s-1.2.9-1.87.38S49.43,57.74,50.25,57.42Z"/><path class="cls-33" d="M50.43,57.54c.46-.18,1,.5.67.89s-.69.53-1.08.22S50,57.73,50.43,57.54Z"/><path class="cls-31" d="M53.73,50.67c1.59-.63,3.58,1.74,2.36,3.12s-2.45,1.83-3.81.77S52.05,51.34,53.73,50.67Z"/><path class="cls-32" d="M54.12,51.31c.78-.31,1.75.85,1.15,1.53s-1.19.89-1.86.38S53.3,51.64,54.12,51.31Z"/><path class="cls-33" d="M54.3,51.43c.45-.18,1,.5.67.9s-.7.52-1.09.22S53.82,51.62,54.3,51.43Z"/><path class="cls-31" d="M60.56,51c1.59-.63,3.57,1.73,2.36,3.11s-2.45,1.84-3.81.78S58.88,51.64,60.56,51Z"/><path class="cls-32" d="M61,51.62c.77-.31,1.75.85,1.15,1.52s-1.2.9-1.86.38S60.13,51.94,61,51.62Z"/><path class="cls-33" d="M61.13,51.74c.45-.18,1,.5.67.89s-.7.53-1.09.22S60.65,51.93,61.13,51.74Z"/><path class="cls-31" d="M57.83,47.68c1.59-.63,3.57,1.74,2.36,3.11s-2.45,1.84-3.81.78S56.15,48.34,57.83,47.68Z"/><path class="cls-32" d="M58.22,48.32c.77-.31,1.75.85,1.15,1.52s-1.2.9-1.86.38S57.4,48.64,58.22,48.32Z"/><path class="cls-33" d="M58.4,48.44c.45-.18,1,.5.67.89s-.7.53-1.09.22S57.92,48.63,58.4,48.44Z"/><path class="cls-40" d="M62,46.77c1.59-.63,3.57,1.74,2.36,3.11s-2.45,1.84-3.81.78S60.36,47.43,62,46.77Z"/><path class="cls-41" d="M62.43,47.41c.77-.31,1.75.85,1.15,1.52s-1.2.9-1.86.38S61.61,47.73,62.43,47.41Z"/><path class="cls-42" d="M62.61,47.53c.45-.18,1,.5.67.89s-.7.53-1.09.22S62.12,47.72,62.61,47.53Z"/><path class="cls-46" d="M59.31,49c1.59-.63,3.57,1.74,2.35,3.12s-2.44,1.83-3.8.77S57.63,49.71,59.31,49Z"/><path class="cls-47" d="M59.7,49.68c.77-.31,1.74.85,1.15,1.53s-1.2.9-1.86.38S58.87,50,59.7,49.68Z"/><path class="cls-48" d="M59.87,49.8c.46-.18,1,.5.68.9s-.7.52-1.09.22S59.39,50,59.87,49.8Z"/><path class="cls-31" d="M61,53.82c1.58-.63,3.57,1.74,2.35,3.12s-2.44,1.83-3.8.77S59.34,54.48,61,53.82Z"/><path class="cls-32" d="M61.4,54.46c.78-.31,1.75.85,1.16,1.53s-1.2.89-1.87.37S60.58,54.79,61.4,54.46Z"/><path class="cls-33" d="M61.58,54.58c.46-.18,1,.5.67.9s-.69.52-1.08.22S61.1,54.77,61.58,54.58Z"/><path class="cls-31" d="M60.45,57.69C62,57.06,64,59.43,62.8,60.81s-2.44,1.83-3.8.77S58.77,58.35,60.45,57.69Z"/><path class="cls-32" d="M60.83,58.33c.78-.31,1.75.85,1.16,1.52s-1.2.9-1.86.38S60,58.65,60.83,58.33Z"/><path class="cls-33" d="M61,58.45c.46-.18,1,.5.68.89s-.7.53-1.09.22S60.53,58.64,61,58.45Z"/><path class="cls-31" d="M61.36,59.62c1.58-.63,3.57,1.74,2.35,3.12s-2.44,1.83-3.8.77S59.68,60.29,61.36,59.62Z"/><path class="cls-32" d="M61.74,60.26c.78-.3,1.75.85,1.16,1.53s-1.2.9-1.86.38S60.92,60.59,61.74,60.26Z"/><path class="cls-33" d="M61.92,60.39c.46-.18,1,.49.68.89s-.7.52-1.09.22S61.44,60.58,61.92,60.39Z"/><path class="cls-31" d="M66.71,57.69c1.58-.63,3.57,1.74,2.35,3.12s-2.44,1.83-3.8.77S65,58.35,66.71,57.69Z"/><path class="cls-32" d="M67.09,58.33c.78-.31,1.75.85,1.15,1.52s-1.19.9-1.86.38S66.27,58.65,67.09,58.33Z"/><path class="cls-33" d="M67.27,58.45c.45-.18,1,.5.67.89s-.69.53-1.08.22S66.79,58.64,67.27,58.45Z"/><path class="cls-31" d="M64.66,54.28c1.58-.63,3.57,1.73,2.35,3.11s-2.44,1.84-3.8.78S63,54.94,64.66,54.28Z"/><path class="cls-32" d="M65,54.92c.78-.31,1.75.85,1.16,1.52s-1.2.9-1.87.38S64.22,55.24,65,54.92Z"/><path class="cls-33" d="M65.22,55c.46-.18,1,.5.68.89s-.7.52-1.09.22S64.74,55.23,65.22,55Z"/><path class="cls-31" d="M64.32,50.18c1.58-.63,3.57,1.74,2.35,3.12s-2.44,1.83-3.8.77S62.64,50.84,64.32,50.18Z"/><path class="cls-32" d="M64.7,50.82c.78-.31,1.75.85,1.16,1.53s-1.2.89-1.87.37S63.88,51.14,64.7,50.82Z"/><path class="cls-33" d="M64.88,50.94c.45-.18,1,.5.67.89s-.69.53-1.08.23S64.4,51.13,64.88,50.94Z"/><path class="cls-31" d="M65.11,45c1.59-.63,3.57,1.73,2.36,3.11s-2.45,1.84-3.81.78S63.43,45.61,65.11,45Z"/><path class="cls-32" d="M65.5,45.59c.78-.31,1.75.85,1.15,1.52s-1.19.9-1.86.38S64.68,45.91,65.5,45.59Z"/><path class="cls-33" d="M65.68,45.71c.45-.18,1,.5.67.89s-.7.52-1.09.22S65.2,45.9,65.68,45.71Z"/><path class="cls-31" d="M63.41,43c1.58-.63,3.57,1.74,2.35,3.12S63.32,48,62,46.9,61.73,43.68,63.41,43Z"/><path class="cls-32" d="M63.79,43.65c.78-.31,1.75.85,1.15,1.53s-1.19.89-1.86.38S63,44,63.79,43.65Z"/><path class="cls-49" d="M64,43.77c.45-.18,1,.5.67.9s-.69.52-1.08.22S63.49,44,64,43.77Z"/><path class="cls-40" d="M62.84,52.8c1.58-.63,3.57,1.74,2.35,3.11s-2.44,1.84-3.8.78S61.16,53.46,62.84,52.8Z"/><path class="cls-41" d="M63.22,53.44c.78-.31,1.75.85,1.16,1.52s-1.2.9-1.87.38S62.4,53.76,63.22,53.44Z"/><path class="cls-42" d="M63.4,53.56c.46-.18,1,.5.68.89s-.7.53-1.09.22S62.92,53.75,63.4,53.56Z"/><path class="cls-31" d="M61.81,49.5c1.59-.63,3.58,1.74,2.36,3.11s-2.45,1.84-3.81.78S60.13,50.16,61.81,49.5Z"/><path class="cls-32" d="M62.2,50.14c.78-.31,1.75.85,1.15,1.52s-1.19.9-1.86.38S61.38,50.46,62.2,50.14Z"/><path class="cls-33" d="M62.38,50.26c.45-.18,1,.5.67.89s-.7.53-1.09.22S61.9,50.45,62.38,50.26Z"/><path class="cls-31" d="M68.53,43.35c1.58-.63,3.57,1.74,2.35,3.12s-2.44,1.83-3.8.77S66.85,44,68.53,43.35Z"/><path class="cls-32" d="M68.91,44c.78-.3,1.75.85,1.15,1.53s-1.19.9-1.86.38S68.09,44.32,68.91,44Z"/><path class="cls-33" d="M69.09,44.12c.45-.18,1,.49.67.89s-.69.52-1.08.22S68.61,44.31,69.09,44.12Z"/><path class="cls-37" d="M66.19,47.1c1.58-.63,3.57,1.74,2.35,3.12s-2.44,1.83-3.8.77S64.51,47.77,66.19,47.1Z"/><path class="cls-38" d="M66.57,47.74c.78-.31,1.75.85,1.16,1.53s-1.2.89-1.87.38S65.75,48.07,66.57,47.74Z"/><path class="cls-39" d="M66.75,47.86c.46-.18,1,.5.67.9s-.69.52-1.08.22S66.27,48.05,66.75,47.86Z"/><path class="cls-46" d="M69.78,45.74c1.58-.63,3.57,1.74,2.35,3.12s-2.44,1.83-3.8.77S68.1,46.41,69.78,45.74Z"/><path class="cls-47" d="M70.16,46.38c.78-.31,1.75.85,1.16,1.53s-1.2.9-1.87.38S69.34,46.71,70.16,46.38Z"/><path class="cls-48" d="M70.34,46.5c.46-.17,1,.5.68.9s-.7.52-1.09.22S69.86,46.7,70.34,46.5Z"/><path class="cls-31" d="M68.53,49.5c1.58-.63,3.57,1.74,2.35,3.11s-2.44,1.84-3.8.78S66.85,50.16,68.53,49.5Z"/><path class="cls-32" d="M68.91,50.14c.78-.31,1.75.85,1.15,1.52s-1.19.9-1.86.38S68.09,50.46,68.91,50.14Z"/><path class="cls-33" d="M69.09,50.26c.45-.18,1,.5.67.89s-.69.53-1.08.22S68.61,50.45,69.09,50.26Z"/><path class="cls-46" d="M67.39,52c1.58-.63,3.57,1.74,2.35,3.12s-2.44,1.83-3.8.77S65.71,52.66,67.39,52Z"/><path class="cls-47" d="M67.77,52.64c.78-.31,1.75.85,1.16,1.53s-1.2.89-1.86.37S67,53,67.77,52.64Z"/><path class="cls-48" d="M68,52.76c.46-.18,1,.5.68.89s-.7.53-1.09.23S67.47,53,68,52.76Z"/><path class="cls-40" d="M67.31,41.39c1.59-.62,3.58,1.74,2.36,3.12s-2.44,1.83-3.8.77S65.64,42.06,67.31,41.39Z"/><path class="cls-41" d="M67.7,42c.78-.3,1.75.86,1.15,1.53s-1.19.9-1.86.38S66.88,42.36,67.7,42Z"/><path class="cls-42" d="M67.88,42.16c.45-.18,1,.49.67.89s-.7.52-1.08.22S67.4,42.35,67.88,42.16Z"/><path class="cls-40" d="M69.09,54.73c1.59-.63,3.58,1.74,2.36,3.12s-2.44,1.83-3.8.77S67.42,55.39,69.09,54.73Z"/><path class="cls-41" d="M69.48,55.37c.78-.31,1.75.85,1.15,1.53s-1.19.89-1.86.38S68.66,55.7,69.48,55.37Z"/><path class="cls-42" d="M69.66,55.49c.45-.18,1,.5.67.9s-.7.52-1.08.22S69.18,55.68,69.66,55.49Z"/><path class="cls-31" d="M72.28,48.24c1.59-.62,3.57,1.74,2.36,3.12s-2.45,1.84-3.81.78S70.6,48.91,72.28,48.24Z"/><path class="cls-32" d="M72.67,48.89c.77-.31,1.75.85,1.15,1.52s-1.2.9-1.86.38S71.85,49.21,72.67,48.89Z"/><path class="cls-33" d="M72.85,49c.45-.18,1,.5.67.89s-.7.52-1.09.22S72.36,49.2,72.85,49Z"/><path class="cls-31" d="M71.94,51.89c1.59-.63,3.57,1.74,2.35,3.11s-2.44,1.84-3.8.78S70.26,52.55,71.94,51.89Z"/><path class="cls-32" d="M72.33,52.53c.77-.31,1.74.85,1.15,1.52s-1.2.9-1.86.38S71.5,52.85,72.33,52.53Z"/><path class="cls-33" d="M72.5,52.65c.46-.18,1,.5.68.89s-.7.53-1.09.22S72,52.84,72.5,52.65Z"/><path class="cls-31" d="M71.76,54.85c1.59-.62,3.57,1.74,2.35,3.12s-2.44,1.84-3.8.77S70.08,55.52,71.76,54.85Z"/><path class="cls-32" d="M72.15,55.49c.77-.3,1.75.86,1.15,1.53s-1.2.9-1.86.38S71.32,55.82,72.15,55.49Z"/><path class="cls-33" d="M72.33,55.62c.45-.18,1,.49.67.89s-.7.52-1.09.22S71.84,55.81,72.33,55.62Z"/><path class="cls-50" d="M75.47,51.43c1.58-.63,3.57,1.74,2.35,3.12s-2.44,1.83-3.8.77S73.79,52.1,75.47,51.43Z"/><path class="cls-51" d="M75.85,52.07c.78-.31,1.75.85,1.16,1.53s-1.2.89-1.87.38S75,52.4,75.85,52.07Z"/><path class="cls-52" d="M76,52.19c.46-.18,1,.5.67.9s-.69.52-1.08.22S75.55,52.38,76,52.19Z"/><path class="cls-40" d="M73.53,48.7c1.59-.63,3.57,1.74,2.36,3.12s-2.45,1.83-3.81.77S71.85,49.36,73.53,48.7Z"/><path class="cls-41" d="M73.92,49.34c.78-.31,1.75.85,1.15,1.53s-1.19.89-1.86.37S73.1,49.67,73.92,49.34Z"/><path class="cls-42" d="M74.1,49.46c.45-.18,1,.5.67.9s-.7.52-1.09.22S73.62,49.65,74.1,49.46Z"/><path class="cls-31" d="M75.69,47.79c1.59-.63,3.58,1.74,2.36,3.12s-2.44,1.83-3.81.77S74,48.45,75.69,47.79Z"/><path class="cls-32" d="M76.08,48.43c.78-.31,1.75.85,1.15,1.53s-1.19.89-1.86.37S75.26,48.76,76.08,48.43Z"/><path class="cls-33" d="M76.26,48.55c.45-.18,1,.5.67.89s-.7.53-1.09.23S75.78,48.74,76.26,48.55Z"/><path class="cls-31" d="M73,44.6c1.59-.62,3.58,1.74,2.36,3.12s-2.44,1.84-3.81.77S71.28,45.27,73,44.6Z"/><path class="cls-32" d="M73.35,45.24c.78-.3,1.75.86,1.15,1.53s-1.19.9-1.86.38S72.53,45.57,73.35,45.24Z"/><path class="cls-33" d="M73.53,45.37c.45-.18,1,.49.67.89s-.7.52-1.09.22S73.05,45.56,73.53,45.37Z"/><path class="cls-31" d="M71.26,41.53c1.58-.63,3.57,1.74,2.35,3.12s-2.44,1.83-3.8.77S69.58,42.2,71.26,41.53Z"/><path class="cls-32" d="M71.64,42.17c.78-.3,1.75.85,1.16,1.53s-1.2.9-1.87.38S70.82,42.5,71.64,42.17Z"/><path class="cls-33" d="M71.82,42.3c.46-.18,1,.49.67.89s-.69.52-1.08.22S71.34,42.49,71.82,42.3Z"/><path class="cls-31" d="M73.53,41.3c1.59-.62,3.57,1.74,2.36,3.12s-2.45,1.84-3.81.78S71.85,42,73.53,41.3Z"/><path class="cls-32" d="M73.92,41.94c.78-.3,1.75.86,1.15,1.53s-1.19.9-1.86.38S73.1,42.27,73.92,41.94Z"/><path class="cls-33" d="M74.1,42.07c.45-.18,1,.5.67.89s-.7.52-1.09.22S73.62,42.26,74.1,42.07Z"/><path class="cls-34" d="M76.15,41.53c1.59-.63,3.57,1.74,2.35,3.12s-2.44,1.83-3.8.77S74.47,42.2,76.15,41.53Z"/><path class="cls-35" d="M76.54,42.17c.77-.3,1.74.85,1.15,1.53s-1.2.9-1.86.38S75.71,42.5,76.54,42.17Z"/><path class="cls-36" d="M76.71,42.3c.46-.18,1,.49.68.89s-.7.52-1.09.22S76.23,42.49,76.71,42.3Z"/><path class="cls-31" d="M79.68,39.83c1.58-.63,3.57,1.73,2.35,3.11s-2.44,1.84-3.8.78S78,40.49,79.68,39.83Z"/><path class="cls-32" d="M80.06,40.47c.78-.31,1.75.85,1.16,1.52s-1.2.9-1.87.38S79.24,40.79,80.06,40.47Z"/><path class="cls-33" d="M80.24,40.59c.45-.18,1,.5.67.89s-.69.52-1.08.22S79.76,40.78,80.24,40.59Z"/><path class="cls-46" d="M83,38.92c1.58-.63,3.57,1.73,2.35,3.11s-2.44,1.84-3.8.78S81.3,39.58,83,38.92Z"/><path class="cls-47" d="M83.36,39.56c.78-.31,1.75.85,1.15,1.52s-1.19.9-1.86.38S82.54,39.88,83.36,39.56Z"/><path class="cls-48" d="M83.54,39.68c.45-.18,1,.5.67.89s-.69.52-1.08.22S83.06,39.87,83.54,39.68Z"/><path class="cls-31" d="M81.5,42.21c1.58-.62,3.57,1.74,2.35,3.12s-2.44,1.84-3.8.78S79.82,42.88,81.5,42.21Z"/><path class="cls-32" d="M81.88,42.86c.78-.31,1.75.85,1.16,1.52s-1.2.9-1.87.38S81.06,43.18,81.88,42.86Z"/><path class="cls-33" d="M82.06,43c.46-.18,1,.5.68.89s-.7.52-1.09.22S81.58,43.17,82.06,43Z"/><path class="cls-31" d="M80.36,45.86c1.59-.63,3.57,1.73,2.35,3.11s-2.44,1.84-3.8.78S78.68,46.52,80.36,45.86Z"/><path class="cls-32" d="M80.75,46.5c.77-.31,1.74.85,1.15,1.52s-1.2.9-1.86.38S79.92,46.82,80.75,46.5Z"/><path class="cls-33" d="M80.92,46.62c.46-.18,1,.5.68.89s-.7.53-1.09.22S80.44,46.81,80.92,46.62Z"/><path class="cls-31" d="M78.54,43.81c1.58-.63,3.57,1.74,2.35,3.12s-2.44,1.83-3.8.77S76.86,44.47,78.54,43.81Z"/><path class="cls-32" d="M78.92,44.45c.78-.31,1.75.85,1.16,1.52s-1.2.9-1.86.38S78.1,44.77,78.92,44.45Z"/><path class="cls-33" d="M79.1,44.57c.46-.18,1,.5.68.89s-.7.53-1.09.22S78.62,44.76,79.1,44.57Z"/><path class="cls-40" d="M76.15,44.6c1.59-.62,3.57,1.74,2.35,3.12s-2.44,1.84-3.8.77S74.47,45.27,76.15,44.6Z"/><path class="cls-41" d="M76.54,45.24c.77-.3,1.74.86,1.15,1.53s-1.2.9-1.86.38S75.71,45.57,76.54,45.24Z"/><path class="cls-49" d="M76.71,45.37c.46-.18,1,.49.68.89s-.7.52-1.09.22S76.23,45.56,76.71,45.37Z"/><path class="cls-31" d="M78.76,47.87c1.59-.63,3.57,1.74,2.35,3.12s-2.44,1.83-3.8.77S77.08,48.53,78.76,47.87Z"/><path class="cls-32" d="M79.15,48.51c.77-.31,1.74.85,1.15,1.53s-1.2.89-1.86.38S78.32,48.84,79.15,48.51Z"/><path class="cls-33" d="M79.32,48.63c.46-.18,1,.5.68.9s-.7.52-1.09.22S78.84,48.82,79.32,48.63Z"/><path class="cls-40" d="M54.66,54c1.59-.63,3.58,1.73,2.36,3.11s-2.44,1.84-3.8.78S53,54.61,54.66,54Z"/><path class="cls-41" d="M55.05,54.59c.78-.31,1.75.85,1.15,1.52s-1.19.9-1.86.38S54.23,54.91,55.05,54.59Z"/><path class="cls-49" d="M55.23,54.71c.45-.18,1,.5.67.89s-.7.52-1.08.22S54.75,54.9,55.23,54.71Z"/><path class="cls-40" d="M36.49,31.62c.63-1.39,3.38-1.1,3.45.55s-.43,2.7-2,2.86S35.82,33.1,36.49,31.62Z"/><path class="cls-41" d="M37.14,31.8c.3-.68,1.65-.54,1.69.26s-.22,1.32-1,1.4S36.81,32.52,37.14,31.8Z"/><path class="cls-42" d="M37.33,31.76c.18-.39,1-.31,1,.16s-.12.77-.56.82S37.13,32.19,37.33,31.76Z"/><path class="cls-31" d="M35.89,49.81c.76-1.33,3.47-.76,3.38.88s-.7,2.65-2.25,2.65S35.07,51.2,35.89,49.81Z"/><path class="cls-32" d="M36.51,50c.38-.65,1.71-.37,1.66.44s-.34,1.29-1.1,1.29S36.12,50.73,36.51,50Z"/><path class="cls-33" d="M36.71,50c.22-.38,1-.22,1,.25s-.2.76-.64.76S36.47,50.43,36.71,50Z"/><path class="cls-31" d="M37.27,52.53c.76-1.33,3.47-.76,3.38.88s-.7,2.65-2.25,2.66S36.45,53.92,37.27,52.53Z"/><path class="cls-32" d="M37.89,52.76c.38-.64,1.7-.37,1.66.44s-.34,1.29-1.1,1.29S37.49,53.45,37.89,52.76Z"/><path class="cls-33" d="M38.09,52.75c.22-.38,1-.22,1,.25s-.2.76-.64.76S37.85,53.15,38.09,52.75Z"/><path class="cls-31" d="M30.48,35.87c.77-1.33,3.48-.76,3.39.88s-.71,2.65-2.25,2.66S29.67,37.26,30.48,35.87Z"/><path class="cls-32" d="M31.11,36.1c.37-.64,1.7-.37,1.65.44s-.34,1.29-1.1,1.29S30.71,36.79,31.11,36.1Z"/><path class="cls-33" d="M31.3,36.09c.22-.38,1-.22,1,.25s-.2.76-.64.76S31.07,36.49,31.3,36.09Z"/><path class="cls-31" d="M25.77,51.24c.77-1.32,3.48-.76,3.39.88s-.7,2.65-2.25,2.66S25,52.63,25.77,51.24Z"/><path class="cls-32" d="M26.4,51.47c.38-.64,1.7-.37,1.66.44S27.71,53.2,27,53.2,26,52.16,26.4,51.47Z"/><path class="cls-33" d="M26.59,51.46c.22-.38,1-.22,1,.25s-.2.76-.64.76S26.36,51.86,26.59,51.46Z"/><path class="cls-28" d="M31.4,31.82c1.2,1,.26,3.55-1.35,3.23S27.53,34,27.74,32.46,30.13,30.82,31.4,31.82Z"/><path class="cls-29" d="M31.08,32.41c.59.47.13,1.74-.66,1.58s-1.24-.52-1.13-1.27S30.46,31.92,31.08,32.41Z"/><path class="cls-30" d="M31.06,32.61c.35.27.08,1-.38.92s-.72-.31-.66-.74S30.7,32.32,31.06,32.61Z"/><path class="cls-31" d="M28.29,35c1.2,1,.26,3.55-1.35,3.23s-2.52-1.07-2.31-2.6S27,34,28.29,35Z"/><path class="cls-32" d="M28,35.6c.59.46.13,1.74-.66,1.58s-1.24-.52-1.13-1.27S27.35,35.11,28,35.6Z"/><path class="cls-33" d="M28,35.79c.35.27.08,1-.38.92s-.72-.3-.66-.74S27.59,35.51,28,35.79Z"/><path class="cls-31" d="M32,42.81c1.37,1.08.3,4.06-1.55,3.69s-2.89-1.22-2.65-3S30.49,41.66,32,42.81Z"/><path class="cls-32" d="M31.58,43.48c.67.53.15,2-.76,1.81s-1.41-.6-1.3-1.46S30.87,42.92,31.58,43.48Z"/><path class="cls-33" d="M31.56,43.7c.4.31.09,1.16-.44,1.06s-.83-.35-.76-.85S31.15,43.37,31.56,43.7Z"/><path class="cls-31" d="M35.21,40c1.37,1.08.3,4.06-1.55,3.69s-2.89-1.22-2.65-3S33.75,38.85,35.21,40Z"/><path class="cls-32" d="M34.84,40.67c.67.53.15,2-.76,1.81s-1.41-.6-1.29-1.45S34.13,40.11,34.84,40.67Z"/><path class="cls-33" d="M34.82,40.89c.4.31.09,1.17-.44,1.06s-.83-.35-.76-.85S34.41,40.57,34.82,40.89Z"/><path class="cls-40" d="M37.29,35.56c1.38,1.08.3,4.07-1.55,3.7s-2.88-1.22-2.64-3S35.84,34.41,37.29,35.56Z"/><path class="cls-41" d="M36.93,36.23c.67.53.14,2-.76,1.81s-1.41-.59-1.3-1.45S36.21,35.67,36.93,36.23Z"/><path class="cls-42" d="M36.91,36.46c.39.31.09,1.16-.44,1s-.83-.35-.76-.85S36.49,36.13,36.91,36.46Z"/><path class="cls-31" d="M34.61,38.25c1.37,1.08.3,4.06-1.55,3.69s-2.89-1.22-2.65-3S33.15,37.1,34.61,38.25Z"/><path class="cls-32" d="M34.24,38.92c.67.53.14,2-.76,1.81s-1.41-.6-1.3-1.45S33.53,38.36,34.24,38.92Z"/><path class="cls-33" d="M34.22,39.14c.39.31.09,1.17-.44,1.06s-.83-.35-.76-.85S33.8,38.82,34.22,39.14Z"/><path class="cls-28" d="M32.33,46.22c1.37,1.08.3,4.06-1.55,3.69s-2.89-1.22-2.65-3S30.87,45.07,32.33,46.22Z"/><path class="cls-29" d="M32,46.89c.67.53.14,2-.76,1.81s-1.41-.6-1.3-1.46S31.25,46.33,32,46.89Z"/><path class="cls-30" d="M31.94,47.11c.39.31.09,1.17-.44,1.06s-.83-.35-.76-.85S31.52,46.78,31.94,47.11Z"/><path class="cls-31" d="M34.83,32.19c1.37,1.08.3,4.06-1.55,3.69s-2.89-1.22-2.65-3S33.37,31,34.83,32.19Z"/><path class="cls-32" d="M34.46,32.86c.67.53.15,2-.76,1.81s-1.41-.6-1.29-1.46S33.75,32.3,34.46,32.86Z"/><path class="cls-33" d="M34.44,33.08c.4.31.09,1.16-.44,1.06s-.82-.35-.76-.85S34,32.75,34.44,33.08Z"/><path class="cls-31" d="M34.07,28.77c1.38,1.09.3,4.07-1.55,3.7s-2.88-1.22-2.65-3S32.62,27.63,34.07,28.77Z"/><path class="cls-32" d="M33.7,29.45c.68.53.15,2-.76,1.8s-1.41-.59-1.29-1.45S33,28.88,33.7,29.45Z"/><path class="cls-33" d="M33.69,29.67c.39.31.08,1.16-.45,1s-.82-.34-.76-.85S33.27,29.34,33.69,29.67Z"/><path class="cls-31" d="M28.62,33.07c-1.63.64-3.65-1.8-2.4-3.21s2.52-1.86,3.91-.77S30.35,32.4,28.62,33.07Z"/><path class="cls-32" d="M28.23,32.41c-.8.32-1.79-.88-1.18-1.57s1.24-.91,1.92-.37S29.07,32.09,28.23,32.41Z"/><path class="cls-33" d="M28,32.29c-.46.18-1-.52-.68-.92s.72-.53,1.12-.22S28.54,32.1,28,32.29Z"/><path class="cls-31" d="M27.86,48.09c-1.63.64-3.65-1.8-2.39-3.21S28,43,29.37,44.11,29.59,47.42,27.86,48.09Z"/><path class="cls-32" d="M27.47,47.43c-.8.31-1.79-.88-1.17-1.57s1.23-.91,1.91-.38S28.31,47.11,27.47,47.43Z"/><path class="cls-33" d="M27.29,47.31c-.47.18-1.05-.52-.69-.92s.72-.54,1.12-.22S27.78,47.11,27.29,47.31Z"/><path class="cls-31" d="M19.79,46.56c.76-1.32,3.47-.76,3.38.89s-.7,2.64-2.25,2.65S19,48,19.79,46.56Z"/><path class="cls-32" d="M20.41,46.8c.38-.65,1.7-.37,1.66.43s-.34,1.3-1.1,1.3S20,47.48,20.41,46.8Z"/><path class="cls-33" d="M20.61,46.78c.22-.37,1-.21,1,.26s-.2.75-.64.76S20.37,47.18,20.61,46.78Z"/><path class="cls-50" d="M20.64,52.31c.77-1.32,3.48-.76,3.38.88s-.7,2.65-2.24,2.66S19.83,53.7,20.64,52.31Z"/><path class="cls-51" d="M21.27,52.54c.37-.64,1.7-.37,1.65.44s-.34,1.29-1.1,1.3S20.87,53.23,21.27,52.54Z"/><path class="cls-52" d="M21.46,52.53c.22-.38,1-.22,1,.25s-.2.76-.64.76S21.23,52.93,21.46,52.53Z"/><path class="cls-40" d="M27.36,52.57c1.45-.47,3.09,1.75,1.93,2.92S27,57,25.85,56,25.82,53.07,27.36,52.57Z"/><path class="cls-41" d="M27.67,53.16c.71-.23,1.51.86.94,1.43s-1.12.74-1.68.23S26.92,53.41,27.67,53.16Z"/><path class="cls-42" d="M27.82,53.28c.42-.13.89.5.55.84s-.65.43-1,.13S27.38,53.42,27.82,53.28Z"/><path class="cls-31" d="M23.83,53.19c1.46-.47,3.1,1.76,1.93,2.92s-2.28,1.5-3.44.48S22.29,53.69,23.83,53.19Z"/><path class="cls-32" d="M24.14,53.79c.71-.23,1.52.86.95,1.43S24,56,23.4,55.45,23.39,54,24.14,53.79Z"/><path class="cls-33" d="M24.29,53.91c.42-.14.89.5.56.83s-.66.43-1,.14S23.85,54.05,24.29,53.91Z"/><path class="cls-31" d="M15.74,37.07c1.52-.13,2.62,2.41,1.23,3.28S14.4,41.3,13.5,40,14.13,37.21,15.74,37.07Z"/><path class="cls-32" d="M15.91,37.72c.75-.06,1.28,1.18.6,1.61s-1.26.46-1.7-.16S15.12,37.79,15.91,37.72Z"/><path class="cls-33" d="M16,37.87c.44,0,.75.69.35.94s-.73.27-1-.09S15.57,37.91,16,37.87Z"/><g class="cls-53"><path class="cls-54" d="M20.05,16.19a10.25,10.25,0,0,0-.95-4.36,6.52,6.52,0,0,0-3.21-3.31,1.49,1.49,0,0,0-1.83,1.83c1,2.34,3.16,4.06,4.36,6.28a.88.88,0,0,0,1.63-.44Z"/></g><g class="cls-19"><g class="cls-55"><path class="cls-17" d="M25.83,6.27c-1.74.13-2.53,1.84-3.15,3.26a6.53,6.53,0,0,0-.18,5.56C23.93,18,32.61,18,40,16.9c.55-.09-8.77-2-9.29-2.24-1.46-.63-4.36.25-5.17-1.55s1.15-4,1.29-5.84a1,1,0,0,0-1-1Z"/></g><g class="cls-56"><path class="cls-7" d="M5.15,11.72a10.56,10.56,0,0,0,2.54.6,6.06,6.06,0,0,1,2.9,1.51c.54.5,1.82,1.39,1.85,2.18a2.43,2.43,0,0,1-.64,1.29c-.33.48-.56,1-.88,1.5-.62.89.42,2.36,1.48,1.93a5.27,5.27,0,0,0,2.53-1.48A4.74,4.74,0,0,0,16,16.61c.2-2.12-1.17-3.53-2.67-4.79A8.65,8.65,0,0,0,8.43,9.53c-1.09-.09-3.57.19-3.55,1.71a.55.55,0,0,0,.27.48Z"/></g><path class="cls-57" d="M19.87,7.31c.24-.78.27-1.61.45-2.4s.61-1.65.76-2.51A2,2,0,0,0,17.52.9c-1.33,1.79-1.1,5.37.59,6.88a1.07,1.07,0,0,0,1.76-.47Z"/><path class="cls-57" d="M13.33,6.2a4.51,4.51,0,0,1-1.15-1.59,3.48,3.48,0,0,1-.31-.77,3.65,3.65,0,0,0-.79-1.54,1.82,1.82,0,0,0-2.83.36C7.38,4.09,8.24,5.89,9.31,7a4.35,4.35,0,0,0,3.51,1.12,1,1,0,0,0,.51-1.87Z"/></g><g class="cls-9"><g class="cls-58"><path class="cls-57" d="M68.13,11.71a3,3,0,0,0,3.05-1.55c.76-1.07,1.54-2.55.87-3.83a1.51,1.51,0,0,0-1.64-.67c-1.22.26-1.68,1.61-2.06,2.65a13.93,13.93,0,0,0-.78,2.42c-.06.39.1.91.56,1Z"/></g><g class="cls-58"><path class="cls-57" d="M64.89,9.41a13.31,13.31,0,0,1-.43-1.93,5.64,5.64,0,0,0-.53-2.34,1.53,1.53,0,0,0-2.61,0,3.61,3.61,0,0,0,.25,3.41,5.74,5.74,0,0,0,2,2.14c.85.63,1.6-.54,1.28-1.28Z"/></g><g class="cls-58"><path class="cls-57" d="M72.33,13.43a4,4,0,0,0,1.75,1.32c1,.53,1.72.9,2.85.41a1.53,1.53,0,0,0,.79-1.37,2.59,2.59,0,0,0-2.4-2.27,3,3,0,0,0-2.83.64,1.09,1.09,0,0,0-.16,1.27Z"/></g><g class="cls-58"><path class="cls-57" d="M60.5,10.47a3.43,3.43,0,0,0-1.12-2.14,4.27,4.27,0,0,0-2.89-1.15c-2.1.05-2.68,3.25-.51,3.76a9,9,0,0,0,1.16.18c.23,0,.51,0,.82.09s1.09.1,1.61.19a.77.77,0,0,0,.93-.93Z"/></g></g></g></g></g></svg>