<svg width="96" height="143" viewBox="0 0 96 143" fill="none" xmlns="http://www.w3.org/2000/svg">
<path d="M46.5387 21.9871C45.6287 21.2671 35.7887 5.49707 36.5387 3.36707C37.2887 1.23707 44.8587 -1.01293 46.0087 0.487069C47.1587 1.98707 48.2287 20.2471 48.0087 21.0471C47.7887 21.8471 47.2287 22.4671 46.5387 21.9871Z" fill="#723D1D"/>
<path d="M46.0087 19.8071C28.1387 21.5671 21.3687 37.7171 19.9487 50.8071C18.5287 63.8971 16.0487 67.1171 8.24873 79.5271C0.448735 91.9371 -3.45127 120.527 14.8087 132.527C33.0687 144.527 60.0187 144.757 75.6187 137.667C91.2187 130.577 97.0687 112.317 94.6187 96.3571C92.1687 80.3971 83.0987 71.3571 80.2587 62.6771C77.4187 53.9971 78.0987 38.5971 71.7287 30.4471C65.3587 22.2971 58.5987 18.5671 46.0087 19.8071Z" fill="#9AAE0E"/>
<path d="M53.3287 107.987C42.1987 121.257 17.7987 116.177 11.8487 107.187C4.21871 95.6671 9.48871 85.7871 16.0987 76.1871C21.9987 67.5871 25.3187 59.5271 26.0287 50.6571C26.7387 41.7871 32.5987 29.0671 43.7287 27.7971C51.5287 26.9171 65.1787 37.1971 64.9987 64.4971C64.8187 91.7971 60.2487 99.7771 53.3287 107.987Z" fill="#C3C836"/>
<path style="mix-blend-mode:overlay" d="M46.0087 19.8071C28.1387 21.5671 21.3687 37.7171 19.9487 50.8071C18.5287 63.8971 16.0487 67.1171 8.24873 79.5271C0.448735 91.9371 -3.45127 120.527 14.8087 132.527C33.0687 144.527 60.0187 144.757 75.6187 137.667C91.2187 130.577 97.0687 112.317 94.6187 96.3571C92.1687 80.3971 83.0987 71.3571 80.2587 62.6771C77.4187 53.9971 78.0987 38.5971 71.7287 30.4471C65.3587 22.2971 58.5987 18.5671 46.0087 19.8071Z" fill="url(#paint0_linear)"/>
<path d="M44.9487 22.1371C44.9487 22.1371 18.9487 38.4271 9.04874 8.81707C9.04874 8.81707 36.9687 -9.22293 44.9487 22.1371Z" fill="#6C8946"/>
<path d="M9.04874 8.81706C9.04874 8.81706 31.2987 12.0571 44.9487 22.1371" stroke="#C4C937" stroke-width="0.5" stroke-linecap="round" stroke-linejoin="round"/>
<path d="M13.7487 18.3171L23.1187 12.0571" stroke="#C4C937" stroke-width="0.5" stroke-linecap="round" stroke-linejoin="round"/>
<path d="M21.7887 3.97707L29.0087 13.9971" stroke="#C4C937" stroke-width="0.5" stroke-linecap="round" stroke-linejoin="round"/>
<path d="M22.6187 25.3671L35.7687 16.7871" stroke="#C4C937" stroke-width="0.5" stroke-linecap="round" stroke-linejoin="round"/>
<path d="M34.7087 5.99707L40.1187 19.0171" stroke="#C4C937" stroke-width="0.5" stroke-linecap="round" stroke-linejoin="round"/>
<path style="mix-blend-mode:overlay" opacity="0.5" d="M44.9487 22.1371C44.9487 22.1371 18.9487 38.4271 9.04874 8.81707C9.04874 8.81707 36.9687 -9.22293 44.9487 22.1371Z" fill="url(#paint1_linear)"/>
<path style="mix-blend-mode:overlay" d="M21.0404 104.203C24.5878 100.167 24.1913 94.0189 20.1549 90.4715C16.1184 86.9241 9.97047 87.3206 6.42309 91.3571C2.87572 95.3935 3.27221 101.541 7.30868 105.089C11.3452 108.636 17.4931 108.24 21.0404 104.203Z" fill="url(#paint2_radial)"/>
<path style="mix-blend-mode:overlay" opacity="0.7" d="M65.5591 105.669C69.6538 102.189 70.1522 96.0482 66.6722 91.9535C63.1923 87.8588 57.0517 87.3604 52.957 90.8404C48.8623 94.3203 48.3639 100.461 51.8439 104.556C55.3238 108.65 61.4643 109.149 65.5591 105.669Z" fill="url(#paint3_radial)"/>
<path d="M22.9587 92.0771C22.8073 92.9133 22.4115 93.6859 21.8213 94.2973C21.2311 94.9088 20.473 95.3316 19.6426 95.5124C18.8123 95.6933 17.947 95.6241 17.1559 95.3135C16.3649 95.0029 15.6837 94.4649 15.1982 93.7674C14.7127 93.0698 14.4448 92.2441 14.4283 91.3945C14.4118 90.5448 14.6474 89.7093 15.1054 88.9935C15.5634 88.2777 16.2233 87.7136 17.0016 87.3725C17.78 87.0314 18.642 86.9286 19.4787 87.0771C20.036 87.1759 20.5682 87.3838 21.045 87.6889C21.5217 87.9939 21.9335 88.39 22.2568 88.8545C22.5801 89.3191 22.8086 89.8428 22.929 90.3958C23.0495 90.9488 23.0596 91.5202 22.9587 92.0771Z" fill="#532B29"/>
<path d="M17.9787 95.5571C18.7593 95.7004 19.5645 95.6233 20.3037 95.3345C21.043 95.0457 21.6871 94.5565 22.1638 93.922C22.6405 93.2874 22.9309 92.5325 23.0024 91.7421C23.074 90.9516 22.9238 90.1569 22.5687 89.4471L14.6487 92.6171C14.8826 93.3644 15.3166 94.0334 15.9036 94.5516C16.4906 95.0699 17.2082 95.4176 17.9787 95.5571Z" fill="#2D161F"/>
<path d="M58.4687 93.2871C58.3159 94.1201 57.9198 94.8893 57.3305 95.4977C56.7412 96.106 55.985 96.5264 55.1572 96.7056C54.3294 96.8849 53.4671 96.8151 52.6789 96.5051C51.8907 96.1951 51.2119 95.6587 50.7281 94.9635C50.2442 94.2684 49.977 93.4455 49.96 92.5987C49.9431 91.7519 50.1772 90.919 50.6328 90.205C51.0884 89.491 51.7452 88.9279 52.5204 88.5866C53.2956 88.2453 54.1544 88.1411 54.9887 88.2871C55.5466 88.3847 56.0796 88.5918 56.557 88.8965C57.0344 89.2011 57.4468 89.5973 57.7703 90.0621C58.0938 90.527 58.3221 91.0513 58.442 91.6048C58.5618 92.1583 58.5709 92.73 58.4687 93.2871Z" fill="#532B29"/>
<path d="M53.4887 96.7571C54.045 96.8594 54.6161 96.8506 55.1691 96.7314C55.722 96.6122 56.2459 96.3847 56.7106 96.0622C57.1753 95.7397 57.5716 95.3285 57.8768 94.8522C58.182 94.3759 58.3899 93.844 58.4887 93.2871C58.6501 92.3891 58.5168 91.4631 58.1087 90.6471L50.1887 93.8171C50.4173 94.5621 50.8458 95.2301 51.4276 95.7485C52.0095 96.2669 52.7224 96.6157 53.4887 96.7571Z" fill="#2D161F"/>
<path d="M26.3587 95.7371C26.3587 95.7371 35.7487 104.237 46.5987 97.1871" stroke="#2D161F" stroke-width="3" stroke-linecap="round" stroke-linejoin="round"/>
<defs>
<linearGradient id="paint0_linear" x1="14.8387" y1="34.9471" x2="74.6087" y2="138.457" gradientUnits="userSpaceOnUse">
<stop stop-color="#761D8F" stop-opacity="0"/>
<stop offset="1" stop-color="#761D8F"/>
</linearGradient>
<linearGradient id="paint1_linear" x1="661.352" y1="62.1868" x2="915.371" y2="750.36" gradientUnits="userSpaceOnUse">
<stop stop-color="#761D8F" stop-opacity="0"/>
<stop offset="1" stop-color="#761D8F"/>
</linearGradient>
<radialGradient id="paint2_radial" cx="0" cy="0" r="1" gradientUnits="userSpaceOnUse" gradientTransform="translate(13.5881 98.2745) rotate(10.1507) scale(9.77853)">
<stop stop-color="#761D8F"/>
<stop offset="1" stop-color="#761D8F" stop-opacity="0"/>
</radialGradient>
<radialGradient id="paint3_radial" cx="0" cy="0" r="1" gradientUnits="userSpaceOnUse" gradientTransform="translate(829.227 2093.31) rotate(9.90769) scale(189.582)">
<stop stop-color="#761D8F"/>
<stop offset="1" stop-color="#761D8F" stop-opacity="0"/>
</radialGradient>
</defs>
</svg>
