<svg xmlns="http://www.w3.org/2000/svg" xmlns:xlink="http://www.w3.org/1999/xlink" viewBox="0 0 133.48 89.65"><defs><style>.cls-1{fill:#cc1213;}.cls-2{fill:none;}.cls-3{isolation:isolate;}.cls-4{clip-path:url(#clip-path);}.cls-22,.cls-5{opacity:0.2;}.cls-11,.cls-14,.cls-33,.cls-5{mix-blend-mode:multiply;}.cls-6{fill:#ac1618;}.cls-7{fill:#5c6e1c;}.cls-8{opacity:0.33;}.cls-10,.cls-8{mix-blend-mode:screen;}.cls-9{fill:#f63d1f;}.cls-10,.cls-27{opacity:0.44;}.cls-11{opacity:0.18;}.cls-12{fill:#b91c23;}.cls-13{clip-path:url(#clip-path-2);}.cls-14{opacity:0.42;}.cls-15{opacity:0.29;}.cls-16{fill:#e2220e;}.cls-17{opacity:0.23;}.cls-18{fill:#fff;}.cls-19{clip-path:url(#clip-path-3);}.cls-20{opacity:0.36;}.cls-21{fill:#2f3b0d;}.cls-23{fill:#7b913e;}.cls-24{opacity:0.55;}.cls-25{opacity:0.22;}.cls-26{fill:#ca1a0b;}.cls-28{fill:#f58f51;}.cls-29{fill:#f09453;}.cls-30{opacity:0.3;}.cls-31{fill:#eecca7;}.cls-32{fill:#8aa03c;}.cls-33{opacity:0.15;}.cls-34{fill:#ffe7cf;}.cls-35{fill:#ffe4a9;}.cls-36{clip-path:url(#clip-path-4);}.cls-37{opacity:0.37;}.cls-38{fill:#c9db40;}</style><clipPath id="clip-path"><path class="cls-1" d="M73.52,22.28,59.13,25.37c-2.25.48-4.5,1-6.7,1.64-8.87,2.68-12.22,8-13.72,12.28-.52,1.47-.45,6-.39,7.58a45,45,0,0,0,2.09,7.66,43.17,43.17,0,0,0,2.21,5.91c3.68,6.77,13.37,15,44.59,2.7,2.16-.85,7-3.56,7.4-6.32.58-4.4-1.16-5.09-.5-7.54a15.54,15.54,0,0,1,1.14-2.53,10.75,10.75,0,0,0,1-6.44A7.68,7.68,0,0,0,92.7,35a10.79,10.79,0,0,1-2.56-1.53c-1.32-1.36-1.06-3.58-1.79-5.32a9.83,9.83,0,0,0-3.6-3.76,14.54,14.54,0,0,0-4.4-2.44C78.13,21.31,75.77,21.79,73.52,22.28Z"/></clipPath><clipPath id="clip-path-2"><path class="cls-2" d="M73.52,22.28,59.13,25.37c-2.25.48-4.5,1-6.7,1.64-8.87,2.68-12.22,8-13.72,12.28-.52,1.47-.45,6-.39,7.58a45,45,0,0,0,2.09,7.66,43.17,43.17,0,0,0,2.21,5.91c3.68,6.77,13.37,15,44.59,2.7,2.16-.85,7-3.56,7.4-6.32.58-4.4-1.16-5.09-.5-7.54a15.54,15.54,0,0,1,1.14-2.53,10.75,10.75,0,0,0,1-6.44A7.68,7.68,0,0,0,92.7,35a10.79,10.79,0,0,1-2.56-1.53c-1.32-1.36-1.06-3.58-1.79-5.32a9.83,9.83,0,0,0-3.6-3.76,14.54,14.54,0,0,0-4.4-2.44C78.13,21.31,75.77,21.79,73.52,22.28Z"/></clipPath><clipPath id="clip-path-3"><path class="cls-2" d="M40.55,54.2a2.8,2.8,0,0,1,.72,1.46,4.15,4.15,0,0,0,3,3A4.22,4.22,0,0,0,47.91,57c2.65-3,2.45-7.63,1.48-11.55-.48-1.94-1.29-4.05-3.1-4.88a4.44,4.44,0,0,0-4.86,1.11,6.91,6.91,0,0,0-1.73,4.88,3.43,3.43,0,0,1-.2,1.57A2.65,2.65,0,0,1,38,49.19a30.58,30.58,0,0,1-4.77,1.38c-2,.41-4.59.4-5.66-1.38-.27-.46-.41-1-.72-1.42a1.16,1.16,0,0,0-1.38-.51,1.55,1.55,0,0,0-.63,1,11.14,11.14,0,0,0-.58,3.27,3.67,3.67,0,0,0,1.35,2.91,5.59,5.59,0,0,0,2,.78c3.19.75,6.77,1.45,9.57-.25C38.24,54.37,39.6,53.39,40.55,54.2Z"/></clipPath><clipPath id="clip-path-4"><path class="cls-2" d="M106.17,25.28a6.94,6.94,0,0,1-2.57-.92A2.47,2.47,0,0,1,102.45,22c.3-1.66,2.48-2.05,3.77-3.13,1.53-1.29,1.73-3.52,1.82-5.51.12-2.77.07-6-2.06-7.73-.66-.56-1.59-1.11-1.51-2a29.43,29.43,0,0,1,6.87-2.13,32,32,0,0,1,1.13,13.81,16.17,16.17,0,0,0-.31,4,4.11,4.11,0,0,0,2,3.3,4.32,4.32,0,0,1,.94.46c.86.69.43,2.21-.52,2.76a5,5,0,0,1-3.23.27C109.65,26,107.9,25.64,106.17,25.28Z"/></clipPath></defs><title>pimenton</title><g class="cls-3"><g id="Capa_2" data-name="Capa 2"><g id="Edicion"><path class="cls-1" d="M73.52,22.28,59.13,25.37c-2.25.48-4.5,1-6.7,1.64-8.87,2.68-12.22,8-13.72,12.28-.52,1.47-.45,6-.39,7.58a45,45,0,0,0,2.09,7.66,43.17,43.17,0,0,0,2.21,5.91c3.68,6.77,13.37,15,44.59,2.7,2.16-.85,7-3.56,7.4-6.32.58-4.4-1.16-5.09-.5-7.54a15.54,15.54,0,0,1,1.14-2.53,10.75,10.75,0,0,0,1-6.44A7.68,7.68,0,0,0,92.7,35a10.79,10.79,0,0,1-2.56-1.53c-1.32-1.36-1.06-3.58-1.79-5.32a9.83,9.83,0,0,0-3.6-3.76,14.54,14.54,0,0,0-4.4-2.44C78.13,21.31,75.77,21.79,73.52,22.28Z"/><g class="cls-4"><g class="cls-5"><path class="cls-6" d="M86,17.08c-5.58-6.81-44.19,7.46-48.26,12.77C35,33.49,28.59,42.94,29.7,47.31,30.75,51.47,36.22,65,37.34,69c.51,1.82,21.35,3.42,21.31,5.28C58.59,77,94.4,81.41,99,79.6c4.09-1.62,3.86-7.75.49-9.88C95.08,66.94,90,66,86.24,62.41A10.13,10.13,0,0,1,83,56.88c-.71-3.37-.11-7.25-.38-10.7a19.69,19.69,0,0,0-3.32-9.07c-1.58-2.4-4.36-4.48-5-7.32-.53-2.21,1.31-4.38,2.82-5.68,2.3-2,5-2.41,7.73-3.28A2.3,2.3,0,0,0,86,17.08Z"/></g><g class="cls-5"><path class="cls-6" d="M65.38,19.6c-6.75-5.66-42,15.52-45.06,21.48-2.07,4.1-6.6,14.57-4.7,18.66,1.8,3.89,9.68,16.15,11.51,19.85C28,81.28,48.75,79,49.05,80.83c.45,2.71,36.47.43,40.63-2.19,3.72-2.35,2.36-8.33-1.35-9.81C83.5,66.92,78.3,66.94,74,64.1a10.07,10.07,0,0,1-4.19-4.83c-1.33-3.18-1.46-7.11-2.36-10.44a19.67,19.67,0,0,0-4.94-8.3c-2-2.07-5.11-3.6-6.3-6.26-.93-2.08.48-4.55,1.72-6.11,1.89-2.37,4.41-3.29,7-4.65a2.3,2.3,0,0,0,.49-3.91Z"/></g><g class="cls-5"><path class="cls-6" d="M56.1,19.89c-7.55-6.32-47,17.34-50.33,24C3.45,48.46-1.61,60.16.51,64.73c2,4.35,10.81,18,12.86,22.17.94,1.89,24.14-.66,24.48,1.39.51,3,40.73.48,45.38-2.45,4.15-2.62,2.64-9.31-1.51-11-5.39-2.15-11.21-2.12-16-5.29A11.28,11.28,0,0,1,61,64.21c-1.48-3.55-1.62-7.95-2.63-11.67a22,22,0,0,0-5.52-9.27c-2.23-2.3-5.71-4-7-7-1-2.32.54-5.08,1.92-6.82,2.12-2.65,4.93-3.68,7.81-5.2a2.58,2.58,0,0,0,.56-4.37Z"/></g></g><path class="cls-7" d="M40.55,54.2a2.8,2.8,0,0,1,.72,1.46,4.15,4.15,0,0,0,3,3A4.22,4.22,0,0,0,47.91,57c2.65-3,2.45-7.63,1.48-11.55-.48-1.94-1.29-4.05-3.1-4.88a4.44,4.44,0,0,0-4.86,1.11,6.91,6.91,0,0,0-1.73,4.88,3.43,3.43,0,0,1-.2,1.57A2.65,2.65,0,0,1,38,49.19a30.58,30.58,0,0,1-4.77,1.38c-2,.41-4.59.4-5.66-1.38-.27-.46-.41-1-.72-1.42a1.16,1.16,0,0,0-1.38-.51,1.55,1.55,0,0,0-.63,1,11.14,11.14,0,0,0-.58,3.27,3.67,3.67,0,0,0,1.35,2.91,5.59,5.59,0,0,0,2,.78c3.19.75,6.77,1.45,9.57-.25C38.24,54.37,39.6,53.39,40.55,54.2Z"/><g class="cls-8"><path class="cls-9" d="M48.92,37.65c3.29-.4,6.5-1.54,9.74-2.26s6.74-1.2,10.11-1.67a94.16,94.16,0,0,1,10.2-1c3-.1,8.57-2.32,6.42-6.39-1.87-3.55-5.74-3.29-9.2-3A62.43,62.43,0,0,0,65,25.55c-6.06,1.67-14.22,3.9-17.82,9.49a1.73,1.73,0,0,0,1.79,2.61Z"/></g><g class="cls-10"><path class="cls-9" d="M52.87,46.25c2.48,1.33,5.18,1.08,7.91.91,3.14-.19,6.26-.51,9.39-.84a59.17,59.17,0,0,1,8.73-.17c3.12.14,6,1,9.12,1.39,7,.85,8.69-9.68,2.29-11.88S76.4,34.57,70,35.84a60.27,60.27,0,0,0-10,2.91c-2.82,1.1-5.87,2-7.77,4.55a2.13,2.13,0,0,0,.63,3Z"/></g><g class="cls-11"><path class="cls-12" d="M89.94,56a21.35,21.35,0,0,0-7,.11c-2.82.31-5.65.54-8.44,1.08s-5.6,1.08-8.42.6C58.89,56.59,54,56.56,52.83,60c-1.35,4,2.23,7.32,6.1,6.83,4.48-.57,10.18-.07,15.14-1.17A73.65,73.65,0,0,0,83.24,63a29.13,29.13,0,0,0,7.3-4.1,1.69,1.69,0,0,0-.6-2.84Z"/></g><g class="cls-13"><g class="cls-14"><path class="cls-12" d="M50.52,38.57c1.62.21,3-.32,4.58-.61,2.27-.41,4.52-.8,6.77-1.27,4.45-.91,8.94-1.67,13.45-2.2s8.7-.6,13.09-.76c3.84-.14,7.34,1.79,11.12,2.26,1.93.24,2.57-2.36,1.47-3.55a14.77,14.77,0,0,0-10.37-5c-4.69-.31-9.21,1.53-13.73,2.34-4.67.82-9.33,1.46-13.91,2.74a66.8,66.8,0,0,0-12.75,5c-.55.28-.21,1,.28,1Z"/></g><g class="cls-14"><path class="cls-12" d="M55.25,53.53a138.75,138.75,0,0,0,27.24,1.56c8.41-.3,17-.94,22.12-8.56,1.4-2.08-.89-4.7-3.14-4.09-3,.84-5.54,2.55-8.33,3.94-3.42,1.69-8.06,1.7-11.78,2.16-8.62,1.06-17.19,3-25.89,3.34-.91,0-1.19,1.5-.22,1.65Z"/></g></g><g class="cls-15"><path class="cls-16" d="M56.79,65.28c-2.07-1.72-4.29-3.34-5.43-5.85-1.28-2.81-5.65-.35-4.19,2.45a12.15,12.15,0,0,0,8.25,5.75c1.24.23,2.55-1.36,1.37-2.35Z"/></g><g class="cls-17"><path class="cls-18" d="M69.93,29a56,56,0,0,1,5.93-.33,17.19,17.19,0,0,1,2.77.18c1,.15,1.85.57,2.83.18a1.66,1.66,0,0,0,1.19-1.57c0-2.67-3.46-3.48-5.61-3.34a16.23,16.23,0,0,0-7.7,2.69c-.92.56-.64,2.33.59,2.19Z"/></g><g class="cls-17"><path class="cls-18" d="M70,40.9c2-.08,4-.23,6-.34s4.48,0,6.51-.62c1.11-.36,1.61-2.14.36-2.72-4-1.82-9.38-.32-13.28,1-1.38.47-1.24,2.71.36,2.64Z"/></g><g class="cls-17"><path class="cls-18" d="M86.75,39.32s0,.09,0,.14L86.71,39a8.39,8.39,0,0,0,.1.86,2.41,2.41,0,0,0,1.74,1.72A2.24,2.24,0,0,0,90.67,41a2.21,2.21,0,0,0,.56-2.12,2.47,2.47,0,0,0-3.33-1.6,1.87,1.87,0,0,0-1,.76,1.78,1.78,0,0,0-.16,1.28Z"/></g><path class="cls-18" d="M79.87,26c.25.35.47.73.71,1.09.38.56.73,1,1.48.93a.76.76,0,0,0,.55-.72c0-.58-.46-.93-.84-1.26a6,6,0,0,0-1.12-.82c-.47-.26-1.13.29-.78.78Z"/><g class="cls-19"><g class="cls-20"><path class="cls-21" d="M40.61,50.24a16,16,0,0,1-9,2.52,11.42,11.42,0,0,1-3.4-.37C26.4,51.83,27,49,27.05,47.62a1.68,1.68,0,0,0-3.28-.45c-1.46,5.22,1.33,8.93,6.56,9.13,3.48.13,11.5-.42,11.33-5.46a.7.7,0,0,0-1-.6Z"/></g><g class="cls-22"><path class="cls-21" d="M43.58,53.58a11,11,0,0,0,2.66,5.78.45.45,0,0,0,.71-.54c-.89-1.86-2.08-3.41-2.53-5.47-.12-.56-.92-.31-.84.23Z"/></g><g class="cls-22"><path class="cls-21" d="M45.12,52.79A8.78,8.78,0,0,0,49,57.51a.47.47,0,0,0,.56-.73,39.07,39.07,0,0,1-3.93-4.2c-.17-.24-.59-.09-.49.21Z"/></g><g class="cls-22"><path class="cls-21" d="M47.33,51.72a10.86,10.86,0,0,0,5.43,2.09c.41.06.76-.52.31-.73-1.72-.82-3.69-.9-5.34-1.88-.32-.18-.7.28-.4.52Z"/></g><g class="cls-22"><path class="cls-21" d="M47.34,49.94c2.34.4,4.37-.79,6.15-2.17.4-.32,0-1-.5-.86-1.92.71-3.61,1.85-5.65,2.2a.43.43,0,0,0,0,.83Z"/></g><g class="cls-22"><path class="cls-21" d="M45.66,48.3c1.86-1.79,3.84-3.8,4.54-6.36.12-.43-.54-.73-.75-.31a26.87,26.87,0,0,1-4.17,6.29.27.27,0,0,0,.38.38Z"/></g><g class="cls-22"><path class="cls-21" d="M44.68,47.08c1-3,2.25-6.39.29-9.27-.28-.42-1-.17-.86.36,1,3.09.62,5.62-.16,8.7a.38.38,0,0,0,.73.21Z"/></g><g class="cls-22"><path class="cls-21" d="M43.82,45.93a20.15,20.15,0,0,0-2.16-8,.34.34,0,0,0-.62.26A57.13,57.13,0,0,1,43.15,46c.06.38.71.29.67-.09Z"/></g><g class="cls-22"><path class="cls-21" d="M42.78,47.23c0-2.62-2.22-4.15-3.66-6a.48.48,0,0,0-.83.48c1,2,3,3.51,3.7,5.67a.41.41,0,0,0,.79-.11Z"/></g></g><path class="cls-23" d="M28.32,50.87c3.57,2.22,8.82.32,12.23-1.3,1-.47.11-2-.86-1.47a16,16,0,0,1-5,1.79c-2.1.37-4.09,1.33-6.22.61-.23-.08-.35.25-.16.37Z"/><g class="cls-24"><path class="cls-23" d="M26.07,49.82c.42,1.84.57,3.55,2.71,3.89a21.91,21.91,0,0,0,8-.28.12.12,0,0,0-.06-.23,43.21,43.21,0,0,1-6,.31c-.64,0-1.29.06-1.93.07-2.05,0-2.18-2.53-2.49-3.82,0-.16-.27-.09-.24.06Z"/></g><g class="cls-24"><path class="cls-23" d="M37.41,53.14A5.56,5.56,0,0,0,38.93,53a.09.09,0,0,0,0-.17,8.35,8.35,0,0,0-1.48.34s0,0,0,0Z"/></g><g class="cls-24"><path class="cls-23" d="M30.59,54.84a14.8,14.8,0,0,0,5.09-.28c.16,0,.11-.28,0-.28-1.67-.05-3.28.53-4.95.21-.23-.05-.33.3-.1.35Z"/></g><g class="cls-24"><path class="cls-23" d="M45.62,46.76c.83-1.08,2.19-2.13,2.47-3.52a.26.26,0,0,0-.47-.2c-.39.54-.73,1.11-1.13,1.65a21.38,21.38,0,0,0-1.28,1.83c-.16.27.23.48.41.24Z"/></g><g class="cls-24"><path class="cls-23" d="M44.3,43.77a5.51,5.51,0,0,0,.44-2.46c0-.22-.36-.14-.38.06-.07.79-.21,1.57-.29,2.37,0,.13.2.15.23,0Z"/></g><g class="cls-24"><path class="cls-23" d="M42.65,45a6.75,6.75,0,0,0-.91-2.11c-.13-.14-.4,0-.33.19a11.86,11.86,0,0,0,1,2c.07.11.26,0,.22-.09Z"/></g><g class="cls-24"><path class="cls-23" d="M41.59,46.8a3.87,3.87,0,0,0-.7-1.11c-.09-.07-.27,0-.21.12A4,4,0,0,0,41.39,47a.13.13,0,0,0,.2-.15Z"/></g><g class="cls-24"><path class="cls-23" d="M46.23,48.77c.57-.12,1.13-.28,1.69-.45.12,0,.11-.24,0-.23a11.46,11.46,0,0,0-1.74.37.16.16,0,0,0,.08.31Z"/></g><g class="cls-24"><path class="cls-23" d="M45.91,52a8.45,8.45,0,0,0,2.66,3.12c.27.19.55-.22.34-.44a13.09,13.09,0,0,1-2.45-3c-.19-.36-.72,0-.55.32Z"/></g><g class="cls-24"><path class="cls-23" d="M45.3,55.5A4.83,4.83,0,0,0,46,56.8c.09.12.31,0,.25-.15-.19-.46-.39-.91-.59-1.36-.11-.25-.47,0-.37.21Z"/></g><g class="cls-24"><path class="cls-23" d="M42.41,53.63a6.47,6.47,0,0,0,.87,3.62.28.28,0,0,0,.48-.28,14.74,14.74,0,0,1-.92-3.4c0-.24-.44-.18-.43.06Z"/></g><g class="cls-25"><path class="cls-9" d="M72.84,62.72c-6.23,1.68-14.74,2.22-19.31-3.14-3-3.54-8.56,2.2-5,5,7.19,5.64,18.09,5.28,25.13-.45.68-.56-.06-1.62-.82-1.41Z"/></g><path class="cls-9" d="M95.24,71.26a13.84,13.84,0,0,0,3.39,2.64,9.21,9.21,0,0,0,2.94.64c3.68.32,7.58,0,10.74-1.91a20,20,0,0,0,4.09-3.55,65.21,65.21,0,0,0,16.94-37.36,12.5,12.5,0,0,0-.38-5.65c-1.34-3.53-5.66-5.36-9.34-4.51-2.91.68-5.61,2.75-8.56,2.3-1.2-.18-2.29-.77-3.46-1a3.23,3.23,0,0,0-3.33.81c-.54.41-1.19-.35-1.49-1A13.84,13.84,0,0,0,94.3,15a9.54,9.54,0,0,0-5.7,1.85C85.44,19.34,84.9,23.79,84,27.7c-1.12,4.56-3.1,8.84-4.69,13.26a79.77,79.77,0,0,0-2.72,9.25c-1.07,4.65-1.63,9.86.87,13.93A10.65,10.65,0,0,0,87,69.08a22.19,22.19,0,0,1,3.54-.25A8.5,8.5,0,0,1,95.24,71.26Z"/><path class="cls-26" d="M129,25.66c-2.21-2.71-6.69-1-10.78.5a6.37,6.37,0,0,1-5.48-.77c-2.12-1.38-2.94-3-5.82-3-1,0-2.21-1.2-3-.65-5-1.92-8.38-8-14.67-1-2.56,2.85-2.48,6.62-3.49,10.28-.72,2.61-1.66,5.33-2.49,7.88-.33.9-1.89,5.18-2.18,6.1-.14.39-.27.79-.42,1.18-2.31,6.33-3.22,14.25,3.88,18.47,2.6,1.56,6,1.22,8.88,1.89,3.22.75,6,4.07,9.29,4.49,7.36.94,12.05-3.89,16.07-9.38,3-4,6.87-10.37,8.53-15.07C129.21,41.34,132.73,30.25,129,25.66Z"/><g class="cls-27"><path class="cls-28" d="M88.14,62.92c.65-2.43.64-5,1.25-7.42a27.36,27.36,0,0,1,1.87-4.68c1.38-3,2.73-6.08,4.17-9.1A66.47,66.47,0,0,1,101,31.54a10.13,10.13,0,0,1,1.18-1.29c.09-.09.92-.56.32-.34,2.8-1.05-.9.24,1.41-.4.6-.16,2.39-1.28,1.52-.82a2.65,2.65,0,0,0,1.31-2.28c.09-2.7-2-4.16-4.42-4.46-2.11-.26-4,1-5.45,2.41-3.3,3.14-5.22,8.35-6.52,12.59-1.24,4-2.1,8.12-3,12.24-.41,2-1.1,3.86-1.34,5.86-.26,2.2-1,6.89,1.31,8.19a.54.54,0,0,0,.78-.32Z"/></g><g class="cls-27"><path class="cls-28" d="M97.74,65.56c9.75,5.88,17.51-7.34,20.11-14.94,1.81-5.31,3.82-10.42,3-16.09-.81-5.84-7.49-10-12.9-10.25a6.79,6.79,0,0,0-6.52,5c-.86,3.14.61,5.84,3.11,7.64a5.86,5.86,0,0,0,2.31,1.16s2.28.84,1.06.3a7.52,7.52,0,0,1,1.2.61c-.45-.25-.62-.78.1.48,1.4,2.46.27,6.14-.3,8.72a29.65,29.65,0,0,1-3,8.26c-1.1,2-4.45,7.35-7.14,6.73a1.32,1.32,0,0,0-1,2.41Z"/></g><path class="cls-29" d="M87.29,24.68a15,15,0,0,1,4.13-4.94c2.46-1.63,6.29-.07,8.06,1.81,2.57,2.73,4.69,4.34,8.57,3.56a.83.83,0,0,0,0-1.6,10.94,10.94,0,0,1-6.83-3.69,8.92,8.92,0,0,0-5.73-2.63c-4.92-.41-7,3.27-8.44,7.39,0,.14.17.22.24.1Z"/><path class="cls-29" d="M130.74,36.59c-.47-4.24,2.17-9.92-2.35-12.77-2.45-1.55-5.51.12-7.84,1a17.89,17.89,0,0,1-9,.21c-.56-.12-1.31.4-1,1,1.26,3.13,8.35,1.59,10.68.91,1.75-.5,3.22-1.44,5.08-1.59,2.48-.21,3,2.56,3.35,4.27.44,2.34-.3,4.86.87,7.05.08.13.32.08.3-.08Z"/><g class="cls-27"><path class="cls-28" d="M102,64.52c4.55-3.42,8.14-5.94,10.25-11.47,1.57-4.11,3.5-12.19.69-16.06-.71-1-2.61-1.11-2.87.37-.35,2,0,4,.07,6a38.19,38.19,0,0,1-.9,7.9c-1.06,5.26-4.19,9-7.58,12.87-.2.22.07.64.34.44Z"/></g><g class="cls-27"><path class="cls-28" d="M88.22,59.12c1.89-4.43,3.21-9.06,5.09-13.5A36.46,36.46,0,0,1,97,38.86c1.49-2.14,3.7-3.6,5.15-5.74A1.44,1.44,0,0,0,100.57,31c-4.59,1.67-7.63,7.6-9.36,11.85A46.08,46.08,0,0,0,87.91,59c0,.15.24.24.31.08Z"/></g><g class="cls-27"><path class="cls-28" d="M89.21,55.15c1-9.1,7.93-15.9,14.13-21.86a.84.84,0,0,0-1-1.32C94.91,36.18,88.78,46.56,89,55.15c0,.11.16.1.17,0Z"/></g><g class="cls-27"><path class="cls-28" d="M110.18,53.76c1.24-3,2.71-5.52,2.93-8.79.21-3.08-.64-6.65-1.34-9.61-.14-.62-1.19-.67-1.29,0-.44,2.86.36,5.68.48,8.55.14,3.27-1.31,6.49-1.6,9.74,0,.51.66.51.82.11Z"/></g><g class="cls-30"><path class="cls-9" d="M112.59,65.74a44.11,44.11,0,0,0,15.17-33.2c-.05-3.11-4.75-3.11-4.83,0a55,55,0,0,1-.67,9.07,46.21,46.21,0,0,1-2.54,7.75c-2.13,5.55-4.06,10.94-8,15.55a.59.59,0,0,0,.83.83Z"/></g><g class="cls-30"><path class="cls-9" d="M88.05,35.38c-2.49,4.17-5.08,8.25-6.63,12.88-1.19,3.54-3.22,9.58.19,12.45a2.19,2.19,0,0,0,3.69-1.52c.24-1.86-.41-3.72-.36-5.61a40.47,40.47,0,0,1,1-6.09c.74-3.94,2.36-7.68,3.76-11.41.37-1-1.13-1.55-1.64-.7Z"/></g><g class="cls-30"><path class="cls-9" d="M87.53,37.09a1.68,1.68,0,0,0,.4,0,.25.25,0,0,0,.17-.43,1.33,1.33,0,0,0-.29-.29c-.42-.29-.81.49-.28.67Z"/></g><g class="cls-30"><path class="cls-9" d="M89,32.17l.17.11a.22.22,0,0,0,.3-.29l-.11-.18c-.24-.35-.71.13-.36.36Z"/></g><g class="cls-30"><path class="cls-9" d="M90.16,28.8a.64.64,0,0,0,.51.66.38.38,0,0,0,.46-.46,1.8,1.8,0,0,1-.06-.32c-.08-.52-.94-.39-.91.12Z"/></g><g class="cls-30"><path class="cls-9" d="M89,26.56a.65.65,0,0,0,.18.53.33.33,0,0,0,.47,0,.73.73,0,0,0,.18-.53.42.42,0,0,0-.83,0Z"/></g><g class="cls-30"><path class="cls-9" d="M91,24.75l0,.07a.49.49,0,0,0,.94,0v-.07a.5.5,0,0,0-.48-.64.51.51,0,0,0-.49.64Z"/></g><g class="cls-30"><path class="cls-9" d="M93.2,23a.58.58,0,0,0,.09.41.21.21,0,0,0,.35,0,.64.64,0,0,0,.09-.41.27.27,0,0,0-.53,0Z"/></g><g class="cls-30"><path class="cls-9" d="M92.57,26.12s0,0,0,0a0,0,0,1,0,0,0Z"/></g><g class="cls-30"><path class="cls-9" d="M90.72,27a.45.45,0,0,0,.34.37.34.34,0,0,0,.37-.15l0,0a.29.29,0,0,0,0-.27c-.12-.18,0-.07,0,.08.11-.61-.85-.56-.7,0Z"/></g><g class="cls-30"><path class="cls-9" d="M88.51,30l0,.07a.43.43,0,0,0,.32.32h.25a.47.47,0,0,0,.32-.32V30c.18-.77-1.09-.77-.92,0Z"/></g><g class="cls-30"><path class="cls-9" d="M87.05,32.09a.75.75,0,0,0,.41.73.33.33,0,0,0,.48-.36,2.33,2.33,0,0,1,0-.37.43.43,0,0,0-.85,0Z"/></g><g class="cls-30"><path class="cls-9" d="M124,29.16a.06.06,0,0,0,0-.11.06.06,0,1,0,0,.11Z"/></g><g class="cls-30"><path class="cls-9" d="M124.05,29.15l.08,0-.18,0-.06-.08a.34.34,0,0,0,.12.12c-.08,0-.07-.2-.07-.05a.56.56,0,0,0,.3.51.41.41,0,0,0,.49-.06.62.62,0,0,0-.72-1,.32.32,0,0,0-.16.29v0c-.12.14,0,.42.2.34Z"/></g><g class="cls-30"><path class="cls-9" d="M124.91,31.65a1.41,1.41,0,0,0,0,.2.43.43,0,0,0,.31.4.45.45,0,0,0,.23,0,.43.43,0,0,0,.31-.4c0-.07,0-.14,0-.2a.44.44,0,0,0-.87,0Z"/></g><g class="cls-30"><path class="cls-9" d="M122.35,30.08a.37.37,0,0,0,.18.27.26.26,0,0,0,.24,0,.37.37,0,0,0,.18-.27c.16-.5-.76-.5-.6,0Z"/></g><g class="cls-30"><path class="cls-9" d="M124.28,33.74a.8.8,0,0,0,.21.7.36.36,0,0,0,.51,0,.8.8,0,0,0,.21-.7.47.47,0,0,0-.93,0Z"/></g><g class="cls-30"><path class="cls-9" d="M126.09,31a.53.53,0,0,0,0-1.06.53.53,0,0,0,0,1.06Z"/></g><g class="cls-30"><path class="cls-9" d="M123.65,33.74l-.06.15c-.09.21.07.53.34.43a.59.59,0,0,0,.42-.58c0-.45-.66-.44-.7,0Z"/></g><g class="cls-30"><path class="cls-9" d="M124.47,40a1.11,1.11,0,0,0,.13.62.35.35,0,0,0,.59,0,1.11,1.11,0,0,0,.13-.62c0-.55-.89-.55-.85,0Z"/></g><g class="cls-30"><path class="cls-9" d="M121.56,46.16c0,.33.18.74.55.8a.38.38,0,0,0,.44-.25,1.56,1.56,0,0,0,0-.68c-.09-.54-1-.41-1,.13Z"/></g><g class="cls-30"><path class="cls-9" d="M119.93,51.4a1.39,1.39,0,0,0,.22,1,.35.35,0,0,0,.51,0,1.39,1.39,0,0,0,.22-1,.48.48,0,0,0-.95,0Z"/></g><g class="cls-30"><path class="cls-9" d="M117.52,58l0,.14a.15.15,0,0,0,.28,0l.05-.14c.11-.31-.49-.31-.38,0Z"/></g><g class="cls-30"><path class="cls-9" d="M112.51,64a.76.76,0,0,0,.22.49.28.28,0,0,0,.38,0,.72.72,0,0,0,.22-.49c.06-.53-.87-.53-.82,0Z"/></g><g class="cls-30"><path class="cls-9" d="M108.64,67.72a.41.41,0,0,0,.08.24.18.18,0,0,0,.32,0,.41.41,0,0,0,.08-.24c0-.31-.51-.31-.48,0Z"/></g><g class="cls-30"><path class="cls-9" d="M109.41,66.37v.2a.33.33,0,0,0,.18.31.38.38,0,0,0,.36,0,.37.37,0,0,0,.18-.31v-.2c0-.47-.74-.47-.73,0Z"/></g><g class="cls-30"><path class="cls-9" d="M111.52,67.32a.35.35,0,0,0,.1.2.15.15,0,0,0,.2,0,.31.31,0,0,0,.11-.2.21.21,0,1,0-.41,0Z"/></g><g class="cls-30"><path class="cls-9" d="M107.23,67.3h-.07a.41.41,0,0,0,0,.81h.07c.54.06.54-.88,0-.83Z"/></g><g class="cls-30"><path class="cls-9" d="M104.39,68.63c-.28,0-.46.2-.37.5a.23.23,0,0,0,.44,0l-.07.07c.37,0,.36-.6,0-.57Z"/></g><g class="cls-30"><path class="cls-9" d="M102,68.58a.26.26,0,0,0,0-.52.26.26,0,0,0,0,.52Z"/></g><g class="cls-30"><path class="cls-9" d="M81.25,56.42a2.34,2.34,0,0,0,.67.66.34.34,0,0,0,.49-.38,2.52,2.52,0,0,0-.45-.82c-.34-.39-1,.11-.71.54Z"/></g><g class="cls-30"><path class="cls-9" d="M82.43,51.37l0,.07a.4.4,0,0,0,.28.28h.21a.41.41,0,0,0,.29-.28v-.07c.16-.68-1-.68-.81,0Z"/></g><g class="cls-30"><path class="cls-9" d="M83.44,53.81s0,0,0,0a0,0,0,1,0,0,0Z"/></g><g class="cls-30"><path class="cls-9" d="M80.27,53.37a.73.73,0,0,0,.19.74.53.53,0,0,0,.63.08c.38-.25.23-.61.07-.94a.49.49,0,0,0-.89.12Z"/></g><g class="cls-30"><path class="cls-9" d="M83.45,54a.7.7,0,0,0,.18.55.36.36,0,0,0,.51,0,.7.7,0,0,0,.18-.55.44.44,0,0,0-.87,0Z"/></g><g class="cls-30"><path class="cls-9" d="M81.84,53.46a.48.48,0,0,0,.23.32.29.29,0,0,0,.33,0,.52.52,0,0,0,.24-.32c.2-.67-1-.67-.8,0Z"/></g><g class="cls-30"><path class="cls-9" d="M84.7,49.65c-.08.38,0,.9.53.87a.32.32,0,0,0,.32-.31c0-.16-.08-.3-.07-.45,0-.45-.7-.55-.78-.11Z"/></g><g class="cls-30"><path class="cls-9" d="M84.76,46.25a.53.53,0,0,0,.14.24.25.25,0,0,0,.36,0,.45.45,0,0,0,.14-.24c.16-.53-.8-.53-.64,0Z"/></g><g class="cls-30"><path class="cls-9" d="M82.64,48.26a.46.46,0,0,0,.2.39.26.26,0,0,0,.29,0,.5.5,0,0,0,.21-.39c0-.45-.76-.45-.7,0Z"/></g><g class="cls-30"><path class="cls-9" d="M85.91,42.92a.52.52,0,0,0,.23.61c.48.34.93-.54.33-.77l.17.16a.38.38,0,0,0-.73,0Z"/></g><g class="cls-30"><path class="cls-9" d="M87.78,41.83h.07a.45.45,0,0,0,0-.89h-.07c-.59-.06-.59,1,0,.91Z"/></g><g class="cls-30"><path class="cls-9" d="M84.78,63a.37.37,0,0,0,0-.74.37.37,0,0,0,0,.74Z"/></g><g class="cls-30"><path class="cls-9" d="M83.87,60.68A.44.44,0,0,0,84,61a.25.25,0,0,0,.36,0,.45.45,0,0,0,.14-.33c0-.4-.67-.4-.63,0Z"/></g><g class="cls-30"><path class="cls-9" d="M83.09,62.1a.54.54,0,0,0,.29-.22.26.26,0,0,0,0-.29.46.46,0,0,0-.29-.22c-.61-.25-.61,1,0,.73Z"/></g><g class="cls-30"><path class="cls-9" d="M86.88,64.53a.4.4,0,0,0,0-.8.4.4,0,0,0,0,.8Z"/></g><g class="cls-30"><path class="cls-9" d="M88.85,64.35a.4.4,0,0,0,.12.23.23.23,0,0,0,.31,0,.38.38,0,0,0,.11-.23.28.28,0,1,0-.54,0Z"/></g><g class="cls-30"><path class="cls-9" d="M99.71,67.76l.15.14a0,0,0,1,0,.07-.07l-.14-.15c-.05-.05-.13,0-.08.08Z"/></g><g class="cls-30"><path class="cls-9" d="M99.31,67.42a.88.88,0,0,0,.08.42.25.25,0,0,0,.42,0,.88.88,0,0,0,.08-.42c0-.38-.61-.38-.58,0Z"/></g><g class="cls-30"><path class="cls-9" d="M100.58,69a.67.67,0,0,0,.1.57.43.43,0,0,0,.57.09.31.31,0,0,0,.11-.41l0,0c-.07-.1-.07-.1,0,0,.15-.48-.64-.68-.73-.21Z"/></g><g class="cls-30"><path class="cls-29" d="M94.71,21.12a1,1,0,0,0,.47.33.3.3,0,0,0,.36-.36.91.91,0,0,0-.33-.47.35.35,0,0,0-.5.5Z"/></g><g class="cls-30"><path class="cls-29" d="M93.52,24.46v.2a.39.39,0,0,0,.77,0v-.2a.4.4,0,0,0-.79,0Z"/></g><g class="cls-30"><path class="cls-29" d="M90.83,24.2a.62.62,0,0,0,.27.73.38.38,0,0,0,.47-.06l0,0a.34.34,0,0,0,.09-.32s0-.08,0-.13l-.07-.08c-.12-.11-.11-.07,0,.11.15-.51-.68-.73-.78-.22Z"/></g><g class="cls-30"><path class="cls-29" d="M91.33,26.69a.6.6,0,0,0,.44.47c.43.14.84-.49.46-.79l0,0,.12.21,0-.05v.19a.5.5,0,1,0-1,0Z"/></g><g class="cls-30"><path class="cls-29" d="M87.33,36.29a.45.45,0,0,0,0-.9.45.45,0,0,0,0,.9Z"/></g><g class="cls-30"><path class="cls-29" d="M86.07,37.63a.93.93,0,0,0,.12.44.27.27,0,0,0,.48,0,1.07,1.07,0,0,0,.12-.44c.06-.46-.78-.46-.72,0Z"/></g><g class="cls-30"><path class="cls-29" d="M120,29.32l0,.13a.2.2,0,0,0,.39,0l0-.13c.12-.4-.59-.4-.47,0Z"/></g><g class="cls-30"><path class="cls-29" d="M122.39,28.41a.5.5,0,0,0-.41.37.37.37,0,0,0,.1.37l0,0a.33.33,0,0,0,.4.06,1,1,0,0,0,.2-.21l-.24.18h0c.56,0,.51-.89-.11-.8Z"/></g><g class="cls-30"><path class="cls-29" d="M125,36.19a1.22,1.22,0,0,0,0,.84c.08.19.32.16.45.06a1.28,1.28,0,0,0,.31-.7.38.38,0,0,0-.73-.2Z"/></g><g class="cls-30"><path class="cls-29" d="M124.2,38.34a.54.54,0,0,0,.09.22.36.36,0,0,0,.61,0,.43.43,0,0,0,.09-.22.41.41,0,1,0-.79,0Z"/></g><g class="cls-30"><path class="cls-29" d="M126,39.09a.39.39,0,0,0,.77,0c.15-.65-.92-.65-.77,0Z"/></g><g class="cls-30"><path class="cls-29" d="M125.28,41.73l0,.14a.18.18,0,0,0,.35,0l0-.14c.09-.35-.5-.35-.42,0Z"/></g><g class="cls-30"><path class="cls-29" d="M123.37,43.94a.87.87,0,0,0,0,.83.39.39,0,0,0,.7.09l.11-.09a1.31,1.31,0,0,0,.19-.27c.42-.59-.66-1.21-1-.56Z"/></g><g class="cls-30"><path class="cls-29" d="M118.78,55.89a.73.73,0,0,0,.2.53.33.33,0,0,0,.45,0,.78.78,0,0,0,.21-.53c0-.55-.89-.55-.86,0Z"/></g><g class="cls-30"><path class="cls-29" d="M117.75,58.68a.45.45,0,0,0,.82,0,.47.47,0,1,0-.82,0Z"/></g><g class="cls-30"><path class="cls-29" d="M115.77,62a.24.24,0,0,0,0-.48.24.24,0,0,0,0,.48Z"/></g><g class="cls-30"><path class="cls-29" d="M114.27,63.2a.69.69,0,0,0,0,.74.23.23,0,0,0,.36.05,2,2,0,0,0,.28-.44c.25-.37-.38-.74-.59-.35Z"/></g><g class="cls-30"><path class="cls-29" d="M109.33,67.75a0,0,0,1,0,0-.06,0,0,0,0,0,0,.06Z"/></g><g class="cls-30"><path class="cls-29" d="M107.58,69.18v.07a.41.41,0,0,0,.78,0l0-.07a.42.42,0,1,0-.81,0Z"/></g><g class="cls-30"><path class="cls-29" d="M105.85,69.54a.38.38,0,0,0,.51-.51c-.32-.55-1,.23-.51.51Z"/></g><g class="cls-30"><path class="cls-29" d="M85.38,63.84a.47.47,0,0,0,0-.93.47.47,0,0,0,0,.93Z"/></g><g class="cls-30"><path class="cls-29" d="M88.52,65.13h.08a.41.41,0,0,0,0-.81h-.08a.41.41,0,0,0,0,.81Z"/></g><g class="cls-30"><path class="cls-29" d="M83.58,61.18l-.14-.1.09.11a.31.31,0,0,0,.41,0l0,0a.35.35,0,0,0,0-.41.47.47,0,0,0-.44-.26c-.44,0-.46.72,0,.7Z"/></g><g class="cls-30"><path class="cls-29" d="M83.58,59s0,0,0,0Z"/></g><g class="cls-30"><path class="cls-29" d="M81.21,59.91a.6.6,0,0,0,.67.19.33.33,0,0,0,.08-.6.55.55,0,0,1-.19-.14c-.33-.38-.92.19-.56.55Z"/></g><path class="cls-31" d="M105.45,22.85c.34-1.18-.48,1.46-.35.72a15.9,15.9,0,0,0-.2,1.69c-.07,1.3.17-.73-.1.54a17.28,17.28,0,0,1-.49,1.7c-.44,1.41.53-1-.13.23-.21.39-1.38,1.87-.12.37.23-.29,2.63-1.13,1.17-.75,3.26-.84,6.49,2.87,5,5.91A13.79,13.79,0,0,0,112,27.82c.17-2.74-2.09-5.93-4.85-6.36-5.9-.93-10.33,4.13-10.64,9.77a9.36,9.36,0,0,0,9,9.82c4.66.07,8-2.8,9.56-7,1-2.77,0-6.13-1.35-8.61a15,15,0,0,0-2.21-2.92,6.54,6.54,0,0,0-1.31-1c-.27-.18-2.45-.52-1.62-.41a2.59,2.59,0,0,0-3.1,1.76Z"/><g class="cls-24"><path class="cls-18" d="M107.92,27.83a6.74,6.74,0,0,1-1.46,3.06l-.34.81c.11-.25.08-.19-.08.17a11.24,11.24,0,0,0-.64,1.76,6.58,6.58,0,0,0-.23,2.21,2.69,2.69,0,0,0,4,2.3,7.28,7.28,0,0,0,3.56-6.57c-.06-2-1.28-5.23-3.87-4.69a1.32,1.32,0,0,0-1,.95Z"/></g><g class="cls-24"><path class="cls-18" d="M104.74,25.23a11.74,11.74,0,0,1-1.51,2.13,5.17,5.17,0,0,0-1,3.09,1.58,1.58,0,0,0,2.68,1.11,7,7,0,0,0,1.71-2.78,7.84,7.84,0,0,0,.28-3c-.11-1-1.61-1.73-2.15-.58Z"/></g><path class="cls-32" d="M106.17,25.28a6.94,6.94,0,0,1-2.57-.92A2.47,2.47,0,0,1,102.45,22c.3-1.66,2.48-2.05,3.77-3.13,1.53-1.29,1.73-3.52,1.82-5.51.12-2.77.07-6-2.06-7.73-.66-.56-1.59-1.11-1.51-2a29.43,29.43,0,0,1,6.87-2.13,32,32,0,0,1,1.13,13.81,16.17,16.17,0,0,0-.31,4,4.11,4.11,0,0,0,2,3.3,4.32,4.32,0,0,1,.94.46c.86.69.43,2.21-.52,2.76a5,5,0,0,1-3.23.27C109.65,26,107.9,25.64,106.17,25.28Z"/><g class="cls-33"><path class="cls-12" d="M102.09,44a48.59,48.59,0,0,1-4,6.72c-1.83,2.3-5,3.78-6.13,6.5-.7,1.61-.55,3.65,1.19,4.57,4.74,2.5,8.46-2,10.92-5.49a19,19,0,0,0,2.77-6c.65-2.42-.08-4.27-1.32-6.31a2,2,0,0,0-3.4,0Z"/></g><path class="cls-34" d="M113.07,41.23a1,1,0,0,1-2.09,0c0-.58,1-1.56,1-1.56S113.07,40.65,113.07,41.23Z"/><path class="cls-34" d="M98.25,39.58a1,1,0,1,1-2.09,0c0-.58,1-1.55,1-1.55S98.25,39,98.25,39.58Z"/><path class="cls-35" d="M113.62,44.8a1.05,1.05,0,0,1-1.45-.32,1,1,0,0,1,.31-1.44c.49-.32,1.87,0,1.87,0S114.1,44.48,113.62,44.8Z"/><path class="cls-35" d="M93.65,31.28a1,1,0,1,1-.11-2.09c.57,0,1.61,1,1.61,1S94.23,31.25,93.65,31.28Z"/><path class="cls-35" d="M109.33,51.09a1.05,1.05,0,0,1-1.54-1.43c.39-.42,1.83-.42,1.83-.42S109.72,50.67,109.33,51.09Z"/><path class="cls-35" d="M118.56,31.49a1,1,0,0,1-1.1-1,1.05,1.05,0,0,1,1-1.11c.58,0,1.61,1,1.61,1S119.14,31.46,118.56,31.49Z"/><path class="cls-35" d="M91.49,39.11a1,1,0,0,1-.11-1.91c.53,0,1.47.88,1.47.88S92,39.08,91.49,39.11Z"/><path class="cls-34" d="M95.06,39.48a.9.9,0,0,1-.22,1.25.91.91,0,0,1-1.26-.23c-.28-.4,0-1.61,0-1.61S94.78,39.07,95.06,39.48Z"/><path class="cls-34" d="M116.81,40.93a1,1,0,0,1-.26,1.45,1,1,0,0,1-1.46-.26c-.33-.47,0-1.87,0-1.87S116.48,40.45,116.81,40.93Z"/><path class="cls-34" d="M117.71,33a1,1,0,1,1-1.72,1.2c-.33-.48,0-1.87,0-1.87S117.38,32.52,117.71,33Z"/><path class="cls-34" d="M95.68,37.41a1,1,0,0,1-2-.77c.21-.54,1.55-1.06,1.55-1.06S95.89,36.87,95.68,37.41Z"/><g class="cls-36"><g class="cls-37"><path class="cls-38" d="M108.37,2c2.94,4.32,2.89,11.18,1.27,15.84-1.75,5,2.11,10.83,7.56,9.69A3.89,3.89,0,0,0,120,23.79c.09-2.65-1.12-4-3.11-5.48-1-.75-.5-7.63-.72-9.18-.51-3.49-2.59-8.22-6.32-9.1-1.07-.25-2.21.94-1.52,2Z"/></g></g></g></g></g></svg>