<svg width="116" height="185" viewBox="0 0 116 185" fill="none" xmlns="http://www.w3.org/2000/svg">
<path d="M46.75 78.67C46.38 78.67 18.88 76.54 0 59.17C9.66686 60.7889 19.4486 61.625 29.25 61.67C29.25 61.67 12.63 40.79 8.38 20.29C20.5753 26.1225 31.1695 34.8326 39.25 45.67C39.25 45.67 36.58 20.17 43.25 0C43.25 0 57.75 12.67 65.42 41.67C65.42 41.67 68.25 22.83 76.58 7.83C76.58 7.83 82.25 32.67 81.08 54.5C87.2054 47.2813 92.8317 39.6537 97.92 31.67C97.92 31.67 97.58 49 89.08 62C89.08 62 95.92 55 98.92 49.83C98.92 49.83 96.08 65 80.08 76.5L46.75 78.67Z" fill="#538406"/>
<path d="M52.58 75.83C52.58 75.83 35.22 75.31 23.25 68C23.25 68 35.58 71.5 45.75 71.92C45.75 71.92 27.58 55.5 19.58 35.33C19.58 35.33 39.25 48.33 52.58 69.5C52.58 69.5 43.25 42.83 45.92 12.83C45.92 12.83 61.42 42.5 60.92 69C60.92 69 67.42 43.5 74.25 26C74.25 26 76.42 50.83 70.92 68.67C78.5213 62.4632 85.3982 55.4187 91.42 47.67C91.42 47.67 82.78 68.18 76.42 72.67C70.06 77.16 52.58 75.83 52.58 75.83Z" fill="#849D01"/>
<path style="mix-blend-mode:overlay" d="M46.75 78.67C46.38 78.67 18.88 76.54 0 59.17C9.66686 60.7889 19.4486 61.625 29.25 61.67C29.25 61.67 12.63 40.79 8.38 20.29C20.5753 26.1225 31.1695 34.8326 39.25 45.67C39.25 45.67 36.58 20.17 43.25 0C43.25 0 57.75 12.67 65.42 41.67C65.42 41.67 68.25 22.83 76.58 7.83C76.58 7.83 82.25 32.67 81.08 54.5C87.2054 47.2813 92.8317 39.6537 97.92 31.67C97.92 31.67 97.58 49 89.08 62C89.08 62 95.92 55 98.92 49.83C98.92 49.83 96.08 65 80.08 76.5L46.75 78.67Z" fill="url(#paint0_linear)"/>
<path d="M59 65.92C44.78 67.68 32 79.92 25.25 105.17C18.5 130.42 19.5 162.67 37 175.67C54.5 188.67 92.5 186.42 106.75 171.42C121 156.42 114.01 119.42 106.75 101.92C95.75 75.42 85.25 62.67 59 65.92Z" fill="#FEBB26"/>
<path d="M106.75 101.92C95.75 75.42 85.25 62.67 59 65.92C44.78 67.68 32 79.92 25.25 105.17C19.12 128.09 19.38 156.78 32.58 171.6C38.88 169.6 41.36 154.5 41.36 154.5C41.36 154.5 41.81 169.56 49.83 169.28C57.85 169 60.11 154.5 60.11 154.5C60.11 154.5 63.36 167.25 70.36 166C76.8 164.85 78.61 150.75 78.61 150.75C78.61 150.75 83 163.81 92.31 163.5C99.86 163.25 102.61 148.25 102.61 148.25C102.61 148.25 106.38 158.88 112.87 160.25C118.21 142.52 112.57 116 106.75 101.92Z" fill="#FFCA3D"/>
<path d="M106.75 101.92C95.75 75.42 85.25 62.67 59 65.92C44.78 67.68 32 79.92 25.25 105.17C22.4565 115.573 21.1701 126.322 21.43 137.09C22.1653 137.386 22.9614 137.499 23.75 137.42C30.75 136.67 33.48 120.1 33.48 120.1C33.48 120.1 33.93 135.16 41.95 134.88C49.97 134.6 52.23 120.1 52.23 120.1C52.23 120.1 55.48 132.85 62.48 131.6C68.92 130.45 70.73 116.35 70.73 116.35C70.73 116.35 75.16 129.41 84.43 129.1C91.98 128.85 94.73 113.85 94.73 113.85C94.73 113.85 99.27 126.68 106.99 125.94C109.83 125.67 111.48 123.51 112.42 120.74C111.091 114.311 109.194 108.013 106.75 101.92Z" fill="#FEBB26"/>
<path d="M59 65.92C45.31 67.61 33 79 26 102.42C33.77 101.79 36 87.67 36 87.67C36 87.67 39.25 100.42 46.25 99.17C52.69 98 54.5 83.92 54.5 83.92C54.5 83.92 58.94 96.92 68.2 96.67C75.75 96.42 78.5 81.42 78.5 81.42C78.5 81.42 83.05 94.25 90.76 93.51C95.34 93.07 96.83 87.79 97.21 82.85C88.59 69.51 77.86 63.58 59 65.92Z" fill="#FFCA3D"/>
<path d="M26.23 103.14C32.98 102.14 35.77 93.74 36.72 87.87H35.28C36.56 92.71 40.11 101.13 46.45 99.87C52.58 98.67 54.54 89.21 55.22 84.1H53.78C55.88 90.1 61.25 98.26 68.63 97.35C75.35 96.52 78.16 87.19 79.22 81.6H77.78C79.39 86.04 82.26 91.38 86.78 93.47C94.29 97 97.37 88.83 98 82.85C98.1 81.85 96.6 81.9 96.5 82.85C96.11 86.85 95.03 92.96 89.81 92.78C87.07 92.68 84.81 90.5 83.26 88.48C81.5526 86.2858 80.2026 83.8356 79.26 81.22C79.03 80.59 77.97 80.43 77.82 81.22C76.89 86.1 74.69 94.28 69.26 95.65C62.44 97.38 57.19 89.23 55.26 83.72C55.05 83.1 53.92 82.91 53.82 83.72C53.2 88 52 94.25 48.57 97.11C42.48 102.11 37.97 92.18 36.72 87.47C36.55 86.79 35.4 86.71 35.28 87.47C34.4 92.85 32.02 100.75 25.83 101.7C24.88 101.84 25.28 103.29 26.23 103.14Z" fill="#FFD863"/>
<path d="M21.23 137.81C29.96 140.18 33.16 126.42 34.23 120.3L32.76 120.1C32.95 125.38 34.44 134.87 41.09 135.6C48.67 136.43 52.04 126.07 52.98 120.3H51.5C52.78 125.14 56.33 133.57 62.67 132.3C68.81 131.1 70.76 121.64 71.45 116.53H70C72.1 122.53 77.48 130.69 84.85 129.78C91.58 128.96 94.39 119.62 95.45 114.03H94C95.44 118.03 97.75 122.23 101.17 124.79C106.06 128.45 111.01 126.27 113.17 120.92C113.53 120.02 112.08 119.63 111.73 120.52C107.03 132.31 97.64 119.52 95.48 113.63C95.25 113 94.18 112.84 94.03 113.63C93.1 118.52 90.91 126.69 85.48 128.07C78.66 129.79 73.41 121.64 71.48 116.13C71.26 115.51 70.14 115.33 70.03 116.13C69.46 120.4 68.3 126.66 64.82 129.52C58.74 134.52 54.22 124.59 52.98 119.88C52.8 119.21 51.66 119.12 51.53 119.88C50.73 124.82 48.16 133.97 41.98 134.11C35.8 134.25 34.43 124.72 34.26 120.11C34.26 119.31 32.93 119.04 32.78 119.91C31.89 125.16 29.09 138.39 21.66 136.38C21.4754 136.345 21.2845 136.381 21.1251 136.481C20.9657 136.58 20.8493 136.735 20.7991 136.916C20.7488 137.097 20.7683 137.291 20.8536 137.458C20.939 137.625 21.084 137.754 21.26 137.82L21.23 137.81Z" fill="#FFD863"/>
<path d="M32.78 172.33C38.99 169.74 41.06 160.67 42.08 154.7L40.61 154.5C40.8 159.79 42.29 169.27 48.94 170C56.52 170.83 59.94 160.47 60.83 154.7H59.38C60.66 159.55 64.21 167.97 70.56 166.7C76.69 165.5 78.64 156.04 79.33 150.93H77.88C79.98 156.93 85.36 165.09 92.73 164.18C99.46 163.36 102.27 154.02 103.33 148.43H101.88C103.75 153.56 107.11 159.34 112.67 160.93C112.855 160.965 113.045 160.929 113.205 160.829C113.364 160.73 113.481 160.575 113.531 160.394C113.581 160.213 113.562 160.019 113.476 159.852C113.391 159.685 113.246 159.556 113.07 159.49C108.07 158.06 105.01 152.64 103.33 148.03C103.1 147.4 102.03 147.24 101.88 148.03C100.96 152.92 98.76 161.09 93.33 162.47C86.51 164.2 81.26 156.04 79.33 150.53C79.11 149.92 77.99 149.73 77.88 150.53C77.31 154.8 76.15 161.06 72.67 163.92C66.59 168.92 62.07 158.99 60.83 154.28C60.65 153.61 59.51 153.53 59.38 154.28C58.58 159.23 56.02 168.37 49.83 168.51C43.64 168.65 42.28 159.13 42.11 154.51C42.11 153.71 40.78 153.44 40.63 154.31C39.72 159.65 37.92 168.58 32.38 170.89C31.5 171.26 31.89 172.71 32.78 172.34V172.33Z" fill="#FFD863"/>
<path style="mix-blend-mode:overlay" d="M59 65.92C44.78 67.68 32 79.92 25.25 105.17C18.5 130.42 19.5 162.67 37 175.67C54.5 188.67 92.5 186.42 106.75 171.42C121 156.42 114.01 119.42 106.75 101.92C95.75 75.42 85.25 62.67 59 65.92Z" fill="url(#paint1_linear)"/>
<path style="mix-blend-mode:overlay" d="M59.0375 142C60.4749 135.91 56.7031 129.808 50.6131 128.371C44.523 126.933 38.4208 130.705 36.9834 136.795C35.546 142.885 39.3178 148.987 45.4078 150.425C51.4979 151.862 57.6001 148.09 59.0375 142Z" fill="url(#paint2_radial)"/>
<path style="mix-blend-mode:overlay" d="M111.319 133.327C112.794 127.246 109.059 121.121 102.978 119.647C96.897 118.172 90.7718 121.906 89.2973 127.988C87.8227 134.069 91.5571 140.194 97.6383 141.668C103.719 143.143 109.845 139.409 111.319 133.327Z" fill="url(#paint3_radial)"/>
<path d="M52.42 136C55.1814 136 57.42 133.761 57.42 131C57.42 128.239 55.1814 126 52.42 126C49.6586 126 47.42 128.239 47.42 131C47.42 133.761 49.6586 136 52.42 136Z" fill="#532B29"/>
<path d="M52.42 136C53.7461 136 55.0178 135.473 55.9555 134.536C56.8932 133.598 57.42 132.326 57.42 131C57.4114 129.938 57.0607 128.907 56.42 128.06L48 133.31C48.4213 134.119 49.0559 134.797 49.835 135.271C50.6141 135.745 51.508 135.997 52.42 136Z" fill="#2D161F"/>
<path d="M93.38 130.14C96.1414 130.14 98.38 127.901 98.38 125.14C98.38 122.379 96.1414 120.14 93.38 120.14C90.6186 120.14 88.38 122.379 88.38 125.14C88.38 127.901 90.6186 130.14 93.38 130.14Z" fill="#532B29"/>
<path d="M93.38 130.14C94.3001 130.133 95.2005 129.873 95.9821 129.387C96.7636 128.901 97.396 128.209 97.8096 127.387C98.2232 126.565 98.4019 125.645 98.3261 124.728C98.2503 123.811 97.9229 122.933 97.38 122.19L89 127.44C89.4168 128.245 90.0446 128.921 90.816 129.397C91.5875 129.872 92.4738 130.129 93.38 130.14Z" fill="#2D161F"/>
<path d="M62.07 134.5C62.07 134.5 74.57 142.33 85.57 132.03" stroke="#2D161F" stroke-width="3" stroke-linecap="round" stroke-linejoin="round"/>
<defs>
<linearGradient id="paint0_linear" x1="27.87" y1="8.88" x2="70.2" y2="82.21" gradientUnits="userSpaceOnUse">
<stop stop-color="#761D8F" stop-opacity="0"/>
<stop offset="1" stop-color="#761D8F"/>
</linearGradient>
<linearGradient id="paint1_linear" x1="3342.71" y1="9193.58" x2="11102" y2="19790.1" gradientUnits="userSpaceOnUse">
<stop stop-color="#761D8F" stop-opacity="0"/>
<stop offset="1" stop-color="#761D8F"/>
</linearGradient>
<radialGradient id="paint2_radial" cx="0" cy="0" r="1" gradientUnits="userSpaceOnUse" gradientTransform="translate(48.0073 139.411) scale(11.33)">
<stop stop-color="#761D8F"/>
<stop offset="1" stop-color="#761D8F" stop-opacity="0"/>
</radialGradient>
<radialGradient id="paint3_radial" cx="0" cy="0" r="1" gradientUnits="userSpaceOnUse" gradientTransform="translate(2362 3080.32) scale(256.738)">
<stop stop-color="#761D8F"/>
<stop offset="1" stop-color="#761D8F" stop-opacity="0"/>
</radialGradient>
</defs>
</svg>
