<svg width="158" height="158" viewBox="0 0 158 158" fill="none" xmlns="http://www.w3.org/2000/svg">
<g clip-path="url(#clip0)">
<g style="mix-blend-mode:multiply" opacity="0.28">
<path d="M47.43 6.64996C37.8095 10.8602 29.1258 16.9479 21.8877 24.5566C14.6495 32.1652 9.0025 41.1417 5.27734 50.9603C1.55218 60.7788 -0.176198 71.2421 0.193445 81.7371C0.563088 92.2321 3.02332 102.548 7.43003 112.08C7.46003 91.66 10.84 57.7 28.21 31C33.8612 22.3145 40.2946 14.1639 47.43 6.64996V6.64996Z" fill="#FEFEFE"/>
</g>
<g style="mix-blend-mode:multiply" opacity="0.28">
<path d="M37.08 12.12C22.4023 21.3267 11.1632 35.1087 5.09779 51.3386C-0.96763 67.5685 -1.52208 85.3436 3.52004 101.92C4.49004 81.4 9.00004 52.7 24.12 29.5C28.0634 23.4351 32.3923 17.6298 37.08 12.12V12.12Z" fill="#FEFEFE"/>
</g>
<g style="mix-blend-mode:multiply" opacity="0.28">
<path d="M22.84 23.53C14.8896 31.6167 8.7683 41.3163 4.89002 51.973C1.01175 62.6296 -0.533064 73.9948 0.360047 85.3C2.66005 67.19 8.02005 46.13 19.61 28.3C20.67 26.68 21.7467 25.09 22.84 23.53Z" fill="#FCFCFC"/>
</g>
<path d="M153.4 105.5C158.628 90.7968 159.378 74.8737 155.557 59.7438C151.736 44.6139 143.515 30.9567 131.933 20.4986C120.351 10.0405 105.929 3.25118 90.4887 0.989003C75.0486 -1.27317 59.2845 1.09336 45.1892 7.7894C31.094 14.4854 19.3006 25.2103 11.2999 38.6082C3.29926 52.006 -0.549361 67.4752 0.240608 83.0601C1.03058 98.645 6.42366 113.646 15.7381 126.166C25.0524 138.686 37.8699 148.164 52.57 153.4C54.11 153.95 55.67 154.4 57.22 154.9C76.5277 160.45 97.2251 158.43 115.095 149.252C132.966 140.073 146.664 124.427 153.4 105.5V105.5Z" fill="url(#paint0_linear)"/>
<path style="mix-blend-mode:multiply" opacity="0.44" d="M104.87 6.48002C85.7594 0.134626 64.9234 1.52798 46.8278 10.3614C28.7322 19.1949 14.8169 34.7655 8.0644 53.7362C1.31188 72.7068 2.25944 93.5678 10.704 111.848C19.1486 130.128 34.4181 144.373 53.2401 151.53C54.7001 152.05 56.2401 152.53 57.7701 152.98C76.9428 158.337 97.4451 156.06 114.976 146.628C132.506 137.195 145.702 121.339 151.795 102.388C157.888 83.4362 156.404 62.8612 147.655 44.9797C138.907 27.0983 123.572 13.3 104.87 6.48002V6.48002Z" fill="url(#paint1_radial)"/>
<g style="mix-blend-mode:multiply" opacity="0.96">
<path d="M104.2 8.35001C85.5395 1.99381 65.1267 3.24009 47.3781 11.8192C29.6294 20.3983 15.9721 35.6204 9.36098 54.1921C2.74983 72.7638 3.71643 93.1917 12.0517 111.056C20.3869 128.921 35.4205 142.785 53.9 149.65C55.33 150.16 56.82 150.65 58.32 151.07C77.028 156.389 97.0708 154.233 114.219 145.056C131.368 135.879 144.28 120.399 150.233 101.883C156.185 83.3663 154.712 63.2617 146.123 45.8111C137.535 28.3605 122.503 14.9287 104.2 8.35001V8.35001Z" fill="#FEFEFE"/>
</g>
<g style="mix-blend-mode:multiply" opacity="0.28">
<path d="M103.53 10.23C85.2897 3.73219 65.2153 4.74644 47.7228 13.0496C30.2304 21.3528 16.7528 36.2647 10.255 54.505C3.75716 72.7453 4.7714 92.8197 13.0746 110.312C21.3777 127.805 36.2897 141.282 54.53 147.78C55.92 148.27 57.36 148.73 58.83 149.16C77.0813 154.479 96.6875 152.468 113.479 143.555C130.271 134.643 142.924 119.531 148.746 101.434C154.569 83.3372 153.102 63.6827 144.658 46.6504C136.214 29.6182 121.459 16.5518 103.53 10.23V10.23Z" fill="#FEFEFE"/>
</g>
<g style="mix-blend-mode:multiply" opacity="0.28">
<path d="M102.87 12.1C85.127 5.78387 65.6016 6.77481 48.5892 14.8548C31.5769 22.9348 18.4711 37.442 12.1549 55.185C5.83881 72.928 6.82974 92.4533 14.9097 109.466C22.9897 126.478 37.497 139.584 55.2399 145.9C56.5899 146.38 57.9899 146.83 59.4199 147.25C77.204 152.521 96.3447 150.624 112.748 141.963C129.15 133.302 141.513 118.567 147.19 100.908C152.867 83.2494 151.408 64.0702 143.125 47.4734C134.843 30.8766 120.394 18.1801 102.87 12.1V12.1Z" fill="#FEFEFE"/>
</g>
<g style="mix-blend-mode:multiply" opacity="0.28">
<path d="M102.2 14C85.0024 8.03199 66.1433 9.10175 49.7309 16.9762C33.3185 24.8507 20.6829 38.8918 14.5765 56.0407C8.4702 73.1896 9.388 92.0568 17.13 108.532C24.872 125.007 38.8108 137.756 55.91 144C57.22 144.47 58.59 144.91 59.97 145.31C77.2005 150.267 95.684 148.323 111.506 139.889C127.328 131.455 139.245 117.194 144.735 100.125C150.224 83.0566 148.854 64.5217 140.915 48.4459C132.975 32.3701 119.09 20.0159 102.2 14V14Z" fill="#FEFEFE"/>
</g>
<g style="mix-blend-mode:multiply" opacity="0.28">
<path d="M101.53 15.85C84.7815 9.88261 66.3486 10.8129 50.2861 18.4363C34.2236 26.0596 21.8473 39.7516 15.88 56.5C9.91258 73.2484 10.8429 91.6814 18.4663 107.744C26.0896 123.806 39.7815 136.183 56.53 142.15C57.81 142.6 59.14 143.03 60.53 143.42C77.407 148.713 95.6923 147.118 111.398 138.982C127.103 130.846 138.954 116.83 144.366 99.9908C149.778 83.1515 148.312 64.8554 140.287 49.093C132.263 33.3305 118.331 21.3807 101.53 15.85V15.85Z" fill="#FEFEFE"/>
</g>
<g style="mix-blend-mode:multiply" opacity="0.28">
<path d="M100.86 17.73C84.6102 11.9456 66.7281 12.8533 51.1476 20.2535C35.567 27.6537 23.5644 40.9401 17.78 57.19C11.9956 73.4398 12.9034 91.3219 20.3036 106.902C27.7038 122.483 40.9902 134.486 57.24 140.27C58.48 140.71 59.77 141.13 61.08 141.51C69.2075 144.122 77.7699 145.108 86.2783 144.41C94.7867 143.713 103.075 141.347 110.668 137.447C126.005 129.571 137.585 115.924 142.86 99.51C145.472 91.3824 146.458 82.82 145.76 74.3116C145.063 65.8032 142.697 57.5154 138.797 49.9215C134.897 42.3275 129.54 35.5761 123.03 30.0526C116.521 24.5292 108.988 20.3419 100.86 17.73V17.73Z" fill="#FEFEFE"/>
</g>
<g style="mix-blend-mode:multiply" opacity="0.28">
<path d="M100.2 19.61C84.4474 14.002 67.1123 14.8813 52.0081 22.0546C36.9039 29.2279 25.268 42.1074 19.66 57.86C14.052 73.6125 14.9313 90.9476 22.1046 106.052C29.2778 121.156 42.1574 132.792 57.91 138.4C59.11 138.83 60.36 139.23 61.63 139.59C77.5429 144.705 94.836 143.288 109.705 135.653C124.574 128.017 135.8 114.788 140.915 98.875C146.03 82.962 144.613 65.6689 136.978 50.8001C129.342 35.9313 116.113 24.7047 100.2 19.59V19.61Z" fill="#FEFEFE"/>
</g>
<g style="mix-blend-mode:multiply" opacity="0.28">
<path d="M99.5301 21.48C84.4079 16.5617 67.9635 17.7369 53.6944 24.7556C39.4253 31.7743 28.4572 44.0828 23.1229 59.0632C17.7885 74.0437 18.5088 90.5143 25.1304 104.972C31.7521 119.43 43.7527 130.734 58.5801 136.48C59.7401 136.9 60.96 137.29 62.18 137.64C77.3691 141.844 93.5955 140.013 107.465 132.529C121.335 125.044 131.774 112.487 136.598 97.4835C141.422 82.4799 140.258 66.1919 133.35 52.0267C126.441 37.8614 114.323 26.916 99.5301 21.48V21.48Z" fill="#FEFEFE"/>
</g>
<g style="mix-blend-mode:multiply" opacity="0.28">
<path d="M98.86 23.36C84.153 18.3142 68.0496 19.2706 54.0432 26.0216C40.0368 32.7727 29.257 44.7739 24.0422 59.4218C18.8274 74.0697 19.5983 90.1831 26.1876 104.266C32.7768 118.35 44.6531 129.267 59.24 134.65C60.37 135.05 61.54 135.42 62.73 135.77C77.4957 140.063 93.3536 138.429 106.933 131.213C120.512 123.998 130.742 111.77 135.447 97.1308C140.152 82.4912 138.962 66.5937 132.13 52.8177C125.298 39.0417 113.362 28.4736 98.86 23.36V23.36Z" fill="#FEFEFE"/>
</g>
<g style="mix-blend-mode:multiply" opacity="0.28">
<path d="M98.19 25.23C91.1288 22.7165 83.6417 21.6184 76.1561 21.9984C68.6706 22.3784 61.3332 24.2291 54.5629 27.4448C40.8896 33.9392 30.3562 45.5993 25.28 59.86C20.2037 74.1207 21.0004 89.8138 27.4948 103.487C33.9892 117.16 45.6493 127.694 59.91 132.77C61 133.16 62.13 133.52 63.29 133.85C77.2408 137.853 92.1929 136.39 105.103 129.757C118.013 123.125 127.91 111.822 132.78 98.15C136.997 86.4474 137.232 73.6801 133.45 61.83C130.815 53.4121 126.257 45.7229 120.137 39.3705C114.018 33.0182 106.504 28.177 98.19 25.23V25.23Z" fill="#FEFEFE"/>
</g>
<g style="mix-blend-mode:multiply" opacity="0.28">
<path d="M125.56 15.17C124.227 14.17 122.823 13.2167 121.35 12.31C111.964 6.31719 101.418 2.37638 90.4017 0.746033C79.3859 -0.884311 68.1499 -0.167347 57.4307 2.8499C46.7114 5.86714 36.7511 11.1165 28.2032 18.2536C19.6552 25.3908 12.7128 34.2544 7.8311 44.2632C2.94945 54.272 0.238936 65.1997 -0.122647 76.3296C-0.48423 87.4595 1.51129 98.5402 5.73302 108.845C9.95474 119.149 16.3073 128.445 24.374 136.122C32.4406 143.799 42.0392 149.683 52.54 153.39V153.39C54.08 153.94 55.64 154.39 57.19 154.89C56.19 137.63 57.07 95.53 77.76 63.75C90.2964 44.5328 106.548 28.0158 125.56 15.17V15.17Z" fill="#FEFEFE"/>
</g>
<g style="mix-blend-mode:multiply" opacity="0.28">
<path d="M121.35 12.31C119.98 11.44 118.59 10.61 117.16 9.83996C113.438 7.77617 109.551 6.02353 105.54 4.59996C86.2108 -2.05706 65.0536 -0.961798 46.5151 7.65554C27.9766 16.2729 13.5004 31.7412 6.12922 50.8095C-1.24199 69.8778 -0.934264 91.0612 6.98772 109.907C14.9097 128.753 29.829 143.795 48.61 151.87C49.89 152.41 51.21 152.87 52.54 153.39C51.54 136.83 51.95 93.67 73.05 61.24C85.6929 41.8456 102.121 25.2031 121.35 12.31V12.31Z" fill="#FEFEFE"/>
</g>
<g style="mix-blend-mode:multiply" opacity="0.28">
<path d="M117.16 9.83997C115.51 8.90997 113.8 8.04997 112.05 7.24997C109.937 6.2833 107.767 5.39997 105.54 4.59997C86.5296 -2.10139 65.6766 -1.28256 47.2502 6.88881C28.8238 15.0602 14.2178 29.966 6.42252 48.5546C-1.37279 67.1432 -1.76777 88.0085 5.31845 106.879C12.4047 125.749 26.436 141.197 44.54 150.06C45.86 150.69 47.2 151.3 48.54 151.87C47.42 136.18 47.4 91.8 68.98 58.65C81.6005 39.3106 97.9862 22.7106 117.16 9.83997V9.83997Z" fill="#FEFEFE"/>
</g>
<g style="mix-blend-mode:multiply" opacity="0.28">
<path d="M112.05 7.24996C110.23 6.41996 108.36 5.63996 106.44 4.93996C106.15 4.81996 105.84 4.70996 105.54 4.59996C87.0394 -1.91006 66.7788 -1.30566 48.6992 6.29558C30.6196 13.8968 16.0138 27.9514 7.72307 45.7253C-0.567703 63.4993 -1.95066 83.7217 3.84322 102.459C9.63709 121.196 22.1935 137.108 39.07 147.1C40.85 148.16 42.69 149.1 44.58 150.1C43.38 135.85 42.65 89.67 64.92 55.45C77.3057 36.4389 93.3217 20.0593 112.05 7.24996V7.24996Z" fill="#FEFEFE"/>
</g>
<g style="mix-blend-mode:multiply" opacity="0.28">
<path d="M106.44 4.93999C106.15 4.81999 105.84 4.70999 105.54 4.59999C103.61 3.90999 101.68 3.30999 99.74 2.77999C81.8431 -2.03865 62.8219 -0.411417 46.0036 7.37702C29.1853 15.1655 15.6408 28.6192 7.73944 45.3848C-0.161877 62.1504 -1.91693 81.1603 2.78129 99.0891C7.47952 117.018 18.3319 132.724 33.44 143.46C35.25 144.75 37.14 145.97 39.08 147.1C37.89 132.27 37.45 86.8 59.44 53C71.7958 34.0468 87.767 17.7154 106.44 4.93999V4.93999Z" fill="#FEFEFE"/>
</g>
<g style="mix-blend-mode:multiply" opacity="0.28">
<path d="M99.73 2.78001C97.2036 2.08724 94.6436 1.52318 92.06 1.09001C74.9756 -1.74485 57.4329 1.11273 42.1313 9.22304C26.8298 17.3334 14.6171 30.247 7.37261 45.977C0.128095 61.707 -1.7469 79.3817 2.03613 96.2815C5.81917 113.181 15.0506 128.37 28.31 139.51C29.96 140.9 31.66 142.21 33.43 143.51C32.3 127.96 32.21 83.39 53.86 50.12C65.9607 31.5349 81.5357 15.4607 99.73 2.78001V2.78001Z" fill="#FEFEFE"/>
</g>
<g style="mix-blend-mode:multiply" opacity="0.28">
<path d="M92.06 1.08996C89.93 0.739959 87.8 0.459959 85.67 0.289959C69.4923 -1.05648 53.2926 2.61357 39.2748 10.8008C25.257 18.988 14.1018 31.2949 7.32669 46.0471C0.551604 60.7993 -1.51434 77.2806 1.40993 93.2486C4.3342 109.217 12.1067 123.896 23.67 135.29C25.15 136.75 26.69 138.15 28.29 139.49C27.19 123.57 27.29 79.49 48.75 46.49C60.2953 28.8406 74.9739 13.4537 92.06 1.08996V1.08996Z" fill="#FEFEFE"/>
</g>
<g style="mix-blend-mode:multiply" opacity="0.28">
<path d="M85.67 0.29C83.48 0.11 81.29 0 79.11 0C63.8341 0.00262737 48.8866 4.43406 36.0776 12.7577C23.2686 21.0813 13.1476 32.94 6.94014 46.8978C0.732683 60.8556 -1.29493 76.3137 1.10285 91.4002C3.50063 106.487 10.221 120.555 20.45 131.9C21.45 133.07 22.58 134.2 23.69 135.3C22.75 117.93 23.69 76.02 44.27 44.36C55.372 27.3505 69.3866 12.432 85.67 0.29V0.29Z" fill="#FEFEFE"/>
</g>
<g style="mix-blend-mode:multiply" opacity="0.28">
<path d="M79.11 -3.48368e-05C76.2169 -0.00436539 73.3257 0.152545 70.45 0.469965C56.4884 2.01609 43.1915 7.25691 31.9294 15.6524C20.6673 24.0479 11.8475 35.2944 6.37857 48.2331C0.909683 61.1718 -1.01041 75.3346 0.816129 89.2624C2.64267 103.19 8.14979 116.379 16.77 127.47C17.9434 128.983 19.17 130.45 20.45 131.87C19.56 114.18 20.67 72.87 41.06 41.49C51.384 25.6682 64.2387 11.6513 79.11 -3.48368e-05V-3.48368e-05Z" fill="#FEFEFE"/>
</g>
<g style="mix-blend-mode:multiply" opacity="0.28">
<path d="M70.4501 0.47998C57.1544 1.95155 44.4502 6.77511 33.5283 14.4985C22.6064 22.2219 13.8246 32.5922 8.00595 44.6372C2.18733 56.6822 -0.477473 70.0074 0.26135 83.3638C1.00017 96.7202 5.11842 109.67 12.23 121C13.6323 123.239 15.1476 125.405 16.7701 127.49C15.9501 109.38 17.32 68.77 37.42 37.89C46.5567 23.8835 57.6833 11.2814 70.4501 0.47998V0.47998Z" fill="#FEFEFE"/>
</g>
<g style="mix-blend-mode:multiply" opacity="0.28">
<path d="M60.13 2.32001C48.8383 5.11801 38.3039 10.3753 29.2794 17.7162C20.2549 25.0571 12.963 34.3005 7.92464 44.7861C2.88631 55.2716 0.225902 66.7404 0.133475 78.3733C0.0410487 90.0061 2.51889 101.516 7.38996 112.08C8.81363 115.152 10.4302 118.132 12.23 121C11.73 101.69 14 63.75 33 34.52C40.6918 22.7171 49.8032 11.9029 60.13 2.32001V2.32001Z" fill="#FEFEFE"/>
</g>
<path style="mix-blend-mode:screen" d="M127.32 17.17C117.39 9.9475 105.913 5.13916 93.8 3.12666C81.6871 1.11416 69.2719 1.95289 57.5397 5.57629C45.8076 9.19969 35.0816 15.508 26.2132 24.0005C17.3447 32.4929 10.5779 42.9357 6.44997 54.5C1.3377 68.7831 0.479709 84.2427 3.98005 99.0038C7.4804 113.765 15.1887 127.193 26.17 137.66C11.216 124.114 2.02467 105.35 0.488312 85.2318C-1.04804 65.1134 5.18752 45.1715 17.9112 29.512C30.6349 13.8525 48.8782 3.66719 68.8852 1.05314C88.8922 -1.56092 109.14 3.59522 125.46 15.46C128.299 17.5331 130.995 19.7948 133.53 22.23C131.548 20.4378 129.475 18.7489 127.32 17.17V17.17Z" fill="url(#paint2_linear)"/>
<path d="M129.8 97.63C133.739 86.5678 133.973 74.5249 130.468 63.3178C126.963 52.1107 119.909 42.3472 110.37 35.5C106.267 32.5577 101.774 30.2016 97.02 28.5C89.6713 25.8967 81.8467 24.9129 74.0823 25.6157C66.3179 26.3186 58.7971 28.6916 52.0353 32.5722C45.2736 36.4527 39.4306 41.7491 34.9067 48.0985C30.3828 54.4479 27.2849 61.7002 25.8252 69.3585C24.3656 77.0168 24.5787 84.9002 26.45 92.4685C28.3213 100.037 31.8065 107.111 36.6669 113.207C41.5272 119.302 47.6479 124.275 54.6094 127.785C61.571 131.294 69.209 133.258 77 133.54C80.1178 133.66 83.2401 133.502 86.33 133.07C96.1265 131.71 105.361 127.686 113.027 121.436C120.693 115.187 126.495 106.952 129.8 97.63V97.63ZM122.8 94.87C120.758 100.627 117.601 105.926 113.51 110.461C109.418 114.997 104.472 118.682 98.9545 121.304C93.4373 123.926 87.457 125.434 81.3562 125.742C75.2553 126.051 69.1535 125.153 63.4 123.1C60.8371 122.189 58.3606 121.051 56 119.7C45.9238 113.931 38.3683 104.604 34.8175 93.5493C31.2667 82.4948 31.9771 70.5122 36.8092 59.9548C41.6413 49.3973 50.246 41.0279 60.9333 36.4901C71.6205 31.9524 83.6182 31.5743 94.57 35.43L95.08 35.62C106.565 39.8628 115.913 48.4642 121.095 59.557C126.278 70.6498 126.876 83.3389 122.76 94.87H122.8Z" fill="url(#paint3_linear)"/>
<path style="mix-blend-mode:multiply" opacity="0.06" d="M97.07 28.4C84.3036 23.7032 70.235 23.9976 57.6763 29.2244C45.1176 34.4511 34.9942 44.2251 29.3297 56.5925C23.6652 68.9599 22.877 83.0095 27.1226 95.9329C31.3681 108.856 40.3347 119.701 52.23 126.3C54.9706 127.866 57.8453 129.184 60.82 130.24C74.2956 135.127 89.1605 134.46 102.145 128.387C115.129 122.313 125.168 111.331 130.055 97.855C134.942 84.3793 134.275 69.5144 128.202 56.5303C122.128 43.5462 111.146 33.5066 97.67 28.62L97.07 28.4Z" fill="url(#paint4_linear)"/>
<g style="mix-blend-mode:multiply" opacity="0.11">
<path d="M96.82 29.09C84.2619 24.6253 70.487 25.0266 58.2101 30.2148C45.9333 35.403 36.0451 45.0018 30.4947 57.1192C24.9442 69.2365 24.1341 82.9935 28.2239 95.6786C32.3138 108.364 41.0069 119.057 52.59 125.65C55.2948 127.197 58.1328 128.499 61.07 129.54C74.3217 134.193 88.8741 133.428 101.565 127.412C114.256 121.396 124.061 110.615 128.848 97.4111C133.635 84.2074 133.018 69.648 127.132 56.8963C121.245 44.1447 110.564 34.2313 97.41 29.31L96.82 29.09Z" fill="#FBFBFB"/>
</g>
<g style="mix-blend-mode:multiply" opacity="0.41">
<path d="M96.57 29.79C84.197 25.4375 70.644 25.8675 58.5719 30.9956C46.4998 36.1236 36.7806 45.5792 31.3228 57.5058C25.8649 69.4324 25.0626 82.9685 29.0733 95.4564C33.0841 107.944 41.6181 118.482 53 125C55.6642 126.525 58.4585 127.81 61.35 128.84C74.3888 133.304 88.6594 132.47 101.089 126.516C113.519 120.562 123.113 109.965 127.806 97.0072C132.5 84.0491 131.917 69.766 126.183 57.2334C120.449 44.7008 110.023 34.9211 97.15 30L96.57 29.79Z" fill="#F5F5F5"/>
</g>
<g style="mix-blend-mode:multiply" opacity="0.41">
<path d="M96.33 30.49C84.1206 26.1498 70.7283 26.5405 58.7927 31.585C46.857 36.6295 37.2438 45.9619 31.8478 57.7428C26.4518 69.5237 25.6644 82.8985 29.6407 95.2312C33.6171 107.564 42.0688 117.96 53.33 124.37C55.9587 125.873 58.7163 127.138 61.57 128.15C74.4626 132.708 88.634 131.986 100.997 126.142C113.36 120.298 122.912 109.805 127.573 96.9496C132.234 84.0938 131.625 69.9171 125.88 57.5081C120.135 45.099 109.718 35.4632 96.9 30.7L96.33 30.49Z" fill="#FBFBFB"/>
</g>
<g style="mix-blend-mode:multiply" opacity="0.41">
<path d="M96.08 31.18C84.0465 26.9158 70.8526 27.3105 59.0955 32.2864C47.3384 37.2623 37.8698 46.459 32.5535 58.0662C27.2371 69.6733 26.4582 82.8501 30.37 95.0027C34.2819 107.155 42.601 117.404 53.69 123.73C56.2808 125.209 58.9982 126.454 61.81 127.45C74.5369 132.02 88.5565 131.358 100.796 125.609C113.036 119.861 122.497 109.494 127.107 96.7812C131.716 84.0685 131.098 70.047 125.387 57.7895C119.676 45.5321 109.338 36.0387 96.64 31.39L96.08 31.18Z" fill="#FBFBFB"/>
</g>
<g style="mix-blend-mode:multiply" opacity="0.41">
<path d="M95.83 31.88C83.9678 27.6564 70.9535 28.0308 59.3537 32.9293C47.7538 37.8279 38.4105 46.8951 33.1661 58.3428C27.9218 69.7904 27.1571 82.7876 31.023 94.7712C34.8889 106.755 43.1046 116.855 54.05 123.08C56.6016 124.543 59.2789 125.774 62.05 126.76C74.5693 131.162 88.3199 130.444 100.313 124.763C112.306 119.082 121.572 108.897 126.097 96.422C130.622 83.9467 130.039 70.1896 124.477 58.1412C118.914 46.0929 108.82 36.7271 96.39 32.08L95.83 31.88Z" fill="#FBFBFB"/>
</g>
<g style="mix-blend-mode:multiply" opacity="0.59">
<path d="M95.58 32.58C83.2073 28.1633 69.5882 28.8323 57.7081 34.4405C45.8279 40.0487 36.656 50.1384 32.2028 62.498C27.7496 74.8576 28.3785 88.4786 33.9517 100.375C39.5248 112.272 49.5874 121.473 61.9338 125.963C74.2802 130.453 87.903 129.864 99.816 124.326C111.729 118.788 120.96 108.752 125.486 96.4193C130.012 84.0862 129.464 70.4617 123.961 58.5324C118.458 46.6031 108.45 37.3423 96.13 32.78L95.58 32.58Z" fill="#FBFBFB"/>
</g>
<g style="mix-blend-mode:multiply" opacity="0.59">
<path d="M95.33 33.27C83.0907 28.8182 69.5857 29.4008 57.7754 34.8901C45.965 40.3794 36.8129 50.3275 32.3254 62.5536C27.8378 74.7798 28.3809 88.2864 33.8356 100.113C39.2903 111.939 49.2116 121.12 61.4245 125.644C73.6375 130.167 87.1457 129.663 98.988 124.243C110.83 118.823 120.04 108.929 124.599 96.7292C129.158 84.5295 128.694 71.0199 123.309 59.1618C117.924 47.3037 108.056 38.0647 95.87 33.47L95.33 33.27Z" fill="#FBFBFB"/>
</g>
<g style="mix-blend-mode:multiply" opacity="0.3">
<path d="M95.09 34C83.755 29.9835 71.3272 30.3549 60.2523 35.041C49.1774 39.7271 40.2574 48.3886 35.2477 59.3209C30.238 70.2532 29.5013 82.6647 33.1828 94.1129C36.8642 105.561 44.6971 115.217 55.14 121.18C57.5839 122.578 60.1473 123.756 62.8 124.7C74.801 129.052 88.0395 128.459 99.603 123.05C111.166 117.642 120.108 107.861 124.46 95.86C128.812 83.8589 128.219 70.6205 122.81 59.057C117.402 47.4935 107.621 38.5522 95.62 34.2L95.09 34Z" fill="#FBFBFB"/>
</g>
<g style="mix-blend-mode:multiply" opacity="0.3">
<path d="M123.57 95.22C127.497 84.1813 127.198 72.0796 122.732 61.248C118.265 50.4164 109.947 41.6219 99.38 36.56C98.08 35.94 96.74 35.36 95.38 34.86L94.86 34.66C83.6958 30.6953 71.4517 31.055 60.5396 35.6684C49.6275 40.2817 40.8386 48.8142 35.9042 59.5849C30.9699 70.3557 30.2479 82.5838 33.8804 93.8604C37.5129 105.137 45.2366 114.645 55.53 120.51C57.9279 121.895 60.4445 123.063 63.05 124C74.8879 128.212 87.9143 127.55 99.2638 122.158C110.613 116.767 119.356 107.088 123.57 95.25V95.22Z" fill="#FBFBFB"/>
</g>
<path opacity="0.48" d="M122.78 94.82C126.887 83.2859 126.284 70.5977 121.101 59.5052C115.918 48.4127 106.573 39.8095 95.09 35.56L94.58 35.37C83.6711 31.4788 71.703 31.797 61.0162 36.2622C50.3294 40.7274 41.6926 49.0186 36.7949 59.5142C31.8972 70.0098 31.0908 81.955 34.5335 93.0136C37.9762 104.072 45.4203 113.449 55.41 119.31C55.6 119.43 55.79 119.53 55.98 119.64C58.3406 120.991 60.8171 122.129 63.38 123.04C69.1331 125.089 75.2335 125.984 81.3327 125.675C87.4319 125.365 93.4104 123.857 98.9265 121.236C104.443 118.616 109.389 114.934 113.481 110.401C117.574 105.869 120.734 100.574 122.78 94.82V94.82Z" fill="url(#paint5_linear)"/>
<g style="mix-blend-mode:screen">
<path style="mix-blend-mode:screen" opacity="0.32" d="M54.5099 127.53C54.0299 127.36 53.56 127.19 53.09 127C52.62 126.81 51.99 126.4 51.45 126.09C52.86 126.77 54.32 127.39 55.81 127.96C55.38 127.82 54.9399 127.69 54.5099 127.53Z" fill="url(#paint6_linear)"/>
</g>
<g style="mix-blend-mode:multiply" opacity="0.28">
<path d="M110.37 35.5C108.324 34.0115 106.171 32.6746 103.93 31.5C103.4 31.22 102.85 30.95 102.3 30.69C100.574 29.8739 98.8047 29.1528 97 28.53C89.8007 25.9638 82.1393 24.9524 74.5206 25.5626C66.902 26.1728 59.4992 28.3906 52.8001 32.07C46.101 35.7493 40.2577 40.8066 35.6552 46.9085C31.0528 53.0104 27.7958 60.0185 26.0989 67.4707C24.402 74.923 24.3037 82.6502 25.8104 90.1433C27.3171 97.6363 30.3948 104.725 34.8404 110.942C39.286 117.159 44.9988 122.363 51.6021 126.212C58.2054 130.061 65.5494 132.466 73.15 133.27C74.42 133.41 75.69 133.5 76.95 133.54C76.4959 132.278 76.3129 130.935 76.4128 129.598C76.5128 128.261 76.8934 126.96 77.53 125.78C76.14 125.78 74.73 125.63 73.33 125.46C69.9201 125.043 66.5665 124.252 63.33 123.1C60.7671 122.189 58.2906 121.051 55.93 119.7C45.8128 113.946 38.2195 104.609 34.6481 93.5315C31.0767 82.4539 31.7866 70.4401 36.6378 59.8602C41.4889 49.2804 50.129 40.9028 60.8534 36.3802C71.5779 31.8577 83.6079 31.5186 94.57 35.43L95.08 35.62C96.7352 36.2311 98.3545 36.9356 99.93 37.73C101.986 38.7673 103.962 39.9573 105.84 41.29C106.095 40.0401 106.637 38.8665 107.424 37.8618C108.21 36.857 109.218 36.0485 110.37 35.5V35.5Z" fill="#FBFBFB"/>
</g>
<path style="mix-blend-mode:soft-light" d="M73.15 133.27C72.771 131.196 72.7372 129.075 73.05 126.99C73.13 126.45 73.23 125.93 73.33 125.46C71.1343 125.192 68.9616 124.761 66.83 124.17C65.66 123.87 64.51 123.51 63.36 123.1C60.7971 122.189 58.3206 121.051 55.96 119.7C45.9983 114.02 38.4847 104.862 34.861 93.9823C31.2373 83.1027 31.7587 71.2681 36.3251 60.7493C40.8916 50.2306 49.1815 41.7685 59.6042 36.9868C70.0269 32.2051 81.8483 31.4406 92.8 34.84C93.39 35.03 93.98 35.22 94.57 35.43L95.08 35.62C96.7353 36.2312 98.3545 36.9356 99.93 37.73C100.007 36.4409 100.415 35.1936 101.116 34.109C101.817 33.0244 102.786 32.1394 103.93 31.54C103.4 31.26 102.85 30.99 102.3 30.73C100.575 29.9003 98.8056 29.1659 97 28.53L96 28.16C82.5009 23.7413 67.8054 24.8098 55.0873 31.1346C42.3693 37.4595 32.6496 48.5332 28.0273 61.9641C23.4051 75.3949 24.2513 90.1049 30.3832 102.917C36.5151 115.729 47.4406 125.615 60.8 130.44C62.45 131.02 64.1 131.53 65.8 131.94C68.2151 132.559 70.6714 133.003 73.15 133.27V133.27Z" fill="url(#paint7_linear)"/>
<g style="mix-blend-mode:multiply" opacity="0.1">
<path d="M66.8301 124.17C65.6601 123.87 64.5101 123.51 63.3601 123.1L62.6701 122.84C60.3659 121.975 58.1353 120.924 56.0001 119.7C46.3283 114.179 38.9574 105.373 35.226 94.8802C31.4946 84.3875 31.6503 72.9044 35.6647 62.5167C39.6792 52.129 47.2861 43.5256 57.104 38.2691C66.9218 33.0127 78.2993 31.4518 89.1701 33.87C90.3801 34.14 91.5901 34.46 92.8001 34.87C92.0601 33.27 91.0001 29.69 96.0001 28.16C94.0657 27.5141 92.0957 26.9799 90.1001 26.56C76.6805 23.7371 62.6896 26.1167 50.9579 33.2174C39.2262 40.3181 30.6294 51.6098 26.9067 64.8081C23.1841 78.0064 24.6134 92.126 30.9057 104.31C37.1979 116.495 47.8833 125.835 60.8001 130.44L61.4201 130.65C62.8601 131.15 64.3101 131.58 65.7601 131.94C64.9301 129.62 64.6101 126.58 66.8301 124.17Z" fill="#FBFBFB"/>
</g>
<g style="mix-blend-mode:multiply" opacity="0.12">
<path d="M62.6699 122.84C61.4899 122.4 60.3399 121.92 59.2099 121.39C58.0799 120.86 56.9999 120.3 55.9999 119.7C46.7412 114.405 39.5823 106.09 35.7214 96.147C31.8605 86.2043 31.532 75.2371 34.7908 65.081C38.0496 54.925 44.698 46.1966 53.6232 40.3566C62.5484 34.5166 73.2088 31.9195 83.8199 33C85.6195 33.1893 87.406 33.4865 89.1699 33.89C88.7298 33.3598 88.4024 32.7454 88.2077 32.0845C88.0129 31.4235 87.955 30.7298 88.0373 30.0456C88.1197 29.3615 88.3406 28.7014 88.6866 28.1055C89.0327 27.5096 89.4966 26.9905 90.0499 26.58C88.3899 26.2333 86.7233 25.9633 85.0499 25.77C72.2438 24.3046 59.3353 27.4607 48.6499 34.6695C37.9645 41.8784 30.2047 52.6661 26.7684 65.0894C23.3321 77.5126 24.4452 90.7546 29.9072 102.43C35.3692 114.105 44.8211 123.446 56.5599 128.77C57.9099 129.38 59.3099 129.94 60.7299 130.45L61.3499 130.66C61.1317 128.924 61.2231 127.164 61.6199 125.46C61.8372 124.539 62.1912 123.656 62.6699 122.84V122.84Z" fill="#FBFBFB"/>
</g>
<g style="mix-blend-mode:multiply" opacity="0.12">
<path d="M59.21 121.39C58.1 120.87 57.01 120.3 55.96 119.7L55.11 119.2C46.0036 113.77 39.0256 105.392 35.3323 95.4541C31.639 85.5159 31.4519 74.6141 34.8022 64.5551C38.1525 54.4961 44.839 45.8836 53.7538 40.1447C62.6686 34.4059 73.2765 31.8851 83.82 33C83.2472 31.8153 83.0597 30.4809 83.2839 29.1842C83.5081 27.8875 84.1327 26.6936 85.07 25.77C82.817 25.5011 80.5488 25.3808 78.28 25.41C66.4427 25.5575 54.9805 29.5837 45.6511 36.8712C36.3217 44.1587 29.6402 54.3051 26.6311 65.7545C23.622 77.204 24.4515 89.3244 28.9924 100.257C33.5332 111.19 41.5348 120.331 51.77 126.28C53.3302 127.188 54.9356 128.015 56.58 128.76C56.26 126.48 56.48 123.45 59.21 121.39Z" fill="#FBFBFB"/>
</g>
<g style="mix-blend-mode:multiply" opacity="0.12">
<path d="M35.16 63.64C38.3256 54.7662 44.1083 47.0611 51.7444 41.5425C59.3806 36.0238 68.511 32.9511 77.93 32.73C76.59 31.43 74.09 28.23 78.28 25.39C76.1192 25.4075 73.9616 25.5611 71.82 25.85C60.9374 27.293 50.7511 32.0119 42.6135 39.3803C34.4759 46.7487 28.772 56.418 26.2591 67.1044C23.7462 77.7908 24.5432 88.9887 28.5442 99.2115C32.5452 109.434 39.5609 118.198 48.66 124.34C49.66 125.01 50.71 125.66 51.77 126.28C51.83 124.12 52.44 121.06 55.11 119.2C53.93 118.5 52.8 117.75 51.7 116.96C43.5506 111.054 37.5343 102.666 34.5524 93.0539C31.5706 83.4413 31.7837 73.1213 35.16 63.64V63.64Z" fill="#FBFBFB"/>
</g>
<g style="mix-blend-mode:multiply" opacity="0.12">
<path d="M35.16 63.64C37.7709 56.3121 42.1812 49.7576 47.9857 44.5786C53.7903 39.3996 60.8031 35.762 68.38 34C69.82 33.66 71.28 33.39 72.76 33.19C71.48 32.19 68.46 29.38 71.82 25.9C69.8403 26.1517 67.8769 26.519 65.94 27C56.1758 29.4138 47.2778 34.5019 40.2452 41.6929C33.2127 48.8838 28.324 57.8929 26.1283 67.7085C23.9325 77.524 24.5165 87.7574 27.8148 97.2594C31.1131 106.761 36.995 115.156 44.8 121.5C46.0333 122.513 47.32 123.47 48.66 124.37C48.7626 121.634 49.8246 119.021 51.66 116.99C50.66 116.29 49.75 115.55 48.85 114.78C41.6421 108.657 36.4709 100.482 34.0251 91.3461C31.5794 82.21 31.9753 72.5455 35.16 63.64V63.64Z" fill="#FBFBFB"/>
</g>
<path d="M45.1 123.82L44.55 123.59V123.81L45.1 123.82Z" fill="#FEFEFE"/>
<g style="mix-blend-mode:multiply" opacity="0.12">
<path d="M35.1599 63.64C37.4252 57.2406 41.0674 51.4164 45.8294 46.5784C50.5915 41.7403 56.3573 38.0064 62.7199 35.64C64.5716 34.9792 66.4618 34.4315 68.3799 34C68.3799 34 63.3099 32.37 65.9399 27C64.2533 27.42 62.5866 27.92 60.9399 28.5C52.297 31.546 44.5694 36.7376 38.4821 43.5878C32.3949 50.4379 28.1475 58.7221 26.1383 67.6632C24.1292 76.6042 24.4243 85.9091 26.9958 94.7049C29.5673 103.501 34.331 111.499 40.8399 117.95C42.111 119.202 43.4462 120.387 44.8399 121.5C45.3805 118.853 46.8268 116.476 48.9299 114.78C47.6854 113.734 46.5034 112.615 45.3899 111.43C39.4153 105.2 35.2936 97.4289 33.4868 88.9881C31.6799 80.5473 32.2593 71.7701 35.1599 63.64Z" fill="#FBFBFB"/>
</g>
<g style="mix-blend-mode:multiply" opacity="0.28">
<path d="M35.16 63.64C37.4373 57.2473 41.0838 51.4293 45.8442 46.5929C50.6046 41.7565 56.3642 38.0183 62.72 35.64C62.72 35.64 55.84 32.64 60.94 28.45C57.9912 29.4896 55.1373 30.781 52.41 32.31C45.643 36.1074 39.7723 41.3163 35.1964 47.5831C30.6205 53.8499 27.4465 61.0278 25.8899 68.6297C24.3333 76.2316 24.4305 84.0794 26.175 91.6404C27.9194 99.2014 31.2702 106.298 36 112.45C37.4757 114.382 39.0828 116.209 40.81 117.92C40.8046 116.502 41.2341 115.117 42.0406 113.951C42.847 112.786 43.9916 111.895 45.32 111.4C44.1141 110.133 42.9822 108.797 41.93 107.4C37.25 101.245 34.1798 94.0195 32.9976 86.3782C31.8155 78.737 32.5587 70.9215 35.16 63.64V63.64Z" fill="#FEFEFE"/>
</g>
<g style="mix-blend-mode:multiply" opacity="0.28">
<path d="M35.21 63.49C39.1122 52.4678 47.0393 43.3296 57.4 37.91C55.8 36.96 52.7 34.8 52.47 32.18C45.706 35.9779 39.8384 41.1868 35.2655 47.453C30.6927 53.7193 27.5217 60.8961 25.9679 68.4962C24.4141 76.0963 24.5139 83.9418 26.2604 91.5C28.0069 99.0582 31.3593 106.152 36.09 112.3C36.4269 110.949 37.1814 109.738 38.246 108.841C39.3107 107.943 40.6313 107.404 42.02 107.3C37.3233 101.144 34.24 93.9113 33.0507 86.2599C31.8613 78.6086 32.6036 70.7814 35.21 63.49V63.49Z" fill="#FEFEFE"/>
</g>
<g style="mix-blend-mode:multiply">
<path d="M39.94 66C43.52 51.68 52.45 38.66 60.64 29.11C52.6054 31.7812 45.3495 36.3845 39.5099 42.5156C33.6703 48.6467 29.4256 56.118 27.1486 64.2731C24.8716 72.4283 24.632 81.0178 26.4508 89.2872C28.2697 97.5566 32.0913 105.253 37.58 111.7C37.45 110.7 37.34 109.56 37.23 108.41C36.19 97.48 36 81.9 39.94 66Z" fill="#FEFEFE"/>
</g>
<path style="mix-blend-mode:screen" opacity="0.49" d="M37.62 139.1C39.69 140.41 41.54 137.25 39.67 135.67C30.29 127.76 16.48 109.28 14 90.82C10.22 62.74 27.87 34.27 46.3 23.26C64.73 12.25 28.36 17.35 13.76 42.83C-0.839956 68.31 1.60004 92.07 11.07 109.53C19.71 125.47 27.21 132.48 37.62 139.1Z" fill="url(#paint8_linear)"/>
<g style="mix-blend-mode:multiply">
<path d="M39.66 64.28C31.11 88.28 44.81 115.16 70.27 124.28C67.6423 123.784 65.0576 123.082 62.54 122.18C37.03 113.09 23.3 86.18 31.86 62.18C38.73 42.87 57.86 31.25 78.34 32.1C78.7 40.8 78.08 25.81 78.44 34.5C61 36.43 45.66 47.43 39.66 64.28Z" fill="#FEFEFE"/>
</g>
<path style="mix-blend-mode:screen" opacity="0.47" d="M61.29 129.8C55.5723 127.764 50.2453 124.764 45.54 120.93C47.8933 122.189 50.3366 123.272 52.85 124.17C80.56 134.05 113.56 121.17 123.44 93.38C131.21 71.54 121.35 46.46 104.35 32.62C116.186 38.9795 125.183 49.5743 129.54 62.2838C133.898 74.9932 133.295 88.8797 127.852 101.164C122.409 113.448 112.528 123.223 100.186 128.533C87.8438 133.842 73.9517 134.295 61.29 129.8V129.8Z" fill="url(#paint9_linear)"/>
<path style="mix-blend-mode:screen" d="M100.77 121.42C107.684 116.476 113.704 110.389 118.57 103.42C126.28 92.19 124.66 79.71 127.36 78.73C130.06 77.75 132.17 88.06 127.68 98.45C123.19 108.84 119.9 112.66 113.3 117.82C106.7 122.98 100.05 122.65 100.77 121.42Z" fill="url(#paint10_linear)"/>
<g style="mix-blend-mode:multiply" opacity="0.49">
<path d="M122.78 94.82C126.887 83.2859 126.284 70.5977 121.101 59.5052C115.918 48.4127 106.573 39.8095 95.09 35.56L94.58 35.37C88.676 33.2585 82.4048 32.3675 76.1463 32.7508C69.8878 33.1341 63.7722 34.7838 58.17 37.6C56.84 38.26 55.53 38.99 54.27 39.78C62.162 44.8224 69.0907 51.2329 74.73 58.71C88.57 77.29 92 109.93 92.84 123.62C93.84 123.3 94.84 122.95 95.84 122.57C102.062 120.155 107.691 116.426 112.34 111.636C116.989 106.847 120.55 101.111 122.78 94.82V94.82Z" fill="#FEFEFE"/>
</g>
<g style="mix-blend-mode:multiply" opacity="0.49">
<path d="M122.78 94.82C126.887 83.2858 126.284 70.5977 121.101 59.5052C115.918 48.4127 106.573 39.8095 95.09 35.56L94.58 35.37C83.711 31.4828 71.7823 31.793 61.13 36.24C60.13 36.65 59.13 37.11 58.13 37.6C66.62 43.49 78.44 53.28 84.86 65.6C96.62 88.2 96.1 115.85 95.78 122.6C97.12 122.08 98.44 121.49 99.78 120.85C110.531 115.483 118.777 106.15 122.78 94.82V94.82Z" fill="#FEFEFE"/>
</g>
<g style="mix-blend-mode:multiply" opacity="0.49">
<path d="M122.78 94.82C126.887 83.2859 126.284 70.5977 121.101 59.5052C115.918 48.4127 106.573 39.8095 95.09 35.56L94.58 35.37C84.9701 31.9324 74.4935 31.7672 64.78 34.9C63.55 35.29 62.33 35.74 61.13 36.24C69.66 42 82.14 52.1 88.8 64.9C100.03 86.47 100.07 112.64 99.8 120.82C101.19 120.12 102.56 119.35 103.88 118.52C112.661 112.965 119.319 104.617 122.78 94.82Z" fill="#FEFEFE"/>
</g>
<g style="mix-blend-mode:multiply" opacity="0.49">
<path d="M122.78 94.82C126.888 83.2858 126.284 70.5977 121.101 59.5052C115.918 48.4127 106.573 39.8095 95.09 35.56L94.58 35.37C86.3748 32.4378 77.5096 31.8764 69 33.75C67.58 34.07 66.18 34.46 64.8 34.9C73.33 40.66 86.1 50.84 92.86 63.83C103.57 84.41 104.1 109.18 103.86 118.52C105.362 117.566 106.811 116.532 108.2 115.42C114.869 110.031 119.915 102.901 122.78 94.82V94.82Z" fill="#FEFEFE"/>
</g>
<g style="mix-blend-mode:multiply" opacity="0.49">
<path d="M122.78 94.82C126.887 83.2858 126.284 70.5977 121.101 59.5052C115.918 48.4127 106.573 39.8095 95.09 35.56L94.58 35.37C86.3728 32.4474 77.5103 31.8862 69 33.75C77.54 39.5 90.38 49.75 97.17 62.75C107.17 81.99 108.3 104.89 108.17 115.42C109.414 114.411 110.605 113.34 111.74 112.21C116.679 107.316 120.452 101.372 122.78 94.82V94.82Z" fill="#FEFEFE"/>
</g>
<g style="mix-blend-mode:multiply" opacity="0.49">
<path d="M122.78 94.82C126.888 83.2858 126.284 70.5977 121.101 59.5052C115.918 48.4127 106.573 39.8095 95.09 35.56L94.58 35.37C88.6462 33.2445 82.3401 32.3563 76.05 32.76C84.3 38.76 94.81 47.96 100.72 59.32C110.81 78.7 111.87 101.79 111.72 112.21C112.72 111.21 113.72 110.11 114.66 108.99C118.185 104.785 120.934 99.987 122.78 94.82Z" fill="#FEFEFE"/>
</g>
<g style="mix-blend-mode:multiply" opacity="0.49">
<path d="M122.78 94.82C126.887 83.2858 126.284 70.5976 121.101 59.5052C115.918 48.4127 106.573 39.8095 95.09 35.56L94.58 35.37C93.37 34.94 92.15 34.56 90.93 34.23C87.6848 33.3653 84.3553 32.8557 81 32.71C88.88 38.71 98.18 47.3 103.62 57.71C113.2 76.12 114.62 97.9 114.62 108.95C116.269 106.977 117.751 104.87 119.05 102.65C120.532 100.16 121.78 97.5391 122.78 94.82Z" fill="#FEFEFE"/>
</g>
<g style="mix-blend-mode:multiply" opacity="0.49">
<path d="M122.78 94.82C126.678 83.869 126.337 71.8558 121.826 61.143C117.314 50.4303 108.958 41.7931 98.3999 36.93C97.3299 36.44 96.2299 35.93 95.0999 35.56L94.5899 35.37C93.3799 34.94 92.1599 34.56 90.9399 34.23C97.3499 39.76 103.94 46.78 108.15 54.9C116.81 71.55 118.82 90.95 119.15 102.69C120.404 100.529 121.484 98.2721 122.38 95.94C122.51 95.57 122.65 95.19 122.78 94.82Z" fill="#FEFEFE"/>
</g>
<g style="mix-blend-mode:multiply" opacity="0.49">
<path d="M122.78 94.82C126.678 83.869 126.338 71.8558 121.826 61.1431C117.314 50.4303 108.958 41.7931 98.4 36.93C103.706 41.8728 108.183 47.6363 111.66 54C119 68.11 121.56 84.21 122.36 95.93C122.51 95.57 122.65 95.19 122.78 94.82Z" fill="#FEFEFE"/>
</g>
<g style="mix-blend-mode:multiply" opacity="0.49">
<path d="M152.46 105.19C159.224 86.184 158.446 65.3086 150.288 46.8583C142.13 28.408 127.211 13.7859 108.6 5.99997C107.31 5.45997 106 4.94997 104.67 4.47997C103.99 4.23997 103.3 3.99997 102.61 3.77997C101.98 6.37997 101.45 9.17997 101 12.2C91.12 79.44 61.18 133 49.36 152.09C50.16 152.41 50.97 152.71 51.79 153.01C52.99 153.43 54.19 153.83 55.39 154.19C74.7667 160.058 95.6588 158.242 113.733 149.119C131.806 139.995 145.674 124.265 152.46 105.19Z" fill="#FEFEFE"/>
</g>
<g style="mix-blend-mode:multiply" opacity="0.49">
<path d="M152.46 105.19C158.906 87.0707 158.512 67.2209 151.353 49.3715C144.193 31.5222 130.761 16.9023 113.58 8.25998C111.96 7.44998 110.29 6.67998 108.58 5.97998C107.96 8.55331 107.427 11.3333 106.98 14.32C97.13 81.53 67.24 135.06 55.39 154.19C57.26 154.75 59.14 155.25 61.02 155.67C79.7966 159.872 99.4619 157.058 116.307 147.759C133.151 138.46 146.011 123.318 152.46 105.19V105.19Z" fill="#FEFEFE"/>
</g>
<g style="mix-blend-mode:multiply" opacity="0.49">
<path d="M152.46 105.19C158.573 87.9876 158.532 69.1975 152.343 52.0222C146.154 34.8468 134.201 20.3491 118.52 11C116.92 10.04 115.273 9.13999 113.58 8.29999C112.92 11 112.35 13.92 111.88 17.08C102.21 82.86 73.34 135.56 61 155.67C62.9333 156.11 64.86 156.47 66.78 156.75C84.8213 159.394 103.221 155.701 118.845 146.299C134.468 136.898 146.348 122.369 152.46 105.19Z" fill="#FEFEFE"/>
</g>
<g style="mix-blend-mode:multiply" opacity="0.49">
<path d="M152.46 105.19C158.156 89.1884 158.535 71.776 153.543 55.5413C148.551 39.3066 138.453 25.1163 124.75 15.08C122.75 13.62 120.673 12.2466 118.52 10.96C117.9 13.54 117.37 16.32 116.92 19.32C107.44 83.86 79.49 135.8 66.8 156.75C69.28 157.12 71.8 157.36 74.23 157.49C91.16 158.344 107.914 153.717 122.006 144.295C136.099 134.874 146.778 121.161 152.46 105.19Z" fill="#FEFEFE"/>
</g>
<g style="mix-blend-mode:multiply" opacity="0.49">
<path d="M152.46 105.19C157.755 90.3217 158.468 74.2067 154.507 58.9287C150.546 43.6507 142.093 29.9124 130.24 19.49C128.48 17.95 126.65 16.49 124.75 15.08C124.33 17.02 123.97 19.08 123.65 21.23C114.33 84.6 87.22 135.81 74.23 157.49C91.1605 158.347 107.916 153.721 122.009 144.3C136.102 134.878 146.781 121.163 152.46 105.19V105.19Z" fill="#FEFEFE"/>
</g>
<g style="mix-blend-mode:multiply" opacity="0.49">
<path d="M152.46 105.19C157.755 90.3216 158.468 74.2066 154.507 58.9287C150.546 43.6507 142.092 29.9123 130.24 19.49C129.84 21.33 129.5 23.29 129.24 25.34C120.43 85 95.89 133.89 82.2 157.49C97.7703 156.697 112.756 151.305 125.262 141.996C137.768 132.687 147.233 119.878 152.46 105.19V105.19Z" fill="#FEFEFE"/>
</g>
<path style="mix-blend-mode:screen" opacity="0.21" d="M122.28 94.63C126.372 83.1407 125.734 70.4966 120.506 59.4778C115.277 48.4589 105.887 39.9673 94.4 35.87C94 35.72 93.6 35.58 93.2 35.46C92.13 35.1 91.05 34.79 89.98 34.52C78.9399 31.7449 67.2629 33.162 57.2069 38.4972C47.151 43.8325 39.4306 52.7068 35.5384 63.4044C31.6462 74.1019 31.8589 85.8626 36.1352 96.4125C40.4116 106.962 48.4478 115.552 58.69 120.52C59.81 121.07 60.95 121.58 62.13 122.04C62.6 122.23 63.07 122.4 63.55 122.58C75.0394 126.661 87.6792 126.014 98.6917 120.781C109.704 115.547 118.188 106.156 122.28 94.67V94.63Z" fill="url(#paint11_linear)"/>
<path style="mix-blend-mode:multiply" opacity="0.06" d="M95.89 35.88C84.722 33.149 72.939 34.6365 62.8 40.0572C52.6611 45.4779 44.8798 54.4503 40.9481 65.2542C37.0164 76.0581 37.2109 87.933 41.4944 98.6023C45.7779 109.272 53.8489 117.984 64.16 123.07L64.72 123.33C64.32 123.2 63.91 123.08 63.51 122.94L62.07 122.4C60.88 121.93 59.71 121.4 58.59 120.86C48.271 115.78 40.1914 107.068 35.9015 96.396C31.6116 85.7242 31.4136 73.8441 35.3454 63.0352C39.2773 52.2264 47.062 43.2501 57.206 37.8288C67.35 32.4074 79.1386 30.9229 90.31 33.66C91.41 33.93 92.5 34.25 93.59 34.66L94.81 35.07C96.29 35.5966 97.73 36.1933 99.13 36.86C98.05 36.4733 96.97 36.1466 95.89 35.88Z" fill="url(#paint12_linear)"/>
<path style="mix-blend-mode:multiply" opacity="0.3" d="M91.23 34.51C80.0572 31.7673 68.265 33.248 58.1172 38.6679C47.9694 44.0878 40.181 53.0649 36.2471 63.8759C32.3132 74.6869 32.5111 86.57 36.8027 97.2441C41.0944 107.918 49.1773 116.631 59.5 121.71L60.06 121.96C59.66 121.83 59.25 121.71 58.85 121.57L57.77 121.16C58.16 121.3 58.56 121.42 58.96 121.55L58.4 121.29C48.0889 116.204 40.0179 107.492 35.7344 96.8223C31.4509 86.153 31.2564 74.2781 35.1881 63.4742C39.1198 52.6703 46.9011 43.6979 57.04 38.2772C67.179 32.8565 78.962 31.369 90.13 34.1C91.21 34.36 92.29 34.68 93.37 35.03C92.24 34.49 91.08 34.03 89.89 33.56L90.15 33.65C91.63 34.1833 93.07 34.78 94.47 35.44C93.39 35.0933 92.31 34.7833 91.23 34.51Z" fill="url(#paint13_linear)"/>
<path style="mix-blend-mode:screen" opacity="0.21" d="M121.54 94.18C125.446 83.2158 124.839 71.1491 119.851 60.6329C114.862 50.1166 105.902 42.0117 94.94 38.1C94.56 37.96 94.17 37.83 93.79 37.71C92.79 37.37 91.74 37.08 90.71 36.82C80.213 34.2722 69.1451 35.6839 59.6237 40.785C50.1023 45.8862 42.7959 54.3186 39.102 64.4692C35.4082 74.6197 35.5864 85.7758 39.6025 95.8033C43.6185 105.831 51.1906 114.026 60.87 118.82C61.93 119.34 63.02 119.82 64.14 120.26C64.59 120.44 65.04 120.61 65.5 120.77C70.9255 122.704 76.6789 123.55 82.4315 123.26C88.1841 122.971 93.8233 121.551 99.0271 119.081C104.231 116.612 108.897 113.142 112.76 108.87C116.623 104.597 119.606 99.6056 121.54 94.18V94.18Z" fill="url(#paint14_linear)"/>
<g style="mix-blend-mode:multiply">
<path style="mix-blend-mode:multiply" opacity="0.06" d="M64.58 123.72H64.49L64.38 123.65L64.58 123.72Z" fill="url(#paint15_linear)"/>
<path style="mix-blend-mode:multiply" opacity="0.06" d="M93.49 35.76H93.33C82.4419 33.1262 70.9697 34.4967 61.0083 39.621C51.047 44.7454 43.2611 53.2818 39.0725 63.6714C34.8839 74.061 34.5721 85.6105 38.194 96.211C41.8158 106.811 49.1297 115.756 58.8 121.41L58.45 121.24C48.139 116.154 40.068 107.442 35.7845 96.7723C31.5009 86.103 31.3064 74.2281 35.2381 63.4242C39.1698 52.6203 46.9511 43.6479 57.0901 38.2272C67.229 32.8065 79.012 31.319 90.18 34.05C91.27 34.32 92.36 34.63 93.45 34.99L94.67 35.4C96.15 35.9333 97.59 36.53 98.99 37.19C97.91 36.8433 96.83 36.5333 95.75 36.26C95 36.08 94.24 35.91 93.49 35.76Z" fill="url(#paint16_linear)"/>
</g>
<path style="mix-blend-mode:multiply" opacity="0.09" d="M57.67 117.94C58.8 118.5 59.97 119.02 61.17 119.48C61.64 119.67 62.17 119.85 62.62 120.03C70.2994 122.762 78.5591 123.442 86.582 122.003C94.605 120.563 102.113 117.054 108.364 111.823C114.614 106.591 119.391 99.8188 122.221 92.1749C125.051 84.531 125.837 76.2806 124.5 68.24C126.392 76.4232 126.048 84.9648 123.505 92.9694C120.961 100.974 116.31 108.147 110.041 113.736C103.772 119.326 96.114 123.126 87.8711 124.738C79.6281 126.35 71.1032 125.715 63.19 122.9C62.7 122.72 62.19 122.54 61.75 122.35C60.55 121.88 59.38 121.35 58.25 120.81C51.561 117.519 45.7542 112.679 41.3121 106.693C36.87 100.706 33.9209 93.7456 32.71 86.39C34.2642 93.1733 37.311 99.5248 41.6286 104.982C45.9463 110.44 51.4263 114.867 57.67 117.94V117.94Z" fill="url(#paint17_linear)"/>
<g style="mix-blend-mode:multiply" opacity="0.27">
<path d="M60.5499 128.9C70.1735 132.324 80.5695 132.954 90.5361 130.718C100.503 128.482 109.633 123.471 116.872 116.265C124.111 109.058 129.163 99.9506 131.443 89.994C133.724 80.0375 133.14 69.6388 129.76 60C132.921 66.6386 134.695 73.8517 134.975 81.199C135.255 88.5463 134.035 95.8736 131.389 102.734C128.743 109.594 124.727 115.842 119.585 121.098C114.444 126.354 108.285 130.507 101.485 133.304C94.6847 136.1 87.3861 137.482 80.0344 137.363C72.6828 137.245 65.4323 135.63 58.7257 132.616C52.0191 129.602 45.9971 125.253 41.0272 119.835C36.0574 114.416 32.244 108.042 29.8199 101.1C32.8594 107.529 37.1387 113.294 42.4122 118.065C47.6857 122.836 53.8496 126.518 60.5499 128.9V128.9Z" fill="#FAFAFA"/>
</g>
<g style="mix-blend-mode:screen" opacity="0.23">
<path d="M25.35 70C27.1328 59.9422 31.7277 50.5949 38.6026 43.0403C45.4776 35.4856 54.3515 30.0324 64.1972 27.3121C74.0429 24.5917 84.4577 24.7153 94.236 27.6686C104.014 30.622 112.756 36.2842 119.45 44C115.244 37.9757 109.854 32.8712 103.611 28.9977C97.3674 25.1242 90.4004 22.5629 83.1347 21.4698C75.869 20.3767 68.4568 20.7748 61.35 22.6398C54.2432 24.5048 47.5906 27.7976 41.7979 32.3176C36.0052 36.8375 31.1937 42.4899 27.6568 48.93C24.1198 55.3701 21.9315 62.4631 21.2253 69.7766C20.519 77.09 21.3097 84.4707 23.5489 91.4686C25.7882 98.4666 29.4292 104.935 34.25 110.48C30.1737 104.651 27.289 98.0746 25.7617 91.1279C24.2344 84.1811 24.0945 77.001 25.35 70V70Z" fill="#FAFAFA"/>
</g>
<path style="mix-blend-mode:screen" opacity="0.35" d="M119.82 94.33C122.708 86.2151 123.124 77.4261 121.016 69.0746C118.909 60.723 114.372 53.184 107.98 47.4108C101.588 41.6375 93.6273 37.8895 85.105 36.6405C76.5826 35.3916 67.8813 36.6978 60.1014 40.3941C52.3214 44.0904 45.8123 50.0107 41.397 57.4063C36.9818 64.8019 34.8587 73.3408 35.2964 81.943C35.734 90.5452 38.7127 98.8245 43.8557 105.734C48.9987 112.643 56.0751 117.872 64.19 120.76C75.0722 124.624 87.0431 124.011 97.4735 119.055C107.904 114.1 115.941 105.207 119.82 94.33ZM119.75 94.33C116.905 102.289 111.764 109.226 104.977 114.264C98.191 119.302 90.0634 122.215 81.6218 122.636C73.1801 123.056 64.8032 120.965 57.5497 116.626C50.2962 112.287 44.4917 105.895 40.8696 98.2587C37.2475 90.622 35.9705 82.083 37.1998 73.7207C38.4291 65.3585 42.1097 57.5483 47.7764 51.2771C53.4431 45.0059 60.8415 40.5553 69.0368 38.4876C77.2322 36.4198 85.8565 36.8278 93.82 39.66C99.1135 41.5421 103.984 44.4495 108.153 48.2157C112.322 51.9819 115.707 56.5331 118.116 61.6089C120.524 66.6847 121.908 72.1856 122.188 77.7967C122.469 83.4079 121.64 89.0193 119.75 94.31V94.33Z" fill="url(#paint18_linear)"/>
<path style="mix-blend-mode:multiply" opacity="0.02" d="M146.86 43.49C161.48 73.31 155.86 104.73 138.11 126.49C152.31 104.21 155.04 74.43 139.5 46.49C134.439 37.4316 127.459 29.5892 119.048 23.5122C110.637 17.4352 100.999 13.2706 90.81 11.31C59.45 5.31001 32.05 17.23 15.36 37.71C30.45 14 58.49 -1.16999 91.37 3.36001C103.196 5.00138 114.438 9.51818 124.113 16.5146C133.787 23.5109 141.598 32.7733 146.86 43.49V43.49Z" fill="url(#paint19_linear)"/>
<path style="mix-blend-mode:screen" opacity="0.38" d="M55 71.08C49.32 87.08 55.68 111.15 54.88 110.87C40 105.56 34.49 82.55 40.56 65.49C46.63 48.43 65.74 33.27 80.65 38.58C81.62 38.93 60.74 54.93 55 71.08Z" fill="url(#paint20_linear)"/>
<path style="mix-blend-mode:screen" opacity="0.67" d="M129.21 97.39C132.855 87.3092 133.414 76.3708 130.816 65.9709C128.217 55.571 122.579 46.1812 114.62 39C113.155 38.905 111.685 38.905 110.22 39C116.941 45.9736 121.678 54.6156 123.942 64.0328C126.206 73.45 125.913 83.3009 123.096 92.5674C120.278 101.834 115.037 110.18 107.914 116.743C100.792 123.306 92.0456 127.848 82.58 129.9C84.1637 130.989 85.8363 131.942 87.58 132.75C97.0359 131.089 105.878 126.937 113.195 120.722C120.513 114.506 126.041 106.452 129.21 97.39V97.39Z" fill="url(#paint21_linear)"/>
<path d="M108.29 120.85C108.093 120.72 107.93 120.544 107.814 120.339C107.697 120.134 107.631 119.904 107.62 119.668C107.61 119.432 107.655 119.197 107.752 118.982C107.849 118.767 107.996 118.578 108.18 118.43C111.71 115.895 114.758 112.748 117.18 109.14C118.293 107.501 119.241 105.756 120.01 103.93C120.113 103.748 120.252 103.589 120.418 103.462C120.584 103.335 120.773 103.242 120.975 103.189C121.177 103.136 121.388 103.124 121.595 103.153C121.802 103.182 122.001 103.253 122.18 103.36L122.9 103.75C123.088 103.838 123.256 103.962 123.396 104.116C123.535 104.269 123.643 104.448 123.713 104.644C123.782 104.839 123.813 105.046 123.802 105.253C123.791 105.46 123.74 105.663 123.65 105.85C121.93 109.06 117.05 117.21 110.17 121.01C109.878 121.162 109.549 121.228 109.222 121.199C108.894 121.171 108.581 121.05 108.32 120.85H108.29Z" fill="white"/>
<path opacity="0.95" d="M125 99.09C124.761 99.0715 124.53 98.9969 124.326 98.8723C124.122 98.7477 123.949 98.5765 123.824 98.3728C123.698 98.1691 123.622 97.9386 123.602 97.7C123.583 97.4615 123.619 97.2216 123.71 97C125.56 92.9631 126.674 88.6284 127 84.2C127.159 82.1807 127.116 80.1505 126.87 78.14C126.87 77.9268 126.912 77.7158 126.994 77.5192C127.077 77.3225 127.197 77.1442 127.349 76.9944C127.5 76.8446 127.68 76.7264 127.878 76.6467C128.075 76.567 128.287 76.5273 128.5 76.53H129.35C129.761 76.5182 130.16 76.6639 130.467 76.9372C130.774 77.2105 130.964 77.5907 131 78C131.1 81.73 130.9 91.44 126.73 98.31C126.548 98.5918 126.29 98.8159 125.985 98.9559C125.68 99.0958 125.342 99.1458 125.01 99.1L125 99.09Z" fill="white"/>
<path style="mix-blend-mode:multiply" opacity="0.02" d="M2.88 99.38C5.58982 109.569 10.3182 119.11 16.7846 127.436C23.2511 135.763 31.3239 142.707 40.5244 147.855C49.7248 153.004 59.8655 156.252 70.3449 157.407C80.8244 158.563 91.4291 157.602 101.53 154.582C111.631 151.562 121.023 146.544 129.148 139.826C137.274 133.108 143.967 124.827 148.832 115.473C153.696 106.119 156.633 95.8842 157.468 85.3743C158.302 74.8644 157.018 64.294 153.69 54.29C158.86 74.0401 156.159 95.0263 146.154 112.823C136.15 130.619 119.626 143.835 100.066 149.684C80.5055 155.532 59.4387 153.555 41.3078 144.171C23.1769 134.786 9.3991 118.727 2.88 99.38V99.38Z" fill="url(#paint22_linear)"/>
</g>
<defs>
<linearGradient id="paint0_linear" x1="14.259" y1="92.8958" x2="180.051" y2="64.3914" gradientUnits="userSpaceOnUse">
<stop stop-color="#FAFAFA"/>
<stop offset="1" stop-color="#ECECEC"/>
</linearGradient>
<radialGradient id="paint1_radial" cx="0" cy="0" r="1" gradientUnits="userSpaceOnUse" gradientTransform="translate(-1.08295 86.5278) rotate(19.5024) scale(88.9242)">
<stop stop-color="#F7F7F6"/>
<stop offset="1" stop-color="white"/>
</radialGradient>
<linearGradient id="paint2_linear" x1="-54.111" y1="50.457" x2="5.28997" y2="61.8548" gradientUnits="userSpaceOnUse">
<stop stop-color="#FCFCFC"/>
<stop offset="1" stop-color="white"/>
</linearGradient>
<linearGradient id="paint3_linear" x1="76.469" y1="81.3926" x2="171.855" y2="115.118" gradientUnits="userSpaceOnUse">
<stop stop-color="#F8F8F8"/>
<stop offset="1" stop-color="white"/>
</linearGradient>
<linearGradient id="paint4_linear" x1="25.5886" y1="77.031" x2="66.0226" y2="80.8562" gradientUnits="userSpaceOnUse">
<stop/>
<stop offset="0.91" stop-color="white"/>
</linearGradient>
<linearGradient id="paint5_linear" x1="65.995" y1="99.1826" x2="153.784" y2="-17.5408" gradientUnits="userSpaceOnUse">
<stop stop-color="white"/>
<stop offset="1" stop-color="#F5F5F5"/>
</linearGradient>
<linearGradient id="paint6_linear" x1="54.9088" y1="130.538" x2="53.5222" y2="129.728" gradientUnits="userSpaceOnUse">
<stop stop-color="white"/>
<stop offset="1"/>
</linearGradient>
<linearGradient id="paint7_linear" x1="44106.8" y1="25109.1" x2="39421.5" y2="24909.9" gradientUnits="userSpaceOnUse">
<stop stop-color="white"/>
<stop offset="1"/>
</linearGradient>
<linearGradient id="paint8_linear" x1="21748.8" y1="24810.5" x2="22451.6" y2="24935.6" gradientUnits="userSpaceOnUse">
<stop stop-color="white"/>
<stop offset="1"/>
</linearGradient>
<linearGradient id="paint9_linear" x1="122.838" y1="107.221" x2="92.5674" y2="89.9898" gradientUnits="userSpaceOnUse">
<stop stop-color="white"/>
<stop offset="0.15" stop-color="#CCCCCC"/>
<stop offset="0.39" stop-color="#848484"/>
<stop offset="0.6" stop-color="#4C4C4C"/>
<stop offset="0.77" stop-color="#222222"/>
<stop offset="0.92" stop-color="#090909"/>
<stop offset="1"/>
</linearGradient>
<linearGradient id="paint10_linear" x1="122.881" y1="108.129" x2="119.147" y2="105.992" gradientUnits="userSpaceOnUse">
<stop stop-color="white"/>
<stop offset="0.32" stop-color="#E0E0E0"/>
<stop offset="1"/>
</linearGradient>
<linearGradient id="paint11_linear" x1="40.9232" y1="106.431" x2="118.22" y2="56.6854" gradientUnits="userSpaceOnUse">
<stop stop-color="white"/>
<stop offset="0.17" stop-color="#BEBEBE"/>
<stop offset="0.33" stop-color="#848484"/>
<stop offset="0.49" stop-color="#555555"/>
<stop offset="0.64" stop-color="#303030"/>
<stop offset="0.78" stop-color="#161616"/>
<stop offset="0.9" stop-color="#060606"/>
<stop offset="1"/>
</linearGradient>
<linearGradient id="paint12_linear" x1="34223.7" y1="21127.7" x2="29751.6" y2="21435" gradientUnits="userSpaceOnUse">
<stop stop-color="white"/>
<stop offset="0.17" stop-color="#BEBEBE"/>
<stop offset="0.33" stop-color="#848484"/>
<stop offset="0.49" stop-color="#555555"/>
<stop offset="0.64" stop-color="#303030"/>
<stop offset="0.78" stop-color="#161616"/>
<stop offset="0.9" stop-color="#060606"/>
<stop offset="1"/>
</linearGradient>
<linearGradient id="paint13_linear" x1="31688.8" y1="20678" x2="27901.3" y2="20925.5" gradientUnits="userSpaceOnUse">
<stop stop-color="white"/>
<stop offset="0.17" stop-color="#BEBEBE"/>
<stop offset="0.33" stop-color="#848484"/>
<stop offset="0.49" stop-color="#555555"/>
<stop offset="0.64" stop-color="#303030"/>
<stop offset="0.78" stop-color="#161616"/>
<stop offset="0.9" stop-color="#060606"/>
<stop offset="1"/>
</linearGradient>
<linearGradient id="paint14_linear" x1="43515.3" y1="17289.4" x2="48187.8" y2="23404.5" gradientUnits="userSpaceOnUse">
<stop stop-color="white"/>
<stop offset="0.17" stop-color="#BEBEBE"/>
<stop offset="0.33" stop-color="#848484"/>
<stop offset="0.49" stop-color="#555555"/>
<stop offset="0.64" stop-color="#303030"/>
<stop offset="0.78" stop-color="#161616"/>
<stop offset="0.9" stop-color="#060606"/>
<stop offset="1"/>
</linearGradient>
<linearGradient id="paint15_linear" x1="166.572" y1="134.956" x2="166.991" y2="137.318" gradientUnits="userSpaceOnUse">
<stop stop-color="white"/>
<stop offset="0.17" stop-color="#BEBEBE"/>
<stop offset="0.33" stop-color="#848484"/>
<stop offset="0.49" stop-color="#555555"/>
<stop offset="0.64" stop-color="#303030"/>
<stop offset="0.78" stop-color="#161616"/>
<stop offset="0.9" stop-color="#060606"/>
<stop offset="1"/>
</linearGradient>
<linearGradient id="paint16_linear" x1="31837.5" y1="15847.2" x2="33269.9" y2="17968.9" gradientUnits="userSpaceOnUse">
<stop stop-color="white"/>
<stop offset="0.17" stop-color="#BEBEBE"/>
<stop offset="0.33" stop-color="#848484"/>
<stop offset="0.49" stop-color="#555555"/>
<stop offset="0.64" stop-color="#303030"/>
<stop offset="0.78" stop-color="#161616"/>
<stop offset="0.9" stop-color="#060606"/>
<stop offset="1"/>
</linearGradient>
<linearGradient id="paint17_linear" x1="49896" y1="11800.7" x2="50607.6" y2="9795.48" gradientUnits="userSpaceOnUse">
<stop stop-color="white"/>
<stop offset="0.17" stop-color="#BEBEBE"/>
<stop offset="0.33" stop-color="#848484"/>
<stop offset="0.49" stop-color="#555555"/>
<stop offset="0.64" stop-color="#303030"/>
<stop offset="0.78" stop-color="#161616"/>
<stop offset="0.9" stop-color="#060606"/>
<stop offset="1"/>
</linearGradient>
<linearGradient id="paint18_linear" x1="44709.7" y1="17343.9" x2="45713.8" y2="21207.4" gradientUnits="userSpaceOnUse">
<stop stop-color="white"/>
<stop offset="1"/>
</linearGradient>
<linearGradient id="paint19_linear" x1="73631.6" y1="33416.3" x2="74202.6" y2="38289.8" gradientUnits="userSpaceOnUse">
<stop stop-color="white"/>
<stop offset="0.17" stop-color="#BEBEBE"/>
<stop offset="0.33" stop-color="#848484"/>
<stop offset="0.49" stop-color="#555555"/>
<stop offset="0.64" stop-color="#303030"/>
<stop offset="0.78" stop-color="#161616"/>
<stop offset="0.9" stop-color="#060606"/>
<stop offset="1"/>
</linearGradient>
<linearGradient id="paint20_linear" x1="20635.9" y1="16929.5" x2="21419.3" y2="16948" gradientUnits="userSpaceOnUse">
<stop stop-color="white"/>
<stop offset="0.17" stop-color="#BEBEBE"/>
<stop offset="0.33" stop-color="#848484"/>
<stop offset="0.49" stop-color="#555555"/>
<stop offset="0.64" stop-color="#303030"/>
<stop offset="0.78" stop-color="#161616"/>
<stop offset="0.9" stop-color="#060606"/>
<stop offset="1"/>
</linearGradient>
<linearGradient id="paint21_linear" x1="28802.6" y1="21322.3" x2="27730.1" y2="21412.3" gradientUnits="userSpaceOnUse">
<stop stop-color="white"/>
<stop offset="0.17" stop-color="#BEBEBE"/>
<stop offset="0.33" stop-color="#848484"/>
<stop offset="0.49" stop-color="#555555"/>
<stop offset="0.64" stop-color="#303030"/>
<stop offset="0.78" stop-color="#161616"/>
<stop offset="0.9" stop-color="#060606"/>
<stop offset="1"/>
</linearGradient>
<linearGradient id="paint22_linear" x1="68237.8" y1="12092.7" x2="68954.3" y2="15594.8" gradientUnits="userSpaceOnUse">
<stop stop-color="white"/>
<stop offset="0.17" stop-color="#BEBEBE"/>
<stop offset="0.33" stop-color="#848484"/>
<stop offset="0.49" stop-color="#555555"/>
<stop offset="0.64" stop-color="#303030"/>
<stop offset="0.78" stop-color="#161616"/>
<stop offset="0.9" stop-color="#060606"/>
<stop offset="1"/>
</linearGradient>
<clipPath id="clip0">
<rect width="158" height="158" fill="white"/>
</clipPath>
</defs>
</svg>
