<svg xmlns="http://www.w3.org/2000/svg" viewBox="0 0 123.15 136.34"><defs><style>.cls-1{fill:#4b973a;}.cls-2{fill:#9ace83;}.cls-3{fill:#63a84a;}.cls-4{fill:#3f8931;}</style></defs><title>ruvolla</title><g id="Capa_2" data-name="Capa 2"><g id="Ñëîé_1" data-name="Ñëîé 1"><path class="cls-1" d="M75.14,108.5c-1.34-5.63-2.86-10.62-6.62-15.19-1.83-2.22-4.72-4.12-6.13-6.64-3-5.33,2.73-2.66,2.34-6.15-.24-2.13-5.55-5.35-7-6.5-2.93-2.29-5.64-4.3-7.86-7.35-4-5.44-5.45-13,3.15-12,3.07.35,6.6,2.34,5.73-2.53-.6-3.32-4.59-6.17-5.88-9.27-1.38-3.3-2.11-7.51.74-10.06,1.06-1,2.61-1.08,3.66-2.25s1.3-3.77,1.69-5.42c1-4,5.13-18.29,10.67-10.29,4.06,5.84-4.76,15.22.41,20.27,2.27,2.22,6,.05,7.61,1.51,2.07,1.86-.41,7.12-1.15,9-1.06,2.79-2.56,5.69-1.6,8.71,1.33,4.2,3.21,2.81,6.51,2.82,10.45,0-.51,15.43-2.07,20.06a24.06,24.06,0,0,0-1.55,8.49c.17,3,1.82,4,2.62,6.66,1.44,4.8-1,11.11-1,16-.07,5.34-.24,10,.72,15.1.29,1.61-3.5,1.89-3.68.21C75.89,119,76.26,113.21,75.14,108.5Z"/><path class="cls-2" d="M77.69,109.05c-1.06-4.55-2-9-2.68-13.54L73.17,82.05c.12-.36.23-.71.37-1.06a59.21,59.21,0,0,1,2.87-5.82,17.26,17.26,0,0,0,1.23-3.07c.31-1,.6-2.11.89-3.16s.6-2.09,1-3.09a8.56,8.56,0,0,1,1.63-2.78,5.47,5.47,0,0,0-1.07,1.23,11.24,11.24,0,0,0-.8,1.44,25.86,25.86,0,0,0-1.17,3.07c-.34,1-.64,2.09-1,3.12a18.05,18.05,0,0,1-1.21,3,42.83,42.83,0,0,0-2.79,5.93l-.09.27-1.77-13c-.67-4.8-1.38-9.62-2.39-14.38a3.45,3.45,0,0,0,.12.46,12.17,12.17,0,0,1,.18-3.86,19.54,19.54,0,0,1,1.15-3.67,19.11,19.11,0,0,1,1.84-3.35,12.84,12.84,0,0,1,2.59-2.82,9.4,9.4,0,0,0-2.93,2.55,14.83,14.83,0,0,0-2,3.39,15.28,15.28,0,0,0-1.07,3.82,9.89,9.89,0,0,0,.09,3.39,82.15,82.15,0,0,0-3.63-12.51c.57,1.91,1.07,3.84,1.52,5.77a6.94,6.94,0,0,0-1.09-1.21,24.2,24.2,0,0,0-3.14-2.23,17.46,17.46,0,0,1-3-2.25,6.81,6.81,0,0,1-1.13-1.49,6.11,6.11,0,0,1-.63-1.8,5.14,5.14,0,0,0,.39,1.92,6.44,6.44,0,0,0,1.05,1.67,14.38,14.38,0,0,0,3,2.43,36.59,36.59,0,0,1,3.15,2.09,7.5,7.5,0,0,1,1.33,1.31l.19.27c1.53,6.8,2.4,13.73,3.26,20.64.37,3,.68,6,1,9a15.08,15.08,0,0,0-1.41-2.81,16.91,16.91,0,0,0-4.84-5c-1.93-1.23-3.78-2.58-5.59-4s-3.57-2.9-5.33-4.38c1.62,1.64,3.3,3.24,5.06,4.72A54,54,0,0,0,64.62,70a16.83,16.83,0,0,1,2.61,2.16,19,19,0,0,1,2.18,2.64,16.9,16.9,0,0,1,1.65,3c.08.19.15.38.22.57.61,5.81,1.25,11.62,2.32,17.4.32,1.84.69,3.7,1.09,5.55l-.12-.25a11.83,11.83,0,0,1-.81-2.55c-.38-1.75-.54-3.59-1.11-5.36a5.41,5.41,0,0,0-1.5-2.39,9.09,9.09,0,0,0-2.33-1.46,23,23,0,0,1-2.39-1.17,5.41,5.41,0,0,1-1.06-.79,5,5,0,0,1-.83-1.06,5,5,0,0,0,1.74,2.08,19.11,19.11,0,0,0,2.35,1.34,9.24,9.24,0,0,1,2.17,1.45,5.08,5.08,0,0,1,1.33,2.17c.56,1.69.74,3.51,1.21,5.29a10.92,10.92,0,0,0,1,2.58c.15.25.32.5.49.73.55,2.48,1.14,4.94,1.74,7.35.59,4.46.9,9.13,1.35,13.7.08.85.28,1.17.35,2,.36,0,.63-.12,1-.13-.08-.86-.19-1.12-.27-2C78.54,118.27,78.28,113.73,77.69,109.05Z"/><path class="cls-3" d="M42.33,107.38c-2.45-2.12-17.46-9.64-12.84-13.26,2.62-2.05,6.32,2.21,5.84-3.05-.23-2.52-10.64-6.62-12.78-7.7-6.59-3.31-8.64-5.16-8.27-10.59.24-3.42,11.88-.43,10.19-4.2C21.59,62.13,12.7,61.26,8.11,56.67.81,49.36.77,40.16.09,30.4c-.24-3.39-.27-9,3.37-10.67,4-1.82,5.65,2.29,7.53,5.11,1.18,1.78,4.22,8.54,7,6.19,2.26-1.87-.44-7.11,4.07-2.7C27,33.08,24.64,41.78,31,45.18c1.64.88,2.19-.42,3.61,1.41,1.19,1.51.53,3,.53,4.78a50.68,50.68,0,0,0,1.17,11.34c.82,3.59,1.41,6,5.42,5.08,2.87-.65,5.1-3.15,5.34,1.7.15,3.05-1.49,6.14-1.31,9.34.28,4.9,1.42,3.5,4.74,5.28,5.68,3-.62,13.53.26,18.76,2.72,16.3,15.48,26,17.55,29.5.89,1.51-2,4.28-2.79,3.82C55,129.75,51.75,115.49,42.33,107.38Z"/><path class="cls-2" d="M62.44,129.18C56.2,121,49.92,112.9,46.14,103.3v-.09a19.53,19.53,0,0,1,.36-5.28,24.84,24.84,0,0,1,1.57-5.05,20.08,20.08,0,0,1,1.21-2.35,12.93,12.93,0,0,1,1.56-2.13,13.21,13.21,0,0,0-3.16,4.29A21.37,21.37,0,0,0,46,97.82a19.63,19.63,0,0,0-.36,4.05l-.33-.94c-1.51-3.55-3.1-7.07-4.72-10.57a4.62,4.62,0,0,0,1.11-1.57,7.27,7.27,0,0,0,.52-2.61,33.82,33.82,0,0,0-.48-5.25c-.11-.85-.17-1.72-.21-2.58a13.72,13.72,0,0,1,.1-2.57,11.05,11.05,0,0,1,2-4.69,12.18,12.18,0,0,0-1.51,2.12,8.73,8.73,0,0,0-.9,2.49A13.18,13.18,0,0,0,41,78.36c0,.88.09,1.75.19,2.64a48.43,48.43,0,0,1,.59,5.17,7.67,7.67,0,0,1-.34,2.52,5,5,0,0,1-.56,1.14,4.7,4.7,0,0,1-.34.44c-3.06-6.58-6.27-13.08-9.44-19.61l-.66-1.34a4.49,4.49,0,0,0,.44-1.57,11.78,11.78,0,0,0,0-2.3c-.06-.76-.17-1.51-.25-2.26,0-.37-.08-.74-.09-1.11,0-.19,0-.37,0-.55l0-.56a21.86,21.86,0,0,1,.59-4.42,18.64,18.64,0,0,1,1.63-4.15,13.38,13.38,0,0,0-2,4A17.34,17.34,0,0,0,30,60.94l0,.57c0,.2,0,.4,0,.59,0,.39.06.77.12,1.15l.33,2.24a14.06,14.06,0,0,1,.18,2.23,4.64,4.64,0,0,1-.24,1.48c-4.66-9.52-9.45-19-14.62-28.22l6.38,13.45c-.24-.16-.48-.3-.72-.43-.56-.31-1.14-.57-1.71-.84a22.35,22.35,0,0,1-3.34-1.71,23.62,23.62,0,0,1-5.73-4.85,17.78,17.78,0,0,1-2.12-3.11A20.6,20.6,0,0,1,7.05,40c-.38-1.21-.69-2.45-1-3.69a33.19,33.19,0,0,0-1.21-3.65c.78,2.45,1.14,5,1.83,7.46A19,19,0,0,0,8,43.74,18,18,0,0,0,10.2,47,19,19,0,0,0,13,49.66a28,28,0,0,0,3.16,2.16,19.27,19.27,0,0,0,3.46,1.59,18.78,18.78,0,0,1,2.59,1.16L30,71.16,34.55,81l-.25-.13a16.59,16.59,0,0,0-2.13-.8c-1.44-.46-2.9-.8-4.35-1.17-.72-.18-1.44-.37-2.15-.59a18.55,18.55,0,0,1-2.1-.72,9.35,9.35,0,0,1-1.94-1.06,4.77,4.77,0,0,1-1.48-1.67,4.55,4.55,0,0,0,1.31,1.88,8.81,8.81,0,0,0,1.94,1.25,23.65,23.65,0,0,0,4.3,1.45c1.46.37,2.92.68,4.36,1,.72.18,1.44.38,2.14.63l.49.19L44,101.5c.49,1.34,1,2.66,1.61,4A11.34,11.34,0,0,0,44.07,104a16.6,16.6,0,0,0-3.46-2c-1.21-.55-2.44-1-3.66-1.51s-2.42-1-3.6-1.62a19.67,19.67,0,0,0,3.43,2c1.2.58,2.43,1.07,3.62,1.62a21.09,21.09,0,0,1,3.42,1.89,15.38,15.38,0,0,1,2.1,1.77c4,8.63,10,16.33,15.8,23.68,1.74,2.12,3.09,4,4.93,6,.19-.18.79-.73,1-.88C65.85,132.87,64.13,131.33,62.44,129.18Z"/><path class="cls-4" d="M87.3,106.92c2.59-7.47-1-13.1-2-20.34-1.41-10.09,6.21-5.3,10.85-10.42,6-6.59-8.51-10.8-4.8-16.69,2.22-3.53,5.19-.43,6.65-4.89,1.18-3.54,1-6.43-1.74-9s-6.61-3.55-8.54-7c-2.84-5,1.63-4.26,4.79-4.79,7.5-1.23,1.78-16.88,1.61-22.69C93.93,3.2,99.27-4.6,106.07,3.28c2.77,3.21,2.61,10.27,5.73,12.54,4.18,3.05,6.56-7.09,9-3.08,2,3.35-2.5,9.57-4.15,12-1.93,2.83-5,7.12-3.89,10.8,3.15.78,6-2.53,8.92-.4,3.27,2.36.41,5.72-1.42,8.29-4.84,6.82-11.52,16.64-11.37,23.38.11,4.92,4.14,3.35,7.35,4.78,3.8,1.69,3,5.14,1.36,8-4.87,8.5-15.22,12.88-21,21-5,7,3.18,2.91,5.27,6.19,1.89,3-6.23,6.93-8,8.56-3.36,3.14-7.08,6.24-9.85,9.91-2.33,3.08-2.71,8.07-5.34,11.08-.22.25-1.15-2.59-1.32-3.71S85.5,112.09,87.3,106.92Z"/><path class="cls-2" d="M116.19,42.32a18.29,18.29,0,0,1-2.13,2.27c-.77.7-1.56,1.37-2.36,2-.4.34-.8.69-1.18,1s-.76.74-1.13,1.11a26.12,26.12,0,0,0-4.07,4.86A13.17,13.17,0,0,0,104,56.53c-.07-2.48-.14-5-.14-7.42-.15-5.7.69-11.6.9-17.44a5.13,5.13,0,0,1,.52-1.05,12.84,12.84,0,0,1,1.53-2c1.15-1.23,2.42-2.34,3.67-3.48a22.67,22.67,0,0,0,3.39-3.87,25.3,25.3,0,0,0,2.48-4.5A42.16,42.16,0,0,1,113.57,21a27.89,27.89,0,0,1-3.41,3.71,37.37,37.37,0,0,0-3.62,3.61,11.72,11.72,0,0,0-1.46,2.14c-.09.2-.18.41-.26.62.14-5.14-.25-10.24-2.3-15.13,2,5.24,1.94,11,1.5,16.44-.29,3.86-.74,7.75-1,11.66a3.79,3.79,0,0,0-.76-1.39,5,5,0,0,0-1.43-1.09,10.6,10.6,0,0,0-1.62-.66c-1.11-.36-2.21-.61-3.26-1a6.55,6.55,0,0,1-1.49-.76,4.4,4.4,0,0,1-1.16-1.23,3.71,3.71,0,0,0,1,1.45,6,6,0,0,0,1.49,1,29.07,29.07,0,0,0,3.25,1.12,11.2,11.2,0,0,1,1.56.6A5,5,0,0,1,102,43a3.75,3.75,0,0,1,.88,1.39,4,4,0,0,1,.15.45c-.08,1.42-.13,2.85-.13,4.28-.09,7,.31,14.07-.18,21A12.9,12.9,0,0,0,100.82,67a21.35,21.35,0,0,0-2.73-2.36,14.67,14.67,0,0,1-1.3-1.19A4.16,4.16,0,0,1,95.85,62a3.72,3.72,0,0,0,.74,1.66A9.71,9.71,0,0,0,97.81,65c.44.41.9.79,1.34,1.18a11.06,11.06,0,0,1,1.25,1.21,16.25,16.25,0,0,1,1.92,3l.3.61a52.24,52.24,0,0,1-2,11.12c-4.47,9.85-9.06,20.19-13.31,30.33-3.29,7.58-6,14.3-9.42,21.81a13.67,13.67,0,0,1,.37,1.5c3-6.33,5.56-12.4,8.3-18.66.33-.19.66-.36,1-.53,1.09-.53,2.2-1,3.31-1.52a15.11,15.11,0,0,0,3.05-2.12,20.11,20.11,0,0,0,2.52-2.7c-.92.81-1.83,1.62-2.79,2.36-.49.36-1,.72-1.47,1a16,16,0,0,1-1.55.9c-.53.27-1.09.52-1.64.79s-1.1.54-1.63.85l-.54.33,1.57-3.55c2.67-6.17,5.38-12.2,8.15-18.26a21.43,21.43,0,0,1,2-1.94,35.26,35.26,0,0,1,6-4.09c.52-.3,1.07-.58,1.59-.91s1-.66,1.55-1a26.91,26.91,0,0,0,2.84-2.38,34.29,34.29,0,0,0,4.73-5.68,47.23,47.23,0,0,1-5,5.36,28.24,28.24,0,0,1-6,4.14,31.13,31.13,0,0,0-6,4.25c-.43.39-.85.81-1.25,1.24q2.52-5.48,5.1-11a51.73,51.73,0,0,0,1.71-9.12l.06.12a1.21,1.21,0,0,1,0-.18,125.43,125.43,0,0,0,.26-16.1,14.22,14.22,0,0,1,1.62-3.38,19.72,19.72,0,0,1,1.92-2.45c.7-.77,1.43-1.51,2.17-2.25.37-.37.74-.75,1.11-1.1s.77-.71,1.16-1.05c.77-.7,1.57-1.39,2.31-2.14a16.54,16.54,0,0,0,2.06-2.43,6.75,6.75,0,0,0,1.16-2.95A6.9,6.9,0,0,1,116.19,42.32Z"/></g></g></svg>