<svg xmlns="http://www.w3.org/2000/svg" xmlns:xlink="http://www.w3.org/1999/xlink" viewBox="0 0 82.61 78.26"><defs><style>.cls-1,.cls-10,.cls-11,.cls-8{fill:#ff7a24;}.cls-2{fill:none;}.cls-3{fill:#6f8f08;}.cls-4{fill:#ff5f17;}.cls-5{isolation:isolate;}.cls-6{clip-path:url(#clip-path);}.cls-38,.cls-7{opacity:0.34;}.cls-11,.cls-12,.cls-7{mix-blend-mode:screen;}.cls-8{opacity:0.24;}.cls-10,.cls-15,.cls-17,.cls-18,.cls-23,.cls-8{mix-blend-mode:multiply;}.cls-9{clip-path:url(#clip-path-2);}.cls-10{opacity:0.13;}.cls-11{opacity:0.08;}.cls-12{opacity:0.26;}.cls-13{fill:#fff;}.cls-14{clip-path:url(#clip-path-3);}.cls-15{opacity:0.45;}.cls-16{opacity:0.11;}.cls-17{opacity:0.28;}.cls-18{opacity:0.25;}.cls-19{fill:#fc4430;}.cls-20{clip-path:url(#clip-path-4);}.cls-21{fill:#ff4600;}.cls-22{fill:#ff7f1a;}.cls-23{fill:#ff4e0b;opacity:0.36;}.cls-24{fill:#ff7627;}.cls-25{fill:#fc831a;}.cls-26{fill:#fff4f2;}.cls-27{clip-path:url(#clip-path-5);}.cls-28{fill:#ff3d3d;}.cls-29{clip-path:url(#clip-path-6);}.cls-30{clip-path:url(#clip-path-7);}.cls-31{clip-path:url(#clip-path-8);}.cls-32{clip-path:url(#clip-path-9);}.cls-33{clip-path:url(#clip-path-10);}.cls-34{clip-path:url(#clip-path-11);}.cls-35{clip-path:url(#clip-path-12);}.cls-36{opacity:0.41;mix-blend-mode:soft-light;}.cls-37{opacity:0.32;}.cls-39{opacity:0.43;}</style><clipPath id="clip-path"><path class="cls-1" d="M19.9,18.59c-6,5.19-9.28,13.9-6.83,21.47,2,6.14,7.33,10.74,13.22,13.39a42.45,42.45,0,0,0,15.85,3.46,25,25,0,0,0,10.38-1.44,25.9,25.9,0,0,0,6.14-3.83A24,24,0,0,0,65,44.78a24.79,24.79,0,0,0,2.24-6.52c.81-3.6,1.32-7.48-.08-10.9a20.58,20.58,0,0,0-5.57-7.76A31.33,31.33,0,0,0,52.87,14a24.69,24.69,0,0,0-8-1.69c-1.81,0-3.54-.51-5.36-.49a33.56,33.56,0,0,0-13.14,2.75A26.31,26.31,0,0,0,19.9,18.59Z"/></clipPath><clipPath id="clip-path-2"><path class="cls-2" d="M19.9,18.59c-6,5.19-9.28,13.9-6.83,21.47,2,6.14,7.33,10.74,13.22,13.39a42.45,42.45,0,0,0,15.85,3.46,25,25,0,0,0,10.38-1.44,25.9,25.9,0,0,0,6.14-3.83A24,24,0,0,0,65,44.78a24.79,24.79,0,0,0,2.24-6.52c.81-3.6,1.32-7.48-.08-10.9a20.58,20.58,0,0,0-5.57-7.76A31.33,31.33,0,0,0,52.87,14a24.69,24.69,0,0,0-8-1.69c-1.81,0-3.54-.51-5.36-.49a33.56,33.56,0,0,0-13.14,2.75A26.31,26.31,0,0,0,19.9,18.59Z"/></clipPath><clipPath id="clip-path-3"><path class="cls-3" d="M27.13,7a25.67,25.67,0,0,0-8.81,2.13c-4.05,2.14-6,2.58-11.15,5a20.18,20.18,0,0,1,4.44,1.36c1,.43,1.94.94,3,1.31a19.63,19.63,0,0,0,4.68.94c3.35.36,6.82.53,10-.51a53.25,53.25,0,0,0,6.63-2.83c1.25-.57,3.2-1.45,3.31-3.06C39.3,10,37.82,9.25,36.8,8.74A20.17,20.17,0,0,0,27.13,7Z"/></clipPath><clipPath id="clip-path-4"><path class="cls-4" d="M35.36,49.34s.71,8.24,4.94,13.47c3.14,3.89,11.65,8.67,17.57,8S70.63,69,75.43,62.93s7-22.67,3.4-24.18S35.36,49.34,35.36,49.34Z"/></clipPath><clipPath id="clip-path-5"><path class="cls-2" d="M57.32,41.28c-.37-2.1-.75-4.21-1.12-6.31a.35.35,0,0,0-.19-.31.9.9,0,0,0-.43,0,19,19,0,0,0-10.32,5.24c-.34.36-.67.8-.5,1.13a1.19,1.19,0,0,0,.68.42c2.54.89,5.52,1.31,7.86,2.4.76.36,3.13,1.69,4.37.56C58.34,43.81,57.42,41.85,57.32,41.28Z"/></clipPath><clipPath id="clip-path-6"><path class="cls-2" d="M52.31,44.46,44,42.2a1,1,0,0,0-.51,0,.85.85,0,0,0-.36.24c-2.53,2.39-3.49,5.4-2.5,7.86a1.11,1.11,0,0,0,.91.78,3,3,0,0,0,1.05-.17c3.17-1,6.15-2.35,9.38-3.1,1.06-.25,4.59-.91,4.3-2.08C56.12,45.06,53.06,44.66,52.31,44.46Z"/></clipPath><clipPath id="clip-path-7"><path class="cls-2" d="M51.06,49l-9.27,2.8a1.06,1.06,0,0,0-.45.23.34.34,0,0,0,0,.31c.73,2.54,3.43,4.65,7.06,5.51a2.56,2.56,0,0,0,1.62,0,1.6,1.6,0,0,0,.65-.61c1.44-2.06,2.22-4.27,4-6.26.57-.65,2.64-2.72,1.06-3.23C54.81,47.49,51.9,48.76,51.06,49Z"/></clipPath><clipPath id="clip-path-8"><path class="cls-2" d="M66.31,44.21l9.08-2.47a.73.73,0,0,0,.43-.21c.07-.09,0-.2,0-.3-1-2.55-3.82-5-7.59-6a2.78,2.78,0,0,0-1.67-.14,4,4,0,0,0-1,1.15c-1.23,2-1.54,4-3.08,5.91-.5.62-2.36,2.61-.71,3.16C62.69,45.59,65.5,44.43,66.31,44.21Z"/></clipPath><clipPath id="clip-path-9"><path class="cls-2" d="M65.26,48.48l8.22,2.37a.87.87,0,0,0,.51,0,.83.83,0,0,0,.37-.23c2.58-2.37,3.62-5.37,2.7-7.85a1.05,1.05,0,0,0-.88-.79,2.65,2.65,0,0,0-1.06.15c-3.18.92-6.18,2.28-9.42,3-1.07.24-4.6.85-4.35,2C61.48,47.83,64.52,48.27,65.26,48.48Z"/></clipPath><clipPath id="clip-path-10"><path class="cls-2" d="M60.22,51.85c.21,2.18.43,4.35.64,6.53,0,.12,0,.26.16.31a.85.85,0,0,0,.42,0,19.66,19.66,0,0,0,10.33-5.51c.36-.38.7-.83.56-1.18s-.36-.33-.62-.43c-2.4-.9-5.25-1.31-7.43-2.43-.72-.36-2.91-1.72-4.19-.54C59.41,49.24,60.16,51.26,60.22,51.85Z"/></clipPath><clipPath id="clip-path-11"><path class="cls-2" d="M65.12,34.69c-.49-.64-7.45-.7-7.64-.25s.75,9.06,1.08,9.39c.53.51,1.1,1.21,2.33-.3S65.68,35.42,65.12,34.69Z"/></clipPath><clipPath id="clip-path-12"><path class="cls-2" d="M59.91,59c.48-.31-.53-9.8-1-9.92s-1.79-.94-2.39.54-1.83,2.46-2.89,4.22-2.71,4.23-2.09,4.67S59,59.6,59.91,59Z"/></clipPath></defs><title>tangelo</title><g class="cls-5"><g id="Capa_2" data-name="Capa 2"><g id="Ediccion"><path class="cls-3" d="M39.78,12.58c-.13-2.47-.63-5-.07-7.5A7.87,7.87,0,0,1,40.85,2.4c.5-.72,1.2-1.14,1.31-2A.35.35,0,0,0,41.9,0c-2-.31-3.21,3-3.57,4.48a11.93,11.93,0,0,0,1.24,8.14.11.11,0,0,0,.21-.06Z"/><path class="cls-1" d="M19.9,18.59c-6,5.19-9.28,13.9-6.83,21.47,2,6.14,7.33,10.74,13.22,13.39a42.45,42.45,0,0,0,15.85,3.46,25,25,0,0,0,10.38-1.44,25.9,25.9,0,0,0,6.14-3.83A24,24,0,0,0,65,44.78a24.79,24.79,0,0,0,2.24-6.52c.81-3.6,1.32-7.48-.08-10.9a20.58,20.58,0,0,0-5.57-7.76A31.33,31.33,0,0,0,52.87,14a24.69,24.69,0,0,0-8-1.69c-1.81,0-3.54-.51-5.36-.49a33.56,33.56,0,0,0-13.14,2.75A26.31,26.31,0,0,0,19.9,18.59Z"/><g class="cls-6"><g class="cls-7"><path class="cls-1" d="M48.25,15.2A23.91,23.91,0,0,1,59,25.06a27.89,27.89,0,0,1,2.31,16.12c-.72,3.76-4.17,8.53-7.5,11.19-1.85,1.48-4.79,2.73-6.8,4-1,.62-2.15,1.2-1.82,2.48.38,1.47,2.09,1.92,3.4,2.06,2.56.28,5.12-.85,7.29-2.13A20.06,20.06,0,0,0,61.41,54a44.16,44.16,0,0,0,4.28-7.27,31,31,0,0,0,3.06-7.8,22,22,0,0,0-3-16A27.14,27.14,0,0,0,52.35,12.3a34.08,34.08,0,0,0-9.3-2.08C40.25,10,36.68,9,34.86,11.54c-.46.63,1.74,1.26,2.4,1.26A36.28,36.28,0,0,1,48.25,15.2Z"/></g><path class="cls-8" d="M42.12,55.57c-7.25-2.74-13.13-11-14.86-18.65A23.49,23.49,0,0,1,28,24.24,49.86,49.86,0,0,1,30.92,18a22,22,0,0,1,3.54-5.51c.75-.74.42-1.34-.76-1.19a8.44,8.44,0,0,0-2.74.85,3.16,3.16,0,0,0-3-1c-4.54,1.09-7.53,4.7-10.23,8.24-3,4-5.32,8.07-6,13.08a25,25,0,0,0,2,13.85,25,25,0,0,0,8.71,9.9,30.79,30.79,0,0,0,6.67,3.39,28.61,28.61,0,0,0,3.49,1.06,7.69,7.69,0,0,0,2.2.22,9.38,9.38,0,0,0,1.18.2,9,9,0,0,0,7.09-2.39C45,57,44.18,56.35,42.12,55.57Z"/></g><g class="cls-9"><path class="cls-10" d="M67.06,44.23c-8,5-18.33,2.05-26.32-1.36-3.82-1.64-7.61-3.92-10-7.41a20.47,20.47,0,0,1-3.26-11.19c0-.93,0-1.84.08-2.75.52-2.08,1.16-4.13,1.78-6.16a2.78,2.78,0,0,0,.11-1.13,5.6,5.6,0,0,1,2-2.21,1.4,1.4,0,0,0-1.07-2.54,8,8,0,0,0-3.57,2.15,2.74,2.74,0,0,0-2.44.82,15.43,15.43,0,0,0-3,4.71,2.62,2.62,0,0,0-2.67.81,21.81,21.81,0,0,0-2.11,3A17.14,17.14,0,0,0,12,26.79c-2,4.66-1,9.6,1.33,14A16.58,16.58,0,0,0,16.43,47a12.86,12.86,0,0,0,2.51,2.34A33.64,33.64,0,0,0,32.67,59.62,45.94,45.94,0,0,0,48,62.83a3.14,3.14,0,0,0,3-2.28,2.93,2.93,0,0,0-.25-2.2,2.72,2.72,0,0,0,1.4-2.14c.68-.1,1.35-.22,2-.35,5.7-1.1,12.2-2.88,16.55-6.92C73.17,46.63,70,42.41,67.06,44.23Z"/><path class="cls-10" d="M63.89,49.44c-8,5-21.82.75-29.81-2.66-3.82-1.64-7.62-3.92-10-7.41C21.79,36,20.39,34,20.27,30a40.2,40.2,0,0,1,.09-4.53,52.68,52.68,0,0,1,1.87-6.4c.12-.39,2.26-4.52,2.22-4.88.48-.89-3.37.37-4.35,1.35a2.74,2.74,0,0,0-2.44.83,15.34,15.34,0,0,0-3,4.71,2.59,2.59,0,0,0-2.66.81,21.81,21.81,0,0,0-2.11,3A17.14,17.14,0,0,0,5.35,30.7c-2.06,4.66-1,9.6,1.33,13.94a16.44,16.44,0,0,0,3.09,6.27,12.35,12.35,0,0,0,2.51,2.35A33.62,33.62,0,0,0,26,63.52a45.65,45.65,0,0,0,15.31,3.22,3.14,3.14,0,0,0,3-2.28,3,3,0,0,0-.25-2.2,2.72,2.72,0,0,0,1.4-2.14c.67-.1,1.35-.22,2-.35,5.7-1.11,12.2-2.88,16.55-6.92C66.51,50.54,66.78,47.62,63.89,49.44Z"/><path class="cls-10" d="M59.62,52c-7.95,5-21.81.75-29.8-2.67C26,47.72,22.2,45.44,19.8,42c-2.28-3.33-3.68-5.4-3.79-9.38A37.93,37.93,0,0,1,16.1,28,51.61,51.61,0,0,1,18,21.64c.13-.4,2.27-4.52,2.23-4.88.48-.9-3.38.37-4.35,1.35a2.76,2.76,0,0,0-2.45.82,15.43,15.43,0,0,0-3,4.71,2.59,2.59,0,0,0-2.66.82,22.7,22.7,0,0,0-2.12,2.95,17.37,17.37,0,0,0-4.5,5.87c-2.06,4.65-1,9.6,1.33,13.94a16.37,16.37,0,0,0,3.09,6.27A11.78,11.78,0,0,0,8,55.83,33.67,33.67,0,0,0,21.74,66.1a45.7,45.7,0,0,0,15.32,3.21,3.14,3.14,0,0,0,3-2.27,3,3,0,0,0-.25-2.2,2.7,2.7,0,0,0,1.39-2.15c.68-.1,1.35-.21,2-.34,5.71-1.11,12.21-2.88,16.56-6.93C62.25,53.12,62.52,50.2,59.62,52Z"/></g><path class="cls-11" d="M43.6,13.28c-5,.05-9.92,2.87-11.61,7.44-1.38,3.71-.52,8,1.37,11.63a27.84,27.84,0,0,0,6.49,8,16.45,16.45,0,0,0,5.68,3.47,16.64,16.64,0,0,0,4.5.64,14.82,14.82,0,0,0,5.75-.72,14.37,14.37,0,0,0,3.61-2.2c1.78-1.38,3.52-3,4.14-5.19a12.56,12.56,0,0,0,.24-5.91,19.82,19.82,0,0,0-2.15-6.13,16.22,16.22,0,0,0-3.31-4c-.88-.74-1.55-1.65-2.46-2.37a22,22,0,0,0-7.54-4A16.39,16.39,0,0,0,43.6,13.28Z"/><path class="cls-11" d="M43.26,15.45c-3.74,0-7.46,2.16-8.73,5.6-1,2.79-.39,6,1,8.74a20.91,20.91,0,0,0,4.88,6,12.31,12.31,0,0,0,4.27,2.6,12.44,12.44,0,0,0,3.38.49,11.26,11.26,0,0,0,4.33-.55,10.93,10.93,0,0,0,2.71-1.65,8.13,8.13,0,0,0,3.12-3.9,9.42,9.42,0,0,0,.17-4.45,15,15,0,0,0-1.61-4.61,12.24,12.24,0,0,0-2.49-3c-.66-.55-1.17-1.24-1.85-1.78a16.4,16.4,0,0,0-5.67-3A12.51,12.51,0,0,0,43.26,15.45Z"/><path class="cls-11" d="M44.06,17a6.34,6.34,0,0,0-5.91,3.79,7.47,7.47,0,0,0,.7,5.92,14,14,0,0,0,3.3,4.06A8.33,8.33,0,0,0,45,32.57a8.44,8.44,0,0,0,2.29.32,6.16,6.16,0,0,0,4.77-1.48,5.57,5.57,0,0,0,2.11-2.65,6.38,6.38,0,0,0,.12-3,10,10,0,0,0-1.1-3.12,8.24,8.24,0,0,0-1.68-2c-.45-.38-.79-.84-1.25-1.21a11.31,11.31,0,0,0-3.84-2A8.86,8.86,0,0,0,44.06,17Z"/><g class="cls-12"><path class="cls-13" d="M47.79,16.86c1.38,1.83,3.29,3.25,4.92,5A22.35,22.35,0,0,1,57,28.36a17.43,17.43,0,0,1,1.71,7.28c-.09,2.27-1.85,5.19-.63,7.29A3.09,3.09,0,0,0,62.26,44c1.38-.79,1.73-2.38,2.1-3.81a21.41,21.41,0,0,0,.7-4.57,24,24,0,0,0-2.39-10.06,17.91,17.91,0,0,0-5.87-7.66c-2.41-1.74-5.63-3.18-8.57-2.14a.74.74,0,0,0-.44,1.08Z"/></g><path class="cls-13" d="M49.81,20.67a8.58,8.58,0,0,0,1.44,2.72c.32.54.53,1.18,1.1,1.51a1.54,1.54,0,0,0,1.89-.24c1.09-1.16-.09-2.77-1-3.64a3.34,3.34,0,0,0-3-1.09.6.6,0,0,0-.42.74Z"/><path class="cls-3" d="M27.13,7a25.67,25.67,0,0,0-8.81,2.13c-4.05,2.14-6,2.58-11.15,5a20.18,20.18,0,0,1,4.44,1.36c1,.43,1.94.94,3,1.31a19.63,19.63,0,0,0,4.68.94c3.35.36,6.82.53,10-.51a53.25,53.25,0,0,0,6.63-2.83c1.25-.57,3.2-1.45,3.31-3.06C39.3,10,37.82,9.25,36.8,8.74A20.17,20.17,0,0,0,27.13,7Z"/><g class="cls-14"><g class="cls-15"><path class="cls-3" d="M5.27,13.35c2.35,1.74,6.5.55,9.19,0,3-.58,6-1.25,9.06-1.57a52.92,52.92,0,0,1,9.9-.37c1.51.14,4.9-.15,6.39.08,1.92.31,1.16,1.7,3,.88a2.06,2.06,0,0,0,1-3.11c-1.29-1.43-3.07-1.63-5.1-1.94-1.66-.26-3.33-.48-5-.64a50.3,50.3,0,0,0-10.19-.09,97.65,97.65,0,0,0-10,1.64c-2.8.6-7.65,1.12-8.66,3.75a1.22,1.22,0,0,0,.45,1.35Z"/></g></g><g class="cls-16"><path class="cls-13" d="M17.09,14.64c1.17,1.67,3.51,2.15,5.4,2.37a16.44,16.44,0,0,0,6.94-.6,2,2,0,0,0-1.06-3.84,27.54,27.54,0,0,1-5.64,1c-1.7.06-3.69-.28-5.33.31a.53.53,0,0,0-.31.77Z"/></g><path class="cls-13" d="M15.18,14.31c.35.88,1.34,1.18,2.17,1.49a2.5,2.5,0,0,0,2.84-.38.53.53,0,0,0,.08-.62,2.65,2.65,0,0,0-2.47-1.2,3.75,3.75,0,0,0-2.54.39.31.31,0,0,0-.08.32Z"/><g class="cls-17"><path class="cls-3" d="M21.94,9.92c1.68,0,3.37.05,5,.18s3.28.61,4.88.37a1,1,0,0,0,.3-2c-1.42-.88-3.75-.84-5.42-.72A16,16,0,0,0,21.65,9c-.53.22-.25.94.29.94Z"/></g><g class="cls-18"><path class="cls-19" d="M15.58,31.16c-2.11,1.92-1.7,5-1,7.44A18.65,18.65,0,0,0,21,47.85a35.42,35.42,0,0,0,12.34,6.56c4.14,1.14,9.42,1.71,13.59.38a3.15,3.15,0,0,0,2.25-3.43,3.11,3.11,0,0,0-3.08-2.72c-1.86.13-3.64.47-5.52.44a22,22,0,0,1-5.1-.69,30.82,30.82,0,0,1-9.89-4.9,26,26,0,0,1-6.2-6.14,18.73,18.73,0,0,1-1.81-3.13,7.84,7.84,0,0,1-.95-2.63.61.61,0,0,0-1-.43Z"/></g><path class="cls-4" d="M35.36,49.34s.71,8.24,4.94,13.47c3.14,3.89,11.65,8.67,17.57,8S70.63,69,75.43,62.93s7-22.67,3.4-24.18S35.36,49.34,35.36,49.34Z"/><g class="cls-20"><path class="cls-21" d="M52.46,54.2c0,.94.6,8.27,2.07,11.67s8.33,7.92,8.33,7.92S37.67,78.46,37,78.25s-8-13.58-8.37-15.25.24-15.35.24-15.35l5.49-3.58Z"/><path class="cls-22" d="M73.37,50.27s-.92,10.43-1.63,15a14.87,14.87,0,0,1-3,7.18S81.64,71.34,82,67.64s.65-20.87.65-20.87L81,40Z"/></g><path class="cls-23" d="M78.4,46.09c-.16.85,1.92,4.35-3,10.12s-18.63,8.44-22.52,8.27-14.92-3-15.71-9S78.4,46.09,78.4,46.09Z"/><path class="cls-24" d="M79.88,39.61c2.55,4.92.7,10.36-3.57,15.22A16.63,16.63,0,0,1,71,58.77,40.57,40.57,0,0,1,61.3,62a43.28,43.28,0,0,1-11.58.76C41,62.1,37.22,56.67,35.81,52.49c-1.05-3.13-1.83-8,5.69-14.21a31.12,31.12,0,0,1,14.93-6.77c5.87-1.06,11.88-.62,16.05,1.44C75.37,34.38,78.66,37.25,79.88,39.61Z"/><path class="cls-25" d="M78.5,39.67c2.1,3,2.55,5.59,0,10.37a17.72,17.72,0,0,1-3.77,4.74,27.42,27.42,0,0,1-4.43,3.09c-5,2.89-11.4,3.9-17.35,3.94a19.75,19.75,0,0,1-7.79-1.6,17,17,0,0,1-5.55-3.87A16.51,16.51,0,0,1,37,53.22c-2.63-4.39.89-10.63,6-14.93,4.35-3.67,9.81-5.4,16-6.07C61,32,68.13,32,72.12,34.3A19.84,19.84,0,0,1,78.5,39.67Z"/><path class="cls-26" d="M77.77,40c2,2.87,2.42,5.27-.06,9.78a16.93,16.93,0,0,1-3.65,4.48,26.32,26.32,0,0,1-4.27,2.93c-4.83,2.76-11,3.73-16.67,3.8a19.51,19.51,0,0,1-7.48-1.48,16.25,16.25,0,0,1-5.31-3.62,15.49,15.49,0,0,1-2.48-2.94c-2.51-4.13.9-10,5.83-14.11C47.88,35.35,53.12,33.7,59,33c1.93-.21,8.8-.28,12.63,1.91A19,19,0,0,1,77.77,40Z"/><path class="cls-19" d="M57.32,41.28c-.37-2.1-.75-4.21-1.12-6.31a.35.35,0,0,0-.19-.31.9.9,0,0,0-.43,0,19,19,0,0,0-10.32,5.24c-.34.36-.67.8-.5,1.13a1.19,1.19,0,0,0,.68.42c2.54.89,5.52,1.31,7.86,2.4.76.36,3.13,1.69,4.37.56C58.34,43.81,57.42,41.85,57.32,41.28Z"/><path class="cls-19" d="M52.31,44.46,44,42.2a1,1,0,0,0-.51,0,.85.85,0,0,0-.36.24c-2.53,2.39-3.49,5.4-2.5,7.86a1.11,1.11,0,0,0,.91.78,3,3,0,0,0,1.05-.17c3.17-1,6.15-2.35,9.38-3.1,1.06-.25,4.59-.91,4.3-2.08C56.12,45.06,53.06,44.66,52.31,44.46Z"/><path class="cls-19" d="M51.06,49l-9.27,2.8a1.06,1.06,0,0,0-.45.23.34.34,0,0,0,0,.31c.73,2.54,3.43,4.65,7.06,5.51a2.56,2.56,0,0,0,1.62,0,1.6,1.6,0,0,0,.65-.61c1.44-2.06,2.22-4.27,4-6.26.57-.65,2.64-2.72,1.06-3.23C54.81,47.49,51.9,48.76,51.06,49Z"/><path class="cls-19" d="M66.31,44.21l9.08-2.47a.73.73,0,0,0,.43-.21c.07-.09,0-.2,0-.3-1-2.55-3.82-5-7.59-6a2.78,2.78,0,0,0-1.67-.14,4,4,0,0,0-1,1.15c-1.23,2-1.54,4-3.08,5.91-.5.62-2.36,2.61-.71,3.16C62.69,45.59,65.5,44.43,66.31,44.21Z"/><path class="cls-19" d="M65.26,48.48l8.22,2.37a.87.87,0,0,0,.51,0,.83.83,0,0,0,.37-.23c2.58-2.37,3.62-5.37,2.7-7.85a1.05,1.05,0,0,0-.88-.79,2.65,2.65,0,0,0-1.06.15c-3.18.92-6.18,2.28-9.42,3-1.07.24-4.6.85-4.35,2C61.48,47.83,64.52,48.27,65.26,48.48Z"/><path class="cls-19" d="M60.22,51.85c.21,2.18.43,4.35.64,6.53,0,.12,0,.26.16.31a.85.85,0,0,0,.42,0,19.66,19.66,0,0,0,10.33-5.51c.36-.38.7-.83.56-1.18s-.36-.33-.62-.43c-2.4-.9-5.25-1.31-7.43-2.43-.72-.36-2.91-1.72-4.19-.54C59.41,49.24,60.16,51.26,60.22,51.85Z"/><path class="cls-13" d="M61,45.9c.07-.57-2.21-1.33-3.65-.6s-1.32,1.74-.26,2.33S60.8,47.83,61,45.9Z"/><path class="cls-19" d="M65.12,34.69c-.49-.64-7.45-.7-7.64-.25s.62,9.38,1.08,9.39,1.1,1.21,2.33-.3S65.68,35.42,65.12,34.69Z"/><path class="cls-19" d="M59.91,59c.48-.31-.53-9.8-1-9.92s-1.79-.94-2.39.54-1.83,2.46-2.89,4.22-2.71,4.23-2.09,4.67S59,59.6,59.91,59Z"/><g class="cls-27"><path class="cls-28" d="M56.12,45c.86-1.09.15-2.32-.22-3.49s-.67-2.14-1-3.21a8.61,8.61,0,0,0-.55-1.94c.14-.52,0-.64-.43-.33-.33.12-.65.24-1,.38a23.31,23.31,0,0,0-2.87,1.44,22.25,22.25,0,0,0-2.89,2c-.31.25-1.2.74-.82,1.26a5,5,0,0,0,1.42.31c1.8.26,6.86,2.18,8.08,3.55.24.28-3.91-1.13-4.26-1.22a32.81,32.81,0,0,0-5.32-.78c-1.14-.12-2.13-.65-2.24-1.9-.13-1.63,1.45-2.67,2.59-3.51a26.34,26.34,0,0,1,5-2.9c1-.44,2.6-1.38,3.69-.66,1.24.81,1.43,3.51,1.77,4.81.29,1.11,2.45,7.48-.86,6.71a.36.36,0,0,1-.2-.53Z"/></g><g class="cls-29"><path class="cls-28" d="M55.71,45.94a28.28,28.28,0,0,1-6.42-.59c-1.16-.23-2.26-.64-3.38-1a6.79,6.79,0,0,0-2-.48c-.64.16-.78.77-1,1.36a7.24,7.24,0,0,0-.54,3.37c.25.85.57.55,1.37.31.61-.17,1.63-.42,2.22-.65,2.05-.82,8.14-2.67,10.38-2.45.72.07-.16.52-.71.91C54,47.9,48.67,49.23,46.82,50c-1.3.51-3,1.66-4.4,1.56-2.9-.19-2.25-4.25-1.74-6.1.3-1.07.84-2.58,1.85-3.2s2.82,0,3.94.37A28.6,28.6,0,0,0,51.86,44c1.47.18,3,.28,4.18,1.26.33.26,0,.7-.33.72Z"/></g><g class="cls-30"><path class="cls-28" d="M54.05,48.09,54,47.91a.44.44,0,0,1,.22-.49c1.38-.86,2.14.79,1.88,2A18.12,18.12,0,0,1,54.56,53a36.45,36.45,0,0,1-1.92,4C51.45,58.92,49,59.09,47,58.56s-5-2.18-5.73-4.11c-.27-.69-1-2.85-.24-2.64,1.4.37,3.62,3.12,4.87,3.84a6.47,6.47,0,0,0,2.44.89,2.43,2.43,0,0,0,2.78-1.31c.85-1.43,1.51-3,2.29-4.46.35-.66,1.29-1.86.8-2.54,0-.07-.14,0-.18-.14Z"/></g><g class="cls-31"><path class="cls-28" d="M66.74,34.91c2.06-1,4.75.76,6.27,2.08,1.13,1,4.14,3.91,2.29,5.37-1.12.89-3,1.12-4.38,1.42a31,31,0,0,0-5.37,1.95c-1.16.49-2.48,1.05-3.72.5a1.88,1.88,0,0,1-1.2-2.42.85.85,0,0,1,1.42-.32c1.4,1.59,4.36-.23,6-.79A20.22,20.22,0,0,1,71,42c.48-.09,2.53-.5,2.83-.95.65-1-2.28-3.23-3-3.71-1.29-.85-2.92-1.13-4.11-2.12a.18.18,0,0,1,0-.29Z"/></g><g class="cls-32"><path class="cls-28" d="M74.85,42.05c.85-.22,1.52-1,2.43-.43s.87,1.89.91,2.75c.08,2.17-.56,5.9-3,6.7A8.9,8.9,0,0,1,70.93,51c-1.76-.33-3.51-.73-5.27-1.1-1.3-.28-2.87-.44-3.76-1.57a1.77,1.77,0,0,1,0-2.49c.27-.29.46-.09.61.3.72,1.84,3.33,1.69,5,2a34.4,34.4,0,0,0,5.93,1c2.17.05,2.72-2.53,2.92-4.3a4.45,4.45,0,0,0,.05-1.41c-.15-.63-.15-.63-.57-.83s-1.43.1-1.84-.19c-.17-.12.62-.32.83-.38Z"/></g><g class="cls-33"><path class="cls-28" d="M61.36,48.69c-1.09.21.3,4.76.44,5.43a15.61,15.61,0,0,0,.37,2c-.07.61.21.94.85,1a6.93,6.93,0,0,0,1.1-.68,18.33,18.33,0,0,1,3.17-1.87,11.37,11.37,0,0,0,2-1A8.58,8.58,0,0,0,71,51.75l0-.08a1,1,0,0,1,1.37-.31l.14.08a1.06,1.06,0,0,1,.33,1.45,10.61,10.61,0,0,1-2.6,2.49c-1.14.75-2.47,1.1-3.64,1.79C65.22,58,62.87,60.38,61,59c-.84-.64-.83-2.15-1-3.1-.28-1.74-.6-3.5-.77-5.26-.15-1.44.29-3.3,2.13-2.84a.48.48,0,0,1,0,.91Z"/></g><g class="cls-34"><path class="cls-28" d="M62.48,33.9a6.68,6.68,0,0,1-2.34.69c-.53.12-1.66.28-1.88.9-.1.31.27,1,.34,1.33A30.39,30.39,0,0,1,58.93,40c.19,1.45-.34,2.89,1.26,3.61.66.31,1.24,1.08.53,1.32a2.39,2.39,0,0,1-2.9-1.59,16.1,16.1,0,0,1-.53-3.54c-.18-1.19-.49-2.34-.69-3.52s-.07-2.13,1.08-2.63c1.31-.56,3.64-.83,4.81.11a.09.09,0,0,1,0,.15Z"/></g><g class="cls-35"><path class="cls-28" d="M57.29,48.8c.33-1.61,1.9-.48,2.35.38a15,15,0,0,1,1.53,7.14c-.06,1.71-.69,3.09-2.51,3.36s-5.87.14-7-1.42a.67.67,0,0,1,.17-1c1-.45,1.79-.13,2.86.06.84.14,3.69.84,4.33-.06s-.37-8.46-1.43-8.13c-.19.06-.31-.14-.28-.3Z"/></g><g class="cls-36"><path class="cls-13" d="M49.65,42.41c.16-5.34,7.47-7.36,11.75-6.81,5.16.67,11.48,4.51,11.2,10.42-.07,1.45-.61,3.18-2,3.91a3.12,3.12,0,0,1-3.75-.61c-.76-.81-.91-2-1.36-3a5.93,5.93,0,0,0-1.74-2.26,9.88,9.88,0,0,0-5.93-1.94c-2.35,0-4.42,1.24-6.71,1.54a1.24,1.24,0,0,1-1.49-1.24Z"/></g><g class="cls-37"><path class="cls-13" d="M70.77,52.68a8.92,8.92,0,0,1-4.26-1.39.15.15,0,0,1,.13-.26,27.08,27.08,0,0,1,4.19,1.48c.08,0,0,.17-.06.17Z"/></g><g class="cls-38"><path class="cls-13" d="M69.52,54a7.61,7.61,0,0,1-1.72-.84A5.84,5.84,0,0,1,66.29,52c-.07-.09,0-.27.14-.22a8.37,8.37,0,0,1,1.62,1A12.18,12.18,0,0,1,69.56,54s0,.06,0,.06Z"/></g><g class="cls-39"><path class="cls-13" d="M62.84,51.65a10.16,10.16,0,0,1,1.4,3.49c0,.16-.21.28-.29.11-.53-1.13-.74-2.39-1.2-3.54,0-.07.06-.12.09-.06Z"/></g><path class="cls-13" d="M56.93,53.48a8.38,8.38,0,0,1-.82,3.63.14.14,0,0,1-.25-.08c.17-1.21.71-2.36,1-3.57a.06.06,0,0,1,.12,0Z"/><g class="cls-37"><path class="cls-13" d="M55.8,53.53a8.06,8.06,0,0,1-1.24,2.75c0,.06-.15,0-.12-.05.36-.93.89-1.8,1.28-2.72,0,0,.1,0,.08,0Z"/></g><g class="cls-38"><path class="cls-13" d="M51.18,51.88A16,16,0,0,1,48.86,55c-.11.1-.24,0-.19-.15A17.08,17.08,0,0,1,51,51.74c.08-.09.23,0,.16.14Z"/></g><g class="cls-37"><path class="cls-13" d="M49.56,51.54a6.86,6.86,0,0,1-2.8,2c-.11,0-.2-.14-.11-.21.89-.68,1.91-1.26,2.86-1.85,0,0,.07,0,.05.07Z"/></g><path class="cls-13" d="M47.81,51.57a18,18,0,0,1-1.63.85.06.06,0,0,1,0-.1c.5-.36,1-.65,1.56-1,.14-.07.25.14.12.21Z"/><path class="cls-13" d="M48.26,45.41a7,7,0,0,0-2.62-.56,13.87,13.87,0,0,1-2-.34c-.08,0-.08-.17,0-.17a9,9,0,0,1,2.54.23,3.56,3.56,0,0,1,2.1.83s0,0,0,0Z"/><g class="cls-37"><path class="cls-13" d="M47.07,46.23a10.58,10.58,0,0,1-2.25,0c-.12,0-.08-.17,0-.2a4.56,4.56,0,0,1,2.26.06c.09,0,0,.14,0,.14Z"/></g><path class="cls-13" d="M54.31,41.87a9.11,9.11,0,0,0-1-1.11,6.78,6.78,0,0,1-1.1-1,.13.13,0,0,1,.13-.21c1,.27,1.72,1.37,2.23,2.2.08.13-.12.28-.22.16Z"/><g class="cls-37"><path class="cls-13" d="M62.38,35.43a2.69,2.69,0,0,1-.19,1.48c-.2.57-.33,1.16-.58,1.71-.1.22-.39.06-.4-.13a3.37,3.37,0,0,1,.37-1.58,9.19,9.19,0,0,0,.72-1.48,0,0,0,0,1,.08,0Z"/></g><path class="cls-13" d="M67.94,37.56a11.27,11.27,0,0,1-2.3,3.09c-.09.08-.19,0-.15-.12a11.61,11.61,0,0,1,2.36-3.05.06.06,0,0,1,.09.08Z"/><g class="cls-38"><path class="cls-13" d="M67.51,39.66a7.69,7.69,0,0,1-2.66,3c-.08,0-.19-.06-.13-.14.78-1.06,1.89-1.88,2.76-2.87,0,0,0,0,0,0Z"/></g><g class="cls-38"><path class="cls-13" d="M74.6,46.06a9.23,9.23,0,0,1-4.69.28c-.14,0-.13-.26,0-.29a17.75,17.75,0,0,1,2.19-.1c.82,0,1.64-.1,2.46-.07a.09.09,0,0,1,0,.18Z"/></g><path class="cls-13" d="M74.49,47.39a6.38,6.38,0,0,1-2.85,0,.11.11,0,0,1,0-.22,7.39,7.39,0,0,1,1.33,0c.5,0,1,0,1.49,0,.12,0,.13.18,0,.2Z"/></g></g></g></svg>