<svg xmlns="http://www.w3.org/2000/svg" xmlns:xlink="http://www.w3.org/1999/xlink" viewBox="0 0 112.78 82.86"><defs><style>.cls-1{fill:#ea3017;}.cls-2{fill:none;}.cls-3{fill:#ec801e;}.cls-4{fill:#b56217;}.cls-5{fill:#ec931e;}.cls-6{isolation:isolate;}.cls-7{clip-path:url(#clip-path);}.cls-8{opacity:0.2;}.cls-9{fill:#ba044a;}.cls-10{opacity:0.26;}.cls-11{fill:#bc0902;}.cls-12{opacity:0.29;}.cls-12,.cls-36,.cls-41{mix-blend-mode:screen;}.cls-13{fill:#fe6e27;}.cls-14{opacity:0.49;}.cls-15{fill:#b60807;}.cls-16{fill:#fea489;}.cls-17{fill:#4e691c;}.cls-18{fill:#415613;}.cls-19{fill:#67822b;}.cls-20{fill:#fff;}.cls-21{fill:#e74b1b;}.cls-22{fill:#fecda4;}.cls-23{opacity:0.55;}.cls-24{fill:#ffe793;}.cls-25{fill:#feca90;}.cls-26{fill:#d51f12;}.cls-27{clip-path:url(#clip-path-2);}.cls-28,.cls-30{fill:#ff8d4f;}.cls-28,.cls-29{opacity:0.4;}.cls-31{fill:#e5411c;}.cls-32{fill:#f46f40;}.cls-33{fill:#fff29a;}.cls-34{fill:#ffe76d;}.cls-35{fill:#fec085;}.cls-36{opacity:0.41;}.cls-37{fill:#fd6f3d;}.cls-38{fill:#db270c;}.cls-39{fill:#335606;}.cls-40{clip-path:url(#clip-path-3);}.cls-41{opacity:0.32;}.cls-42{fill:#ffc188;}.cls-43{opacity:0.36;}.cls-44{clip-path:url(#clip-path-4);}.cls-45{clip-path:url(#clip-path-5);}.cls-46{opacity:0.48;}.cls-47{clip-path:url(#clip-path-6);}.cls-48{clip-path:url(#clip-path-7);}.cls-49{clip-path:url(#clip-path-8);}.cls-50{clip-path:url(#clip-path-9);}.cls-51{clip-path:url(#clip-path-10);}.cls-52{opacity:0.58;}.cls-53{clip-path:url(#clip-path-11);}.cls-54{clip-path:url(#clip-path-12);}.cls-55{clip-path:url(#clip-path-13);}.cls-56{clip-path:url(#clip-path-14);}.cls-57{fill:#c8976b;}.cls-58{clip-path:url(#clip-path-15);}.cls-59{fill:#fc8;}.cls-60{clip-path:url(#clip-path-16);}.cls-61{clip-path:url(#clip-path-17);}.cls-62{clip-path:url(#clip-path-18);}.cls-63{clip-path:url(#clip-path-19);}.cls-64{clip-path:url(#clip-path-20);}.cls-65{clip-path:url(#clip-path-21);}.cls-66{clip-path:url(#clip-path-22);}.cls-67{clip-path:url(#clip-path-23);}.cls-68{clip-path:url(#clip-path-24);}.cls-69{clip-path:url(#clip-path-25);}.cls-70{fill:#f87048;}.cls-71{fill:#fefcfd;}.cls-72{fill:#fff5cc;}</style><clipPath id="clip-path"><path class="cls-1" d="M38.34,19.41a19.58,19.58,0,0,0-5.29,4.43,24.3,24.3,0,0,0-5.73,17.07,21.66,21.66,0,0,0,8.47,15.76,28.38,28.38,0,0,0,7.71,3.84,46.75,46.75,0,0,0,30.26-.09,23.58,23.58,0,0,0,5.91-2.86c3.5-2.47,5.86-6.26,7.67-10.14a34.94,34.94,0,0,0,2.48-6.79,27,27,0,0,0,.71-5.37A22,22,0,0,0,80,15.9C73.14,11.85,54.35,10.42,38.34,19.41Z"/></clipPath><clipPath id="clip-path-2"><path class="cls-2" d="M79.44,34.62c-4.84-2.08-10.15-3.92-15.3-2.77a18.11,18.11,0,0,0-6.25,2.9,24.25,24.25,0,0,0-10,15A21.62,21.62,0,0,0,52,67.16a28.13,28.13,0,0,0,6.44,5.72,46.77,46.77,0,0,0,29.24,7.79,23.91,23.91,0,0,0,6.45-1.23c4-1.48,7.28-4.52,10-7.79a35.69,35.69,0,0,0,4.15-5.91,26.51,26.51,0,0,0,2.09-5c2.24-7.44.75-16.38-5.15-21.44-4.37-3.75-10.63-4.9-16.26-3.69a19.34,19.34,0,0,1-3.68.66A14.57,14.57,0,0,1,79.44,34.62Z"/></clipPath><clipPath id="clip-path-3"><path class="cls-3" d="M88.79,44.64a1.07,1.07,0,0,1,1.49.41,2.75,2.75,0,0,1-.53,2.66,15.25,15.25,0,0,1-1.55,1.95A4.91,4.91,0,0,1,88,45.79,1.87,1.87,0,0,1,88.79,44.64Z"/></clipPath><clipPath id="clip-path-4"><path class="cls-3" d="M73.66,42.48a1.08,1.08,0,0,1,1.55.07,2.74,2.74,0,0,1,.09,2.71,14.48,14.48,0,0,1-1.07,2.25,4.94,4.94,0,0,1-1.08-3.72A1.88,1.88,0,0,1,73.66,42.48Z"/></clipPath><clipPath id="clip-path-5"><path class="cls-3" d="M69.24,42.58a.94.94,0,0,1,1.34-.15A2.37,2.37,0,0,1,71,44.75a13.46,13.46,0,0,1-.62,2.08A4.25,4.25,0,0,1,69,43.77,1.54,1.54,0,0,1,69.24,42.58Z"/></clipPath><clipPath id="clip-path-6"><path class="cls-3" d="M62.39,44.68a.72.72,0,0,1,.85-.59c.62.13,1,.8,1.14,1.41a9.1,9.1,0,0,1,.35,1.63,3.27,3.27,0,0,1-2.09-1.54A1.22,1.22,0,0,1,62.39,44.68Z"/></clipPath><clipPath id="clip-path-7"><path class="cls-3" d="M96.94,47.62a.73.73,0,0,1,.68.79c-.06.63-.69,1-1.28,1.28a9.85,9.85,0,0,1-1.59.52A3.3,3.3,0,0,1,96.07,48,1.27,1.27,0,0,1,96.94,47.62Z"/></clipPath><clipPath id="clip-path-8"><path class="cls-3" d="M99.92,57.1a.72.72,0,0,1-.31,1,1.86,1.86,0,0,1-1.77-.43,8.72,8.72,0,0,1-1.26-1.09,3.28,3.28,0,0,1,2.59,0A1.18,1.18,0,0,1,99.92,57.1Z"/></clipPath><clipPath id="clip-path-9"><path class="cls-3" d="M60.35,58.08a.71.71,0,0,1-.39-.95c.25-.59,1-.77,1.62-.82a8.37,8.37,0,0,1,1.66,0,3.22,3.22,0,0,1-2,1.7A1.18,1.18,0,0,1,60.35,58.08Z"/></clipPath><clipPath id="clip-path-10"><path class="cls-3" d="M95.44,65.31a.7.7,0,0,1-.93.44,1.79,1.79,0,0,1-.89-1.58,9.3,9.3,0,0,1-.07-1.67,3.28,3.28,0,0,1,1.79,1.88A1.16,1.16,0,0,1,95.44,65.31Z"/></clipPath><clipPath id="clip-path-11"><path class="cls-3" d="M64.4,43.66a.93.93,0,0,1,1.2-.59,2.36,2.36,0,0,1,1.21,2,13.05,13.05,0,0,1,.13,2.16,4.27,4.27,0,0,1-2.39-2.38A1.59,1.59,0,0,1,64.4,43.66Z"/></clipPath><clipPath id="clip-path-12"><path class="cls-3" d="M60.05,47.53a1,1,0,0,1,.56-1.23,2.4,2.4,0,0,1,2.22.8,13,13,0,0,1,1.47,1.59,4.25,4.25,0,0,1-3.36-.33A1.61,1.61,0,0,1,60.05,47.53Z"/></clipPath><clipPath id="clip-path-13"><path class="cls-3" d="M58.7,52.62a.93.93,0,0,1-.11-1.34,2.39,2.39,0,0,1,2.33-.38,13.39,13.39,0,0,1,2.06.67,4.25,4.25,0,0,1-3.09,1.35A1.6,1.6,0,0,1,58.7,52.62Z"/></clipPath><clipPath id="clip-path-14"><path class="cls-4" d="M58.94,55.69a.93.93,0,0,1-.25-1.32A2.36,2.36,0,0,1,61,53.76a12.69,12.69,0,0,1,2.12.45,4.31,4.31,0,0,1-2.94,1.66A1.59,1.59,0,0,1,58.94,55.69Z"/></clipPath><clipPath id="clip-path-15"><path class="cls-5" d="M61.33,60.88a.93.93,0,0,1-.69-1.15c.23-.8,1.13-1.17,1.94-1.36a12.82,12.82,0,0,1,2.14-.3,4.29,4.29,0,0,1-2.19,2.57A1.62,1.62,0,0,1,61.33,60.88Z"/></clipPath><clipPath id="clip-path-16"><path class="cls-3" d="M64.1,63.74a.75.75,0,0,1-.75-.76c0-.65.65-1.11,1.24-1.4a11.08,11.08,0,0,1,1.6-.63A3.37,3.37,0,0,1,65,63.33,1.21,1.21,0,0,1,64.1,63.74Z"/></clipPath><clipPath id="clip-path-17"><path class="cls-3" d="M67.17,65.79a.74.74,0,0,1-.91-.56c-.14-.64.36-1.23.85-1.66a9.89,9.89,0,0,1,1.4-1,3.36,3.36,0,0,1-.6,2.6A1.19,1.19,0,0,1,67.17,65.79Z"/></clipPath><clipPath id="clip-path-18"><path class="cls-4" d="M93.86,46a1.08,1.08,0,0,1,1.27.88,2.71,2.71,0,0,1-1.37,2.34,13.58,13.58,0,0,1-2.1,1.34,4.91,4.91,0,0,1,1.07-3.72A1.82,1.82,0,0,1,93.86,46Z"/></clipPath><clipPath id="clip-path-19"><path class="cls-3" d="M99,49.94a1.08,1.08,0,0,1,.55,1.44,2.74,2.74,0,0,1-2.46,1.15,13.84,13.84,0,0,1-2.49-.1,4.9,4.9,0,0,1,3-2.45A1.79,1.79,0,0,1,99,49.94Z"/></clipPath><clipPath id="clip-path-20"><path class="cls-3" d="M100.09,53.92a.85.85,0,0,1,.17,1.22,2.19,2.19,0,0,1-2.1.47,11.28,11.28,0,0,1-1.92-.5A3.91,3.91,0,0,1,99,53.71,1.47,1.47,0,0,1,100.09,53.92Z"/></clipPath><clipPath id="clip-path-21"><path class="cls-5" d="M99.46,59.18a1,1,0,0,1-.25,1.37,2.46,2.46,0,0,1-2.44-.26,13,13,0,0,1-1.88-1.24,4.49,4.49,0,0,1,3.47-.5A1.66,1.66,0,0,1,99.46,59.18Z"/></clipPath><clipPath id="clip-path-22"><path class="cls-3" d="M97.77,63.46a1,1,0,0,1-1,1c-.86,0-1.48-.8-1.89-1.56A13.4,13.4,0,0,1,94,60.83a4.38,4.38,0,0,1,3.16,1.5A1.64,1.64,0,0,1,97.77,63.46Z"/></clipPath><clipPath id="clip-path-23"><path class="cls-3" d="M91.17,69.3a1,1,0,0,1-1.35.34A2.48,2.48,0,0,1,89,67.32a12.92,12.92,0,0,1,.34-2.23A4.4,4.4,0,0,1,91.27,68,1.67,1.67,0,0,1,91.17,69.3Z"/></clipPath><clipPath id="clip-path-24"><path class="cls-3" d="M86.15,70.26A.78.78,0,0,1,85,70.15a2,2,0,0,1,0-2,11.87,11.87,0,0,1,.87-1.61,3.6,3.6,0,0,1,.64,2.77A1.32,1.32,0,0,1,86.15,70.26Z"/></clipPath><clipPath id="clip-path-25"><path class="cls-3" d="M94.07,67.29a.77.77,0,0,1-1,.42A1.92,1.92,0,0,1,92.18,66a10.46,10.46,0,0,1,0-1.77A3.46,3.46,0,0,1,94,66.3,1.25,1.25,0,0,1,94.07,67.29Z"/></clipPath></defs><title>tomate</title><g class="cls-6"><g id="Capa_2" data-name="Capa 2"><g id="Edicion"><path class="cls-1" d="M38.34,19.41a19.58,19.58,0,0,0-5.29,4.43,24.3,24.3,0,0,0-5.73,17.07,21.66,21.66,0,0,0,8.47,15.76,28.38,28.38,0,0,0,7.71,3.84,46.75,46.75,0,0,0,30.26-.09,23.58,23.58,0,0,0,5.91-2.86c3.5-2.47,5.86-6.26,7.67-10.14a34.94,34.94,0,0,0,2.48-6.79,27,27,0,0,0,.71-5.37A22,22,0,0,0,80,15.9C73.14,11.85,54.35,10.42,38.34,19.41Z"/><g class="cls-7"><g class="cls-8"><path class="cls-9" d="M70.21,9.73c.84-4.49-4.55-5.93-7.85-6-6.85-.14-28.14,9.56-32.42,14.46-7.87,9-5.34,23.11-2.51,34.18,3,11.68,22.47,15.17,33.39,20.2,9.57,4.41,22.56,4.55,31.65-.93,6-3.65,5.1-12.51-2.31-13.69-3.58-.58,1.83-5-1.78-5.25-3.07-.21-14.71.21-19.61-1.63C56.11,46.32,56.42,37.15,56.34,34.42,56.24,31,56.53,27,58.19,24a27.46,27.46,0,0,1,7.68-8.75,12.89,12.89,0,0,0,3.28-3.35c1-1.71-2,1.51,0-.12a3.22,3.22,0,0,0,1.07-2Z"/></g><g class="cls-10"><path class="cls-11" d="M66.32,9.41C67.16,4.92,54,5.64,50.72,5.57,43.87,5.43,22.58,15.13,18.3,20,10.43,29,13,43.14,15.78,54.21c3,11.68,22.47,15.16,33.4,20.2,9.57,4.4,22.55,4.55,31.65-.94,6-3.64,14.34-16.32,6.93-17.5C84.18,55.4,72.58,57.4,69,57c-16.34-1.84-21.23-8.6-22.46-11.78a33.64,33.64,0,0,1-1.82-9c-.1-3.39.88-11.14,2.83-14,5.76-8.38,15-11,15.15-11.85Z"/></g><g class="cls-10"><path class="cls-11" d="M57.6,11.28C58.44,6.79,45.29,7.51,42,7.44,35.14,7.3,13.86,17,9.58,21.89,1.71,30.89,4.24,45,7.06,56.07c3,11.69,22.47,15.17,33.4,20.2C50,80.68,63,80.83,72.11,75.34c6-3.64,5.09-12.51-2.31-13.69-3.58-.57-7.07-.76-10.69-1a55.66,55.66,0,0,1-9-1.36,17,17,0,0,1-7.61-4.15c-1.66-1.38-3.53-4.87-4.75-8.05a33.24,33.24,0,0,1-1.83-9c-.1-3.39.89-11.13,2.84-14,5.76-8.38,15-11,15.14-11.85Z"/></g><g class="cls-10"><path class="cls-11" d="M53.29,11.23C54.13,6.74,41,7.46,37.68,7.39,30.83,7.25,9.55,17,5.27,21.84-2.6,30.84-.08,45,2.75,56c3,11.68,22.47,15.16,33.4,20.2,9.56,4.4,22.55,4.55,31.65-.94,6-3.64,5.09-12.5-2.31-13.69-3.58-.57-7.08-.76-10.69-1a56.66,56.66,0,0,1-8.95-1.37,17,17,0,0,1-7.61-4.15c-1.66-1.38-3.53-4.87-4.75-8a33.25,33.25,0,0,1-1.83-9c-.1-3.4.89-11.14,2.84-14,5.76-8.38,15-11,15.14-11.85Z"/></g></g><g class="cls-12"><path class="cls-13" d="M53.33,25.41c.83.57,4,1.82,5.74,2.78a28.18,28.18,0,0,1,6.85,5.1c1.11,1.1,1.49,4.1,1.22,5.45-.64,3.21-3.06,7-2.72,11.31a7.17,7.17,0,0,0,7,7c9.36.45,14-8.8,14.55-16.88a23.36,23.36,0,0,0-7.87-19.07C73.52,17.17,65.9,14.2,59.8,15.58c-2.25.51-6,1.58-7.09,3.92-.89,1.94-1.46,4.48.62,5.91Z"/></g><g class="cls-14"><path class="cls-13" d="M63,27.75c2.42.57,4.4,1.47,7,1.28,3.17-.23,7.13-.75,9.22-3.4,1.42-1.8,2.25-3.73,1.6-6.07a6.29,6.29,0,0,0-6-4.59c-2.92,0-4.75,1.44-7.15,2.76A24.46,24.46,0,0,1,63,20.07c-3.72,1-3.9,6.76,0,7.68Z"/></g><g class="cls-14"><path class="cls-15" d="M32.64,35c-3.24,4.83-1.58,12.67,1.8,17.05,3.83,5,11.26,8.66,17.47,6.1,3.37-1.39,4.17-5.45,1-7.63s-7-2.38-10.22-4.2-6-7.43-6.62-10.87c-.33-1.72-2.61-1.68-3.43-.45Z"/></g><path class="cls-16" d="M73.39,31.13a11.89,11.89,0,0,0,5.07-.22c2.58-.63,5.42-3.05,5-6-.29-2.21-1.62-4-4-4-2.6,0-4.21,1.66-5.53,3.63-.35.5-.64,1-1,1.54.4-.58-.12.12-.2.21a3.37,3.37,0,0,1-.53.47c-1.52,1.2-.65,4,1.16,4.38Z"/><path class="cls-17" d="M33.44,18.07a18.23,18.23,0,0,1,6.2.36c2,.47,3.62,1.5,5.67,1.7,2.93.29,7,.63,9.09-1.81a2.16,2.16,0,0,0,0-3c-2.66-2.88-6.54-.85-9.72.14-2.22.68-4.91.32-7.22.62a13.89,13.89,0,0,0-4.16,1.44.29.29,0,0,0,.14.54Z"/><path class="cls-17" d="M43.55,5.14c-2.46,6.17,3.62,9.37,7.14,13.23,2.61,2.85,6.74-2,3.34-4.33a35.06,35.06,0,0,0-5-2.89c-2.11-1-4.08-3-3.68-5.51a1,1,0,0,0-1.84-.5Z"/><path class="cls-17" d="M72.07,8.5c-8-3.36-13.47,4.07-20.54,5.52-3.55.73-1.64,6.45,2,4.81a51.14,51.14,0,0,0,8.35-5.21c3.19-2.23,6.73-2,10.16-3.44a.88.88,0,0,0,0-1.68Z"/><path class="cls-17" d="M69.26,14.26a11.76,11.76,0,0,1-11,2.64c-2.1-.56-6.76-2.78-8.56-.51-2,2.48,1.46,6,3.54,3.53l.08-.11-1.76.74c4.39-.38,8.17,1.44,12.61.33A8.66,8.66,0,0,0,70.52,15a.76.76,0,0,0-1.26-.72Z"/><path class="cls-17" d="M42.7,26.6A11.59,11.59,0,0,0,48.48,25a18.72,18.72,0,0,0,2.8-1.79,24.23,24.23,0,0,1,2.61-2.19,3.15,3.15,0,1,0-4.74-2.72c-.24,2.94-4,6.16-6.66,6.72-.92.19-.64,1.51.21,1.55Z"/><path class="cls-18" d="M57.35.16c-4.63,4.09-5.57,10.44-5.23,16.26.2,3.44,5.49,2.19,4-1.09C54.24,11.15,57,4.77,58.44.8c.25-.66-.64-1-1.09-.64Z"/><path class="cls-18" d="M56.05,3.53a3,3,0,0,0-3.37,1.36,3.25,3.25,0,0,0,0,3.22c1.3,2.61,5.58,1.38,5.45-1.47A4.42,4.42,0,0,0,58,5.75c-.09-.23-.19-.47-.29-.7.33,1.44.4,1.59.22.44a2.78,2.78,0,0,0-1.91-2Z"/><path class="cls-18" d="M44.92,11.91a9.79,9.79,0,0,0,6.46,4.93.51.51,0,0,0,.39-.92c-2.1-1.54-4.73-2.09-6.33-4.32a.3.3,0,0,0-.52.31Z"/><path class="cls-18" d="M70.75,10.08c-3.91-1.18-9.48,1.19-12.17,4.05a.54.54,0,0,0,.66.85c1.7-.74,3.26-1.73,4.94-2.53a49.12,49.12,0,0,1,6.57-2.08.15.15,0,0,0,0-.29Z"/><path class="cls-18" d="M55.49,19.72c3.32,2.76,8.74,1.79,11.6-1.17a.51.51,0,0,0-.62-.8c-3.66,2-6.73,2.82-10.83,1.72-.14,0-.27.16-.15.25Z"/><path class="cls-18" d="M47.27,23.24c1.34-1.54,3.68-3,3.66-5.25a.44.44,0,0,0-.81-.23c-.56.87-1,1.81-1.57,2.66A26.22,26.22,0,0,0,47,23c-.11.2.16.43.32.25Z"/><path class="cls-18" d="M41.4,16.48a8,8,0,0,0,4.12.48c.65-.07,1.28-.22,1.92-.35,1.14-.22,2.22-.07,3.36-.18.52-.05.88-.83.3-1.1-3.07-1.41-6.53,1.37-9.69,1.1,0,0,0,0,0,.05Z"/><path class="cls-19" d="M37.53,17.51c1.27.11,2.51.41,3.77.54.32,0,.36-.44.08-.53a9.27,9.27,0,0,0-3.85-.28.14.14,0,1,0,0,.27Z"/><path class="cls-19" d="M39.87,16.94a6.89,6.89,0,0,0,1.81.08.27.27,0,0,0,0-.52,6.89,6.89,0,0,0-1.81.08.18.18,0,0,0,0,.36Z"/><path class="cls-19" d="M42.75,18a5,5,0,0,0,3.44.5.34.34,0,0,0,0-.66c-1.06-.33-2.25,0-3.36-.14-.16,0-.22.24-.08.3Z"/><path class="cls-19" d="M44.53,7.94c-.41,2.05,2.16,4.51,4,4.93.46.1.94-.52.5-.87-.67-.53-1.39-1-2.08-1.5s-2-1.45-2.12-2.52c0-.16-.26-.22-.29,0Z"/><path class="cls-19" d="M56.49,14.66c.63-1.1,2.08-1.5,3.07-2.18a.37.37,0,0,0-.28-.67,3.78,3.78,0,0,0-3,2.81c0,.08.12.1.16,0Z"/><path class="cls-17" d="M54.62,7.85c1.34.64,2.77-1.12,2.13-2.38a.76.76,0,0,0-1.29,0c-.35.51,0,1.57-.76,1.78-.26.08-.35.48-.08.6Z"/><path class="cls-17" d="M54.09,10.86c-1.43,1.48-.69,4.38.38,5.83a.48.48,0,0,0,.87-.36c-.17-.86-.42-1.69-.6-2.55A18,18,0,0,1,54.53,11a.26.26,0,0,0-.44-.18Z"/><path class="cls-17" d="M56.4,3.79,56.34,4c-.05.14.2.14.15,0l-.06-.18s0,0,0,0Z"/><path class="cls-17" d="M56.25,4.14c.62-.26,1-1.15,1.44-1.67.26-.34-.23-.76-.56-.56-.63.37-1.37,1.34-1.06,2.13a.15.15,0,0,0,.18.1Z"/><path class="cls-20" d="M79.6,25.57a2.89,2.89,0,1,0-2.89-2.89,2.92,2.92,0,0,0,2.89,2.89Z"/><path class="cls-21" d="M79.44,34.62c-4.84-2.08-10.15-3.92-15.3-2.77a18.11,18.11,0,0,0-6.25,2.9,24.25,24.25,0,0,0-10,15A21.62,21.62,0,0,0,52,67.16a28.13,28.13,0,0,0,6.44,5.72,46.77,46.77,0,0,0,29.24,7.79,23.91,23.91,0,0,0,6.45-1.23c4-1.48,7.28-4.52,10-7.79a35.69,35.69,0,0,0,4.15-5.91,26.51,26.51,0,0,0,2.09-5c2.24-7.44.75-16.38-5.15-21.44-4.37-3.75-10.63-4.9-16.26-3.69a19.34,19.34,0,0,1-3.68.66A14.57,14.57,0,0,1,79.44,34.62Z"/><path class="cls-22" d="M76.07,49.33c-4.66,1-8.32,7.23-8.12,11.7a9.11,9.11,0,0,0,6.57,8.63c4.44,1.22,10-1.47,11-6.25a12,12,0,0,0,.09-5.27c-.09-.45-.16-.9-.22-1.35l.3,2.27A14.67,14.67,0,0,0,84,52.92a7.11,7.11,0,0,0-7.91-3.59Z"/><g class="cls-23"><path class="cls-24" d="M79,49.92a16.08,16.08,0,0,0-.49,2c-.12.71-.21,1.43-.28,2.14A6.65,6.65,0,0,0,79,57.4a5,5,0,0,0,3.1,2.38,5.2,5.2,0,0,0,4-.52c2.76-1.61,3.57-5.89,1-8.13A9.65,9.65,0,0,0,86,50.2l-1.23-.52c1,.42,1.2.51.73.29-.29-.14-.57-.31-.86-.47l-.8-.53-.42-.3c.71.53.26.2.1.07A2.71,2.71,0,0,0,79,49.92Z"/></g><g class="cls-23"><path class="cls-24" d="M76.24,47.38C73.8,46.93,70.7,46.87,69,49a5.79,5.79,0,0,0-1.58,3.8,5.39,5.39,0,0,0,9.19,3.81,7.78,7.78,0,0,0,1.7-2.93L77.78,55A23,23,0,0,0,78.88,52a3.78,3.78,0,0,0-2.64-4.65Z"/></g><g class="cls-23"><path class="cls-25" d="M74.6,58.42c1.17-2.83.18-6.44-1-9.08s-5-3.28-7.31-1.92a5.4,5.4,0,0,0-1.91,7.31c1.27,2.26,2,4.66,4.41,6.06s4.88-.06,5.85-2.37Z"/></g><g class="cls-23"><path class="cls-25" d="M79.77,63.06c1.64,1.85,4.81,1.59,6.88.8a26.17,26.17,0,0,0,3.28-1.49c.64-.36,1.18-.89,1.81-1.27a6.76,6.76,0,1,0-9.25-9.25,21.26,21.26,0,0,0-1,2.24c-.51,1.27.65-1.33,0-.12A11.94,11.94,0,0,1,80.86,55c-.79,1.15.75-.92-.16.2-1.79,2.19-3.09,5.41-.93,7.82Z"/></g><path class="cls-26" d="M81.49,45.38c4,1.71,10.21,4.34,12.82,8,2,2.71.37,6.31-1.09,8.75-2.45,4.11-7.29,3.53-11.29,2.68C73.3,63,72.14,76.59,80.38,76.24c12.27-.51,25.76-7.64,24.8-21.6-.43-6.19-5.23-9.81-10.26-12.43-4-2.09-9.92-5.29-14.09-2a3.28,3.28,0,0,0,.66,5.16Z"/><path class="cls-26" d="M81.18,40.33C79.32,33.76,71.12,34.2,66,35.92c-5.91,2-10.08,4.59-12.91,10.24C47.3,57.69,54.21,69.89,66,73.7c6.63,2.15,10.15-7.38,4.59-10.89-2.51-1.59-5.83-2.42-7.72-4.87-1.7-2.2-.7-7.32,1.47-8.93,3.83-2.84,19.45.44,16.87-8.68Z"/><g class="cls-27"><path class="cls-28" d="M81.26,39.85c-1.16-2.59-2-5.2-4.94-6.41a13.52,13.52,0,0,0-9.56-.34c-7.38,2.14-14.27,6.95-18.07,13.7C44.5,54.24,46.29,62.18,52,68.22c4.24,4.5,13.81,12.63,20.32,9.29a3.12,3.12,0,0,0,1-4.74C72,71,70.74,71.56,68.91,70.38c-2.21-1.43-4.74-3.44-6.86-5-4.2-3.06-8.08-10.21-6-15.56,1.8-4.59,4.71-6.23,9-8.07a28.8,28.8,0,0,1,7.9-1.39,23.11,23.11,0,0,1,7.47,1.54c1,.54,1.25-1.15.85-2.07Z"/><g class="cls-29"><path class="cls-30" d="M80.41,41.92a43.51,43.51,0,0,1,12.84,3.23c3.85,1.56,7.74,6.55,8.5,10.54.92,4.84-1.57,9-5.07,12a13.06,13.06,0,0,1-7.1,3.13c-.86.12-4.44.87-5.31.89-2.29,0-5.15-.42-6.73,1-3.06,2.82-.29,9.59,4.42,9.44,14.13-.44,30.22-8.86,30.3-24.86a22,22,0,0,0-9.76-18.19c-5.92-4.1-17.1-5.59-22.19.63a1.69,1.69,0,0,0,.1,2.1Z"/></g><path class="cls-31" d="M77.72,34c3.29,3.28,8,3.91,12.36,3.43,10-1.08,14.86,1.8,18.08,9.5,6.36,15.19-7.48,31.48-22.76,32.24A38.29,38.29,0,0,1,63.94,74c-5.85-3.52-11.84-7.28-14.6-13.71-3.22-7.49,1-17.43,6.24-21.75A24.63,24.63,0,0,1,66,33.45c6.62-1.25,11.66,1.74,15.33,2.87,1.6.49-.07-1.87-1.55-2.86-13.48-8.95-32.64,6.16-35.38,19.61C42.9,60.66,48.62,67.13,54,71.57a46.66,46.66,0,0,0,24.59,11c8.11,1,15.89-.29,22.7-4.9A26.37,26.37,0,0,0,112.77,57c.28-8-3.5-16.27-10.17-20.75a16.61,16.61,0,0,0-10.84-2.5c-4.13.47-9.44,1.68-13.15-.76-.61-.4-1.44.42-.89,1Z"/><path class="cls-32" d="M77.26,81.65c3.32-3.45,6.47-6.49,7.65-11.36A9.61,9.61,0,1,0,66,67.74a14.08,14.08,0,0,0,1.48,6.12c-.48-1.2-.53-1.27-.13-.23.35.88.72,1.74,1.12,2.6-.71-1.55,1,2.53.95,2.36a13.66,13.66,0,0,0,1.29,2.22,4.2,4.2,0,0,0,6.51.84Z"/></g><g class="cls-23"><path class="cls-33" d="M80.22,36.46c-1.42,1.77-1.6,4.31-2.56,6.37-1.29,2.79-3.31,4.93-4.82,7.53-2.1,3.63,3.07,8.5,6.72,7.11,7-2.66,3.82-14.34,4.54-20H78.31A44.2,44.2,0,0,1,77,47.67c-.13.64-.19,1.3-.3,1.94-.08.44-.17.87-.29,1.3-.41,1,.18.9,1.79-.29-3.55-1.22-5.06,4.4-1.54,5.6s5.09-2.31,5.63-5.07c.88-4.47,2-9.06,1.85-13.64-.11-3.84-5.32-3.6-5.79,0-.61,4.81.72,9.86-.78,14.57-.36.51,0,.42,1.11-.26l-.71-.37c0,1.31.19,1.42.68.32A26.74,26.74,0,0,0,81.22,47c1.39-3.31,2.39-7.13.33-10.35a.86.86,0,0,0-1.33-.17Z"/></g><path class="cls-34" d="M80,37.87a23.38,23.38,0,0,0-1.28,3.05,12.46,12.46,0,0,0-1,3.16c0,.64.74.81,1.14.48,1.63-1.36,1.94-4.48,2-6.46a.47.47,0,0,0-.87-.23Z"/><path class="cls-34" d="M81.16,43.26c-.86,2.06,0,4.5-1.36,6.39-1.19,1.63,1.23,3,2.56,2,2.17-1.7.4-6.28-.23-8.36a.51.51,0,0,0-1,0Z"/><path class="cls-34" d="M75.15,50.72c-.47.93-1,1.83-1.44,2.79a1.38,1.38,0,1,0,2.57.69c.07-1,.11-1.92.26-2.89.13-.8-1-1.42-1.39-.59Z"/><path class="cls-35" d="M88,56.24c1,.7,5,1.65,5-.51,0-1.16-1.31-1.47-2.23-1.28a12,12,0,0,0-2.73,1,.47.47,0,0,0,0,.82Z"/><path class="cls-35" d="M86,60a4.05,4.05,0,0,0,2.74.75,1.24,1.24,0,0,0,.92-1.21,1.28,1.28,0,0,0-.92-1.21,3.79,3.79,0,0,0-2.53.05A.9.9,0,0,0,86,60Z"/><path class="cls-35" d="M89.68,53.14a8.84,8.84,0,0,0,.84-.36c1.25-.71,0-2.73-1.1-1.89a5,5,0,0,0-.83.83.91.91,0,0,0,1.09,1.42Z"/><path class="cls-35" d="M66.84,51.37a2.17,2.17,0,0,0,1.92,1.44c1.16.1,1.6-1.42.9-2.16a2,2,0,0,0-1.92-.54c-.52.14-1.09.67-.9,1.26Z"/><path class="cls-35" d="M68,57.84a3.21,3.21,0,0,0,1.74-.21,1.34,1.34,0,0,0,.75-1.44,1.42,1.42,0,0,0-1.41-1,4.44,4.44,0,0,0-1.64.56c-1.07.5-.44,2,.56,2.06Z"/><g class="cls-36"><path class="cls-37" d="M79.43,35.15c-4.72-2-9.9-3.82-14.91-2.69a17.41,17.41,0,0,0-6.1,2.82,23.63,23.63,0,0,0-9.73,14.61,21.09,21.09,0,0,0,4,17A27.64,27.64,0,0,0,59,72.45,45.63,45.63,0,0,0,87.45,80a23.5,23.5,0,0,0,6.29-1.2c3.92-1.44,7.1-4.4,9.79-7.59a34.75,34.75,0,0,0,4-5.76,24.78,24.78,0,0,0,2-4.88c2.19-7.26.74-16-5-20.9-4.27-3.66-10.37-4.78-15.86-3.6a18.93,18.93,0,0,1-3.58.64A14,14,0,0,1,79.43,35.15Z"/></g><path class="cls-38" d="M75.1,44.06C70.76,37.7,62.66,41.23,59,46.27c-4,5.57-.89,16.62,6,18.34a2.1,2.1,0,0,0,2.55-2.54C67,58.31,63.12,55.67,64,51.65c.91-4.26,5.37-3.15,8.37-2.8,2.36.27,4-2.92,2.75-4.79Z"/><path class="cls-38" d="M87,50.49c1.78.51,3.6.54,5.29,1.37C94.64,53,94,56.07,93.72,58.15c-.39,2.8-.89,4.33-3.65,5.49-2.21.92-4.59,1.24-6.75,2.3a1.43,1.43,0,0,0,.34,2.59c7.56,2,16.85-2.66,18-10.78,1.17-8.6-5.7-16.07-14.62-13.94-3.4.82-3.21,5.77,0,6.68Z"/><path class="cls-39" d="M79,35c1.29,1.68,4.09,3.23,6.11,1.91a1.1,1.1,0,0,0,0-1.88,5.24,5.24,0,0,0-2.8-.91,5.9,5.9,0,0,0-3,.08c-.3.11-.56.5-.33.8Z"/><path class="cls-3" d="M88.79,44.64a1.07,1.07,0,0,1,1.49.41,2.75,2.75,0,0,1-.53,2.66,15.25,15.25,0,0,1-1.55,1.95A4.91,4.91,0,0,1,88,45.79,1.87,1.87,0,0,1,88.79,44.64Z"/><g class="cls-40"><g class="cls-41"><path class="cls-42" d="M88.22,49.15a5.84,5.84,0,0,0,1.12-1.89A6.09,6.09,0,0,0,89.89,45,1.18,1.18,0,0,0,87.53,45c-.17,1.31,0,2.63-.16,3.94-.06.51.59.57.85.26Z"/></g></g><g class="cls-43"><path class="cls-20" d="M88.69,47.34a6.11,6.11,0,0,0,.73-1.85c0-.37-.4-.5-.66-.38-.86.38-.65,1.32-.6,2.09,0,.26.4.42.53.14Z"/></g><path class="cls-3" d="M73.66,42.48a1.08,1.08,0,0,1,1.55.07,2.74,2.74,0,0,1,.09,2.71,14.48,14.48,0,0,1-1.07,2.25,4.94,4.94,0,0,1-1.08-3.72A1.88,1.88,0,0,1,73.66,42.48Z"/><g class="cls-44"><g class="cls-41"><path class="cls-42" d="M74.14,47a5.79,5.79,0,0,0,.66-2.1,6.14,6.14,0,0,0,0-2.3,1.18,1.18,0,0,0-2.32.46c.13,1.32.57,2.57.74,3.88.06.5.71.42.89.06Z"/></g></g><g class="cls-43"><path class="cls-20" d="M74.19,45.13a5.65,5.65,0,0,0,.29-1.86c0-.29-.36-.61-.66-.38-.8.62-.44,1.41-.18,2.24a.29.29,0,0,0,.55,0Z"/></g><path class="cls-3" d="M69.24,42.58a.94.94,0,0,1,1.34-.15A2.37,2.37,0,0,1,71,44.75a13.46,13.46,0,0,1-.62,2.08A4.25,4.25,0,0,1,69,43.77,1.54,1.54,0,0,1,69.24,42.58Z"/><g class="cls-45"><g class="cls-41"><path class="cls-42" d="M70.24,46.41a5.27,5.27,0,0,0,.3-1.89,5.55,5.55,0,0,0-.28-2,1,1,0,0,0-1.94.71c.29,1.11.83,2.13,1.15,3.23.12.43.66.28.77-.06Z"/></g></g><g class="cls-43"><path class="cls-20" d="M70.08,44.76a3.77,3.77,0,0,0,0-1.67.44.44,0,0,0-.73-.2c-.68.61-.16,1.38.19,2,.14.27.51.12.53-.14Z"/></g><g class="cls-46"><path class="cls-3" d="M62.39,44.68a.72.72,0,0,1,.85-.59c.62.13,1,.8,1.14,1.41a9.1,9.1,0,0,1,.35,1.63,3.27,3.27,0,0,1-2.09-1.54A1.22,1.22,0,0,1,62.39,44.68Z"/><g class="cls-47"><g class="cls-41"><path class="cls-42" d="M64.48,46.91a4,4,0,0,0-.5-1.39,4.05,4.05,0,0,0-.92-1.24A.79.79,0,0,0,62,45.47c.61.64,1.35,1.13,2,1.76.24.25.55-.06.5-.32Z"/></g></g><g class="cls-43"><path class="cls-20" d="M63.84,45.88c-.15-.47-.23-1.07-.71-1.31a.45.45,0,0,0-.6.16c-.47.73.34,1.18.89,1.47a.29.29,0,0,0,.42-.32Z"/></g></g><g class="cls-46"><path class="cls-3" d="M96.94,47.62a.73.73,0,0,1,.68.79c-.06.63-.69,1-1.28,1.28a9.85,9.85,0,0,1-1.59.52A3.3,3.3,0,0,1,96.07,48,1.27,1.27,0,0,1,96.94,47.62Z"/><g class="cls-48"><g class="cls-41"><path class="cls-42" d="M95,49.93a3.65,3.65,0,0,0,1.33-.64,3.88,3.88,0,0,0,1.13-1,.79.79,0,0,0-1.29-.92c-.58.67-1,1.46-1.55,2.14-.21.27.12.54.38.46Z"/></g></g><g class="cls-43"><path class="cls-20" d="M96,49.18c.48-.23,1-.35,1.21-.9a.44.44,0,0,0-.2-.49c-.83-.41-1.18.43-1.43,1.06-.11.26.22.42.42.33Z"/></g></g><g class="cls-10"><path class="cls-3" d="M99.92,57.1a.72.72,0,0,1-.31,1,1.86,1.86,0,0,1-1.77-.43,8.72,8.72,0,0,1-1.26-1.09,3.28,3.28,0,0,1,2.59,0A1.18,1.18,0,0,1,99.92,57.1Z"/><g class="cls-49"><g class="cls-41"><path class="cls-42" d="M96.91,56.6a4,4,0,0,0,1.24.8,4.13,4.13,0,0,0,1.48.43.79.79,0,0,0,.12-1.58c-.88-.15-1.76-.09-2.64-.21-.34,0-.4.38-.2.56Z"/></g></g><g class="cls-43"><path class="cls-20" d="M98.07,57.05c.44.3.83.69,1.4.58a.45.45,0,0,0,.32-.42c-.09-.93-1-.79-1.65-.68-.27,0-.25.4-.07.52Z"/></g></g><g class="cls-10"><path class="cls-3" d="M60.35,58.08a.71.71,0,0,1-.39-.95c.25-.59,1-.77,1.62-.82a8.37,8.37,0,0,1,1.66,0,3.22,3.22,0,0,1-2,1.7A1.18,1.18,0,0,1,60.35,58.08Z"/><g class="cls-50"><g class="cls-41"><path class="cls-42" d="M63,56.51a4.22,4.22,0,0,0-1.46.19,4.4,4.4,0,0,0-1.41.64A.79.79,0,0,0,61,58.62c.76-.46,1.4-1.08,2.14-1.55.29-.18.06-.55-.21-.56Z"/></g></g><g class="cls-43"><path class="cls-20" d="M61.85,56.92c-.49,0-1.11,0-1.44.4a.46.46,0,0,0,0,.62c.63.62,1.22,0,1.64-.54.14-.16.07-.51-.2-.48Z"/></g></g><g class="cls-10"><path class="cls-3" d="M95.44,65.31a.7.7,0,0,1-.93.44,1.79,1.79,0,0,1-.89-1.58,9.3,9.3,0,0,1-.07-1.67,3.28,3.28,0,0,1,1.79,1.88A1.16,1.16,0,0,1,95.44,65.31Z"/><g class="cls-51"><g class="cls-41"><path class="cls-42" d="M93.76,62.77A4,4,0,0,0,94,64.22a4.26,4.26,0,0,0,.69,1.38.8.8,0,0,0,1.24-1c-.49-.74-1.14-1.34-1.64-2.07-.2-.28-.55,0-.55.24Z"/></g></g><g class="cls-43"><path class="cls-20" d="M94.22,63.94c.08.53.07,1.06.54,1.4a.41.41,0,0,0,.52-.07c.6-.65-.06-1.21-.58-1.61a.29.29,0,0,0-.48.28Z"/></g></g><g class="cls-52"><path class="cls-3" d="M64.4,43.66a.93.93,0,0,1,1.2-.59,2.36,2.36,0,0,1,1.21,2,13.05,13.05,0,0,1,.13,2.16,4.27,4.27,0,0,1-2.39-2.38A1.59,1.59,0,0,1,64.4,43.66Z"/><g class="cls-53"><g class="cls-41"><path class="cls-42" d="M66.66,46.92A5.09,5.09,0,0,0,66.28,45a5.43,5.43,0,0,0-.94-1.76,1,1,0,0,0-1.58,1.32c.66.95,1.52,1.72,2.19,2.65.26.36.72,0,.71-.33Z"/></g></g><g class="cls-43"><path class="cls-20" d="M65.94,45.45a3.68,3.68,0,0,0-.62-1.65.44.44,0,0,0-.68.08c-.45.83.27,1.35.83,1.85a.28.28,0,0,0,.47-.28Z"/></g></g><path class="cls-3" d="M60.05,47.53a1,1,0,0,1,.56-1.23,2.4,2.4,0,0,1,2.22.8,13,13,0,0,1,1.47,1.59,4.25,4.25,0,0,1-3.36-.33A1.61,1.61,0,0,1,60.05,47.53Z"/><g class="cls-54"><g class="cls-41"><path class="cls-42" d="M63.87,48.61a5.25,5.25,0,0,0-1.48-1.22,5.53,5.53,0,0,0-1.85-.76,1,1,0,0,0-.38,2c1.11.32,2.26.37,3.37.66.43.11.57-.44.34-.7Z"/></g></g><g class="cls-43"><path class="cls-20" d="M62.36,47.91a3.83,3.83,0,0,0-1.43-.86.45.45,0,0,0-.54.54c.17.9,1.11.82,1.83.85.31,0,.36-.38.14-.53Z"/></g><g class="cls-52"><path class="cls-3" d="M58.7,52.62a.93.93,0,0,1-.11-1.34,2.39,2.39,0,0,1,2.33-.38,13.39,13.39,0,0,1,2.06.67,4.25,4.25,0,0,1-3.09,1.35A1.6,1.6,0,0,1,58.7,52.62Z"/><g class="cls-55"><g class="cls-41"><path class="cls-42" d="M62.56,51.71a5,5,0,0,0-1.88-.34,5.52,5.52,0,0,0-2,.23,1,1,0,0,0,.65,1.95c1.13-.26,2.16-.78,3.27-1.07.43-.11.29-.65,0-.77Z"/></g></g><g class="cls-43"><path class="cls-20" d="M60.9,51.83a3.68,3.68,0,0,0-1.68,0,.44.44,0,0,0-.19.73c.59.69,1.38.17,2-.15.28-.15.12-.51-.14-.54Z"/></g></g><path class="cls-4" d="M58.94,55.69a.93.93,0,0,1-.25-1.32A2.36,2.36,0,0,1,61,53.76a12.69,12.69,0,0,1,2.12.45,4.31,4.31,0,0,1-2.94,1.66A1.59,1.59,0,0,1,58.94,55.69Z"/><g class="cls-56"><g class="cls-41"><path class="cls-57" d="M62.69,54.39a6.79,6.79,0,0,0-3.87.29,1,1,0,0,0,.85,1.87c1.09-.37,2.06-1,3.14-1.39.42-.16.22-.69-.12-.77Z"/></g></g><g class="cls-43"><path class="cls-20" d="M61.07,54.68a3.87,3.87,0,0,0-1.76.16.44.44,0,0,0-.09.68c.67.65,1.37.1,2-.3a.29.29,0,0,0-.15-.54Z"/></g><path class="cls-5" d="M61.33,60.88a.93.93,0,0,1-.69-1.15c.23-.8,1.13-1.17,1.94-1.36a12.82,12.82,0,0,1,2.14-.3,4.29,4.29,0,0,1-2.19,2.57A1.62,1.62,0,0,1,61.33,60.88Z"/><g class="cls-58"><g class="cls-41"><path class="cls-59" d="M64.41,58.38a4.92,4.92,0,0,0-1.85.52A5.36,5.36,0,0,0,60.87,60a1,1,0,0,0,1.45,1.46c.89-.72,1.59-1.64,2.46-2.38.34-.29,0-.72-.37-.68Z"/></g></g><g class="cls-43"><path class="cls-20" d="M63,59.2a3.84,3.84,0,0,0-1.6.73.44.44,0,0,0,.09.68c.9.41,1.35-.36,1.84-1,.15-.2-.1-.5-.33-.42Z"/></g><path class="cls-3" d="M64.1,63.74a.75.75,0,0,1-.75-.76c0-.65.65-1.11,1.24-1.4a11.08,11.08,0,0,1,1.6-.63A3.37,3.37,0,0,1,65,63.33,1.21,1.21,0,0,1,64.1,63.74Z"/><g class="cls-60"><g class="cls-41"><path class="cls-42" d="M66,61.25a3.91,3.91,0,0,0-1.32.74,4.15,4.15,0,0,0-1.11,1.14A.82.82,0,0,0,65,64c.55-.72.92-1.56,1.46-2.29.21-.28-.16-.55-.42-.45Z"/></g></g><g class="cls-43"><path class="cls-20" d="M65,62.09c-.47.25-1,.42-1.18,1a.43.43,0,0,0,.3.53c.81.32,1.11-.61,1.3-1.18.09-.25-.21-.43-.42-.32Z"/></g><path class="cls-3" d="M67.17,65.79a.74.74,0,0,1-.91-.56c-.14-.64.36-1.23.85-1.66a9.89,9.89,0,0,1,1.4-1,3.36,3.36,0,0,1-.6,2.6A1.19,1.19,0,0,1,67.17,65.79Z"/><g class="cls-61"><g class="cls-41"><path class="cls-42" d="M68.4,62.9A4,4,0,0,0,67.29,64a4.34,4.34,0,0,0-.78,1.37.81.81,0,0,0,1.55.5c.36-.84.52-1.74.85-2.58.13-.33-.28-.5-.51-.34Z"/></g></g><g class="cls-43"><path class="cls-20" d="M67.68,64c-.4.37-.86.66-.91,1.24,0,.26.21.41.43.44.87.1.91-.88,1-1.48,0-.26-.32-.35-.48-.2Z"/></g><path class="cls-4" d="M93.86,46a1.08,1.08,0,0,1,1.27.88,2.71,2.71,0,0,1-1.37,2.34,13.58,13.58,0,0,1-2.1,1.34,4.91,4.91,0,0,1,1.07-3.72A1.82,1.82,0,0,1,93.86,46Z"/><g class="cls-62"><g class="cls-41"><path class="cls-57" d="M91.85,50.07a5.64,5.64,0,0,0,1.68-1.43,6.07,6.07,0,0,0,1.24-1.93,1.18,1.18,0,0,0-2.21-.84c-.58,1.19-.87,2.48-1.43,3.67-.22.47.37.74.72.53Z"/></g></g><g class="cls-43"><path class="cls-20" d="M92.9,48.5a6,6,0,0,0,1.24-1.43c.13-.27,0-.69-.38-.66-1,.09-1.11,1-1.34,1.81a.29.29,0,0,0,.48.28Z"/></g><path class="cls-3" d="M99,49.94a1.08,1.08,0,0,1,.55,1.44,2.74,2.74,0,0,1-2.46,1.15,13.84,13.84,0,0,1-2.49-.1,4.9,4.9,0,0,1,3-2.45A1.79,1.79,0,0,1,99,49.94Z"/><g class="cls-63"><g class="cls-41"><path class="cls-42" d="M95.06,52.15a5.76,5.76,0,0,0,2.19-.21,6.24,6.24,0,0,0,2.13-.88,1.18,1.18,0,0,0-1.34-2c-1.16.64-2.13,1.53-3.27,2.2-.44.26-.11.82.29.84Z"/></g></g><g class="cls-43"><path class="cls-20" d="M96.85,51.46A6,6,0,0,0,98.69,51a.44.44,0,0,0,0-.75c-.87-.5-1.5.23-2.12.76-.24.2,0,.53.28.48Z"/></g><path class="cls-3" d="M100.09,53.92a.85.85,0,0,1,.17,1.22,2.19,2.19,0,0,1-2.1.47,11.28,11.28,0,0,1-1.92-.5A3.91,3.91,0,0,1,99,53.71,1.47,1.47,0,0,1,100.09,53.92Z"/><g class="cls-64"><g class="cls-41"><path class="cls-42" d="M96.61,55a4.68,4.68,0,0,0,1.74.21,5,5,0,0,0,1.81-.32,1,1,0,0,0-.71-1.75c-1,.3-1.92.83-2.92,1.16-.39.12-.23.61.08.7Z"/></g></g><g class="cls-43"><path class="cls-20" d="M98.11,54.78a2.85,2.85,0,0,0,1.64-.07.44.44,0,0,0,.09-.68c-.57-.67-1.3-.14-1.88.22a.29.29,0,0,0,.15.53Z"/></g><path class="cls-5" d="M99.46,59.18a1,1,0,0,1-.25,1.37,2.46,2.46,0,0,1-2.44-.26,13,13,0,0,1-1.88-1.24,4.49,4.49,0,0,1,3.47-.5A1.66,1.66,0,0,1,99.46,59.18Z"/><g class="cls-65"><g class="cls-41"><path class="cls-59" d="M95.35,59a5.29,5.29,0,0,0,1.79.86,5.61,5.61,0,0,0,2.06.31,1.07,1.07,0,0,0-.12-2.13c-1.2,0-2.37.19-3.56.17-.47,0-.48.58-.17.79Z"/></g></g><g class="cls-43"><path class="cls-20" d="M97.05,59.35a4.33,4.33,0,0,0,1.66.51.44.44,0,0,0,.38-.66c-.41-.84-1.32-.54-2-.4-.31.06-.24.46,0,.55Z"/></g><g class="cls-52"><path class="cls-3" d="M97.77,63.46a1,1,0,0,1-1,1c-.86,0-1.48-.8-1.89-1.56A13.4,13.4,0,0,1,94,60.83a4.38,4.38,0,0,1,3.16,1.5A1.64,1.64,0,0,1,97.77,63.46Z"/><g class="cls-66"><g class="cls-41"><path class="cls-42" d="M94.42,61.06a5.29,5.29,0,0,0,1,1.71A5.59,5.59,0,0,0,97,64.17a1.07,1.07,0,0,0,1.07-1.85c-1-.7-2.08-1.15-3.06-1.82-.39-.26-.72.22-.58.56Z"/></g></g><g class="cls-43"><path class="cls-20" d="M95.63,62.23a4.47,4.47,0,0,0,1.16,1.39.44.44,0,0,0,.64-.26c.14-1-.66-1.21-1.41-1.52-.23-.1-.58.12-.39.39Z"/></g></g><g class="cls-52"><path class="cls-3" d="M91.17,69.3a1,1,0,0,1-1.35.34A2.48,2.48,0,0,1,89,67.32a12.92,12.92,0,0,1,.34-2.23A4.4,4.4,0,0,1,91.27,68,1.67,1.67,0,0,1,91.17,69.3Z"/><g class="cls-67"><g class="cls-41"><path class="cls-42" d="M89.58,65.5a5.33,5.33,0,0,0,0,2,5.77,5.77,0,0,0,.58,2,1.07,1.07,0,0,0,1.89-1c-.46-1.1-1.17-2.07-1.65-3.16-.19-.42-.73-.19-.79.18Z"/></g></g><g class="cls-43"><path class="cls-20" d="M90,67.13a4.26,4.26,0,0,0,.26,1.81A.44.44,0,0,0,91,69c.61-.75,0-1.38-.42-2-.15-.22-.55-.17-.53.14Z"/></g></g><path class="cls-3" d="M86.15,70.26A.78.78,0,0,1,85,70.15a2,2,0,0,1,0-2,11.87,11.87,0,0,1,.87-1.61,3.6,3.6,0,0,1,.64,2.77A1.32,1.32,0,0,1,86.15,70.26Z"/><g class="cls-68"><g class="cls-41"><path class="cls-42" d="M86,66.93a4.33,4.33,0,0,0-.57,1.51,4.77,4.77,0,0,0-.11,1.68A.87.87,0,0,0,87,69.88c0-1-.32-1.91-.39-2.87,0-.37-.5-.34-.65-.08Z"/></g></g><g class="cls-43"><path class="cls-20" d="M85.79,68.29c-.17.48-.48,1-.31,1.5a.45.45,0,0,0,.54.31c.84-.36.57-1.12.32-1.81a.29.29,0,0,0-.55,0Z"/></g><path class="cls-3" d="M94.07,67.29a.77.77,0,0,1-1,.42A1.92,1.92,0,0,1,92.18,66a10.46,10.46,0,0,1,0-1.77A3.46,3.46,0,0,1,94,66.3,1.25,1.25,0,0,1,94.07,67.29Z"/><g class="cls-69"><g class="cls-41"><path class="cls-42" d="M92.4,64.51a4.12,4.12,0,0,0,.2,1.56,4.48,4.48,0,0,0,.68,1.49.84.84,0,0,0,1.35-1c-.48-.81-1.14-1.48-1.64-2.27-.19-.31-.58-.07-.59.22Z"/></g></g><g class="cls-43"><path class="cls-20" d="M92.84,65.71c.07.51,0,1.13.44,1.5a.44.44,0,0,0,.61,0c.6-.68,0-1.25-.56-1.71-.16-.14-.52-.06-.49.21Z"/></g><path class="cls-70" d="M75.66,65C75,67.63,74,70.15,73.22,72.73c-.63,2.1-1.82,4.73-.11,6.51a1.2,1.2,0,0,0,1.66,0c1.77-1.36,1.39-4.46,1.78-6.51a31,31,0,0,0,.63-7.5A.78.78,0,0,0,75.66,65Z"/><path class="cls-70" d="M72.71,70c-.77,1.78-1.91,3.87-1.61,5.86.06.35.59.31.66,0,.22-.88.3-1.78.53-2.66a28.57,28.57,0,0,1,1-3c.13-.34-.45-.59-.6-.25Z"/><path class="cls-70" d="M77.74,75a18.77,18.77,0,0,1-1.62,2.86.36.36,0,0,0,.56.43,8.14,8.14,0,0,0,1.68-3c.13-.36-.46-.62-.62-.26Z"/><path class="cls-70" d="M78.25,43.53c.17-.41.35-.8.48-1.22a.85.85,0,0,0-.22-.83l-.09-.09a.7.7,0,0,0-.81-.11l-.14.06a.86.86,0,0,0-.42.74,8.36,8.36,0,0,0,0,1.12c0,.58.92.95,1.19.33Z"/><path class="cls-70" d="M84.51,44.06a.44.44,0,0,0-.53.68c.45.45,1.08-.36.53-.68Z"/><path class="cls-71" d="M95.31,63.7c0,.7.43,1.44,1.22,1.31a.45.45,0,0,0,.31-.56c-.14-.35-.48-.51-.57-.88a.49.49,0,0,0-1,.13Z"/><path class="cls-71" d="M94.17,67.3a.81.81,0,0,0,.21.55.4.4,0,0,0,.56,0,.76.76,0,0,0,.23-.42c.15-.74-1-.85-1-.13Z"/><path class="cls-71" d="M96.14,46.86c.46,0,.81-.14,1-.6.09-.27-.2-.6-.48-.49s-.39.29-.64.45a.35.35,0,0,0,.17.64Z"/><path class="cls-71" d="M64,56.14l0,0c-.65.31-.16,1.22.46,1.1l.1,0a.55.55,0,0,0,.24-.91.64.64,0,0,0-.76-.19Z"/><path class="cls-71" d="M57.5,60.49A2.27,2.27,0,0,0,58.35,62a.36.36,0,0,0,.49-.49,10.23,10.23,0,0,1-.71-1.2.33.33,0,0,0-.63.18Z"/><path class="cls-71" d="M60.6,43.83a1,1,0,0,0,1.19-.41.41.41,0,0,0-.35-.61,2.35,2.35,0,0,1-.54-.06c-.71-.15-1,.93-.3,1.08Z"/><path class="cls-71" d="M77.32,42.78a0,0,0,0,0,0,0,0,0,0,1,0,0,0Z"/><path class="cls-71" d="M93.25,46.11a.82.82,0,0,0,.75-.55c.08-.19-.14-.32-.3-.3a1.28,1.28,0,0,0-.7.42c-.21.19,0,.46.25.43Z"/><g class="cls-36"><path class="cls-72" d="M78.36,48.64a9.53,9.53,0,0,0-3.18,4.22c-.93,2-1.72,4.44-.93,6.62s3.8,3.5,5.6,1.48c2.63-3,2.41-8.34.75-11.74a1.63,1.63,0,0,0-2.24-.58Z"/></g></g></g></g></svg>