<svg xmlns="http://www.w3.org/2000/svg" viewBox="0 0 112 151.22"><defs><style>.cls-1{fill:#377234;}.cls-2{fill:#aa9586;}</style></defs><title>tomillo</title><g id="Capa_2" data-name="Capa 2"><g id="Ediicion"><path class="cls-1" d="M95.77,112.83a17.46,17.46,0,0,0,4-5.92,20.12,20.12,0,0,0-6.28,4,17.38,17.38,0,0,0-4,5.92A19.9,19.9,0,0,0,95.77,112.83Z"/><path class="cls-1" d="M79.67,117.79a22.21,22.21,0,0,0,9.84-.94,21.59,21.59,0,0,0-9.06-3.7,22.33,22.33,0,0,0-9.84.95A21.65,21.65,0,0,0,79.67,117.79Z"/><path class="cls-1" d="M84.43,114.56a14.51,14.51,0,0,0,6.2,3.13A12,12,0,0,0,87.29,112a14.38,14.38,0,0,0-6.2-3.13A12.14,12.14,0,0,0,84.43,114.56Z"/><path class="cls-1" d="M97.23,120.46a22.21,22.21,0,0,0,9.84-.94,21.6,21.6,0,0,0-9-3.71,22.47,22.47,0,0,0-9.84,1A21.51,21.51,0,0,0,97.23,120.46Z"/><path class="cls-1" d="M78.87,78.94a11.84,11.84,0,0,0-2.6,6.68,14.28,14.28,0,0,0,6.47-4A11.76,11.76,0,0,0,85.33,75,14.22,14.22,0,0,0,78.87,78.94Z"/><path class="cls-1" d="M86.06,84.17A22,22,0,0,0,76.37,86a20.67,20.67,0,0,0,19.09,1.1A21.9,21.9,0,0,0,86.06,84.17Z"/><path class="cls-1" d="M68.3,83a22,22,0,0,0-9.68,1.79A22,22,0,0,0,68,87.73a22.17,22.17,0,0,0,9.7-1.8A22,22,0,0,0,68.3,83Z"/><path class="cls-1" d="M71.54,79.45a13.29,13.29,0,0,0-6.32-1.85,11.25,11.25,0,0,0,4,4.79,13.29,13.29,0,0,0,6.32,1.85A11.25,11.25,0,0,0,71.54,79.45Z"/><path class="cls-1" d="M63.25,49.28A11.69,11.69,0,0,0,64,56.35a12.55,12.55,0,0,0,4-6.08,11.65,11.65,0,0,0-.75-7.06A12.5,12.5,0,0,0,63.25,49.28Z"/><path class="cls-1" d="M71.53,50.87a19.94,19.94,0,0,0-7.92,5.3,22.52,22.52,0,0,0,9.84-.91A20,20,0,0,0,81.38,50,22.57,22.57,0,0,0,71.53,50.87Z"/><path class="cls-1" d="M56.85,52.51a13.24,13.24,0,0,0-6.57.7,12.72,12.72,0,0,0,5.85,2.85,13.34,13.34,0,0,0,6.57-.7A12.61,12.61,0,0,0,56.85,52.51Z"/><path class="cls-1" d="M46,25.32a13.63,13.63,0,0,1,5.68,4.95,15.76,15.76,0,0,1-7.8-1,13.71,13.71,0,0,1-5.68-5A15.62,15.62,0,0,1,46,25.32Z"/><path class="cls-1" d="M58.87,23.87a22,22,0,0,1,9.57-2.23,19.1,19.1,0,0,1-7,6.31,22.11,22.11,0,0,1-9.57,2.23A19,19,0,0,1,58.87,23.87Z"/><path class="cls-1" d="M52.85,22.87a11.62,11.62,0,0,1,4.72-4.16,10,10,0,0,1-1.18,5.87,11.69,11.69,0,0,1-4.72,4.16A10,10,0,0,1,52.85,22.87Z"/><path class="cls-2" d="M40.49,10.1c5,4.86,8.21,10.77,11.39,16.54s5.85,11.78,8.52,17.75c5.3,12,10.18,24,15.14,36.1s9.91,24.1,15.43,35.9c2.77,5.9,5.67,11.74,9,17.37a83.42,83.42,0,0,0,5.36,8.14,28.08,28.08,0,0,0,6.7,6.71l-2,2.61a31.2,31.2,0,0,1-7.5-7.6,86.11,86.11,0,0,1-5.46-8.5c-3.3-5.78-6.15-11.72-8.87-17.68-5.41-12-10.23-24.06-15-36.17S63.58,57.05,58.43,45.08c-2.57-6-5.25-11.93-8.25-17.73S44,15.73,39.3,11.11Z"/><path class="cls-1" d="M59.77,31.43a20,20,0,0,1,6.11,4.28A21.82,21.82,0,0,1,58.41,34,19.71,19.71,0,0,1,52.3,29.7,21.94,21.94,0,0,1,59.77,31.43Z"/><path class="cls-1" d="M42.23,32.84a22.11,22.11,0,0,1,9.57-2.23,19.1,19.1,0,0,1-6.95,6.32,22.34,22.34,0,0,1-9.58,2.23A19.08,19.08,0,0,1,42.23,32.84Z"/><path class="cls-1" d="M48,34.36a12.79,12.79,0,0,1,4.52-4.89,11.18,11.18,0,0,1-.83,6.34,12.73,12.73,0,0,1-4.51,4.89A11.23,11.23,0,0,1,48,34.36Z"/><path class="cls-1" d="M61.12,63a16.19,16.19,0,0,0-.1,6.94,17.08,17.08,0,0,0,3.16-6.31,16.34,16.34,0,0,0,.11-6.95A17.28,17.28,0,0,0,61.12,63Z"/><path class="cls-1" d="M70.63,56.53a15.15,15.15,0,0,0-7.08.11,14,14,0,0,0,6,3.39,15.28,15.28,0,0,0,7.09-.1A14.19,14.19,0,0,0,70.63,56.53Z"/><path class="cls-1" d="M54.29,57.19a19.93,19.93,0,0,0-7.93,5.3,22.57,22.57,0,0,0,9.85-.91,19.91,19.91,0,0,0,7.93-5.3A22.57,22.57,0,0,0,54.29,57.19Z"/><path class="cls-1" d="M86.11,124.05a12.07,12.07,0,0,0,3.3-6.42A14.63,14.63,0,0,0,82.53,121a12,12,0,0,0-3.29,6.41A14.66,14.66,0,0,0,86.11,124.05Z"/><path class="cls-1" d="M92,123.21a12.52,12.52,0,0,0,5.56,3.27,10.36,10.36,0,0,0-2.47-5.55,12.66,12.66,0,0,0-5.58-3.28A10.49,10.49,0,0,0,92,123.21Z"/><path class="cls-1" d="M70.58,90.5a17.09,17.09,0,0,0-3.32,6.25,19.45,19.45,0,0,0,5.81-4.52A17,17,0,0,0,76.4,86,19.62,19.62,0,0,0,70.58,90.5Z"/><path class="cls-1" d="M81.67,87.81a14.65,14.65,0,0,0-6.5-2.58,12.32,12.32,0,0,0,3.92,5.34,14.74,14.74,0,0,0,6.5,2.59A12.38,12.38,0,0,0,81.67,87.81Z"/><path class="cls-1" d="M34.41,8.51a15.39,15.39,0,0,1,6.46,2.39,15.72,15.72,0,0,1-6.88.89A15.24,15.24,0,0,1,27.54,9.4,15.65,15.65,0,0,1,34.41,8.51Z"/><path class="cls-1" d="M38.61,5.66a12.05,12.05,0,0,1,2.26,5.95A14.35,14.35,0,0,1,35.59,7.5a12.12,12.12,0,0,1-2.27-5.95A14.3,14.3,0,0,1,38.61,5.66Z"/><path class="cls-1" d="M43.06,6.25a12.35,12.35,0,0,1-3,5.66,11.83,11.83,0,0,1-.66-6.25A12.49,12.49,0,0,1,42.39,0,11.75,11.75,0,0,1,43.06,6.25Z"/><path class="cls-1" d="M46.42,9a15.34,15.34,0,0,1-6.58,2A13.11,13.11,0,0,1,44.35,6.3a15.31,15.31,0,0,1,6.57-2A13,13,0,0,1,46.42,9Z"/><path class="cls-1" d="M92.8,111.44a17.24,17.24,0,0,0,5.39-3.68,19.09,19.09,0,0,0-6.59,1.43,17.16,17.16,0,0,0-5.39,3.67A19,19,0,0,0,92.8,111.44Z"/><path class="cls-1" d="M77.78,110.79a19.59,19.59,0,0,0,8.44,2.1,17.34,17.34,0,0,0-6.13-5.66,19.71,19.71,0,0,0-8.43-2.1A17.26,17.26,0,0,0,77.78,110.79Z"/><path class="cls-1" d="M82.86,109.54a11.51,11.51,0,0,0,4,4.37,10,10,0,0,0-.72-5.6,11.51,11.51,0,0,0-4-4.37A10,10,0,0,0,82.86,109.54Z"/><path class="cls-1" d="M91.27,118.1a19.64,19.64,0,0,0,8.43,2.09,17.25,17.25,0,0,0-6.12-5.66,19.61,19.61,0,0,0-8.43-2.09A17.15,17.15,0,0,0,91.27,118.1Z"/><path class="cls-1" d="M91.05,78.83a11.47,11.47,0,0,0-4.53,4.69,13.55,13.55,0,0,0,6.75-1.37,11.38,11.38,0,0,0,4.53-4.7A13.62,13.62,0,0,0,91.05,78.83Z"/><path class="cls-1" d="M95.1,85.19a19.85,19.85,0,0,0-8.61-1.35,17.73,17.73,0,0,0,6.68,5.1,19.81,19.81,0,0,0,8.62,1.36A17.78,17.78,0,0,0,95.1,85.19Z"/><path class="cls-1" d="M80.9,79.09a19.76,19.76,0,0,0-8.61-1.36A17.78,17.78,0,0,0,79,82.84,20,20,0,0,0,87.6,84.2,17.77,17.77,0,0,0,80.9,79.09Z"/><path class="cls-1" d="M84.85,77.1a10.77,10.77,0,0,0-4.54-3.35,9,9,0,0,0,1.58,5.08,10.77,10.77,0,0,0,4.53,3.35A9,9,0,0,0,84.85,77.1Z"/><path class="cls-1" d="M88.85,50a10.27,10.27,0,0,0-1.92,6,12.35,12.35,0,0,0,5.47-3.8,10.31,10.31,0,0,0,1.91-6A12.39,12.39,0,0,0,88.85,50Z"/><path class="cls-1" d="M95.08,53.75a19.27,19.27,0,0,0-8.41,2,18.14,18.14,0,0,0,16.85.11A19.72,19.72,0,0,0,95.08,53.75Z"/><path class="cls-1" d="M82.43,50.81a11.79,11.79,0,0,0-5.66-1.34,10.14,10.14,0,0,0,3.79,4,11.79,11.79,0,0,0,5.66,1.34A10.14,10.14,0,0,0,82.43,50.81Z"/><path class="cls-1" d="M83.28,25.44a10.75,10.75,0,0,1,2.9,5.7,13.07,13.07,0,0,1-6.05-3.09,10.78,10.78,0,0,1-2.89-5.7A13.12,13.12,0,0,1,83.28,25.44Z"/><path class="cls-1" d="M94.35,28A19.75,19.75,0,0,1,103,29a18.74,18.74,0,0,1-8,3.13,19.92,19.92,0,0,1-8.67-1A18.6,18.6,0,0,1,94.35,28Z"/><path class="cls-1" d="M89.76,25.43a11.33,11.33,0,0,1,5.38-2,9.42,9.42,0,0,1-3.08,4.45,11.31,11.31,0,0,1-5.37,2A9.41,9.41,0,0,1,89.76,25.43Z"/><path class="cls-2" d="M84.18,11.39c2.39,5.45,2.89,11.2,3.43,16.83s.6,11.34.64,17c.08,11.32-.25,22.62-.49,33.91s-.49,22.57-.18,33.83c.16,5.62.45,11.24,1.14,16.8a68.71,68.71,0,0,0,1.5,8.22,22.27,22.27,0,0,0,3.1,7.43l-2.6,1.54a24.68,24.68,0,0,1-3.45-8.4A72.34,72.34,0,0,1,85.83,130c-.63-5.69-.86-11.37-1-17-.17-11.34.21-22.64.6-33.93s.85-22.57.91-33.85c0-5.63,0-11.27-.43-16.89S85.05,17,82.84,11.87Z"/><path class="cls-1" d="M92.38,34.44a15.79,15.79,0,0,1,3.5,5.28,17.8,17.8,0,0,1-5.52-3.6,15.51,15.51,0,0,1-3.5-5.27A18,18,0,0,1,92.38,34.44Z"/><path class="cls-1" d="M77.45,30.48a19.75,19.75,0,0,1,8.67,1,18.74,18.74,0,0,1-8,3.13,19.92,19.92,0,0,1-8.67-1A18.6,18.6,0,0,1,77.45,30.48Z"/><path class="cls-1" d="M81.65,33.4a12.54,12.54,0,0,1,5.46-2.68,10.36,10.36,0,0,1-3,4.94,12.41,12.41,0,0,1-5.46,2.68A10.5,10.5,0,0,1,81.65,33.4Z"/><path class="cls-1" d="M82.2,60.58a14.93,14.93,0,0,0-2.58,5.65A16.78,16.78,0,0,0,84.48,62a14.74,14.74,0,0,0,2.58-5.64A16.83,16.83,0,0,0,82.2,60.58Z"/><path class="cls-1" d="M92.31,58.12a13.09,13.09,0,0,0-5.86-2,11.2,11.2,0,0,0,3.75,4.54,13.19,13.19,0,0,0,5.86,2A11.14,11.14,0,0,0,92.31,58.12Z"/><path class="cls-1" d="M78.64,53.89a19.36,19.36,0,0,0-8.42,2A19.48,19.48,0,0,0,78.65,58a19.2,19.2,0,0,0,8.42-2A19.54,19.54,0,0,0,78.64,53.89Z"/><path class="cls-1" d="M80.83,117.78a11.72,11.72,0,0,0,5-4.28,13.71,13.71,0,0,0-6.87.78,11.74,11.74,0,0,0-5,4.28A13.67,13.67,0,0,0,80.83,117.78Z"/><path class="cls-1" d="M86,118.82a9.89,9.89,0,0,0,3.4,4.29,8.73,8.73,0,0,0,0-5.26,10,10,0,0,0-3.41-4.3A8.82,8.82,0,0,0,86,118.82Z"/><path class="cls-1" d="M80.1,85.85a16.87,16.87,0,0,0-5,4.14,18.87,18.87,0,0,0,6.4-2,16.76,16.76,0,0,0,5-4.13A19,19,0,0,0,80.1,85.85Z"/><path class="cls-1" d="M90.18,86.89a11.87,11.87,0,0,0-4.42-4,9.92,9.92,0,0,0,1.31,5.51,11.87,11.87,0,0,0,4.42,4A10,10,0,0,0,90.18,86.89Z"/><path class="cls-1" d="M79.75,8.33a12.16,12.16,0,0,1,4.45,3.83,13.87,13.87,0,0,1-6-1.28A12.24,12.24,0,0,1,73.78,7,13.81,13.81,0,0,1,79.75,8.33Z"/><path class="cls-1" d="M84.23,7.22A10.36,10.36,0,0,1,84,12.74a11.27,11.27,0,0,1-2.87-4.9,10.35,10.35,0,0,1,.26-5.52A11.2,11.2,0,0,1,84.23,7.22Z"/><path class="cls-1" d="M87.67,9a12.17,12.17,0,0,1-4.45,3.76,10.4,10.4,0,0,1,1.7-5.29A12.14,12.14,0,0,1,89.36,3.7,10.4,10.4,0,0,1,87.67,9Z"/><path class="cls-1" d="M89.43,12.25A14,14,0,0,1,83.31,12a12.88,12.88,0,0,1,5.41-2.56,14,14,0,0,1,6.12.28A12.88,12.88,0,0,1,89.43,12.25Z"/><path class="cls-1" d="M78.47,104.75a15.56,15.56,0,0,1-5.86,1.56,16.59,16.59,0,0,1,4.87-3.83,15.4,15.4,0,0,1,5.87-1.56A16.37,16.37,0,0,1,78.47,104.75Z"/><path class="cls-1" d="M86.68,93.58A17.62,17.62,0,0,1,83.37,101,16.86,16.86,0,0,1,82.68,93,17.56,17.56,0,0,1,86,85.64,16.86,16.86,0,0,1,86.68,93.58Z"/><path class="cls-1" d="M82.8,96.44a11.16,11.16,0,0,1,1,5.59A10.27,10.27,0,0,1,80,98a11.28,11.28,0,0,1-1-5.59A10.27,10.27,0,0,1,82.8,96.44Z"/><path class="cls-1" d="M84.33,107.83A17.54,17.54,0,0,1,81,115.19a16.69,16.69,0,0,1-.69-7.94,17.48,17.48,0,0,1,3.31-7.36A16.69,16.69,0,0,1,84.33,107.83Z"/><path class="cls-1" d="M55.13,83.05a10.66,10.66,0,0,1,6.12-.3,11.77,11.77,0,0,1-4.92,4,10.7,10.7,0,0,1-6.13.3A11.83,11.83,0,0,1,55.13,83.05Z"/><path class="cls-1" d="M57.54,89.94a17.4,17.4,0,0,1,4-7,17,17,0,0,1-.06,8,17.52,17.52,0,0,1-4,7A17,17,0,0,1,57.54,89.94Z"/><path class="cls-1" d="M61.19,75.94a17.48,17.48,0,0,1,4-7,17.12,17.12,0,0,1,0,8,17.61,17.61,0,0,1-4,7A17,17,0,0,1,61.19,75.94Z"/><path class="cls-1" d="M57.43,77.52a10.24,10.24,0,0,1,.12-5.35,9.34,9.34,0,0,1,2.88,4.31,10.28,10.28,0,0,1-.12,5.36A9.34,9.34,0,0,1,57.43,77.52Z"/><path class="cls-1" d="M34.9,63.42a10.36,10.36,0,0,1,5.59,2.38,11,11,0,0,1-6,1.54A10.33,10.33,0,0,1,28.91,65,11,11,0,0,1,34.9,63.42Z"/><path class="cls-1" d="M34.07,70.22a16.82,16.82,0,0,1,6.37-4.77,17.48,17.48,0,0,1-3.28,7.38,16.81,16.81,0,0,1-6.38,4.77A17.57,17.57,0,0,1,34.07,70.22Z"/><path class="cls-1" d="M39.19,59.3a10.45,10.45,0,0,1,2.27-4.9,9.93,9.93,0,0,1,.82,5.25A10.45,10.45,0,0,1,40,64.55,10,10,0,0,1,39.19,59.3Z"/><path class="cls-1" d="M19.76,44a11.06,11.06,0,0,0,2.57,5.65,12,12,0,0,0,1.19-6.28,11,11,0,0,0-2.58-5.65A12.09,12.09,0,0,0,19.76,44Z"/><path class="cls-1" d="M15.26,53.55A17.39,17.39,0,0,0,11,60.37a16.41,16.41,0,0,0,7-3.76,17.46,17.46,0,0,0,4.29-6.83A16.42,16.42,0,0,0,15.26,53.55Z"/><path class="cls-1" d="M16,48.64a9.93,9.93,0,0,0-4.61,2.59,9,9,0,0,0,5.1.59,9.86,9.86,0,0,0,4.62-2.59A9,9,0,0,0,16,48.64Z"/><path class="cls-2" d="M8.74,35.84c2.68,5.13,6.69,9.09,10.59,13S27.45,56.39,31.64,60c8.41,7.15,17,14,25.61,20.9S74.39,94.68,82.62,102c4.1,3.65,8.13,7.38,11.88,11.36a72,72,0,0,1,5.28,6.22,23.09,23.09,0,0,1,3.75,6.9l2.66-.91a25.54,25.54,0,0,0-4.28-7.74,75.63,75.63,0,0,0-5.54-6.38c-3.88-4-8-7.74-12.17-11.36-8.37-7.23-17-14-25.68-20.84S41.17,65.65,32.71,58.63c-4.22-3.52-8.39-7.11-12.36-10.9S12.44,40,9.88,35.18Z"/><path class="cls-1" d="M21.21,56.17A15.77,15.77,0,0,0,23.13,62a16.79,16.79,0,0,0,.51-6.22A15.77,15.77,0,0,0,21.72,50,17,17,0,0,0,21.21,56.17Z"/><path class="cls-1" d="M26.89,43a17.46,17.46,0,0,0-4.29,6.83,16.33,16.33,0,0,0,7-3.76,17.48,17.48,0,0,0,4.3-6.83A16.48,16.48,0,0,0,26.89,43Z"/><path class="cls-1" d="M26.64,47.82a11.11,11.11,0,0,0-5.16,2.25,10.1,10.1,0,0,0,5.4,1A11,11,0,0,0,32,48.81,10.16,10.16,0,0,0,26.64,47.82Z"/><path class="cls-1" d="M46.62,65.26A14.57,14.57,0,0,1,52.33,67a15.43,15.43,0,0,1-6,.83,14.66,14.66,0,0,1-5.71-1.69A15.32,15.32,0,0,1,46.62,65.26Z"/><path class="cls-1" d="M38.93,71a11.7,11.7,0,0,1,1.91-5.44,11,11,0,0,1,1.22,5.52,11.84,11.84,0,0,1-1.91,5.45A11.18,11.18,0,0,1,38.93,71Z"/><path class="cls-1" d="M43.68,58.52a16.78,16.78,0,0,1,6.38-4.78,17.63,17.63,0,0,1-3.28,7.38,16.81,16.81,0,0,1-6.38,4.77A17.57,17.57,0,0,1,43.68,58.52Z"/><path class="cls-1" d="M90.13,100.15a10.84,10.84,0,0,1-6.1.92,11.93,11.93,0,0,1,4.56-4.44,10.76,10.76,0,0,1,6.09-.91A11.88,11.88,0,0,1,90.13,100.15Z"/><path class="cls-1" d="M87.92,104.5a9.85,9.85,0,0,1,1.24,5.13,9,9,0,0,1-3.9-3.33A9.94,9.94,0,0,1,84,101.16,9,9,0,0,1,87.92,104.5Z"/><path class="cls-1" d="M66.71,79.6a15.18,15.18,0,0,1,6-1A16.29,16.29,0,0,1,67.48,82a15.18,15.18,0,0,1-6,1A16.63,16.63,0,0,1,66.71,79.6Z"/><path class="cls-1" d="M61.65,87.48a11.51,11.51,0,0,1-.44-5.68,10.34,10.34,0,0,1,3.36,4.39A11.41,11.41,0,0,1,65,91.88,10.41,10.41,0,0,1,61.65,87.48Z"/><path class="cls-1" d="M9,30.74a11.88,11.88,0,0,0,.28,5.59,12.23,12.23,0,0,0,2.5-5.08,11.81,11.81,0,0,0-.29-5.59A12.14,12.14,0,0,0,9,30.74Z"/><path class="cls-1" d="M5.6,33.26a10.59,10.59,0,0,0,4.28,3.26,11.3,11.3,0,0,0-2-5.13,10.56,10.56,0,0,0-4.27-3.27A11.37,11.37,0,0,0,5.6,33.26Z"/><path class="cls-1" d="M4.93,36.84A11.07,11.07,0,0,0,10.32,36a10.51,10.51,0,0,0-4.94-2.1A10.94,10.94,0,0,0,0,34.73,10.41,10.41,0,0,0,4.93,36.84Z"/><path class="cls-1" d="M6.35,40.15a12.25,12.25,0,0,0,3.33-4.57,11.33,11.33,0,0,0-5,2.27A12.35,12.35,0,0,0,1.3,42.41,11.44,11.44,0,0,0,6.35,40.15Z"/></g></g></svg>