<svg width="267" height="423" viewBox="0 0 267 423" fill="none" xmlns="http://www.w3.org/2000/svg">
<path d="M3.05114 174.897C3.05114 174.897 -10.254 207.769 18.7043 224.988C18.7043 224.988 2.26848 181.159 3.05114 174.897Z" fill="#A3C636"/>
<path d="M88.3609 138.895C96.9117 141.819 105.715 143.944 114.658 145.243C130.359 147.504 146.323 147.211 161.931 144.374C157.774 150.628 152.028 155.664 145.281 158.964C138.535 162.264 131.033 163.71 123.543 163.152C116.054 162.594 108.848 160.053 102.665 155.791C96.4825 151.528 91.5454 145.697 88.3609 138.895Z" fill="#A3C636"/>
<path d="M95.4048 94.2837C100.226 97.6178 128.738 116.754 155.669 106.024C159.592 104.449 163.279 102.342 166.627 99.7623C166.694 100.597 166.963 101.402 167.409 102.11C167.814 102.737 168.348 103.271 168.975 103.676C164.34 107.889 159.054 111.325 153.321 113.85C136.486 121.199 113.578 121.364 97.7527 109.154C94.8252 106.885 92.1956 104.255 89.9262 101.328C90.3117 100.221 90.8377 99.1691 91.4915 98.197C92.5255 96.6476 93.8554 95.3177 95.4048 94.2837Z" fill="#A3C636"/>
<path d="M50.7933 109.154C51.6577 117.257 53.7698 125.177 57.0545 132.634C61.2652 142.135 65.429 146.307 71.925 156.896C77.1078 165.372 81.559 174.275 85.2302 183.507C83.9544 183.894 82.6437 184.156 81.3169 184.289C80.0154 184.412 78.7052 184.412 77.4036 184.289C75.6192 180 72.7077 173.395 68.7944 165.506C63.1984 154.337 60.3026 150.306 57.0545 143.591C52.3361 133.699 49.1684 123.14 47.6626 112.285C47.9209 112.019 50.0106 109.937 50.7933 109.154Z" fill="#A3C636"/>
<path d="M50.7933 194.464C62.494 196.147 74.7191 197.062 82.0996 197.595C100.359 198.902 105.579 198.017 110.275 195.247C116.881 191.372 123.424 185.166 125.146 181.159C127.494 184.289 128.018 185.072 129.059 187.42C129.255 191.858 128.104 195.802 120.45 199.16C115.59 201.281 100.75 205.124 82.8822 203.856C74.7661 203.277 61.7505 201.398 49.228 199.16C49.5922 197.546 50.1166 195.973 50.7933 194.464Z" fill="#A3C636"/>
<path d="M136.886 199.943C138.818 202.056 141.235 203.668 143.93 204.638C154.151 208.2 167.895 201.265 178.367 187.42C178.622 191.072 178.883 194.725 179.149 198.377C175.779 202.457 171.487 205.676 166.627 207.769C152.539 213.733 139.163 207.339 136.886 206.204V199.943Z" fill="#A3C636"/>
<path d="M125.928 235.945C136.959 237.002 148.072 235.093 158.117 230.415C168.162 225.736 176.774 218.458 183.062 209.334C183.587 210.9 184.103 212.465 184.628 214.03C184.346 215.47 179.791 237.04 158.8 245.337C139.14 253.093 122.093 242.48 120.45 241.423C122.271 239.613 124.097 237.787 125.928 235.945Z" fill="#A3C636"/>
<path d="M27.3135 256.294C32.6434 261.084 56.0293 281.057 86.7955 277.426C94.1408 276.539 101.284 274.422 107.927 271.164L104.797 278.208C91.8851 281.565 78.4247 282.256 65.2374 280.237C52.0501 278.219 39.4125 273.534 28.0962 266.468C27.6933 264.665 27.4316 262.834 27.3135 260.99C27.2076 259.426 27.2076 257.857 27.3135 256.294Z" fill="#A3C636"/>
<path d="M186.976 209.334C199.725 208.264 211.923 203.656 222.195 196.029C241.644 181.44 246.794 160.997 248.023 155.331C248.547 155.848 249.064 156.372 249.588 156.896C249.455 162.085 248.32 184.908 230.022 203.073C220.573 212.343 208.59 218.606 195.585 221.074C191.96 217.775 189.033 213.783 186.976 209.334Z" fill="#A3C636"/>
<path d="M150.191 174.897C164.634 170.2 177.167 160.951 185.914 148.535C194.661 136.12 199.153 121.205 198.716 106.024L205.76 111.502C200.706 139.007 186.667 164.057 165.844 182.724C159.917 181.877 154.425 179.131 150.191 174.897Z" fill="#A3C636"/>
<path d="M106.362 282.122C108.131 284.07 112.952 288.821 120.45 289.948C124.689 290.558 129.014 290.017 132.972 288.383C136.612 286.818 137.958 285.01 143.93 282.122C146.191 281.018 148.117 280.251 149.408 279.774L153.321 285.252C151.195 285.6 149.101 286.124 147.06 286.818C141.527 288.688 139.547 290.731 135.32 292.296C131.805 293.527 128.083 294.058 124.363 293.861C114.236 293.705 106.589 288.61 103.231 286.035L106.362 282.122Z" fill="#A3C636"/>
<path d="M64.0985 300.905C67.7862 311.111 73.2498 320.583 80.2369 328.885C91.5287 342.095 106.261 351.915 122.798 357.257C118.351 360.393 113.278 362.529 107.927 363.518C100.262 358.355 93.1997 352.349 86.8738 345.611C76.0337 333.991 67.5072 320.413 61.7505 305.601L64.0985 300.905Z" fill="#A3C636"/>
<path d="M127.494 339.256C131.321 338.661 181.411 330.443 185.41 306.384C185.744 304.31 185.744 302.197 185.41 300.123H188.541C188.357 304.132 187.565 308.091 186.193 311.863C175.807 340.21 135.406 346.409 130.624 347.082C130.1 345.775 129.583 344.468 129.059 343.169C128.535 341.87 128.018 340.555 127.494 339.256Z" fill="#A3C636"/>
<path d="M9.3124 163.158C10.9247 168.052 12.717 173.04 14.6893 178.122C22.0379 196.962 31.2484 215.021 42.184 232.031L32.7921 231.249C30.6868 226.921 27.7049 220.738 24.1829 213.248C16.3563 196.64 14.6736 192.28 14.0084 190.551C11.0938 182.905 8.73959 175.058 6.96443 167.071L9.3124 163.158Z" fill="#A3C636"/>
<path d="M32.7921 148.287C32.7921 148.287 35.1401 169.419 53.1412 179.593C53.1412 179.593 26.5309 179.593 32.7921 148.287Z" fill="#A3C636"/>
<path d="M122.015 171.767C125.158 171.852 128.294 172.113 131.407 172.549C133.661 172.863 136.103 173.332 139.234 172.549C140.035 172.349 140.82 172.087 141.582 171.767L143.147 173.332C141.874 173.929 140.567 174.452 139.234 174.897C136.722 175.824 134.081 176.352 131.407 176.463C129.293 176.504 127.184 176.241 125.146 175.68L122.015 171.767Z" fill="#A3C636"/>
<path d="M57.0545 232.031C64.0722 232.777 71.1328 233.038 78.1863 232.814C96.1648 232.197 113.903 228.491 130.624 221.857L128.276 227.336C120.708 230.717 107.552 233.597 95.4048 235.945C84.8378 237.985 74.0672 238.773 63.3158 238.293L57.0545 232.031Z" fill="#A3C636"/>
<path d="M96.9701 403.434C104.532 406.006 112.463 407.328 120.45 407.347C123.244 407.347 129.208 407.159 151.756 401.868C159.653 400.013 166.141 398.338 170.54 397.172C169.499 399.254 168.45 401.344 167.409 403.434C159.812 406.301 151.946 408.398 143.93 409.695C129.647 411.974 115.074 411.709 100.883 408.912L96.9701 403.434Z" fill="#A3C636"/>
<path d="M27.3135 150.635L18.7043 155.331C18.7043 155.331 18.7043 184.289 47.6626 190.551L49.228 186.637C49.228 186.637 21.8349 185.855 27.3135 150.635Z" fill="#A3C636"/>
<path d="M84.4476 119.329C96.5868 122.645 108.891 125.323 121.311 127.351C136.817 129.874 152.473 131.378 168.176 131.851C167.793 133.459 167.27 135.031 166.611 136.547C157.113 137.913 147.537 138.663 137.942 138.793C120.477 139.029 103.044 137.225 85.9972 133.417C84.5505 128.87 84.0185 124.082 84.4319 119.329H84.4476Z" fill="#A3C636"/>
<path d="M50.7933 221.074C50.7933 221.074 126.711 215.596 132.972 209.334C132.972 209.334 132.44 214.218 132.19 215.596C123.942 219.643 115.283 222.792 106.362 224.988C88.9325 229.27 70.7923 229.804 53.1413 226.553C51.7493 225.053 50.9197 223.117 50.7933 221.074Z" fill="#A3C636"/>
<path d="M86.0129 98.9796C86.0129 98.9796 68.0117 98.9796 65.6638 100.545C64.2641 110.511 65.0656 120.663 68.0117 130.286C71.7125 142.429 78.766 153.28 88.3609 161.592C93.7384 166.181 99.8156 169.881 106.362 172.549C108.971 169.941 111.58 167.332 114.189 164.723C114.189 164.723 66.4464 151.418 86.0129 98.9796Z" fill="#A3C636"/>
<path d="M73.4904 300.905H67.2291C72.4077 312.574 80.4169 322.765 90.5304 330.555C100.644 338.345 112.542 343.488 125.146 345.517C124.102 341.343 123.059 337.169 122.015 332.994C122.015 332.994 86.7955 339.256 73.4904 300.905Z" fill="#A3C636"/>
<path d="M31.2268 274.295C31.2268 274.295 53.1412 314.211 95.4048 288.383C95.4048 288.383 52.3586 291.513 31.2268 274.295Z" fill="#A3C636"/>
<path d="M31.2268 235.162H55.4892C55.4892 235.162 72.7077 261.772 111.841 247.685L111.058 255.511C111.058 255.511 63.3158 275.86 31.2268 235.162Z" fill="#A3C636"/>
<path d="M93.8395 313.428L89.1435 306.384C98.2312 309.06 107.65 310.443 117.124 310.493C135.025 310.463 152.615 305.812 168.192 296.992C167.78 298.848 167.257 300.677 166.627 302.471C165.962 304.345 165.178 306.175 164.279 307.949" fill="#A3C636"/>
<path d="M164.193 307.949C164.193 307.949 115.754 328.298 93.8395 313.428L164.193 307.949Z" fill="#A3C636"/>
<path d="M86.0129 297.775L97.7528 290.731C97.7528 290.731 139.234 305.601 162.713 293.079L168.192 296.992C168.192 296.992 125.928 314.993 86.0129 297.775Z" fill="#A3C636"/>
<path d="M143.147 263.338L143.93 269.599C143.93 269.599 140.799 280.556 114.189 264.903V262.555C123.668 264.928 133.553 265.195 143.147 263.338Z" fill="#A3C636"/>
<path d="M41.4014 120.894C41.4014 120.894 20.2696 162.375 64.0985 181.159L41.4014 120.894Z" fill="#A3C636"/>
<path d="M64.0985 181.159C64.0985 181.159 43.7494 142.808 41.4014 120.894L64.0985 181.159Z" fill="#A3C636"/>
<path d="M135.32 221.074C136.054 219.315 136.579 217.477 136.886 215.596C140.648 216.817 144.569 217.476 148.524 217.552C165.257 217.834 177.138 207.292 180.714 203.856L182.28 206.986C178.446 210.636 174.094 213.701 169.366 216.081C155.122 223.219 141.409 222.013 135.32 221.074Z" fill="#A3C636"/>
<path d="M130.624 182.724L132.19 186.637C142.083 190.332 153.023 190.052 162.713 185.855C158.197 184.537 153.955 182.416 150.191 179.593C150.191 179.593 137.668 185.855 130.624 182.724Z" fill="#A3C636"/>
<path d="M50.0106 346.3C65.1394 346.237 73.8269 350.753 78.969 354.909C87.86 362.086 87.1399 368.12 97.518 375.845C108.358 383.906 120.043 385.112 123.58 385.432C133.943 386.372 141.699 383.867 154.104 379.954C160.805 377.817 167.344 375.202 173.671 372.127V385.432C160.729 389.313 147.264 391.161 133.755 390.911C116.842 390.559 105.446 390.324 95.8979 382.599C84.7293 373.56 87.1477 363.213 76.621 356.474C67.0647 350.354 54.8474 352.326 46.0973 354.909C47.0279 354.424 47.853 353.759 48.5247 352.953C49.1965 352.147 49.7015 351.216 50.0106 350.213C50.3593 348.932 50.3593 347.581 50.0106 346.3Z" fill="#A3C636"/>
<path d="M132.972 354.909C127.561 360.132 120.942 363.937 113.706 365.985C106.469 368.034 98.8377 368.261 91.4915 366.649C97.2866 370.09 103.647 372.475 110.275 373.693C117.001 374.943 123.899 374.943 130.624 373.693C136.415 372.539 141.97 370.423 147.06 367.431C141.175 364.825 136.251 360.447 132.972 354.909Z" fill="#A3C636"/>
<path d="M200.281 299.34C200.281 299.34 179.932 375.258 144.712 361.953L136.103 354.909C145.868 351.925 155.144 347.53 163.637 341.862C184.69 327.774 195.428 309.327 200.281 299.34Z" fill="#A3C636"/>
<path d="M186.976 182.724C186.976 182.724 224.543 174.115 217.499 131.069L216.717 127.938C210.932 148.843 199.569 167.782 183.845 182.724H186.976Z" fill="#A3C636"/>
<path d="M179.149 178.811C180.577 172.222 183.526 166.057 187.758 160.81C192.392 155.174 195.123 155.049 201.064 149.07C211.238 138.786 214.604 127.664 215.151 127.938C215.566 128.141 213.234 134.426 209.673 140.461C208.049 143.206 206.218 145.822 204.194 148.287C204.194 148.287 199.874 153.727 198.716 156.896C198.536 157.382 198.371 157.882 198.371 157.882C198.191 158.415 198.074 158.798 197.933 159.244C196.305 164.214 191.75 170.945 179.149 178.811Z" fill="#A3C636"/>
<path d="M219.065 231.249C219.98 231.421 242.435 235.287 257.415 217.944C272.058 200.976 265.602 179.906 265.242 178.811C265.242 178.811 240.196 224.205 219.065 231.249Z" fill="#A3C636"/>
<path d="M236.283 149.852C235.313 149.563 234.264 149.297 233.153 149.07C231.09 148.638 228.996 148.376 226.891 148.287C227.345 149.79 232.049 166.288 221.413 179.593C212.545 190.699 196.751 194.926 182.28 189.768C181.776 193.751 182.315 197.796 183.845 201.508C193.708 201.506 203.393 198.886 211.911 193.916C216.652 191.145 220.917 187.63 224.543 183.507C235.391 170.843 236.26 155.66 236.283 149.852Z" fill="#A3C636"/>
<path d="M118.885 243.771C118.885 243.771 126.711 253.946 142.364 251.598V257.077C142.364 257.077 129.059 264.903 118.102 244.554L118.885 243.771Z" fill="#A3C636"/>
<path d="M152.539 277.426C158.442 280.309 164.795 282.162 171.323 282.904C181.215 283.992 189.011 282.075 204.194 278.208C210.08 276.706 218.157 274.452 227.674 271.164C227.032 273.048 226.247 274.879 225.326 276.643C224.617 277.99 223.833 279.296 222.978 280.556C213.31 285.649 202.721 288.757 191.834 289.698C180.947 290.639 169.981 289.394 159.583 286.035C156.69 283.658 154.295 280.732 152.539 277.426Z" fill="#A3C636"/>
<path d="M149.408 271.164C148.884 269.857 148.367 268.55 147.843 267.251C160.741 270.866 174.352 271.1 187.367 267.932C203.424 263.881 217.799 254.881 228.457 242.206C228.684 243.137 228.973 244.484 229.239 246.119C229.693 249.058 229.954 252.022 230.022 254.995V254.729C225.96 259.119 210.51 274.78 185.465 277.316C173.113 278.507 160.667 276.383 149.408 271.164Z" fill="#A3C636"/>
<path d="M175.236 239.075C175.236 239.075 193.237 239.858 200.281 229.684C200.281 229.684 204.977 232.814 208.89 233.597C206.213 235.945 195.264 244.992 181.497 242.989C178.79 242.584 176.154 241.793 173.671 240.641C174.195 240.116 174.711 239.592 175.236 239.075Z" fill="#A3C636"/>
<path d="M206.542 228.118L209.673 229.684C209.673 229.684 239.414 217.161 250.371 194.464C244.11 202.948 237.794 207.511 233.153 210.117C226.774 213.686 220.536 215.275 212.803 221.857C210.552 223.773 208.458 225.866 206.542 228.118Z" fill="#A3C636"/>
<path d="M120.45 44.1936C126.351 39.2315 133.191 37.6349 137.668 40.2803C138.952 41.0521 140.027 42.127 140.799 43.4109C141.057 42.6283 141.323 41.8456 141.582 41.063C140.322 38.9372 138.396 37.2866 136.103 36.367C131.11 34.5199 124.668 36.9383 120.45 42.6283V44.1936Z" fill="#A3C636"/>
<path d="M120.45 48.8895C121.654 47.9507 122.968 47.1623 124.363 46.5416C125.193 46.1659 128.096 44.8745 130.624 44.9762C136.252 45.1954 139.789 52.3332 140.016 52.8028C140.275 51.2375 140.541 49.6722 140.799 48.1069C140.408 47.5747 135.704 41.3917 128.276 41.8456C125.406 42.0508 122.67 43.145 120.45 44.9762V48.8895Z" fill="#A3C636"/>
<path d="M120.45 55.5656C123.082 53.4102 126.452 52.3683 129.842 52.6619C132.114 52.9091 134.272 53.788 136.07 55.199C137.869 56.61 139.236 58.4967 140.016 60.6451V56.27C139.482 53.916 138.086 51.8472 136.103 50.4705C132.033 47.8016 125.49 48.4904 120.45 52.6463V55.5656Z" fill="#A3C636"/>
<path d="M147.843 23.0618C148.709 20.8213 148.979 18.394 148.626 16.0179C147.358 8.05044 139.108 4.54413 138.451 4.27803L142.364 1.93005C145.479 3.35956 147.979 5.85881 149.408 8.97398C152.507 15.9944 148.14 22.6157 147.843 23.0618Z" fill="#A3C636"/>
<path d="M154.104 19.1485C154.441 18.8355 158.604 14.9535 157.775 9.52184C157.055 4.82589 152.875 0.95173 147.561 0.40387C148.175 0.351219 148.792 0.338147 149.408 0.364737C149.831 0.364737 155.998 0.701279 158.8 4.27803C161.406 7.5965 160.968 13.5525 157.235 18.3659L154.104 19.1485Z" fill="#A3C636"/>
<path d="M143.93 30.8884C144.225 29.025 143.952 27.1159 143.147 25.4098C140.799 20.7138 133.849 18.3111 125.928 19.9312L128.065 15.6501C135.438 14.703 141.895 17.998 143.93 23.0931C144.826 25.6142 144.826 28.3673 143.93 30.8884Z" fill="#A3C636"/>
<path d="M142.364 37.0244C142.364 37.0244 142.161 36.7114 142.153 36.6957C141.989 36.414 139.022 33.2364 137.081 32.2894C134.17 30.8493 127.345 31.3815 121.232 36.367C121.491 34.8017 121.757 33.2364 122.015 31.6711C122.853 31.3815 133.755 27.8282 138.639 31.6711C140.877 33.3616 142.364 37.0088 142.364 37.0244Z" fill="#A3C636"/>
<path d="M51.5759 41.8456C47.6626 48.1069 38.2707 46.5415 38.2707 46.5415L37.4881 38.715C37.4881 38.715 42.184 44.1936 51.5759 41.8456Z" fill="#A3C636"/>
<path d="M69.5771 42.6283C71.6862 42.6631 73.7855 42.9255 75.8383 43.4109C76.2678 42.0191 76.4011 40.5528 76.2297 39.1063C75.447 32.7511 68.6848 29.6205 68.0117 29.3231C69.5634 30.8302 70.6198 32.7738 71.0406 34.8956C71.5272 37.5655 71.0057 40.3209 69.5771 42.6283Z" fill="#A3C636"/>
<path d="M40.6187 54.3681C41.657 54.5171 42.7111 54.5171 43.7494 54.3681C49.3062 53.5385 52.4369 48.5217 53.1413 47.3242C53.0216 50.2743 53.5561 53.2143 54.7066 55.9334C54.7066 55.9334 46.0973 59.8467 40.6187 54.3681Z" fill="#A3C636"/>
<path d="M47.6626 70.8039C49.3296 73.9569 51.4379 76.8559 53.9239 79.4132C53.9239 79.4132 66.4464 81.7612 68.0117 74.7172C68.0117 74.7172 67.2291 74.7172 64.0985 71.5866C64.0985 71.5866 61.7505 75.4999 47.6626 70.8039Z" fill="#A3C636"/>
<path d="M92.2741 51.2375C96.8128 53.8501 101.018 57.0038 104.797 60.6294C104.797 60.6294 109.493 53.5855 104.014 44.1936C102.61 42.9264 101.028 41.8716 99.3181 41.063C99.3181 41.063 98.5354 51.2375 92.2741 51.2375Z" fill="#A3C636"/>
<path d="M68.0118 42.6283C62.5331 28.5404 41.4014 30.1057 41.4014 30.1057C52.3586 29.3231 59.4025 41.8456 59.4025 41.8456C62.2924 41.7877 65.1797 42.0502 68.0118 42.6283Z" fill="#A3C636"/>
<path d="M180.652 69.0586C180.117 69.6107 179.616 70.1934 179.149 70.8039C178.574 71.5494 178.051 72.334 177.584 73.1519C178.218 73.3163 179.267 73.598 180.566 73.9346C181.865 74.2711 182.765 74.545 182.914 74.5685C184.895 74.9439 186.935 74.8799 188.889 74.3808C190.843 73.8818 192.664 72.96 194.223 71.6805C192.252 72.3422 190.15 72.5194 188.095 72.1971C185.381 71.8237 182.814 70.7411 180.652 69.0586Z" fill="#A3C636"/>
<path d="M179.462 47.739C179.185 48.6656 179.019 49.622 178.969 50.5879C178.742 55.6439 181.928 59.3771 183.062 60.5981H175.236C174.938 58.9286 174.938 57.2195 175.236 55.55C175.816 52.5766 177.291 49.8514 179.462 47.739Z" fill="#A3C636"/>
<path d="M162.173 51.394C158.838 52.3679 155.654 53.798 152.711 55.6439C152.711 55.6439 148.43 66.6637 155.122 69.2856C155.122 69.2856 155.239 68.5734 158.816 66.2489C158.816 66.2489 155.333 63.447 162.173 51.394Z" fill="#A3C636"/>
<path d="M165.844 79.4132C162.247 80.1919 158.558 80.4554 154.887 80.1958C155.507 81.1743 156.194 82.108 156.945 82.9899C160.208 86.7266 164.434 89.496 169.162 90.9965C169.632 91.0936 170.108 91.1537 170.587 91.1765C174.5 91.38 177.631 89.2825 179.149 88.0459C177.506 88.3221 175.824 88.2562 174.208 87.8521C172.592 87.4481 171.077 86.7147 169.757 85.6979C167.804 84.0844 166.43 81.878 165.844 79.4132Z" fill="#A3C636"/>
<path d="M183.062 60.6294C183.113 57.7444 183.374 54.867 183.845 52.0202C184.072 50.6427 184.338 49.3356 184.628 48.1069H190.106C189.558 48.6009 189.035 49.1234 188.541 49.6722C185.792 52.7854 183.904 56.5624 183.062 60.6294Z" fill="#A3C636"/>
<path d="M183.062 61.4121C182.983 63.5854 182.45 65.7182 181.497 67.6733C183.341 68.0332 185.24 67.9985 187.07 67.5716C194.599 65.7636 197.604 57.6475 197.933 56.7161C198.985 53.9427 198.985 50.8802 197.933 48.1069C198.763 53.2724 196.54 58.2814 192.454 60.6294C188.251 63.0478 183.829 61.6625 183.062 61.4121Z" fill="#A3C636"/>
<path d="M191.672 54.3681C191.851 53.1859 192.399 52.0903 193.237 51.2375C193.961 50.6329 194.748 50.1081 195.585 49.6722C196.602 49.0304 197.409 48.4747 197.933 48.1069C197.48 48.9334 196.956 49.719 196.368 50.4548C195.07 52.0501 193.475 53.379 191.672 54.3681Z" fill="#A3C636"/>
<path d="M79.7516 79.4132C79.7516 79.4132 83.6649 86.4571 75.0557 91.9357C75.0557 91.9357 80.5343 93.501 83.6649 93.501C83.6649 93.501 91.4915 90.3704 96.1874 80.9785C96.1874 80.9785 83.6649 80.9785 79.7516 79.4132Z" fill="#A3C636"/>
<path d="M101.666 89.5877C108.489 93.9882 116.494 96.1966 124.608 95.9169C132.722 95.6371 140.557 92.8824 147.06 88.0224C147.858 88.236 148.642 88.4974 149.408 88.8051C151.374 89.5822 153.219 90.6364 154.887 91.9357C153.024 94.7689 147.545 102.251 137.809 104.928C125.224 108.395 110.588 102.369 101.666 89.5877Z" fill="#A3C636"/>
<path d="M125.928 80.9785C125.028 80.0814 124.311 79.0182 123.815 77.8479C122.913 75.6001 122.83 73.1068 123.58 70.804C122.271 66.3689 120.966 61.9338 119.667 57.4988L114.189 52.8028C113.361 55.8634 112.966 59.0246 113.015 62.1947C112.896 66.5295 113.836 70.8278 115.754 74.7172C116.964 77.0482 118.551 79.1637 120.45 80.9785H125.928Z" fill="#A3C636"/>
<path d="M152.539 90.3704C145.495 84.1091 147.843 77.8479 147.843 77.8479C143.93 83.3265 135.32 81.7612 135.32 81.7612C136.253 83.3908 137.604 84.7418 139.234 85.6744C142.466 87.4433 144.65 86.0814 148.626 88.0224C149.983 88.7129 151.291 89.4975 152.539 90.3704Z" fill="#A3C636"/>
<path d="M124.363 71.5866C124.23 72.3693 123.972 74.4824 125.146 75.4999C125.625 75.8391 126.152 76.103 126.711 76.2826C127.689 76.6739 128.026 76.6504 129.059 77.0652C129.623 77.2319 130.153 77.4969 130.624 77.8479C131.634 78.8184 131.477 80.4385 131.407 80.9785C131.697 78.7558 131.149 77.6522 130.624 77.0652C129.396 75.6643 127.494 76.2043 125.928 74.7172C125.078 73.8729 124.529 72.7732 124.363 71.5866Z" fill="#A3C636"/>
<path d="M130.624 80.9785H127.494C126.332 79.6332 125.525 78.019 125.146 76.2826C128.856 76.6426 131.321 77.9887 131.407 79.4132C131.399 79.7155 131.325 80.0123 131.19 80.2828C131.054 80.5533 130.861 80.7908 130.624 80.9785Z" fill="#A3C636"/>
<path d="M124.363 71.5866C124.363 71.5866 136.886 70.8039 134.538 80.9785C134.538 80.9785 134.538 76.2826 124.363 71.5866Z" fill="#A3C636"/>
<path d="M139.664 88.359C139.664 88.359 135.32 88.0224 132.19 81.7612H130.624C130.624 81.7612 135.406 88.7033 139.664 88.359Z" fill="#A3C636"/>
<path d="M100.883 89.5877C101.842 89.4257 102.756 89.0631 103.565 88.5236C104.375 87.9842 105.061 87.28 105.579 86.4571C106.401 85.0387 106.68 83.3696 106.362 81.7612H109.493C109.48 83.4525 108.932 85.0964 107.927 86.4571C107.169 87.3974 106.218 88.1637 105.137 88.7038C104.057 89.244 102.873 89.5455 101.666 89.5877H100.883Z" fill="#A3C636"/>
<path d="M111.058 89.5877C111.87 89.4247 112.659 89.1618 113.406 88.8051C114.963 88.1237 116.313 87.0439 117.319 85.6745C118.139 84.5102 118.676 83.1699 118.885 81.7612H121.232C120.895 83.5119 120.082 85.1363 118.885 86.4571C116.043 89.5408 111.074 89.6347 111.058 89.5877Z" fill="#A3C636"/>
<path d="M111.841 89.5877C111.841 89.4625 117.476 89.4156 120.45 87.2398C121.345 86.5783 122.136 85.7869 122.798 84.8918C123.487 83.9407 124.016 82.8831 124.363 81.7612H125.928C125.581 82.8831 125.052 83.9407 124.363 84.8918C122.968 86.7137 121.06 88.0766 118.885 88.8051C116.598 89.463 114.216 89.7277 111.841 89.5877Z" fill="#A3C636"/>
<path d="M125.928 82.5438C125.928 82.5438 131.407 87.2398 136.886 88.8051H129.842C129.059 88.8051 126.711 84.8918 125.928 82.5438Z" fill="#A3C636"/>
<path d="M32.7921 148.287L27.3135 150.635C27.3135 150.635 20.2696 184.289 49.228 186.637L53.1412 179.593C53.1412 179.593 28.0962 178.028 32.7921 148.287Z" fill="#B3DC4B"/>
<path d="M46.0973 209.334C46.0973 209.334 109.493 217.161 132.972 203.073V209.334C132.972 209.334 126.711 217.944 49.228 218.726L46.0973 209.334Z" fill="#B3DC4B"/>
<path d="M210.455 229.684C224.392 224.96 236.423 215.849 244.748 203.715C253.072 191.581 257.242 177.077 256.632 162.375C260.501 167.27 263.42 172.844 265.242 178.811C261.414 190.3 252.038 212.316 230.022 225.77C226.53 227.902 222.865 229.735 219.065 231.249L210.455 229.684Z" fill="#B3DC4B"/>
<path d="M151.756 365.866C159.56 364.954 167.054 362.278 173.671 358.039C177.113 355.829 180.268 353.2 183.062 350.213C189.105 343.607 190.513 338.074 195.585 326.733C197.628 322.155 200.704 315.651 204.977 307.949C205.911 308.87 206.703 309.925 207.325 311.08C208.235 312.772 208.769 314.641 208.89 316.559C205.679 330.656 198.319 343.468 187.758 353.343C180.527 359.977 171.999 365.041 162.713 368.214C158.897 368.782 155.005 367.947 151.756 365.866Z" fill="#B3DC4B"/>
<path d="M86.7955 108.372C96.4802 114.221 107.055 118.451 118.102 120.894C134.933 124.534 152.399 123.997 168.975 119.329C169.093 121.302 169.093 123.28 168.975 125.253C168.975 125.347 168.521 130.004 168.192 131.851C165.523 132.258 163.144 132.493 161.148 132.634C157.5 132.896 153.839 132.896 150.191 132.634C135.962 131.577 114.189 126.373 114.189 126.373C109.422 125.488 104.452 124.455 99.3181 123.242C94.1838 122.029 89.1435 120.691 84.4476 119.329C84.6458 117.836 84.9067 116.271 85.2302 114.633C85.6842 112.371 86.2242 110.281 86.7955 108.372Z" fill="#B3DC4B"/>
<path d="M56.2719 105.241C57.2384 112.148 58.8098 118.958 60.9678 125.59C64.4194 136.179 69.4362 146.354 73.2321 154.016C73.3573 154.282 73.4277 154.415 73.4904 154.548C78.5996 164.582 85.4954 173.599 93.8395 181.159C93.1272 181.433 92.3446 181.707 91.4915 181.941C89.9568 182.361 88.3834 182.623 86.7955 182.724C81.1291 174.428 77.028 167.384 74.273 162.375C70.6884 155.848 70.7589 155.245 65.6638 145.939C61.1087 137.619 59.9425 136.07 57.8372 131.069C55.0901 124.549 53.7909 121.176 53.1413 117.763C52.5537 114.669 52.2914 111.521 52.3586 108.372L56.2719 105.241Z" fill="#B3DC4B"/>
<path d="M136.886 210.9C141.579 212.446 146.503 213.174 151.443 213.052C166.149 212.645 176.371 204.599 179.932 201.508C180.19 202.29 180.456 203.073 180.714 203.856C177.983 206.767 167.206 217.568 150.973 217.944C146.173 218.036 141.397 217.24 136.886 215.596V210.9Z" fill="#B3DC4B"/>
<path d="M103.231 286.035L98.5354 289.948C101.666 291.083 105.908 292.507 111.058 293.861C116.186 295.312 121.42 296.358 126.711 296.992C132.73 297.642 139.915 298.424 148.626 296.209C152.726 295.16 156.672 293.581 160.365 291.513L154.104 286.035C151.273 288.265 148.137 290.075 144.79 291.412C126.108 298.863 107.27 288.398 103.231 286.035Z" fill="#B3DC4B"/>
<path d="M31.2268 235.162C37.3588 242.927 45.1027 249.269 53.9239 253.75C79.6499 266.672 105.243 258.344 111.058 256.294V260.99C101.339 264.017 91.1978 265.47 81.0195 265.294C54.9022 264.794 35.7976 253.5 27.3135 247.685C27.4319 243.228 28.7867 238.893 31.2268 235.162Z" fill="#B3DC4B"/>
<path d="M147.843 267.251C151.217 267.705 154.614 267.966 158.017 268.034C165.392 268.176 172.755 267.387 179.932 265.686C187.587 263.802 194.956 260.907 201.846 257.077C210.992 251.989 219.199 245.371 226.109 237.51C226.633 238.809 227.15 240.116 227.674 241.423C223.692 246.783 218.946 251.53 213.586 255.511C187.766 274.608 156.147 268.989 147.843 267.251Z" fill="#B3DC4B"/>
<path d="M161.148 287.6C161.07 287.678 171.988 297.634 187.758 297.775C203.529 297.916 214.275 288.782 217.499 286.035C219.466 284.355 221.298 282.523 222.978 280.556C212.319 283.862 201.261 285.705 190.106 286.035C177.584 286.356 159.716 284.806 159.583 286.035C159.544 286.45 161.172 287.569 161.148 287.6Z" fill="#B3DC4B"/>
<path d="M100.101 319.689L155.669 318.907C153.321 320.965 142.114 330.537 125.435 329.746C116.12 329.245 107.223 325.714 100.101 319.689Z" fill="#B3DC4B"/>
<path d="M16.3563 156.896C14.7131 158.104 13.1449 159.411 11.6604 160.81C10.8151 161.597 10.0324 162.38 9.3124 163.158C10.4534 168.971 12.023 174.692 14.0084 180.274C18.313 191.725 26.5309 208.943 42.184 232.031H52.3586C48.0765 224.635 45.659 216.308 45.3147 207.769C38.3549 204.805 32.1888 200.248 27.3135 194.464C14.6032 179.226 15.9415 161.037 16.3563 156.896Z" fill="#B3DC4B"/>
<path d="M18.7043 154.548L16.0198 157.147C16.0198 157.147 19.487 186.637 45.3147 200.725C45.4793 197.22 46.2747 193.773 47.6626 190.551C43.7757 189.602 40.073 188.015 36.7054 185.855C21.8115 176.228 19.1817 158.407 18.7043 154.548Z" fill="#B3DC4B"/>
<path d="M56.2719 181.941C56.0136 182.982 52.6169 187.937 52.3586 188.985C57.0545 191.615 61.7505 195.129 71.925 196.029C82.8823 196.992 91.2489 194.464 96.1874 192.899C100.382 191.576 104.233 190.363 108.71 187.42C115.104 183.201 121.232 176.463 121.232 176.463L114.189 170.202C106.847 178.389 97.3567 184.354 86.7955 187.42C69.3423 192.421 61.1009 183.757 56.2719 181.941Z" fill="#B3DC4B"/>
<path d="M63.3158 238.293C63.3158 238.293 97.7527 267.251 128.276 227.336C107.434 234.771 85.4445 238.48 63.3158 238.293Z" fill="#B3DC4B"/>
<path d="M17.139 83.3265C17.6947 86.958 19.0174 91.5209 22.6176 93.501C27.7518 96.3264 32.9878 91.3722 38.2707 94.2837C40.9474 95.7551 42.1292 99.2066 44.532 106.024C46.5434 111.713 45.6903 111.62 48.4453 120.894C49.6584 124.98 52.8751 137.917 53.1412 138.895C55.2936 146.855 58.2207 150.212 65.6638 162.375C68.7474 167.407 73.1538 174.858 78.1863 184.289C77.1445 184.376 76.0974 184.376 75.0557 184.289C73.7267 184.171 72.4146 183.909 71.1424 183.507C65.3072 174.743 60.0773 165.59 55.4892 156.114C49.3845 143.466 48.0618 137.651 47.6626 135.765C47.3965 134.512 46.7 130.231 45.3147 121.677C45.3147 121.677 44.7512 118.202 42.184 106.806C41.4953 103.746 40.4074 99.2144 36.5489 96.2873C36.3516 96.1256 36.1423 95.9791 35.9228 95.849C31.3051 93.2036 26.3274 98.3144 19.487 96.6317C14.431 95.3794 11.1751 91.1531 9.3124 88.0224C10.051 88.3532 10.8511 88.5242 11.6604 88.5242C12.4696 88.5242 13.2698 88.3532 14.0083 88.0224C14.8975 87.5847 15.6552 86.9199 16.2049 86.0953C16.7547 85.2707 17.0769 84.3156 17.139 83.3265Z" fill="#B3DC4B"/>
<path d="M100.883 89.5877L95.4048 94.2837C101.841 99.4246 109.128 103.398 116.936 106.024C123.526 108.223 137.332 112.825 152.539 107.589C156.805 106.109 160.825 103.998 164.467 101.328C164.42 101.069 161.594 96.6317 160.365 95.849C154.759 100.859 147.842 104.168 140.423 105.39C118.65 108.732 102.918 91.0435 101.666 89.5877" fill="#B3DC4B"/>
<path d="M100.883 408.912C100.883 408.724 113.234 411.315 124.363 411.26C139.641 411.182 142.615 406.189 165.805 404.999H165.844C162.031 410.42 157.001 414.873 151.156 417.999C145.312 421.125 138.816 422.838 132.19 423C132.19 423 113.406 423 100.883 408.912Z" fill="#B3DC4B"/>
<path d="M82.8822 299.34C85.0533 308.344 89.9997 316.438 97.0221 322.477C104.044 328.516 112.788 332.196 122.015 332.994C112.171 334.256 102.185 332.228 93.6125 327.226C78.8359 318.476 74.3904 304.091 73.4904 300.905L82.8822 299.34Z" fill="#B3DC4B"/>
<path d="M93.0568 363.518C93.0568 363.518 61.7505 337.69 60.1852 311.863C60.1852 311.863 48.4453 350.995 93.0568 363.518Z" fill="#B3DC4B"/>
<path d="M27.3135 250.815C32.6175 256.408 38.8645 261.023 45.7686 264.449C60.1695 271.579 73.5217 271.321 82.8823 271.164C91.8827 270.996 100.825 269.681 109.493 267.251C109.285 268.051 109.024 268.835 108.71 269.599C108.477 270.16 108.216 270.708 107.927 271.243C101.112 274.756 93.7116 276.993 86.0911 277.84C54.7848 281.237 31.5399 258.924 27.2979 254.713L27.3135 250.815Z" fill="#B3DC4B"/>
<path d="M112.623 271.164C112.882 270.382 113.148 269.599 113.406 268.816C113.664 268.034 113.93 267.251 114.189 266.468C115.065 266.797 116.443 267.329 118.102 268.034C122.688 269.959 123.815 270.789 126.711 271.947C130.382 273.418 132.526 274.295 135.32 274.295C138.7 274.252 141.983 273.158 144.712 271.164C145.753 272.988 146.802 274.812 147.843 276.643C144.936 277.281 142.062 278.065 139.234 278.991C132.761 281.088 131.548 282.27 128.276 282.122C127.243 282.067 122.015 281.707 118.885 278.208C118 277.214 117.21 275.907 114.971 273.512C114.009 272.487 113.179 271.681 112.623 271.164Z" fill="#B3DC4B"/>
<path d="M115.754 166.288L122.015 171.767C123.566 172.108 125.133 172.369 126.711 172.549C127.142 172.596 133.45 173.395 136.886 172.549C138.232 172.213 140.016 171.078 140.799 170.984L139.234 169.419C131.28 169.862 123.314 168.8 115.754 166.288Z" fill="#B3DC4B"/>
<path d="M133.755 188.985C135.498 192.401 136.561 196.122 136.886 199.943C139.206 202.515 142.182 204.409 145.495 205.421C155.936 208.45 169.249 201.328 178.367 187.42C176.723 188.923 165.453 198.902 150.113 196.585C144.06 195.621 138.395 192.989 133.755 188.985Z" fill="#B3DC4B"/>
<path d="M125.928 176.463L128.276 178.811C131.896 179.948 135.812 179.668 139.234 178.028C141.068 177.085 142.671 175.749 143.93 174.115L143.147 173.332C142.646 173.598 142.122 173.864 141.582 174.115C136.668 176.283 131.262 177.094 125.928 176.463Z" fill="#B3DC4B"/>
<path d="M96.9701 403.434C96.1874 402.252 95.4048 400.945 94.6221 399.52C93.3995 397.256 92.3528 394.901 91.4915 392.476C96.9845 395.187 102.759 397.287 108.71 398.738C115.638 400.341 122.73 401.129 129.842 401.086C148.931 400.921 164.811 394.167 172.888 390.128C172.505 391.737 171.981 393.308 171.323 394.824C164.631 396.851 159.004 398.417 154.887 399.52C138.373 403.934 131.955 404.748 129.842 404.999C125.43 405.564 120.984 405.825 116.537 405.782C109.95 405.684 103.392 404.897 96.9701 403.434Z" fill="#B3DC4B"/>
<path d="M91.5697 370.366V366.649C91.5697 366.649 126.007 391.694 173.749 372.127C169.173 374.476 164.47 376.566 159.661 378.389C154.104 380.465 148.424 382.195 142.654 383.57C139.757 384.382 136.811 385.004 133.833 385.432C129.416 385.994 124.945 385.994 120.528 385.432C113.577 384.514 106.904 382.112 100.962 378.389C97.4829 376.151 94.3235 373.452 91.5697 370.366Z" fill="#B3DC4B"/>
<path d="M129.842 356.474C130.201 355.728 130.464 354.939 130.624 354.126C131.011 352.008 130.738 349.823 129.842 347.865C142.359 346.329 154.384 342.053 165.061 335.342C171.988 330.92 179.791 325.81 184.628 315.776C186.959 310.87 188.289 305.549 188.541 300.123L200.281 299.34C195.597 308.689 189.601 317.32 182.475 324.972C163.512 345.282 141.378 353.257 129.842 356.474Z" fill="#B3DC4B"/>
<path d="M176.019 183.507C176.019 180.681 184.244 173.997 188.541 170.202C197.15 162.578 207.904 149.578 215.746 126.208C213.322 136.058 209.705 145.575 204.977 154.548C202.089 159.988 199.24 164.308 197.933 166.288C194.125 172.036 189.942 177.527 185.41 182.724C182.922 183.452 176.019 183.507 176.019 183.507Z" fill="#B3DC4B"/>
<path d="M141.582 165.506C142.599 165.506 164.764 164.621 175.236 145.939C183.329 131.499 180.918 112.715 168.975 99.7623C173.067 98.7434 177.31 98.4782 181.497 98.9796C187.76 99.7579 193.703 102.189 198.716 106.024C199.225 111.512 198.961 117.044 197.933 122.459C192.306 151.809 165.719 166.601 161.931 168.636C157.691 170.905 153.234 172.741 148.626 174.115C145.268 172.245 142.75 169.166 141.582 165.506Z" fill="#B3DC4B"/>
<path d="M182.28 186.637V187.42C183.845 188.328 195.241 194.683 207.325 189.768C218.18 185.346 222.031 174.897 223.761 170.202C226.295 163.181 226.837 155.596 225.326 148.287L220.63 147.504C220.63 147.504 220.63 179.593 182.28 186.637Z" fill="#B3DC4B"/>
<path d="M114.971 245.337L116.537 243.771C116.537 243.771 125.928 264.12 142.364 257.859C140.396 258.774 138.271 259.306 136.103 259.425C128.848 259.785 123.51 255.143 121.232 253.163C118.697 250.947 116.577 248.297 114.971 245.337Z" fill="#B3DC4B"/>
<path d="M208.89 233.597L215.151 235.162C215.151 235.162 179.932 271.947 146.278 250.815C146.278 250.815 167.409 249.25 172.888 241.423C172.888 241.423 187.758 252.381 208.89 233.597Z" fill="#B3DC4B"/>
<path d="M124.363 70.804C125.526 70.431 126.755 70.308 127.969 70.4428C129.183 70.5777 130.354 70.9675 131.407 71.5866C132.705 72.4162 133.755 73.5819 134.444 74.96C135.133 76.338 135.436 77.8768 135.32 79.4132C136.103 77.7618 140.016 66.8907 140.016 66.8907C140.016 66.8907 137.668 58.2814 130.624 55.9335C126.586 54.5873 122.156 56.8022 120.45 57.4988C121.754 61.9495 123.059 66.3845 124.363 70.804Z" fill="#B3DC4B"/>
<path d="M120.45 52.0202C123.061 49.8074 126.425 48.6862 129.842 48.8895C136.283 49.3591 139.664 54.5873 140.016 55.1508V52.8028C139.51 50.312 138.12 48.0882 136.103 46.5416C132.033 43.6614 125.49 44.4049 120.45 48.8895V52.0202Z" fill="#B3DC4B"/>
<path d="M144.712 28.5404C144.861 27.9378 146.559 20.7843 141.582 15.2352C138.943 12.3878 135.286 10.6996 131.407 10.5393L133.755 7.40866C134.467 7.40866 140.901 7.58084 144.712 12.8873C147.921 17.3484 147.921 23.6019 144.712 28.5404Z" fill="#B3DC4B"/>
<path d="M143.93 30.8884C143.751 28.8586 142.928 26.939 141.582 25.4098C138.114 21.6139 131.078 21.0973 124.363 24.6271C124.888 23.0618 125.404 21.4965 125.928 19.9312C133.661 17.7789 140.713 20.0251 143.147 24.6271C144.111 26.5649 144.387 28.773 143.93 30.8884Z" fill="#B3DC4B"/>
<path d="M147.843 0.364742C157.65 -1.45885 164.889 3.91018 165.249 8.60613C165.515 12.1281 162.119 16.0649 157.235 18.3346C157.657 17.8885 161.336 13.9047 160.365 8.94267C159.395 3.98062 154.182 0.0438525 147.843 0.364742Z" fill="#B3DC4B"/>
<path d="M120.45 42.6283L121.232 36.367C121.232 36.367 133.755 26.1924 142.364 37.1497C142.364 37.1497 129.842 24.6271 120.45 42.6283Z" fill="#B3DC4B"/>
<path d="M142.364 36.367C141.633 34.1928 140.27 32.2855 138.451 30.8884C134.201 27.7578 127.658 28.0317 122.015 31.6711L122.798 28.5404C124.207 27.8752 130.906 24.9011 136.886 27.7578C138.318 28.4387 140.799 30.1057 142.364 35.5844" fill="#B3DC4B"/>
<path d="M142.364 1.93006C144.576 2.97947 146.468 4.60067 147.843 6.62601C152.539 13.7404 148.07 22.6157 147.843 23.0618C152.946 18.1859 154.323 11.322 151.631 6.4773C150.065 3.90485 147.599 2.0055 144.712 1.1474L142.364 1.93006Z" fill="#B3DC4B"/>
<path d="M152.539 19.9312C155.591 14.8596 155.56 8.97398 152.539 5.06069C150.941 3.10067 148.739 1.72467 146.278 1.1474C148.392 1.12343 150.469 1.69882 152.27 2.80692C154.071 3.91503 155.521 5.51053 156.452 7.40867C159.113 12.8873 155.842 18.0998 155.669 18.3659L152.539 19.9312Z" fill="#B3DC4B"/>
<path d="M36.7054 30.1057C40.6187 30.9902 42.638 32.6572 43.7494 34.019C45.2364 35.827 45.5182 37.5645 47.6626 39.4976C48.8097 40.5169 50.1368 41.3132 51.5759 41.8456H59.4025C59.4025 41.8456 50.7933 28.5404 36.7054 30.1057Z" fill="#B3DC4B"/>
<path d="M52.3586 46.5416C53.3056 44.5849 51.8107 42.2056 51.5759 41.8456C50.8727 42.7958 50.0493 43.6508 49.1262 44.3892C44.9781 47.6764 40.0161 47.4729 38.2707 47.3242C40.9417 48.6285 43.9209 49.1702 46.88 48.8895C48.9149 48.6704 51.4585 48.3965 52.3586 46.5416Z" fill="#B3DC4B"/>
<path d="M40.6187 54.3681C41.3129 57.3532 42.364 60.2437 43.7494 62.9774C43.7494 62.9774 53.9239 68.456 56.2719 59.0641C56.2719 59.0641 48.4453 64.5427 40.6187 54.3681Z" fill="#B3DC4B"/>
<path d="M75.8383 43.4109C75.8383 43.4109 86.0129 44.9762 84.4476 33.2364C83.4223 32.7824 82.3109 32.352 81.1213 31.9606C78.1408 30.9778 75.0535 30.3551 71.925 30.1057C76.8167 35.06 79.0472 39.9124 77.5289 42.2056C77.1162 42.7854 76.5209 43.2098 75.8383 43.4109Z" fill="#B3DC4B"/>
<path d="M90.7088 50.4549C93.3855 50.4549 92.2741 41.8456 89.1435 35.5844C91.9161 36.5317 94.5486 37.848 96.9701 39.4976C96.9701 39.4976 98.5354 51.2375 90.7088 50.4549Z" fill="#B3DC4B"/>
<path d="M53.9239 79.4132C53.9239 79.4132 65.6638 94.2837 78.969 79.4132C77.0898 79.5476 75.204 79.2667 73.4456 78.5903C71.6872 77.914 70.0992 76.8589 68.7944 75.4999C67.2398 77.8772 64.8586 79.5933 62.1117 80.3162C59.3647 81.039 56.4473 80.7173 53.9239 79.4132Z" fill="#B3DC4B"/>
<path d="M179.462 47.739C176.43 47.8616 173.421 48.3263 170.493 49.1243C170.493 49.1243 163.496 57.4753 172.379 61.2086C172.379 61.2399 168.215 53.2176 179.462 47.739Z" fill="#B3DC4B"/>
<path d="M177.584 73.1519C177.297 74.1758 177.297 75.2587 177.584 76.2826C178.523 79.4758 182.609 81.7612 187.758 81.7612C188.186 81.1663 188.617 80.5559 189.05 79.9297C190.396 77.9653 191.593 76.0165 192.666 74.1616C190.617 75.0298 188.418 75.4846 186.193 75.4999C183.166 75.4937 180.195 74.6834 177.584 73.1519Z" fill="#B3DC4B"/>
<path d="M167.574 79.3428C166.94 80.9785 177.169 84.0387 185.152 84.8214C183.238 86.2221 181.096 87.2812 178.82 87.952C178.82 87.952 164.866 83.8117 167.574 79.3428Z" fill="#B3DC4B"/>
<path d="M152.711 55.6439C152.711 55.6439 136.22 63.8226 148.798 78.474C148.798 78.474 148.892 73.3476 154.276 69.8648C152.33 68.2022 151.024 65.9135 150.582 63.3922C150.392 62.0238 150.483 60.6311 150.849 59.299C151.215 57.9669 151.849 56.7232 152.711 55.6439Z" fill="#B3DC4B"/>
<path d="M197.933 48.1069L191.75 47.8721C190.839 48.6307 190.024 49.498 189.324 50.4549C187.664 52.7246 187.586 54.2977 186.193 56.7161C185.345 58.1654 184.29 59.4836 183.062 60.6294C185.017 60.7777 186.96 60.2225 188.541 59.0641C190.161 57.804 190.944 56.0117 191.672 54.3681C192.642 52.1611 192.407 51.5349 193.237 50.4549C194.436 49.089 196.121 48.2463 197.933 48.1069Z" fill="#B3DC4B"/>
<path d="M101.666 89.5877C102.369 88.1289 102.64 86.4997 102.449 84.8918C102.268 83.4754 101.73 82.1285 100.883 80.9785C101.897 81.3487 102.946 81.611 104.014 81.7612C104.792 81.8806 105.584 81.8806 106.362 81.7612C106.383 83.2835 106.038 84.7887 105.357 86.1504C104.676 87.5122 103.679 88.6909 102.449 89.5877H101.666Z" fill="#B3DC4B"/>
<path d="M153.321 80.1958H147.843C147.843 80.1958 147.06 89.5877 158.017 92.7184" fill="#B3DC4B"/>
<path d="M158.017 92.7184C159.285 92.6714 160.592 92.6088 161.931 92.5227C164.106 92.374 166.196 92.1705 168.192 91.9357C165.135 91.1126 162.293 89.6369 159.861 87.6102C157.429 85.5836 155.465 83.0541 154.104 80.1958H147.843" fill="#B3DC4B"/>
<path d="M134.538 81.7612C135.545 83.7996 137.195 85.4498 139.234 86.4571C141.315 87.3963 142.411 86.6606 145.495 87.2398C147.504 87.6236 149.425 88.3744 151.161 89.4547C150.136 88.8088 149.016 88.3257 147.843 88.0224C143.984 87.0363 141.801 88.9068 138.451 87.2398C135.32 85.6745 134.538 81.7612 134.538 81.7612Z" fill="#B3DC4B"/>
<path d="M123.58 70.8039C123.338 71.9545 122.626 76.126 125.146 79.4132C125.599 79.9995 126.125 80.5255 126.711 80.9785C126.121 79.7023 125.599 78.396 125.146 77.0652C124.454 75.0244 123.93 72.9303 123.58 70.8039Z" fill="#B3DC4B"/>
<path d="M124.786 71.9466C126.324 72.6192 127.792 73.4424 129.169 74.4042C131.368 75.9695 132.863 77.0104 132.972 78.6305C132.993 79.4805 132.716 80.311 132.19 80.9785H131.407C131.579 80.2053 131.579 79.4038 131.407 78.6305C130.984 76.8382 129.662 75.719 127.494 73.9346C126.63 73.221 125.725 72.5573 124.786 71.9466Z" fill="#B3DC4B"/>
<path d="M129.842 81.7612H128.276C128.276 81.7612 136.103 89.5877 140.016 88.8051C140.016 88.8051 135.32 88.8051 129.842 81.7612Z" fill="#B3DC4B"/>
<path d="M104.797 89.5877C106.004 89.5455 107.188 89.244 108.268 88.7038C109.348 88.1637 110.3 87.3974 111.058 86.4571C112.063 85.0964 112.611 83.4525 112.623 81.7612H114.971C114.959 83.4525 114.411 85.0964 113.406 86.4571C112.648 87.3974 111.696 88.1637 110.616 88.7038C109.536 89.244 108.352 89.5455 107.145 89.5877H104.797Z" fill="#B3DC4B"/>
<path d="M111.841 89.5877C111.841 89.4625 115.128 89.4156 118.102 87.2398C118.997 86.5783 119.788 85.7869 120.45 84.8918C121.139 83.9407 121.668 82.8831 122.015 81.7612H123.58C123.233 82.8831 122.704 83.9407 122.015 84.8918C120.62 86.7137 118.712 88.0766 116.537 88.8051C115.051 89.4193 113.445 89.6869 111.841 89.5877Z" fill="#B3DC4B"/>
<path d="M119.667 89.5877C119.667 89.5877 125.146 86.4571 125.928 83.3265C125.928 83.3265 127.494 88.0224 129.059 89.5877H119.667Z" fill="#B3DC4B"/>
<path d="M85.2302 93.501H96.1874C97.7563 92.8395 99.111 91.7558 100.101 90.3704C102.926 86.3084 101.071 81.4403 100.883 80.9785H96.9701C95.8351 84.6487 93.6602 87.9111 90.7088 90.3704C89.0667 91.7074 87.2158 92.7651 85.2302 93.501Z" fill="#ECE45A"/>
<path d="M86.0129 133.417C90.0258 135.382 94.2196 136.955 98.5354 138.113C113.335 142.026 123.189 139.294 152.539 137.33C158.55 136.923 163.496 136.68 166.627 136.547C166.102 137.502 165.515 138.504 164.85 139.529C163.949 140.933 162.974 142.289 161.931 143.591C159.786 143.552 155.865 143.497 150.973 143.591C125.396 144.045 115.824 147.45 100.883 143.591C96.5583 142.462 92.3618 140.889 88.3609 138.895C87.3646 137.168 86.5765 135.329 86.0129 133.417Z" fill="#ECE45A"/>
<path d="M43.7494 116.981C48.3422 140.764 57.6568 163.385 71.1424 183.507C70.1719 183.311 69.1231 183.061 68.0118 182.724C66.7048 182.318 65.4241 181.832 64.1767 181.268C51.5677 163.411 43.7282 142.63 41.4014 120.894L43.7494 116.981Z" fill="#ECE45A"/>
<path d="M53.1413 226.553C53.1413 226.553 117.46 224.26 132.19 215.596L130.624 221.857C130.624 221.857 76.981 237.471 57.0545 232.032L53.1413 226.553Z" fill="#ECE45A"/>
<path d="M16.3563 156.896C17.2564 160.403 18.7043 165.443 20.8566 171.376C23.455 178.482 24.809 182.192 27.3135 185.855C29.5363 189.103 34.5766 195.121 45.3147 199.16V207.769C42.2029 204.584 38.7961 201.702 35.1401 199.16C27.7283 193.994 25.6073 194.276 22.6176 190.551C19.6278 186.825 19.9018 184 17.139 174.115C15.4406 168.041 13.6796 163.158 12.443 160.027L16.3563 156.896Z" fill="#ECE45A"/>
<path d="M89.9262 101.328C92.623 104.637 95.7868 107.537 99.3181 109.937C125.451 127.586 162.4 110.046 167.409 107.589C167.801 109.467 168.158 111.432 168.482 113.482C168.669 114.672 168.834 115.838 168.975 116.981C162.288 120.126 155.163 122.237 147.843 123.242C132.573 125.3 120.536 121.849 111.841 119.329C103.053 116.776 94.6342 113.093 86.7955 108.372C87.2182 107.143 87.7347 105.828 88.3609 104.458C88.8696 103.308 89.4018 102.282 89.9262 101.328Z" fill="#ECE45A"/>
<path d="M6.96443 167.071C5.25033 169.454 3.92915 172.096 3.05114 174.897C3.05114 175.758 2.98853 177.128 3.05114 178.811C3.44247 189.087 6.81572 195.81 12.443 209.334C13.8831 212.802 16.0902 218.194 18.7043 224.988L32.7921 231.249C29.8099 222.214 25.8744 213.522 21.0523 205.319C16.5911 197.782 12.9439 193.407 10.0951 185.072C8.12687 179.27 7.07077 173.197 6.96443 167.071Z" fill="#ECE45A"/>
<path d="M56.2719 181.941C56.2719 181.941 89.9262 199.16 114.189 170.202C114.189 170.202 93.8395 209.334 56.2719 181.941Z" fill="#ECE45A"/>
<path d="M49.228 199.16C49.1575 201.124 49.1419 203.214 49.228 205.421C49.2827 206.908 49.3767 208.333 49.4941 209.702C59.4573 211.095 71.3615 211.377 84.7763 211.377C103.49 211.377 124.363 209.726 132.972 203.073C132.972 203.073 132.19 193.681 129.059 187.42C129.059 187.42 132.972 214.03 49.228 199.16Z" fill="#ECE45A"/>
<path d="M30.4442 170.202C29.098 170.984 25.263 173.465 23.4002 173.332C27.024 174.843 29.9981 175.837 32.0095 176.463C36.8463 177.958 39.9143 178.466 41.4014 181.159C41.8397 181.941 41.644 182.043 42.184 183.507C43.2812 186.135 44.8757 188.527 46.88 190.551C50.8402 194.558 57.1563 196.201 60.5374 196.984C68.2809 198.762 76.2053 199.631 84.1501 199.575C96.3361 199.575 107.403 199.52 116.537 192.139C120.168 189.156 123.106 185.417 125.146 181.182L121.232 176.486C115.439 183.016 108.204 188.108 100.101 191.357C92.8663 194.142 85.1531 195.472 77.4036 195.27C72.3557 195.255 67.3402 194.463 62.5331 192.922C59.3321 191.858 59.9738 191.654 53.1412 189.009C50.6446 188.038 48.9384 187.443 46.88 185.878C45.4181 184.741 44.1035 183.427 42.9667 181.965C41.3153 179.813 41.237 178.834 39.3508 176.682C38.5412 175.762 37.6563 174.911 36.7054 174.138C34.8083 172.546 32.7015 171.221 30.4442 170.202Z" fill="#ECE45A"/>
<path d="M63.3158 101.328L56.2719 105.241C59.5121 116.574 62.5331 125.887 64.8811 132.634C69.131 144.992 71.4946 150.392 73.4904 154.548C78.7889 165.599 82.8196 170.695 86.0129 174.115C88.4187 176.679 91.0369 179.035 93.8395 181.159C98.5513 179.162 102.811 176.234 106.362 172.549C97.4445 168.469 89.4546 162.61 82.8822 155.331C76.7458 148.464 71.9656 140.497 68.7944 131.851C65.0398 122.119 63.1802 111.758 63.3158 101.328Z" fill="#ECE45A"/>
<path d="M165.844 182.724C169.691 176.795 174.151 171.286 179.149 166.288C185.41 160.027 200.797 141.4 203.412 131.069C206.303 119.56 207.619 107.712 207.325 95.849C207.497 96.0525 209.673 98.5648 212.803 98.197C215.645 97.8526 218.039 95.262 218.282 91.9357C221.413 116.198 215.652 129.574 209.673 137.33C202.582 146.51 192.627 151.081 184.628 166.288C181.781 171.722 179.675 177.513 178.367 183.507C177.114 183.507 175.807 183.507 174.453 183.507C171.57 183.421 168.695 183.159 165.844 182.724Z" fill="#ECE45A"/>
<path d="M195.585 221.074C197.961 220.689 200.313 220.166 202.629 219.509C226.007 212.849 238.631 194.12 240.979 190.551C247.164 180.947 250.964 170.004 252.062 158.634C253.774 159.631 255.317 160.893 256.632 162.375C257.094 186.215 250.41 196.514 244.11 201.508C237.982 206.352 230.726 207.354 219.065 216.378C214.526 219.884 210.333 223.815 206.542 228.118C202.521 226.401 198.817 224.019 195.585 221.074Z" fill="#ECE45A"/>
<path d="M144.712 361.953C157.759 361.663 169.421 358.619 176.019 350.213C180.472 344.523 180.284 339.365 183.845 329.081C187.628 318.321 193.183 308.268 200.281 299.34C201.064 300.514 201.846 301.821 202.629 303.253C203.216 304.333 203.732 305.374 204.194 306.384C198.295 314.971 193.311 324.152 189.324 333.777C184.526 345.423 184.033 350.996 177.584 356.474C170.164 362.735 159.583 364.935 158.8 365.083C156.477 365.532 154.121 365.794 151.756 365.866C150.754 365.404 149.706 364.88 148.626 364.301C147.193 363.518 145.894 362.728 144.712 361.953Z" fill="#ECE45A"/>
<path d="M90.7088 382.302C107.395 389.463 134.139 397.423 163.496 390.128C166.941 389.266 170.337 388.221 173.671 386.998C173.534 388.068 173.271 389.119 172.888 390.128C171.777 390.739 170.172 391.584 168.192 392.476C163.19 394.687 157.932 396.264 152.539 397.172C136.886 400.021 129.114 401.461 118.885 400.303C109.294 399.18 100 396.26 91.4915 391.694C90.7141 388.628 90.4497 385.454 90.7088 382.302Z" fill="#ECE45A"/>
<path d="M28.0962 266.468C50.5874 280.166 77.4039 284.915 103.231 279.774C102.648 281.197 101.874 282.534 100.93 283.75C99.4362 285.667 97.553 287.246 95.4048 288.383C87.0809 289.287 78.6836 289.287 70.3597 288.383C62.8932 287.561 54.4561 286.567 44.532 282.122C39.8246 280.006 35.363 277.382 31.2268 274.295C30.7024 272.988 30.1859 271.681 29.6615 270.382C29.1371 269.083 28.6206 267.768 28.0962 266.468Z" fill="#ECE45A"/>
<path d="M93.8395 313.428C105.665 318.406 114.932 318.75 121.232 318.124C127.29 317.521 130.718 316.011 143.93 312.645C152.539 310.438 159.653 308.896 164.279 307.949C162.439 312.305 159.466 316.088 155.669 318.907C153.204 319.4 149.627 320.096 145.284 320.808C144.164 320.996 134.201 322.624 128.316 323.086C122.43 323.548 112.897 323.454 100.14 319.689C98.6958 318.833 97.3786 317.779 96.2266 316.559C95.3177 315.606 94.5172 314.556 93.8395 313.428Z" fill="#ECE45A"/>
<path d="M60.9678 304.819C64.2911 314.35 69.0411 323.322 75.0557 331.429C77.7255 334.985 80.6002 338.382 83.6649 341.604C91.1018 349.598 99.2198 356.93 107.927 363.518C103.026 364.565 97.9584 364.565 93.0568 363.518C89.318 360.299 85.7643 356.87 82.4127 353.25C78.4882 349.092 74.883 344.644 71.6276 339.944C68.1761 334.794 62.8853 325.356 60.1852 311.072C60.1852 310.814 60.1852 310.548 60.1852 310.289C60.2184 308.44 60.4813 306.603 60.9678 304.819Z" fill="#ECE45A"/>
<path d="M64.0985 300.905H67.2291C71.0717 309.054 76.2634 316.495 82.5848 322.914C98.3632 338.88 116.795 343.834 125.146 345.517L129.059 352.561L122.798 357.257C114.203 354.493 106.037 350.541 98.5354 345.517C90.0933 340.072 82.6754 333.184 76.621 325.168C71.1395 317.825 66.9084 309.627 64.0985 300.905Z" fill="#ECE45A"/>
<path d="M27.3135 247.685V250.815C33.1389 256.965 40.0342 262.004 47.6626 265.686C75.2044 278.874 102.762 269.075 109.493 266.468C110.352 265.037 110.886 263.433 111.058 261.773C82.3792 268.359 52.2586 263.292 27.3135 247.685Z" fill="#ECE45A"/>
<path d="M86.0129 297.775C86.1203 299.105 86.383 300.419 86.7955 301.688C87.3373 303.363 88.1289 304.946 89.1435 306.384C97.1044 308.793 105.338 310.184 113.649 310.524C138.811 311.542 158.315 302.533 168.192 296.992C161.32 299.428 154.25 301.261 147.06 302.471C121.444 306.752 99.6937 302.103 86.0129 297.775Z" fill="#ECE45A"/>
<path d="M107.145 280.556C107.145 280.556 111.841 275.078 111.841 271.947C111.841 271.947 118.885 293.861 148.626 278.208L149.408 279.774C147.929 280.462 145.745 281.527 143.147 282.904C135.5 286.951 135.32 287.921 132.19 289.166C131.133 289.58 121.757 293.157 113.829 288.234C110.917 286.361 108.599 283.698 107.145 280.556Z" fill="#ECE45A"/>
<path d="M114.189 246.119C114.571 248.086 114.799 250.08 114.869 252.083C114.982 255.068 114.754 258.057 114.189 260.99C114.189 260.99 119.667 267.251 143.147 263.338C142.951 262.61 142.771 261.827 142.623 260.99C142.521 260.442 142.435 259.918 142.364 259.425C140.328 259.995 138.217 260.259 136.103 260.207C123.565 259.839 115.535 248.154 114.189 246.119Z" fill="#ECE45A"/>
<path d="M125.928 235.945C125.928 235.945 129.059 234.379 134.538 222.64C134.538 222.64 150.973 232.814 182.28 206.986C182.538 207.769 182.804 208.552 183.062 209.334C177.029 218.718 168.459 226.199 158.347 230.908C148.234 235.618 136.993 237.365 125.928 235.945Z" fill="#ECE45A"/>
<path d="M115.754 166.288H136.886L140.016 170.202C131.719 171.397 123.254 170.032 115.754 166.288Z" fill="#ECE45A"/>
<path d="M128.276 178.811C128.441 179.132 128.605 179.46 128.762 179.789L129.842 181.941C132.534 182.912 135.4 183.312 138.255 183.115C142.313 182.797 146.189 181.301 149.408 178.811L144.712 174.897C143.51 175.865 142.196 176.685 140.799 177.339C136.875 179.105 132.503 179.619 128.276 178.811Z" fill="#ECE45A"/>
<path d="M133.755 188.985C136.763 191.857 140.316 194.098 144.203 195.577C148.09 197.056 152.234 197.743 156.39 197.597C160.547 197.451 164.632 196.476 168.406 194.728C172.18 192.98 175.567 190.496 178.367 187.42C177.063 187.487 175.757 187.487 174.453 187.42C171.53 187.252 168.639 186.727 165.844 185.855C162.851 187.272 159.697 188.323 156.452 188.985C148.306 190.537 139.887 189.722 132.19 186.637L133.755 188.985Z" fill="#ECE45A"/>
<path d="M91.4915 366.649C94.7181 368.549 98.1265 370.122 101.666 371.345C121.78 378.248 140.611 371.634 148.626 368.214C148.626 368.214 157.235 373.693 173.671 372.127C165.447 375.711 156.747 378.084 147.843 379.171C138.725 380.303 129.488 380.039 120.45 378.389C113.11 377.045 105.996 374.674 99.3181 371.345C96.6127 369.946 93.9987 368.378 91.4915 366.649Z" fill="#ECE45A"/>
<path d="M162.713 368.214C162.713 368.214 196.368 356.474 208.89 316.559C209.352 318.343 214.071 338.003 200.281 354.126C185.755 371.094 164.146 368.417 162.713 368.214Z" fill="#ECE45A"/>
<path d="M125.928 333.777C126.187 334.818 126.453 335.859 126.711 336.908C136.855 337.685 147.041 336.077 156.452 332.212C161.292 330.361 165.788 327.716 169.757 324.385C179.525 315.94 182.726 305.1 183.845 300.123C183.043 300.319 182.221 300.416 181.395 300.412C179.541 300.318 176.41 299.731 171.323 297.775C169.974 304.627 167.024 311.064 162.713 316.559C149.737 332.9 129.317 333.699 125.928 333.777Z" fill="#ECE45A"/>
<path d="M141.582 165.506C149.278 165.689 156.851 163.544 163.307 159.35C169.764 155.156 174.803 149.11 177.764 142.003C180.725 134.896 181.47 127.061 179.902 119.523C178.333 111.986 174.525 105.098 168.975 99.7623C170.039 103.331 176.801 127.421 162.236 148.232C156.96 155.678 149.843 161.63 141.582 165.506Z" fill="#ECE45A"/>
<path d="M136.886 210.117V206.986C136.886 206.986 160.365 219.509 179.149 199.16L179.932 201.508C179.932 201.508 172.888 217.161 136.886 210.117Z" fill="#ECE45A"/>
<path d="M183.845 201.508L186.193 207.769C195.546 206.692 204.592 203.766 212.803 199.16C237.066 185.432 245.213 161.287 247.24 154.548L237.066 149.852C237.34 153.922 237.927 169.607 226.891 183.507C211.183 203.269 186.037 201.68 183.845 201.508Z" fill="#ECE45A"/>
<path d="M152.539 277.426C152.539 277.426 150.973 275.86 149.408 271.164C156.534 274.603 164.224 276.724 172.105 277.426C202.84 280.063 225.263 259.323 230.022 254.729C230.248 258.4 229.985 262.084 229.239 265.686C229.012 266.782 228.746 267.822 228.457 268.816C228.457 268.816 199.498 292.296 152.539 277.426Z" fill="#ECE45A"/>
<path d="M146.278 251.598C146.021 254.201 146.021 256.822 146.278 259.425C146.54 262.079 147.064 264.7 147.843 267.251C155.704 267.664 163.586 267.138 171.323 265.686C198.927 260.465 217.437 244.609 226.109 235.945L216.717 235.162C213.923 238.348 193.73 260.716 165.844 257.859C158.965 257.117 152.309 254.987 146.278 251.598Z" fill="#ECE45A"/>
<path d="M187.758 217.944C187.758 217.944 197.933 227.336 198.716 228.118L199.498 228.901C199.498 228.901 189.324 239.858 176.801 237.51C176.801 237.51 183.845 232.814 187.758 217.944Z" fill="#ECE45A"/>
<path d="M122.798 28.5404C124.428 27.0713 126.436 26.0883 128.596 25.7029C130.756 25.3175 132.981 25.5452 135.019 26.3601C137.056 27.1749 138.824 28.5445 140.122 30.3132C141.421 32.082 142.197 34.1792 142.364 36.367C142.889 34.5356 143.405 32.712 143.93 30.8884C143.933 28.5855 143.098 26.36 141.582 24.6271C138.13 20.9017 130.93 20.5417 124.363 24.6271C123.839 25.9264 123.322 27.2334 122.798 28.5404Z" fill="#ECE45A"/>
<path d="M120.45 44.9763C120.826 44.6945 128.096 39.4116 135.32 42.6283C137.55 43.6503 139.448 45.2772 140.799 47.3242V44.9763C139.697 42.5463 137.75 40.5993 135.32 39.4977C130.624 37.5645 124.441 39.6542 120.45 44.9763Z" fill="#ECE45A"/>
<path d="M120.45 42.6283C125.866 37.1497 132.675 34.9191 137.668 37.1497C139.211 37.8537 140.556 38.9294 141.582 40.2803C141.84 39.4977 142.106 38.715 142.364 37.9323C140.741 36.0914 138.631 34.7471 136.277 34.0546C133.922 33.3621 131.42 33.3498 129.059 34.0191C122.665 35.8974 120.606 42.1196 120.45 42.6283Z" fill="#ECE45A"/>
<path d="M120.45 57.4988C121.326 56.8492 125.341 54.016 129.842 55.1508C133.708 56.1213 135.915 59.5102 137.668 62.1947C138.628 63.6652 139.416 65.2408 140.016 66.8907V59.0641C139.061 56.7924 137.419 54.8767 135.32 53.5855C131.047 51.0575 125.201 51.6836 120.45 55.1508V57.4988Z" fill="#ECE45A"/>
<path d="M144.712 28.5404C145.011 26.4318 144.758 24.2818 143.978 22.3001C143.198 20.3183 141.918 18.5724 140.263 17.2324C138.608 15.8925 136.634 15.0042 134.533 14.6542C132.432 14.3042 130.277 14.5044 128.276 15.2352C128.801 14.1865 129.317 13.1455 129.842 12.1046C130.726 11.8776 135.673 10.7115 140.016 13.6699C144.36 16.6284 146.403 22.694 144.712 28.5404Z" fill="#ECE45A"/>
<path d="M149.408 21.4965C152.805 17.3328 153.744 11.8777 151.756 7.40868C150.471 4.65009 148.253 2.43306 145.495 1.14742C150.559 2.59533 154.261 6.62602 154.887 11.322C155.216 14.385 154.378 17.4595 152.539 19.9312L149.408 21.4965Z" fill="#ECE45A"/>
<path d="M147.843 23.0618C147.995 20.3623 147.456 17.6685 146.278 15.2353C143.092 8.76268 136.447 6.9156 135.32 6.62602L138.451 4.27805C139.421 4.68503 145.792 7.51042 147.843 14.4526C148.651 17.2655 148.651 20.249 147.843 23.0618Z" fill="#ECE45A"/>
<path d="M36.7054 30.1058L37.4881 38.715C37.4881 38.715 42.184 43.4109 51.5759 41.8456C50.1368 41.3132 48.8097 40.5169 47.6626 39.4977C45.5182 37.5645 45.2364 35.827 43.7494 34.019C42.638 32.6572 40.6187 30.9902 36.7054 30.1058Z" fill="#ECE45A"/>
<path d="M39.0534 48.8895L40.6187 52.8028C40.6187 52.8028 44.532 57.4988 53.1412 47.3242C53.1412 47.3242 45.3147 52.8028 39.0534 48.8895Z" fill="#ECE45A"/>
<path d="M51.5759 29.3231C53.4856 29.2135 55.4892 29.1431 57.5398 29.1274C60.3887 29.1274 63.1045 29.1744 65.6638 29.3231C66.1334 29.7379 70.3206 33.5651 69.5771 38.715C69.3612 40.1219 68.8257 41.4606 68.0118 42.6283C67.8897 41.5548 67.6266 40.5022 67.2291 39.4976C64.0515 31.5145 53.2978 29.6048 51.5759 29.3231Z" fill="#ECE45A"/>
<path d="M56.2719 59.0641L55.4892 57.4988C55.4892 57.4988 45.3147 59.8468 40.6187 54.3681C40.6187 54.3681 48.4453 63.76 56.2719 59.0641Z" fill="#ECE45A"/>
<path d="M77.4036 44.1936C77.4036 44.1936 85.2302 44.9763 90.7088 50.4549C90.7088 50.4549 90.7088 39.4977 89.1435 35.5844C87.6724 34.6259 86.097 33.8382 84.4476 33.2364C84.4476 33.2364 88.3609 42.6283 77.4036 44.1936Z" fill="#ECE45A"/>
<path d="M43.7494 64.5427C43.7494 64.5427 52.3586 68.456 57.0545 61.4121C57.0545 61.4121 59.4025 67.6733 63.3158 70.804C63.3158 70.804 55.4892 73.9346 46.0973 68.456L43.7494 64.5427Z" fill="#ECE45A"/>
<path d="M62.5331 86.4571C65.8008 88.8003 69.54 90.4028 73.4904 91.1531C74.8448 90.7224 76.0819 89.986 77.1062 89.0008C80.7456 85.4397 79.8612 80.0472 79.7516 79.4132C78.6646 80.9183 77.3435 82.2395 75.8383 83.3265C70.4928 87.1459 64.4976 86.6919 62.5331 86.4571Z" fill="#ECE45A"/>
<path d="M197.933 48.1069C197.563 49.6182 196.744 50.9823 195.585 52.0202C194.231 53.1707 193.237 53.0455 191.672 54.3682C190.31 55.5187 190.263 56.3483 189.324 57.4988C188.385 58.6493 186.584 60.0346 183.062 60.6294C185.704 61.1879 188.452 60.9621 190.967 59.9798C193.136 59.2128 195.017 57.8009 196.36 55.9335C197.838 53.6103 198.398 50.8206 197.933 48.1069Z" fill="#ECE45A"/>
<path d="M198.716 52.8028C198.527 58.7823 197.143 64.6635 194.646 70.0996C191.396 71.3307 187.812 71.3502 184.55 70.1544C183.235 69.6417 182.017 68.9086 180.949 67.9864C182.881 68.6758 184.961 68.8379 186.976 68.456C192.83 67.3055 197.518 61.0442 198.716 52.8028Z" fill="#ECE45A"/>
<path d="M172.379 61.2399L174.038 60.7938C174.038 60.7938 173.334 51.1201 179.462 47.7703C179.462 47.7703 168.982 53.3116 172.379 61.2399Z" fill="#ECE45A"/>
<path d="M176.676 74.0911C176.676 74.0911 174.234 78.1218 167.081 78.9671C169.155 79.7497 171.37 80.5324 173.71 81.2524C177.565 82.4298 181.485 83.3836 185.45 84.1091C185.695 83.8328 185.956 83.5715 186.232 83.3265C186.602 82.9875 186.994 82.6737 187.406 82.3873C187.406 82.3873 176.199 80.7985 176.676 74.0911Z" fill="#ECE45A"/>
<path d="M168.951 48.8895C168.951 48.8895 163.746 56.0743 169.945 61.5529C169.945 61.5529 163.41 62.633 159.708 65.6697C159.708 65.6697 157.861 57.9997 164.733 50.3688L168.951 48.8895Z" fill="#ECE45A"/>
<path d="M183.845 48.1069H179.932C179.932 48.1069 180.714 57.4988 183.062 60.6294C183.062 60.6294 180.714 52.0202 183.845 48.1069Z" fill="#ECE45A"/>
<path d="M105.579 89.5878C105.994 89.5878 111.715 89.7208 114.189 86.4571C115.195 85.0974 115.743 83.4529 115.754 81.7612H118.102C118.089 83.4525 117.541 85.0964 116.537 86.4571C115.778 87.3974 114.827 88.1637 113.747 88.7038C112.666 89.244 111.482 89.5455 110.275 89.5878H105.579Z" fill="#ECE45A"/>
<path d="M101.666 89.5878C101.611 89.2669 106.315 89.2825 108.71 86.4571C109.747 85.1136 110.299 83.4584 110.275 81.7612H111.841C111.828 83.4525 111.28 85.0964 110.275 86.4571C109.517 87.3974 108.566 88.1637 107.485 88.7038C106.405 89.244 105.221 89.5455 104.014 89.5878C102.809 89.6191 101.69 89.7365 101.666 89.5878Z" fill="#ECE45A"/>
<path d="M147.06 88.0224C147.06 88.0224 125.928 105.241 101.666 89.5878L147.06 88.0224Z" fill="#ECE45A"/>
<path d="M158.8 95.0664L155.669 92.7184C154.323 95.403 152.461 97.7964 150.191 99.7623C146.52 102.573 142.224 104.453 137.668 105.241C136.327 105.474 134.968 105.592 133.606 105.593C134.538 105.742 151.435 108.223 157.235 98.9796C157.982 97.7771 158.512 96.4525 158.8 95.0664Z" fill="#ECE45A"/>
<path d="M143.93 62.9774L141.582 64.5427L135.32 80.9785C135.32 80.9785 144.712 81.7612 147.06 77.0652C145.581 75.0672 144.538 72.7807 143.999 70.3538C143.459 67.927 143.436 65.4139 143.93 62.9774Z" fill="#ECE45A"/>
<path d="M113.406 70.804C111.995 64.8469 112.266 58.615 114.189 52.8028L105.579 45.7589C107.725 48.9808 108.564 52.8981 107.927 56.7161C107.539 58.6872 106.739 60.5541 105.579 62.1947L113.406 70.804Z" fill="#ECE45A"/>
<path d="M124.363 71.5866C124.702 72.8273 125.406 73.9379 126.382 74.775C127.359 75.6121 128.564 76.1372 129.842 76.2826C129.246 75.3328 128.444 74.53 127.494 73.9346C126.657 73.4992 125.87 72.9744 125.146 72.3693C124.869 72.1247 124.608 71.8633 124.363 71.5866Z" fill="#ECE45A"/>
<path d="M132.19 80.9785H134.538C134.538 80.9785 134.538 79.4132 132.393 77.0652C132.393 77.0731 134.538 79.4132 132.19 80.9785Z" fill="#ECE45A"/>
<path d="M134.538 81.7612C134.538 81.7612 134.538 88.0224 143.147 88.8051C143.147 88.8051 136.103 89.5878 132.972 81.7612" fill="#ECE45A"/>
<path d="M127.494 81.7612H125.928C129.613 84.8897 133.864 87.281 138.451 88.8051C138.451 88.8051 133.755 87.2398 127.494 81.7612Z" fill="#ECE45A"/>
</svg>
